<?xml version="1.0" encoding="UTF-8"?>
<svg id="_レイヤー_2" data-name="レイヤー 2" xmlns="http://www.w3.org/2000/svg" viewBox="0 0 30.93 20.19">
  <g id="_レイヤー_1-2" data-name="レイヤー 1">
    <g>
      <path d="M3.97,11.52c0,2.68,2.11,3.97,3.8,3.97s3.8-1.3,3.8-3.97c0-2.08-2.06-3.74-3.8-4.73-1.75.99-3.8,2.65-3.8,4.73Z"/>
      <path d="M0,0v20.19h30.93V0H0ZM30.93,4.74c-1.86,0-4.12.35-5.89,1.12,1.91,1.28,3.76,3.21,3.76,5.66,0,3.23-2.71,5.7-5.69,5.7s-5.6-2.47-5.6-5.7c0-2.44,1.76-4.38,3.67-5.66-1.77-.77-3.86-1.12-5.71-1.12s-3.94.35-5.71,1.12c1.91,1.28,3.67,3.21,3.67,5.66,0,3.23-2.62,5.7-5.6,5.7s-5.74-2.47-5.74-5.7c0-2.44,1.89-4.38,3.8-5.66C4.11,5.09,1.86,4.74,0,4.74v-1.77c3.14,0,5.92.78,7.81,1.77,1.89-.98,4.5-1.77,7.65-1.77s5.75.78,7.65,1.77c1.89-.98,4.68-1.77,7.82-1.77v1.77Z"/>
      <path d="M19.43,11.47c0,2.67,2.11,3.97,3.8,3.97s3.8-1.3,3.8-3.97c0-2.08-2.06-3.74-3.8-4.73-1.75.99-3.8,2.65-3.8,4.73Z"/>
    </g>
  </g>
</svg>