<?xml version="1.0" encoding="UTF-8"?>
<svg id="_レイヤー_2" data-name="レイヤー 2" xmlns="http://www.w3.org/2000/svg" viewBox="0 0 14 20">
  <g id="_レイヤー_1-2" data-name="レイヤー 1">
    <g>
      <path d="M7,10c-2.76,0-5-2.24-5-5S4.24,0,7,0s5,2.24,5,5-2.24,5-5,5ZM7,2c-1.65,0-3,1.35-3,3s1.35,3,3,3,3-1.35,3-3-1.35-3-3-3Z"/>
      <path d="M13,20c-.55,0-1-.45-1-1v-2c0-1.65-1.35-3-3-3h-4c-1.65,0-3,1.35-3,3v2c0,.55-.45,1-1,1s-1-.45-1-1v-2c0-2.76,2.24-5,5-5h4c2.76,0,5,2.24,5,5v2c0,.55-.45,1-1,1Z"/>
    </g>
  </g>
</svg>