<?xml version="1.0" encoding="UTF-8"?>
<svg id="_レイヤー_2" data-name="レイヤー 2" xmlns="http://www.w3.org/2000/svg" viewBox="0 0 24.33 19.46">
  <g id="_レイヤー_1-2" data-name="レイヤー 1">
    <path d="M2.43,19.46c-.67,0-1.24-.24-1.72-.71s-.71-1.05-.71-1.72V2.43c0-.67.24-1.24.71-1.72s1.05-.71,1.72-.71h19.46c.67,0,1.24.24,1.72.71s.71,1.05.71,1.72v14.6c0,.67-.24,1.24-.71,1.72s-1.05.71-1.72.71H2.43ZM12.16,10.95L2.43,4.87v12.16h19.46V4.87l-9.73,6.08ZM12.16,8.52l9.73-6.08H2.43l9.73,6.08ZM2.43,4.87v-2.43,14.6V4.87Z"/>
  </g>
</svg>