<?xml version="1.0" encoding="UTF-8"?><svg id="_レイヤー_2" xmlns="http://www.w3.org/2000/svg" viewBox="0 0 50.56 50.56"><defs><style>.cls-1{fill:#000;}.cls-1,.cls-2{stroke-width:0px;}.cls-2{fill:#fff;}</style></defs><g id="_レイヤー_1-2"><path class="cls-2" d="M50.56,25.28c0,13.96-11.32,25.28-25.28,25.28S0,39.24,0,25.28,11.32,0,25.28,0s25.28,11.32,25.28,25.28"/><path class="cls-1" d="M27.94,25.28c0,.17-.07.34-.2.47l-4,4c-.26.26-.68.26-.94,0-.26-.26-.26-.68,0-.94l3.53-3.53-3.53-3.53c-.26-.26-.26-.68,0-.94.26-.26.68-.26.94,0l4,4c.13.13.2.3.2.47"/></g></svg>