<?xml version="1.0" encoding="UTF-8"?>
<svg id="_レイヤー_2" data-name="レイヤー 2" xmlns="http://www.w3.org/2000/svg" viewBox="0 0 599.93 56.75">
  <defs>
    <style>
      .cls-1 {
        fill: #1a1a1a;
      }
    </style>
  </defs>
  <g id="_レイヤー_1-2" data-name="レイヤー 1">
    <g id="_6sAnwM" data-name="6sAnwM">
      <g id="_6sAnwM-2" data-name="6sAnwM">
        <g id="work">
          <g>
            <path class="cls-1" d="M50.66,49.33l.78-1.35c.16-.27.06-.63-.21-.78h0l-18-10.39c-.17-.09-.22-.31-.13-.49.03-.06.08-.1.15-.14l.79-.47h0l24.23-13.99c.25-.17.33-.5.19-.76l-.77-1.35c-.16-.27-.51-.37-.78-.21h0l-17.99,10.38c-.17.09-.39.04-.48-.13-.03-.06-.05-.13-.05-.2V.54c-.02-.3-.26-.54-.58-.54h-1.56c-.31,0-.58.26-.58.58h0v20.8h0c0,.2-.16.36-.36.36-.07,0-.14-.02-.19-.06l-.79-.45L10.08,7.23c-.27-.13-.6-.04-.74.22l-.77,1.35c-.16.27-.06.63.21.78h0l18,10.38c.17.1.23.31.14.49-.03.06-.08.1-.15.14l-.79.46L1.72,35.05c-.25.17-.33.49-.19.75l.78,1.35c.16.27.51.37.78.21h0l18-10.38c.17-.09.39-.04.48.14.03.06.05.13.05.2v.92h0v27.98c.02.29.26.53.56.53h1.56c.31,0,.58-.26.58-.58h0v-20.78c0-.2.16-.36.36-.36.07,0,.14.02.19.05l.79.46,24.24,13.99c.27.14.6.04.75-.22M29.99,34.79c-.14,0-.26-.03-.39-.1l-4.88-2.81c-.23-.14-.39-.39-.39-.66v-5.64c0-.27.15-.52.39-.66l4.88-2.81c.24-.14.53-.14.76,0l4.88,2.81c.23.14.38.39.38.66v5.64c0,.27-.15.52-.38.66l-4.88,2.81c-.12.06-.25.1-.39.1"/>
            <path class="cls-1" d="M32.7.56c-.02-.3-.26-.54-.56-.54h-1.56c-.31,0-.58.26-.58.58h0v15.01l2.71,1.56V.56h-.01Z"/>
            <path class="cls-1" d="M27.05.56c-.02-.3-.26-.54-.56-.54h-1.56c-.31,0-.58.26-.58.58h0v11.74l2.71,1.56V.56h-.01Z"/>
            <path class="cls-1" d="M21.39.56c-.02-.3-.26-.54-.56-.54h-1.56c-.31,0-.58.26-.58.58h0v8.48l2.71,1.56V.56h-.01Z"/>
            <path class="cls-1" d="M7.25,12.13c-.27-.13-.6-.04-.74.22l-.77,1.35c-.16.27-.06.63.21.78h0l13,7.51,2.7-1.56L7.25,12.13Z"/>
            <path class="cls-1" d="M4.43,17.02c-.27-.13-.6-.04-.75.22l-.78,1.35c-.16.27-.06.63.21.78h0l10.18,5.88,2.7-1.56-11.56-6.67h.01Z"/>
            <path class="cls-1" d="M1.59,21.93c-.27-.13-.6-.04-.74.22l-.77,1.35c-.16.27-.06.63.21.78h-.01l7.34,4.24,2.7-1.56L1.59,21.93Z"/>
            <path class="cls-1" d="M4.54,39.95c-.25.17-.33.49-.19.75l.78,1.35c.16.27.51.37.78.21l13-7.51v-3.12l-14.38,8.3h0Z"/>
            <path class="cls-1" d="M7.38,44.85c-.25.17-.33.5-.19.76l.37.64.41.7c.16.27.51.37.78.21l10.18-5.88v-3.12l-11.56,6.67h.01Z"/>
            <path class="cls-1" d="M10.21,49.76c-.25.17-.33.49-.19.75l.78,1.35c.16.27.51.37.78.21h0l7.34-4.24v-3.12l-8.72,5.04Z"/>
            <path class="cls-1" d="M27.29,56.21c.02.3.26.54.56.54h1.56c.31,0,.58-.26.58-.58h0v-15.01l-2.7-1.56v16.61h0Z"/>
            <path class="cls-1" d="M32.94,56.21c.02.3.26.54.56.54h1.56c.31,0,.58-.26.58-.58h0v-11.74l-2.7-1.56v13.34h0Z"/>
            <path class="cls-1" d="M38.61,56.21c.02.3.26.54.56.54h1.56c.31,0,.58-.26.58-.58h0v-8.47l-2.7-1.56v10.07h0Z"/>
            <path class="cls-1" d="M52.74,44.64c.27.14.6.04.75-.22l.77-1.35c.16-.27.06-.63-.21-.78h0l-13-7.51-2.7,1.56,14.38,8.3Z"/>
            <path class="cls-1" d="M55.57,39.74c.27.14.6.04.75-.22l.77-1.35c.16-.27.06-.63-.21-.78h0l-10.18-5.88-2.7,1.56,11.56,6.67Z"/>
            <path class="cls-1" d="M59.72,32.48h0l-7.34-4.25-2.7,1.56,8.72,5.04c.27.14.6.04.75-.22l.78-1.35c.16-.27.06-.63-.21-.78"/>
            <path class="cls-1" d="M55.45,16.82c.25-.17.33-.5.18-.76l-.77-1.35c-.16-.27-.51-.37-.78-.21h0l-13,7.51v3.12l14.38-8.3Z"/>
            <path class="cls-1" d="M52.62,11.91c.25-.17.33-.5.18-.76l-.77-1.35c-.16-.27-.51-.37-.78-.21h0l-10.18,5.87v3.12l11.56-6.67h0Z"/>
            <path class="cls-1" d="M49.79,7.02c.25-.17.33-.5.18-.75l-.77-1.35c-.16-.27-.51-.37-.78-.21h0l-7.34,4.24v3.12l8.72-5.04Z"/>
            <path class="cls-1" d="M503.34,14.96l-6.09,28.62h3.64l3.01-14.14h9.11l3.07-14.48h-12.75ZM510.78,23.54l-.63,2.94h-5.62l.63-2.94h5.62ZM511.96,17.92l-.59,2.77h-5.62l.59-2.77h5.62Z"/>
            <path class="cls-1" d="M515.27,29.45h9.56l-1.95,9.13c-.18.86-.94,1.3-2.28,1.3-.5,0-1.31-.04-2.52-.1-.16,0-.5-.01-.95-.03l-.99-.04.28,3.65h.15c2.43.1,3.37.15,4.04.15,2.05,0,3.46-.25,4.19-.74.76-.51,1.05-.98,1.31-2.22l5.44-25.56h-13.19l-3.07,14.48h-.01ZM519.91,23.54h6.16l-.62,2.94h-6.16l.62-2.94ZM527.26,17.92l-.59,2.77h-6.17l.59-2.77h6.17Z"/>
            <path class="cls-1" d="M562.11,15.08l.31-.38-3.64-1.55-.19.35c-1.33,2.2-3.29,4.54-4.32,5.55h-3.12l1.59-.98-.04-.24c-.08-.91-.61-3.36-1.1-4.52l-.07-.22-3.59,1.06.13.26c.65,1.64,1.23,3.71,1.34,4.64h-3.4s-.03-.05-.05-.15c-.26-.99-.99-3.13-1.78-4.65l-.13-.27-3.55,1.1.08.15c.52,1,1.53,3.08,1.68,3.84h-6.15l-1.74,8.18h3.58l1.06-4.95h21.55l-1,4.71h3.48l1.68-7.94h-6.4c1.23-1.16,2.43-2.27,3.76-3.98"/>
            <path class="cls-1" d="M549.96,31.55c3.91-2.01,6.11-3.41,7.75-4.49l.06-.04.56-2.82h-17.76l-.66,3.1h11.9c-1.54.88-2.31,1.36-5.12,2.62l-.07.03-.44,2.05h-13.29l-.68,3.19h13.13l-.89,4.19c-.16.74-.33.89-1.14.89-.47,0-1.28-.04-3.91-.24h-.2l.27,3.85,1.02.02c1.14.03,2.12.05,3.14.05,2.97,0,3.82-.59,4.39-3.34l1.15-5.42h13.33l.68-3.19h-13.33l.09-.46Z"/>
            <path class="cls-1" d="M496.82,18.74l.66-3.1h-12.9l.54-2.55h-3.32l-.53,2.54h-12.84l-.66,3.1h12.84l-.29,1.41h-10.19l-2.45,11.48h16.22l-.29,1.36h-19.69l-.66,3.1h8.06l-2.35,1.35.06.09c1.06,1.61,2.05,3.32,2.7,4.87l.06.14,3.61-2.06-.02-.06c-.62-1.3-1.66-2.94-2.62-4.33h10.21l-.78,3.66c-.12.56-.21.65-1.19.65-.85,0-2.43-.06-4.21-.17h-.2l.27,3.37h.15c3.04.15,3.44.15,4.17.15,1.62,0,2.49-.15,3.1-.54.51-.33.94-.97,1.08-1.64l1.17-5.46h7.63l.66-3.1h-7.63l.29-1.36h4.02l2.44-11.48h-10.29l.29-1.41h12.9ZM478.5,28.9h-6.87l.36-1.7h6.87l-.36,1.7ZM479.41,24.67h-6.78l.35-1.66h6.78l-.35,1.66ZM488.58,28.9h-6.78l.37-1.7h6.77l-.36,1.7ZM489.83,23.01l-.35,1.66h-6.78l.35-1.66h6.78Z"/>
            <path class="cls-1" d="M578.16,13.9h-3.41l-1.19,5.61h-4.53l-.68,3.2h4.37c-1.43,3.2-3.99,7.05-6.96,10.14l.04,4.79v.03l.23-.24c1.93-2.1,3.48-4.38,5.19-6.96l-2.83,13.39h3.41l2.89-13.64c.33,1.61.94,3.44,1.66,4.99l.12.24,2.49-2.92-.05-.09c-1.46-2.66-2.35-4.55-2.88-6.21-.13-.4-.21-.85-.2-1.17,0-.07.04-.35.04-.35l.42-1.99h2.91l.68-3.2h-2.91l1.19-5.61h.01Z"/>
            <polygon class="cls-1" points="592.62 13.35 589.1 13.35 588.49 16.23 581.25 16.23 580.56 19.46 599.25 19.46 599.93 16.23 592.01 16.23 592.62 13.35"/>
            <path class="cls-1" d="M596.26,40.59c-.84-.3-1.74-.69-2.51-1.07-.03-.01-.05-.02-.08-.03-2.29-1.2-3.92-2.35-5.17-3.89,2.22-2.22,3.42-3.6,5.54-7.11.63.89,1.45,1.85,2.3,2.66l.19.18,2.61-2.64-.14-.14c-3.08-3.07-4.12-5.55-4.9-7.98-.03-.09-.08-.25-.12-.33l-3.36,1.28.05.22c.27,1.07.81,2.44,1.28,3.35-1.52,3.3-3.46,5.82-5.31,7.6-1.02-1.9-1.51-5.8-1.5-7.29.7-.96,1.55-2.34,2.14-3.62l.12-.24-3.27-1.13-.08.14c-1.52,3.08-3.82,5.48-5.84,7.24l-.3.24,1.69,3.2.17-.17c.92-.89,1.38-1.19,2.31-2.26.39,2.43.88,3.98,1.77,6.04-1.95,1.9-5.75,4.15-8.74,5.25l.36,3.93.13-.05c4.24-1.72,7.34-3.85,9.98-6.01,1.35,1.67,3.63,3.84,7.1,5.59,0,0,.9.5,1.21.68l2.37-3.67v.03Z"/>
            <path class="cls-1" d="M168.33,21.3l1.45-6.86h-4.08l-1.45,6.86h-9.46l1.41-6.65h-4.01l-1.41,6.65h-6.19l-.78,3.69h6.19l-1.74,8.13h4.02l1.73-8.13h9.46l-.63,2.93c-1.29,5.89-2.9,8.22-7.44,10.04-2.47.84-5.44,1.4-8.69,1.55l.68,4.11h.37c.22-.02.42-.04.64-.07,3.24-.37,6.07-1.04,8.63-2,5.99-2.23,8.25-5.68,9.98-13.92l.55-2.6h6.25l.78-3.69h-6.25v-.03Z"/>
            <path class="cls-1" d="M140.09,35.34c-.51-.43-1.09-.88-1.72-1.33-2.25-1.78-5.47-3.73-8.09-5.06,3.46-2.5,6.79-5.68,8.04-6.88.53-.51.61-.58.7-.66l.04-.05.49-2.29h-9.72l1.1-5.2h-3.86l-1.1,5.2h-10.58l-.77,3.69h17.75c-5.01,4.72-13.05,8.43-22.32,11.04l-.31.09.66,4.03c.84-.22,1.8-.48,2.8-.84,3.33-1.12,7.81-2.94,9.85-4.07l-2.43,11.36h4.02l2.7-12.87c.51.26,1.08.59,1.68.94.62.4,1.18.75,1.7,1.1,1.45.98,3.04,2.16,4.64,3.5.31.27.63.55.96.86l3.78-2.58-.02.02Z"/>
            <path class="cls-1" d="M233.96,41.54c-.22-.49-.5-.96-.82-1.42h.02l-.08-.15c-1.79-2.48-6.01-7.17-8.47-9.55,3.27-3.93,5.67-7.93,8.05-13.38l.1-.24h-21.84l-.81,3.79h16.48c-4.39,8.76-11.94,14.69-22.4,18.8-.04.01-.08.03-.13.04l.71,4.37c.18-.07.36-.14.52-.21h0c6.22-2.45,11.68-5.73,16.36-10.03,2.79,2.76,4.87,5.49,7.21,9.29.24.45.47.92.71,1.4l.08.17,4.35-2.76-.07-.14h.01Z"/>
            <path class="cls-1" d="M186.88,26.37l.12.14,3.69-3.29-.27-.35c-1.96-2.12-5.18-4.9-8.27-6.88l-.12-.07-3.48,3.19.46.29c3.71,2.67,5.04,3.92,7.86,6.98"/>
            <path class="cls-1" d="M202.44,19.27l-.03-.03-.24.59c-1.11,2.51-2.15,4.51-3.29,6.26-1.66,2.5-3.5,4.54-5.63,6.24l-.12.08c-.15.12-.29.23-.44.33-4.16,3.01-9.17,4.94-14.9,5.74-.72.08-1.51.17-2.39.25h-.03l.71,4.38v.03h.04c7.18-.84,13.32-3.01,18.23-6.46,4.77-3.36,8.51-8.02,11.14-13.86v-.03l.02-.02c.13-.22.25-.44.38-.66v-.02l-3.44-2.83h0Z"/>
            <path class="cls-1" d="M89.96,15.91v-.02h-4.27c0,.05-.51,3.8-1.11,6.55-.82,3.69-1.57,6.25-2.45,8.31-.97,2.18-2.23,3.91-4.08,5.65-1.17,1.05-2.47,2-3.97,3.08l-.06.05,1.55,4.59v.02h.02c.28-.24.53-.45.75-.64h0l.46-.35c3.98-3.1,6.39-5.68,8.04-8.63,1.73-3.07,2.69-6.64,3.68-11.4l1.42-7.22h.01Z"/>
            <path class="cls-1" d="M105.12,23.69h-.02l-.06.15c-1.64,4.04-2.7,6.14-5.05,8.73-2.42,2.45-4.51,3.98-6.21,4.58l4.54-21.77v-.02h-4.01l-5.84,27.49v.02l.26-.04c2.32-.32,4.81-1.14,7.21-2.38,2.31-1.2,4.36-2.7,5.93-4.34,2.47-2.52,4.5-5.64,6.38-9.82h0l-3.14-2.59h.01Z"/>
            <path class="cls-1" d="M384.84,26.85c-.51-.63-1.27-.98-2.13-.98-1.92,0-3.81,1.52-4.19,3.37-.21.96-.02,1.86.52,2.53.51.64,1.3.98,2.22.98,1.88,0,3.73-1.53,4.13-3.41.2-.93,0-1.84-.53-2.5"/>
            <path class="cls-1" d="M421.03,44.07l2.15-3.7c-.05,0-.12,0-.17-.02-.23-.02-.84-.13-1.32-.22-5.03-1.05-9.05-2.91-11.15-5.21h11.92l.67-3.17h-12.88l.08-.29c.2-.66.28-.94.42-1.55h13.46l.65-3.06h-13.45l.44-2.08h10.83l.65-3.06h-10.83l.37-1.74h12.33l.65-3.06h-7.63c.85-.92,1.75-1.97,2.84-3.38l.07-.09-4.59-.27-.05.08c-.98,1.52-2.13,3.15-2.55,3.66h-4.65c-.41-1.48-.51-1.91-.84-3.4l-.02-.09-4.3.29.04.1c.1.3.32,1,.54,1.76.1.33.42,1.34.42,1.34h-7.47l-.65,3.06h12.33l-.37,1.74h-11l-.65,3.06h11l-.44,2.08h-13.52l-.66,3.06h13.52l-.03.14c-.19.77-.24,1.01-.44,1.7h-12.88l-.68,3.17h11.8c-2.44,2.7-7.45,4.67-13.57,5.33l.61,3.72c6.96-1.15,12.84-3.96,15.78-7.56,1.85,3.29,5.61,5.67,11.49,7.25l.09.02h0c.35.1.94.25,1.33.32.1.01.21.03.3.04"/>
            <polygon class="cls-1" points="449.31 16.38 449.93 13.46 446.2 13.46 445.59 16.38 432.91 16.38 431.36 23.6 434.98 23.6 435.86 19.55 457.58 19.55 456.7 23.7 460.22 23.7 461.78 16.38 449.31 16.38"/>
            <path class="cls-1" d="M459.87,25.9c-1.73-.67-3.25-1.37-4.77-2.37-1.38-.98-2.6-2.04-3.91-3.29l-.1-.12-2.37,1.82.12.14c.7.86,1.7,1.81,2.78,2.72,2.06,1.89,4.55,3.42,6.46,4.18l1.79-3.08h.01Z"/>
            <path class="cls-1" d="M440.54,20.31c-2.76,2.41-5.26,4.01-8.77,5.43-.35.14-.7.27-1.07.4l.43,3.25.06-.02c.67-.23,1.32-.48,1.95-.77h0l.13-.05c3.2-1.39,6.17-3.24,9.9-6.52l-2.62-1.7h0Z"/>
            <path class="cls-1" d="M459.77,31.9c-.5-.16-.97-.31-1.43-.48-5.38-2.28-9.32-5.96-10.89-8.21l-.05-.08h-3.48l-.05.05c-3.58,3.29-8.72,6.99-14.36,8.94-.25.07-.5.14-.75.2l.31,3.43s.05-.01.08-.02h0c1.37-.39,2.65-.91,3.99-1.61.07-.04.15-.07.22-.1l-2.09,9.84h3.35l.28-1.34h14.07l-.25,1.16h3.51l2.14-10.09c.15.07.28.15.41.21,1.12.64,2.18,1.15,3.03,1.39l1.91-3.29h.04ZM449.7,39.22h-14.08l.92-4.34h14.07l-.92,4.34h.01ZM437.73,31.69c2.36-1.22,4.92-3.08,7.38-5.21,1.79,1.83,3.98,3.7,6.28,5.21h-13.67Z"/>
            <path class="cls-1" d="M276.64,19.8c.46-1.97.71-5.27.72-5.33,0-.06.01-.19.01-.19l-2.98.1s0,.08-.01.13c-.21,1.69-.58,4.25-.78,5.27,0,.06-.03.14-.03.14l3.05-.03.02-.07h0Z"/>
            <path class="cls-1" d="M278.73,14.3v.16c-.13,1.8-.45,4.3-.71,5.49,0,.06-.02.1-.02.1l2.97-.03s.01-.05.02-.08c.4-1.44.51-3.96.66-5.57v-.13l-2.91.06h-.01Z"/>
            <polygon class="cls-1" points="272.73 15.98 272.75 15.94 253.33 15.94 252.53 19.69 252.53 19.72 271.94 19.72 272.73 15.98"/>
            <path class="cls-1" d="M247.59,28.51v.04h13.33c-.75,4.06-1.91,6.35-3.99,7.88-1.85,1.46-5.54,2.91-9.39,3.67h-.07l.68,4.16v.03h.03c.47-.12.9-.23,1.31-.35h0l.15-.04c1.32-.36,2.47-.71,3.48-1.08,7.64-2.65,10.23-5.71,11.98-14.27h11.62l.78-3.71v-.04h-29.13l-.78,3.71h.01Z"/>
            <path class="cls-1" d="M306.46,21.3l1.45-6.86h-4.08l-1.45,6.86h-9.46l1.41-6.65h-4.01l-1.41,6.65h-6.19l-.78,3.69h6.19l-1.73,8.13h4.02l1.73-8.13h9.46l-.63,2.93c-1.29,5.89-2.9,8.22-7.45,10.04-2.46.84-5.44,1.4-8.69,1.55l.68,4.11h.37c.22-.02.42-.04.64-.07,3.24-.37,6.07-1.04,8.63-2,5.99-2.23,8.25-5.68,9.98-13.92l.55-2.6h6.25l.78-3.69h-6.25v-.03Z"/>
            <path class="cls-1" d="M311.84,19.8c.46-1.97.71-5.27.72-5.33,0-.06.01-.19.01-.19l-2.98.1s0,.08-.01.13c-.21,1.69-.58,4.25-.78,5.27,0,.06-.03.14-.03.14l3.05-.03.02-.07h0Z"/>
            <path class="cls-1" d="M313.92,14.45c-.13,1.8-.45,4.3-.71,5.49-.01.06-.02.1-.02.1l2.97-.03s.01-.05.02-.08c.4-1.44.51-3.96.65-5.58v-.13l-2.91.06v.16"/>
            <path class="cls-1" d="M353.76,26.37l.12.14,3.69-3.29-.27-.35c-1.96-2.12-5.18-4.9-8.27-6.88l-.12-.07-3.48,3.19.46.29c3.7,2.67,5.04,3.92,7.87,6.98"/>
            <path class="cls-1" d="M369.38,19.11l-.03-.02-.3.75c-1.11,2.51-2.15,4.5-3.29,6.26-1.66,2.49-3.5,4.54-5.63,6.24l-.13.09c-.14.1-.28.22-.43.32-4.16,3.01-9.17,4.94-14.89,5.74-.72.08-1.51.17-2.41.25h-.03l.72,4.38v.03h.03c7.19-.84,13.32-3.01,18.23-6.45,4.77-3.36,8.51-8.02,11.14-13.86l.02-.03v-.02c.16-.26.32-.56.5-.89l.08-.15-3.58-2.66h-.01Z"/>
            <path class="cls-1" d="M339.41,14.04l-.02-.02-.02.02c-3.39,3.15-6.33,5.78-10.69,8.47-3.79,2.33-9.38,4.83-14.98,6.68h-.03l1.9,3.67v.03l.07-.02s.03,0,.05-.02l.06-.02c3.64-1.32,8.39-3.47,11.55-5.25l.52-.28-3.55,16.67v.04h4.45l.12-.77,3.79-18.56c1.16-.79,2.07-1.53,3.03-2.29.28-.23.58-.46.88-.69,1.85-1.41,3.55-2.81,6.01-5.01l.03-.02-3.18-2.61h-.01Z"/>
          </g>
        </g>
      </g>
    </g>
  </g>
</svg>