<?xml version="1.0" encoding="UTF-8"?><svg id="_レイヤー_2" xmlns="http://www.w3.org/2000/svg" viewBox="0 0 448.19 281.1"><defs><style>.cls-1{fill:#71bce9;}.cls-1,.cls-2,.cls-3{stroke-width:0px;}.cls-2{fill:#fff352;}.cls-3{fill:#fff;}</style></defs><g id="_レイヤー_1-2"><rect class="cls-1" width="448.19" height="281.1" rx="53.41" ry="53.41"/><path class="cls-3" d="M132.86,55.26c-.2.17-.27.24-.54.44-.58-.99-1.05-1.56-1.97-2.34v2.2c-.64-.1-1.05-.1-2.11-.1h-1.93v1.22h2.37c1.39,0,1.83-.03,2.68-.14v3.53c-.75-.07-1.22-.1-2.78-.1h-9.57c-1.39,0-1.9.04-2.78.14v-3.6c.88.14,1.49.17,2.78.17h3.29v-1.22h-2.48c-1.05,0-1.42,0-2.17.1v-3.09c.71.1,1.05.1,2.24.1h2.41v-1.16h-2.75c-1.52,0-1.87,0-2.71.1v-3.43c.85.1,1.76.17,2.89.17h2.58v-.17c0-.71-.03-1.42-.14-2.04h4.28c-.1.61-.14,1.12-.14,2.04v.17h1.9c1.12,0,2.04-.03,2.89-.17v3.43c-.88-.07-1.49-.1-2.68-.1h-2.11v1.16h2c.81,0,1.22,0,1.53-.04,2.71-1.76,4.78-4.21,5.66-6.78l4.31.61q-.14.24-.47.88c-.34.61-.54.95-.58,1.02h3.02c1.19,0,1.73-.03,2.17-.1l1.76,1.7c-.44.54-.64.78-1.49,2.11-.61.98-1.05,1.59-1.52,2.24h1.25c1.29,0,2.07-.03,2.82-.14-.1.82-.14,1.53-.14,2.89v3.02c.71,0,1.05-.03,1.59-.13v4.17c-.68-.1-.85-.1-1.59-.13v4c0,1.39.03,2.38.17,3.33h-4.17v-1.32h-2.37v4.11c0,2.88-.95,3.6-4.85,3.6-.34,0-.38,0-1.87-.03-.21-1.9-.48-2.95-1.16-4.34,1.25.14,2.04.2,2.98.2.68,0,.82-.1.82-.68v-2.85h-1.46c-.92,0-1.76.03-2.58.14v-4c.78.1,1.52.14,2.51.14h1.53v-2.34h-2.38c-.92,0-1.53.03-2.34.14v-4c.54.07,1.22.1,2.31.1h2.41v-2.17h-.88c-.92,0-1.76.03-2.44.14v-2.75ZM121.74,74.29c0,1.53.04,2.37.17,3.39h-4.31c.1-1.12.17-2.24.17-3.87v-9.91c0-1.36-.03-2.17-.14-2.92.78.07,1.05.07,2.61.07h7.53c1.7,0,1.97,0,2.68-.1-.07.81-.1,1.39-.1,3.26v9.74c0,2.85-.81,3.56-4.1,3.56-.38,0-1.12,0-1.66-.04-.14-1.7-.27-2.44-.71-3.56.71.07,1.53.14,1.83.14.58,0,.75-.14.75-.64v-1.49h-4.72v2.38ZM126.45,65.23v-1.22h-4.72v1.22h4.72ZM126.45,69.17v-1.19h-4.72v1.19h4.72ZM136.32,51.8c-.85,1.05-1.22,1.46-2.2,2.37.51.03.64.03,1.25.03h2.75c.75-.85,1.12-1.39,1.73-2.41h-3.53ZM142.67,57.87h-2.41v2.17h2.41v-2.17ZM142.67,66.15v-2.34h-2.41v2.34h2.41Z"/><path class="cls-3" d="M164.24,56.72c-.54-1.39-.85-1.97-2.1-4.14l3.76-1.32h-6.55v22.39c0,2,0,2.88.14,3.97h-4.72c.17-1.22.24-2.44.24-4.1v-23.04c0-1.49-.03-2.34-.14-3.43,1.12.14,2.11.17,4.17.17h21.21c2.1,0,2.91-.03,3.97-.14-.14,1.05-.17,2.17-.17,3.97v22.8c0,1.63-.61,2.68-1.83,3.15-.74.27-1.93.41-3.93.41-.81,0-1.7-.03-2.85-.07-.24-1.87-.47-2.68-1.16-4.04,1.16.1,3.02.21,3.7.21,1.46,0,1.73-.1,1.73-.61v-21.65h-6.62l3.97,1.39c-.85,1.8-1.32,2.68-2.2,4.07h1.12c1.53,0,2.14-.03,3.02-.13v4.14c-.75-.1-1.7-.14-3.02-.14h-4.58v7.13h2.54v-3.05c0-.95-.07-1.77-.14-2.55h4.04c-.1.92-.14,1.63-.14,2.89v5.05c0,.85.03,1.83.14,2.75h-3.9v-1.25h-8.85v2.75h-3.94c.1-1.12.17-1.94.17-3.63v-5.53c0-1.22-.04-1.9-.17-3.02h4.04c-.1.81-.1,1.49-.1,2.65v2.95h2.37v-7.13h-4.41c-1.42,0-2.27.04-3.02.14v-4.14c.92.1,1.6.13,3.02.13h1.19ZM170.44,56.72c1.02-1.56,1.8-3.32,2.51-5.46h-6.89c1.05,1.77,1.39,2.48,2.2,4.45l-3.08,1.02h5.26Z"/><path class="cls-3" d="M202.29,70.32c-2.48,3.29-4.68,5.26-7.98,7.13-1.19-1.59-1.8-2.27-3.09-3.36,1.9-.85,2.99-1.49,4.38-2.65,1.32-1.05,1.97-1.73,2.91-3.02l3.77,1.9ZM208.94,73.85c0,1.93.07,3.02.2,4h-4.78c.14-1.02.2-2.21.2-3.97v-5.56h-8.11c-1.63,0-2.68.03-3.63.14.14-1.02.17-1.83.17-3.67v-11.98c0-1.73-.03-2.48-.17-3.53h4.58c-.1,1.02-.14,1.8-.14,3.49v11.77h20.9c1.97,0,3.02-.03,3.97-.17v4.14c-1.16-.14-2.17-.21-3.94-.21h-9.26v5.53ZM218.85,60.28c0,1.25.04,2.24.14,3.02-.88-.07-1.97-.1-3.26-.1h-12.96c-1.29,0-2.31.03-3.22.1.07-.88.1-1.77.1-3.09v-10.18c0-1.12-.04-2.13-.1-2.95.95.1,1.87.14,3.32.14h12.9c1.39,0,2.17-.03,3.22-.14-.1.92-.14,1.77-.14,3.02v10.18ZM203.85,51.83h10.79v-1.39h-10.79v1.39ZM203.85,56.01h10.79v-1.42h-10.79v1.42ZM203.85,60.21h10.79v-1.46h-10.79v1.46ZM214.85,68.42c2.48,2.68,4.04,3.76,7.74,5.36-1.22,1.36-1.77,2.07-2.85,3.7-2.14-1.22-3.05-1.83-4.38-2.95-1.59-1.32-2.58-2.31-4.07-4.1l3.56-2Z"/><path class="cls-3" d="M253.95,65.54c-1.29,1.87-1.59,2.38-2.31,3.87-3.29-2.24-6.04-5.12-7.7-8-1.63,3.83-3.67,6.17-7.53,8.82-.81-1.8-.81-1.83-2.31-3.8v7.06c0,2.17.03,3.22.17,4.17h-4.88c.17-1.22.24-2.58.24-4.27v-19.51c0-1.46-.03-2.41-.13-3.39,1.32.1,2.27.14,4.21.14h7.97c.07-.75.07-1.09.07-1.66,0-1.29-.07-2.07-.24-2.92h4.95c-.14.75-.17,1.05-.24,2.85-.03.81-.07,1.02-.1,1.73h8.38c2.07,0,2.88-.03,4.1-.14-.14.95-.17,1.87-.17,3.43v19.58c0,3.12-1.19,3.87-6.18,3.87-.85,0-1.83-.03-3.19-.07-.24-1.9-.54-2.95-1.29-4.51,1.6.2,3.36.34,4.21.34,1.8,0,1.97-.14,1.97-1.32v-6.25ZM234.11,66.05c2.24-1.39,3.43-2.44,4.55-4.04,1.35-1.94,2.2-4.21,2.65-7.33h-7.2v11.37ZM245.71,54.68c-.07.61-.1.71-.27,1.6,1.8,3.6,4.65,6.58,8.52,8.78v-10.38h-8.24Z"/><path class="cls-3" d="M265.51,50.61c.78.03,1.19.03,1.32.03.64,0,.85,0,5.67-.31,2.34-.17,8.17-.44,17.51-.85,2.98-.14,3.19-.17,3.8-.31l.27,5.19c-.41-.03-.51-.03-.81-.03-2.21,0-4.95.78-7.23,2.07-3.83,2.17-6.14,5.33-6.14,8.42,0,2.51,1.56,4.34,4.41,5.16,1.56.44,3.76.78,5.02.78.21,0,.44,0,.85-.03l-.71,5.49c-.44-.1-.58-.1-1.19-.17-3.8-.44-6.17-1.02-8.21-2.1-3.53-1.83-5.36-4.78-5.36-8.65,0-4.58,2.44-8.31,7.16-11.03-3.39.37-3.53.4-11.09.98-1.87.14-3.7.37-4.99.61l-.27-5.26ZM289.16,62.45c-.85-1.9-1.63-3.15-2.82-4.71l2.89-1.29c1.19,1.42,1.93,2.58,2.85,4.58l-2.92,1.42ZM293.13,60.59c-.85-1.8-1.6-3.05-2.75-4.55l2.82-1.22c1.25,1.46,1.73,2.2,2.82,4.34l-2.88,1.42Z"/><path class="cls-3" d="M309.95,48.03c-.71,1.43-1.73,6.25-2.24,10.32-.27,2.2-.41,4.58-.44,6.55,0,.68-.03,2-.03,2.55.75-1.83.98-2.44,1.53-3.53l2.88,1.15c-1.8,3.56-3.05,7.77-3.05,10.35,0,.14.03.47.07,1.09l-4.85.24c-.03-.44-.03-.64-.14-1.35-.68-4.51-.92-7.5-.92-11.13,0-3.19.2-6.21.64-9.13q.14-1.02.81-4.68c.27-1.39.38-2.14.41-2.89l5.33.47ZM311.75,53.77c1.49.34,3.56.51,6.34.51.95,0,1.56,0,2.71-.04q0-2.51-.03-4.78c0-.65-.03-1.36-.14-1.77h5.02c-.21,1.12-.24,2.51-.24,6.21,2.24-.27,4.07-.64,5.5-1.12l.17,4.62c-.41.03-.47.03-1.32.2-1.19.27-2.51.47-4.31.68.04,2.75.07,3.5.34,7.84,2.51,1.19,3.49,1.73,5.19,2.95.51.34.61.41.98.64l-1.87,4.89c-.78-.95-2.41-2.24-4.38-3.5.03.31.03.38.03.58,0,2.98-2.71,4.88-7.02,4.88-4.68,0-7.53-2.24-7.53-5.9s2.95-6.07,7.43-6.07c.92,0,1.49.07,2.44.27-.03-1.16-.1-2.68-.2-6.28-.98.04-1.56.04-2.31.04-1.22,0-4.24-.1-5.7-.21q-.54-.03-.98-.03s-.1,0-.2.03l.07-4.65ZM318.7,68.73c-1.8,0-2.98.75-2.98,1.9,0,1.09,1.02,1.76,2.68,1.76,1.97,0,2.82-.74,2.82-2.44,0-.31,0-.71-.03-.71-.99-.37-1.56-.51-2.48-.51Z"/><path class="cls-3" d="M172.75,104.76c1.63,2.95,3.12,4.95,5.23,7.06,2.34,2.27,4.38,3.8,6.99,5.16-1.22,1.56-1.7,2.41-2.54,4.45-2.21-1.46-3.5-2.51-5.53-4.48v3.46c-1.09-.1-2.04-.17-3.39-.17h-2.75v2.07c0,1.63.07,3.16.24,4.38h-4.99c.17-1.29.24-2.72.24-4.38v-2.07h-2.48c-1.36,0-2.31.07-3.39.17v-3.43c-1.87,1.93-3.29,3.12-5.33,4.51-.81-2-1.25-2.75-2.48-4.27,2.68-1.63,4.75-3.36,6.85-5.7,1.9-2.14,3.5-4.41,4.65-6.75h-6.24c-1.56,0-2.78.07-4.17.24v-4.68c1.36.17,2.54.24,4.17.24h8.41v-2.24c0-1.39-.07-2.2-.2-3.16h4.92c-.14.88-.21,1.77-.21,3.16v2.24h8.82c1.73,0,3.02-.07,4.24-.24v4.68c-1.46-.17-2.61-.24-4.24-.24h-6.82ZM166.24,111.89c0-1.05.07-2.07.2-3.36-1.39,2.82-2.85,4.95-5.26,7.56.57.07,1.19.07,2.34.07h2.71v-4.28ZM173.84,116.16c1.12,0,1.59,0,2.2-.07-2.34-2.48-3.8-4.48-5.49-7.6.17,1.94.2,2.58.2,3.33v4.34h3.09Z"/><path class="cls-3" d="M216.14,103.06c.68,1.25.95,1.66,1.59,2.51,1.32,1.69,2.34,2.71,4.21,4.14-.98,1.16-1.53,2.07-2.41,3.83-1.02-.81-1.46-1.19-2.07-1.8-1.22,2.75-1.97,4.11-3.46,6.21,2.24,2.04,4.48,3.22,8.21,4.38-1.05,1.56-1.56,2.58-2.2,4.48-4-1.66-6.28-3.08-8.76-5.56-2.44,2.48-4.78,4-8.52,5.63-.71-1.63-1.29-2.51-2.54-3.97,3.93-1.35,5.97-2.54,8.35-4.88-1.39-1.94-2.11-3.22-3.22-5.9-.37.44-.68.71-1.63,1.7-.65-1.09-.95-1.53-1.8-2.48-.51.95-.78,1.66-1.22,3.05-.81-1.19-1.15-1.76-1.97-3.53q.04.61.07,1.73c.03.44.07,2,.07,2.44v7.56c0,1.77.07,3.12.21,4.28h-4.58c.14-1.05.2-2.51.2-4.28v-5.77c.04-1.22.07-2.54.14-3.93-1.05,3.19-1.8,4.85-3.12,6.79-.68-1.97-1.15-3.19-2-4.72,1.87-2.24,3.76-6.27,4.62-9.87h-1.05c-1.09,0-1.7.04-2.65.17v-4.28c.75.14,1.56.17,2.68.17h1.36v-2.51c0-1.66-.03-2.58-.17-3.53h4.58c-.14.85-.21,1.94-.21,3.53v2.51h1.12c.85,0,1.32-.03,1.97-.14v4.21c-.68-.1-1.15-.14-1.87-.14h-1.19c.48,1.46,1.49,3.05,2.82,4.58,1.32-1.15,2.27-2.34,3.26-3.97.47-.78.68-1.15,1.32-2.65-1.66,0-2.61.07-3.73.21v-4.48c1.05.14,2.2.2,3.87.2h2.75v-1.19c0-1.09-.03-1.69-.17-2.48h4.75c-.14.68-.17,1.32-.17,2.38v1.29h4.04c1.6,0,2.82-.07,3.87-.2v4.48c-1.09-.14-2.37-.21-3.9-.21h-1.42ZM208.84,109.95c.75,2.1,1.25,3.09,2.41,4.78,1.16-1.77,1.66-2.85,2.34-4.89l3.63,1.66c-1.87-1.87-3.05-3.56-4.68-6.68l3.12-1.77h-9.09l3.6,1.73c-1.8,3.49-2.71,4.85-4.48,6.92l3.16-1.76Z"/><path class="cls-3" d="M236.79,104.22c-2.65,1.73-4.11,2.51-7.6,4.1-.68-1.9-1.12-2.71-2.17-4.21,3.09-1.09,5.43-2.2,8.18-3.97,2.41-1.56,4.04-2.99,5.63-4.99h4.75c1.93,2.24,3.56,3.6,6.34,5.3,2.68,1.66,4.85,2.65,7.94,3.6-.92,1.46-1.22,2.07-2.07,4.31-3.12-1.25-5.05-2.24-7.67-4v1.7c-.88-.1-1.66-.14-2.85-.14h-7.57c-1.16,0-2,.03-2.92.14v-1.83ZM252.6,114.26c1.22,0,2-.04,2.82-.1-.1.92-.14,1.56-.14,2.82v6.79c0,1.25.03,1.97.17,2.88h-4.62v-1.22h-14.82v1.22h-4.68c.17-.98.24-1.66.24-2.95v-6.89c0-1.15-.07-1.87-.2-2.65.88.07,1.73.1,3.02.1h9.77l3.5-2.99h-12.89c-1.49,0-2.38.04-3.36.14v-4.1c.51.07,1.49.14,2.51.14h15.37c1.66,0,2.34-.04,3.16-.14l2.48,2.24c-.24.24-.34.34-1.32,1.29l-3.6,3.43h2.61ZM236.01,121.49h14.82v-3.29h-14.82v3.29ZM247.2,102.28c-1.76-1.39-2.51-2.04-3.93-3.53-1.53,1.63-2.34,2.41-3.8,3.53h7.74Z"/><path class="cls-3" d="M273.93,97.06c.07,1.42.37,3.49.78,5.26,1.83-.82,4.04-1.26,6.21-1.26.17,0,.47,0,.81.04.71-2.89.88-3.94.95-5.16l5.06.99c-.17.44-.27.68-.34.98-.41,1.59-.88,3.33-1.05,3.83,2.04.58,3.22,1.15,4.58,2.17,2.61,2.07,4,4.99,4,8.52,0,5.19-2.95,9.36-8.07,11.5-1.76.71-3.26,1.15-5.83,1.66-.58-2.07-.95-2.82-2.51-4.85,7.46-.51,11.4-3.53,11.4-8.72,0-3.05-1.56-5.05-4.75-6.14-1.59,4.95-3.63,9.2-5.97,12.25-2.61,3.46-5.09,5.09-7.7,5.09-3.8,0-6.34-3.29-6.34-8.17,0-4.17,1.9-7.87,5.43-10.62-.14-.44-.51-2.17-1.15-5.26-.1-.4-.17-.64-.38-1.19l4.89-.92ZM269.62,114.74c0,2.2.81,3.63,2.11,3.63.85,0,1.73-.61,2.68-1.8-1.32-2.85-1.8-4.21-2.58-7.22-1.42,1.59-2.2,3.53-2.2,5.4ZM277.49,112.5c1.63-3.05,2.17-4.34,3.05-7.19-2.07.03-3.33.34-4.99,1.22.68,2.58.88,3.22,1.94,5.97Z"/><path class="cls-2" d="M113.94,232.49c-6.34,0-7.54,0-10.37.3.37-3.96.82-6.49,1.79-9.18,1.94-5.82,5.45-11.04,10.37-15.52,2.76-2.54,5-4.18,12.76-9.48,6.87-4.63,8.51-6.72,8.51-10.6,0-4.1-3.73-6.94-9.11-6.94-3.88,0-6.87,1.42-8.66,4.03-1.12,1.65-1.57,3.29-2.02,6.64l-13.21-1.49c1.12-6.05,2.46-9.18,5.3-12.62,4.03-4.63,10.3-7.09,18.36-7.09,13.73,0,22.46,6.65,22.46,17.1,0,5-2.24,9.55-6.57,13.44-1.79,1.64-2.39,2.09-11.2,8.21-3.06,2.17-6.49,5.08-8.21,6.87-1.72,1.87-2.54,3.14-3.51,5.52h18.88c5.15,0,8.66-.15,11.42-.6v11.94c-3.95-.38-7.01-.52-12.02-.52h-25Z"/><path class="cls-2" d="M216.73,183.81c1.36,2.51,1.9,3.32,3.19,5.02,2.65,3.39,4.68,5.43,8.41,8.28-1.97,2.31-3.05,4.14-4.82,7.67-2.04-1.63-2.92-2.37-4.14-3.6-2.44,5.49-3.93,8.21-6.92,12.42,4.48,4.07,8.96,6.44,16.42,8.75-2.11,3.12-3.12,5.16-4.41,8.96-8-3.32-12.55-6.18-17.51-11.13-4.88,4.95-9.57,8.01-17.03,11.27-1.43-3.26-2.58-5.02-5.09-7.94,7.87-2.72,11.94-5.09,16.69-9.77-2.78-3.87-4.21-6.45-6.44-11.81-.75.88-1.36,1.42-3.26,3.39-1.29-2.17-1.9-3.05-3.6-4.95-1.02,1.9-1.56,3.33-2.44,6.11-1.63-2.37-2.31-3.53-3.93-7.06q.07,1.22.13,3.46c.07.88.14,4,.14,4.88v15.13c0,3.53.14,6.24.41,8.55h-9.16c.27-2.11.4-5.02.4-8.55v-11.54c.07-2.44.14-5.09.27-7.87-2.1,6.38-3.6,9.7-6.24,13.57-1.36-3.93-2.31-6.38-4-9.43,3.73-4.48,7.53-12.55,9.23-19.74h-2.11c-2.17,0-3.39.07-5.29.34v-8.55c1.49.27,3.12.34,5.36.34h2.71v-5.02c0-3.33-.07-5.16-.34-7.06h9.16c-.27,1.7-.41,3.87-.41,7.06v5.02h2.24c1.7,0,2.65-.07,3.93-.27v8.42c-1.36-.21-2.31-.27-3.73-.27h-2.37c.95,2.92,2.98,6.11,5.63,9.16,2.65-2.31,4.55-4.68,6.51-7.94.95-1.56,1.36-2.31,2.65-5.29-3.32,0-5.23.14-7.46.4v-8.95c2.11.27,4.41.4,7.74.4h5.49v-2.37c0-2.17-.07-3.39-.34-4.95h9.5c-.27,1.36-.34,2.65-.34,4.75v2.58h8.07c3.19,0,5.63-.14,7.74-.4v8.95c-2.17-.27-4.75-.4-7.8-.4h-2.85ZM202.14,197.59c1.49,4.21,2.51,6.17,4.82,9.57,2.31-3.53,3.33-5.7,4.69-9.77l7.26,3.33c-3.73-3.73-6.11-7.13-9.36-13.37l6.24-3.53h-18.18l7.19,3.46c-3.6,6.99-5.43,9.71-8.95,13.84l6.31-3.53Z"/><path class="cls-2" d="M262.72,217.26c-3.04,6.89-6.62,10.1-11.29,10.1-6.73,0-11.51-6.57-11.51-15.91,0-6.19,2.12-11.83,6.08-16.12,4.67-5.1,11.35-7.82,19.11-7.82,13.62,0,22.31,8.14,22.31,20.85,0,9.88-4.94,17.53-13.62,20.96-2.61,1.03-4.78,1.58-8.63,2.22-1.14-3.42-1.9-4.88-4.02-7.71,4.83-.38,8.2-1.25,10.75-2.61,4.67-2.55,7.49-7.6,7.49-13.35,0-4.83-2.12-8.91-5.81-11.35-1.58-1.03-2.88-1.47-5.05-1.74-1.09,8.95-2.98,16.18-5.81,22.47ZM254.09,197.61c-4.13,3.2-6.68,8.47-6.68,13.9,0,4.07,1.74,7.38,3.85,7.38,1.58,0,3.26-2.12,4.99-6.51,2.01-4.83,3.69-11.67,4.34-17.48-2.61.33-4.4,1.09-6.51,2.72Z"/><path class="cls-2" d="M303.79,186.37c1.14.22,2.55.27,5.54.27,3.42,0,8.36-.22,10.64-.49,1.03-.11,1.46-.27,2.17-.66l5.05,4.29c-.49.71-.87,1.35-1.25,2.39-.43,1.25-2.88,8.69-3.8,11.83,4.02.65,6.78,1.46,10.64,2.99.32-2.34.49-4.89.49-9.5,0-1.3-.05-1.9-.22-2.98l8.09.33c-.22,1.14-.27,1.68-.32,3.8-.17,4.78-.43,7.93-.98,11.35,1.25.65,4.13,2.12,5.7,3.04,1.25.65,1.46.81,2.23,1.09l-2.82,8.58c-1.52-1.35-4.24-3.15-7.11-4.78-1.57,3.91-3.26,6.57-6.08,9.39-2.28,2.33-4.99,4.29-7.98,5.92-2.55-3.2-3.31-3.96-5.75-5.92,4.02-1.95,5.97-3.26,8.14-5.43s3.69-4.5,4.78-7.49c-3.26-1.58-6.51-2.61-10.96-3.47-2.34,7-3.86,10.8-5.43,13.41-2.12,3.47-4.78,5.21-7.87,5.21-2.33,0-4.78-1.09-6.51-2.88-1.95-2.01-2.98-4.88-2.98-8.25,0-5.1,2.5-9.55,6.89-12.32,2.82-1.74,5.86-2.55,10.48-2.77,1.09-3.31,2.12-6.89,2.98-10.31-1.41.16-4.72.32-9.77.6-.87.06-2.12.11-3.69.27l-.27-7.49ZM306.13,213.35c-1.19,1.36-1.79,2.98-1.79,4.67,0,2.01.98,3.53,2.28,3.53.87,0,1.68-.92,2.77-3.25.98-1.96,2.06-4.83,3.15-7.98-2.88.27-4.83,1.2-6.41,3.04Z"/></g></svg>