<?xml version="1.0" encoding="UTF-8"?><svg id="_レイヤー_2" xmlns="http://www.w3.org/2000/svg" viewBox="0 0 448.19 281.1"><defs><style>.cls-1{fill:#71bce9;}.cls-1,.cls-2,.cls-3{stroke-width:0px;}.cls-2{fill:#fff352;}.cls-3{fill:#fff;}</style></defs><g id="_レイヤー_1-2"><rect class="cls-1" width="448.19" height="281.1" rx="53.41" ry="53.41"/><path class="cls-3" d="M111.18,73.88c-2.88-3.6-6.28-6.92-10.08-9.87-3.02,3.6-7.5,6.96-12.65,9.47-1.12-2.14-1.6-2.78-3.26-4.51,2.98-1.19,4.99-2.27,7.53-4.14,3.73-2.71,6.72-6.01,8.89-9.8.44-.75,1.02-1.97,1.8-3.7l-9.91.17c-2.82.07-3.46.1-4.75.31l-.07-5.16c1.09.17,2.04.2,4.14.2h.65l11.57-.2c1.87,0,2.04-.03,2.85-.41l2.61,2.72c-.44.47-.71.92-1.12,1.9-1.63,3.8-3.16,6.55-5.12,9.23,4.38,3.12,5.22,3.87,11.03,9.4l-4.11,4.41Z"/><path class="cls-3" d="M130.78,57.32c-.1.4-.14.54-.58,2.51-.4,1.94-1.29,4.48-2.2,6.62-.92,2.07-1.59,3.29-2.98,5.33-2.04-1.36-2.71-1.73-4.68-2.48,2.34-3.05,3.6-5.53,4.71-9.26.47-1.59.68-2.61.82-3.87l4.92,1.16ZM150.62,54.23c-1.39-.17-2.04-.2-4.88-.2h-7.09v15.47c0,1.8.07,3.5.17,4.65h-5.46c.14-1.29.2-2.58.2-4.65v-15.47h-6.75c-2.72,0-3.36.03-4.89.17v-4.92c1.56.2,2.17.24,4.89.24h6.75v-1.32c0-1.66-.07-2.75-.2-3.93h5.49c-.14,1.12-.2,2.31-.2,3.93v1.32h7.67c-.92-.71-1.42-1.8-1.42-2.95,0-2.07,1.7-3.77,3.76-3.77s3.73,1.66,3.73,3.77c0,1.29-.64,2.47-1.76,3.19v4.48ZM146.15,56.13c.24,1.16.51,2.04,1.12,3.76,1.49,4.11,2.75,6.58,4.62,9.16-2.44,1.29-2.95,1.59-4.65,2.75-2.65-4.55-3.83-7.46-5.46-13.4-.1-.41-.17-.61-.37-1.09l4.75-1.19ZM147,46.53c0,.92.75,1.66,1.66,1.66s1.63-.75,1.63-1.66-.75-1.63-1.63-1.63-1.66.75-1.66,1.63Z"/><path class="cls-3" d="M161.78,46.43c4.38,2.65,6.31,4.07,9.02,6.58l-3.43,4.45c-2.82-2.99-5.67-5.23-8.92-7.03l3.33-4ZM158.59,67.46c3.12-.2,6.99-1.12,10.11-2.48,4.31-1.8,7.33-4.34,9.98-8.31,1.52-2.27,2.44-4.11,3.43-6.75,1.59,1.87,2.2,2.44,4.31,3.94-3.36,7.26-7.36,11.74-13.26,14.86-2.72,1.43-6.62,2.82-9.87,3.53q-.85.17-1.49.31c-.78.17-.99.24-1.7.47l-1.49-5.56Z"/><path class="cls-3" d="M211.17,50.98v-2.48c0-2.04-.03-2.89-.13-3.73h5.12q-.14,1.42-.14,3.29,0,.64-.04,2.92h1.8c2.17,0,3.32-.07,4.62-.24v4.95c-1.19-.1-2.58-.17-4.55-.17h-1.9c-.07,3.29-.1,3.87-.24,5.16-.31,3.09-.99,5.09-2.38,7.16-1.35,2.04-3.26,3.7-5.77,4.99-1.02.54-1.8.88-3.6,1.53-.92-1.87-1.46-2.65-3.12-4.38,3.26-.95,4.99-1.76,6.55-3.05,2.37-1.94,3.33-4.11,3.6-8.04.04-.68.07-1.42.1-3.36h-8.04v3.73c0,2.48,0,2.85.14,3.9h-5.26c.1-.85.17-2.07.17-3.97v-3.67h-1.7c-2.37,0-3.02.03-4.55.17v-4.95c1.56.21,2.2.24,4.65.24h1.59v-2.41c0-1.73-.03-2.82-.17-3.83h5.29c-.17,1.32-.17,1.63-.17,3.73v2.51h8.11Z"/><path class="cls-3" d="M228.8,56.3c1.53.21,2.75.27,6.21.27h17.17c3.43,0,4.65-.03,6.21-.24v5.56c-1.36-.1-3.6-.17-6.25-.17h-17.13c-2.95,0-4.88.07-6.21.21v-5.63Z"/><path class="cls-3" d="M283.07,43.75c1.32,2.11,2.95,3.77,5.63,5.77,2.48,1.83,5.09,3.26,8.45,4.61-.88,1.39-1.42,2.58-2.1,4.51-3.46-1.59-6.04-3.09-8.14-4.75-.98-.78-2.98-2.61-3.8-3.46-.61-.64-1.12-1.22-2.24-2.65-1.9,2.48-3.22,3.83-5.83,5.94-2.82,2.27-5.26,3.83-8.18,5.19-.64-1.93-1.05-2.82-2.14-4.34,2.95-1.29,5.26-2.65,7.97-4.75,2.58-2,4.28-3.8,5.73-6.07h4.65ZM283.85,69.8h8.01c2.04,0,3.39-.07,4.48-.2v4.62c-1.09-.14-2.58-.21-4.48-.21h-21.92c-2,0-3.5.07-4.58.21v-4.62c.92.14,2.17.2,4.14.2h1.12v-7.97c0-1.59-.03-2.61-.17-3.97h4.82c-.14,1.05-.2,2.21-.2,3.94v8h4.31v-13.57c0-1.7-.07-2.75-.21-3.83h4.89c-.17,1.05-.21,1.97-.21,3.7v3.19h5.43c1.66,0,2.82-.07,3.83-.17v4.58c-1.09-.1-2.2-.17-3.8-.17h-5.47v6.27Z"/><path class="cls-3" d="M307.43,57.25c-1.49,0-2.24.04-3.36.14v-3.6c.98.1,1.77.14,3.36.14h3.73c-.51-1.09-.64-1.39-1.02-2h-3.36c-1.63,0-3.02.07-4.07.17v-3.93c1.09.14,2.17.2,3.87.2h.51c-.58-1.09-.95-1.63-2.07-2.95l4.07-1.46c1.09,1.59,1.35,2.1,2.41,4.41h1.49v-2.31c0-1.05-.07-1.87-.17-2.58h4.34c-.07.61-.1,1.32-.1,2.37v2.51h2v-2.51c0-1.02-.03-1.73-.14-2.37h4.38c-.1.61-.17,1.52-.17,2.58v2.31h1.59c1.16-1.76,1.7-2.78,2.31-4.48l4.11,1.46c-.71,1.25-1.22,2.1-1.9,3.02h.48c1.8,0,2.82-.07,3.9-.2v3.93c-1.05-.1-2.48-.17-4.14-.17h-3.12c-.61,1.29-.64,1.36-.98,2h3.53c1.6,0,2.41-.03,3.39-.14v3.6c-1.15-.1-1.87-.14-3.39-.14h-8.82v1.32h7.23c1.42,0,2.44-.03,3.39-.17v3.43c-.98-.1-1.94-.14-3.39-.14h-7.23v1.29h9.23c1.97,0,3.19-.07,4.21-.2v3.8c-1.32-.14-2.58-.21-4.17-.21h-6.14c2.61,2.04,6.14,3.36,11.09,4.17-1.12,1.56-1.56,2.37-2.24,4.07-5.36-1.46-9.13-3.46-12.08-6.41.07,1.15.07,1.32.07,2.17v1.39c0,1.42.07,2.48.2,3.39h-4.55c.14-1.02.2-2.07.2-3.39v-1.36c0-.81,0-.92.07-2.13-1.87,1.76-2.85,2.51-4.82,3.6-2,1.12-4,1.97-6.62,2.75-.61-1.46-1.29-2.58-2.37-3.9,4.71-.92,7.91-2.24,10.65-4.34h-5.63c-1.66,0-2.92.07-4.24.21v-3.8c1.09.14,2.31.2,4.21.2h8.72v-1.29h-6.82c-1.46,0-2.41.03-3.39.14v-3.43c.88.14,1.9.17,3.39.17h6.82v-1.32h-8.45ZM320.79,53.93c.44-.92.58-1.19.88-2h-6.92c.34.78.51,1.16.81,2h5.23Z"/><path class="cls-3" d="M340.08,52.33h.2c1.02,0,5.09-.38,6.82-.64.61-3.56.85-5.56.85-6.86,0-.1,0-.27-.03-.51l5.26.51c-.1.34-.17.61-.24.99-.03.14-.31,1.59-.78,4.38-.14.71-.14.75-.24,1.15.81-.03,1.29-.07,1.8-.07,2.41,0,4.17.64,5.29,1.97,1.16,1.39,1.6,3.05,1.6,6.24,0,6.07-1.02,10.79-2.75,12.65-1.02,1.12-2.11,1.53-3.97,1.53-1.46,0-2.88-.27-5.19-.95.07-.75.07-1.02.07-1.53,0-1.19-.1-2.04-.44-3.63,1.73.75,3.7,1.29,4.82,1.29.85,0,1.36-.54,1.77-1.9.51-1.63.92-5.16.92-7.74,0-1.63-.24-2.51-.85-3.05-.44-.44-.98-.57-2.2-.57-.58,0-.95.03-1.7.1-1.19,5.53-3.05,10.69-6.21,17.27-.31.64-.34.71-.54,1.15l-4.71-2.54c2.31-3.02,5.19-9.84,6.62-15.51-2.41.34-4.72.75-5.7,1.02l-.44-4.75ZM362.75,45.41c1.36,1.49,2.14,2.61,3.12,4.48l-2.95,1.49c-.92-1.73-2.04-3.39-3.15-4.58l2.98-1.39ZM366.07,50.94c2.65,3.76,4.17,7.13,5.4,11.7l-4.69,2.27c-.57-2.82-1.25-4.92-2.51-7.67-.98-2.17-1.46-3.05-2.37-4.34l4.17-1.97ZM366.82,43.61c1.22,1.29,2.24,2.68,3.12,4.31l-2.92,1.53c-.99-1.76-1.9-3.09-3.09-4.45l2.89-1.39Z"/><path class="cls-3" d="M185.09,107.33c-1.76,0-3.05.07-3.97.21v-2.31c-1.49.81-1.94,1.05-3.39,1.66-.88-2.07-1.16-2.55-2.41-4.24,3.16-1.12,5.53-2.37,7.98-4.14,2.44-1.8,4.17-3.6,5.63-5.8h4.92c1.8,2.37,3.43,3.97,5.97,5.7,2.82,1.93,4.95,2.98,8.18,4.04-1.19,1.83-1.7,2.82-2.34,4.58-1.56-.68-2-.88-3.67-1.83v2.34c-1.05-.14-2.17-.21-3.87-.21h-4.44v3.46h5.16c1.83,0,3.05-.07,4-.21v4.45c-.95-.14-2.27-.2-4.04-.2h-5.12v4.04h8.14c1.97,0,3.5-.07,4.65-.21v4.52c-1.15-.14-2.68-.21-4.58-.21h-20.7c-1.9,0-3.32.07-4.48.21v-4.52c1.02.14,2.61.21,4.58.21h7.84v-4.04h-4.68c-1.73,0-3.09.07-4,.2v-4.45c1.16.14,2.24.21,4,.21h4.68v-3.46h-4.04ZM184.76,103.33h14.18c-3.56-2.44-5.19-3.9-7.43-6.75-1.87,2.61-3.73,4.34-7.26,6.75h.51Z"/><path class="cls-3" d="M214.16,97.43c0-1.43-.07-2.61-.2-4.04,1.15.1,2.14.13,4,.13h21.92c1.59,0,2.75-.03,3.97-.17-.14,1.25-.17,2.34-.17,4.04v22.02c0,2.17.07,3.43.2,4.55h-4.55v-1.87h-20.8v1.87h-4.58c.14-1.05.2-2.24.2-4.55v-21.98ZM218.54,118.15h20.76v-20.66h-20.76v20.66ZM223.29,102.89c-1.49,0-2.07.03-3.05.17v-4c.88.14,1.49.17,3.05.17h11.3c1.56,0,2.27-.03,3.12-.17v4c-.92-.14-1.59-.17-3.09-.17h-3.83v2.78h3.12c1.49,0,2-.04,2.82-.17v3.97c-.58-.1-.88-.14-1.56-.14.64.88.71.95,1.42,2.38l-2.37.98h.68c1.56,0,2.2-.03,3.15-.17v4.04c-.95-.14-1.73-.17-3.15-.17h-11.94c-1.63,0-2.27.03-3.15.17v-4.04c.95.14,1.63.17,3.15.17h3.6v-3.39h-2.58c-1.42,0-2,.03-2.85.17v-3.97c.85.13,1.36.17,2.85.17h2.58v-2.78h-3.26ZM230.79,112.69h2.78c-.44-1.05-.92-1.83-1.39-2.51l2.14-.88h-3.53v3.39Z"/><path class="cls-3" d="M259.37,94.23c-1.49,4.04-2.58,11.67-2.68,18.87q.44-1.32.61-1.73l.64-1.63,2.98,1.22c-1.8,3.93-2.78,7.53-2.78,10.21,0,.34,0,.51.03.98l-4.92.24c-.04-.61-.07-.88-.17-1.66-.65-4.31-.88-7.06-.88-10.35,0-4.21.41-8.31,1.32-13.26.41-2.11.44-2.41.54-3.39l5.29.51ZM268.77,108.79c-1.6,2-2.38,3.53-2.38,4.78,0,1.7,1.73,2.65,4.85,2.65,2.95,0,5.9-.47,8.24-1.32l.34,5.12c-.54.07-.75.1-1.49.21-2.98.47-4.78.64-7.13.64-4.31,0-7.13-1.02-8.65-3.16-.65-.92-1.02-2.2-1.02-3.46,0-2.14,1.05-4.58,3.15-7.26l4.07,1.8ZM262.53,97.05c1.66.44,3.43.58,6.51.58,3.73,0,7.13-.34,9.3-.92l.24,4.92c-.31,0-.34,0-.71.03-2.78.37-6.18.61-8.99.61-2.14,0-3.36-.07-5.46-.27-.17-.03-.44-.03-.95-.07l.07-4.89Z"/><path class="cls-2" d="M121.01,205.85c-6.34,0-7.54,0-10.37.3.37-3.96.82-6.49,1.79-9.18,1.94-5.82,5.45-11.04,10.37-15.52,2.76-2.54,5-4.18,12.76-9.48,6.87-4.63,8.51-6.72,8.51-10.6,0-4.1-3.73-6.94-9.11-6.94-3.88,0-6.87,1.42-8.66,4.03-1.12,1.65-1.57,3.29-2.01,6.64l-13.21-1.49c1.12-6.05,2.46-9.18,5.3-12.62,4.03-4.63,10.3-7.09,18.36-7.09,13.74,0,22.47,6.65,22.47,17.1,0,5-2.24,9.55-6.57,13.44-1.79,1.64-2.39,2.09-11.2,8.21-3.06,2.17-6.5,5.08-8.21,6.87-1.72,1.87-2.54,3.14-3.51,5.52h18.89c5.15,0,8.66-.15,11.42-.6v11.94c-3.96-.38-7.02-.52-12.02-.52h-25Z"/><path class="cls-2" d="M180.71,144.72c2.46.37,4.33.45,8.13.45h8.14c4.48,0,5.52-.07,8.44-.3-.45,4.18-.6,7.39-.6,12.09v38.44c0,4.18.15,7.01.6,10.45h-13.66c.38-2.98.6-6.34.6-10.45v-39.71h-3.28c-2.91,0-5.23.15-8.36.52v-11.49Z"/><path class="cls-2" d="M243.16,200.63c-2.31-2.31-4.03-5-5.15-7.91-1.94-5.22-2.91-11.04-2.91-17.09,0-7.91,1.79-16.05,4.63-20.68,4.25-7.17,11.49-11.05,20.37-11.05,6.72,0,12.62,2.24,16.87,6.5,2.31,2.31,4.1,5,5.15,7.91,1.94,5.22,2.91,11.04,2.91,17.17,0,7.84-1.79,16.12-4.55,20.68-4.25,7.02-11.57,10.97-20.45,10.97-6.79,0-12.61-2.24-16.87-6.5ZM247.79,175.1c0,14.18,4.18,21.5,12.31,21.5,2.99,0,5.52-1.05,7.39-2.98,3.14-3.21,4.85-9.63,4.85-17.84,0-14.11-4.18-21.35-12.24-21.35s-12.31,7.61-12.31,20.68Z"/><path class="cls-2" d="M312.05,201.48c0,2.66.06,4.07.27,5.65h-7.6c.22-1.68.32-3.1.32-5.81v-12.49c-1.9,1.69-2.93,2.39-5.48,4.02-1.03-3.04-1.85-4.78-3.1-6.68,3.53-1.95,6.08-3.91,8.96-6.79,2.5-2.5,4.02-4.67,5.7-7.98h-8.2c-2.06,0-3.31.05-4.67.22v-7c1.3.16,2.33.22,4.23.22h2.61v-4.29c0-1.41-.11-2.82-.32-4.13h7.54c-.22,1.19-.33,2.44-.33,4.18v4.24h1.9c1.68,0,2.39-.06,3.15-.16l3.04,3.26c-.54.92-.76,1.41-1.25,2.44-1.58,3.58-3.04,6.13-5.16,9.01,2.5,2.88,4.99,4.78,8.63,6.79-1.52,2.28-2.5,4.07-3.47,6.46-2.88-1.84-4.5-3.2-6.79-5.81v14.66ZM335.56,198.33h5.43c2.82,0,4.5-.06,6.41-.27v7.44c-2.01-.22-4.34-.33-6.35-.33h-18.19c-2.12,0-4.18.11-6.19.33v-7.44c2.01.22,3.64.27,6.3.27h5.27v-20.47h-3.47c-1.79,0-3.53.11-5.32.27v-7.33c1.52.16,3.1.27,5.32.27h3.47v-8.52c0-2.44-.11-3.86-.33-6.03h7.98c-.27,2.12-.32,3.47-.32,6.03v8.52h4.99c2.5,0,3.85-.06,5.37-.27v7.33c-1.84-.17-3.47-.27-5.37-.27h-4.99v20.47Z"/><path class="cls-3" d="M122.44,234.57l.6.62-6.7,6.73,6.7,6.7-.6.62-6.7-6.64-6.68,6.64-.62-.62,6.69-6.7-6.69-6.73.62-.62,6.68,6.69,6.7-6.69ZM111.78,241.9c0,.81-.64,1.45-1.43,1.45s-1.45-.66-1.45-1.45.64-1.43,1.45-1.43,1.43.64,1.43,1.43ZM117.17,247.41c0,.79-.66,1.45-1.44,1.45s-1.45-.7-1.45-1.45.68-1.45,1.32-1.45h.06s.02.02.04.02l.04-.02c.79,0,1.44.64,1.44,1.45ZM117.19,236.45c0,.81-.64,1.45-1.43,1.45s-1.45-.66-1.45-1.45.66-1.43,1.45-1.43,1.43.64,1.43,1.43ZM122.57,241.92c0,.79-.64,1.44-1.44,1.44s-1.43-.64-1.43-1.44.64-1.43,1.43-1.43,1.44.64,1.44,1.43Z"/><path class="cls-3" d="M129.08,249.09c-1.27,0-1.57.02-2.19.07.19-1.43.25-1.73.53-2.45.49-1.24,1.28-2.32,2.49-3.37.62-.55,1.07-.87,2.94-2.13,1.79-1.21,2.41-2.02,2.41-3.15,0-1.38-1.15-2.25-2.94-2.25-1.23,0-2.11.4-2.66,1.19-.34.49-.49.94-.64,1.87l-1.9-.28c.26-1.36.58-2.07,1.23-2.81.89-1,2.23-1.51,3.96-1.51,2.94,0,4.85,1.49,4.85,3.79,0,.89-.32,1.77-.89,2.45-.6.75-1.07,1.13-3.22,2.57-2.49,1.66-3.45,2.73-3.94,4.41h5.83c1,0,1.77-.04,2.43-.13v1.83c-.81-.08-1.45-.1-2.47-.1h-5.81Z"/><path class="cls-3" d="M142.74,247.96c-.53-.53-.92-1.13-1.15-1.77-.49-1.32-.74-2.81-.74-4.34,0-2.02.43-4.06,1.11-5.15.94-1.59,2.45-2.41,4.39-2.41,1.45,0,2.72.49,3.6,1.39.53.53.92,1.15,1.15,1.77.49,1.32.74,2.79.74,4.38,0,2.26-.51,4.32-1.34,5.49-.98,1.36-2.38,2.04-4.19,2.04-1.45,0-2.66-.47-3.58-1.4ZM144.04,236.79c-.4.43-.68.91-.83,1.4-.36,1.09-.54,2.34-.54,3.68,0,1.7.36,3.51.86,4.36.64,1.06,1.59,1.59,2.81,1.59.91,0,1.7-.3,2.25-.87.39-.42.72-.92.89-1.49.38-1.13.54-2.32.54-3.64,0-1.6-.34-3.42-.81-4.28-.6-1.13-1.56-1.7-2.89-1.7-.96,0-1.7.3-2.28.96Z"/><path class="cls-3" d="M157.46,249.09c-1.27,0-1.57.02-2.19.07.19-1.43.25-1.73.53-2.45.49-1.24,1.28-2.32,2.49-3.37.62-.55,1.07-.87,2.94-2.13,1.79-1.21,2.41-2.02,2.41-3.15,0-1.38-1.15-2.25-2.94-2.25-1.23,0-2.11.4-2.66,1.19-.34.49-.49.94-.64,1.87l-1.9-.28c.26-1.36.59-2.07,1.23-2.81.89-1,2.22-1.51,3.96-1.51,2.94,0,4.85,1.49,4.85,3.79,0,.89-.32,1.77-.89,2.45-.6.75-1.07,1.13-3.22,2.57-2.49,1.66-3.45,2.73-3.94,4.41h5.83c1,0,1.77-.04,2.44-.13v1.83c-.81-.08-1.45-.1-2.47-.1h-5.81Z"/><path class="cls-3" d="M171.93,239.98q-.02.32-.13.85c.92-.86,1.98-1.28,3.28-1.28,2.87,0,4.75,1.87,4.75,4.71,0,3.13-2.04,5.11-5.26,5.11-1.58,0-2.85-.47-3.79-1.39-.49-.49-.75-.91-1.19-1.85l1.85-.49c.19.55.32.79.59,1.11.6.68,1.51,1.06,2.57,1.06,2.06,0,3.42-1.38,3.42-3.47s-1.25-3.32-3.34-3.32c-.95,0-1.91.4-2.57,1.08-.25.24-.34.39-.51.79l-1.68-.15c.15-.85.21-1.21.26-1.96l.42-4.38c.07-.62.07-.75.07-1.28,0-.06,0-.07-.04-.66.57.08.94.1,2.02.1h4.07c1.12,0,1.57-.04,2.34-.15v1.83c-.75-.11-1.38-.15-2.32-.15h-4.43l-.38,3.9Z"/><path class="cls-3" d="M186.84,240.76c0-.42-.02-.75-.06-1.12.39.04.81.06,1.34.06h4.09v-2.91h-4.3c-1,1.64-1.85,2.7-3.13,3.83-.36-.57-.57-.79-1.04-1.13,1.88-1.6,2.89-2.94,3.75-4.98.24-.56.38-.98.47-1.38l1.58.4c-.09.21-.13.28-.24.53q-.11.23-.42.89-.15.34-.25.55h9.19c.83,0,1.27-.02,1.76-.1v1.49c-.53-.07-.95-.1-1.76-.1h-4.15v2.91h3.3c.81,0,1.24-.02,1.75-.1v1.47c-.49-.06-.96-.08-1.72-.08h-3.34v3.51h4.64c.85,0,1.4-.04,1.96-.11v1.58c-.58-.07-1.17-.11-1.96-.11h-4.64v2.9c0,.85.04,1.32.13,1.83h-1.72c.1-.51.11-.94.11-1.85v-2.89h-6.68c-.81,0-1.36.04-1.96.11v-1.58c.56.07,1.13.11,1.96.11h1.3v-3.75ZM192.21,244.51v-3.51h-3.92v3.51h3.92Z"/><path class="cls-3" d="M205.93,234.46c.53.08.91.1,1.66.1h1.34c.71,0,1.04-.02,1.68-.1-.11,1.13-.17,2.09-.17,3.13v9.28c0,.91.04,1.49.15,2.23h-2.09c.11-.7.15-1.34.15-2.23v-10.77h-.98c-.64,0-1.13.04-1.73.11v-1.76Z"/><path class="cls-3" d="M220.38,249.09c-1.27,0-1.57.02-2.19.07.19-1.43.25-1.73.53-2.45.49-1.24,1.28-2.32,2.49-3.37.62-.55,1.07-.87,2.94-2.13,1.79-1.21,2.41-2.02,2.41-3.15,0-1.38-1.15-2.25-2.94-2.25-1.23,0-2.11.4-2.66,1.19-.34.49-.49.94-.64,1.87l-1.9-.28c.26-1.36.59-2.07,1.23-2.81.89-1,2.22-1.51,3.96-1.51,2.94,0,4.85,1.49,4.85,3.79,0,.89-.32,1.77-.89,2.45-.6.75-1.07,1.13-3.22,2.57-2.49,1.66-3.45,2.73-3.94,4.41h5.83c1,0,1.77-.04,2.44-.13v1.83c-.81-.08-1.45-.1-2.47-.1h-5.81Z"/><path class="cls-3" d="M236,244.34c-.17,1.02-.39,1.89-.71,2.72-.49,1.3-1.06,2.21-2.11,3.4-.36-.49-.68-.81-1.23-1.21,1.15-1.13,1.73-2.08,2.19-3.58.53-1.79.74-4.06.74-8.43,0-1.62-.02-2.45-.1-3.13.7.07,1.21.09,2.04.09h7.32c.89,0,1.38-.02,2.02-.09-.06.54-.08.96-.08,2v12.3c0,.81-.17,1.25-.57,1.51-.36.21-.79.28-1.87.28-.55,0-1.13-.02-2.08-.07-.07-.6-.17-.95-.38-1.53.96.15,1.83.21,2.64.21.64,0,.77-.1.77-.55v-3.9h-8.6ZM244.6,242.96v-3.11h-8.26c0,.77-.06,1.64-.17,3.11h8.43ZM244.6,238.47v-2.91h-8.24v2.91h8.24Z"/><path class="cls-3" d="M251.81,236.25c0-.77-.02-1.34-.08-1.83q.38.04,1.72.06h1.66c.95,0,1.25-.02,1.68-.06-.06.43-.06.74-.06,1.85v10.47c0,.95.02,1.44.06,1.85h-1.39v-.96h-2.26v1.57h-1.43c.07-.59.11-1.23.11-2.08v-10.86ZM253.14,240.21h2.25v-4.47h-2.25v4.47ZM253.14,246.34h2.25v-4.91h-2.25v4.91ZM259.69,236.85c-.66,0-1.42.04-1.87.1v-1.45c.49.07,1.06.11,1.83.11h1.9v-.59c0-.59-.04-1-.11-1.49h1.66c-.07.45-.11.89-.11,1.49v.59h2.49c.77,0,1.34-.04,1.83-.11v1.45c-.47-.06-1.09-.1-1.81-.1h-2.51v2.26h3.11c.85,0,1.47-.04,1.94-.11v1.47c-.53-.08-1.02-.11-1.83-.11h-.51v2.06h.47c.85,0,1.38-.04,1.83-.11v1.51c-.51-.08-1.04-.11-1.83-.11h-.47v5c0,1.34-.47,1.66-2.38,1.66-.3,0-.43,0-1.66-.06-.04-.59-.13-1-.32-1.45.62.11,1.51.21,2.09.21.74,0,.85-.08.85-.49v-4.87h-5.09c-.7,0-1.35.04-1.92.11v-1.51c.45.08,1.04.11,1.94.11h5.07v-2.06h-5.07c-.79,0-1.34.04-1.94.11v-1.47c.47.08,1.11.11,1.94.11h2.34v-2.26h-1.87ZM260.95,248.21c-.91-1.36-1.55-2.13-2.57-3.13l1.11-.79c1.06,1,1.74,1.77,2.64,3.04l-1.19.89Z"/><path class="cls-3" d="M271.29,249.7c.7-.68.98-1.04,1.43-1.79.47-.75.66-1.19.98-2.19l1.32.53c-.68,1.81-1.28,2.9-2.39,4.24l-1.34-.79ZM280.27,239.25h3.62c1.02,0,1.59-.02,2.11-.1-.06.42-.07.85-.07,1.47v3.13c0,.6.02.94.07,1.39-.59-.06-1.07-.08-1.9-.08h-8.45c-.81,0-1.34.02-1.91.08.06-.47.07-.87.07-1.38v-3.15c0-.59-.02-.98-.07-1.47.59.06,1.26.1,2.13.1h2.9v-4.02c0-.7-.04-1.32-.13-1.85h1.76c-.09.49-.13,1.06-.13,1.76v.51h5.23c.85,0,1.39-.04,1.92-.11v1.53c-.66-.07-1.23-.11-1.92-.11h-5.23v2.3ZM275.27,240.57v3.17h9.22v-3.17h-9.22ZM277.21,250.49c0-1.81-.08-2.6-.38-4.18l1.3-.21c.34,1.72.47,2.68.55,4.11l-1.47.28ZM281.87,250.51c-.32-1.49-.7-2.58-1.42-4.18l1.25-.38c.72,1.49,1.13,2.53,1.62,4l-1.45.56ZM286.7,250.47c-.83-1.85-1.34-2.77-2.41-4.28l1.24-.53c1.12,1.55,1.49,2.17,2.53,4.04l-1.36.77Z"/><path class="cls-3" d="M302.72,246.83c1.88-1,2.98-2.85,2.98-5.03,0-2.06-1-3.72-2.79-4.59-.66-.32-1.19-.45-2.11-.51-.32,2.77-1,5.55-1.89,7.54-1.07,2.47-2.2,3.6-3.62,3.6-1.9,0-3.3-2.02-3.3-4.77,0-1.96.72-3.85,2.02-5.28,1.53-1.68,3.64-2.55,6.21-2.55,4.28,0,7.13,2.64,7.13,6.62,0,2.93-1.49,5.26-4.13,6.53-.91.43-1.7.68-3.15.98-.25-.75-.38-1-.81-1.53,1.64-.26,2.55-.53,3.47-1.02ZM296.47,237.62c-1.83,1.15-2.94,3.22-2.94,5.47,0,1.72.75,3.08,1.73,3.08.74,0,1.45-.87,2.23-2.64.75-1.75,1.43-4.45,1.68-6.79-1.09.1-1.87.34-2.7.89Z"/><path class="cls-3" d="M318.89,237.09c.6,0,.96-.02,1.25-.07v1.32c-.32-.06-.64-.08-1.27-.08h-1.72c.47.6,1.21,1.17,2.13,1.66-.38.38-.42.42-.83,1.09-1.06-.81-1.45-1.24-2.09-2.22.06.43.07.7.07.96v.94c0,.26.02.55.06.78h-1.42c.06-.23.08-.49.08-.74v-.96c0-.28.02-.6.06-.98-1,1.56-1.66,2.22-3.41,3.47-.3-.47-.53-.74-.95-1.09,1.76-1.02,2.55-1.68,3.43-2.91h-1.56c-.66,0-1.13.02-1.51.1v-1.36c.41.07.81.09,1.55.09h2.4v-2.43c0-.53-.02-.85-.1-1.26h1.45c-.06.36-.08.74-.08,1.24v2.45h2.45ZM318.25,249.32c-.81-.59-1.02-.74-1.96-1.25-1.17,1.07-2.32,1.68-4.56,2.43-.21-.49-.4-.81-.7-1.24,1.7-.42,3.1-1.04,4.06-1.79-.89-.42-1.47-.66-2.89-1.19.64-.86.83-1.15,1.3-1.98h-.98c-.64,0-.98.02-1.38.1v-1.39c.38.07.72.09,1.38.09h1.62c.21-.49.3-.74.53-1.45l1.38.3c-.21.56-.3.74-.49,1.15h3.32c.64,0,1-.02,1.34-.09v1.39c-.39-.08-.75-.1-1.41-.1h-.25c-.39,1.28-.7,1.87-1.36,2.77.7.34.98.51,1.85,1.02l-.79,1.23ZM312.9,233.74c.68.96.96,1.49,1.38,2.47l-1.19.47c-.38-1-.74-1.64-1.34-2.49l1.15-.45ZM314.93,244.3c-.3.55-.43.75-.87,1.42,1.04.41,1.36.54,1.97.81.56-.74.85-1.28,1.17-2.23h-2.26ZM319.88,234.21c-.66,1.3-.94,1.79-1.59,2.66l-1.13-.55c.7-.88,1.11-1.62,1.51-2.66l1.21.54ZM328.25,238.28c-.39-.07-.73-.09-1.53-.09-.11,1.83-.26,2.83-.62,4.11-.34,1.26-.79,2.3-1.43,3.37,1.13,1.49,2.34,2.49,4.02,3.38-.34.41-.53.74-.83,1.41-1.62-.96-2.85-2.05-4.04-3.6-1.21,1.49-2.62,2.64-4.58,3.72-.26-.53-.49-.85-.91-1.26,2.13-1.04,3.56-2.15,4.7-3.64-.96-1.6-1.45-3-1.85-5.22-.47.85-.72,1.23-1.23,1.88-.38-.43-.63-.64-1.06-.91,1.3-1.56,2.32-3.7,2.89-6.11.17-.77.28-1.44.3-1.98l1.53.32c-.1.24-.11.32-.25.85-.22.95-.43,1.66-.66,2.4h3.77c.86,0,1.28-.02,1.77-.11v1.49ZM322.23,238.19c-.08.21-.1.26-.19.47.38,2.45.87,4.04,1.79,5.72.95-1.81,1.36-3.53,1.51-6.19h-3.11Z"/><path class="cls-3" d="M333.12,242.15c0-.89,0-1.11.06-2.21-.53,1-.87,1.57-1.6,2.51-.21-.49-.51-1-.79-1.38,1.4-1.59,2.29-3.1,3.04-5.13.43-1.19.6-1.77.72-2.66l1.55.4c-.15.42-.23.62-.36,1.02-.43,1.34-.59,1.75-1.23,3.15v10.43c0,.88.02,1.56.1,2.2h-1.59c.08-.68.11-1.28.11-2.25v-6.09ZM336.19,250.56c.08-.64.1-1.19.1-2.32v-8.3c0-.86-.04-1.47-.11-2.04h1.56c-.07.51-.09,1.17-.09,2.06v8.3h8.72c.96,0,1.47-.02,1.98-.09v1.49c-.62-.08-1.15-.11-1.98-.11h-8.72v1.02h-1.45ZM338.15,236.47c-.75,0-1.19.02-1.73.08v-1.41c.51.07.96.09,1.85.09h3.68c.1-.68.13-.96.19-1.81l1.47.1c-.13.86-.17,1.06-.28,1.72h3.37c.87,0,1.24-.02,1.83-.11v1.45c-.59-.08-1.09-.1-1.7-.1h-3.75q-.15.74-.38,1.64h2.85c.79,0,1.24-.02,1.64-.06-.06.51-.06.85-.06,1.79v5.56c0,.71,0,1.09.06,1.62-.79-.06-1.04-.06-1.66-.06h-4.51c-.62,0-.89,0-1.64.06.04-.45.06-.94.06-1.53v-5.84c-.04-.91-.06-1.44-.08-1.6.43.04.85.06,1.57.06h.41c.23-.85.28-1.07.4-1.64h-3.58ZM340.74,240.66h5.09v-1.39h-5.09v1.39ZM340.74,243.19h5.09v-1.39h-5.09v1.39ZM340.74,245.83h5.09v-1.51h-5.09v1.51Z"/></g></svg>