<?xml version="1.0" encoding="UTF-8"?><svg id="_レイヤー_2" xmlns="http://www.w3.org/2000/svg" viewBox="0 0 455.72 288.63"><defs><style>.cls-1{fill:#71bce9;}.cls-1,.cls-2{stroke-width:0px;}.cls-3{fill:none;stroke:#71bce9;stroke-dasharray:0 0 0 15.07;stroke-linecap:round;stroke-linejoin:round;stroke-width:7.54px;}.cls-2{fill:#4c4948;}</style></defs><g id="_レイヤー_1-2"><path class="cls-1" d="M58.93,152.31c-1.38,0-2.13.04-3.4.16v-4.95c1.15.16,2.13.2,3.68.2h5.97c1.51,0,2.49-.04,3.6-.2v4.95c-1.07-.12-1.82-.16-3.21-.16h-.79v7.04h.99c1.19,0,1.66-.04,2.5-.16v4.71c-.87-.08-1.66-.12-2.5-.12h-.99v6.29c1.5-.63,2.09-.87,3.99-1.78l.08,4.78c-4.24,2.18-6.29,3.01-11.32,4.75-.47.2-.99.36-1.46.56l-1.23-5.38c1.11-.16,2.45-.52,4.95-1.27v-7.95h-1.15c-1.07,0-1.9.04-2.73.16v-4.75c.91.12,1.58.16,2.85.16h1.03v-7.04h-.87ZM78.36,169.76c-.79,3.68-1.39,5.26-3.01,7.48-2.02,2.81-4.67,4.55-9.02,5.97-.75-1.7-1.35-2.65-2.85-4.31,3.48-.87,5.77-2.09,7.47-3.95,1.39-1.51,2.06-2.93,2.41-5.19q-1.27,0-3.6.12c.04-1.31.08-2.5.08-4v-15.03c0-2.14,0-2.85-.12-4,1.03.12,1.86.16,3.88.16h12.42c1.82,0,2.73-.04,3.8-.16-.12,1.07-.16,2.06-.16,4v14.68c0,1.7.04,2.89.2,4.35-.16,0-.99-.04-2.53-.16h-2.41v7.44c0,.47.2.59,1.15.59s1.34-.12,1.51-.36c.2-.32.39-2.26.39-4.63,1.46.83,2.73,1.38,4.31,1.86-.4,4.43-.67,5.73-1.51,6.57s-2.25,1.15-5.46,1.15c-4.47,0-5.38-.56-5.38-3.28v-9.3h-1.58ZM74.75,153.42h9.97v-2.1h-9.97v2.1ZM74.75,159.47h9.97v-2.1h-9.97v2.1ZM74.75,165.6h9.97v-2.18h-9.97v2.18Z"/><path class="cls-1" d="M114.45,170.59c-1.58,1.27-2.61,1.9-4.71,2.97-.44-.83-.6-1.07-1.19-1.82-2.41,1.5-4,2.29-8.15,4.23-.2.08-.24.12-.95.52l-1.07-5.5c.91-.2,1.98-.55,4.11-1.34v-9.73h-.87c-1.07,0-1.94.04-2.93.2v-4.95c.83.12,1.74.16,2.93.16h.87v-4.63c0-2.1-.08-3.21-.24-4.43h5.42c-.2,1.27-.24,2.29-.24,4.43v4.63h.59c1.19,0,1.94-.04,2.57-.12v4.83c-.91-.08-1.5-.12-2.53-.12h-.63v7.52c.79-.43,1.11-.59,2.45-1.27v2.69c2.1-1.23,3.13-2.06,4.2-3.4h-.52c-1.7,0-2.77.04-3.72.2v-4.47c.91.16,1.98.2,3.8.2h17.44c1.86,0,3.13-.08,4.2-.2v4.47c-1.15-.16-2.41-.2-4.16-.2h-12.1c-.4.63-.52.83-.95,1.38h12.58c1.9,0,2.69-.04,3.84-.12-.12.71-.12,1.1-.16,2.37-.16,5.62-.83,9.81-1.86,11.43-.91,1.46-2.45,1.98-5.97,1.98-.83,0-1.39-.04-3.09-.12-.16-1.5-.43-2.49-.99-3.76-2.13,1.86-4.07,3.05-7.08,4.43-.99-1.46-1.7-2.22-3.12-3.36,3.17-1.27,4.98-2.26,7.12-3.92,1.78-1.34,3.08-2.89,4.39-5.18h-1.98c-2.69,3.8-5.86,6.17-11.08,8.23-.75-1.31-1.39-2.1-2.69-3.24,4.47-1.43,6.93-2.81,8.94-4.99h-2.49ZM115.63,159.94c-1.5,0-2.73.04-3.64.12.12-1.23.16-2.26.16-3.92v-5.66c0-1.62-.04-2.53-.16-3.68,1.23.16,2.1.2,4.11.2h12.03c2.06,0,3.09-.04,4.27-.2-.12,1.11-.16,1.94-.16,4.04v5.34c0,1.7.04,2.85.16,3.84-.79-.04-1.98-.08-3.56-.08h-13.22ZM116.9,152.19h10.6v-1.42h-10.6v1.42ZM116.9,156.58h10.6v-1.35h-10.6v1.35ZM128.45,170.59c-1.58,3.21-2.81,4.91-4.95,7.08,1.27.12,2.3.16,3.17.16,1.51,0,1.86-.32,2.26-2.13.24-1.19.36-2.33.59-5.1h-1.07Z"/><path class="cls-1" d="M170.67,153.42c2.45,0,3.84-.04,5.3-.2-.12,1.58-.16,2.02-.16,3.76-.08,3.6-.28,9.54-.47,12.74-.32,5.58-1.03,8.83-2.18,10.13-1.07,1.19-2.93,1.74-5.93,1.74-1.66,0-2.97-.08-5.7-.36-.28-2.41-.67-4.2-1.31-5.86,2.49.47,4.59.71,6.33.71s2.45-.67,2.81-2.41c.47-2.18.79-7.84.83-15.04h-9.65c-.59,5.34-1.78,9.77-3.52,12.9-2.33,4.19-5.93,7.56-11.55,10.68-1.23-2.18-2.37-3.64-4.03-5.15,5.42-2.33,8.94-5.42,11.04-9.61,1.11-2.22,1.74-4.79,2.26-8.83h-6.41c-1.94,0-3.48.08-4.94.28v-5.78c1.5.2,2.93.28,5.06.28h6.65c.04-1.11.04-1.78.04-2.73,0-2.26-.08-3.76-.28-4.71h6.45q-.2,1.19-.39,7.44h9.77Z"/><path class="cls-1" d="M194.73,148c-1.74,4.71-3.01,13.61-3.12,22q.52-1.55.71-2.02l.75-1.9,3.48,1.42c-2.1,4.59-3.25,8.78-3.25,11.91,0,.4,0,.6.04,1.15l-5.74.28c-.04-.71-.08-1.03-.2-1.94-.75-5.02-1.03-8.23-1.03-12.06,0-4.91.47-9.69,1.54-15.47.47-2.45.52-2.81.63-3.95l6.17.59ZM205.69,164.97c-1.86,2.34-2.77,4.11-2.77,5.58,0,1.98,2.02,3.09,5.66,3.09,3.44,0,6.88-.56,9.61-1.54l.39,5.97c-.63.08-.87.12-1.74.24-3.48.56-5.58.75-8.31.75-5.02,0-8.31-1.19-10.09-3.68-.75-1.07-1.19-2.57-1.19-4.04,0-2.49,1.23-5.34,3.68-8.46l4.75,2.09ZM198.41,151.28c1.94.52,4,.67,7.6.67,4.35,0,8.31-.4,10.84-1.07l.28,5.73c-.36,0-.4,0-.83.04-3.24.43-7.2.71-10.49.71-2.49,0-3.92-.08-6.37-.32-.2-.04-.52-.04-1.11-.08l.08-5.7Z"/><path class="cls-1" d="M244.16,169.48c-1.66,0-2.53.04-3.88.24v-1.58q-1.51.67-2.69,1.15v8.74c0,1.82.08,3.4.24,4.79h-5.38c.16-1.07.24-2.97.24-4.79v-6.96c-1.39.47-2.18.75-3.12,1.03-1.35.43-1.62.51-2.41.87l-.99-5.38c1.62-.24,3.21-.59,6.53-1.54v-7.79h-1.94c-.36,2.37-.59,3.4-1.31,5.77-1.46-1.03-2.26-1.46-3.84-2.05,1.11-3.33,1.74-7.36,1.74-11.36,0-.59,0-.91-.08-1.5l4.23.47c-.08.55-.08.83-.12,1.94-.04.51-.04.87-.12,1.98h1.42v-4.39c0-1.23-.08-2.22-.24-3.28h5.38c-.16,1.03-.24,1.98-.24,3.28v4.39c1.66,0,2.37-.04,3.2-.2v4.11c1.31.08,2.38.12,3.92.12h3.84v-3.13h-2.81c-1.74,0-3.12.08-4.23.2v-5.06c1.27.16,2.41.24,4.23.24h2.81v-1.07c0-1.11-.08-1.94-.2-2.85h5.42c-.15.87-.24,1.66-.24,2.85v1.07h3.76c1.86,0,3.01-.08,4.31-.24v5.06c-1.11-.12-2.53-.2-4.31-.2h-3.76v3.13h4.67c2.06,0,3.6-.08,4.63-.2v4.95c-1.23-.12-2.37-.2-4.11-.2v2.77c2.1,0,2.97-.04,3.96-.2v5.06c-1.23-.15-2.09-.24-3.96-.24v8.78c0,3.17-1.5,4.16-6.41,4.16-.75,0-2.14-.04-3.32-.12-.2-2.18-.52-3.4-1.19-4.99,1.7.24,3.48.4,4.39.4,1.31,0,1.55-.2,1.55-1.15v-7.08h-8.03c1.86,1.7,3.24,3.36,4.75,5.66l-4.11,3.12c-1.51-2.65-2.65-4.15-4.87-6.48l3.72-2.3h-1.03ZM237.59,164.33c1.58-.59,1.74-.67,3.08-1.19l.04,1.54c.99.12,2.14.16,4.11.16h8.9v-2.77h-8.98c-2.26,0-3.48.04-4.67.2v-3.96c-.75-.04-1.46-.08-2.06-.08h-.43v6.09Z"/><path class="cls-1" d="M274.95,167.46c0-.99,0-1.42.08-4.27-.79,1.19-2.29,3.04-3.64,4.43-.75-2.49-1.11-3.48-2.25-5.82,2.37-2.29,3.6-3.83,5.22-6.53,2.06-3.32,3.56-7.04,3.96-9.69l5.42,1.54c-.43,1.15-.52,1.38-.83,2.22-.95,2.61-1.34,3.6-2.73,6.61v21.52c0,1.66.08,3.52.24,5.18h-5.7c.16-1.74.24-3.32.24-5.22v-9.97ZM291.72,175.77c0,.95.71,1.19,3.4,1.19,2.97,0,4.35-.24,4.79-.83.63-.87.91-2.65,1.03-7.28,1.9.87,3.36,1.38,5.03,1.74-.28,5.74-.79,8.07-2.02,9.42-1.31,1.42-3.56,1.82-9.93,1.82s-7.64-.75-7.64-4.63v-25.99c0-2.1-.08-3.8-.24-4.99h5.81c-.16,1.19-.24,2.77-.24,4.99v7.75c4.27-2.33,7.95-5.22,9.97-7.83l3.96,4.16c-.28.2-.4.28-.71.55-4.15,3.68-7.75,6.09-13.21,8.98v10.96Z"/><path class="cls-1" d="M323.66,147.64c-.39,2.33-.87,12.9-.87,19.74,0,3.84.2,5.18.95,6.29.83,1.27,2.61,1.98,4.95,1.98,4.2,0,7.44-2.37,9.22-6.72.83-2.1,1.31-3.96,1.66-6.89,2.57,2.02,3.44,2.57,5.78,3.6-1.58,5.66-2.81,8.35-4.87,10.64-3.05,3.36-7.04,5.06-12.11,5.06-2.93,0-5.54-.63-7.32-1.78-1.66-1.11-2.93-2.81-3.56-4.79-.36-1.27-.59-3.32-.59-5.66,0-1.78.04-4.35.16-9.57.12-5.46.16-7.88.16-9.06,0-1.31-.04-1.86-.16-2.97l6.61.12Z"/><path class="cls-1" d="M353.82,152.66c1.46.28,3.29.4,5.66.4.28,0,.32,0,1.31-.04.36-1.98.67-4.75.67-5.86v-.67l6.25.52q-.28.95-.79,3.84c-.16,1.07-.2,1.14-.32,1.94,2.81-.28,4.55-.6,6.61-1.11l.2,5.42q-.75.08-2.18.32c-1.74.32-3.48.47-5.58.59-.63,3.4-1.19,5.94-2.3,9.81-1.19,4.31-1.62,5.62-3.44,10.84-.4,1.11-.71,2.02-.91,2.73l-6.09-2.26c2.65-5.1,5.54-13.73,6.92-20.93h-1.11l-4.23-.12c-.28,0-.4.04-.75.04l.08-5.46ZM374.43,168.45c-1.58,2.1-2.02,3.05-2.02,4.35,0,1.86,1.82,2.77,5.66,2.77,2.77,0,6.57-.67,8.86-1.55l.39,5.86c-.71.08-1.03.12-2.02.24-3.28.52-5.26.67-7.56.67-3.64,0-6.21-.51-8.19-1.7-1.82-1.03-2.93-3.01-2.93-5.14s.83-4.16,3.05-7.2l4.75,1.7ZM385.9,163.82c-1.9-.2-3.05-.28-5.1-.28-4.16,0-6.77.28-10.72,1.07l-.4-5.18c5.9-1.07,7.87-1.27,12.46-1.27.99,0,1.15,0,3.64.04l.12,5.62Z"/><path class="cls-1" d="M119.47,214.35c.12-1.7.2-3.76.2-5.62,0-.59,0-.95-.08-1.66l6.29.15q-.2,1.31-.36,4.75c-.04.83-.08,1.07-.16,2.34h8.7c1.46,0,1.9-.08,2.89-.4l2.65,2.34c-.36.75-.43,1.14-.47,2.73-.24,8.15-.91,15.12-1.82,17.76-1.07,3.25-2.81,4.39-6.8,4.39-1.54,0-2.49-.08-4.98-.43-.12-2.89-.28-3.72-1.15-5.94,2.14.6,3.88.87,5.18.87,1.86,0,2.37-.79,2.97-4.59.43-2.85.75-7.75.75-11.51l-8.43.04c-.59,4.99-1.38,7.79-3.08,11.16-2.18,4.16-5.74,7.79-10.88,11.12-1.66-2.53-2.29-3.25-4.31-5.02,5.14-2.69,8.27-5.7,10.28-9.77.99-2.02,1.55-3.88,1.9-6.33l.2-1.15h-5.14c-3.92,0-4,0-5.42.24l-.04-5.77c1.51.28,2.49.32,5.54.32h5.58Z"/><path class="cls-1" d="M157.62,208.1c-.16,1.31-.24,2.77-.24,5.38v7.75c0,2.45.08,4.39.2,5.46h-6.49c.16-1.46.24-2.93.24-5.54v-7.67c0-3.05-.04-3.96-.2-5.38h6.49ZM175.74,208.14c-.15,1.42-.2,2.25-.2,5.26v4.19c0,6.57-.16,8.98-.79,11.39-1.11,4.27-3.76,7.48-8.15,9.97-2.22,1.27-4.31,2.1-7.95,3.12-.95-2.53-1.46-3.4-3.4-5.66,3.48-.71,5.54-1.38,7.71-2.53,3.64-1.94,5.42-4.23,6.05-7.91.28-1.58.43-4.87.43-8.74v-3.76c0-3.01-.04-3.72-.24-5.34h6.53Z"/><path class="cls-1" d="M197.98,212.41q-.59-3.29-1.07-4.55l6.21-.99c.04,1.27.2,2.41.59,4.55l.47,2.33,6.96-1.07c2.57-.4,3.48-.59,5.03-1.07l.95,5.7q-1.74.16-4.99.63l-6.96,1.11,1.07,5.77,7.91-1.27c2.61-.39,3.68-.63,5.3-1.15l.99,5.7q-1.38.08-5.18.71l-8.03,1.23,1.11,5.9c.56,3.09.75,3.96,1.27,5.54l-6.41,1.07c-.04-1.15-.28-3.01-.75-5.54l-1.11-6.05-8.55,1.35c-2.45.4-3.36.55-4.98,1.03l-.95-5.74c1.62-.04,2.61-.16,5.22-.56l8.31-1.3-1.03-5.82-6.17.95c-2.77.44-3.21.56-5.38,1.07l-.91-5.78c1.74-.04,2.45-.12,5.34-.55l6.17-.95-.44-2.26Z"/><path class="cls-1" d="M251.99,235.59c2.41,0,3.36-.04,4.63-.24v5.22c-1.03-.12-2.69-.16-4.67-.16h-19.07c-2.09,0-3.52.04-4.67.16v-5.22c1.42.2,2.13.24,4.67.24h10.53c.83-4.51,1.42-8.35,1.82-12.26h-8.55c-2.37,0-3.08.04-4.51.16v-5.22c1.58.2,2.25.24,4.67.24h9.58c1.27,0,1.7-.08,2.61-.39l2.57,2.22c-.47.99-.55,1.31-.71,2.65-.51,4.23-1.1,8.15-1.9,12.62h3.01Z"/><path class="cls-1" d="M264.62,217.83c1.7.24,2.45.28,5.97.28h19.07c2.3,0,2.69-.04,3.84-.4l2.65,2.93c-.43.71-.59,1.11-1.11,2.49-2.02,5.81-5.06,10.36-8.98,13.53-2.69,2.18-5.38,3.56-10.8,5.7-1.07-2.33-1.62-3.17-3.72-5.5,4.79-1.23,7.79-2.61,10.72-4.91,2.89-2.29,4.67-4.75,6.25-8.59h-18c-3.24,0-4.43.04-5.9.2v-5.73ZM267.94,208.1c1.42.24,2.73.32,5.46.32h12.98c3.2,0,3.96-.04,5.38-.32v5.74c-1.35-.16-1.94-.2-5.3-.2h-13.17c-2.53,0-4.11.08-5.34.2v-5.74Z"/><path class="cls-1" d="M320.73,208.61c-.4.83-.52,1.14-1.03,2.89-2.61,8.7-5.15,16.18-7.6,22.19,7.99-.67,11.67-1.11,15.11-1.78-.39-.87-.79-1.66-1.62-3.28-1.7-3.28-2.37-4.47-3.68-6.37l5.34-2.06c3.84,5.7,7.12,12.15,9.5,18.6l-5.77,2.97q-.43-1.58-1.66-4.67c-6.05,1.19-10.72,1.78-23.54,3.01-2.26.2-2.81.28-3.76.52l-.83-6.37q.56.04,1.07.04c.83,0,1.58-.04,3.36-.12,2.41-5.97,4.63-12.38,6.69-19.54,1.11-3.84,1.46-5.42,1.66-7.28l6.77,1.27Z"/><path class="cls-2" d="M154.81,50.86q-.12.91-.33,6.84c-.21,6.27-.78,9.4-2.38,12.69-1.06,2.2-2.17,3.76-4.13,5.75-1.45-1.84-2.02-2.38-3.65-3.52,2.32-2.05,3.62-3.98,4.52-6.9.63-1.99.9-3.74,1.08-6.93.06-1.48.12-3.52.12-5.15s-.03-2.26-.12-3.04l4.88.27ZM163.07,50.41c-.18,1.24-.21,1.6-.24,3.65l-.15,16.03c1.87-1.03,2.98-1.93,4.13-3.37,1.24-1.57,2.05-3.19,2.68-5.33,1.24,1.56,1.72,2.05,3.37,3.37-1.27,3.13-2.86,5.45-5,7.32-1.75,1.51-3.29,2.38-6.36,3.53-.75.27-.99.36-1.38.6l-2.23-2.38c.21-.84.27-1.45.3-2.89l.12-16.93v-.85c0-1.32-.03-2.02-.12-2.77l4.88.03Z"/><path class="cls-2" d="M192.62,72.8c0,1.9.03,2.86.18,3.83h-4.82c.15-1.06.18-2.02.18-3.86v-6.3c-1.54,1.12-4.91,2.5-9.04,3.74-.73-1.84-1.03-2.41-2.11-3.92,3.14-.66,6.03-1.63,9.01-3.01,3.25-1.48,5.81-3.25,8.13-5.57l-10,.06c-1.96,0-3.07.06-4.19.15v-4.19c1.38.18,2.05.21,4.25.21h3.89v-1.35c0-1.54-.03-2.32-.15-3.17h4.76c-.12.96-.15,1.84-.15,3.11v1.41h4.94c.87,0,1.45-.09,1.99-.3l2.02,2.35q-.48.39-1.32,1.36c-1.78,2.02-3.74,3.82-5.91,5.42,4.01,1.3,7.68,2.98,10.21,4.76l-2.5,3.83c-2.86-1.99-5.63-3.53-8.65-4.79-.36-.12-.42-.18-.72-.33v6.57Z"/><path class="cls-2" d="M226.09,55.71v-2.2c0-1.81-.03-2.56-.12-3.32h4.55q-.12,1.27-.12,2.92,0,.57-.03,2.59h1.6c1.93,0,2.95-.06,4.1-.21v4.4c-1.05-.09-2.29-.15-4.04-.15h-1.69c-.06,2.93-.09,3.44-.21,4.58-.27,2.74-.87,4.52-2.11,6.36-1.2,1.81-2.89,3.28-5.12,4.43-.9.48-1.6.78-3.19,1.36-.81-1.66-1.3-2.35-2.77-3.89,2.89-.84,4.43-1.56,5.81-2.71,2.11-1.72,2.96-3.65,3.19-7.14.03-.6.06-1.27.09-2.98h-7.14v3.32c0,2.2,0,2.53.12,3.47h-4.67c.09-.75.15-1.84.15-3.53v-3.26h-1.51c-2.11,0-2.68.03-4.04.15v-4.4c1.39.18,1.96.21,4.13.21h1.42v-2.14c0-1.54-.03-2.5-.15-3.4h4.7c-.15,1.17-.15,1.45-.15,3.32v2.23h7.2Z"/><path class="cls-2" d="M244.75,51.68c3.89,2.35,5.61,3.62,8.02,5.85l-3.04,3.95c-2.5-2.65-5.03-4.64-7.92-6.24l2.95-3.56ZM241.92,70.36c2.77-.18,6.21-.99,8.98-2.2,3.83-1.6,6.51-3.86,8.86-7.38,1.35-2.02,2.17-3.65,3.04-6,1.41,1.66,1.96,2.17,3.82,3.49-2.98,6.45-6.54,10.43-11.78,13.2-2.41,1.27-5.88,2.5-8.77,3.14q-.75.15-1.32.27c-.69.15-.87.21-1.51.42l-1.32-4.94Z"/><path class="cls-2" d="M293.76,76.05c-2.56-3.19-5.57-6.15-8.95-8.77-2.68,3.19-6.66,6.18-11.24,8.41-.99-1.9-1.42-2.47-2.89-4.01,2.65-1.06,4.43-2.02,6.69-3.68,3.32-2.41,5.97-5.33,7.89-8.71.39-.66.91-1.75,1.6-3.29l-8.8.15c-2.5.06-3.08.09-4.22.27l-.06-4.58c.96.15,1.81.18,3.68.18h.57l10.28-.18c1.66,0,1.81-.03,2.53-.36l2.32,2.41c-.39.42-.63.81-1,1.69-1.45,3.37-2.8,5.81-4.55,8.2,3.89,2.77,4.64,3.43,9.79,8.35l-3.65,3.92Z"/><path class="cls-2" d="M98.12,99.64c1.12.21,2.5.3,4.31.3h.99c.27-1.51.51-3.65.51-4.46v-.51l4.76.39q-.21.69-.6,2.89c-.12.81-.15.87-.24,1.48,2.14-.21,3.46-.42,5.03-.84l.15,4.13q-.57.06-1.66.24c-1.33.24-2.65.39-4.25.48-.48,2.59-.9,4.52-1.75,7.44-.9,3.29-1.23,4.28-2.62,8.25-.3.88-.54,1.57-.69,2.08l-4.64-1.72c2.02-3.86,4.22-10.46,5.27-15.94h-.85l-3.22-.06h-.57l.06-4.16ZM113.82,111.66c-1.21,1.6-1.54,2.32-1.54,3.32,0,1.42,1.39,2.11,4.31,2.11,2.11,0,5-.51,6.75-1.17l.3,4.46c-.54.06-.78.09-1.54.21-2.5.36-4.01.48-5.75.48-2.77,0-4.73-.39-6.24-1.3-1.39-.78-2.23-2.29-2.23-3.92s.63-3.17,2.32-5.48l3.62,1.3ZM122.56,108.14c-1.45-.15-2.32-.21-3.89-.21-3.17,0-5.15.21-8.17.84l-.3-3.98c4.49-.81,6-.96,9.49-.96.75,0,.88,0,2.77.03l.09,4.28ZM117.47,95.75c1.02,1.32,1.63,2.35,2.41,4.19l-2.71,1.09c-.73-1.78-1.42-3.01-2.35-4.28l2.65-.99ZM121.08,94.49c.96,1.18,1.75,2.47,2.41,3.98l-2.65,1.12c-.75-1.75-1.42-2.89-2.32-4.16l2.56-.93Z"/><path class="cls-2" d="M129.69,101.87h.18c.91,0,4.52-.33,6.06-.57.54-3.17.75-4.94.75-6.09,0-.12,0-.27-.03-.45l4.67.45c-.09.3-.15.54-.21.87-.03.09-.27,1.42-.69,3.89q-.12.63-.21,1.03c.73-.03,1.14-.06,1.6-.06,2.14,0,3.71.57,4.7,1.75,1.02,1.24,1.41,2.71,1.41,5.55,0,5.39-.9,9.58-2.44,11.24-.9.99-1.87,1.35-3.53,1.35-1.3,0-2.56-.24-4.61-.84.06-.66.06-.93.06-1.36,0-1.05-.09-1.84-.39-3.25,1.53.7,3.28,1.17,4.28,1.17.75,0,1.21-.48,1.57-1.69.45-1.45.81-4.58.81-6.87,0-1.45-.21-2.23-.75-2.71-.39-.39-.87-.51-1.96-.51-.51,0-.84.03-1.51.06-1.06,4.94-2.71,9.52-5.52,15.37-.27.57-.3.63-.48,1.03l-4.19-2.26c2.05-2.71,4.61-8.74,5.88-13.77-2.14.3-4.19.66-5.06.9l-.39-4.22ZM151.39,98.77c2.98,3.65,4.91,7.44,6.15,12.26l-4.13,2.02c-1.03-5.09-3.01-9.43-5.79-12.54l3.76-1.75Z"/><path class="cls-2" d="M169.75,101.03c-.33,1.17-1.02,5.09-1.38,7.84,2.59-1.84,5.18-2.62,8.8-2.62,5.37,0,8.8,2.62,8.8,6.69,0,2.41-1.2,4.67-3.25,6.09-2.14,1.48-4.73,2.14-8.23,2.14-2.53,0-4.46-.24-7.66-.96-.03-1.93-.12-2.74-.54-4.58,2.98.96,5.54,1.45,7.92,1.45,4.22,0,7.05-1.6,7.05-3.98,0-1.84-1.72-2.92-4.61-2.92-2.59,0-5.09.72-7.14,2.02-.67.42-.93.66-1.54,1.36l-4.37-.15c.06-.39.06-.42.12-.81.27-2.23.78-6.03,1.38-10,.09-.73.12-1.12.18-1.81l4.46.27ZM169.73,94.76c2.17,1.17,8.2,2.92,11.69,3.4l-1.45,4.16c-5.24-1.14-8.86-2.26-12.35-3.86l2.11-3.71Z"/><path class="cls-2" d="M200.83,109.5c-1.84,1.48-2.71,2.74-2.71,3.92,0,1.75,2.08,2.53,6.78,2.53,3.71,0,7.78-.54,9.79-1.33l.33,4.94q-.72.03-2.71.27c-2.68.36-4.61.48-6.81.48-3.61,0-6.24-.33-7.92-.99-2.71-1.03-4.04-2.77-4.04-5.24s1.23-4.58,4.1-6.87l3.19,2.29ZM195.5,96.51c1.84.48,5.33.75,9.73.75,3.65,0,6.27-.18,7.89-.54l.15,3.98c-1.81.81-5.33,3.01-8.23,5.15l-3.07-2.29c1.06-.7,3.1-1.96,3.98-2.47-1.42.15-2.08.18-3.44.18-2.05,0-4.52-.15-6.23-.36-.63-.09-.67-.09-1.06-.09l.27-4.31Z"/><path class="cls-2" d="M226.05,96.12c1.02.12,1.63.15,3.19.15,2.65,0,6.87-.15,9.04-.33,1.63-.12,2.35-.24,3.07-.51l2.26,2.98c-.72.51-.87.63-1.93,1.6-2.23,2.02-4.43,3.79-7.47,5.97,2.26-.24,4.88-.48,7.38-.66,1.69-.12,2.89-.21,3.31-.24.99-.09,1.69-.15,1.87-.15.48-.06.6-.06,1.05-.18l.21,4.28q-.48-.03-.96-.03c-3.74,0-6.24.42-8.47,1.42-2.29,1.03-3.8,2.65-3.8,4.16,0,1.78,1.9,2.68,5.52,2.68,1.14,0,1.99-.09,3.25-.3l.18,4.55c-.36-.03-.42-.03-.75-.03q-.3,0-2.14.06h-.57c-1.36,0-3.17-.18-4.46-.45-3.37-.7-5.48-2.96-5.48-5.85,0-1.45.42-2.65,1.38-3.79.6-.78,1.12-1.21,2.29-1.93-.48.09-1.63.24-3.46.45q-1.72.24-2.74.36c-.91.09-2.35.3-4.31.57-.45.06-.81.15-1.57.3l-.39-4.37c.27.03.45.03.6.03,1.14,0,3.4-.21,5.54-.54,2.56-1.6,4.85-3.4,8.41-6.72-1.69.21-2.29.27-7.59.57-1.24.06-1.45.09-2.23.21l-.24-4.25Z"/><path class="cls-2" d="M269.82,118.93c0,2.62-.91,3.19-4.91,3.19-.78,0-1.75-.03-3.11-.06-.3-1.69-.54-2.44-1.14-3.8,1.6.15,2.8.24,3.71.24,1.27,0,1.48-.09,1.48-.63v-3.71h-7.8c-1.6,0-2.92.06-3.89.18v-3.95c1.12.15,2.38.21,3.86.21h7.83c0-.67-.03-1.18-.09-1.63h1.48c.99-.54,1.78-1.08,2.77-1.96h-7.26c-1.35,0-2.11.03-3.1.12v-3.56c.9.09,1.78.12,3.13.12h9.52c1.17,0,1.74-.03,2.32-.12l1.93,2.14c-.33.27-.45.39-.78.7-1.51,1.38-3.17,2.68-5.36,4.19h6.72c1.56,0,3.01-.06,3.97-.21v3.95c-.96-.12-2.35-.18-4.01-.18h-7.26v4.76ZM259.03,98.68c-.63-1.2-1.02-1.87-2.08-3.25l3.71-.91c.96,1.3,1.69,2.44,2.56,4.16h2.62c-.39-1.17-.93-2.35-1.69-3.64l3.83-.85c1.05,2.08,1.35,2.77,1.93,4.49h2.17c.96-1.42,1.66-2.83,2.2-4.34l3.89.93c-.48.99-1.42,2.59-1.96,3.4h.96c1.96,0,2.74-.03,3.74-.12-.09.75-.12,1.35-.12,2.5v3.07c0,.91.06,1.63.15,2.38h-3.89v-4.49h-18.89v4.49h-3.92c.12-.66.15-1.39.15-2.41v-3.04c0-1.05-.03-1.75-.12-2.5,1.14.09,1.69.12,3.65.12h1.12Z"/><path class="cls-2" d="M285.95,109.95c1.36-.96,2.62-2.41,6.81-7.68,1.51-1.93,2.86-2.77,4.43-2.77.96,0,1.9.36,2.77,1.06.45.36,1.12,1.06,1.96,2.05,3.1,3.64,5.51,6.21,8.74,9.19,1.75,1.66,2.65,2.38,3.74,3.01l-2.23,5.03c-.33-.36-.45-.48-1-.96-2.5-2.23-5.84-5.63-8.77-8.86q-.66-.75-2.71-3.14-.33-.39-1.27-1.48c-.54-.6-.84-.78-1.27-.78q-.51,0-2.95,3.29c-1.42,1.87-3.07,3.89-4.64,5.63-.36.39-.45.51-.75.9l-2.86-4.49ZM306.99,99.46c1.06,1.21,1.75,2.29,2.77,4.25l-2.62,1.3c-1.02-2.05-1.78-3.22-2.77-4.34l2.62-1.21ZM310.42,97.83c1.05,1.14,1.93,2.41,2.8,4.1l-2.56,1.3c-.9-1.75-1.78-3.14-2.71-4.22l2.47-1.17Z"/><path class="cls-2" d="M322.86,96.15c1.11.15,2.11.21,3.92.21,2.59,0,6.33-.15,9.13-.36,1.17-.09,1.53-.15,2.05-.39l2.14,3.14c-.63.36-.66.36-3.01,2.44-3.13,2.8-4.1,3.58-6.54,5.3,1.72-.51,3.22-.73,4.97-.73,2.56,0,4.67.7,6.3,2.05,1.48,1.24,2.2,2.89,2.2,5,0,2.92-1.42,5.27-4.13,6.84-2.02,1.17-4.67,1.81-7.57,1.81-2.62,0-4.85-.54-6.12-1.51-1.17-.88-1.84-2.2-1.84-3.68,0-2.59,2.35-4.55,5.54-4.55,2.14,0,4.04.88,5.3,2.44.6.72.93,1.35,1.39,2.59,2.14-.88,3.01-2.02,3.01-3.92,0-2.2-2.23-3.61-5.7-3.61-4.43,0-8.56,1.72-12.29,5.06l-2.41-3.89c2.83-1.35,9.13-6.36,13.38-10.61-2.47.21-2.98.24-7.41.45-.96.06-1.24.06-2.14.18l-.18-4.28ZM329.87,115.13c-.9,0-1.51.48-1.51,1.2,0,1.06,1.14,1.66,3.1,1.66.45,0,.57,0,1.27-.15-.45-1.78-1.45-2.71-2.86-2.71Z"/><rect class="cls-3" x="3.77" y="3.77" width="448.19" height="281.1" rx="53.41" ry="53.41"/></g></svg>