<?xml version="1.0" encoding="UTF-8"?><svg id="_レイヤー_2" xmlns="http://www.w3.org/2000/svg" viewBox="0 0 448.19 281.1"><defs><style>.cls-1{fill:#71bce9;}.cls-1,.cls-2,.cls-3{stroke-width:0px;}.cls-2{fill:#fff352;}.cls-3{fill:#fff;}</style></defs><g id="_レイヤー_1-2"><rect class="cls-1" width="448.19" height="281.1" rx="53.41" ry="53.41"/><path class="cls-3" d="M102.74,43.58c-1.76,0-3.05.07-3.97.21v-2.31c-1.49.81-1.93,1.05-3.39,1.66-.88-2.07-1.15-2.55-2.41-4.24,3.15-1.12,5.53-2.37,7.97-4.14,2.44-1.8,4.17-3.6,5.63-5.8h4.92c1.8,2.37,3.43,3.97,5.97,5.7,2.82,1.93,4.95,2.98,8.18,4.04-1.19,1.83-1.7,2.82-2.34,4.58-1.56-.68-2-.88-3.66-1.83v2.34c-1.05-.14-2.17-.21-3.87-.21h-4.45v3.46h5.16c1.83,0,3.05-.07,4-.21v4.45c-.95-.14-2.27-.2-4.04-.2h-5.12v4.04h8.14c1.97,0,3.5-.07,4.65-.21v4.52c-1.15-.14-2.68-.21-4.58-.21h-20.7c-1.9,0-3.32.07-4.48.21v-4.52c1.02.14,2.61.21,4.58.21h7.84v-4.04h-4.68c-1.73,0-3.09.07-4,.2v-4.45c1.15.14,2.24.21,4,.21h4.68v-3.46h-4.04ZM102.4,39.58h14.18c-3.56-2.44-5.19-3.9-7.43-6.75-1.87,2.61-3.73,4.34-7.26,6.75h.51Z"/><path class="cls-3" d="M131.81,33.67c0-1.43-.07-2.61-.2-4.04,1.15.1,2.14.13,4,.13h21.92c1.6,0,2.75-.03,3.97-.17-.14,1.25-.17,2.34-.17,4.04v22.02c0,2.17.07,3.43.2,4.55h-4.55v-1.87h-20.8v1.87h-4.58c.14-1.05.2-2.24.2-4.55v-21.98ZM136.18,54.4h20.76v-20.66h-20.76v20.66ZM140.93,39.14c-1.49,0-2.07.03-3.05.17v-4c.88.14,1.49.17,3.05.17h11.3c1.56,0,2.27-.03,3.12-.17v4c-.92-.14-1.6-.17-3.09-.17h-3.83v2.78h3.12c1.49,0,2-.04,2.82-.17v3.97c-.58-.1-.88-.14-1.56-.14.65.88.71.95,1.43,2.38l-2.38.98h.68c1.56,0,2.2-.03,3.15-.17v4.04c-.95-.14-1.73-.17-3.15-.17h-11.94c-1.63,0-2.27.03-3.16.17v-4.04c.95.14,1.63.17,3.16.17h3.6v-3.39h-2.58c-1.42,0-2,.03-2.85.17v-3.97c.85.13,1.36.17,2.85.17h2.58v-2.78h-3.26ZM148.43,48.94h2.78c-.44-1.05-.92-1.83-1.39-2.51l2.14-.88h-3.53v3.39Z"/><path class="cls-3" d="M172.44,46.06c-1.42,0-2.65.07-3.76.21v-4c1.12.14,2.2.2,3.76.2h9.06v-1.73h-7.23c-1.29,0-2.17.03-3.09.14v-3.6c.88.1,1.66.14,3.09.14h7.23v-1.66h-7.97c-1.63,0-2.68.03-3.73.17v-3.93c1.12.13,2.21.2,3.73.2h3.67c-.75-1.22-1.15-1.8-1.9-2.65l4.17-1.25c.98,1.42,1.76,2.68,2.41,3.9h3.9c.75-1.05,1.43-2.24,2.1-3.73l4.38,1.02c-.58.95-1.15,1.8-1.87,2.72h3.87c1.63,0,2.68-.07,3.7-.2v3.93c-1.02-.14-2.04-.17-3.7-.17h-8.31v1.66h7.53c1.39,0,2.17-.04,3.09-.14v3.6c-.91-.1-1.76-.14-3.09-.14h-7.53v1.73h9.4c1.66,0,2.68-.07,3.73-.2v4c-1.02-.17-2-.21-3.73-.21h-9.5c-.1,1.12-.14,1.22-.24,1.9h9.3c1.73,0,2.65-.04,3.73-.17v4.07c-1.25-.14-2.51-.21-4.07-.21h-6.82c1.36,1.36,2.85,2.31,4.85,3.02,2.14.75,3.9,1.09,7.09,1.22-.98,1.8-1.36,2.71-1.83,4.55-3.66-.58-6-1.29-8.58-2.61-2.51-1.32-4.14-2.65-5.77-4.68-1.02,1.53-2.41,2.85-4.21,4.07-2.17,1.49-4.68,2.34-9.26,3.16-.47-1.63-.78-2.41-1.9-4.31,4.95-.34,8.18-1.63,10.96-4.41h-5.9c-1.56,0-2.88.07-4.11.21v-4.07c1.12.13,2.17.17,3.77.17h8.21c.17-.71.24-1.32.24-1.9h-8.86Z"/><path class="cls-3" d="M210.43,50.98c-1.32.75-1.8.98-3.12,1.63-.58-1.77-.95-2.48-2.04-4.04,5.53-1.87,10.65-5.12,13.84-8.86h4.07c1.9,2.27,4.04,4.04,6.85,5.53,2.34,1.25,4.89,2.27,7.23,2.89-.92,1.56-1.36,2.48-1.97,4.38q-1.56-.71-3.39-1.63v5.9c0,1.49.07,2.44.2,3.5h-4.48v-1.46h-12.93v1.46h-4.48c.14-1.12.2-2.07.2-3.53v-5.77ZM218.61,30.86c0-1.02-.03-1.59-.17-2.31h4.89c-.13.75-.17,1.26-.17,2.31h9.09c1.43,0,2.65-.03,3.9-.14-.1.85-.14,1.63-.14,2.58v2.68c0,1.02.03,1.7.17,2.61h-4.38v-3.7h-21.21v3.7h-4.41c.14-.95.17-1.59.17-2.65v-2.65c0-.85-.03-1.73-.14-2.58,1.29.1,2.44.14,3.9.14h8.48ZM219.25,36.9c-1.93,2.17-3.02,3.19-4.99,4.62-1.63,1.19-2.72,1.83-5.09,2.98-.82-1.49-1.49-2.34-2.85-3.49,2.17-.85,3.22-1.36,4.65-2.2,1.83-1.12,2.82-1.97,4.51-3.83l3.77,1.93ZM214.7,54.95h12.93v-3.5h-12.93v3.5ZM226.34,47.58c-1.93-1.36-3.19-2.44-5.12-4.44-1.73,1.8-3.09,2.91-5.22,4.44h10.35ZM226.61,34.96c3.39,3.19,4.78,3.97,9.57,5.6-.88,1.19-1.46,2.27-2.07,3.83-5.26-2.14-7.29-3.5-11.16-7.46l3.66-1.97Z"/><path class="cls-3" d="M261.28,56.47c0,2.95-1.02,3.6-5.53,3.6-.88,0-1.97-.03-3.49-.07-.34-1.9-.61-2.75-1.29-4.27,1.8.17,3.15.27,4.17.27,1.43,0,1.66-.1,1.66-.71v-4.17h-8.79c-1.8,0-3.29.07-4.38.2v-4.44c1.25.17,2.68.24,4.34.24h8.82c0-.75-.03-1.32-.1-1.83h1.66c1.12-.61,2-1.22,3.12-2.2h-8.18c-1.53,0-2.38.03-3.49.14v-4c1.02.1,2,.14,3.53.14h10.72c1.32,0,1.97-.03,2.61-.14l2.17,2.41c-.37.31-.51.44-.88.78-1.7,1.56-3.56,3.02-6.04,4.71h7.57c1.76,0,3.39-.07,4.48-.24v4.44c-1.09-.14-2.65-.2-4.51-.2h-8.18v5.36ZM249.13,33.67c-.71-1.36-1.15-2.11-2.34-3.67l4.17-1.02c1.09,1.46,1.9,2.75,2.88,4.69h2.95c-.44-1.32-1.05-2.65-1.9-4.11l4.31-.95c1.19,2.34,1.53,3.12,2.17,5.06h2.44c1.09-1.6,1.87-3.19,2.48-4.89l4.38,1.05c-.54,1.12-1.6,2.92-2.21,3.83h1.09c2.21,0,3.09-.04,4.21-.14-.1.85-.14,1.52-.14,2.82v3.46c0,1.02.07,1.83.17,2.68h-4.38v-5.05h-21.27v5.05h-4.41c.14-.74.17-1.56.17-2.71v-3.43c0-1.19-.03-1.97-.14-2.82,1.29.1,1.9.14,4.11.14h1.25Z"/><path class="cls-3" d="M305.91,36.59c.68,1.25.95,1.66,1.6,2.51,1.32,1.69,2.34,2.71,4.21,4.14-.98,1.16-1.53,2.07-2.41,3.83-1.02-.81-1.46-1.19-2.07-1.8-1.22,2.75-1.97,4.11-3.46,6.21,2.24,2.04,4.48,3.22,8.21,4.38-1.05,1.56-1.56,2.58-2.2,4.48-4-1.66-6.28-3.08-8.75-5.56-2.44,2.48-4.78,4-8.52,5.63-.71-1.63-1.29-2.51-2.54-3.97,3.93-1.35,5.97-2.54,8.35-4.88-1.39-1.94-2.1-3.22-3.22-5.9-.37.44-.68.71-1.63,1.7-.65-1.09-.95-1.53-1.8-2.48-.51.95-.78,1.66-1.22,3.05-.82-1.19-1.15-1.76-1.97-3.53q.03.61.07,1.73c.03.44.07,2,.07,2.44v7.56c0,1.77.07,3.12.2,4.28h-4.58c.13-1.05.2-2.51.2-4.28v-5.77c.03-1.22.07-2.54.14-3.93-1.05,3.19-1.8,4.85-3.12,6.79-.68-1.97-1.15-3.19-2-4.72,1.87-2.24,3.76-6.27,4.61-9.87h-1.05c-1.09,0-1.7.04-2.65.17v-4.28c.75.14,1.56.17,2.68.17h1.36v-2.51c0-1.66-.03-2.58-.17-3.53h4.58c-.14.85-.2,1.94-.2,3.53v2.51h1.12c.85,0,1.32-.03,1.97-.14v4.21c-.68-.1-1.15-.14-1.87-.14h-1.19c.48,1.46,1.49,3.05,2.82,4.58,1.32-1.15,2.27-2.34,3.26-3.97.47-.78.68-1.15,1.32-2.65-1.66,0-2.61.07-3.73.21v-4.48c1.05.14,2.2.2,3.87.2h2.75v-1.19c0-1.09-.03-1.69-.17-2.48h4.75c-.14.68-.17,1.32-.17,2.38v1.29h4.04c1.59,0,2.82-.07,3.87-.2v4.48c-1.09-.14-2.38-.21-3.9-.21h-1.43ZM298.62,43.48c.75,2.1,1.25,3.09,2.41,4.78,1.15-1.77,1.66-2.85,2.34-4.89l3.63,1.66c-1.87-1.87-3.05-3.56-4.68-6.68l3.12-1.77h-9.09l3.6,1.73c-1.8,3.49-2.71,4.85-4.48,6.92l3.16-1.76Z"/><path class="cls-3" d="M328.84,33.23c1.09-1.56,1.8-2.85,2.37-4.45l3.6,1.46c-1.12,2.24-1.49,2.95-2.48,4.45h.24c1.05,0,1.7-.03,2.1-.1v3.67c-.44-.07-1.09-.1-2.14-.1h-1.9c.75.78,1.49,1.32,2.71,1.97-.88,1.09-1.36,1.8-2.07,3.19-1.66-1.39-1.87-1.6-2.82-3.02.03.38.1,1.05.1,1.25v.95c0,.38,0,.78.07,1.16h-4.24c.07-.34.1-.68.1-.98v-.99c0-.27.03-.85.07-1.39-1.9,2.41-2.75,3.22-5.16,4.82-.78-1.39-1.22-2-2.44-3.29,2.34-1.09,3.76-2.11,5.12-3.67h-1.43c-1.22,0-2.1.04-2.92.14v-3.73c.85.1,1.59.14,2.92.14h3.87v-3.76c0-1.05-.03-1.63-.14-2.27h4.31c-.1.61-.14,1.19-.14,2.2v3.83h3.46l-3.19-1.46ZM349.26,38.19c-.64-.1-.92-.1-2.04-.14-.44,5.97-1.36,9.5-3.43,13.23,1.66,2.04,3.6,3.56,5.97,4.75-.98,1.39-1.63,2.54-2.34,4.27-2.34-1.39-4.38-3.15-6.21-5.43-2.07,2.31-4.34,4.07-6.99,5.5-.68-1.49-1.39-2.51-2.31-3.46l-1.12,1.8c-1.25-.98-1.66-1.25-3.26-2.14-2.27,1.9-4.58,2.98-8.11,3.83-.58-1.46-1.19-2.51-2.07-3.73,2.82-.41,4.41-.92,6.34-2-1.63-.71-2.51-1.09-4.92-1.94,1.15-1.49,1.53-2.07,2.27-3.32h-.64c-1.22,0-1.97.03-2.78.17v-4.04c.78.14,1.49.17,2.78.17h2.41c.27-.71.41-1.12.78-2.17l4.21.75c-.31.68-.41.88-.65,1.42h4.99c.95,0,1.63-.03,2.17-.1-.82-1.19-1.39-1.83-2.27-2.65,2.41-2.71,4-6.38,5.02-11.53.24-1.12.41-2.44.41-2.95l4.41.85c-.07.24-.24.88-.71,2.82-.17.71-.24.88-.54,2h5.39c1.66,0,2.44-.04,3.22-.17v4.21ZM321.65,28.89c1.29,1.7,1.8,2.54,2.58,4.24l-3.46,1.49c-.78-1.83-1.42-2.92-2.51-4.31l3.39-1.42ZM325.28,49.42c-.31.54-.44.78-.95,1.59,1.26.44,1.7.58,2.44.88.61-.85.88-1.46,1.22-2.48h-2.71ZM332.3,56.27c2.78-1.39,4.75-2.92,6.51-4.99-1.29-2.37-1.97-4.27-2.58-7.09-.54.88-.71,1.12-1.46,2v3.36c-.64-.07-1.46-.14-2.61-.14-.51,1.7-.95,2.68-1.83,4.04,1.05.47,1.53.75,2.82,1.46l-.85,1.36ZM339.32,38.05c-.17.44-.24.61-.41,1.05.54,3.53,1.02,5.22,2.34,8.11,1.05-2.61,1.59-5.46,1.76-9.16h-3.7Z"/><path class="cls-3" d="M130.37,89.79c-.27,5.29-.47,6.82-1.46,10.25l-3.39-1.56c.92-3.05,1.29-5.6,1.42-9.13l3.43.44ZM125.79,84.25c.54.1.88.14,1.7.14h1.15c.64-.78.92-1.12,1.56-2.04-1.8-2.37-2.1-2.75-4.44-5.02l2.14-3.5c.48.58.65.78.98,1.16,1.09-1.73,2.2-3.97,2.51-5.12l3.77,1.46c-.2.31-.34.54-.68,1.22-.78,1.56-2.07,3.67-3.09,5.16.44.54.61.71,1.12,1.36,1.87-2.78,3.02-4.68,3.43-5.73l3.63,2c-.27.37-.54.71-1.15,1.66-1.56,2.3-4.04,5.6-5.43,7.22,1.73-.07,2.04-.1,3.39-.2-.24-.71-.37-1.09-.88-2.27l2.82-1.09c.92,2,1.73,4.17,2.61,6.99l-3.19,1.29c-.1-.68-.17-.88-.31-1.49q-1.49.17-1.97.2v10.49c0,1.8.03,2.58.2,3.7h-4.41c.17-1.05.2-1.9.2-3.7v-10.15q-1.56.1-3.9.24c-.58.07-.92.1-1.39.17l-.37-4.14ZM139.49,89.21c.68,2.95,1.12,5.6,1.46,8.92l-3.6.68c-.27-3.8-.54-6.18-1.02-8.89l3.16-.71ZM144.89,78.99c-1.26,2.41-1.8,3.26-3.29,5.09-.78-1.19-1.59-2.04-3.16-3.22,1.53-1.76,2.78-3.9,3.7-6.14.68-1.76,1.15-3.39,1.36-4.65l4.48.75c-.17.47-.2.47-.47,1.46-.17.54-.54,1.7-.85,2.51h7.16c1.39,0,2-.03,2.75-.14q-.14,1.16-.17,6.21c-.03,4.07-.37,10.01-.71,12.76-.51,4-1.19,5.87-2.41,6.82-.85.61-2.34.92-4.72.92-.95,0-1.83-.04-2.99-.1-.2-1.76-.44-2.78-1.12-4.48,1.59.24,3.33.41,4.38.41,1.53,0,1.9-.41,2.31-2.48.54-2.99.88-8.69.88-15.71h-7.12ZM145.6,93.21c-1.39-4.45-2.04-6.01-3.56-8.75l3.73-1.77c1.9,3.29,2.71,5.19,3.87,8.62l-4.04,1.9Z"/><path class="cls-3" d="M168.02,99.49c-2.88,0-3.43,0-4.72.13.17-1.8.37-2.95.81-4.17.88-2.65,2.48-5.02,4.72-7.06,1.25-1.15,2.27-1.9,5.8-4.31,3.12-2.1,3.87-3.05,3.87-4.82,0-1.87-1.7-3.15-4.14-3.15-1.76,0-3.12.64-3.93,1.83-.51.74-.71,1.49-.92,3.02l-6.01-.68c.51-2.75,1.12-4.17,2.41-5.73,1.83-2.11,4.68-3.22,8.35-3.22,6.24,0,10.21,3.02,10.21,7.77,0,2.27-1.02,4.34-2.99,6.11-.81.75-1.09.95-5.09,3.74-1.39.98-2.95,2.3-3.73,3.12-.78.85-1.15,1.42-1.6,2.51h8.58c2.34,0,3.94-.07,5.19-.27v5.43c-1.8-.17-3.19-.24-5.46-.24h-11.36Z"/><path class="cls-3" d="M207.6,78.99c-.71-2.2-1.97-3.12-4.27-3.12s-3.9,1.16-4.95,3.36c-.68,1.39-1.02,2.82-1.15,4.89.85-.95,1.32-1.36,2.27-1.83,1.32-.68,2.78-.99,4.61-.99,5.97,0,9.64,3.53,9.64,9.3,0,2.44-1.02,4.95-2.65,6.62-1.87,1.87-4.71,2.92-7.94,2.92-3.49,0-6.31-1.19-8.18-3.43-2.04-2.44-3.12-6.11-3.12-10.55,0-3.7.88-7.47,2.27-9.74,2-3.29,5.22-5.06,9.19-5.06,2.68,0,4.95.64,6.58,1.87,1.49,1.12,2.41,2.34,3.22,4.51l-5.53,1.25ZM203.12,85.78c-3.12,0-5.29,2-5.29,4.82s2.24,4.92,5.26,4.92c1.9,0,3.56-.85,4.44-2.24.44-.68.68-1.63.68-2.72,0-3.05-1.83-4.78-5.09-4.78Z"/><path class="cls-3" d="M223.54,97.11c-1.05-1.05-1.83-2.27-2.34-3.6-.88-2.37-1.32-5.02-1.32-7.77,0-3.6.81-7.29,2.1-9.4,1.93-3.26,5.22-5.02,9.26-5.02,3.05,0,5.73,1.02,7.67,2.95,1.05,1.05,1.87,2.27,2.34,3.6.88,2.38,1.32,5.02,1.32,7.81,0,3.56-.81,7.33-2.07,9.4-1.93,3.19-5.26,4.99-9.3,4.99-3.09,0-5.73-1.02-7.67-2.95ZM225.64,85.51c0,6.45,1.9,9.77,5.6,9.77,1.36,0,2.51-.47,3.36-1.35,1.42-1.46,2.2-4.38,2.2-8.11,0-6.41-1.9-9.7-5.56-9.7s-5.6,3.46-5.6,9.4Z"/><path class="cls-3" d="M274.25,78.04c.68,1.25.95,1.66,1.6,2.51,1.32,1.69,2.34,2.71,4.21,4.14-.98,1.16-1.53,2.07-2.41,3.83-1.02-.81-1.46-1.19-2.07-1.8-1.22,2.75-1.97,4.11-3.46,6.21,2.24,2.04,4.48,3.22,8.21,4.38-1.05,1.56-1.56,2.58-2.2,4.48-4-1.66-6.28-3.08-8.75-5.56-2.44,2.48-4.78,4-8.52,5.63-.71-1.63-1.29-2.51-2.54-3.97,3.93-1.35,5.97-2.54,8.35-4.88-1.39-1.94-2.1-3.22-3.22-5.9-.37.44-.68.71-1.63,1.7-.65-1.09-.95-1.53-1.8-2.48-.51.95-.78,1.66-1.22,3.05-.82-1.19-1.15-1.76-1.97-3.53q.03.61.07,1.73c.03.44.07,2,.07,2.44v7.56c0,1.77.07,3.12.2,4.28h-4.58c.13-1.05.2-2.51.2-4.28v-5.77c.03-1.22.07-2.54.14-3.93-1.05,3.19-1.8,4.85-3.12,6.79-.68-1.97-1.15-3.19-2-4.72,1.87-2.24,3.76-6.27,4.61-9.87h-1.05c-1.09,0-1.7.04-2.65.17v-4.28c.75.14,1.56.17,2.68.17h1.36v-2.51c0-1.66-.03-2.58-.17-3.53h4.58c-.14.85-.2,1.94-.2,3.53v2.51h1.12c.85,0,1.32-.03,1.97-.14v4.21c-.68-.1-1.15-.14-1.87-.14h-1.19c.48,1.46,1.49,3.05,2.82,4.58,1.32-1.15,2.27-2.34,3.26-3.97.47-.78.68-1.15,1.32-2.65-1.66,0-2.61.07-3.73.21v-4.48c1.05.14,2.2.2,3.87.2h2.75v-1.19c0-1.09-.03-1.69-.17-2.48h4.75c-.14.68-.17,1.32-.17,2.38v1.29h4.04c1.59,0,2.82-.07,3.87-.2v4.48c-1.09-.14-2.38-.21-3.9-.21h-1.43ZM266.96,84.93c.75,2.1,1.25,3.09,2.41,4.78,1.15-1.77,1.66-2.85,2.34-4.89l3.63,1.66c-1.87-1.87-3.05-3.56-4.68-6.68l3.12-1.77h-9.09l3.6,1.73c-1.8,3.49-2.71,4.85-4.48,6.92l3.16-1.76Z"/><path class="cls-3" d="M298.81,73.84c0-1.83-.03-2.65-.2-3.76h5.05c-.13,1.02-.2,1.9-.2,3.6v1.9h8.96c1.63,0,2.38-.03,3.33-.13-.1.95-.14,1.66-.14,3.12v10.75c0,1.73.03,2.54.17,3.53h-4.68v-1.9h-7.63v6.45c0,2.11.07,3.22.24,4.38h-5.12c.17-1.29.24-2.44.24-4.38v-6.45h-7.29v1.9h-4.68c.14-1.05.17-2,.17-3.53v-10.79c0-1.39-.03-2-.14-3.08,1.12.1,1.76.13,3.26.13h8.69v-1.73ZM291.51,79.81v6.89h7.29v-6.89h-7.29ZM311.09,86.7v-6.89h-7.63v6.89h7.63Z"/><path class="cls-3" d="M120.75,196.53c.75.14,1.46.17,2.75.17h6.75c1.42,0,2.04-.04,2.75-.14v3.97c-.92-.1-1.19-.1-2.61-.1h-6.89c-1.19,0-1.9.03-2.75.13v-4.04ZM132.08,219.5c0,1.39.03,2,.1,2.58h-3.76v-1.09h-2.68v1.53h-4c.14-1.32.17-2.24.17-3.29v-5.26c0-.98-.03-1.49-.14-2.58.78.07,1.39.1,2.61.1h5.6c1.22,0,1.7-.03,2.17-.1-.03.47-.07,1.09-.07,2.34v3.43c1.05-2.2,1.43-3.83,1.76-7.26l3.22.98c-.51,4.28-.95,6.11-2.31,9.6l-2.68-1.76v.78ZM121.84,191.78c.92.1,1.46.14,2.88.14h4.55c1.42,0,1.93-.04,2.88-.14v3.63c-1.09-.07-1.56-.1-2.88-.1h-4.55c-1.29,0-1.9.03-2.88.1v-3.63ZM142.67,204.64c-1.05-.68-1.46-.92-2.21-1.36-1.7,2.41-3.33,3.83-6.28,5.46-.64-1.7-.95-2.17-2.1-3.56v.17c-.68-.07-1.09-.1-2-.1h-6.07c-.95,0-1.53.03-2.07.1v-3.53c.65.07,1.02.1,2.07.1h6.07c1.12,0,1.49-.03,2-.1v3.36c2.38-1.09,3.63-2.04,4.92-3.7-1.36-.57-1.93-.81-3.77-1.42l1.97-2.85c1.7.54,2.21.71,3.46,1.22.27-.88.37-1.22.51-2.38h-2.1c-1.83,0-2.75.04-3.73.17v-4.24c1.09.14,2.44.2,3.83.2h10.96c1.46,0,2.41-.03,3.26-.13-.1.54-.1.57-.2,2.65-.34,6.72-.85,9.73-1.8,11.16-.61.88-1.83,1.32-3.8,1.32q-.17,0-.88-.03-.54-.03-1.05-.07c-.2-1.32-.34-1.87-.68-2.91l-.31.47ZM121.94,206.57c.65.07,1.02.1,2.07.1h6.04c1.15,0,1.53-.03,2.04-.1v3.53c-.54-.07-1.09-.1-2.07-.1h-6.04c-.95,0-1.32,0-2.04.1v-3.53ZM125.64,217.53h2.78v-2.82h-2.78v2.82ZM143.62,212.81c-.82-1.19-1.15-1.56-2.27-2.71-.07.58-.07.71-.07,1.39v5.87c0,.68.17.78,1.19.78,1.53,0,1.87-.1,2.04-.51.17-.38.27-1.8.27-3.53,1.25.58,2.14.88,3.46,1.19-.64-1.59-.98-2.3-1.93-3.87l3.22-1.73c1.42,2.55,2.54,5.12,3.53,8.21l-3.39,2.07c-.47-1.97-.71-2.78-1.29-4.31-.34,5.6-1.05,6.38-5.8,6.38-2.14,0-3.29-.14-4.11-.47-.85-.34-1.12-.88-1.12-2.24v-7.39c0-.78-.03-1.46-.17-2.41h3.53c-.64-.61-1.02-.88-2.07-1.63l2.85-2.24c2.82,2.14,3.43,2.65,5.23,4.58l-3.09,2.58ZM143.28,196.05c-.37,2.04-.51,2.65-1.05,3.97.81.41,1.29.68,2.51,1.32l-1.22,1.97c.71.07,1.15.1,1.32.1.78,0,1.12-.34,1.39-1.36.31-1.12.51-2.88.61-6.01h-3.56Z"/><path class="cls-3" d="M172.07,204.64h-5.9c-1.56,0-2.58.03-3.53.17v-2.55h-3.87c.14-.85.17-1.59.17-2.85v-2.89c0-.88-.03-1.73-.13-2.58,1.32.1,2.54.14,3.9.14h8.58v-.99c0-.88-.03-1.42-.17-2.17h4.89c-.14.75-.17,1.25-.17,2.14v1.02h8.92c1.36,0,2.58-.04,3.9-.14-.1.88-.14,1.59-.14,2.58v2.92c0,1.02.03,1.87.17,2.82h-3.8v2.55c-.98-.14-1.9-.17-3.53-.17h-5.06v3.73h6.24c1.7,0,2.48-.03,3.43-.17v4.24c-1.02-.14-1.83-.17-3.43-.17h-6.24v5.02c1.56.17,2.99.24,5.02.24,2.24,0,4.41-.1,8.14-.41-.61,1.73-.85,2.72-1.05,4.55-2.92.07-4.95.1-6.79.1-4.78,0-8.21-.44-10.52-1.36-2.24-.91-3.93-2.2-5.39-4.17-1.29,2.54-2.44,4.24-4.38,6.31-1.09-1.42-1.9-2.24-3.46-3.36,1.83-1.77,2.98-3.33,4.14-5.47,1.12-2.1,2.1-5.22,2.31-7.33l4.44.81c-.41,1.7-.85,3.26-1.36,4.92,1.32,2.2,2.51,3.26,4.65,4.21v-11.7ZM184.32,198.09h-21.1v2.54c.81.07,1.66.1,2.95.1h15.2c1.25,0,2.1-.04,2.95-.1v-2.54Z"/><path class="cls-3" d="M207.11,206.67c0,2.54-2.04,4.58-4.58,4.58s-4.58-2.04-4.58-4.58,2.04-4.58,4.58-4.58,4.58,2.04,4.58,4.58Z"/><path class="cls-3" d="M233.26,212.34c-4.58,0-6.34-.17-8.21-.88-1.05-.38-1.83-1.02-2.61-2.07-1.19.92-2.65,1.83-5.06,3.16l-1.56-4.07c1.02-.24,3.05-1.25,4.58-2.24v-3.43h-1.76c-.85,0-1.32.03-2.21.14v-3.94c.88.14,1.49.17,2.78.17h2.85c1.05,0,1.76-.04,2.58-.14-.1.81-.14,1.42-.14,3.22v4.21c.58,1.19,1.22,1.73,2.51,2.1,1.19.38,2.78.47,6.89.47,6.27,0,10.42-.1,13.6-.37-.71,1.59-.78,1.76-1.02,3.49-1.29.04-1.97.07-5.33.1v1.02h1.43c2.07,0,3.15-.04,4.27-.21v3.9c-1.12-.13-2.27-.2-4.34-.2h-1.36v2.72c0,2.41-1.19,3.05-5.73,3.05-.61,0-1.25,0-2.51-.03-.24-1.66-.47-2.51-1.19-3.9,1.29.14,2.82.24,3.76.24,1.09,0,1.32-.13,1.32-.74v-1.32h-10.01c1.39,1.02,2.27,1.73,3.6,2.95l-3.39,2.82c-1.53-1.8-2.78-2.92-4.68-4.24l2.11-1.53h-3.7c-2.07,0-3.16.07-4.34.2v-3.9c1.12.14,2.17.21,4.24.21h16.18v-.99l-3.56.03ZM219.28,190.93c2.51,1.7,3.43,2.41,5.5,4.41l-2.92,3.12c-1.83-1.97-3.15-3.12-5.46-4.75l2.88-2.78ZM229.29,193.24c-.47-.81-.85-1.32-1.46-2.04l4.38-.68c.58.81,1.22,1.93,1.59,2.71h3.16c.68-1.02.98-1.63,1.42-2.68l4.41.75c-.1.17-.2.31-.24.4q-.71,1.12-1.02,1.53h1.66c1.7,0,2.61-.03,3.39-.14v3.46c-.71-.1-1.76-.14-3.39-.14h-5.63q-.27.54-.44.92h4.51c1.43,0,2.31-.03,2.95-.1-.07.81-.1,1.36-.1,2.51v5.84c0,1.19.03,1.93.1,2.58-.98-.07-1.05-.07-2.61-.07h-12.25c-1.63,0-2.14,0-3.09.07.07-.58.1-1.19.1-2.41v-6.04c0-1.12-.03-1.9-.1-2.48.68.07,1.73.1,3.19.1h2.78c.17-.38.24-.51.44-.92h-4.72c-1.6,0-2.65.03-3.39.14v-3.46c.75.1,1.49.14,3.12.14h1.22ZM230.82,200.46h9.6v-.88h-9.6v.88ZM230.82,203.11h9.6v-.92h-9.6v.92ZM230.82,205.79h9.6v-.95h-9.6v.95Z"/><path class="cls-3" d="M262.33,196.49c-1.05,0-2.24.07-3.56.21v-4.72c1.09.17,1.8.2,3.49.2h5.84c1.32,0,2.17-.03,3.05-.17-.07.88-.1,1.43-.1,2.14,0,5.06,1.36,9.91,3.97,14.11,1.46,2.34,3.12,4.28,5.53,6.34,1.56,1.32,2.41,1.94,4.41,3.09-1.46,1.49-2.17,2.51-3.29,4.58-3.15-2.2-5.29-4.21-7.6-7.16-2.54-3.22-3.97-6.04-5.09-9.94-1.29,4.24-2.65,6.96-4.92,9.87-2.07,2.68-4.58,4.92-8.18,7.26-.88-1.7-1.8-2.89-3.19-4.17,3.19-1.97,4.51-2.98,6.21-4.75,2.95-3.05,4.61-5.87,5.97-10.11.75-2.31,1.02-3.83,1.19-6.79h-3.73Z"/><path class="cls-3" d="M316.09,198.83c.68,1.25.95,1.66,1.6,2.51,1.32,1.69,2.34,2.71,4.21,4.14-.98,1.16-1.53,2.07-2.41,3.83-1.02-.81-1.46-1.19-2.07-1.8-1.22,2.75-1.97,4.11-3.46,6.21,2.24,2.04,4.48,3.22,8.21,4.38-1.05,1.56-1.56,2.58-2.2,4.48-4-1.66-6.28-3.08-8.75-5.56-2.44,2.48-4.78,4-8.52,5.63-.71-1.63-1.29-2.51-2.54-3.97,3.93-1.35,5.97-2.54,8.35-4.88-1.39-1.94-2.1-3.22-3.22-5.9-.37.44-.68.71-1.63,1.7-.65-1.09-.95-1.53-1.8-2.48-.51.95-.78,1.66-1.22,3.05-.82-1.19-1.15-1.76-1.97-3.53q.03.61.07,1.73c.03.44.07,2,.07,2.44v7.56c0,1.77.07,3.12.2,4.28h-4.58c.13-1.05.2-2.51.2-4.28v-5.77c.03-1.22.07-2.54.14-3.93-1.05,3.19-1.8,4.85-3.12,6.79-.68-1.97-1.15-3.19-2-4.72,1.87-2.24,3.76-6.27,4.61-9.87h-1.05c-1.09,0-1.7.04-2.65.17v-4.28c.75.14,1.56.17,2.68.17h1.36v-2.51c0-1.66-.03-2.58-.17-3.53h4.58c-.14.85-.2,1.94-.2,3.53v2.51h1.12c.85,0,1.32-.03,1.97-.14v4.21c-.68-.1-1.15-.14-1.87-.14h-1.19c.48,1.46,1.49,3.05,2.82,4.58,1.32-1.15,2.27-2.34,3.26-3.97.47-.78.68-1.15,1.32-2.65-1.66,0-2.61.07-3.73.21v-4.48c1.05.14,2.2.2,3.87.2h2.75v-1.19c0-1.09-.03-1.7-.17-2.48h4.75c-.14.68-.17,1.32-.17,2.38v1.29h4.04c1.59,0,2.82-.07,3.87-.2v4.48c-1.09-.14-2.38-.21-3.9-.21h-1.43ZM308.8,205.72c.75,2.1,1.25,3.09,2.41,4.78,1.15-1.77,1.66-2.85,2.34-4.89l3.63,1.66c-1.87-1.87-3.05-3.56-4.68-6.68l3.12-1.77h-9.09l3.6,1.73c-1.8,3.5-2.71,4.85-4.48,6.92l3.16-1.76Z"/><path class="cls-2" d="M71.64,153.83c2.99-3.36,5.15-5.9,6.57-7.54l16.94-20.3c3.43-4.18,4.7-5.75,6.49-8.59h12.61c-.37,4.33-.52,7.09-.52,12.54v24.33h2.09c2.69,0,5-.15,7.76-.6v11.49c-2.46-.3-4.93-.45-7.76-.45h-2.09v4.55c0,3.96.15,6.04.6,8.81h-12.99c.45-2.69.6-5.08.6-8.96v-4.48h-20.83c-4.48,0-7.02.08-9.48.3v-11.12ZM102.09,140.62c0-2.24.07-4.03.37-8.14-1.12,1.64-2.61,3.51-4.55,5.9l-12.99,15.97h17.17v-13.73Z"/><path class="cls-2" d="M142.23,138.16c-.08.6-.3,2.24-.37,3.06,3.58-2.69,7.46-3.96,12.54-3.96,6.04,0,11.42,2.02,15.15,5.82,3.66,3.66,5.45,8.36,5.45,14.48,0,13.66-8.96,22.02-23.51,22.02-7.99,0-14.11-2.24-18.29-6.64-2.39-2.54-3.58-4.7-5.22-9.33l12.54-2.24c.67,2.09,1.12,3.06,2.09,4.18,1.87,2.31,4.78,3.51,8.51,3.51,6.87,0,11.42-4.41,11.42-11.2s-4.33-10.97-10.97-10.97c-3.36,0-6.34,1.05-8.43,2.91-.97.97-1.42,1.64-2.09,3.29l-11.64-1.12c.6-3.43.75-4.63,1.05-7.68l1.72-19.26c.22-2.84.22-3.36.3-7.91,2.69.22,4.33.3,8.44.3h19.56c5.9,0,7.84-.07,11.35-.52v11.2c-3.51-.45-6.79-.6-11.2-.6h-17.39l-.97,10.67Z"/><path class="cls-2" d="M240.7,129.41c1.36,2.51,1.9,3.32,3.19,5.02,2.65,3.39,4.68,5.43,8.42,8.28-1.97,2.31-3.05,4.14-4.82,7.67-2.04-1.63-2.92-2.37-4.14-3.6-2.44,5.49-3.93,8.21-6.92,12.42,4.48,4.07,8.96,6.44,16.42,8.75-2.1,3.12-3.12,5.16-4.41,8.96-8.01-3.33-12.55-6.18-17.51-11.13-4.89,4.95-9.57,8.01-17.03,11.27-1.43-3.26-2.58-5.02-5.09-7.94,7.87-2.72,11.94-5.09,16.69-9.77-2.78-3.87-4.21-6.45-6.45-11.81-.75.88-1.36,1.43-3.26,3.39-1.29-2.17-1.9-3.05-3.6-4.95-1.02,1.9-1.56,3.33-2.44,6.11-1.63-2.38-2.31-3.53-3.93-7.06q.07,1.22.13,3.46c.07.88.14,4,.14,4.88v15.13c0,3.53.14,6.24.41,8.55h-9.16c.27-2.11.41-5.02.41-8.55v-11.54c.07-2.44.14-5.09.27-7.87-2.1,6.38-3.6,9.7-6.24,13.57-1.36-3.93-2.31-6.38-4-9.43,3.73-4.48,7.53-12.55,9.23-19.74h-2.1c-2.17,0-3.39.07-5.29.34v-8.55c1.49.27,3.12.34,5.36.34h2.71v-5.02c0-3.33-.07-5.16-.34-7.06h9.16c-.27,1.7-.41,3.87-.41,7.06v5.02h2.24c1.7,0,2.65-.07,3.94-.27v8.42c-1.36-.21-2.31-.27-3.73-.27h-2.37c.95,2.92,2.98,6.11,5.63,9.16,2.65-2.31,4.55-4.68,6.51-7.94.95-1.56,1.36-2.31,2.65-5.29-3.33,0-5.23.14-7.47.4v-8.95c2.11.27,4.41.4,7.74.4h5.5v-2.37c0-2.17-.07-3.39-.34-4.95h9.5c-.27,1.36-.34,2.65-.34,4.75v2.58h8.07c3.19,0,5.63-.14,7.74-.4v8.95c-2.17-.27-4.75-.4-7.8-.4h-2.85ZM226.11,143.18c1.49,4.21,2.51,6.18,4.82,9.57,2.31-3.53,3.33-5.7,4.68-9.77l7.26,3.33c-3.73-3.73-6.11-7.13-9.36-13.37l6.24-3.53h-18.19l7.19,3.46c-3.6,6.99-5.43,9.71-8.96,13.84l6.31-3.53Z"/><path class="cls-2" d="M286.68,162.86c-3.04,6.9-6.62,10.1-11.29,10.1-6.73,0-11.51-6.57-11.51-15.91,0-6.19,2.12-11.84,6.08-16.12,4.67-5.1,11.35-7.82,19.11-7.82,13.63,0,22.31,8.14,22.31,20.85,0,9.88-4.94,17.54-13.63,20.96-2.61,1.03-4.78,1.57-8.63,2.23-1.14-3.42-1.9-4.89-4.02-7.71,4.83-.38,8.2-1.25,10.75-2.61,4.67-2.55,7.49-7.6,7.49-13.36,0-4.83-2.12-8.9-5.81-11.34-1.57-1.03-2.88-1.46-5.05-1.74-1.09,8.96-2.99,16.18-5.81,22.47ZM278.05,143.21c-4.13,3.2-6.68,8.47-6.68,13.9,0,4.07,1.74,7.38,3.85,7.38,1.58,0,3.26-2.12,4.99-6.51,2.01-4.83,3.69-11.67,4.34-17.48-2.61.33-4.4,1.09-6.51,2.72Z"/><path class="cls-2" d="M327.76,131.97c1.14.21,2.55.27,5.54.27,3.42,0,8.36-.22,10.64-.49,1.03-.11,1.46-.27,2.17-.65l5.05,4.29c-.49.7-.87,1.36-1.25,2.39-.43,1.25-2.88,8.69-3.8,11.83,4.02.65,6.78,1.47,10.64,2.98.32-2.33.49-4.88.49-9.5,0-1.3-.05-1.9-.22-2.98l8.09.32c-.22,1.14-.27,1.69-.32,3.8-.16,4.78-.43,7.92-.98,11.35,1.25.65,4.13,2.12,5.7,3.04,1.25.65,1.46.81,2.23,1.09l-2.82,8.58c-1.52-1.36-4.24-3.15-7.11-4.78-1.57,3.91-3.26,6.57-6.08,9.39-2.28,2.33-4.99,4.29-7.98,5.92-2.55-3.21-3.31-3.96-5.75-5.92,4.02-1.95,5.97-3.26,8.14-5.43s3.69-4.5,4.78-7.49c-3.26-1.57-6.51-2.61-10.96-3.47-2.34,7-3.86,10.81-5.43,13.41-2.12,3.47-4.78,5.21-7.87,5.21-2.33,0-4.78-1.09-6.51-2.88-1.95-2.01-2.98-4.89-2.98-8.25,0-5.1,2.5-9.55,6.89-12.32,2.82-1.74,5.86-2.55,10.48-2.77,1.09-3.31,2.12-6.9,2.98-10.32-1.41.16-4.72.33-9.77.6-.87.06-2.12.11-3.69.27l-.27-7.49ZM330.09,158.95c-1.19,1.36-1.79,2.99-1.79,4.67,0,2.01.98,3.53,2.28,3.53.87,0,1.68-.92,2.77-3.26.98-1.95,2.06-4.83,3.15-7.98-2.88.27-4.83,1.2-6.41,3.04Z"/><path class="cls-3" d="M55.13,240.16l.6.62-6.69,6.73,6.69,6.7-.6.62-6.69-6.64-6.68,6.64-.62-.62,6.7-6.7-6.7-6.73.62-.62,6.68,6.69,6.69-6.69ZM44.47,247.49c0,.81-.64,1.45-1.43,1.45s-1.45-.66-1.45-1.45.64-1.43,1.45-1.43,1.43.64,1.43,1.43ZM49.87,253c0,.79-.66,1.45-1.43,1.45s-1.45-.7-1.45-1.45.68-1.45,1.32-1.45h.06s.02.02.04.02l.04-.02c.79,0,1.43.64,1.43,1.45ZM49.89,242.04c0,.81-.64,1.45-1.43,1.45s-1.45-.66-1.45-1.45.66-1.43,1.45-1.43,1.43.64,1.43,1.43ZM55.27,247.51c0,.79-.64,1.44-1.44,1.44s-1.43-.64-1.43-1.44.64-1.43,1.43-1.43,1.44.64,1.44,1.43Z"/><path class="cls-3" d="M60.27,254.68c-1.27,0-1.57.02-2.19.07.19-1.43.25-1.73.53-2.45.49-1.24,1.28-2.32,2.49-3.37.62-.55,1.07-.87,2.94-2.13,1.79-1.21,2.41-2.02,2.41-3.15,0-1.38-1.15-2.25-2.94-2.25-1.23,0-2.11.4-2.66,1.19-.34.49-.49.94-.64,1.87l-1.9-.28c.26-1.36.59-2.07,1.23-2.81.89-1,2.22-1.51,3.96-1.51,2.94,0,4.85,1.49,4.85,3.79,0,.89-.32,1.77-.89,2.45-.6.75-1.07,1.13-3.22,2.57-2.49,1.66-3.45,2.73-3.94,4.41h5.83c1,0,1.77-.04,2.44-.13v1.83c-.81-.08-1.45-.1-2.47-.1h-5.81Z"/><path class="cls-3" d="M72.42,253.55c-.53-.53-.92-1.13-1.15-1.77-.49-1.32-.74-2.81-.74-4.34,0-2.02.43-4.06,1.11-5.15.94-1.59,2.45-2.41,4.39-2.41,1.45,0,2.72.49,3.6,1.39.53.53.92,1.15,1.15,1.77.49,1.32.74,2.79.74,4.38,0,2.26-.51,4.32-1.34,5.49-.98,1.36-2.38,2.04-4.19,2.04-1.45,0-2.66-.47-3.58-1.4ZM73.72,242.38c-.4.43-.68.91-.83,1.4-.36,1.09-.54,2.34-.54,3.68,0,1.7.36,3.51.86,4.36.64,1.06,1.59,1.59,2.81,1.59.91,0,1.7-.3,2.25-.87.39-.42.72-.92.89-1.49.38-1.13.54-2.32.54-3.64,0-1.6-.34-3.42-.81-4.28-.6-1.13-1.56-1.7-2.89-1.7-.96,0-1.7.3-2.28.96Z"/><path class="cls-3" d="M85.63,254.68c-1.27,0-1.57.02-2.19.07.19-1.43.25-1.73.53-2.45.49-1.24,1.28-2.32,2.49-3.37.62-.55,1.07-.87,2.94-2.13,1.79-1.21,2.41-2.02,2.41-3.15,0-1.38-1.15-2.25-2.94-2.25-1.23,0-2.11.4-2.66,1.19-.34.49-.49.94-.64,1.87l-1.9-.28c.26-1.36.59-2.07,1.23-2.81.89-1,2.22-1.51,3.96-1.51,2.94,0,4.85,1.49,4.85,3.79,0,.89-.32,1.77-.89,2.45-.6.75-1.07,1.13-3.22,2.57-2.49,1.66-3.45,2.73-3.94,4.41h5.83c1,0,1.77-.04,2.44-.13v1.83c-.81-.08-1.45-.1-2.47-.1h-5.81Z"/><path class="cls-3" d="M98.59,245.57q-.02.32-.13.85c.92-.86,1.98-1.28,3.28-1.28,2.87,0,4.75,1.87,4.75,4.71,0,3.13-2.04,5.11-5.26,5.11-1.58,0-2.85-.47-3.79-1.39-.49-.49-.75-.91-1.19-1.85l1.85-.49c.19.55.32.79.59,1.11.6.68,1.51,1.06,2.57,1.06,2.06,0,3.42-1.38,3.42-3.47s-1.25-3.32-3.34-3.32c-.95,0-1.91.4-2.57,1.08-.25.24-.34.39-.51.79l-1.68-.15c.15-.85.21-1.21.26-1.96l.42-4.38c.07-.62.07-.75.07-1.28,0-.06,0-.07-.04-.66.57.08.94.1,2.02.1h4.07c1.12,0,1.57-.04,2.34-.15v1.83c-.75-.11-1.38-.15-2.32-.15h-4.43l-.38,3.9Z"/><path class="cls-3" d="M111.99,246.34c0-.42-.02-.75-.06-1.12.4.04.81.06,1.34.06h4.09v-2.91h-4.3c-1,1.64-1.85,2.7-3.13,3.83-.36-.57-.57-.79-1.04-1.13,1.88-1.6,2.89-2.94,3.75-4.98.24-.56.38-.98.47-1.38l1.58.4c-.09.21-.13.28-.24.53q-.11.23-.42.89-.15.34-.25.55h9.19c.83,0,1.26-.02,1.76-.1v1.49c-.53-.07-.94-.1-1.76-.1h-4.15v2.91h3.3c.81,0,1.25-.02,1.76-.1v1.47c-.49-.06-.96-.08-1.72-.08h-3.34v3.51h4.64c.85,0,1.4-.04,1.96-.11v1.58c-.59-.07-1.17-.11-1.96-.11h-4.64v2.9c0,.85.04,1.32.13,1.83h-1.72c.1-.51.11-.94.11-1.85v-2.89h-6.68c-.81,0-1.36.04-1.96.11v-1.58c.56.07,1.13.11,1.96.11h1.3v-3.75ZM117.37,250.1v-3.51h-3.92v3.51h3.92Z"/><path class="cls-3" d="M129.84,254.68c-1.27,0-1.57.02-2.19.07.19-1.43.25-1.73.53-2.45.49-1.24,1.28-2.32,2.49-3.37.62-.55,1.07-.87,2.94-2.13,1.79-1.21,2.41-2.02,2.41-3.15,0-1.38-1.15-2.25-2.94-2.25-1.23,0-2.11.4-2.66,1.19-.34.49-.49.94-.64,1.87l-1.9-.28c.26-1.36.59-2.07,1.23-2.81.89-1,2.22-1.51,3.96-1.51,2.94,0,4.85,1.49,4.85,3.79,0,.89-.32,1.77-.89,2.45-.6.75-1.07,1.13-3.22,2.57-2.49,1.66-3.45,2.73-3.94,4.41h5.83c1,0,1.77-.04,2.44-.13v1.83c-.81-.08-1.45-.1-2.47-.1h-5.81Z"/><path class="cls-3" d="M143.95,249.92c-.17,1.02-.39,1.89-.71,2.72-.49,1.3-1.06,2.21-2.11,3.4-.36-.49-.68-.81-1.23-1.21,1.15-1.13,1.73-2.08,2.19-3.58.53-1.79.74-4.06.74-8.43,0-1.62-.02-2.45-.1-3.13.7.07,1.21.09,2.04.09h7.32c.89,0,1.38-.02,2.02-.09-.06.54-.08.96-.08,2v12.3c0,.81-.17,1.25-.57,1.51-.36.21-.79.28-1.87.28-.55,0-1.13-.02-2.08-.07-.07-.6-.17-.95-.38-1.53.96.15,1.83.21,2.64.21.64,0,.77-.1.77-.55v-3.9h-8.6ZM152.56,248.55v-3.11h-8.26c0,.77-.06,1.64-.17,3.11h8.43ZM152.56,244.06v-2.91h-8.24v2.91h8.24Z"/><path class="cls-3" d="M158.25,241.83c0-.77-.02-1.34-.07-1.83q.38.04,1.72.06h1.66c.95,0,1.25-.02,1.68-.06-.06.43-.06.74-.06,1.85v10.47c0,.95.02,1.44.06,1.85h-1.4v-.96h-2.26v1.57h-1.43c.07-.59.11-1.23.11-2.08v-10.86ZM159.59,245.79h2.25v-4.47h-2.25v4.47ZM159.59,251.93h2.25v-4.91h-2.25v4.91ZM166.14,242.44c-.66,0-1.42.04-1.87.1v-1.45c.49.07,1.06.11,1.83.11h1.91v-.59c0-.59-.04-1-.11-1.49h1.66c-.07.45-.11.89-.11,1.49v.59h2.49c.77,0,1.34-.04,1.83-.11v1.45c-.47-.06-1.09-.1-1.81-.1h-2.51v2.26h3.11c.85,0,1.47-.04,1.94-.11v1.47c-.53-.08-1.02-.11-1.83-.11h-.51v2.06h.47c.85,0,1.38-.04,1.83-.11v1.51c-.51-.08-1.04-.11-1.83-.11h-.47v5c0,1.34-.47,1.66-2.38,1.66-.3,0-.43,0-1.66-.06-.04-.59-.13-1-.32-1.45.62.11,1.51.21,2.09.21.73,0,.85-.08.85-.49v-4.87h-5.09c-.7,0-1.36.04-1.92.11v-1.51c.45.08,1.04.11,1.94.11h5.07v-2.06h-5.07c-.79,0-1.34.04-1.94.11v-1.47c.47.08,1.11.11,1.94.11h2.34v-2.26h-1.87ZM167.4,253.79c-.91-1.36-1.55-2.13-2.57-3.13l1.12-.79c1.05,1,1.73,1.77,2.64,3.04l-1.19.89Z"/><path class="cls-3" d="M176.23,255.28c.7-.68.98-1.04,1.43-1.79.47-.75.66-1.19.98-2.19l1.32.53c-.68,1.81-1.28,2.9-2.4,4.24l-1.34-.79ZM185.21,244.83h3.62c1.02,0,1.59-.02,2.11-.1-.06.42-.07.85-.07,1.47v3.13c0,.6.02.94.07,1.39-.59-.06-1.07-.08-1.9-.08h-8.45c-.81,0-1.34.02-1.91.08.06-.47.08-.87.08-1.38v-3.15c0-.59-.02-.98-.08-1.47.59.06,1.26.1,2.13.1h2.9v-4.02c0-.7-.04-1.32-.13-1.85h1.75c-.1.49-.13,1.06-.13,1.76v.51h5.23c.85,0,1.39-.04,1.92-.11v1.53c-.66-.07-1.23-.11-1.92-.11h-5.23v2.3ZM180.21,246.16v3.17h9.22v-3.17h-9.22ZM182.15,256.07c0-1.81-.07-2.6-.38-4.18l1.3-.21c.34,1.72.47,2.68.55,4.11l-1.47.28ZM186.81,256.09c-.32-1.49-.7-2.58-1.41-4.18l1.24-.38c.71,1.49,1.13,2.53,1.62,4l-1.45.56ZM191.64,256.06c-.83-1.85-1.34-2.77-2.41-4.28l1.24-.53c1.11,1.55,1.49,2.17,2.53,4.04l-1.36.77Z"/><path class="cls-3" d="M195.02,241.99l.68.02c.26,0,.51-.02,1.09-.06,2.64-.19,7.81-.49,10.92-.62,1.15-.04,1.9-.11,2.2-.19l.13,1.68h-.22c-1.53,0-3.32.6-4.81,1.6-1.92,1.3-3,3.04-3,4.81,0,1.66.96,2.79,2.85,3.41.94.32,1.92.49,2.83.49l-.26,1.83c-.23-.06-.3-.08-.6-.11-1.94-.32-3.05-.7-4.17-1.39-1.45-.94-2.25-2.38-2.25-4.07,0-2.75,1.87-5.21,5.06-6.64-1.21.19-2.11.28-4.15.42-3.66.24-5.2.39-6.21.6l-.09-1.77ZM207.79,244.97c.89,1.06,1.32,1.7,1.98,2.92l-1.11.62c-.59-1.17-1.19-2.11-1.96-2.98l1.09-.56ZM209.94,243.95c.88,1.04,1.3,1.62,1.98,2.87l-1.1.62c-.54-1.09-1.11-1.94-1.94-2.92l1.06-.57Z"/><path class="cls-3" d="M217.5,246.87c-.81,0-1.32.02-1.83.1v-1.44c-1.02.64-1.49.91-2.41,1.34-.22-.51-.45-.85-.94-1.36,1.64-.66,3.37-1.7,4.7-2.77,1.34-1.09,2.34-2.23,3.15-3.55h1.73c1.02,1.49,2.06,2.55,3.58,3.68,1.53,1.13,3.05,1.98,4.66,2.58-.4.45-.64.87-.92,1.49-1.68-.81-3.26-1.81-4.71-2.94-1.49-1.19-2.34-2.05-3.43-3.54-.83,1.23-1.51,2-2.66,3.02-.87.75-1.7,1.38-2.64,1.98.49.07.91.1,1.66.1h7.32c.81,0,1.23-.02,1.76-.1v1.51c-.55-.08-1-.1-1.81-.1h-2.96v2.68h3.4c.86,0,1.36-.02,1.85-.1v1.51c-.49-.07-1-.09-1.85-.09h-3.4v3.17h5.51c.89,0,1.56-.04,2.15-.11v1.6c-.6-.1-1.34-.13-2.15-.13h-12.17c-.83,0-1.55.04-2.15.13v-1.6c.53.08,1.24.11,2.17.11h5.19v-3.17h-3.06c-.85,0-1.36.02-1.85.09v-1.51c.51.08,1,.1,1.85.1h3.06v-2.68h-2.77Z"/><path class="cls-3" d="M232.15,241.93c0-.87-.04-1.53-.11-2.3.62.08,1.19.1,2.22.1h11.43c1,0,1.53-.02,2.25-.1-.07.68-.11,1.34-.11,2.3v11.69c0,1.3.04,1.98.11,2.51h-1.55v-1.12h-12.79v1.12h-1.56c.07-.53.11-1.17.11-2.51v-11.69ZM233.61,253.74h12.77v-12.73h-12.77v12.73ZM236.72,243.85c-.81,0-1.27.02-1.76.1v-1.41c.55.09.89.11,1.76.11h6.58c.85,0,1.34-.02,1.81-.11v1.41c-.51-.08-.96-.1-1.81-.1h-2.75v2.66h2.21c.85,0,1.23-.02,1.68-.1v1.38c-.49-.07-.89-.09-1.68-.09h-2.21v3.15h3c.81,0,1.32-.04,1.85-.11v1.45c-.53-.06-1.11-.1-1.85-.1h-7.07c-.79,0-1.26.02-1.83.1v-1.45c.53.07,1.02.11,1.83.11h2.68v-3.15h-1.91c-.79,0-1.19.02-1.68.09v-1.38c.45.08.83.1,1.68.1h1.91v-2.66h-2.43ZM242.81,247.89c.7.74,1.04,1.19,1.64,2.17l-1.02.63c-.64-1.13-.94-1.55-1.56-2.25l.94-.55Z"/><path class="cls-3" d="M261.36,252.42c1.88-1,2.98-2.85,2.98-5.03,0-2.06-1-3.72-2.79-4.59-.66-.32-1.19-.45-2.11-.51-.32,2.77-1,5.55-1.89,7.54-1.07,2.47-2.2,3.6-3.62,3.6-1.9,0-3.3-2.02-3.3-4.77,0-1.96.72-3.85,2.02-5.28,1.53-1.68,3.64-2.55,6.21-2.55,4.28,0,7.13,2.64,7.13,6.62,0,2.93-1.49,5.26-4.13,6.53-.91.43-1.7.68-3.15.98-.25-.75-.38-1-.81-1.53,1.64-.26,2.55-.53,3.47-1.02ZM255.11,243.21c-1.83,1.15-2.94,3.22-2.94,5.47,0,1.72.75,3.08,1.73,3.08.74,0,1.45-.87,2.23-2.64.75-1.75,1.43-4.45,1.68-6.79-1.09.1-1.87.34-2.7.89Z"/><path class="cls-3" d="M277.79,250.92c1.42,2.08,3.87,3.32,7.26,3.68-.34.54-.53.98-.66,1.53-1.92-.4-3.25-.87-4.43-1.53-1.55-.89-2.66-1.97-3.47-3.3-.55,1.19-1.4,2.13-2.59,2.92-1.28.85-2.41,1.26-4.94,1.87-.17-.54-.26-.79-.68-1.47,2.26-.32,3.85-.85,5.11-1.72.89-.6,1.39-1.19,1.77-1.98h-4.45c-.77,0-1.41.04-2,.11v-1.47c.62.1,1.13.11,1.92.11h4.9c.08-.51.1-.64.1-.96,0-.13,0-.22-.02-.41l1.56.02c-.02.19-.04.25-.06.45-.04.42-.06.53-.13.91h5.68c.83,0,1.4-.04,1.92-.11v1.47c-.56-.08-1.21-.11-2-.11h-4.81ZM273.69,241.12c-.45-.72-.83-1.21-1.32-1.72l1.3-.53c.7.89,1.11,1.49,1.55,2.25h2.7c.55-.66,1-1.36,1.39-2.17l1.42.45c-.38.6-.78,1.13-1.28,1.72h2.7c.85,0,1.39-.04,1.94-.11v1.44c-.55-.08-1.15-.11-1.94-.11h-4.91v1.55h4.34c.75,0,1.15-.02,1.64-.09v1.39c-.49-.08-.89-.1-1.64-.1h-4.34v1.59h5.66c.85,0,1.41-.04,1.94-.11v1.45c-.51-.08-1.11-.11-1.94-.11h-12.51c-.75,0-1.36.04-1.92.11v-1.45c.53.08,1.13.11,1.92.11h5.43v-1.59h-4.11c-.74,0-1.17.02-1.64.1v-1.39c.49.07.89.09,1.64.09h4.11v-1.55h-4.68c-.79,0-1.36.04-1.92.11v-1.44c.59.08,1.13.11,1.92.11h2.55Z"/><path class="cls-3" d="M290.18,250.4c-.79.53-1.21.75-2.41,1.39-.22-.55-.39-.85-.77-1.3,1.62-.64,3.08-1.45,4.47-2.51,1.49-1.12,2.58-2.23,3.34-3.4h1.41c.83,1.3,1.98,2.43,3.64,3.58,1.34.94,2.56,1.58,4.24,2.25-.36.43-.53.75-.78,1.39-1.05-.53-1.56-.81-2.54-1.41v4.03c0,.66.04,1.19.11,1.74h-1.53v-.91h-7.77v.91h-1.53c.07-.57.11-1.13.11-1.74v-4.03ZM294.54,240.02c0-.45-.04-.77-.11-1.19h1.7c-.08.43-.11.74-.11,1.17v.49h5.51c.76,0,1.3-.02,1.94-.07-.06.39-.07.77-.07,1.3v1.26c0,.57.02.93.07,1.34h-1.45v-2.51h-12.98v2.51h-1.47c.06-.39.07-.79.07-1.34v-1.26c0-.51-.02-.91-.07-1.3.64.06,1.21.07,1.96.07h5.02v-.47ZM293.73,243.17c-.91,1.11-1.41,1.62-2.38,2.43-.89.72-1.39,1.06-2.45,1.64-.34-.49-.55-.72-1.04-1.13.98-.43,1.51-.74,2.28-1.3.92-.68,1.45-1.21,2.38-2.34l1.21.7ZM291.59,253.94h7.77v-3.28h-7.77v3.28ZM299.27,249.36c-1.79-1.3-2.53-2.04-3.74-3.6-1.21,1.51-2.23,2.45-3.85,3.6h7.59ZM298.25,242.46c1.68,1.79,2.7,2.53,5,3.51-.36.43-.51.64-.81,1.24-2.44-1.21-3.38-1.92-5.34-4l1.15-.75Z"/><path class="cls-3" d="M315.1,254.51c0,1.26-.38,1.51-2.32,1.51-.49,0-1.43-.04-2.09-.1-.13-.68-.22-.94-.45-1.43,1.02.13,1.74.19,2.45.19.85,0,.96-.06.96-.43v-3.51h-5.51c-.87,0-1.49.04-2.06.11v-1.53c.59.08,1.23.11,2.06.11h5.51v-.26c0-.38-.02-.72-.06-1.1h.79c1.17-.57,1.94-1.06,3.07-1.92h-6.43c-.66,0-1.3.04-1.81.09v-1.43c.51.06,1.15.09,1.85.09h6.64c.7,0,1.07-.02,1.41-.07l.81.86q-.26.21-.66.55c-1.32,1.09-2.47,1.87-4.17,2.75v.43h5.41c.88,0,1.51-.04,2.09-.11v1.53c-.51-.08-1.21-.11-2.09-.11h-5.41v3.77ZM309.7,241.99c-.49-.89-.83-1.38-1.66-2.34l1.34-.41c.79.96,1.19,1.56,1.87,2.75h2.53c-.3-.87-.7-1.7-1.3-2.62l1.4-.38c.7,1.28,1,1.91,1.39,3h1.92c.85-1,1.3-1.76,1.83-2.96l1.43.51c-.66,1.09-1.13,1.77-1.7,2.45h1.28c1.15,0,1.53-.02,2.23-.08-.06.45-.07.85-.07,1.55v1.51c0,.47.04.91.09,1.36h-1.49v-3.11h-13v3.11h-1.49c.06-.43.1-.87.1-1.36v-1.51c0-.7-.02-1.1-.07-1.55.77.06,1.11.08,2.19.08h1.19Z"/><path class="cls-3" d="M334.79,243.91c-1.13,2.22-1.85,3.22-3.34,4.64-.28-.43-.49-.68-.81-.96-.21.34-.28.47-.43.81-.64-.79-.98-1.41-1.51-2.64q.02.36.06,1.49c0,.17.02,1.23.02,1.45v5.28c0,1.04.04,1.66.11,2.23h-1.6c.07-.59.11-1.21.11-2.23v-4.9c0-.74.02-1.32.1-2.83-.6,2.26-1.28,3.77-2.4,5.36-.3-.66-.47-.92-.83-1.4,1.19-1.41,2.37-3.92,2.94-6.3h-.98c-.56,0-1.02.02-1.39.07v-1.39c.36.06.79.07,1.39.07h1.17v-1.81c0-1.06-.02-1.51-.09-1.96h1.56c-.07.45-.1,1-.1,1.94v1.83h.87c.57,0,.83-.02,1.19-.07v1.38c-.38-.04-.74-.06-1.17-.06h-.85c.43,1.19,1.07,2.17,2.09,3.21,1.11-.98,1.81-1.98,2.62-3.79l1.26.59ZM338.96,247.49c-1.13,2.4-1.49,3.04-2.25,4.07.59.64,1.11,1.07,1.81,1.55,1.04.68,1.85,1.07,3.42,1.6-.38.49-.59.85-.81,1.42-1.72-.7-2.57-1.17-3.64-2-.62-.47-1.13-.94-1.64-1.49-1.41,1.57-2.89,2.57-5.17,3.51-.28-.57-.47-.83-.87-1.27,2.34-.85,3.72-1.73,5.17-3.32-.75-1.07-1.15-1.77-2.13-3.92l1.32-.64c.47,1.45.91,2.36,1.68,3.47.77-1.07,1.36-2.26,1.74-3.58l1.38.6ZM335.18,240.63c0-.64-.04-1.07-.1-1.47h1.62c-.07.42-.11.83-.11,1.45v.96h3.04c.77,0,1.45-.04,1.98-.1v1.49c-.56-.06-1.23-.09-1.98-.09h-6.49c-.81,0-1.47.04-2,.11v-1.53c.53.08,1.17.11,1.98.11h2.06v-.94ZM338.17,243.27c1.03,1.68,1.83,2.57,3.43,3.79-.38.43-.53.66-.86,1.26-1.77-1.49-2.55-2.41-3.74-4.43l1.17-.62Z"/><path class="cls-3" d="M354.52,252.42c1.88-1,2.98-2.85,2.98-5.03,0-2.06-1-3.72-2.79-4.59-.66-.32-1.19-.45-2.11-.51-.32,2.77-1,5.55-1.89,7.54-1.07,2.47-2.2,3.6-3.62,3.6-1.9,0-3.3-2.02-3.3-4.77,0-1.96.72-3.85,2.02-5.28,1.53-1.68,3.64-2.55,6.21-2.55,4.28,0,7.13,2.64,7.13,6.62,0,2.93-1.49,5.26-4.13,6.53-.91.43-1.7.68-3.15.98-.25-.75-.38-1-.81-1.53,1.64-.26,2.55-.53,3.47-1.02ZM348.28,243.21c-1.83,1.15-2.94,3.22-2.94,5.47,0,1.72.75,3.08,1.73,3.08.74,0,1.45-.87,2.23-2.64.75-1.75,1.43-4.45,1.68-6.79-1.09.1-1.87.34-2.7.89Z"/><path class="cls-3" d="M363.36,240.04c.53.08.91.1,1.66.1h1.34c.71,0,1.04-.02,1.68-.1-.11,1.13-.17,2.09-.17,3.13v9.28c0,.91.04,1.49.15,2.23h-2.09c.11-.7.15-1.34.15-2.23v-10.77h-.98c-.64,0-1.13.04-1.73.11v-1.76Z"/><path class="cls-3" d="M376.59,245.57q-.02.32-.13.85c.92-.86,1.98-1.28,3.28-1.28,2.87,0,4.75,1.87,4.75,4.71,0,3.13-2.04,5.11-5.26,5.11-1.59,0-2.85-.47-3.79-1.39-.49-.49-.75-.91-1.19-1.85l1.85-.49c.19.55.32.79.59,1.11.6.68,1.51,1.06,2.57,1.06,2.06,0,3.42-1.38,3.42-3.47s-1.24-3.32-3.34-3.32c-.95,0-1.91.4-2.57,1.08-.25.24-.34.39-.51.79l-1.68-.15c.15-.85.21-1.21.26-1.96l.42-4.38c.07-.62.07-.75.07-1.28,0-.06,0-.07-.04-.66.57.08.94.1,2.02.1h4.07c1.12,0,1.57-.04,2.34-.15v1.83c-.75-.11-1.38-.15-2.32-.15h-4.43l-.38,3.9Z"/><path class="cls-3" d="M387.56,247.13c-.68-.66-1.06-1.77-1.06-3.15s.36-2.51,1.06-3.22c.57-.57,1.39-.89,2.32-.89,2.13,0,3.37,1.49,3.37,4.06,0,1.43-.36,2.53-1.06,3.21-.59.59-1.39.89-2.32.89s-1.76-.3-2.32-.89ZM399.51,239.72l.85.66-11.56,14.67-.83-.66,11.54-14.67ZM387.97,243.91c0,1.85.68,2.87,1.91,2.87s1.9-1.02,1.9-2.87-.7-2.77-1.9-2.77-1.91,1.02-1.91,2.77ZM396.12,254.04c-.7-.66-1.06-1.77-1.06-3.21,0-2.54,1.24-4.05,3.37-4.05s3.38,1.49,3.38,4.05c0,1.44-.36,2.53-1.06,3.21-.59.59-1.4.89-2.32.89s-1.73-.3-2.32-.89ZM396.54,250.81c0,1.85.68,2.87,1.9,2.87s1.91-1.02,1.91-2.87c0-1.75-.7-2.77-1.91-2.77s-1.9,1.02-1.9,2.77Z"/></g></svg>