<?xml version="1.0" encoding="UTF-8"?><svg id="_レイヤー_2" xmlns="http://www.w3.org/2000/svg" width="186.4" height="163" viewBox="0 0 186.4 163"><g id="_レイヤー_1-2"><path d="M34.6,28.3c-1.3-1.4-2.6-2.3-3.8-2.8-1.2-.5-2.4-.7-3.7-.7-1.8,0-3.5.3-5,1-1.5.7-2.8,1.6-3.8,2.7-1.1,1.2-1.9,2.5-2.5,4-.6,1.5-.9,3.2-.9,5s.3,3.7.9,5.3c.6,1.6,1.4,3,2.5,4.2,1.1,1.2,2.3,2.1,3.8,2.8,1.5.7,3.1,1,5,1s2.8-.3,4.2-1c1.4-.7,2.6-1.8,3.8-3.3l5.2,3.7c-1.6,2.2-3.6,3.8-5.9,4.8-2.3,1-4.8,1.5-7.4,1.5s-5.2-.4-7.5-1.3c-2.3-.9-4.3-2.1-5.9-3.8-1.7-1.6-2.9-3.6-3.9-5.8-.9-2.3-1.4-4.8-1.4-7.6s.5-5.4,1.4-7.7c.9-2.3,2.2-4.3,3.9-5.9,1.7-1.6,3.6-2.9,5.9-3.8,2.3-.9,4.8-1.3,7.5-1.3s4.6.4,6.7,1.3c2.1.9,4,2.3,5.7,4.3l-4.9,3.6Z" style="fill:#231815; stroke-width:0px;"/><path d="M42.2,23.3c0-1,.4-1.8,1.1-2.5.7-.7,1.6-1.1,2.7-1.1s2,.3,2.8,1c.8.7,1.1,1.5,1.1,2.6s-.4,1.9-1.1,2.6c-.8.7-1.7,1-2.8,1s-2-.4-2.7-1.1c-.7-.7-1.1-1.6-1.1-2.5ZM43.1,31.4h6v24h-6v-24Z" style="fill:#231815; stroke-width:0px;"/><path d="M52.2,36.6v-5.1h5v-7h6v7h6.6v5.1h-6.6v10.5c0,1.2.2,2.2.7,2.9.5.7,1.3,1.1,2.7,1.1s1.1,0,1.8-.2c.6-.1,1.1-.3,1.5-.6v5.1c-.6.3-1.4.5-2.3.6-.9.1-1.7.2-2.4.2-1.6,0-2.9-.2-3.9-.5-1-.3-1.8-.9-2.4-1.6-.6-.7-1-1.6-1.2-2.7-.2-1.1-.3-2.3-.3-3.7v-11h-5Z" style="fill:#231815; stroke-width:0px;"/><path d="M71.2,31.4h6.6l6.7,16.7h0l6-16.7h6.3l-11.4,29.2c-.4,1.1-.9,2.1-1.4,3-.5.9-1.1,1.6-1.8,2.2-.7.6-1.5,1-2.5,1.3-1,.3-2.1.4-3.4.4s-3.1-.2-4.6-.6l.8-5.4c.5.2,1,.3,1.5.4.5.1,1,.2,1.6.2s1.4,0,1.9-.2c.5-.1.9-.3,1.3-.6.4-.3.6-.7.9-1.1.2-.5.5-1,.8-1.6l1.2-2.9-10.3-24.2Z" style="fill:#231815; stroke-width:0px;"/><path d="M67.7,95.2c-4.4,2.3-9.3,3.5-14.7,3.5s-5.2-.4-7.5-1.3c-2.3-.9-4.3-2.1-5.9-3.8-1.7-1.6-2.9-3.6-3.9-5.8-.9-2.3-1.4-4.8-1.4-7.6s.5-5.4,1.4-7.7c.9-2.3,2.2-4.3,3.9-5.9,1.7-1.6,3.6-2.9,5.9-3.8,2.3-.9,4.8-1.3,7.5-1.3s5.2.3,7.6,1c2.4.7,4.5,1.8,6.4,3.5l-4.7,4.7c-1.1-1.1-2.5-2-4.1-2.6-1.6-.6-3.3-.9-5.1-.9s-3.5.3-5,1c-1.5.7-2.8,1.6-3.8,2.7-1.1,1.2-1.9,2.5-2.5,4-.6,1.5-.9,3.2-.9,5s.3,3.7.9,5.3c.6,1.6,1.4,3,2.5,4.2,1.1,1.2,2.3,2.1,3.8,2.8,1.5.7,3.1,1,5,1s3.1-.2,4.5-.5c1.4-.3,2.7-.8,3.8-1.4v-8.4h-7.3v-5.7h13.6v18.1Z" style="fill:#231815; stroke-width:0px;"/><path d="M94.1,97.8h-5.7v-3.9h0c-.6,1.2-1.4,2.2-2.6,3.1-1.2.9-2.8,1.3-4.8,1.3s-3-.3-4.1-.8c-1.1-.5-2-1.2-2.7-2.1-.7-.9-1.2-1.9-1.5-3-.3-1.1-.5-2.3-.5-3.6v-15.2h6v12.2c0,.7,0,1.4.1,2.2,0,.8.2,1.6.5,2.3.3.7.7,1.3,1.3,1.8.6.5,1.4.7,2.5.7s1.8-.2,2.5-.5c.7-.3,1.3-.8,1.7-1.4.5-.6.8-1.2,1-2,.2-.7.3-1.5.3-2.3v-13.1h6v24Z" style="fill:#231815; stroke-width:0px;"/><path d="M98.7,65.6c0-1,.4-1.8,1.1-2.5.7-.7,1.6-1.1,2.7-1.1s2,.3,2.8,1c.8.7,1.1,1.5,1.1,2.6s-.4,1.9-1.1,2.6c-.8.7-1.7,1-2.8,1s-2-.4-2.7-1.1c-.7-.7-1.1-1.6-1.1-2.5ZM99.5,73.8h6v24h-6v-24Z" style="fill:#231815; stroke-width:0px;"/><path d="M111,60h6v37.8h-6v-37.8Z" style="fill:#231815; stroke-width:0px;"/><path d="M126.2,85.8c0,.9.2,1.8.5,2.7.3.9.8,1.6,1.4,2.3.6.7,1.4,1.2,2.2,1.6.9.4,1.9.6,3,.6s2.1-.2,3-.6c.9-.4,1.6-.9,2.2-1.6.6-.7,1.1-1.4,1.4-2.3.3-.9.5-1.8.5-2.7s-.2-1.8-.5-2.7c-.3-.9-.8-1.6-1.4-2.3-.6-.7-1.4-1.2-2.2-1.6-.9-.4-1.9-.6-3-.6s-2.1.2-3,.6c-.9.4-1.6.9-2.2,1.6-.6.7-1.1,1.4-1.4,2.3-.3.9-.5,1.8-.5,2.7ZM140.4,94.2h0c-.9,1.5-2,2.5-3.5,3.2-1.5.7-3.1,1-4.8,1s-3.5-.3-5-1c-1.5-.7-2.7-1.5-3.7-2.7-1-1.1-1.8-2.5-2.4-4-.5-1.5-.8-3.2-.8-5s.3-3.4.9-5c.6-1.5,1.4-2.9,2.4-4,1-1.1,2.2-2,3.7-2.7,1.4-.7,3-1,4.7-1s2.1.1,3,.4c.9.2,1.6.5,2.3.9.7.4,1.2.8,1.7,1.2.5.4.9.8,1.2,1.2h.2v-16.9h6v37.8h-5.7v-3.6Z" style="fill:#231815; stroke-width:0px;"/><path d="M163.3,80.4c-1.2-1.6-2.7-2.5-4.7-2.5s-1.6.2-2.4.6c-.8.4-1.2,1.1-1.2,2s.3,1.3,1,1.6c.6.3,1.4.6,2.4.9,1,.2,2,.5,3.1.7,1.1.3,2.2.6,3.1,1.2,1,.5,1.8,1.2,2.4,2.1.6.9,1,2.1,1,3.7s-.3,2.6-.9,3.6c-.6,1-1.4,1.8-2.4,2.4-1,.6-2.1,1-3.3,1.3-1.2.3-2.5.4-3.7.4-1.9,0-3.6-.3-5.2-.8-1.6-.5-3-1.5-4.2-2.9l4-3.8c.8.9,1.6,1.6,2.5,2.1.9.6,2,.8,3.2.8s.9,0,1.4-.2c.5-.1.9-.3,1.3-.5.4-.2.7-.5,1-.9.2-.4.4-.8.4-1.2,0-.8-.3-1.5-1-1.9-.6-.4-1.4-.7-2.4-1-1-.3-2-.5-3.1-.7-1.1-.2-2.2-.6-3.1-1.1-1-.5-1.8-1.2-2.4-2-.6-.9-1-2.1-1-3.6s.3-2.5.8-3.5c.6-1,1.3-1.8,2.2-2.4.9-.6,1.9-1.1,3.1-1.4,1.2-.3,2.4-.5,3.6-.5s3.2.3,4.8.8c1.6.5,2.8,1.5,3.8,2.8l-4,3.6Z" style="fill:#231815; stroke-width:0px;"/><polygon points="113.5 17.1 113.7 16.5 113.5 15.9 112.8 15.6 112.2 15.9 112 16.5 112.2 17.1 112.8 17.4 113.5 17.1" style="fill:#ce2b1e; stroke-width:0px;"/><polygon points="117.1 25.5 117.5 25.4 117.6 25.1 117.5 24.8 117.1 24.6 116.8 24.8 116.7 25.1 116.8 25.4 117.1 25.5" style="fill:#ce2b1e; stroke-width:0px;"/><rect x="110.1" y="18" width="1.2" height="1.3" transform="translate(19.2 83.7) rotate(-45)" style="fill:#ce2b1e; stroke-width:0px;"/><path d="M117.1,26.6c-.3,0-.6.3-.6.6s.3.6.6.6.6-.3.6-.6-.3-.6-.6-.6Z" style="fill:#ce2b1e; stroke-width:0px;"/><rect x="118.7" y="18" width="1.2" height="1.3" transform="translate(21.8 89.8) rotate(-45)" style="fill:#ce2b1e; stroke-width:0px;"/><polygon points="110.4 24.5 110.1 24.9 110.1 25.3 110.4 25.7 110.9 25.7 111.3 25.3 111.3 24.9 110.9 24.5 110.4 24.5" style="fill:#ce2b1e; stroke-width:0px;"/><polygon points="119 24.5 118.7 24.9 118.7 25.3 119 25.7 119.5 25.7 119.9 25.3 119.9 24.9 119.5 24.5 119 24.5" style="fill:#ce2b1e; stroke-width:0px;"/><polygon points="117.1 17.4 117.8 17.1 118 16.5 117.8 15.9 117.1 15.6 116.5 15.9 116.3 16.5 116.5 17.1 117.1 17.4" style="fill:#ce2b1e; stroke-width:0px;"/><rect x="114.4" y="15.9" width="1.2" height="1.3" transform="translate(22 86.2) rotate(-45)" style="fill:#ce2b1e; stroke-width:0px;"/><path d="M111.3,20.8c0-.3-.3-.6-.6-.6s-.6.3-.6.6.3.6.6.6.6-.3.6-.6Z" style="fill:#ce2b1e; stroke-width:0px;"/><circle cx="123.6" cy="38" r=".9" style="fill:#ce2b1e; stroke-width:0px;"/><polygon points="112.6 25.5 113.1 25.5 113.3 25 112.8 24.6 112.4 25 112.6 25.5" style="fill:#ce2b1e; stroke-width:0px;"/><path d="M118.4,33.7c0,.5.4.9.9.9s.9-.4.9-.9-.4-.9-.9-.9-.9.4-.9.9Z" style="fill:#ce2b1e; stroke-width:0px;"/><rect x="118.9" y="39.7" width=".8" height=".8" transform="translate(6.5 96.1) rotate(-45)" style="fill:#ce2b1e; stroke-width:0px;"/><path d="M119.9,31.5c0-.3-.3-.6-.6-.6s-.6.3-.6.6.3.6.6.6.6-.3.6-.6Z" style="fill:#ce2b1e; stroke-width:0px;"/><polygon points="116.5 30.9 116.3 31.5 116.5 32.1 117.1 32.4 117.8 32.1 118 31.5 117.8 30.9 117.1 30.6 116.5 30.9" style="fill:#ce2b1e; stroke-width:0px;"/><polygon points="119 46.3 118.8 46.6 119 46.9 119.3 47 119.6 46.9 119.7 46.6 119.6 46.3 119.3 46.1 119 46.3" style="fill:#ce2b1e; stroke-width:0px;"/><polygon points="115.6 35.6 115.2 35.2 114.7 35.2 114.4 35.6 114.4 36.1 114.7 36.4 115.2 36.4 115.6 36.1 115.6 35.6" style="fill:#ce2b1e; stroke-width:0px;"/><polygon points="116.9 42 116.8 42.2 116.9 42.5 117.1 42.6 117.4 42.5 117.5 42.2 117.4 42 117.1 41.9 116.9 42" style="fill:#ce2b1e; stroke-width:0px;"/><path d="M114.5,38c0,.2.2.4.4.4s.4-.2.4-.4-.2-.4-.4-.4-.4.2-.4.4Z" style="fill:#ce2b1e; stroke-width:0px;"/><rect x="120.8" y="45.9" width="1.2" height="1.3" transform="translate(2.6 99.5) rotate(-45)" style="fill:#ce2b1e; stroke-width:0px;"/><path d="M124.4,47.9l-.5-.2c.4-.1.7-.4.8-.8l.2.5.8.3.8-.3.3-.8-.3-.8-.8-.3-.8.3-.2.5c-.1-.5-.6-.8-1.1-.8s-1.2.5-1.2,1.2.3,1,.8,1.1l-.5.2-.2.5c-.1-.5-.6-.8-1.1-.8s-1.2.5-1.2,1.2.4,1.1,1,1.2l-.8.6c-.2-.5-.6-.8-1.1-.8s-1,.3-1.1.8l-.2-.5-.8-.3-.8.3-.3.8.3.8.6.2-.6.2-.2.5-1.1-.8-1.1.8-.2-.5-.8-.3-.8.3-.2.5-1.1-.8-1.1.8-.2-.5-.6-.2.6-.2.3-.8-.3-.8-.8-.3-.8.3-.2.5c-.2-.5-.6-.8-1.1-.8s-1,.4-1.1.8l-.2-.5-.4-.2h.3l.4-1.4-1-.8.7-.3.3-.8-.3-.8-.8-.3-.8.3-.2.5c0-.3-.3-.5-.5-.6h0l.4-1.4-.9-.7c.4,0,.8-.4.9-.8l.2.5.8.3.8-.3.3-.8-.3-.8h-.4c0-.1,0-.1,0-.1l.7-.7v-1l-.6-.6c.3-.1.5-.4.6-.7l.2.5.8.3.8-.3.3-.8-.3-.8-.4-.2h0l.6-.6c.2.4.6.6,1,.6.6,0,1.2-.5,1.2-1.2s-.3-1-.8-1.1l.5-.2.2-.4h0s.7.7.7.7h1l.6-.6c.2.4.6.6,1,.6s.8-.3,1-.6l.6.6h1l.7-.7h0s.1.3.1.3l.6.2h-.2l-.6.6v.9l.6.6h.9l.6-.6v-.4l.4,1.1h.3l-.4.2-.3.8.3.8.8.3.8-.3.2-.5c.1.4.5.7.9.8l-.9.7.4,1.4h1.4l.4-1.4-.9-.7c.5-.1.9-.6.9-1.2s-.5-1.2-1.2-1.2-1,.4-1.1.8l-.2-.5-.4-.2h.3l.4-1.4-1.2-.9-1.1.8h0c0-.1-.6-.7-.6-.7h-.2l.6-.2.3-.8-.3-.8-.8-.3-.8.3v.4c-.1,0-.1,0-.1,0l-.6-.6c.4-.2.6-.6.6-1s-.2-.8-.5-1h0l.3-.9c.1.5.6.9,1.2.9s1-.4,1.1-.9l.3.9h1.4l.4-1.4-.9-.7h.2l.6-.6c.2.4.6.6,1,.6.6,0,1.2-.5,1.2-1.2s-.2-.8-.5-1h0l.3-.9c.1.5.6.9,1.2.9s1.2-.5,1.2-1.2-.3-1-.8-1.1l.4-.2.3-.8-.3-.8-.4-.2h.3l.4-1.4-1-.8.7-.3.3-.8-.3-.8-.8-.3-.8.3-.2.5c0-.3-.3-.5-.5-.6h0l.4-1.4-1.2-.9-1.1.8-.2-.5-.5-.2c.5-.1.8-.6.8-1.1s-.5-1.2-1.2-1.2-1,.3-1.1.8l-1-.8-1,.7h0c0,0-.7-.8-.7-.8h-1l-.7.7h0c0,0-1-.7-1-.7l-1,.7h0c0,0-.7-.8-.7-.8h-1l-.7.7v1l.7.7h0l-.4.2-.2.4h0s-.7-.7-.7-.7h-1l-.7.7v1l.6.6c-.3.1-.5.4-.6.7l-1-.8-1.2.9.4,1.4h0c-.3.2-.5.6-.5,1s.3,1,.8,1.1l-.5.2-.3.8.3.8.5.2c-.5.1-.8.6-.8,1.1s.5,1.2,1.2,1.2,1-.3,1.1-.8l.2.5.5.2c-.5.2-.8.6-.8,1.1s.5,1.2,1.2,1.2.8-.3,1-.6l.6.6h0-.4c0,.1-.3,1-.3,1l.3.8.8.3.8-.3.2-.5c.1.4.4.6.8.8l-.5.2-.3.8.3.8.5.2c-.3,0-.6.3-.7.6l-.6-.6h-1l-.7.7h0s-.2-.3-.2-.3l-.8-.3-.8.3-.3.8.3.8.5.2c-.3,0-.5.3-.7.6l-.6-.6h-1l-.7.7v1l.7.7h0l-.4.2-.2.5c-.1-.5-.6-.8-1.1-.8s-1.2.5-1.2,1.2.2.8.6,1l-.6.6v-.3c-.1,0-1-.3-1-.3l-.8.3-.3.8.3.8.5.2c-.5.1-.8.6-.8,1.1s.4,1.1,1,1.2l-.9.7.4,1.4h0c-.3.2-.5.6-.5,1s.3.8.6,1l-.6.6v1l.7.7h1l.7-.7h0c0-.1.2.7.2.7h.3l-.4.2-.3.8.3.8.8.3.8-.3.2-.5c.1.4.5.7.9.8l-1,.7.4,1.4h1.4l.3-1,.3.7.8.3.8-.3.3-.7.3,1h1.4l.3-1,.3.7.8.3.8-.3.3-.7.3,1h1.4l.3-1,.3.7.8.3.8-.3.3-.7.3,1h1.4l.4-1.4-1-.7c.5,0,.9-.5.9-.9l.3.9h1.4l.4-1.4-.9-.7c.4,0,.8-.4.9-.8l.2.5.8.3.8-.3.3-.8-.3-.8ZM122.6,19l.2.5.7.3-.9.7-.2-.5-.5-.2c.4-.1.7-.4.8-.8ZM122.3,21.6l.3-.7.3,1h.3l-.4.2-.2.5c-.1-.4-.4-.7-.8-.8l.5-.2ZM122.6,23.3l.2.5.4.2c-.3.1-.6.4-.7.7l-.8-.6c.4,0,.8-.4.9-.8ZM107.1,19.8l.3-.9c0,.4.4.7.8.9l-.5.2-.2.5c0-.3-.3-.5-.5-.6h0ZM107.7,24.3l-.2.5c-.1-.4-.4-.7-.8-.8l.5-.2.3-.7.3,1h.4s-.5.2-.5.2ZM107.4,22.6l-.2-.5-.5-.2c.4-.1.6-.4.7-.8l.2.5.6.3-.9.7ZM113.9,33.1c-.1-.3-.4-.5-.7-.6l.5-.2.2-.5c0,.3.3.6.6.7l-.6.6ZM113.2,30.5c.4-.1.7-.5.8-.9l.3.9h0c-.2.1-.4.4-.5.6l-.2-.5-.5-.2ZM111.7,29l-.2-.5h-.4c0-.1,0-.1,0-.1l.7-.7v-1l-.7-.7h-1l-.6.6c-.1-.3-.4-.5-.7-.6l.5-.2.3-.8-.3-.8-.5-.2h.3s.4-1.4.4-1.4l-1-.7.6-.3.3-.8-.3-.8-.5-.2c.5-.2.8-.6.8-1.1s-.3-.8-.6-1l.6-.6h0s.2.3.2.3l.8.3.8-.3.3-.8-.3-.8-.4-.2h0l.7-.7v-.2l.3.8h1.4l.3-.9v.2l.7.7h1l.7-.7v-.2l.3.8h1.4l.3-.9c0,.4.4.8.8.9l-.5.2-.3.8.3.8.8.3.8-.3.3-.7.3,1h0c-.3.2-.6.6-.6,1s.3,1,.8,1.1l-.5.2-.3.8.3.8.5.2c-.5.1-.8.6-.8,1.1,0,.6.4,1,.9,1.2l-.9.7.4,1.4h0c-.2.1-.3.3-.4.4l-.6-.6h-1l-.7.7v1l.7.7h.2l-.8.6c-.2-.5-.6-.8-1.1-.8s-1,.3-1.1.8l-1-.8-1,.8c-.2-.5-.6-.8-1.1-.8s-1,.3-1.1.8ZM102.9,41v-.3c.1,0,.8.7.8.7h0-.4c0,.1-.2.6-.2.6-.1-.4-.4-.6-.8-.7l.5-.2ZM103.3,48.3h0c0,0-.6-.7-.6-.7.3-.1.5-.4.6-.7l.2.5.7.3-.8.6ZM107.7,52.2l-.2.5-.9-.7c.4,0,.8-.4.9-.8l.2.5.6.2-.6.2ZM118.2,52.7l-.2-.5-.6-.2.6-.2.2-.5c.1.4.5.7.9.8l-.9.7Z" style="fill:#ce2b1e; stroke-width:0px;"/><rect x="105.8" y="26.6" width="1.2" height="1.3" transform="translate(11.9 83.2) rotate(-45)" style="fill:#ce2b1e; stroke-width:0px;"/><polygon points="113.4 27.5 113.4 27 113.1 26.7 112.6 26.7 112.3 27 112.3 27.5 112.6 27.8 113.1 27.8 113.4 27.5" style="fill:#ce2b1e; stroke-width:0px;"/><polygon points="105.9 31.4 106.1 31.9 106.7 31.9 106.8 31.4 106.4 31 105.9 31.4" style="fill:#ce2b1e; stroke-width:0px;"/><rect x="110.1" y="30.9" width="1.2" height="1.3" transform="translate(10.1 87.5) rotate(-45)" style="fill:#ce2b1e; stroke-width:0px;"/><rect x="123" y="28.8" width="1.2" height="1.3" transform="translate(15.4 96) rotate(-45)" style="fill:#ce2b1e; stroke-width:0px;"/><polygon points="121.4 34.9 120.8 35.2 120.6 35.8 120.8 36.5 121.4 36.7 122.1 36.5 122.3 35.8 122.1 35.2 121.4 34.9" style="fill:#ce2b1e; stroke-width:0px;"/><path d="M106.4,34.6c.5,0,.9-.4.9-.9s-.4-.9-.9-.9-.9.4-.9.9.4.9.9.9Z" style="fill:#ce2b1e; stroke-width:0px;"/><circle cx="108.5" cy="29.4" r=".9" style="fill:#ce2b1e; stroke-width:0px;"/><circle cx="119.3" cy="48.7" r=".9" style="fill:#ce2b1e; stroke-width:0px;"/><rect x="114.4" y="11.6" width="1.2" height="1.3" transform="translate(25.1 84.9) rotate(-45)" style="fill:#ce2b1e; stroke-width:0px;"/><polygon points="121.8 15.2 122.3 14.7 122.3 14 121.8 13.5 121.1 13.5 120.6 14 120.6 14.7 121.1 15.2 121.8 15.2" style="fill:#ce2b1e; stroke-width:0px;"/><path d="M104.2,24.5c-.3,0-.6.3-.6.6s.3.6.6.6.6-.3.6-.6-.3-.6-.6-.6Z" style="fill:#ce2b1e; stroke-width:0px;"/><rect x="116.8" y="5.3" width=".6" height=".6" transform="translate(30.3 84.5) rotate(-45)" style="fill:#ce2b1e; stroke-width:0px;"/><polygon points="108.8 10.6 109.1 10.3 109.1 9.8 108.8 9.5 108.3 9.5 107.9 9.8 107.9 10.3 108.3 10.6 108.8 10.6" style="fill:#ce2b1e; stroke-width:0px;"/><polygon points="113.2 13.1 113.7 12.6 113.7 11.8 113.2 11.3 112.5 11.3 112 11.8 112 12.6 112.5 13.1 113.2 13.1" style="fill:#ce2b1e; stroke-width:0px;"/><polygon points="108.5 15.2 109.1 15 109.4 14.3 109.1 13.7 108.5 13.5 107.9 13.7 107.6 14.3 107.9 15 108.5 15.2" style="fill:#ce2b1e; stroke-width:0px;"/><rect x="103.6" y="20.2" width="1.2" height="1.3" transform="translate(15.8 79.8) rotate(-45)" style="fill:#ce2b1e; stroke-width:0px;"/><polygon points="104.5 14.8 104.7 14.2 104.2 13.9 103.8 14.2 103.9 14.8 104.5 14.8" style="fill:#ce2b1e; stroke-width:0px;"/><path d="M106.4,17.4c.5,0,.9-.4.9-.9s-.4-.9-.9-.9-.9.4-.9.9.4.9.9.9Z" style="fill:#ce2b1e; stroke-width:0px;"/><polygon points="117.7 13.1 118 12 117.1 11.3 116.3 12 116.6 13.1 117.7 13.1" style="fill:#ce2b1e; stroke-width:0px;"/><polygon points="125.7 21.6 126.3 21.4 126.6 20.8 126.3 20.2 125.7 19.9 125.2 20.2 124.9 20.8 125.2 21.4 125.7 21.6" style="fill:#ce2b1e; stroke-width:0px;"/><path d="M125.7,19.2c.3,0,.6-.3.6-.6s-.3-.6-.6-.6-.6.3-.6.6.3.6.6.6Z" style="fill:#ce2b1e; stroke-width:0px;"/><path d="M125.7,29.1c-.2,0-.3.2-.3.3s.2.3.3.3.3-.2.3-.3-.2-.3-.3-.3Z" style="fill:#ce2b1e; stroke-width:0px;"/><polygon points="128.2 25.5 128.3 25 127.9 24.7 127.5 25 127.6 25.5 128.2 25.5" style="fill:#ce2b1e; stroke-width:0px;"/><rect x="125.5" y="37.7" width=".6" height=".6" style="fill:#ce2b1e; stroke-width:0px;"/><path d="M125.7,24.5c-.3,0-.6.3-.6.6s.3.6.6.6.6-.3.6-.6-.3-.6-.6-.6Z" style="fill:#ce2b1e; stroke-width:0px;"/><polygon points="126.3 45.4 126.7 44.2 125.7 43.5 124.8 44.2 125.2 45.4 126.3 45.4" style="fill:#ce2b1e; stroke-width:0px;"/><rect x="123.3" y="14" width=".6" height=".6" transform="translate(26 91.5) rotate(-45)" style="fill:#ce2b1e; stroke-width:0px;"/><rect x="125.5" y="39.8" width=".6" height=".6" transform="translate(8.5 100.7) rotate(-45)" style="fill:#ce2b1e; stroke-width:0px;"/><rect x="99.5" y="50.4" width=".9" height=".9" style="fill:#ce2b1e; stroke-width:0px;"/><polygon points="109.8 55 110.1 56.1 111.2 56.1 111.6 55 110.7 54.3 109.8 55" style="fill:#ce2b1e; stroke-width:0px;"/><rect x="112.4" y="56.9" width=".9" height=".9" transform="translate(-7.5 96.6) rotate(-45)" style="fill:#ce2b1e; stroke-width:0px;"/><circle cx="112.8" cy="55.2" r=".9" style="fill:#ce2b1e; stroke-width:0px;"/><rect x="106.1" y="57.1" width=".5" height=".5" style="fill:#ce2b1e; stroke-width:0px;"/><path d="M106.4,54.7c-.2,0-.4.2-.4.4s.2.4.4.4.4-.2.4-.4-.2-.4-.4-.4Z" style="fill:#ce2b1e; stroke-width:0px;"/><path d="M119.3,54.7c-.2,0-.4.2-.4.4s.2.4.4.4.4-.2.4-.4-.2-.4-.4-.4Z" style="fill:#ce2b1e; stroke-width:0px;"/><rect x="114.7" y="57" width=".6" height=".6" style="fill:#ce2b1e; stroke-width:0px;"/><rect x="121" y="54.7" width=".9" height=".9" style="fill:#ce2b1e; stroke-width:0px;"/><polygon points="123.1 63.7 123.3 64.2 123.9 64.2 124 63.7 123.6 63.3 123.1 63.7" style="fill:#ce2b1e; stroke-width:0px;"/><polygon points="103.6 52.9 103.9 53.6 104.6 53.6 104.8 52.9 104.2 52.5 103.6 52.9" style="fill:#ce2b1e; stroke-width:0px;"/><path d="M99.9,43.5c-.5,0-.9.4-.9.9s.4.9.9.9.9-.4.9-.9-.4-.9-.9-.9Z" style="fill:#ce2b1e; stroke-width:0px;"/><polygon points="99.9 16.9 100.3 16.8 100.4 16.5 100.3 16.1 99.9 16 99.6 16.1 99.4 16.5 99.6 16.8 99.9 16.9" style="fill:#ce2b1e; stroke-width:0px;"/><rect x="101.7" y="20.3" width=".9" height=".9" style="fill:#ce2b1e; stroke-width:0px;"/><rect x="101.6" y="26.6" width=".9" height="1" transform="translate(10.8 80.2) rotate(-45)" style="fill:#ce2b1e; stroke-width:0px;"/><polygon points="101.6 55.1 101.8 55.6 102.4 55.6 102.5 55.1 102.1 54.7 101.6 55.1" style="fill:#ce2b1e; stroke-width:0px;"/><rect x="101.4" y="17.9" width="1.4" height="1.4" transform="translate(16.7 77.7) rotate(-45)" style="fill:#ce2b1e; stroke-width:0px;"/><polygon points="101.7 23.5 102.1 23.7 102.5 23.5 102.7 23 102.5 22.6 102.1 22.4 101.7 22.6 101.5 23 101.7 23.5" style="fill:#ce2b1e; stroke-width:0px;"/><rect x="99.5" y="35.4" width=".9" height=".9" style="fill:#ce2b1e; stroke-width:0px;"/><rect x="123.3" y="52.7" width=".6" height=".6" transform="translate(-1.3 102.9) rotate(-45)" style="fill:#ce2b1e; stroke-width:0px;"/><rect x="103.9" y="33.4" width=".6" height=".6" transform="translate(6.7 83.6) rotate(-45)" style="fill:#ce2b1e; stroke-width:0px;"/><path d="M99.9,40.7c.3,0,.6-.3.6-.6s-.3-.6-.6-.6-.6.3-.6.6.3.6.6.6Z" style="fill:#ce2b1e; stroke-width:0px;"/><path d="M119.3,12.8c.3,0,.6-.3.6-.6s-.3-.6-.6-.6-.6.3-.6.6.3.6.6.6Z" style="fill:#ce2b1e; stroke-width:0px;"/><polygon points="127.3 62.6 128.6 62.6 129 61.3 127.9 60.6 126.9 61.3 127.3 62.6" style="fill:#ce2b1e; stroke-width:0px;"/><polygon points="129.7 45.7 129.3 46.2 129.3 46.9 129.7 47.3 130.4 47.3 130.9 46.9 130.9 46.2 130.4 45.7 129.7 45.7" style="fill:#ce2b1e; stroke-width:0px;"/><polygon points="129.7 60.8 129.2 61.3 129.2 62 129.7 62.5 130.4 62.5 130.9 62 130.9 61.3 130.4 60.8 129.7 60.8" style="fill:#ce2b1e; stroke-width:0px;"/><rect x="131.3" y="54.2" width="1.9" height="1.9" style="fill:#ce2b1e; stroke-width:0px;"/><polygon points="127 59.8 127.5 60.4 128.3 60.4 128.9 59.8 128.9 59.5 129.2 60.7 130.8 60.7 131.3 59.3 131.3 60.4 133.2 60.4 133.2 58.5 131.3 58.5 131.3 59.1 130 58.2 128.9 59.1 128.9 59.1 128.3 58.5 127.5 58.5 127 59.1 127 59.8" style="fill:#ce2b1e; stroke-width:0px;"/><path d="M133.3,53.1c0-.5-.4-1-1-1s-1,.4-1,1,.4,1,1,1,1-.4,1-1Z" style="fill:#ce2b1e; stroke-width:0px;"/><rect x="129.2" y="56.4" width="1.8" height="1.8" style="fill:#ce2b1e; stroke-width:0px;"/><path d="M130,54.2c-.5,0-.9.4-.9.9s.4.9.9.9.9-.4.9-.9-.4-.9-.9-.9Z" style="fill:#ce2b1e; stroke-width:0px;"/><rect x="129" y="52.1" width="2" height="2" style="fill:#ce2b1e; stroke-width:0px;"/><polygon points="131.8 64.4 132.6 64.4 132.9 63.6 132.2 63.1 131.6 63.6 131.8 64.4" style="fill:#ce2b1e; stroke-width:0px;"/><path d="M134.9,31.5c0-.3-.2-.5-.5-.5s-.5.2-.5.5.2.5.5.5.5-.2.5-.5Z" style="fill:#ce2b1e; stroke-width:0px;"/><polygon points="135.9 38.6 136.5 38.9 137.2 38.6 137.4 38 137.2 37.4 136.5 37.1 135.9 37.4 135.6 38 135.9 38.6" style="fill:#ce2b1e; stroke-width:0px;"/><rect x="135.9" y="33.1" width="1.1" height="1.1" transform="translate(16.2 106.4) rotate(-45)" style="fill:#ce2b1e; stroke-width:0px;"/><rect x="129.4" y="13.6" width="1.4" height="1.4" transform="translate(28.3 96.6) rotate(-45.3)" style="fill:#ce2b1e; stroke-width:0px;"/><polygon points="129.5 40.3 129.8 40.6 130.2 40.6 130.5 40.3 130.5 39.9 130.2 39.6 129.8 39.6 129.5 39.9 129.5 40.3" style="fill:#ce2b1e; stroke-width:0px;"/><rect x="129.7" y="20.5" width=".6" height=".6" style="fill:#ce2b1e; stroke-width:0px;"/><polygon points="129.8 36.2 130.3 36.2 130.4 35.7 130 35.4 129.6 35.7 129.8 36.2" style="fill:#ce2b1e; stroke-width:0px;"/><polygon points="129.7 29.5 129.9 29.7 130.2 29.7 130.4 29.5 130.4 29.3 130.2 29.1 129.9 29.1 129.7 29.3 129.7 29.5" style="fill:#ce2b1e; stroke-width:0px;"/><path d="M127.4,55.2c0,.2.2.4.4.4s.4-.2.4-.4-.2-.4-.4-.4-.4.2-.4.4Z" style="fill:#ce2b1e; stroke-width:0px;"/><rect x="106.1" y="42" width=".6" height=".6" transform="translate(1.2 87.5) rotate(-45)" style="fill:#ce2b1e; stroke-width:0px;"/><rect x="106" y="46.2" width=".8" height=".8" transform="translate(-1.8 88.9) rotate(-45)" style="fill:#ce2b1e; stroke-width:0px;"/><polygon points="108.3 46.4 108.1 46.7 108.3 46.9 108.5 47.1 108.8 46.9 108.9 46.7 108.8 46.4 108.5 46.3 108.3 46.4" style="fill:#ce2b1e; stroke-width:0px;"/><polygon points="109.8 51.2 110.3 51.8 111 51.8 111.6 51.2 111.6 50.5 111 50 110.3 50 109.8 50.5 109.8 51.2" style="fill:#ce2b1e; stroke-width:0px;"/><polygon points="111.3 35.2 110.7 34.9 110.1 35.2 109.8 35.8 110.1 36.5 110.7 36.7 111.3 36.5 111.6 35.8 111.3 35.2" style="fill:#ce2b1e; stroke-width:0px;"/><path d="M105.5,48.7c0,.5.4.9.9.9s.9-.4.9-.9-.4-.9-.9-.9-.9.4-.9.9Z" style="fill:#ce2b1e; stroke-width:0px;"/><polygon points="114.1 51.2 114.6 51.8 115.4 51.8 115.9 51.2 115.9 50.5 115.4 50 114.6 50 114.1 50.5 114.1 51.2" style="fill:#ce2b1e; stroke-width:0px;"/><path d="M110.1,48.7c0,.3.3.6.6.6s.6-.3.6-.6-.3-.6-.6-.6-.6.3-.6.6Z" style="fill:#ce2b1e; stroke-width:0px;"/><polygon points="125.4 60.8 124.9 61.3 124.9 62 125.4 62.5 126.1 62.5 126.6 62 126.6 61.3 126.1 60.8 125.4 60.8" style="fill:#ce2b1e; stroke-width:0px;"/><path d="M104.2,43.5c-.5,0-.9.4-.9.9s.4.9.9.9.9-.4.9-.9-.4-.9-.9-.9Z" style="fill:#ce2b1e; stroke-width:0px;"/><rect x="125" y="63" width="1.5" height="1.5" transform="translate(-8.1 108.2) rotate(-45.3)" style="fill:#ce2b1e; stroke-width:0px;"/><polygon points="128.8 50.8 128.5 50.2 127.9 50 127.3 50.2 127 50.8 127.3 51.5 127.9 51.7 128.5 51.5 128.8 50.8" style="fill:#ce2b1e; stroke-width:0px;"/><path d="M125.8,67.5c-.3,0-.6.3-.6.6s.3.6.6.6.6-.3.6-.6-.3-.6-.6-.6Z" style="fill:#ce2b1e; stroke-width:0px;"/><circle cx="112.8" cy="50.9" r=".9" style="fill:#ce2b1e; stroke-width:0px;"/><path d="M137.3,67.1l-.7-.2.9-.9-1-1-.8.8h0c0-.1-1.3-1-1.3-1l-1,.8h0s-.7-.7-.7-.7h-1l-.6.6v-.5h-.8c.5-.1.8-.5.8-1.1s-.5-1.1-1.1-1.1-1.1.5-1.1,1.1.4,1,.8,1.1h-.9v2.2h.5l-.6.6h0c0,0-1-.6-1-.6.6,0,1-.5,1-1.1s-.5-1.1-1.1-1.1h1.1v-2.1h-2.1v2.1h1c-.6,0-1.1.5-1.1,1.1s.5,1.1,1.1,1.1l-1.1.8.4,1.4h1.5l.3-.9v.2l.7.7h1l.6-.6v.5h2.2v-1l1,1,1-1v.2s.5.6.5.6l.7.2.7-.2.5-.6v-.8s-.5-.6-.5-.6ZM131.1,67.5l-.5-.5h.5v.5ZM131.2,67v-.5l.5.5h-.5ZM133.3,67.9v-1h-.5l.6-.6h0c0,0,.3.7.3.7h.5l-.8.8ZM135.8,67.1l-.5.6v.2s-.8-.8-.8-.8h.7l.4-1.1.9.8-.7.2Z" style="fill:#ce2b1e; stroke-width:0px;"/><polygon points="126.3 65.2 125.7 65 125.2 65.2 124.9 65.6 124.9 66.2 125.2 66.7 125.8 66.8 126.3 66.6 126.6 66.2 126.6 65.6 126.3 65.2" style="fill:#ce2b1e; stroke-width:0px;"/><polygon points="110.3 44.6 110.5 44.8 110.8 44.8 111 44.6 111 44.3 110.8 44.1 110.5 44.1 110.3 44.3 110.3 44.6" style="fill:#ce2b1e; stroke-width:0px;"/><rect x="110.4" y="37.7" width=".5" height=".5" style="fill:#ce2b1e; stroke-width:0px;"/><path d="M113.4,35.8c0-.3-.3-.6-.6-.6s-.6.3-.6.6.3.6.6.6.6-.3.6-.6Z" style="fill:#ce2b1e; stroke-width:0px;"/><polygon points="110.7 22.5 110.3 22.6 110.2 22.9 110.3 23.2 110.7 23.4 111 23.2 111.1 22.9 111 22.6 110.7 22.5" style="fill:#ec9b21; stroke-width:0px;"/><path d="M102.1,14.7c.2,0,.4-.2.4-.4s-.2-.4-.4-.4-.4.2-.4.4.2.4.4.4Z" style="fill:#ec9b21; stroke-width:0px;"/><path d="M108.5,40.6c.2,0,.4-.2.4-.4s-.2-.4-.4-.4-.4.2-.4.4.2.4.4.4Z" style="fill:#ec9b21; stroke-width:0px;"/><rect x="116.9" y="20.6" width=".5" height=".5" transform="translate(19.6 88.9) rotate(-45)" style="fill:#ec9b21; stroke-width:0px;"/><rect x="108.1" y="48.3" width=".8" height=".8" transform="translate(-2.7 91) rotate(-45)" style="fill:#ec9b21; stroke-width:0px;"/><rect x="121.1" y="31.2" width=".6" height=".6" transform="translate(13.3 95.1) rotate(-45)" style="fill:#ec9b21; stroke-width:0px;"/><rect x="116.7" y="54.8" width=".8" height=".8" transform="translate(-4.7 99) rotate(-45)" style="fill:#ec9b21; stroke-width:0px;"/><rect x="99.7" y="55" width=".5" height=".5" transform="translate(-9.8 86.9) rotate(-45)" style="fill:#ec9b21; stroke-width:0px;"/><path d="M112.8,18.1c-.3,0-.6.3-.6.6s.3.6.6.6.6-.3.6-.6-.3-.6-.6-.6Z" style="fill:#ec9b21; stroke-width:0px;"/><path d="M125.7,16.1c-.2,0-.3.2-.3.3s.2.3.3.3.3-.2.3-.3-.2-.3-.3-.3Z" style="fill:#ec9b21; stroke-width:0px;"/><path d="M127.9,27.5c.1,0,.3-.1.3-.3s-.1-.3-.3-.3-.3.1-.3.3.1.3.3.3Z" style="fill:#ec9b21; stroke-width:0px;"/><path d="M123.6,42c-.1,0-.3.1-.3.3s.1.3.3.3.3-.1.3-.3-.1-.3-.3-.3Z" style="fill:#ec9b21; stroke-width:0px;"/><path d="M115,25.4c.1,0,.3-.1.3-.3s-.1-.3-.3-.3-.3.1-.3.3.1.3.3.3Z" style="fill:#ec9b21; stroke-width:0px;"/><path d="M125.7,31.2c-.1,0-.3.1-.3.3s.1.3.3.3.3-.1.3-.3-.1-.3-.3-.3Z" style="fill:#ec9b21; stroke-width:0px;"/><polygon points="117.1 38.6 117.5 38.4 117.7 38 117.5 37.6 117.1 37.4 116.7 37.6 116.6 38 116.7 38.4 117.1 38.6" style="fill:#ec9b21; stroke-width:0px;"/><polygon points="97.8 37.4 97.4 37.6 97.2 38 97.4 38.4 97.8 38.6 98.2 38.4 98.3 38 98.2 37.6 97.8 37.4" style="fill:#ec9b21; stroke-width:0px;"/><polygon points="115 48.4 114.8 48.5 114.7 48.7 114.8 48.9 115 49 115.2 48.9 115.3 48.7 115.2 48.5 115 48.4" style="fill:#ec9b21; stroke-width:0px;"/><polygon points="119.3 9.6 119 9.7 118.9 10 119 10.3 119.3 10.4 119.6 10.3 119.7 10 119.6 9.7 119.3 9.6" style="fill:#ec9b21; stroke-width:0px;"/><polygon points="127.9 37.6 127.6 37.7 127.5 38 127.6 38.3 127.9 38.4 128.2 38.3 128.3 38 128.2 37.7 127.9 37.6" style="fill:#ec9b21; stroke-width:0px;"/><polygon points="132.4 35.5 132.1 35.4 131.8 35.5 131.7 35.8 131.8 36.1 132.1 36.2 132.4 36.1 132.5 35.8 132.4 35.5" style="fill:#ec9b21; stroke-width:0px;"/><polygon points="108.4 42.1 108.3 42.3 108.4 42.5 108.5 42.5 108.7 42.5 108.8 42.3 108.7 42.1 108.5 42.1 108.4 42.1" style="fill:#ec9b21; stroke-width:0px;"/><polygon points="110.7 46.3 110.5 46.4 110.4 46.6 110.5 46.8 110.7 46.8 110.9 46.8 111 46.6 110.9 46.4 110.7 46.3" style="fill:#ec9b21; stroke-width:0px;"/><rect x="101.8" y="33.3" width=".7" height=".7" transform="translate(6.1 82) rotate(-45)" style="fill:#ec9b21; stroke-width:0px;"/><path d="M106.4,30.1l-.5-.2-.2-.5.2-.5.5-.2.5.2.2.5-.2.5-.5.2ZM115.4,10.4l.2-.4-.2-.4-.4-.2-.4.2-.2.4.2.4.4.2.4-.2ZM123.9,8.1v-.3c.1,0,0-.3,0-.3h-.3c0-.1-.3,0-.3,0v.3c-.1,0,0,.3,0,.3h.3c0,.1.3,0,.3,0ZM113.1,10.5l.2-.6-.4-.3-.4.3.2.6h.6ZM104.9,27.9l.3-.6-.3-.6-.6-.3-.6.3-.3.6.3.6.6.3.6-.3ZM107,15l.3-.6-.3-.6-.6-.3-.6.3-.3.6.3.6.6.3.6-.3ZM110.7,12.8l.6-.6-.6-.6-.6.6.6.6ZM125.8,12.7l.6-.6-.6-.6-.6.6.6.6ZM125.4,22.1l-.5.5v.7s.5.5.5.5h.7s.5-.5.5-.5v-.7s-.5-.5-.5-.5h-.7ZM110.5,7.6l-.2.2v.3s.2.2.2.2h.3s.2-.2.2-.2v-.3s-.2-.2-.2-.2h-.3ZM104.8,18.6c0-.3-.3-.6-.6-.6s-.6.3-.6.6.3.6.6.6.6-.3.6-.6M119.9,20.8c0-.3-.3-.6-.6-.6s-.6.3-.6.6.3.6.6.6.6-.3.6-.6M124.5,16.5c0-.5-.4-.9-.9-.9s-.9.4-.9.9.4.9.9.9.9-.4.9-.9M124.5,27.2c0-.5-.4-.9-.9-.9s-.9.4-.9.9.4.9.9.9.9-.4.9-.9M119.6,44.4c0-.2-.1-.3-.3-.3s-.3.1-.3.3.1.3.3.3.3-.1.3-.3M122.3,29.4c0-.5-.4-.9-.9-.9s-.9.4-.9.9.4.9.9.9.9-.4.9-.9M132.7,25.1c0-.3-.2-.5-.5-.5s-.5.2-.5.5.2.5.5.5.5-.2.5-.5M103.9,22l-.5.5v.7s.5.5.5.5h.7s.5-.5.5-.5v-.7s-.5-.5-.5-.5h-.7ZM128.2,14.7v-.3c.1,0,0-.3,0-.3h-.3c0-.1-.3,0-.3,0v.3c-.1,0,0,.3,0,.3h.3c0,.1.3,0,.3,0ZM121.7,34v-.4c.1,0-.2-.3-.2-.3l-.4.3v.4h.6ZM98,49.1v-.4c.1,0-.2-.3-.2-.3l-.4.3v.4h.6ZM102.6,51.8l.3-1.1-.9-.7-.9.7.3,1.1h1.1ZM113.1,38.4l.2-.5-.4-.3-.4.3.2.5h.5ZM108.5,55.8l.6-.6-.6-.6-.6.6.6.6ZM117.1,49.3l.6-.6-.6-.6-.6.6.6.6ZM97.8,45.1l.8-.8-.8-.8-.8.8.8.8ZM99.6,41.4l-.5.5v.7l.5.5h.7l.5-.5v-.7l-.5-.5h-.7ZM99.9,49.3l.6-.6-.6-.6-.6.6.6.6ZM119.3,57.8l.4-.4-.4-.4-.4.4.4.4ZM134.3,29.8l.4-.4-.4-.4-.4.4.4.4ZM108.3,37.4l-.3.3v.5l.3.3h.5l.3-.3v-.5l-.3-.3h-.5ZM106.8,40.5l.2-.4-.2-.4-.4-.2-.4.2-.2.4.2.4.4.2.4-.2ZM124,40.5l.2-.4-.2-.4-.4-.2-.4.2-.2.4.2.4.4.2.4-.2ZM123.2,50l-.5.5v.7l.5.5h.7l.5-.5v-.7l-.5-.5h-.7ZM106.2,44.1l-.2.2v.3l.2.2h.3l.2-.2v-.3l-.2-.2h-.3ZM122.1,12.2c0-.4-.3-.6-.6-.6s-.6.3-.6.6.3.6.6.6.6-.3.6-.6M110.3,57.7h.8v-.8h-.8v.8ZM109.1,31.5c0-.3-.3-.6-.6-.6s-.6.3-.6.6.3.6.6.6.6-.3.6-.6M117.7,18.6c0-.3-.3-.6-.6-.6s-.6.3-.6.6.3.6.6.6.6-.3.6-.6M130.6,22.9c0-.3-.3-.6-.6-.6s-.6.3-.6.6.3.6.6.6.6-.3.6-.6M126.3,49.6l.3-1.1-.9-.7-.9.7.3,1.1h1.1ZM139,36.2l.2-.4-.2-.4-.4-.2-.4.2-.2.4.2.4.4.2.4-.2ZM126.1,34.1l.2-.4-.2-.4-.4-.2-.4.2-.2.4.2.4.4.2.4-.2ZM104.8,36.5l.3-.6-.3-.6-.6-.3-.6.3-.3.6.3.6.6.3.6-.3ZM115.6,55.8l.3-.6-.3-.6-.6-.3-.6.3-.3.6.3.6.6.3.6-.3ZM100.5,47.2l.3-.6-.3-.6-.6-.3-.6.3-.3.6.3.6.6.3.6-.3ZM102.1,38.9l.9-.9-.9-.9-.9.9.9.9ZM123.6,36.7l.9-.9-.9-.9-.9.9.9.9ZM104.2,29.8l.5-.5-.5-.5-.5.5.5.5ZM130,27.7l.5-.5-.5-.5-.5.5.5.5ZM97.8,23.4l.5-.5-.5-.5-.5.5.5.5ZM112.8,40.4l.3-.3-.3-.3-.3.3.3.3ZM122,53.9l.3-1.1-.9-.7-.9.7.3,1.1h1.1ZM132.6,38.6l.2-.8-.6-.5-.6.5.2.8h.8ZM104.6,17.1l.2-.8-.6-.5-.6.5.2.8h.8ZM99.8,29.1l-.2.2v.2l.2.2h.2l.2-.2v-.2l-.2-.2h-.2ZM102.1,54l1-1-1-1-1,1,1,1ZM126.7,50.9c0-.5-.4-.9-.9-.9s-.9.4-.9.9.4.9.9.9.9-.4.9-.9M108.8,12.6l.2-.6-.4-.3-.4.3.2.6h.6ZM114.5,27.7h.9v-.9h-.9v.9ZM108.8,57.6v-.3c.1,0,0-.3,0-.3h-.3c0-.1-.3,0-.3,0v.3c-.1,0,0,.3,0,.3h.3c0,.1.3,0,.3,0ZM106.6,10.2v-.3c.1,0-.2-.2-.2-.2l-.3.2v.3h.4Z" style="fill:#dc5120; stroke-width:0px;"/><path d="M174.5,32.1h.3c1,.1,1.3.5,1.3.5,0-.3,0-.5,0-.5h0c-.8-2.9-3.5-4.1-5.1-4.1s-1.1.1-1.5.4c-1.7.9-8,5.3-11.8,3.6h0c1.2-.8,3.7-2.5,4.6-4.1,0,.1.1.2.2.4.3.7.3,1.3.3,1.3.1,0,.2-.2.3-.2,0,0,0,0,0,0,1.1-1.1,1.9-3.3,2.3-4.9.6-2.4.3-3.7.2-5.5,0,0,0,0,0,0-.1-2.5,1.1-6.8,3.5-4.7.4.4.4,1,.4,1,.1-.1.2-.3.2-.3,0,0,.7-1.1.6-2-.1-1.7-1.5-1.9-1.5-1.9,0,0,.4-.2,1-.2.6,0,.9.4.9.4,0-.2,0-.3,0-.3,0-1.8-1.3-3.4-3.6-2.6v-.3q0,0,0,0c.2-.7.6-1.2.6-1.2-.4,0-.5,0-.5,0-3.9-.2-6,2.3-6.1,4.2,0,3.3-.9,7.8-1.8,9.4-.3.6-1.8,2.8-4.3,3-1.6.1-3.1-.6-4.2-1.8-1.5-1.6-1.2-3.5-.9-4.3,2.1.2,2.4,1.4,2.6,2.2,2.9.3,3.3-2.1,3.4-2.4,0-.3,0-1.6,0-1.6l-.4-.2s0,0,0,0c0,0,1.2-1.3,1.6-3.4,0,0,0-.1,0-.2,0,0,0,0,0,0h0c0-.2,0-.4-.2-.7-1.6-2.5-4.2-3.6-4.6-3.8-.4-.2-.3-1.6-.7-2.2-.8-.9-2.7-1.9-3.9-2.3,0-.3,0-1.5-.9-1.9-3.4-1.5-8.8-.1-11.8,2.8l.3.8-.3.5h0c0,0-1,0-1,0l-.7.7v1l.6.6-.6.4-.5-.5h-.9l-.6.6v.9l.6.6-.7.5.4,1.4h.6s-1,1-1,1l-1-.7-1.1.8.4,1.3h1.3l.3-.8.9.9h-.3c0,.1-.4.7-.4.7v.7s.4.5.4.5c-.3.2-.5.4-.7.7l-.2-.3-.6-.2-.6.2-.4.5v.6s.4.5.4.5l.6.2.6-.2.2-.3c0,.1.1.2.2.3l-1.3,1.3,1.3,1.3-.2.2v1.2l.8.8-.7.7,1.3,1.3.3-.3.7.7h0s0,.7,0,.7l.4.6.7.2.7-.2h0c0,0,.1.2.2.2v2.2h.8l-.5.5v.8l.6.6h.8l.5-.5.3.9h.5l-.8.8,1.2,1.2.6-.6.3.4c-.3.3-.5.7-.5,1.2s.2,1,.6,1.3l-.4.9.2.6h.4l.3.5-.3.5h-.6l-.2-.4h-.1c0-.1-.9-.1-.9-.1l-.6.6v.9h.1c.2.2.3.3.3.5s-.2.5-.5.5-.4-.2-.5-.4h-1.6v.6c-.2-.4-.6-.7-1.1-.7s-1.2.5-1.2,1.2.3.9.7,1.1l-.5.5v-.5h-2.1v2.1h.6l-.6.6v.4l-1-1c.5,0,.9-.5.9-1s-.5-1-1-1-1,.4-1,.9l-1.1-1.1-1.3,1.3,1.3,1.3c-.5,0-.9.4-.9.9s.4.9.9.9l-1.1.8.4,1.4h.6l-.8.3-.3.8.3.8.8.3.8-.3.2-.5h0c0,0,.4.7.4.7h.3c-.5.3-.8.7-.8,1.2s.5,1.1,1.1,1.1,1.1-.5,1.1-1.1-.3-.9-.8-1.1h.4c0-.1.4-.7.4-.7h0c0,0,.9.8.9.8l-.5.2-.4.5v.6s.4.5.4.5l.6.2.6-.2.3-.5c.1.4.5.8,1,.8h-.4c0,.1-.4.7-.4.7v.6s.4.5.4.5h0c0-.2.2-.4.5-.4s.5.2.5.5-.2.5-.5.5-.5-.2-.5-.4l-.6.6v.9l.7.7-.6.6-.6-.6h-.9l-.6.6v.9l.6.6h.9l.6-.6v-.3l.4,1.1h1.6l.4-1.1c0,.5.5.9,1,.9s1-.4,1-1-.1-.6-.3-.7h.3v-.4c.1,0,.5.4.5.4h1.2l.8-.8c.1-1.7,1.2-2.2,1.7-2.4h0s0,0,0,0c3.5-1.5,9.2-1.6,10.3,1.3h0c.4.9.3,2.5-.2,3.9-.1.4-.5,1.2-.9,1.6l1.4,2.7,1.5,3.1h13.5c.3-2.2-.6-3.4-3.2-3.4,0,0,0-.8-.8-1.3-.6-.5-2-.7-3.2-.7-.8,0-1.5,0-1.8,0-1.8,0-1.6-2.4-1.6-2.4,0-2.9,3.4-6.9,3.4-6.9.2-.3.3-.5.3-.8,1-3.4-4.9-6.5-8.1-7.5l.4-2.4c2,.9,3.4,1.2,4.4,1.2s.6,0,.6,0c0,0,.3,0,.5,0,.4,0,1-.2,1.5-.3,0,0-.5-.2-.9-.8,0-.1-.1-.2-.2-.3.1,0,.2,0,.4,0,1.8,0,4.3-.3,5.8-1.2,0,0,.4-.3.5-.4,0,0-.7,0-1.6-.5,0,0-.3-.2-.5-.3,0,0,0,0,0,0,5.4-3.3,6.6-2.2,7-.5.1.6-.1,1.3-.1,1.3.2-.1.4-.2.4-.3.3-.2.6-.5.9-.9h0c0,0,.2-.2.2-.3.7-1,.8-1.3.9-1.4v.7c.2.7,0,1.3,0,1.3.2,0,.5-.3.5-.3h0c1.4-.9,2.5-2.4,1.5-4.3,0-.2-.3-.9-.4-1ZM133.2,9.3l.8.6-.3,1h-1l-.3-1,.8-.6ZM133.3,11.2l.9.9-.9.9-.9-.9.9-.9ZM133.7,15.3l-.2.5h-.5l-.2-.5.4-.3.4.3ZM133.2,22.7c-.5,0-.9-.4-.9-.9s.4-.9.9-.9.9.4.9.9-.4.9-.9.9ZM133.2,18.6l-1-1,1-1,1,1-1,1ZM139.3,10.1l-.6.6-.6-.6.6-.6.6.6ZM138,17.1v.9h-.9v-.9h.9ZM137.3,5.1h.7l.3.6-.3.6h-.7l-.3-.6.3-.6ZM135.5,4.9c.4,0,.8.4.8.8s-.4.8-.8.8-.8-.4-.8-.8.4-.8.8-.8ZM135.4,7.1l.8.6-.3.9h-1l-.3-.9.8-.6ZM135.4,15.9l.6.6-.6.6-.6-.6.6-.6ZM134.8,13.2l.6-.6.6.6-.6.6-.6-.6ZM135.4,19c.4,0,.8.3.8.8s-.3.8-.8.8-.8-.3-.8-.8.3-.8.8-.8ZM135.8,24.8h-.9l-.4-.8.4-.8h.9l.4.8-.4.8ZM137.5,28.8c-.3,0-.5-.2-.5-.5s.2-.5.5-.5.5.2.5.5-.2.5-.5.5ZM138,26.6h-.9v-.9h.9v.9ZM138.2,22.6h-1.4v-1.4h1.4v1.4ZM138.9,14.7h-.5l-.2-.5.4-.3.4.3-.2.5ZM139.7,25.7l.4.3-.2.5h-.5l-.2-.5.4-.3ZM140.2,31h-.9v-.9h.9v.9ZM133.2,42.7c.4,0,.7.3.7.7s-.3.7-.7.7-.7-.3-.7-.7.3-.7.7-.7ZM133.9,45.3l-.2.7h-.8l-.2-.7.6-.4.6.4ZM129,42.4c0,.4.4.8.8.9l-1.1,1.1s0,0,0,0c0-.5-.4-.9-.8-.9l1.1-1.1ZM132.2,45.4h0s-1.2.8-1.2.8l.4,1.4h.6l-.8.8h0c0-.1-.4-.7-.4-.7l-.7-.2-.7.2-.4.6h0s-.2-.5-.2-.5l-.8-.3h.7l.4-1.4-1.1-.8c.4,0,.8-.4.8-.9l1.3,1.3,1.2-1.2v.3l.6.6h.4,0ZM133.3,50.5l-.7-.7.7-.7.7.7-.7.7ZM135.4,40.7c.3,0,.5.2.5.5s-.2.5-.5.5-.5-.2-.5-.5.2-.5.5-.5ZM135.9,45.4l-.4.4-.4-.4.4-.4.4.4ZM135.1,47.1h.6l.3.5-.3.5h-.6l-.3-.5.3-.5ZM135.9,49.8c0,.3-.2.5-.5.5s-.5-.2-.5-.5.2-.5.5-.5.5.2.5.5ZM134.6,51.9l.4-.7h.8l.4.7-.4.7h-.8l-.4-.7ZM135.9,56.9h-1l-.3-.9.8-.6.8.6-.3.9ZM141.4,8.5h.9v.9h-.9v-.9ZM142.3,27.2l-.2.4h-.5l-.2-.4.2-.4h.5l.2.4ZM141.8,19.2l.5.5-.5.5-.5-.5.5-.5ZM139.2,38.6h.9v.9h-.9v-.9ZM139.7,45.2c.2,0,.4.2.4.4s-.2.4-.4.4-.4-.2-.4-.4.2-.4.4-.4ZM139.3,43.3l.4-.3.4.3v.4h-.6v-.4ZM137.6,54.8l-.7-.7.7-.7.7.7-.7.7ZM137.1,51.9c0-.2.2-.4.4-.4s.4.2.4.4-.2.4-.4.4-.4-.2-.4-.4ZM137.6,49.5l-.7-.7.7-.7.7.7-.7.7ZM136.9,43.3l.3-.6h.7l.3.6-.3.6h-.7l-.3-.6ZM137.6,42l-.7-.7.7-.7.7.7-.7.7ZM140.1,52.5h-.8l-.2-.7.6-.5.6.5-.2.7ZM140.3,22.9c0-.3.2-.5.5-.5s.5.2.5.5-.2.5-.5.5-.5-.2-.5-.5ZM141.5,35.7l.4-.3.4.3-.2.5h-.5l-.2-.5ZM141.7,40.8h.4l.2.4-.2.4h-.4l-.2-.4.2-.4ZM141.9,47.1l-.4-.4.4-.4.4.4-.4.4ZM141.9,33.3l-.7-.7.7-.7.7.7-.7.7ZM144,38.4l-.4-.4.4-.4.4.4-.4.4Z" style="fill:#ce2b1e; stroke-width:0px;"/><rect y="120.1" width="186.4" height=".9" style="fill:#c9c9c9; stroke-width:0px;"/><path d="M52.9,147.9h1.8l6.3,14.8h-2.3l-1.5-3.7h-7l-1.5,3.7h-2.3l6.5-14.8ZM56.5,157.2l-2.8-6.8h0l-2.8,6.8h5.6Z" style="fill:#231815; stroke-width:0px;"/><path d="M63.4,159.5c.4.5.8.9,1.4,1.2.6.3,1.1.4,1.7.4s.7,0,1-.2c.3-.1.7-.3.9-.5.3-.2.5-.5.7-.8.2-.3.3-.7.3-1.1s-.2-1-.5-1.3c-.4-.3-.8-.5-1.3-.8-.5-.2-1.1-.4-1.8-.6-.6-.2-1.2-.4-1.8-.8-.5-.3-1-.8-1.3-1.3-.4-.6-.5-1.3-.5-2.3s0-.9.3-1.4c.2-.5.5-.9.9-1.3.4-.4.9-.7,1.6-1,.6-.3,1.4-.4,2.3-.4s1.6.1,2.3.3c.7.2,1.4.7,1.9,1.4l-1.6,1.5c-.3-.4-.6-.7-1.1-.9-.5-.2-1-.4-1.6-.4s-1,0-1.4.2c-.4.1-.7.3-.9.6-.2.2-.4.5-.5.7,0,.3-.1.5-.1.7,0,.6.2,1.1.5,1.4.4.3.8.6,1.3.8.5.2,1.1.4,1.8.6.6.2,1.2.4,1.8.7.5.3,1,.7,1.3,1.2.4.5.5,1.2.5,2.1s-.1,1.4-.4,1.9c-.3.6-.6,1.1-1.1,1.4-.5.4-1,.7-1.6.9-.6.2-1.3.3-2,.3s-1.8-.2-2.7-.5c-.8-.3-1.5-.8-2-1.5l1.6-1.4Z" style="fill:#231815; stroke-width:0px;"/><path d="M75.1,159.5c.4.5.8.9,1.4,1.2.6.3,1.1.4,1.7.4s.7,0,1-.2c.3-.1.7-.3.9-.5.3-.2.5-.5.7-.8.2-.3.3-.7.3-1.1s-.2-1-.5-1.3c-.4-.3-.8-.5-1.3-.8-.5-.2-1.1-.4-1.8-.6-.6-.2-1.2-.4-1.8-.8-.5-.3-1-.8-1.3-1.3-.4-.6-.5-1.3-.5-2.3s0-.9.3-1.4c.2-.5.5-.9.9-1.3.4-.4.9-.7,1.6-1,.6-.3,1.4-.4,2.3-.4s1.6.1,2.3.3c.7.2,1.4.7,1.9,1.4l-1.6,1.5c-.3-.4-.6-.7-1.1-.9-.5-.2-1-.4-1.6-.4s-1,0-1.4.2c-.4.1-.7.3-.9.6-.2.2-.4.5-.5.7,0,.3-.1.5-.1.7,0,.6.2,1.1.5,1.4.4.3.8.6,1.3.8.5.2,1.1.4,1.8.6.6.2,1.2.4,1.8.7.5.3,1,.7,1.3,1.2.4.5.5,1.2.5,2.1s-.1,1.4-.4,1.9c-.3.6-.6,1.1-1.1,1.4-.5.4-1,.7-1.6.9-.6.2-1.3.3-2,.3s-1.8-.2-2.7-.5c-.8-.3-1.5-.8-2-1.5l1.6-1.4Z" style="fill:#231815; stroke-width:0px;"/><path d="M88,147.9v9.1c0,.5,0,.9.2,1.4.1.5.3,1,.6,1.4.3.4.7.8,1.1,1,.5.3,1.1.4,1.8.4s1.3-.1,1.8-.4c.5-.3.9-.6,1.1-1,.3-.4.5-.9.6-1.4.1-.5.2-1,.2-1.4v-9.1h2v9.4c0,.9-.1,1.6-.4,2.3-.3.7-.7,1.3-1.2,1.8-.5.5-1.1.9-1.8,1.2-.7.3-1.4.4-2.3.4s-1.6-.1-2.3-.4c-.7-.3-1.3-.7-1.8-1.2-.5-.5-.9-1.1-1.2-1.8-.3-.7-.4-1.5-.4-2.3v-9.4h2Z" style="fill:#231815; stroke-width:0px;"/><path d="M100.9,147.9h5.2c.9,0,1.7.1,2.3.4.6.3,1.1.6,1.5,1,.4.4.6.8.7,1.3.1.5.2,1,.2,1.4s0,.9-.3,1.4c-.2.4-.4.8-.7,1.2-.3.4-.7.7-1.1.9-.5.2-1,.4-1.5.4l4.2,6.7h-2.5l-3.8-6.5h-2.2v6.5h-2v-14.8ZM102.9,154.4h2.6c.4,0,.8,0,1.2,0,.4,0,.7-.2,1-.3.3-.2.5-.4.7-.7.2-.3.3-.7.3-1.2s0-.9-.3-1.2c-.2-.3-.4-.6-.7-.7-.3-.2-.6-.3-1-.3-.4,0-.8,0-1.2,0h-2.6v4.8Z" style="fill:#231815; stroke-width:0px;"/><path d="M113.7,147.9h9.5v1.9h-7.5v4.4h7v1.9h-7v4.7h7.9v1.9h-9.9v-14.8Z" style="fill:#231815; stroke-width:0px;"/><path d="M126.1,147.9h5.2c1,0,2,.1,2.7.4.8.2,1.5.6,2,1,.6.4,1.1.9,1.4,1.4.4.5.7,1,.9,1.6.2.5.4,1.1.5,1.6,0,.5.1,1,.1,1.5,0,.9-.2,1.9-.5,2.7-.3.9-.9,1.7-1.5,2.4-.7.7-1.5,1.2-2.5,1.7-1,.4-2.2.6-3.5.6h-4.8v-14.8ZM128.1,160.8h2.5c.8,0,1.7-.1,2.4-.3.8-.2,1.4-.6,2-1,.6-.5,1-1,1.4-1.7.3-.7.5-1.5.5-2.4s0-1-.2-1.7c-.2-.6-.4-1.2-.9-1.8-.4-.6-1-1.1-1.8-1.5-.8-.4-1.7-.6-2.9-.6h-3v11Z" style="fill:#231815; stroke-width:0px;"/></g></svg>