<?xml version="1.0" encoding="UTF-8"?><svg id="_レイヤー_2" xmlns="http://www.w3.org/2000/svg" viewBox="0 0 112.17 112.17"><defs><style>.cls-1{fill:#f4b3c2;}.cls-1,.cls-2,.cls-3{stroke-width:0px;}.cls-2{fill:#fff352;}.cls-4{fill:none;stroke:#4c4948;stroke-linecap:round;stroke-linejoin:round;stroke-width:.75px;}.cls-3{fill:#fff;}</style></defs><g id="_背景2"><circle class="cls-1" cx="56.08" cy="56.08" r="47.67" transform="translate(-11.39 97.78) rotate(-76.72)"/><circle class="cls-4" cx="56.08" cy="56.08" r="55.71"/><path class="cls-4" d="M96.65,87.92c6.93-8.79,11.08-19.88,11.08-31.94s-4.15-23.15-11.08-31.94"/><path class="cls-4" d="M15.52,24.05c-6.93,8.79-11.08,19.87-11.08,31.94s4.15,23.15,11.08,31.94"/><path class="cls-2" d="M24.87,60.77h-1.59c-1,0-1.81-.81-1.81-1.81s.81-1.83,1.81-1.83h3.56c1.08,0,1.94.86,1.94,1.94v15.25c0,1.08-.86,1.97-1.94,1.97s-1.97-.89-1.97-1.97v-13.55Z"/><path class="cls-2" d="M32.54,66.58c0-5.43,4.29-9.72,9.74-9.72s9.74,4.29,9.74,9.72-4.29,9.72-9.74,9.72-9.74-4.29-9.74-9.72ZM47.98,66.58c0-3.32-2.51-5.94-5.7-5.94s-5.7,2.62-5.7,5.94,2.51,5.94,5.7,5.94,5.7-2.62,5.7-5.94Z"/><path class="cls-2" d="M54.22,66.58c0-5.43,4.29-9.72,9.74-9.72s9.74,4.29,9.74,9.72-4.29,9.72-9.74,9.72-9.74-4.29-9.74-9.72ZM69.66,66.58c0-3.32-2.51-5.94-5.7-5.94s-5.7,2.62-5.7,5.94,2.51,5.94,5.7,5.94,5.7-2.62,5.7-5.94Z"/><path class="cls-2" d="M76.28,65.66c0-1.8,1.44-3.31,3.29-3.31s3.31,1.51,3.31,3.31-1.51,3.29-3.31,3.29-3.29-1.44-3.29-3.29ZM77.49,74.98c0-.26.08-.55.28-.79l9.36-11.15c.25-.28.61-.43.95-.43.68,0,1.23.55,1.23,1.23,0,.26-.08.55-.28.79l-9.36,11.15c-.25.28-.6.44-.95.44-.68,0-1.23-.55-1.23-1.23ZM80.47,65.66c0-.49-.42-.91-.91-.91s-.89.42-.89.91.4.89.89.89.91-.4.91-.89ZM83.9,73.17c0-1.8,1.44-3.31,3.29-3.31s3.31,1.51,3.31,3.31-1.51,3.29-3.31,3.29-3.29-1.44-3.29-3.29ZM88.09,73.17c0-.49-.42-.91-.91-.91s-.89.42-.89.91.4.89.89.89.91-.4.91-.89Z"/><path class="cls-3" d="M36.55,33.36c.49.53,1.29.8,2.47.88-.18.19-.39.54-.5.77-1.44-.17-2.29-.62-2.84-1.54-.37.75-1.15,1.25-2.88,1.53-.06-.22-.26-.57-.41-.75,1.33-.17,1.99-.46,2.34-.88h-2.21v-.73h2.54c.03-.13.05-.27.07-.43h-2.56v-.74h2.67v-.36h-2.07v-.7h2.07v-.36h-2.39v-.74h1.21c-.09-.2-.23-.41-.37-.58l.74-.29c.22.23.43.56.52.8l-.16.07h1.74l-.2-.06c.17-.22.37-.57.48-.82l.9.22c-.17.25-.34.47-.48.65h1.3v.74h-2.42v.36h2.14v.7h-2.14v.36h2.7v.74h-2.79c-.01.15-.04.29-.06.43h2.93v.73h-2.33Z"/><path class="cls-3" d="M44.38,30.78c.74.9,1.82,1.6,2.89,1.95-.19.21-.38.52-.52.76-.25-.11-.52-.25-.78-.39v1.89h-.85v-.19h-2.3v.2h-.8v-1.83c-.25.15-.51.28-.77.39-.11-.2-.31-.53-.47-.71,1.14-.45,2.23-1.32,2.76-2.07h.85ZM41.8,30.52h-.81v-1.51h2.54v-.56h.85v.56h2.58v1.51h-.85v-.75h-4.31v.75ZM43.51,30.18c-.44.63-1.14,1.23-1.79,1.6-.12-.17-.41-.51-.58-.67.6-.27,1.21-.72,1.56-1.21l.8.27ZM45.13,34.07v-.74h-2.3v.74h2.3ZM45.18,32.6c-.48-.34-.9-.7-1.18-1.06-.27.34-.66.71-1.12,1.06h2.3ZM44.99,29.89c.59.35,1.37.89,1.76,1.28l-.63.55c-.36-.39-1.11-.96-1.72-1.34l.59-.49Z"/><path class="cls-3" d="M53.35,33.4c.6.36,1.41.64,2.22.76-.19.18-.43.53-.56.76-.86-.22-1.71-.64-2.35-1.18v1.26h-.82v-1.22c-.65.51-1.51.92-2.35,1.13-.12-.2-.36-.53-.53-.69.78-.16,1.61-.46,2.21-.82h-2.01v-.69h2.68v-.31h-2.02v-.6h2.02v-.32h-2.37v-.65h1.33c-.06-.17-.15-.39-.24-.55h.08s-1.46-.01-1.46-.01v-.68h.94c-.1-.27-.28-.6-.43-.87l.71-.25c.2.3.43.71.53.99l-.34.13h.64v-1.14h.78v1.14h.52v-1.14h.78v1.14h.62l-.25-.08c.17-.29.34-.71.44-1.02l.88.21c-.2.32-.38.64-.55.88h.91v.68h-1.32c-.11.2-.22.39-.33.56h1.37v.65h-2.43v.32h2.1v.6h-2.1v.31h2.72v.69h-2.03ZM51.45,30.28c.1.18.19.39.24.54l-.12.02h1.31c.08-.17.17-.37.25-.56h-1.67Z"/><path class="cls-3" d="M61.91,31.67c.5.42,1.2.76,1.92.95-.17.17-.43.49-.55.71-.42-.14-.82-.33-1.18-.57v2.21h-.87v-2.46h.53c-.32-.25-.6-.53-.82-.84h-.72c-.23.31-.53.58-.84.83h.6v.48c0,.67-.2,1.55-1.6,2.06-.11-.2-.39-.52-.57-.68,1.17-.38,1.31-.97,1.31-1.41v-.25c-.4.27-.83.49-1.27.65-.12-.2-.36-.51-.55-.69.7-.2,1.39-.57,1.89-1h-1.11v-2.98h4.99v2.98h-1.14ZM58.89,29.87h1.23v-.5h-1.23v.5ZM58.89,31h1.23v-.5h-1.23v.5ZM62.19,29.37h-1.23v.5h1.23v-.5ZM62.19,30.49h-1.23v.5h1.23v-.5Z"/><path class="cls-3" d="M66.16,31.76c.32-.34.86-1.06,1.3-1.56.49-.55.95-.6,1.46-.11.48.46,1.04,1.18,1.45,1.63.45.49,1.04,1.12,1.71,1.72l-.72.84c-.5-.48-1.1-1.16-1.54-1.67-.43-.52-.96-1.18-1.29-1.55-.25-.27-.38-.24-.58.02-.28.35-.78,1.04-1.08,1.44-.16.23-.32.48-.44.67l-.85-.88c.21-.16.39-.32.6-.55Z"/><path class="cls-3" d="M77.27,34.72l-.53-.83c.27-.03.46-.07.65-.11.9-.21,1.6-.85,1.6-1.88,0-.97-.53-1.69-1.47-1.85-.1.6-.22,1.24-.42,1.9-.42,1.42-1.02,2.28-1.79,2.28s-1.42-.85-1.42-2.04c0-1.62,1.4-3,3.21-3s2.83,1.21,2.83,2.73-.9,2.52-2.67,2.79ZM75.35,33.15c.29,0,.57-.44.85-1.39.16-.52.29-1.11.37-1.7-1.16.24-1.78,1.26-1.78,2.03,0,.71.28,1.05.55,1.05Z"/><path class="cls-3" d="M38.91,86.63l-1.72-2.83,1.72-2.83.59.26-1.56,2.57,1.56,2.57-.59.26Z"/><path class="cls-3" d="M45.66,84.5c-.02.26-.04.49-.06.68h.75v.62h-.85c-.06.26-.12.41-.19.51-.14.2-.31.25-.52.28-.19.03-.51.02-.83,0,0-.15-.08-.38-.17-.53.29.03.53.04.67.04.11,0,.16-.02.23-.11.03-.04.07-.1.09-.2h-2.43c-.02.12-.04.23-.06.33l-.72-.05c.09-.44.19-1,.28-1.59h-.89v-.64h.99c.05-.4.1-.79.14-1.15-.14.17-.31.35-.48.51-.14-.16-.41-.37-.59-.45.64-.52,1.05-1.19,1.28-1.77l.77.13c-.07.14-.13.29-.2.43h3.39v.64h-3.77c-.09.14-.19.28-.29.41h3.59s0,.22,0,.31c-.02.35-.03.67-.05.95h.8v.64h-.85ZM42.56,84.5c-.04.23-.07.46-.1.68h.86c.03-.21.06-.44.09-.68h-.85ZM42.74,83.22c-.03.21-.05.43-.08.64h.82c.02-.22.04-.43.06-.64h-.8ZM44.9,85.18c.02-.19.05-.41.07-.68h-.9c-.03.24-.05.47-.08.68h.92ZM45,83.86c.01-.2.02-.41.04-.64h-.85c-.02.21-.04.43-.06.64h.87Z"/><path class="cls-3" d="M53.6,85.32h-2.05v1.28h-.74v-1.28h-2.7v-.68h.95v-1.58h1.75v-.71h-1.28c-.25.43-.53.81-.82,1.09-.14-.12-.44-.36-.62-.46.54-.46,1-1.22,1.26-2l.73.19c-.05.17-.12.33-.2.49h3.39v.69h-1.72v.71h1.58v.67h-1.58v.91h2.05v.68ZM50.82,84.64v-.91h-1.04v.91h1.04Z"/><path class="cls-3" d="M57.02,83.8c0,.42-.35.77-.77.77s-.77-.35-.77-.77.35-.77.77-.77.77.35.77.77Z"/><path class="cls-3" d="M60.25,85.24c.23.4.65.57,1.26.59.72.03,2.13.01,2.96-.05-.08.17-.19.5-.22.7-.74.04-2.02.05-2.75.02-.71-.03-1.19-.2-1.55-.67-.24.23-.49.46-.79.72l-.34-.71c.23-.15.5-.35.74-.55v-1.31h-.67v-.65h1.35v1.91ZM59.83,82.55c-.17-.29-.56-.71-.9-1l.54-.41c.34.27.75.67.94.95l-.59.45ZM62.01,85.14h-1.57v-.58h1.57v-.26h-1.25v-2.04h1.25v-.25h-1.49v-.58h1.49v-.43h.7v.43h1.57v.58h-1.57v.25h1.31v2.04h-1.31v.26h1.64v.58h-1.64v.56h-.7v-.56ZM61.41,83.04h.61v-.29h-.61v.29ZM62.01,83.8v-.3h-.61v.3h.61ZM62.71,82.75v.29h.62v-.29h-.62ZM63.33,83.5h-.62v.3h.62v-.3Z"/><path class="cls-3" d="M66.88,84.6c-.05.57-.19,1.16-.35,1.55-.12-.08-.38-.2-.52-.25.17-.35.26-.89.31-1.39l.57.1ZM67.57,84.12v2.48h-.61v-2.43l-.83.07-.07-.62.43-.02c.09-.11.18-.23.27-.35-.17-.27-.44-.59-.68-.84l.35-.48s.09.08.14.13c.17-.33.34-.73.43-1.04l.62.22c-.21.41-.46.89-.68,1.22.07.08.14.16.19.23.21-.34.4-.68.54-.97l.58.27c-.33.5-.74,1.1-1.12,1.58l.52-.03c-.06-.13-.13-.26-.19-.38l.5-.21c.16.27.31.59.41.88v-.56h3.29v1.19h-.62v-.63h-2.07v.63h-.59v-.18l-.41.19c-.02-.1-.05-.22-.09-.35l-.3.02ZM68.12,84.48c.14.33.27.77.31,1.05l-.53.17c-.03-.29-.14-.74-.28-1.08l.5-.15ZM69.09,84.1h.64v.48c0,.62-.16,1.48-1.28,2.03-.11-.14-.33-.35-.49-.47.98-.47,1.12-1.13,1.12-1.56v-.47ZM69.63,82.05h-1.24v-.58h1.24v-.47h.71v.47h1.26v.58h-1.26v.35h1.09v.58h-2.82v-.58h1.03v-.35ZM71.1,85.94c.08,0,.11-.1.13-.74.13.11.39.22.57.26-.06.86-.22,1.08-.63,1.08h-.38c-.51,0-.62-.19-.62-.79v-1.65h.64v1.65c0,.16.01.19.09.19h.2Z"/><path class="cls-3" d="M74.69,83.8l-1.57-2.57.59-.26,1.72,2.83-1.72,2.83-.59-.26,1.57-2.57Z"/><path class="cls-2" d="M37.26,47.82c-.27,1.24-.74,2.51-1.31,3.33-.25-.25-.82-.66-1.14-.86.49-.69.86-1.73,1.05-2.77l1.4.3ZM41.47,42.66h-6.32v-1.4h2.38v-1.47h1.57v1.47h2.37v1.4ZM39.13,47.04v3.33c0,.65-.12,1.04-.56,1.27-.43.23-.97.25-1.73.25-.05-.42-.27-1-.46-1.39.43.01.91.01,1.05.01.16,0,.21-.04.21-.18v-3.29h-1.9v-3.65h5.17v3.65h-1.79ZM37.16,45.77h2.28v-1.11h-2.28v1.11ZM45.78,50.33c.08,0,.18-.03.22-.08.05-.05.1-.17.12-.3.03-.25.05-.82.04-1.47.26.25.74.49,1.11.61-.03.7-.08,1.47-.17,1.78-.08.34-.22.53-.44.7-.19.14-.49.22-.79.22h-.75c-.35,0-.71-.1-.94-.34-.23-.23-.3-.48-.3-1.31v-2.57c-.39,1.6-1.09,3.16-2.37,4.38-.3-.29-.92-.71-1.31-.91.47-.43.86-.9,1.17-1.4l-1.21.46c-.12-.61-.46-1.57-.77-2.28l1.21-.42c.34.66.66,1.55.82,2.16.99-1.6,1.3-3.48,1.39-5.1h-1.43v-1.47h1.47v-3.21h1.48v3.21h2.76v1.47h-2.78c-.01.18-.03.36-.04.55h1.01v5.03c0,.06.01.16.05.2.05.06.13.09.21.09h.25ZM45.79,42.75c-.2-.6-.7-1.51-1.25-2.15l1.2-.55c.59.61,1.12,1.46,1.34,2.07l-1.29.62Z"/><path class="cls-2" d="M62.34,45.8c-.35,1.25-.83,2.37-1.44,3.34.12.62.26.97.42.99.16,0,.26-.6.31-1.62.22.31.78.71,1,.86-.32,2.11-.94,2.56-1.38,2.56-.58-.01-1.01-.53-1.33-1.48-.51.58-1.08,1.09-1.7,1.52-.17-.26-.61-.77-.88-1.01.33-.19.64-.42.92-.65h-1.95v.75h-1.18v-5.43h3.58v4.28c.31-.3.6-.64.86-1-.17-1.05-.29-2.35-.35-3.85h-4.56v-1.2h.82c-.03-.43-.13-1.07-.29-1.55l.75-.18h-1.03v-.48h-.49v10.3h-1.29v-2.22c-.92.19-1.85.39-2.63.55l-.26-1.42c.23-.03.49-.07.77-.12v-7.08h-.51v-1.35h4.46v.7h1.27v-1.17h1.31v1.17h1.33v1.13h-1.12l.88.17c-.2.56-.38,1.14-.52,1.56h1.04c-.04-1.24-.07-2.6-.08-4.04h1.35v.97l.83-.44c.53.64,1.04,1.48,1.26,2.07l-1.07.6c-.18-.52-.6-1.29-1.03-1.9,0,.96.01,1.87.04,2.74h2v1.2h-1.95c.03.69.06,1.33.12,1.91.18-.46.34-.94.47-1.43l1.24.27ZM53.12,41.64h-.86v1.4h.86v-1.4ZM53.12,44.29h-.86v1.4h.86v-1.4ZM53.12,48.36v-1.42h-.86v1.57l.86-.16ZM56.18,42.12c.2.49.31,1.16.34,1.59l-.58.14h1.86l-.66-.14c.13-.46.27-1.12.34-1.59h-1.29ZM56.31,46.68v.78h1.2v-.78h-1.2ZM57.51,49.24v-.78h-1.2v.78h1.2Z"/><path class="cls-2" d="M69.79,46.16c.25-.23.49-.48.74-.73-.47-.4-1.09-.86-1.64-1.22l-.95.81c-.4-.42-1.26-1.04-1.95-1.43l1.03-.85c.6.33,1.39.83,1.87,1.24l.6-.71.31.18c.21-.31.43-.68.61-1h-4.25v-1.38h4.58v-1.26h1.59v1.26h4.69v1.38h-5.38l.29.1c-.4.52-.83,1.05-1.21,1.5.23.17.46.32.65.48.44-.53.86-1.05,1.18-1.52l1.21.56c-.71.84-1.59,1.75-2.42,2.54l1.34-.07c-.14-.25-.31-.48-.47-.7l1.09-.45c.21.27.44.58.65.9l.79-.64c.9.44,2.11,1.16,2.72,1.66l-1.12.92c-.44-.39-1.27-.96-2.07-1.42.2.34.35.66.44.94l-1.17.52c-.07-.2-.16-.42-.27-.65-1.57.14-3.16.26-4.41.35l-.16-.9c-.82.4-1.68.81-2.38,1.12l-.73-1.25c.82-.26,2.07-.74,3.26-1.21l.23.96.69-.03ZM72.33,48.19h5.1v1.43h-5.1v2.31h-1.59v-2.31h-4.99v-1.43h4.99v-.83h1.59v.83ZM73.98,44.26c.58-.44,1.31-1.12,1.75-1.65l1.38.66c-.66.61-1.42,1.2-2,1.6l-1.13-.61Z"/></g></svg>