<?xml version="1.0" encoding="UTF-8"?><svg id="_レイヤー_2" xmlns="http://www.w3.org/2000/svg" viewBox="0 0 112.17 112.17"><defs><style>.cls-1{fill:#f4b3c2;}.cls-1,.cls-2,.cls-3{stroke-width:0px;}.cls-2{fill:#fff352;}.cls-4{fill:none;stroke:#4c4948;stroke-linecap:round;stroke-linejoin:round;stroke-width:.75px;}.cls-3{fill:#fff;}</style></defs><g id="_背景2"><circle class="cls-1" cx="56.08" cy="56.08" r="47.67" transform="translate(-11.39 97.78) rotate(-76.72)"/><circle class="cls-4" cx="56.08" cy="56.08" r="55.71"/><path class="cls-4" d="M96.65,87.92c6.93-8.79,11.08-19.88,11.08-31.94s-4.15-23.15-11.08-31.94"/><path class="cls-4" d="M15.52,24.05c-6.93,8.79-11.08,19.87-11.08,31.94s4.15,23.15,11.08,31.94"/><path class="cls-2" d="M40.72,55.69c-.38,1.71-1.03,3.47-1.82,4.61-.34-.34-1.13-.92-1.58-1.19.68-.95,1.19-2.39,1.46-3.83l1.94.41ZM46.55,48.54h-8.75v-1.94h3.29v-2.04h2.18v2.04h3.28v1.94ZM43.31,54.61v4.61c0,.9-.16,1.44-.78,1.76-.59.32-1.35.34-2.39.34-.07-.58-.38-1.39-.63-1.93.59.02,1.26.02,1.46.02.22,0,.29-.05.29-.25v-4.55h-2.63v-5.06h7.17v5.06h-2.48ZM40.57,52.85h3.15v-1.53h-3.15v1.53ZM52.51,59.17c.11,0,.25-.04.31-.11.07-.07.14-.23.16-.41.04-.34.07-1.13.05-2.04.36.34,1.03.68,1.53.85-.04.97-.11,2.03-.23,2.47-.11.47-.31.74-.61.97-.27.2-.68.31-1.1.31h-1.04c-.49,0-.99-.14-1.3-.47-.32-.32-.41-.67-.41-1.82v-3.56c-.54,2.21-1.51,4.38-3.28,6.07-.41-.4-1.28-.99-1.82-1.26.65-.59,1.19-1.24,1.62-1.94l-1.67.63c-.16-.85-.63-2.18-1.06-3.15l1.67-.58c.47.92.92,2.14,1.13,2.99,1.37-2.21,1.8-4.83,1.93-7.06h-1.98v-2.03h2.03v-4.45h2.05v4.45h3.82v2.03h-3.85c-.02.25-.04.5-.05.76h1.4v6.97c0,.09.02.22.07.27.07.09.18.13.29.13h.34ZM52.53,48.67c-.27-.83-.97-2.09-1.73-2.97l1.66-.76c.81.85,1.55,2.02,1.85,2.86l-1.78.86Z"/><path class="cls-2" d="M76.32,52.88c-.49,1.73-1.15,3.28-2,4.63.16.86.36,1.35.58,1.37.22,0,.36-.83.43-2.25.31.43,1.08.99,1.39,1.19-.45,2.92-1.3,3.55-1.91,3.55-.81-.02-1.4-.74-1.84-2.05-.7.81-1.49,1.51-2.36,2.11-.23-.36-.85-1.06-1.22-1.4.45-.27.88-.58,1.28-.9h-2.7v1.04h-1.64v-7.53h4.95v5.92c.43-.41.83-.88,1.19-1.39-.23-1.46-.4-3.26-.49-5.33h-6.32v-1.66h1.13c-.04-.59-.18-1.48-.4-2.14l1.04-.25h-1.42v-.67h-.68v14.26h-1.78v-3.08c-1.28.27-2.56.54-3.64.76l-.36-1.96c.32-.04.68-.09,1.06-.16v-9.81h-.7v-1.87h6.18v.97h1.76v-1.62h1.82v1.62h1.84v1.57h-1.55l1.22.23c-.27.77-.52,1.58-.72,2.16h1.44c-.05-1.71-.09-3.6-.11-5.6h1.87v1.35l1.15-.61c.74.88,1.44,2.05,1.75,2.86l-1.48.83c-.25-.72-.83-1.78-1.42-2.63,0,1.33.02,2.59.05,3.8h2.77v1.66h-2.7c.04.95.09,1.84.16,2.65.25-.63.47-1.3.65-1.98l1.71.38ZM63.55,47.12h-1.19v1.94h1.19v-1.94ZM63.55,50.79h-1.19v1.94h1.19v-1.94ZM63.55,56.43v-1.96h-1.19v2.18l1.19-.22ZM67.78,47.79c.27.68.43,1.6.47,2.2l-.81.2h2.57l-.92-.2c.18-.63.38-1.55.47-2.2h-1.78ZM67.96,54.11v1.08h1.66v-1.08h-1.66ZM69.62,57.65v-1.08h-1.66v1.08h1.66Z"/><path class="cls-2" d="M48.05,81.97c1.28,1.44,3.29,2.27,6.14,2.57-.43.45-.99,1.3-1.26,1.87-3.42-.54-5.56-1.82-6.99-4.05-1.06,1.6-3.06,3.03-6.73,4.02-.25-.47-.87-1.28-1.33-1.73,3.02-.68,4.75-1.62,5.74-2.68h-5.42v-1.85h6.46c.09-.38.14-.76.18-1.13h-4.61v-1.73h4.63v-1.08h-4.92v-1.19h-1.6v-3.83h6.57v-1.57h2.2v1.57h6.59v3.83h-1.44v1.19h-5.26v1.08h4.9v1.73h-4.92c-.02.38-.05.76-.14,1.13h7.11v1.85h-5.91ZM44.86,74.44v-1.03h2.14v1.03h4.48v-1.42h-11.02v1.42h4.39Z"/><path class="cls-2" d="M61.93,80.38c-.16,1.71-.56,3.49-1.06,4.65-.36-.25-1.13-.59-1.57-.76.52-1.06.77-2.67.92-4.18l1.71.29ZM64.02,78.94v7.44h-1.84v-7.29l-2.58.18-.14-1.85,1.3-.07c.27-.32.54-.68.81-1.06-.5-.81-1.33-1.78-2.05-2.52l1.04-1.44c.12.13.27.25.41.38.5-.99,1.01-2.2,1.3-3.12l1.85.65c-.63,1.24-1.37,2.66-2.03,3.67.22.23.41.49.58.7.63-1.01,1.21-2.04,1.62-2.92l1.75.81c-.99,1.51-2.21,3.29-3.35,4.74l1.67-.11c-.18-.41-.38-.81-.58-1.19l1.53-.61c.67,1.21,1.35,2.77,1.55,3.78l-1.6.72c-.05-.29-.14-.61-.25-.97l-.99.09ZM65.71,79.95c.43,1.01.81,2.3.92,3.17l-1.58.52c-.07-.88-.43-2.21-.83-3.24l1.5-.45ZM73.52,83.48c1.1.65,2.34,1.4,3.06,1.91l-1.87,1.01c-.67-.56-1.91-1.44-2.97-2.11l1.12-.81h-3.28l1.21.79c-1.1.85-2.88,1.71-4.32,2.18-.32-.38-.92-.95-1.31-1.33,1.22-.36,2.65-1.03,3.55-1.64h-1.57v-7.38h8.32v7.38h-1.93ZM70.08,71.69h-3.62v-1.3h3.62v-.81h2.14v.81h3.75v1.3h-3.75v.61h3.31v1.24h-3.31v.61h4.09v1.33h-10.3v-1.33h4.07v-.61h-3.19v-1.24h3.19v-.61ZM69.04,78.17h4.38v-.76h-4.38v.76ZM69.04,80.17h4.38v-.77h-4.38v.77ZM69.04,82.15h4.38v-.76h-4.38v.76Z"/><path class="cls-3" d="M32.56,31.96c-.08.19-.17.37-.28.55h3.24v3.46c0,.41-.08.64-.36.76-.27.13-.67.14-1.24.14-.04-.23-.15-.58-.25-.81.36.02.76.02.88.02.12,0,.16-.04.16-.14v-.42h-2.53v1.34h-.83v-3.05c-.28.31-.58.59-.93.82-.12-.18-.38-.48-.54-.64.74-.5,1.32-1.23,1.74-2.04h-1.53v-.78h1.88c.11-.29.2-.57.27-.85l.86.2c-.07.22-.14.43-.22.65h3.42v.78h-3.75ZM34.71,33.25h-2.53v.45h2.53v-.45ZM34.71,34.84v-.46h-2.53v.46h2.53Z"/><path class="cls-3" d="M44.09,36.88h-.87v-.28h-2.37v.27h-.83v-1.99c-.49.28-1.02.5-1.55.69-.1-.23-.31-.57-.48-.74.88-.25,1.72-.67,2.45-1.21-.28-.31-.7-.67-1.07-.97-.24.19-.5.36-.78.53-.12-.2-.4-.51-.59-.65,1.15-.61,1.92-1.46,2.33-2.23l.94.17c-.11.18-.22.36-.35.55h1.59l.14-.04.57.3c-.36.96-.92,1.78-1.62,2.44h2.5v3.15ZM40.33,31.75c-.11.12-.22.24-.34.36.37.27.82.62,1.11.92.39-.39.72-.82.97-1.28h-1.74ZM43.22,35.85v-1.37h-2.37v1.37h2.37Z"/><path class="cls-3" d="M48.7,36.71l-.75-.71c1.35-.47,1.95-1.07,1.95-2.79v-.27h-1.66v.95c0,.31.02.59.03.74h-.98c.02-.14.04-.42.04-.74v-.95h-.59c-.35,0-.6.01-.76.03v-.95c.12.02.41.06.76.06h.59v-.69c0-.2-.02-.42-.04-.63h.99c-.02.13-.04.36-.04.63v.69h1.66v-.74c0-.28-.02-.51-.04-.65h1c-.02.14-.05.37-.05.65v.74h.52c.37,0,.58-.01.77-.05v.93c-.15-.01-.4-.02-.77-.02h-.52v.23c0,1.74-.42,2.79-2.11,3.54Z"/><path class="cls-3" d="M55.13,31.32h3.85c.18,0,.44,0,.69-.01-.01.21-.01.47-.01.68v3.43c0,.27.01.95.01.97h-.97s0-.17,0-.38h-3.38c0,.2,0,.36,0,.38h-.97s.02-.64.02-.98v-3.42c0-.2,0-.48-.01-.68.29,0,.55.01.74.01ZM55.34,35.12h3.38v-2.91h-3.38v2.91Z"/><path class="cls-3" d="M64.8,34.7c1.2-.71,2.11-1.78,2.55-2.72l.55.99c-.53.95-1.46,1.91-2.59,2.59-.71.43-1.61.82-2.6.99l-.59-.92c1.09-.15,2-.51,2.68-.92ZM64.8,32.43l-.71.73c-.36-.39-1.24-1.16-1.75-1.51l.66-.7c.49.33,1.4,1.06,1.81,1.49Z"/><path class="cls-3" d="M70.06,33.64c.32-.34.86-1.06,1.3-1.56.49-.55.95-.6,1.46-.11.48.46,1.04,1.18,1.45,1.63.45.49,1.04,1.12,1.71,1.72l-.72.84c-.5-.48-1.1-1.16-1.54-1.67-.43-.52-.96-1.18-1.29-1.55-.25-.27-.38-.24-.58.02-.28.35-.78,1.04-1.08,1.44-.16.23-.32.48-.44.67l-.85-.88c.21-.16.38-.32.59-.55Z"/><path class="cls-3" d="M81.18,36.6l-.53-.83c.27-.03.46-.07.65-.11.9-.21,1.6-.85,1.6-1.88,0-.97-.53-1.69-1.47-1.85-.1.6-.22,1.24-.42,1.9-.42,1.42-1.02,2.28-1.79,2.28s-1.42-.85-1.42-2.04c0-1.62,1.4-3,3.21-3s2.83,1.21,2.83,2.73-.9,2.52-2.67,2.79ZM79.25,35.03c.29,0,.57-.44.85-1.39.16-.52.29-1.11.37-1.7-1.16.24-1.78,1.26-1.78,2.03,0,.71.28,1.05.55,1.05Z"/></g></svg>