<?xml version="1.0" encoding="UTF-8"?><svg id="_レイヤー_2" xmlns="http://www.w3.org/2000/svg" viewBox="0 0 452.94 131.9"><defs><style>.cls-1{stroke:#4c4948;stroke-linecap:round;stroke-linejoin:round;stroke-width:1.41px;}.cls-1,.cls-2{fill:none;}.cls-3{fill:#ddedf7;}.cls-3,.cls-4,.cls-5,.cls-6,.cls-7,.cls-8,.cls-9{stroke-width:0px;}.cls-4{fill:#ddd9ec;}.cls-5{fill:#bad6e9;}.cls-6{fill:#b6e1f9;}.cls-7{fill:#5976ba;}.cls-8{fill:#ffe33f;}.cls-2{stroke:#8f82bc;stroke-width:.49px;}.cls-9{fill:#fff;}</style></defs><g id="_背景2"><path class="cls-3" d="M103.81,50.99c-1.35.42-2.78-.26-3.18-1.53-2.46-7.76-4.91-15.53-7.37-23.29-.4-1.27.45-2.67,1.9-3.12,85.81-26.58,177.7-26.58,263.51,0,1.45.45,2.3,1.85,1.9,3.12-2.46,7.76-4.91,15.53-7.37,23.29-.4,1.27-1.83,1.95-3.18,1.53-80.18-24.83-166.03-24.83-246.21,0Z"/><path class="cls-3" d="M99.65,54.83c-2.13-6.6-4.27-13.2-6.4-19.81-8.13,2.63-16.19,5.5-24.19,8.62-.85.33-1.49,1.03-1.7,1.85-.21.82.04,1.65.65,2.2,2.83,2.56,5.62,5.15,8.38,7.76.5.47.75,1.13.7,1.82-.3,3.78-.57,7.55-.79,11.32-.05.82.34,1.6,1.02,2.06.69.46,1.58.56,2.37.25,12.57-4.9,25.32-9.15,38.21-12.75.88-.24.81-1.48-.1-1.58-5.98-.72-12.03-1.29-18.14-1.73Z"/><path class="cls-5" d="M123.68,54.47c-.07.02-.13.02-.2.01-4.15-.56-8.33-1.05-12.54-1.47-.24-.02-.42-.2-.44-.43-.02-.23.14-.44.37-.51,3.77-1.1,7.56-2.15,11.36-3.15.27-.07.55.08.61.34.4,1.54.8,3.08,1.21,4.62.04.16,0,.32-.12.45-.07.07-.15.12-.25.15Z"/><path class="cls-3" d="M376.76,57.27c-.06-.68.2-1.35.7-1.82,2.76-2.61,5.55-5.19,8.38-7.75.62-.56.86-1.39.65-2.2-.21-.82-.85-1.51-1.7-1.85-8-3.12-16.07-5.99-24.19-8.62-2.13,6.6-4.27,13.2-6.4,19.81-6.11.43-12.16,1.01-18.15,1.73-.9.11-.98,1.34-.1,1.58,12.89,3.6,25.64,7.85,38.21,12.75.79.31,1.68.22,2.37-.25.68-.46,1.07-1.24,1.02-2.06-.22-3.77-.49-7.54-.79-11.32Z"/><path class="cls-5" d="M330.27,54.5c-.09-.02-.18-.07-.25-.15-.11-.12-.16-.29-.12-.45.4-1.54.8-3.08,1.21-4.62.07-.26.34-.41.61-.34,3.8,1,7.58,2.05,11.35,3.15.23.07.39.28.37.51-.02.23-.2.41-.44.43-4.21.42-8.39.91-12.54,1.47-.07.01-.14,0-.2-.01Z"/><path class="cls-1" d="M366.98,34.6c8.89,3.01,17.7,6.31,26.43,9.91-4.79,4.17-9.48,8.41-14.07,12.71.47,6.28.84,12.54,1.09,18.79-17.87-7.36-36.13-13.39-54.65-18.08"/><path class="cls-1" d="M335.01,56.69c6.32-.77,12.71-1.39,19.18-1.85"/><path class="cls-1" d="M328.44,47.42c-.89,3.5-1.77,7.01-2.66,10.51"/><path class="cls-1" d="M99.65,54.83c-3.49-10.81-6.99-21.61-10.48-32.42"/><path class="cls-1" d="M346.84,52.53c-77.74-23.54-160.73-23.68-238.52-.4"/><path class="cls-1" d="M97.47,19.82c87.18-26.33,180.43-25.46,267.2,2.59-3.49,10.81-6.99,21.61-10.48,32.42"/><path class="cls-1" d="M87.37,34.43c-9.06,3.05-18.05,6.41-26.94,10.08,4.79,4.17,9.48,8.41,14.07,12.71-.47,6.28-.84,12.54-1.09,18.79,17.87-7.36,36.13-13.39,54.65-18.08"/><path class="cls-1" d="M118.86,56.69c-6.33-.78-12.74-1.4-19.21-1.86"/><path class="cls-1" d="M125.4,47.42c.89,3.5,1.77,7.01,2.66,10.51"/><path class="cls-7" d="M122.23,29.8l.53,2.13c-5.06,1.26-10.1,2.62-15.12,4.07-.2-.7-.41-1.41-.61-2.11,5.05-1.46,10.11-2.82,15.2-4.1Z"/><path class="cls-7" d="M140.31,32.58c.14.65.27,1.3.41,1.95-4.9,1.02-9.79,2.13-14.66,3.33-.16-.65-.32-1.29-.48-1.94,2.1-.52,4.21-1.02,6.31-1.5-.26-1.11-.51-2.23-.77-3.34-1.49.34-2.98.69-4.47,1.05-.15-.64-.31-1.27-.46-1.91,1.5-.36,2.99-.71,4.49-1.06-.22-.97-.45-1.95-.67-2.92-1.15.26-2.3.53-3.45.81-.27,1.03-.58,2-.97,2.77-.47-.22-1.5-.6-2.06-.74.95-1.71,1.49-4.26,1.52-6.65.73-.02,1.45-.03,2.18-.04-.05.85-.14,1.7-.24,2.53.86-.2,1.72-.4,2.58-.6-.23-1-.46-1.99-.69-2.99.7-.16,1.41-.32,2.11-.48.22,1,.45,2,.67,2.99,1.89-.42,3.77-.83,5.66-1.23.14.65.27,1.29.41,1.94-1.88.4-3.76.8-5.64,1.23.22.98.44,1.95.66,2.93,1.65-.37,3.31-.73,4.97-1.08.14.64.27,1.28.41,1.92-1.65.35-3.3.71-4.94,1.08.25,1.11.5,2.23.75,3.34,2.12-.48,4.24-.93,6.37-1.38Z"/><path class="cls-7" d="M151.33,28.9c1.39,1.07,3.38,1.37,6.2,1.09-.35.52-.71,1.45-.86,2.04-3.45.17-5.63-.55-7.33-2.51-.55,1.96-2.15,3.48-6.05,4.96-.25-.51-.88-1.23-1.33-1.59,3.03-1.05,4.45-2.01,5.09-3.19-1.74.33-3.48.68-5.22,1.03-.12-.58-.24-1.16-.35-1.74,2-.41,4-.8,6-1.18,0-.33,0-.68-.02-1.05-2.03.38-4.06.78-6.09,1.19-.12-.59-.24-1.18-.36-1.77,2.12-.43,4.25-.85,6.38-1.25-.05-.29-.11-.57-.16-.86-1.65.31-3.31.63-4.96.96-.11-.56-.22-1.11-.33-1.67,1.66-.33,3.32-.65,4.98-.96-.05-.28-.11-.57-.16-.85-1.92.36-3.84.74-5.76,1.12-.12-.58-.24-1.17-.35-1.75.97-.2,1.95-.39,2.92-.58-.31-.42-.75-.88-1.17-1.21.55-.35,1.11-.69,1.67-1.04.63.45,1.29,1.14,1.62,1.67-.12.08-.24.16-.36.24,1.4-.27,2.8-.53,4.2-.78-.17-.02-.33-.03-.5-.05.31-.61.65-1.54.8-2.17.76.05,1.52.1,2.27.15-.31.66-.62,1.27-.88,1.76,1.05-.18,2.09-.36,3.14-.54.1.59.2,1.18.3,1.77-1.95.33-3.9.67-5.84,1.03.05.29.1.57.16.85,1.72-.31,3.44-.62,5.15-.91.1.56.19,1.12.29,1.68-1.71.29-3.42.59-5.13.91.05.29.1.57.16.86,2.15-.39,4.31-.77,6.46-1.13.1.59.2,1.19.3,1.78-2.21.37-4.43.76-6.64,1.16.03.36.04.7.04,1.05,2.32-.43,4.63-.83,6.95-1.22.1.58.19,1.17.29,1.75-1.84.31-3.67.62-5.5.95Z"/><path class="cls-7" d="M166.11,20.17c2.1,1.92,4.91,3.26,7.57,3.79-.39.56-.74,1.37-1,1.98-.63-.19-1.31-.43-1.99-.7.2,1.52.4,3.04.61,4.56-.66.09-1.33.18-1.99.27-.02-.15-.04-.3-.06-.46-1.81.25-3.62.51-5.43.78.02.16.05.31.07.47-.63.1-1.26.19-1.89.29-.23-1.47-.46-2.94-.69-4.41-.54.45-1.11.86-1.68,1.23-.33-.45-.93-1.15-1.39-1.52,2.53-1.52,4.83-4.02,5.83-5.99.68-.1,1.36-.2,2.04-.29ZM159.79,20.47c-.65.1-1.31.21-1.96.31-.19-1.21-.39-2.41-.58-3.62,2.05-.33,4.11-.65,6.16-.95-.07-.45-.13-.9-.2-1.35.7-.1,1.39-.2,2.09-.3.06.45.13.9.19,1.35,2.1-.3,4.19-.58,6.29-.85.15,1.21.31,2.42.46,3.64-.69.09-1.38.18-2.06.27-.08-.6-.16-1.21-.24-1.81-3.48.46-6.96.96-10.44,1.51.09.6.19,1.2.28,1.8ZM163.79,19.02c-.84,1.67-2.31,3.36-3.71,4.49-.35-.38-1.17-1.07-1.63-1.38,1.34-.89,2.62-2.19,3.29-3.48.68.12,1.36.24,2.05.37ZM168.99,27.83c-.08-.6-.16-1.19-.25-1.79-1.83.25-3.65.51-5.47.79.09.6.18,1.19.27,1.79,1.82-.27,3.63-.54,5.45-.79ZM168.64,24.27c-1.25-.66-2.38-1.39-3.19-2.15-.52.92-1.33,1.95-2.3,2.94,1.83-.28,3.66-.54,5.49-.79ZM167.27,17.82c1.54.65,3.61,1.7,4.66,2.53-.45.5-.9,1.01-1.34,1.52-.98-.83-2.97-1.96-4.57-2.66.42-.46.84-.92,1.26-1.38Z"/><path class="cls-7" d="M176.99,21.88c1.24-.15,2.47-.28,3.71-.42.2,1.82.39,3.64.59,5.46-1.22.13-2.44.27-3.67.41.04.35.08.7.12,1.05-.58.07-1.16.14-1.74.21-.51-4.24-1.03-8.47-1.54-12.71.47-.06.94-.11,1.41-.17.11-.83.2-1.81.19-2.54.76-.03,1.52-.05,2.28-.07-.2.83-.43,1.7-.65,2.41.72-.08,1.43-.16,2.15-.24.19,1.71.37,3.41.56,5.12-1.19.13-2.37.26-3.55.4.04.37.09.73.13,1.1ZM178.26,17.16c-.6.07-1.2.14-1.8.21.07.58.13,1.15.2,1.73.6-.07,1.19-.14,1.79-.21-.06-.58-.13-1.15-.19-1.73ZM177.19,23.58c.08.69.16,1.38.24,2.07.64-.08,1.29-.15,1.93-.22-.08-.69-.15-1.38-.23-2.07-.65.07-1.29.15-1.94.22ZM185.91,14.77c.05.5.1,1.01.14,1.51,1.07-.1,2.14-.2,3.22-.29.21,2.45.43,4.89.64,7.34.07.78,0,1.29-.46,1.63-.44.35-1.02.42-1.87.5-.08-.52-.38-1.25-.66-1.68.42-.02.84-.06.97-.07.15-.01.2-.07.18-.24-.17-1.83-.33-3.65-.5-5.48-.45.04-.89.08-1.34.12.31,3.3.62,6.59.94,9.89-.61.06-1.22.12-1.84.18-.33-3.3-.65-6.59-.98-9.89-.42.04-.84.08-1.25.13.25,2.43.5,4.86.74,7.29-.6.06-1.2.12-1.8.19-.32-3.03-.64-6.07-.97-9.1,1.03-.11,2.06-.22,3.09-.32-.05-.5-.1-1.01-.15-1.51-1.23.12-2.46.25-3.68.38-.07-.61-.13-1.22-.2-1.83,3.09-.33,6.18-.63,9.27-.9.05.61.11,1.22.16,1.83-1.22.1-2.44.21-3.65.33Z"/><path class="cls-7" d="M197.05,16.82c1.34-.91,2.77-1.74,3.55-2.25.63-.41,1.11-.73,1.53-1.13.43.64.86,1.27,1.29,1.91-.49.33-1.02.65-1.63,1.01-1.02.59-3.1,1.71-4.57,2.82-1.34,1.03-2.21,2.07-2.12,3.26.09,1.22,1.29,1.78,3.61,1.62,1.72-.12,3.96-.51,5.43-.96.03.82.07,1.63.1,2.45-1.4.33-3.15.6-5.31.74-3.3.22-5.88-.51-6.12-3.43-.15-1.87.91-3.38,2.45-4.7-.88-1.39-1.84-3.14-2.75-4.88.69-.35,1.38-.69,2.08-1.03.78,1.72,1.7,3.29,2.47,4.56Z"/><path class="cls-7" d="M210.09,13.73c0,1.84.02,5.66.1,7.77.07,1.72,1.09,2.24,2.39,2.2,2.75-.09,4.47-1.75,5.64-3.63.52.61,1.04,1.23,1.56,1.85-1.05,1.65-3.36,3.98-7.14,4.1-2.72.09-4.53-1.05-4.67-3.96-.1-2.28-.13-6.77-.19-8.23-.04-.8-.14-1.61-.32-2.29.92-.03,1.84-.06,2.77-.08-.07.72-.13,1.59-.14,2.27Z"/><path class="cls-7" d="M220.93,12.88c1.42-.14,4.24-.43,7.38-.69,1.77-.13,3.66-.23,4.86-.25,0,.73,0,1.45-.01,2.18-.92,0-2.39-.01-3.3.19-2.07.53-3.6,2.75-3.59,4.78,0,2.79,2.59,3.81,5.41,4-.27.78-.54,1.55-.81,2.33-3.47-.27-6.78-2.17-6.81-5.85-.02-2.46,1.35-4.41,2.49-5.28-1.61.17-5.08.57-7.05,1.04-.09-.78-.18-1.55-.26-2.33.69-.03,1.35-.07,1.69-.11Z"/><path class="cls-7" d="M238.02,18.57c-.68-.51-2.12-1.35-3.11-1.91.37-.49.74-.99,1.12-1.48.93.48,2.42,1.25,3.16,1.73-.39.55-.78,1.1-1.16,1.66ZM234.99,24.64c.91-1.26,2.24-3.34,3.31-5.3.48.47.95.93,1.43,1.4-.95,1.76-2.05,3.68-3.1,5.31-.54-.47-1.09-.94-1.63-1.41ZM238.87,13.94c-.65-.53-2.09-1.37-3.07-1.95.39-.48.79-.96,1.18-1.44.95.5,2.43,1.29,3.15,1.79-.42.53-.84,1.07-1.26,1.6ZM246.29,17.53c-.03.72-.06,1.43-.1,2.15,1.15.05,2.29.11,3.44.17-.12,2.26-.24,4.53-.36,6.79-.62-.03-1.25-.07-1.87-.1,0-.2.02-.41.03-.61-1.66-.08-3.32-.15-4.99-.21,0,.23-.02.47-.03.7-.6-.02-1.19-.04-1.79-.06.07-2.29.15-4.59.22-6.88,1.15.04,2.29.08,3.44.13.03-.72.06-1.43.09-2.15-1.5-.06-3.01-.11-4.51-.16.02-.65.04-1.29.06-1.94,1.51.05,3.02.1,4.53.16.03-.66.05-1.33.08-1.99-1.12.12-2.27.2-3.33.27-.07-.5-.32-1.29-.54-1.76,2.93-.2,6.18-.62,8.11-1.27.5.56.99,1.12,1.48,1.68-1.12.35-2.42.63-3.77.82-.03.78-.07,1.55-.1,2.33,1.44.06,2.88.14,4.32.22-.04.65-.07,1.29-.11,1.94-1.43-.08-2.87-.15-4.3-.21ZM247.64,21.59c-1.68-.08-3.36-.15-5.04-.21-.03.83-.06,1.67-.09,2.5,1.67.06,3.34.13,5.01.21.04-.83.08-1.67.12-2.5Z"/><path class="cls-7" d="M266.88,27.56c-2.24-.21-4.47-.41-6.71-.58-.01.15-.02.29-.03.44-.59-.05-1.18-.09-1.77-.14.13-1.73.26-3.46.39-5.18-.24.22-.47.43-.72.61-.23-.34-.68-.92-1.02-1.27-.32-.02-.65-.05-.97-.07-.05.8-.11,1.6-.16,2.4.63-.09,1.26-.2,1.88-.3.02.58.04,1.17.06,1.75-2.17.37-4.47.77-6.21,1.06-.07-.62-.15-1.25-.23-1.87.26-.03.52-.06.78-.09.11-1.91.23-3.81.34-5.72.5.03.99.06,1.49.09-.11,1.8-.23,3.61-.34,5.41.21-.03.42-.06.63-.1.14-2.14.28-4.29.41-6.43-.66-.04-1.31-.08-1.97-.12.11-1.89.23-3.79.34-5.68,1.69.1,3.39.21,5.08.33-.14,1.89-.27,3.79-.41,5.68-.48-.03-.96-.07-1.44-.1-.05.66-.09,1.33-.14,1.99.53.04,1.07.07,1.6.11-.02.28-.04.56-.06.83.87-.86,1.64-1.97,2.14-2.97-.51-.04-1.02-.08-1.53-.11.03-.46.07-.92.1-1.38.85.06,1.7.13,2.55.19.02-.23.04-.46.05-.7-.77-.06-1.53-.12-2.3-.18.03-.45.07-.91.1-1.36.77.06,1.54.11,2.31.18.02-.23.04-.45.05-.68-.83-.07-1.67-.13-2.5-.19.03-.46.07-.93.1-1.39,1.41.1,2.83.21,4.24.33-.15,1.83-.3,3.67-.46,5.5-.48-.04-.96-.08-1.44-.12.24.09.47.17.71.26-.16.3-.34.61-.53.92.57.05,1.14.09,1.71.14.2-.38.39-.77.54-1.12-.16-.01-.32-.03-.47-.04.04-.46.08-.92.12-1.38.87.07,1.73.15,2.6.23.02-.23.04-.46.06-.7-.8-.07-1.6-.14-2.4-.21.04-.45.08-.91.11-1.36.8.07,1.6.14,2.41.21.02-.23.04-.45.06-.68-.87-.08-1.74-.15-2.62-.23.04-.46.08-.93.12-1.39,1.46.12,2.92.25,4.37.39-.17,1.83-.34,3.67-.52,5.5-.86-.08-1.73-.16-2.59-.24.24.08.48.16.71.23-.22.32-.45.63-.66.93.86.08,1.72.15,2.58.24-.05.52-.1,1.04-.15,1.56-1-.09-2-.18-3-.27-.02.25-.04.5-.07.75.81.07,1.61.14,2.42.22-.04.44-.08.88-.12,1.32-.8-.07-1.61-.15-2.41-.22-.02.25-.04.5-.07.75.8.07,1.6.14,2.41.22-.04.44-.08.87-.12,1.31-.8-.07-1.6-.15-2.4-.22-.02.26-.05.52-.07.78,1.06.09,2.12.19,3.18.29-.05.54-.1,1.07-.15,1.61ZM254.42,15.91c.56.04,1.12.07,1.68.11.05-.79.11-1.58.16-2.36-.56-.04-1.13-.08-1.69-.11-.05.79-.1,1.58-.15,2.36ZM262.56,20.61c-.63-.05-1.26-.1-1.89-.15-.02.25-.04.5-.06.75.63.05,1.26.1,1.88.15.02-.25.04-.5.06-.75ZM262.39,22.68c-.63-.05-1.25-.1-1.88-.15-.02.25-.04.5-.06.75.62.05,1.25.1,1.87.15.02-.25.04-.5.06-.75ZM260.29,25.37c.62.05,1.24.1,1.86.15.02-.26.04-.52.07-.78-.62-.05-1.24-.1-1.87-.15-.02.26-.04.52-.06.78Z"/><path class="cls-7" d="M279.43,15.55c-.02.13-.04.32-.08.52,1.72.21,4.06.47,4.94.61-.09.66-.19,1.33-.28,1.99-1.01-.18-2.58-.43-4.89-.71-.1.86-.2,1.8-.29,2.54.33.69.43,1.51.32,2.39-.27,2.2-1.89,4.84-6.04,5.54-.52-.66-1.05-1.33-1.58-1.99,1.72-.18,3.24-.57,4.28-1.48-.24.02-.49.03-.76,0-1.28-.15-2.75-1.37-2.54-3.43.2-1.92,1.88-3.01,3.72-2.79.24.03.45.07.67.13.04-.37.09-.76.11-1.14-2.57-.26-5.22-.44-7.32-.53.05-.69.1-1.37.15-2.06,1.94.19,5.05.45,7.37.69,0-.22.03-.39.03-.53.03-.7.03-1.28,0-1.49.83.1,1.65.19,2.48.29-.07.27-.25,1.17-.3,1.44ZM275.68,23.14c.7.08,1.39-.39,1.33-1.91-.19-.42-.57-.67-1.03-.72-.66-.07-1.35.31-1.45,1.21-.09.78.48,1.34,1.15,1.42Z"/><path class="cls-7" d="M289.29,16.22c.9.13,4.56.61,5.54.68.71.04,1.11.05,1.32.02.29.56.58,1.12.86,1.68-.43.19-.88.36-1.31.58-1.02.49-3.02,1.7-4.21,2.38.58-.05,1.09-.02,1.63.06,2.86.45,4.73,2.59,4.32,5.05-.45,2.66-2.77,4.42-6.76,3.8-2.29-.35-3.87-1.67-3.63-3.36.19-1.37,1.59-2.46,3.37-2.2,2.07.31,3.12,1.79,3.1,3.43.99-.34,1.58-1.04,1.75-2.07.25-1.51-1.09-2.79-3.07-3.09-2.57-.39-4.45.73-6.52,2.54-.43-.6-.87-1.2-1.3-1.8,1.32-.8,3.59-2.24,4.71-2.92,1.05-.64,3.02-1.79,3.97-2.39-.87-.12-3.22-.37-4.13-.44-.46-.03-1.01-.06-1.41-.06.08-.73.16-1.47.24-2.2.47.14,1.06.24,1.54.3ZM290.57,28.49c.35.05.66.08.97.1.07-1.11-.44-1.91-1.34-2.05-.63-.09-1.09.23-1.15.66-.09.62.53,1.14,1.52,1.3Z"/><path class="cls-7" d="M307.01,20.07c-.07.18-.16.39-.25.61.97.04,1.95.04,2.92,0-.13.7-.27,1.39-.4,2.09-1.05.04-2.23,0-3.38-.07-.28.69-.59,1.4-.9,2.05-1.04,2.24-2.77,5.45-4.04,7.29-.71-.4-1.43-.79-2.15-1.19,1.27-1.51,3.16-4.81,4.2-7.05.2-.43.42-.88.61-1.35-.39-.05-.76-.1-1.12-.16-.81-.14-1.44-.29-2.02-.42.1-.7.21-1.41.31-2.11.85.25,1.41.38,2.11.51.49.09,1,.16,1.53.22.13-.36.24-.67.33-.93.18-.61.34-1.29.36-1.68.85.22,1.71.45,2.56.68-.22.43-.51,1.15-.65,1.51ZM307.29,29.54c-.14.74.25,1.38,2.01,1.73,1.1.22,2.27.31,3.5.34-.17.71-.35,1.41-.52,2.12-.94-.07-2.08-.18-3.39-.44-2.75-.54-4.07-1.79-3.75-3.48.14-.77.46-1.54.72-2.19.65.19,1.29.38,1.94.58-.22.44-.43.98-.5,1.34ZM310.95,24.27c.96.19,1.95.44,2.92.74-.15.66-.31,1.33-.46,1.99-.81-.27-1.81-.58-2.83-.78-1.13-.22-2.18-.38-3.25-.46.12-.65.25-1.31.37-1.96.95.09,2.18.24,3.25.46Z"/><path class="cls-7" d="M327.06,24.68c-.1.2-.2.39-.3.59,2.49,1.22,3.7,3.75,2.99,6.65-.87,3.51-3.83,4.9-7.33,4.64-.26-.74-.53-1.47-.8-2.21,3.65.52,5.53-.99,6.03-3.06.45-1.84-.25-3.47-1.82-4.3-1.03,1.79-2.21,3.53-3.48,4.76.22.42.43.84.68,1.21-.66.31-1.31.63-1.96.95-.15-.26-.3-.52-.41-.77-1.37.97-2.41,1.31-3.62,1.05-1.36-.29-2.36-1.72-1.91-3.88.4-1.9,1.78-3.74,3.59-4.74-.07-.49-.11-.96-.16-1.45-.06-.64-.13-1.21-.3-1.88.78-.07,1.57-.14,2.36-.2-.02.57,0,1.15.02,1.68.01.34.04.71.08,1.08,1.41-.35,2.73-.39,4.03-.14.13-.27.24-.52.34-.76.19-.46.41-1.16.5-1.55.76.25,1.52.5,2.27.76-.24.42-.58,1.19-.78,1.58ZM317.74,32.07c.59.13,1.31-.25,2.09-.87-.35-.93-.63-2.18-.84-3.54-.98.74-1.68,1.83-1.91,2.86-.18.82.06,1.41.65,1.54ZM321.5,29.65c.84-.93,1.63-2.11,2.3-3.25-1.05-.12-2.01.03-2.9.32.15,1.12.35,2.18.6,2.93Z"/><path class="cls-7" d="M336.38,27.09c-.51,1.05-1.94,4.2-2.36,5.85-.08.31-.17.75-.21,1.09.39-.5.8-1.01,1.18-1.49.27.36.54.72.81,1.07-.82,1.25-1.83,2.9-2.23,3.73-.11.23-.24.59-.28.75-.05.18-.1.45-.14.69-.64-.12-1.28-.24-1.92-.35-.03-1.22.17-3.32.73-5.56.62-2.48,1.85-5.14,2.36-6.37.17-.45.43-1.05.58-1.58.77.27,1.53.53,2.29.8-.22.31-.66,1.08-.8,1.36ZM338.33,36.23c-.2.72.3,1.33,1.96,1.79,1.45.4,2.69.61,4.2.72-.2.74-.4,1.48-.6,2.22-1.11-.1-2.43-.36-4.26-.86-2.78-.77-3.87-2.12-3.42-3.82.17-.64.44-1.27.85-2.07.61.23,1.23.46,1.84.69-.28.51-.45.88-.57,1.33ZM346.63,29.48c-.2.7-.4,1.41-.6,2.11-2.08-.4-5.09-1.22-7.13-1.97.19-.7.38-1.41.56-2.11,1.98.82,5.31,1.66,7.17,1.96Z"/><path class="cls-4" d="M13.4,127.54c-1.16,1.07-3.12.68-4.63-1.02-1.55-1.7-1.53-3.68-.36-4.75,6.38-5.67,7.72-9.84,9.14-24.96.13-1.5,1.84-2.67,4.22-2.67s3.88,1.21,3.75,2.71c-1.65,17.69-3.18,22.49-12.12,30.68ZM31.68,128.85c-1.41.58-3.04-.24-4.19-2.13-1.14-1.94-.84-3.73-.04-5.04.46-.78.68-1.7.81-3.2l2.04-23.31c.13-1.5,1.79-2.71,4.18-2.71s3.84,1.16,3.71,2.67l-2.02,23.12c2.48-1.12,6.67-3.93,10.18-6.88,1.21-1.02,3.23-.73,4.46,1.26,1.24,1.94,1.21,3.97-.04,4.94-5.97,4.8-12.57,8.58-19.08,11.29Z"/><path class="cls-4" d="M84.64,122.26c-1.71,1.74-3.73,2.08-4.67,1.07l-7.16-7.71-1.16,13.28c-.13,1.45-1.79,2.67-4.12,2.67s-3.83-1.21-3.71-2.67l.78-8.92c-2.66,1.45-5.66,2.96-9.15,4.55-1.52.73-3.38-.34-4.24-2.67-.86-2.42-.05-4.46,1.52-5.09,13.39-5.14,18.02-8.62,20.49-11.19h-17.46c-1.46,0-2.5-1.5-2.28-3.92.2-2.33,1.51-3.88,2.97-3.88h16.1-.15c-3.53-2.42-6.02-3.49-8.24-4.27-1.28-.44-1.85-2.23-.66-4.17,1.2-1.99,2.74-3,4.07-2.62,2.33.63,4.73,1.55,9.4,4.31,1.25.73,1.27,2.71-.08,4.8-.62.97-1.41,1.65-2.21,1.94h.1c2,0,3.22-.1,4.07-.34.55-.14,1.13-.19,1.62-.14,1.14.29,1.92.87,3.22,2.08s1.67,2.62,1,3.63c-1.73,2.57-3.7,5.04-6.4,7.51l7.36,7.03c1.03.97.72,2.91-1,4.7Z"/><path class="cls-4" d="M124.29,107.24h-6.57c-1.5,9.89-4.16,14.2-13.16,23.6-1.07,1.11-3.1.97-4.87-.48-1.81-1.5-2.09-3.34-.87-4.51,6.95-6.59,9.45-10.13,10.97-18.61h-9.15l-.91,10.42c-.13,1.45-1.84,2.67-4.17,2.67s-3.88-1.21-3.75-2.67l.91-10.42h-5.94c-1.41,0-2.4-1.5-2.21-3.68.19-2.23,1.45-3.73,2.86-3.73h5.93l.64-7.37c.14-1.55,1.84-2.71,4.18-2.71s3.89,1.12,3.76,2.62l-.65,7.46h9.49c.24-2.18.46-4.65.7-7.46.13-1.45,1.79-2.67,4.12-2.62,2.29,0,3.79,1.21,3.65,2.71-.24,2.71-.45,5.18-.69,7.37h6.37c1.41,0,2.4,1.5,2.2,3.73-.19,2.18-1.44,3.68-2.85,3.68Z"/><path class="cls-4" d="M123.62,128.85c-1.56.58-3.22-.48-3.99-2.71-.77-2.28.03-4.26,1.63-4.75,13.3-4.17,22.71-9.88,33.96-19.58,1.16-1.02,3.12-.68,4.37,1.21,1.29,1.89,1.22,3.83.06,4.85-14.59,12.26-20.77,15.51-36.03,20.98ZM137.28,105.01c-1.77,1.84-3.74,2.18-4.77,1.16-5.28-5.28-7.59-7.22-9.02-8.14-1.1-.73-1.39-2.42-.06-4.26,1.32-1.79,3-2.57,4.16-1.99,2.61,1.36,4.52,2.81,10.74,8.43,1.03.97.66,3.01-1.05,4.8Z"/><path class="cls-4" d="M186.04,128.75c-1.95,1.7-3.96,1.94-4.94.87l-8.99-10.13c-3.6,3.29-8.28,6.83-14.68,11-1.34.87-3.14.34-4.6-1.41-1.45-1.75-1.17-3.83.16-4.65,18.64-11.73,22.67-19.48,23.74-23.94h-18.05c-1.51,0-2.54-1.5-2.33-3.92.2-2.33,1.51-3.92,3.02-3.92h17.07c1.85,0,2.88-.1,3.53-.29.55-.15,1.19-.24,1.71-.15,1.05.24,1.79.73,3.01,1.79,1.22,1.07,1.7,2.23,1.32,3.25-2.38,6.59-4.37,11.53-8.5,16.57l9.81,10.18c1.03,1.07.51,3.1-1.29,4.75Z"/><path class="cls-4" d="M192.94,129.97c-.73,1.07-2.31,1.41-4.16.87-1.85-.53-2.99-1.41-3.02-2.71-.08-3.59.1-11.15.85-20.3.37-4.17,2.07-13.08,3.18-17.98.38-1.6,2.21-2.47,4.63-2.28,2.46.24,3.58,1.89,3.16,3.34-1.52,5.09-3.04,13.04-3.37,16.82-.61,6.98-.65,10.18-.57,11.53.01.39.54.53.86.19.54-.63,1.28-1.84,1.92-3,.46-.82,1.7-1.07,2.74-.19,1.09.87,1.38,1.99.87,2.81-2.69,4.07-5.52,8.63-7.08,10.9ZM224.31,126.67c-1.07-.58-2.09-1.16-3.07-1.65-.99,3.49-4.77,6.16-10.9,6.16-7.93,0-9.85-3.63-9.45-8.19.36-4.07,4.23-8.29,10.16-8.29,1.02,0,2.03.1,3.05.19.14-2.76.29-6.15.5-9.64-3.38.19-6.69.29-9.4.14-1.6-.05-2.62-1.79-2.4-4.26.17-2.52,2.28-3.78,3.83-3.68,2.22.15,5.14.15,8.32,0,.09-2.76.21-5.23.23-7.08.04-1.55,1.72-2.96,4.25-2.96s4.08,1.21,4.04,2.76c-.06,1.84-.21,4.07-.37,6.49,1.43-.19,2.81-.39,4.09-.63,1.53-.24,2.97,1.11,2.85,3.54-.12,2.42-1.24,4.12-2.77,4.36-1.33.19-2.91.44-4.63.63-.24,4.41-.53,8.82-.73,12.26,1.98.73,4.09,1.65,6.48,2.71,1.35.63,1.62,2.62.41,4.8-1.26,2.18-3.19,3.05-4.48,2.33ZM210.25,121.19c-1.9,0-2.87,1.07-2.93,1.79-.12,1.36.94,2.08,2.88,2.08s3.03-.78,3.46-3.39c-1.19-.34-2.29-.48-3.41-.48Z"/><path class="cls-4" d="M237.72,118.58c-1.21,3.88-2.33,6.64-3.51,8.97-.23.44-.86.92-1.78.92-1.51,0-3.19-1.31-3.05-2.91.03-.29.1-.58.21-.78,1.21-2.18,2.35-5.14,3.08-7.41.2-.63.85-1.41,2.21-1.41s3.05.78,2.91,2.33c-.01.15-.07.2-.07.29ZM253.84,96.72h-19.51c-1.56,0-2.27-.78-2.06-3.15.21-2.37,1.06-3.2,2.61-3.2h6.03l.07-.78c.17-1.94,1.23-2.91,4.15-2.91s3.86.97,3.69,2.91l-.07.78h5.64c1.56,0,2.31.82,2.1,3.2-.21,2.38-1.1,3.15-2.66,3.15ZM249.04,113.68h-2.53l-1.14,12.99c-.28,3.2-2.01,5.18-5.46,5.18h-2.48c-1.56,0-2.46-.78-2.25-3.15.2-2.33,1.42-2.91,2.2-2.91h.39c.58,0,.95-.34,1.01-1.02l.97-11.1h-3.79c-2.04,0-3.51-1.6-3.33-3.63l.67-7.66c.18-2.04,1.92-3.63,3.97-3.63h13.08c2.04,0,3.51,1.6,3.33,3.63l-.67,7.66c-.18,2.04-1.92,3.63-3.97,3.63ZM246.79,104.91c.04-.44-.27-.78-.71-.78h-5.5c-.44,0-.81.34-.85.78l-.23,2.62c-.04.44.27.78.71.78h5.5c.44,0,.81-.34.85-.78l.23-2.62ZM269.35,131.22h-3.65c-2.92,0-4.16-1.41-3.9-4.31l.83-9.45c-1.64,4.26-3.68,8.67-6.16,12.6-.33.48-1.06,1.02-2.04,1.02-1.8,0-3.84-1.74-3.67-3.59.1-1.16,1.79-3.25,2.42-4.31-.78.63-2.4,1.31-3.37,1.31-.83,0-1.23-.44-1.49-1.31l-1.26-4.51c-.07-.29-.09-.58-.07-.82.12-1.41,2.53-2.18,3.79-2.18.88,0,1.37.44,1.64,1.26l1.36,3.97c.12.34.19.63.17.87,2.75-5.28,4.86-11.68,5.98-18.27h-1.85c-1.8,0-2.6-.87-2.36-3.63.24-2.76,1.2-3.68,3-3.68h2.09l.61-6.98c.14-1.65,1.05-2.52,3.62-2.52s3.38.87,3.23,2.52l-.61,6.98h7c1.8,0,2.64.92,2.4,3.68-.24,2.76-1.24,3.63-3.04,3.63h-7.39c-.17.82-.34,1.65-.51,2.52h.58c2.33,0,3.05.77,2.91,2.28l-1.36,15.56c-.05.58.12.87.7.87h1.22c1.9,0,.43-5.52,2.96-5.52,1.31,0,2.95,1.36,2.83,2.71v.05c-.7,7.9-3,9.26-6.6,9.26ZM272.86,94.98c-.88,0-1.32-.44-1.54-1.26l-1-3.54c-.07-.29-.1-.53-.08-.78.12-1.36,2.42-2.08,3.59-2.08.88,0,1.32.44,1.54,1.26l1.05,3.54c.07.29.1.53.08.78-.12,1.36-2.47,2.08-3.64,2.08Z"/><path class="cls-4" d="M296.03,94.3l-3.12,35.62c-.12,1.36-.9,1.99-2.95,1.99s-2.72-.63-2.6-1.99l.28-3.2c-1.25.44-6.66,2.18-7.63,2.18-1.85,0-2.59-2.13-2.45-3.73.13-1.5,1.08-2.33,1.83-2.62l2.47-28.25c-1-.29-1.41-1.16-1.24-3.1.21-2.38,1.06-3.2,2.61-3.2h12.55c1.56,0,2.31.82,2.1,3.2-.17,1.99-.79,2.86-1.88,3.1ZM288.55,116.44h-3.06l-.43,4.9c1.1-.29,2.14-.58,3.15-.92l.35-3.97ZM289.49,105.69h-3.06l-.4,4.55h3.06l.4-4.55ZM290.48,94.4h-3.06l-.45,5.09h3.06l.45-5.09ZM323.2,127.3c-1.35,2.62-3.17,4.56-4.92,4.56-2.38,0-3.58-2.96-4.2-4.8-.93,1.16-2.88,4.02-4.49,4.02s-3-1.79-2.87-3.29c.02-.19.08-.39.15-.58-.3.1-.64.14-.99.14h-6.66c-2.04,0-3.51-1.6-3.33-3.63l1-11.39c.18-2.04,1.92-3.63,3.97-3.63h6.66c2.04,0,3.51,1.6,3.33,3.63l-1.02,11.63c.97-1.11,1.95-2.28,2.94-3.54-.41-3.63-.55-8.14-.37-13.57h-14.2c-1.41,0-2.03-.68-1.84-2.86.19-2.18.94-2.91,2.35-2.91h1.07l-.58-3.34c.05-.53.48-1.07,1.29-1.36h-.63c-1.46,0-2.13-.73-1.93-2.96.2-2.23.99-3,2.45-3h2.38l.12-1.36c.13-1.5.98-2.28,3.31-2.28s3.04.78,2.91,2.28l-.12,1.36h1.95c1.46,0,2.17.78,1.97,3-.2,2.23-1.04,2.96-2.5,2.96h-.15c.55.34.85.82.81,1.31l-1.42,3.39h3.07l1.03-12.36c.12-1.36.86-2.08,3-2.08s2.81.73,2.69,2.08l-1.03,12.36h4.57c1.41,0,2.08.73,1.89,2.91-.19,2.18-.98,2.86-2.39,2.86h-4.43c-.05,2.23-.08,4.26-.09,6.06.67-1.02,1.53-3.54,2.89-3.54s2.78,1.55,2.66,2.91c-.1,1.11-4.09,7.27-4.93,8.58.32,1.89.82,2.86,1.35,2.86.88,0,.94-1.84,1.91-1.84,1.31,0,1.76,3.25,1.67,4.22-.05.53-.18.97-.3,1.21ZM305.05,120.22h-3.75l-.17,1.94c-.04.44.27.78.71.78h2.19c.44,0,.81-.34.85-.78l.17-1.94ZM305.6,113.93c.04-.44-.27-.78-.71-.78h-2.19c-.44,0-.81.34-.85.78l-.16,1.84h3.75l.16-1.84ZM302.51,96.38c.89.44,1.19,3.68,1.34,4.7h1.6l1.67-4.12c.12-.24.28-.44.49-.58h-5.11ZM322.4,99.82c-.63,0-.95-.29-1.19-.92l-1.82-5.28c-.08-.24-.1-.48-.09-.68.09-1.07,2.1-1.79,3.03-1.79.68,0,.99.34,1.23.97l1.83,5.23c.08.24.1.49.09.68-.1,1.11-2.1,1.79-3.07,1.79Z"/><path class="cls-4" d="M331.48,129.43c-.68,1.11-2.22,1.5-4.08,1.07-1.9-.48-3.04-1.41-3.08-2.62-.08-3.54.09-10.47.88-19.53.37-4.22,2.17-12.55,3.38-17.45.37-1.45,2.25-2.42,4.66-2.08,2.35.34,3.58,1.89,3.11,3.39-1.45,4.89-3.31,12.21-3.63,15.94-.6,6.88-.73,10.03-.69,11.24.06.44.44.48.67.1.44-.58.89-1.31,1.41-2.18.47-.87,1.75-1.07,2.72,0,.93,1.07,1.18,2.13.62,2.91-3.06,4.36-4.93,7.46-5.96,9.21ZM362.64,127.54c-6.18.63-10.61.63-13.87.63-5.69,0-9.95-4.65-9.64-8.29.13-1.5.57-3.2,2.65-6.98.69-1.21,2.38-1.6,4.38-1.16,2,.48,2.69,2.08,2.05,3.29-.71,1.41-1.04,2.38-1.07,2.81-.14,1.6.67,2.38,6.07,2.38,1.26,0,5.76-.19,8.86-.58,1.57-.19,3.31,1.12,3.29,3.54.03,2.42-1.15,4.22-2.72,4.36ZM362.52,101.03c-4.69-.29-11.32-.14-17.14.24-1.57.1-2.75-1.4-2.68-3.88.12-2.47,1.44-4.22,3-4.26,4.63-.15,12.18-.24,18.21-.15,1.55.05,2.57,1.74,2.16,4.26-.36,2.42-1.99,3.88-3.54,3.78Z"/><path class="cls-4" d="M373.25,131.85h-3.55c-1.85,0-2.64-.92-2.4-3.73.24-2.71,1.9-3.39,2.92-3.34l1.7.05c1.46.05,2.3-.73,2.61-4.26l.39-4.51c.04-.44-.27-.78-.71-.78h-5.21c-1.9,0-3.14-1.41-2.98-3.25l1.93-9.84c.42-2.04,2.31-3.63,4.36-3.63h3.36c.44,0,.81-.34.85-.78l.22-2.47c.04-.44-.27-.78-.71-.78h-5.45c-1.65,0-2.41-.82-2.18-3.39s1.13-3.44,2.78-3.44h9c2.04,0,3.51,1.6,3.33,3.63l-.89,10.18c-.18,2.04-1.92,3.63-3.97,3.63h-4.48c-.44,0-.86.34-.94.78l-.42,2.04c-.03.39.23.68.62.68h4.91c2.04,0,3.51,1.6,3.33,3.63l-.85,9.69c-.63,7.22-3.2,9.89-7.58,9.89ZM406.03,131.37c-1.75,0-1.74-1.21-2.03-2.42-5.51.73-10.97,1.99-19.83,1.99h-.1c-1.8,0-2.64-2.13-2.5-3.73.16-1.79,1.43-2.42,2.11-2.47,2.93-.1,5.67-.29,8.21-.48l.48-5.47h-5.45c-2.04,0-3.51-1.6-3.33-3.63l.73-8.34c.18-2.04,1.92-3.63,3.97-3.63h5.45l.25-2.81-7.54.53c-1.66.1-2.26-1.94-2.14-3.34.17-1.94,1.49-2.62,2.22-2.62h.78l3.33-6.4c.58-1.11,1.42-1.74,2.83-1.74s4.37.63,4.23,2.28c-.03.34-.16.73-.39,1.16l-2.38,4.36c2.89-.19,5.78-.44,8.47-.68l-.68-2.18c-.12-.34-.14-.63-.12-.92.13-1.5,2.72-2.18,3.99-2.18,1.07,0,1.61.48,1.92,1.45l2.68,8.29c.12.34.13.68.11.92-.13,1.5-2.88,2.33-4.14,2.33-.97,0-1.46-.48-1.77-1.41l-.3-.97c-1.18.15-2.56.34-4.23.48l-.3,3.44h5.55c2.04,0,3.51,1.6,3.33,3.63l-.73,8.34c-.18,2.04-1.92,3.63-3.97,3.63h-5.55l-.43,4.89c1.28-.15,2.51-.29,3.69-.44-.19-.58-.68-1.7-.63-2.28.11-1.31,1.71-1.7,2.73-1.7,1.51,0,2.36.87,2.55,1.45.73,2.23,1.77,5.28,2.4,7.56.04.15.07.34.05.53-.14,1.55-2.12,2.57-3.53,2.57ZM394.27,108.55h-3.21c-.44,0-.81.34-.85.78l-.27,3.1c-.04.44.27.78.71.78h3.21l.41-4.65ZM403.15,109.32c.04-.44-.27-.78-.71-.78h-3.26l-.41,4.65h3.26c.44,0,.81-.34.85-.78l.27-3.1Z"/><path class="cls-4" d="M420.1,130.74c-4.28,0-9.05-6.64-8.76-18.85.07-4.12.98-12.36,2.01-18.56.22-1.41,2.07-2.52,4.4-2.42,2.32.15,3.72,1.45,3.43,3-1.25,7.03-1.99,14.97-2.03,17.06-.12,5.81,1.22,8.87,2.09,8.87.68,0,1.84-1.6,4.16-5.33.79-1.21,2.51-1.45,4.31-.39,1.71,1.07,2.34,2.71,1.61,3.88-5.88,9.35-7.88,12.75-11.23,12.75ZM449.15,118.97c-2.56.87-4.5-.24-4.8-1.84-.75-4.17-2.52-10.66-3.86-14.25-.51-1.41.42-3.15,2.74-4.07,2.22-.87,4.04-.63,4.66.68,1.87,4.17,3.96,10.86,4.99,15.26.39,1.6-1.12,3.29-3.73,4.22Z"/><path class="cls-2" d="M13.4,127.54c-1.16,1.07-3.12.68-4.63-1.02-1.55-1.7-1.53-3.68-.36-4.75,6.38-5.67,7.72-9.84,9.14-24.96.13-1.5,1.84-2.67,4.22-2.67s3.88,1.21,3.75,2.71c-1.65,17.69-3.18,22.49-12.12,30.68ZM31.68,128.85c-1.41.58-3.04-.24-4.19-2.13-1.14-1.94-.84-3.73-.04-5.04.46-.78.68-1.7.81-3.2l2.04-23.31c.13-1.5,1.79-2.71,4.18-2.71s3.84,1.16,3.71,2.67l-2.02,23.12c2.48-1.12,6.67-3.93,10.18-6.88,1.21-1.02,3.23-.73,4.46,1.26,1.24,1.94,1.21,3.97-.04,4.94-5.97,4.8-12.57,8.58-19.08,11.29Z"/><path class="cls-2" d="M84.64,122.26c-1.71,1.74-3.73,2.08-4.67,1.07l-7.16-7.71-1.16,13.28c-.13,1.45-1.79,2.67-4.12,2.67s-3.83-1.21-3.71-2.67l.78-8.92c-2.66,1.45-5.66,2.96-9.15,4.55-1.52.73-3.38-.34-4.24-2.67-.86-2.42-.05-4.46,1.52-5.09,13.39-5.14,18.02-8.62,20.49-11.19h-17.46c-1.46,0-2.5-1.5-2.28-3.92.2-2.33,1.51-3.88,2.97-3.88h16.1-.15c-3.53-2.42-6.02-3.49-8.24-4.27-1.28-.44-1.85-2.23-.66-4.17,1.2-1.99,2.74-3,4.07-2.62,2.33.63,4.73,1.55,9.4,4.31,1.25.73,1.27,2.71-.08,4.8-.62.97-1.41,1.65-2.21,1.94h.1c2,0,3.22-.1,4.07-.34.55-.14,1.13-.19,1.62-.14,1.14.29,1.92.87,3.22,2.08s1.67,2.62,1,3.63c-1.73,2.57-3.7,5.04-6.4,7.51l7.36,7.03c1.03.97.72,2.91-1,4.7Z"/><path class="cls-2" d="M124.29,107.24h-6.57c-1.5,9.89-4.16,14.2-13.16,23.6-1.07,1.11-3.1.97-4.87-.48-1.81-1.5-2.09-3.34-.87-4.51,6.95-6.59,9.45-10.13,10.97-18.61h-9.15l-.91,10.42c-.13,1.45-1.84,2.67-4.17,2.67s-3.88-1.21-3.75-2.67l.91-10.42h-5.94c-1.41,0-2.4-1.5-2.21-3.68.19-2.23,1.45-3.73,2.86-3.73h5.93l.64-7.37c.14-1.55,1.84-2.71,4.18-2.71s3.89,1.12,3.76,2.62l-.65,7.46h9.49c.24-2.18.46-4.65.7-7.46.13-1.45,1.79-2.67,4.12-2.62,2.29,0,3.79,1.21,3.65,2.71-.24,2.71-.45,5.18-.69,7.37h6.37c1.41,0,2.4,1.5,2.2,3.73-.19,2.18-1.44,3.68-2.85,3.68Z"/><path class="cls-2" d="M123.62,128.85c-1.56.58-3.22-.48-3.99-2.71-.77-2.28.03-4.26,1.63-4.75,13.3-4.17,22.71-9.88,33.96-19.58,1.16-1.02,3.12-.68,4.37,1.21,1.29,1.89,1.22,3.83.06,4.85-14.59,12.26-20.77,15.51-36.03,20.98ZM137.28,105.01c-1.77,1.84-3.74,2.18-4.77,1.16-5.28-5.28-7.59-7.22-9.02-8.14-1.1-.73-1.39-2.42-.06-4.26,1.32-1.79,3-2.57,4.16-1.99,2.61,1.36,4.52,2.81,10.74,8.43,1.03.97.66,3.01-1.05,4.8Z"/><path class="cls-2" d="M186.04,128.75c-1.95,1.7-3.96,1.94-4.94.87l-8.99-10.13c-3.6,3.29-8.28,6.83-14.68,11-1.34.87-3.14.34-4.6-1.41-1.45-1.75-1.17-3.83.16-4.65,18.64-11.73,22.67-19.48,23.74-23.94h-18.05c-1.51,0-2.54-1.5-2.33-3.92.2-2.33,1.51-3.92,3.02-3.92h17.07c1.85,0,2.88-.1,3.53-.29.55-.15,1.19-.24,1.71-.15,1.05.24,1.79.73,3.01,1.79,1.22,1.07,1.7,2.23,1.32,3.25-2.38,6.59-4.37,11.53-8.5,16.57l9.81,10.18c1.03,1.07.51,3.1-1.29,4.75Z"/><path class="cls-2" d="M192.94,129.97c-.73,1.07-2.31,1.41-4.16.87-1.85-.53-2.99-1.41-3.02-2.71-.08-3.59.1-11.15.85-20.3.37-4.17,2.07-13.08,3.18-17.98.38-1.6,2.21-2.47,4.63-2.28,2.46.24,3.58,1.89,3.16,3.34-1.52,5.09-3.04,13.04-3.37,16.82-.61,6.98-.65,10.18-.57,11.53.01.39.54.53.86.19.54-.63,1.28-1.84,1.92-3,.46-.82,1.7-1.07,2.74-.19,1.09.87,1.38,1.99.87,2.81-2.69,4.07-5.52,8.63-7.08,10.9ZM224.31,126.67c-1.07-.58-2.09-1.16-3.07-1.65-.99,3.49-4.77,6.16-10.9,6.16-7.93,0-9.85-3.63-9.45-8.19.36-4.07,4.23-8.29,10.16-8.29,1.02,0,2.03.1,3.05.19.14-2.76.29-6.15.5-9.64-3.38.19-6.69.29-9.4.14-1.6-.05-2.62-1.79-2.4-4.26.17-2.52,2.28-3.78,3.83-3.68,2.22.15,5.14.15,8.32,0,.09-2.76.21-5.23.23-7.08.04-1.55,1.72-2.96,4.25-2.96s4.08,1.21,4.04,2.76c-.06,1.84-.21,4.07-.37,6.49,1.43-.19,2.81-.39,4.09-.63,1.53-.24,2.97,1.11,2.85,3.54-.12,2.42-1.24,4.12-2.77,4.36-1.33.19-2.91.44-4.63.63-.24,4.41-.53,8.82-.73,12.26,1.98.73,4.09,1.65,6.48,2.71,1.35.63,1.62,2.62.41,4.8-1.26,2.18-3.19,3.05-4.48,2.33ZM210.25,121.19c-1.9,0-2.87,1.07-2.93,1.79-.12,1.36.94,2.08,2.88,2.08s3.03-.78,3.46-3.39c-1.19-.34-2.29-.48-3.41-.48Z"/><path class="cls-2" d="M237.72,118.58c-1.21,3.88-2.33,6.64-3.51,8.97-.23.44-.86.92-1.78.92-1.51,0-3.19-1.31-3.05-2.91.03-.29.1-.58.21-.78,1.21-2.18,2.35-5.14,3.08-7.41.2-.63.85-1.41,2.21-1.41s3.05.78,2.91,2.33c-.01.15-.07.2-.07.29ZM253.84,96.72h-19.51c-1.56,0-2.27-.78-2.06-3.15.21-2.37,1.06-3.2,2.61-3.2h6.03l.07-.78c.17-1.94,1.23-2.91,4.15-2.91s3.86.97,3.69,2.91l-.07.78h5.64c1.56,0,2.31.82,2.1,3.2-.21,2.38-1.1,3.15-2.66,3.15ZM249.04,113.68h-2.53l-1.14,12.99c-.28,3.2-2.01,5.18-5.46,5.18h-2.48c-1.56,0-2.46-.78-2.25-3.15.2-2.33,1.42-2.91,2.2-2.91h.39c.58,0,.95-.34,1.01-1.02l.97-11.1h-3.79c-2.04,0-3.51-1.6-3.33-3.63l.67-7.66c.18-2.04,1.92-3.63,3.97-3.63h13.08c2.04,0,3.51,1.6,3.33,3.63l-.67,7.66c-.18,2.04-1.92,3.63-3.97,3.63ZM246.79,104.91c.04-.44-.27-.78-.71-.78h-5.5c-.44,0-.81.34-.85.78l-.23,2.62c-.04.44.27.78.71.78h5.5c.44,0,.81-.34.85-.78l.23-2.62ZM269.35,131.22h-3.65c-2.92,0-4.16-1.41-3.9-4.31l.83-9.45c-1.64,4.26-3.68,8.67-6.16,12.6-.33.48-1.06,1.02-2.04,1.02-1.8,0-3.84-1.74-3.67-3.59.1-1.16,1.79-3.25,2.42-4.31-.78.63-2.4,1.31-3.37,1.31-.83,0-1.23-.44-1.49-1.31l-1.26-4.51c-.07-.29-.09-.58-.07-.82.12-1.41,2.53-2.18,3.79-2.18.88,0,1.37.44,1.64,1.26l1.36,3.97c.12.34.19.63.17.87,2.75-5.28,4.86-11.68,5.98-18.27h-1.85c-1.8,0-2.6-.87-2.36-3.63.24-2.76,1.2-3.68,3-3.68h2.09l.61-6.98c.14-1.65,1.05-2.52,3.62-2.52s3.38.87,3.23,2.52l-.61,6.98h7c1.8,0,2.64.92,2.4,3.68-.24,2.76-1.24,3.63-3.04,3.63h-7.39c-.17.82-.34,1.65-.51,2.52h.58c2.33,0,3.05.77,2.91,2.28l-1.36,15.56c-.05.58.12.87.7.87h1.22c1.9,0,.43-5.52,2.96-5.52,1.31,0,2.95,1.36,2.83,2.71v.05c-.7,7.9-3,9.26-6.6,9.26ZM272.86,94.98c-.88,0-1.32-.44-1.54-1.26l-1-3.54c-.07-.29-.1-.53-.08-.78.12-1.36,2.42-2.08,3.59-2.08.88,0,1.32.44,1.54,1.26l1.05,3.54c.07.29.1.53.08.78-.12,1.36-2.47,2.08-3.64,2.08Z"/><path class="cls-2" d="M296.03,94.3l-3.12,35.62c-.12,1.36-.9,1.99-2.95,1.99s-2.72-.63-2.6-1.99l.28-3.2c-1.25.44-6.66,2.18-7.63,2.18-1.85,0-2.59-2.13-2.45-3.73.13-1.5,1.08-2.33,1.83-2.62l2.47-28.25c-1-.29-1.41-1.16-1.24-3.1.21-2.38,1.06-3.2,2.61-3.2h12.55c1.56,0,2.31.82,2.1,3.2-.17,1.99-.79,2.86-1.88,3.1ZM288.55,116.44h-3.06l-.43,4.9c1.1-.29,2.14-.58,3.15-.92l.35-3.97ZM289.49,105.69h-3.06l-.4,4.55h3.06l.4-4.55ZM290.48,94.4h-3.06l-.45,5.09h3.06l.45-5.09ZM323.2,127.3c-1.35,2.62-3.17,4.56-4.92,4.56-2.38,0-3.58-2.96-4.2-4.8-.93,1.16-2.88,4.02-4.49,4.02s-3-1.79-2.87-3.29c.02-.19.08-.39.15-.58-.3.1-.64.14-.99.14h-6.66c-2.04,0-3.51-1.6-3.33-3.63l1-11.39c.18-2.04,1.92-3.63,3.97-3.63h6.66c2.04,0,3.51,1.6,3.33,3.63l-1.02,11.63c.97-1.11,1.95-2.28,2.94-3.54-.41-3.63-.55-8.14-.37-13.57h-14.2c-1.41,0-2.03-.68-1.84-2.86.19-2.18.94-2.91,2.35-2.91h1.07l-.58-3.34c.05-.53.48-1.07,1.29-1.36h-.63c-1.46,0-2.13-.73-1.93-2.96.2-2.23.99-3,2.45-3h2.38l.12-1.36c.13-1.5.98-2.28,3.31-2.28s3.04.78,2.91,2.28l-.12,1.36h1.95c1.46,0,2.17.78,1.97,3-.2,2.23-1.04,2.96-2.5,2.96h-.15c.55.34.85.82.81,1.31l-1.42,3.39h3.07l1.03-12.36c.12-1.36.86-2.08,3-2.08s2.81.73,2.69,2.08l-1.03,12.36h4.57c1.41,0,2.08.73,1.89,2.91-.19,2.18-.98,2.86-2.39,2.86h-4.43c-.05,2.23-.08,4.26-.09,6.06.67-1.02,1.53-3.54,2.89-3.54s2.78,1.55,2.66,2.91c-.1,1.11-4.09,7.27-4.93,8.58.32,1.89.82,2.86,1.35,2.86.88,0,.94-1.84,1.91-1.84,1.31,0,1.76,3.25,1.67,4.22-.05.53-.18.97-.3,1.21ZM305.05,120.22h-3.75l-.17,1.94c-.04.44.27.78.71.78h2.19c.44,0,.81-.34.85-.78l.17-1.94ZM305.6,113.93c.04-.44-.27-.78-.71-.78h-2.19c-.44,0-.81.34-.85.78l-.16,1.84h3.75l.16-1.84ZM302.51,96.38c.89.44,1.19,3.68,1.34,4.7h1.6l1.67-4.12c.12-.24.28-.44.49-.58h-5.11ZM322.4,99.82c-.63,0-.95-.29-1.19-.92l-1.82-5.28c-.08-.24-.1-.48-.09-.68.09-1.07,2.1-1.79,3.03-1.79.68,0,.99.34,1.23.97l1.83,5.23c.08.24.1.49.09.68-.1,1.11-2.1,1.79-3.07,1.79Z"/><path class="cls-2" d="M331.48,129.43c-.68,1.11-2.22,1.5-4.08,1.07-1.9-.48-3.04-1.41-3.08-2.62-.08-3.54.09-10.47.88-19.53.37-4.22,2.17-12.55,3.38-17.45.37-1.45,2.25-2.42,4.66-2.08,2.35.34,3.58,1.89,3.11,3.39-1.45,4.89-3.31,12.21-3.63,15.94-.6,6.88-.73,10.03-.69,11.24.06.44.44.48.67.1.44-.58.89-1.31,1.41-2.18.47-.87,1.75-1.07,2.72,0,.93,1.07,1.18,2.13.62,2.91-3.06,4.36-4.93,7.46-5.96,9.21ZM362.64,127.54c-6.18.63-10.61.63-13.87.63-5.69,0-9.95-4.65-9.64-8.29.13-1.5.57-3.2,2.65-6.98.69-1.21,2.38-1.6,4.38-1.16,2,.48,2.69,2.08,2.05,3.29-.71,1.41-1.04,2.38-1.07,2.81-.14,1.6.67,2.38,6.07,2.38,1.26,0,5.76-.19,8.86-.58,1.57-.19,3.31,1.12,3.29,3.54.03,2.42-1.15,4.22-2.72,4.36ZM362.52,101.03c-4.69-.29-11.32-.14-17.14.24-1.57.1-2.75-1.4-2.68-3.88.12-2.47,1.44-4.22,3-4.26,4.63-.15,12.18-.24,18.21-.15,1.55.05,2.57,1.74,2.16,4.26-.36,2.42-1.99,3.88-3.54,3.78Z"/><path class="cls-2" d="M373.25,131.85h-3.55c-1.85,0-2.64-.92-2.4-3.73.24-2.71,1.9-3.39,2.92-3.34l1.7.05c1.46.05,2.3-.73,2.61-4.26l.39-4.51c.04-.44-.27-.78-.71-.78h-5.21c-1.9,0-3.14-1.41-2.98-3.25l1.93-9.84c.42-2.04,2.31-3.63,4.36-3.63h3.36c.44,0,.81-.34.85-.78l.22-2.47c.04-.44-.27-.78-.71-.78h-5.45c-1.65,0-2.41-.82-2.18-3.39s1.13-3.44,2.78-3.44h9c2.04,0,3.51,1.6,3.33,3.63l-.89,10.18c-.18,2.04-1.92,3.63-3.97,3.63h-4.48c-.44,0-.86.34-.94.78l-.42,2.04c-.03.39.23.68.62.68h4.91c2.04,0,3.51,1.6,3.33,3.63l-.85,9.69c-.63,7.22-3.2,9.89-7.58,9.89ZM406.03,131.37c-1.75,0-1.74-1.21-2.03-2.42-5.51.73-10.97,1.99-19.83,1.99h-.1c-1.8,0-2.64-2.13-2.5-3.73.16-1.79,1.43-2.42,2.11-2.47,2.93-.1,5.67-.29,8.21-.48l.48-5.47h-5.45c-2.04,0-3.51-1.6-3.33-3.63l.73-8.34c.18-2.04,1.92-3.63,3.97-3.63h5.45l.25-2.81-7.54.53c-1.66.1-2.26-1.94-2.14-3.34.17-1.94,1.49-2.62,2.22-2.62h.78l3.33-6.4c.58-1.11,1.42-1.74,2.83-1.74s4.37.63,4.23,2.28c-.03.34-.16.73-.39,1.16l-2.38,4.36c2.89-.19,5.78-.44,8.47-.68l-.68-2.18c-.12-.34-.14-.63-.12-.92.13-1.5,2.72-2.18,3.99-2.18,1.07,0,1.61.48,1.92,1.45l2.68,8.29c.12.34.13.68.11.92-.13,1.5-2.88,2.33-4.14,2.33-.97,0-1.46-.48-1.77-1.41l-.3-.97c-1.18.15-2.56.34-4.23.48l-.3,3.44h5.55c2.04,0,3.51,1.6,3.33,3.63l-.73,8.34c-.18,2.04-1.92,3.63-3.97,3.63h-5.55l-.43,4.89c1.28-.15,2.51-.29,3.69-.44-.19-.58-.68-1.7-.63-2.28.11-1.31,1.71-1.7,2.73-1.7,1.51,0,2.36.87,2.55,1.45.73,2.23,1.77,5.28,2.4,7.56.04.15.07.34.05.53-.14,1.55-2.12,2.57-3.53,2.57ZM394.27,108.55h-3.21c-.44,0-.81.34-.85.78l-.27,3.1c-.04.44.27.78.71.78h3.21l.41-4.65ZM403.15,109.32c.04-.44-.27-.78-.71-.78h-3.26l-.41,4.65h3.26c.44,0,.81-.34.85-.78l.27-3.1Z"/><path class="cls-2" d="M420.1,130.74c-4.28,0-9.05-6.64-8.76-18.85.07-4.12.98-12.36,2.01-18.56.22-1.41,2.07-2.52,4.4-2.42,2.32.15,3.72,1.45,3.43,3-1.25,7.03-1.99,14.97-2.03,17.06-.12,5.81,1.22,8.87,2.09,8.87.68,0,1.84-1.6,4.16-5.33.79-1.21,2.51-1.45,4.31-.39,1.71,1.07,2.34,2.71,1.61,3.88-5.88,9.35-7.88,12.75-11.23,12.75ZM449.15,118.97c-2.56.87-4.5-.24-4.8-1.84-.75-4.17-2.52-10.66-3.86-14.25-.51-1.41.42-3.15,2.74-4.07,2.22-.87,4.04-.63,4.66.68,1.87,4.17,3.96,10.86,4.99,15.26.39,1.6-1.12,3.29-3.73,4.22Z"/><path class="cls-8" d="M10.88,124.78c-1.16,1.07-3.12.68-4.63-1.02-1.55-1.7-1.53-3.68-.36-4.75,6.38-5.67,7.72-9.84,9.14-24.96.13-1.5,1.84-2.66,4.22-2.66s3.88,1.21,3.75,2.71c-1.65,17.69-3.18,22.49-12.12,30.68ZM29.15,126.09c-1.41.58-3.04-.24-4.19-2.13-1.14-1.94-.84-3.73-.05-5.04.46-.78.68-1.7.82-3.2l2.04-23.31c.13-1.5,1.79-2.71,4.18-2.71s3.84,1.16,3.71,2.67l-2.02,23.12c2.48-1.11,6.67-3.92,10.19-6.88,1.21-1.02,3.23-.73,4.46,1.26,1.24,1.94,1.21,3.97-.04,4.94-5.97,4.8-12.57,8.58-19.08,11.29Z"/><path class="cls-8" d="M82.12,119.5c-1.71,1.74-3.73,2.08-4.67,1.07l-7.16-7.71-1.16,13.28c-.13,1.45-1.79,2.67-4.12,2.67s-3.83-1.21-3.71-2.67l.78-8.92c-2.66,1.45-5.66,2.96-9.15,4.55-1.52.73-3.38-.34-4.24-2.67-.86-2.42-.05-4.46,1.52-5.09,13.39-5.14,18.02-8.62,20.49-11.19h-17.46c-1.46,0-2.5-1.5-2.28-3.93.2-2.33,1.51-3.88,2.97-3.88h16.1-.15c-3.53-2.42-6.02-3.49-8.24-4.27-1.28-.44-1.85-2.23-.66-4.17,1.2-1.99,2.74-3,4.07-2.62,2.33.63,4.73,1.55,9.4,4.31,1.25.73,1.27,2.71-.08,4.8-.62.97-1.41,1.65-2.21,1.94h.1c2,0,3.22-.1,4.07-.34.55-.15,1.13-.19,1.62-.15,1.14.29,1.92.87,3.22,2.08,1.31,1.21,1.67,2.62,1,3.63-1.73,2.57-3.7,5.04-6.4,7.51l7.36,7.03c1.03.97.72,2.91-1,4.7Z"/><path class="cls-8" d="M121.77,104.48h-6.57c-1.5,9.89-4.16,14.2-13.16,23.6-1.07,1.12-3.1.97-4.87-.48-1.81-1.5-2.09-3.34-.87-4.51,6.95-6.59,9.45-10.13,10.97-18.61h-9.15l-.91,10.42c-.13,1.45-1.84,2.66-4.17,2.66s-3.88-1.21-3.76-2.66l.91-10.42h-5.93c-1.41,0-2.4-1.5-2.21-3.68.2-2.23,1.45-3.73,2.86-3.73h5.93l.64-7.37c.14-1.55,1.84-2.71,4.18-2.71s3.89,1.11,3.76,2.62l-.65,7.46h9.49c.24-2.18.46-4.65.7-7.46.13-1.45,1.79-2.67,4.12-2.62,2.29,0,3.79,1.21,3.65,2.71-.24,2.71-.45,5.19-.69,7.37h6.37c1.41,0,2.4,1.5,2.2,3.73-.19,2.18-1.44,3.68-2.85,3.68Z"/><path class="cls-8" d="M121.1,126.09c-1.56.58-3.22-.49-3.99-2.71-.77-2.28.03-4.27,1.63-4.75,13.3-4.17,22.71-9.88,33.96-19.58,1.16-1.02,3.12-.68,4.37,1.21,1.29,1.89,1.22,3.83.06,4.85-14.6,12.26-20.77,15.51-36.03,20.98ZM134.76,102.25c-1.77,1.84-3.74,2.18-4.77,1.16-5.28-5.28-7.59-7.22-9.02-8.14-1.1-.73-1.39-2.42-.06-4.27,1.32-1.79,3-2.57,4.16-1.99,2.61,1.36,4.52,2.81,10.74,8.43,1.04.97.66,3-1.05,4.8Z"/><path class="cls-8" d="M183.52,125.99c-1.95,1.7-3.96,1.94-4.94.87l-8.99-10.13c-3.6,3.29-8.28,6.83-14.68,11-1.34.87-3.14.34-4.6-1.4-1.45-1.75-1.17-3.83.16-4.65,18.63-11.73,22.67-19.48,23.74-23.94h-18.05c-1.51,0-2.54-1.5-2.33-3.93.2-2.33,1.51-3.92,3.02-3.92h17.08c1.85,0,2.88-.1,3.53-.29.55-.15,1.19-.24,1.71-.15,1.05.24,1.79.73,3,1.79,1.22,1.07,1.7,2.23,1.32,3.25-2.38,6.59-4.37,11.53-8.5,16.57l9.81,10.18c1.03,1.07.51,3.1-1.29,4.75Z"/><path class="cls-8" d="M190.42,127.2c-.73,1.07-2.31,1.41-4.16.87s-2.99-1.41-3.02-2.71c-.08-3.59.1-11.15.85-20.3.36-4.17,2.07-13.08,3.18-17.98.38-1.6,2.21-2.47,4.63-2.28,2.46.24,3.58,1.89,3.16,3.34-1.52,5.09-3.04,13.04-3.37,16.82-.61,6.98-.65,10.18-.57,11.53.01.39.54.53.86.19.54-.63,1.28-1.84,1.92-3,.46-.82,1.7-1.07,2.74-.2,1.09.87,1.38,1.99.87,2.81-2.69,4.07-5.52,8.63-7.08,10.9ZM221.79,123.91c-1.07-.58-2.09-1.16-3.07-1.65-.99,3.49-4.77,6.15-10.9,6.15-7.93,0-9.85-3.63-9.45-8.19.36-4.07,4.23-8.29,10.16-8.29,1.02,0,2.04.1,3.05.2.14-2.76.29-6.16.5-9.64-3.37.19-6.69.29-9.4.15-1.6-.05-2.62-1.79-2.4-4.26.17-2.52,2.28-3.78,3.83-3.68,2.22.14,5.14.14,8.32,0,.09-2.76.21-5.23.23-7.08.04-1.55,1.72-2.96,4.25-2.96s4.08,1.21,4.04,2.76c-.06,1.84-.21,4.07-.37,6.49,1.43-.19,2.81-.39,4.09-.63,1.53-.24,2.97,1.12,2.85,3.54-.11,2.42-1.24,4.12-2.77,4.36-1.33.19-2.91.44-4.63.63-.24,4.41-.53,8.82-.73,12.26,1.98.73,4.09,1.65,6.48,2.71,1.36.63,1.62,2.62.41,4.8-1.26,2.18-3.18,3.05-4.48,2.33ZM207.73,118.43c-1.9,0-2.87,1.07-2.93,1.79-.12,1.36.94,2.08,2.88,2.08s3.04-.78,3.46-3.39c-1.19-.34-2.29-.48-3.41-.48Z"/><path class="cls-8" d="M235.19,115.81c-1.21,3.88-2.33,6.64-3.51,8.97-.23.44-.86.92-1.78.92-1.51,0-3.19-1.31-3.05-2.91.03-.29.1-.58.21-.78,1.21-2.18,2.35-5.14,3.08-7.41.2-.63.85-1.41,2.21-1.41s3.05.78,2.91,2.33c-.01.15-.07.2-.07.29ZM251.31,93.96h-19.51c-1.56,0-2.27-.78-2.06-3.15.21-2.38,1.06-3.2,2.62-3.2h6.03l.07-.78c.17-1.94,1.23-2.91,4.15-2.91s3.85.97,3.68,2.91l-.07.78h5.64c1.56,0,2.31.82,2.1,3.2-.21,2.38-1.1,3.15-2.66,3.15ZM246.52,110.92h-2.53l-1.14,12.99c-.28,3.2-2.01,5.19-5.46,5.19h-2.48c-1.56,0-2.46-.78-2.25-3.15.2-2.33,1.42-2.91,2.2-2.91h.39c.58,0,.95-.34,1.01-1.02l.97-11.1h-3.79c-2.04,0-3.51-1.6-3.33-3.63l.67-7.66c.18-2.04,1.92-3.63,3.97-3.63h13.08c2.04,0,3.51,1.6,3.33,3.63l-.67,7.66c-.18,2.04-1.92,3.63-3.97,3.63ZM244.27,102.15c.04-.44-.27-.78-.71-.78h-5.5c-.44,0-.81.34-.85.78l-.23,2.62c-.04.44.27.78.71.78h5.5c.44,0,.81-.34.85-.78l.23-2.62ZM266.83,128.46h-3.65c-2.92,0-4.16-1.41-3.9-4.31l.83-9.45c-1.64,4.26-3.68,8.67-6.16,12.6-.33.48-1.06,1.02-2.03,1.02-1.8,0-3.84-1.74-3.68-3.59.1-1.16,1.79-3.25,2.42-4.31-.79.63-2.4,1.31-3.37,1.31-.83,0-1.23-.44-1.49-1.31l-1.26-4.51c-.07-.29-.09-.58-.07-.82.12-1.4,2.53-2.18,3.79-2.18.88,0,1.37.44,1.64,1.26l1.36,3.97c.12.34.19.63.17.87,2.75-5.28,4.87-11.68,5.98-18.27h-1.85c-1.8,0-2.6-.87-2.36-3.63.24-2.76,1.2-3.68,3-3.68h2.09l.61-6.98c.14-1.65,1.05-2.52,3.63-2.52s3.38.87,3.23,2.52l-.61,6.98h7c1.8,0,2.64.92,2.4,3.68-.24,2.76-1.24,3.63-3.04,3.63h-7.39c-.17.82-.34,1.65-.51,2.52h.58c2.33,0,3.04.78,2.91,2.28l-1.36,15.56c-.05.58.12.87.7.87h1.22c1.9,0,.43-5.52,2.96-5.52,1.31,0,2.95,1.36,2.83,2.71v.05c-.7,7.9-3,9.26-6.6,9.26ZM270.34,92.22c-.88,0-1.32-.44-1.54-1.26l-1-3.54c-.07-.29-.1-.53-.08-.78.12-1.36,2.42-2.08,3.59-2.08.88,0,1.32.44,1.54,1.26l1.05,3.54c.07.29.1.53.08.78-.12,1.36-2.47,2.08-3.64,2.08Z"/><path class="cls-8" d="M293.51,91.54l-3.12,35.62c-.12,1.36-.9,1.99-2.95,1.99s-2.72-.63-2.6-1.99l.28-3.2c-1.25.44-6.66,2.18-7.63,2.18-1.85,0-2.59-2.13-2.45-3.73.13-1.5,1.08-2.33,1.83-2.62l2.47-28.25c-1-.29-1.41-1.16-1.24-3.1.21-2.37,1.06-3.2,2.62-3.2h12.55c1.56,0,2.31.82,2.1,3.2-.17,1.99-.79,2.86-1.88,3.1ZM286.02,113.68h-3.06l-.43,4.89c1.1-.29,2.14-.58,3.14-.92l.35-3.97ZM286.96,102.93h-3.06l-.4,4.56h3.06l.4-4.56ZM287.95,91.63h-3.06l-.45,5.09h3.06l.45-5.09ZM320.68,124.54c-1.35,2.62-3.17,4.55-4.92,4.55-2.38,0-3.58-2.96-4.2-4.8-.93,1.16-2.88,4.02-4.49,4.02s-3-1.79-2.87-3.29c.02-.19.08-.39.15-.58-.3.1-.64.15-.99.15h-6.66c-2.04,0-3.51-1.6-3.33-3.63l1-11.39c.18-2.04,1.92-3.63,3.97-3.63h6.66c2.04,0,3.51,1.6,3.33,3.63l-1.02,11.63c.97-1.11,1.95-2.28,2.94-3.54-.41-3.63-.55-8.14-.37-13.57h-14.21c-1.41,0-2.03-.68-1.84-2.86s.93-2.91,2.34-2.91h1.07l-.58-3.34c.05-.53.48-1.07,1.29-1.36h-.63c-1.46,0-2.13-.73-1.93-2.96.2-2.23.99-3.01,2.45-3.01h2.38l.12-1.36c.13-1.5.98-2.28,3.31-2.28s3.05.78,2.91,2.28l-.12,1.36h1.95c1.46,0,2.17.78,1.97,3.01-.19,2.23-1.04,2.96-2.5,2.96h-.14c.55.34.85.82.81,1.31l-1.42,3.39h3.06l1.03-12.36c.12-1.36.86-2.08,3-2.08s2.81.73,2.69,2.08l-1.03,12.36h4.57c1.41,0,2.08.73,1.89,2.91s-.98,2.86-2.39,2.86h-4.43c-.05,2.23-.08,4.26-.09,6.06.67-1.02,1.53-3.54,2.89-3.54s2.78,1.55,2.66,2.91c-.1,1.11-4.09,7.27-4.93,8.58.32,1.89.82,2.86,1.36,2.86.88,0,.94-1.84,1.91-1.84,1.31,0,1.76,3.25,1.67,4.22-.05.53-.18.97-.3,1.21ZM302.52,117.46h-3.75l-.17,1.94c-.04.44.27.78.71.78h2.19c.44,0,.81-.34.85-.78l.17-1.94ZM303.08,111.16c.04-.44-.27-.78-.71-.78h-2.19c-.44,0-.81.34-.85.78l-.16,1.84h3.75l.16-1.84ZM299.99,93.62c.89.44,1.19,3.68,1.34,4.7h1.6l1.67-4.12c.12-.24.28-.44.49-.58h-5.11ZM319.88,97.06c-.63,0-.95-.29-1.18-.92l-1.82-5.28c-.08-.24-.1-.48-.09-.68.09-1.07,2.1-1.79,3.03-1.79.68,0,.99.34,1.23.97l1.83,5.23c.08.24.1.49.09.68-.1,1.11-2.1,1.79-3.08,1.79Z"/><path class="cls-8" d="M328.96,126.67c-.68,1.11-2.22,1.5-4.08,1.07-1.9-.48-3.04-1.4-3.08-2.62-.08-3.54.09-10.47.88-19.53.37-4.22,2.17-12.55,3.38-17.45.37-1.45,2.25-2.42,4.66-2.08,2.35.34,3.58,1.89,3.11,3.39-1.45,4.89-3.31,12.21-3.63,15.94-.6,6.88-.73,10.03-.69,11.24.06.44.44.48.67.1.44-.58.89-1.31,1.41-2.18.46-.87,1.75-1.07,2.72,0,.93,1.07,1.18,2.13.62,2.91-3.06,4.36-4.93,7.46-5.96,9.21ZM360.11,124.78c-6.18.63-10.61.63-13.87.63-5.69,0-9.95-4.65-9.64-8.29.13-1.5.57-3.2,2.65-6.98.69-1.21,2.38-1.6,4.38-1.16,2,.48,2.69,2.08,2.05,3.29-.71,1.41-1.04,2.38-1.07,2.81-.14,1.6.67,2.38,6.07,2.38,1.26,0,5.76-.19,8.86-.58,1.57-.19,3.31,1.12,3.29,3.54.03,2.42-1.15,4.22-2.72,4.36ZM360,98.27c-4.69-.29-11.32-.15-17.14.24-1.57.1-2.75-1.41-2.68-3.88.12-2.47,1.44-4.21,3-4.26,4.63-.15,12.18-.24,18.21-.15,1.55.05,2.57,1.75,2.16,4.27-.36,2.42-1.99,3.88-3.54,3.78Z"/><path class="cls-8" d="M370.73,129.09h-3.55c-1.85,0-2.64-.92-2.4-3.73.24-2.71,1.9-3.39,2.92-3.34l1.7.05c1.46.05,2.3-.73,2.61-4.26l.39-4.51c.04-.44-.27-.78-.71-.78h-5.21c-1.9,0-3.14-1.41-2.98-3.25l1.93-9.84c.42-2.04,2.31-3.63,4.36-3.63h3.36c.44,0,.81-.34.85-.78l.22-2.47c.04-.44-.27-.78-.71-.78h-5.45c-1.65,0-2.41-.82-2.19-3.39s1.13-3.44,2.78-3.44h9c2.04,0,3.51,1.6,3.33,3.63l-.89,10.18c-.18,2.04-1.92,3.63-3.97,3.63h-4.48c-.44,0-.86.34-.94.78l-.42,2.04c-.03.39.23.68.62.68h4.91c2.04,0,3.51,1.6,3.33,3.63l-.85,9.69c-.63,7.22-3.2,9.89-7.58,9.89ZM403.51,128.61c-1.75,0-1.74-1.21-2.03-2.42-5.51.73-10.97,1.99-19.83,1.99h-.1c-1.8,0-2.63-2.13-2.5-3.73.16-1.79,1.43-2.42,2.11-2.47,2.93-.1,5.67-.29,8.21-.48l.48-5.48h-5.45c-2.04,0-3.51-1.6-3.33-3.63l.73-8.34c.18-2.04,1.92-3.63,3.97-3.63h5.45l.25-2.81-7.54.53c-1.66.1-2.26-1.94-2.14-3.34.17-1.94,1.49-2.62,2.22-2.62h.78l3.33-6.4c.58-1.12,1.42-1.75,2.83-1.75s4.37.63,4.23,2.28c-.03.34-.16.73-.39,1.16l-2.38,4.36c2.89-.19,5.78-.44,8.47-.68l-.68-2.18c-.12-.34-.14-.63-.11-.92.13-1.5,2.72-2.18,3.99-2.18,1.07,0,1.61.49,1.92,1.46l2.68,8.29c.12.34.14.68.11.92-.13,1.5-2.88,2.33-4.14,2.33-.97,0-1.47-.49-1.78-1.41l-.3-.97c-1.18.15-2.56.34-4.23.48l-.3,3.44h5.55c2.04,0,3.51,1.6,3.33,3.63l-.73,8.34c-.18,2.04-1.92,3.63-3.97,3.63h-5.55l-.43,4.9c1.28-.15,2.51-.29,3.69-.44-.19-.58-.68-1.7-.63-2.28.11-1.31,1.71-1.7,2.73-1.7,1.51,0,2.36.87,2.55,1.45.73,2.23,1.78,5.28,2.4,7.56.04.15.07.34.05.53-.14,1.55-2.12,2.57-3.53,2.57ZM391.74,105.78h-3.21c-.44,0-.81.34-.85.78l-.27,3.1c-.04.44.27.78.71.78h3.21l.41-4.65ZM400.62,106.56c.04-.44-.27-.78-.71-.78h-3.26l-.41,4.65h3.26c.44,0,.81-.34.85-.78l.27-3.1Z"/><path class="cls-8" d="M417.58,127.98c-4.28,0-9.05-6.64-8.76-18.85.07-4.12.98-12.36,2.01-18.56.22-1.41,2.07-2.52,4.39-2.42,2.32.15,3.72,1.45,3.43,3-1.25,7.03-1.99,14.97-2.03,17.06-.12,5.81,1.22,8.87,2.09,8.87.68,0,1.84-1.6,4.16-5.33.79-1.21,2.51-1.45,4.31-.39,1.71,1.07,2.34,2.71,1.61,3.88-5.88,9.35-7.88,12.75-11.23,12.75ZM446.63,116.2c-2.56.87-4.5-.24-4.8-1.84-.75-4.17-2.52-10.66-3.86-14.25-.51-1.41.42-3.15,2.74-4.07,2.22-.87,4.04-.63,4.66.68,1.87,4.17,3.96,10.85,4.99,15.26.4,1.6-1.12,3.29-3.73,4.22Z"/><path class="cls-2" d="M10.88,124.78c-1.16,1.07-3.12.68-4.63-1.02-1.55-1.7-1.53-3.68-.36-4.75,6.38-5.67,7.72-9.84,9.14-24.96.13-1.5,1.84-2.66,4.22-2.66s3.88,1.21,3.75,2.71c-1.65,17.69-3.18,22.49-12.12,30.68ZM29.15,126.09c-1.41.58-3.04-.24-4.19-2.13-1.14-1.94-.84-3.73-.05-5.04.46-.78.68-1.7.82-3.2l2.04-23.31c.13-1.5,1.79-2.71,4.18-2.71s3.84,1.16,3.71,2.67l-2.02,23.12c2.48-1.11,6.67-3.92,10.19-6.88,1.21-1.02,3.23-.73,4.46,1.26,1.24,1.94,1.21,3.97-.04,4.94-5.97,4.8-12.57,8.58-19.08,11.29Z"/><path class="cls-2" d="M82.12,119.5c-1.71,1.74-3.73,2.08-4.67,1.07l-7.16-7.71-1.16,13.28c-.13,1.45-1.79,2.67-4.12,2.67s-3.83-1.21-3.71-2.67l.78-8.92c-2.66,1.45-5.66,2.96-9.15,4.55-1.52.73-3.38-.34-4.24-2.67-.86-2.42-.05-4.46,1.52-5.09,13.39-5.14,18.02-8.62,20.49-11.19h-17.46c-1.46,0-2.5-1.5-2.28-3.93.2-2.33,1.51-3.88,2.97-3.88h16.1-.15c-3.53-2.42-6.02-3.49-8.24-4.27-1.28-.44-1.85-2.23-.66-4.17,1.2-1.99,2.74-3,4.07-2.62,2.33.63,4.73,1.55,9.4,4.31,1.25.73,1.27,2.71-.08,4.8-.62.97-1.41,1.65-2.21,1.94h.1c2,0,3.22-.1,4.07-.34.55-.15,1.13-.19,1.62-.15,1.14.29,1.92.87,3.22,2.08,1.31,1.21,1.67,2.62,1,3.63-1.73,2.57-3.7,5.04-6.4,7.51l7.36,7.03c1.03.97.72,2.91-1,4.7Z"/><path class="cls-2" d="M121.77,104.48h-6.57c-1.5,9.89-4.16,14.2-13.16,23.6-1.07,1.12-3.1.97-4.87-.48-1.81-1.5-2.09-3.34-.87-4.51,6.95-6.59,9.45-10.13,10.97-18.61h-9.15l-.91,10.42c-.13,1.45-1.84,2.66-4.17,2.66s-3.88-1.21-3.76-2.66l.91-10.42h-5.93c-1.41,0-2.4-1.5-2.21-3.68.2-2.23,1.45-3.73,2.86-3.73h5.93l.64-7.37c.14-1.55,1.84-2.71,4.18-2.71s3.89,1.11,3.76,2.62l-.65,7.46h9.49c.24-2.18.46-4.65.7-7.46.13-1.45,1.79-2.67,4.12-2.62,2.29,0,3.79,1.21,3.65,2.71-.24,2.71-.45,5.19-.69,7.37h6.37c1.41,0,2.4,1.5,2.2,3.73-.19,2.18-1.44,3.68-2.85,3.68Z"/><path class="cls-2" d="M121.1,126.09c-1.56.58-3.22-.49-3.99-2.71-.77-2.28.03-4.27,1.63-4.75,13.3-4.17,22.71-9.88,33.96-19.58,1.16-1.02,3.12-.68,4.37,1.21,1.29,1.89,1.22,3.83.06,4.85-14.6,12.26-20.77,15.51-36.03,20.98ZM134.76,102.25c-1.77,1.84-3.74,2.18-4.77,1.16-5.28-5.28-7.59-7.22-9.02-8.14-1.1-.73-1.39-2.42-.06-4.27,1.32-1.79,3-2.57,4.16-1.99,2.61,1.36,4.52,2.81,10.74,8.43,1.04.97.66,3-1.05,4.8Z"/><path class="cls-2" d="M183.52,125.99c-1.95,1.7-3.96,1.94-4.94.87l-8.99-10.13c-3.6,3.29-8.28,6.83-14.68,11-1.34.87-3.14.34-4.6-1.4-1.45-1.75-1.17-3.83.16-4.65,18.63-11.73,22.67-19.48,23.74-23.94h-18.05c-1.51,0-2.54-1.5-2.33-3.93.2-2.33,1.51-3.92,3.02-3.92h17.08c1.85,0,2.88-.1,3.53-.29.55-.15,1.19-.24,1.71-.15,1.05.24,1.79.73,3,1.79,1.22,1.07,1.7,2.23,1.32,3.25-2.38,6.59-4.37,11.53-8.5,16.57l9.81,10.18c1.03,1.07.51,3.1-1.29,4.75Z"/><path class="cls-2" d="M190.42,127.2c-.73,1.07-2.31,1.41-4.16.87s-2.99-1.41-3.02-2.71c-.08-3.59.1-11.15.85-20.3.36-4.17,2.07-13.08,3.18-17.98.38-1.6,2.21-2.47,4.63-2.28,2.46.24,3.58,1.89,3.16,3.34-1.52,5.09-3.04,13.04-3.37,16.82-.61,6.98-.65,10.18-.57,11.53.01.39.54.53.86.19.54-.63,1.28-1.84,1.92-3,.46-.82,1.7-1.07,2.74-.2,1.09.87,1.38,1.99.87,2.81-2.69,4.07-5.52,8.63-7.08,10.9ZM221.79,123.91c-1.07-.58-2.09-1.16-3.07-1.65-.99,3.49-4.77,6.15-10.9,6.15-7.93,0-9.85-3.63-9.45-8.19.36-4.07,4.23-8.29,10.16-8.29,1.02,0,2.04.1,3.05.2.14-2.76.29-6.16.5-9.64-3.37.19-6.69.29-9.4.15-1.6-.05-2.62-1.79-2.4-4.26.17-2.52,2.28-3.78,3.83-3.68,2.22.14,5.14.14,8.32,0,.09-2.76.21-5.23.23-7.08.04-1.55,1.72-2.96,4.25-2.96s4.08,1.21,4.04,2.76c-.06,1.84-.21,4.07-.37,6.49,1.43-.19,2.81-.39,4.09-.63,1.53-.24,2.97,1.12,2.85,3.54-.11,2.42-1.24,4.12-2.77,4.36-1.33.19-2.91.44-4.63.63-.24,4.41-.53,8.82-.73,12.26,1.98.73,4.09,1.65,6.48,2.71,1.36.63,1.62,2.62.41,4.8-1.26,2.18-3.18,3.05-4.48,2.33ZM207.73,118.43c-1.9,0-2.87,1.07-2.93,1.79-.12,1.36.94,2.08,2.88,2.08s3.04-.78,3.46-3.39c-1.19-.34-2.29-.48-3.41-.48Z"/><path class="cls-2" d="M235.19,115.81c-1.21,3.88-2.33,6.64-3.51,8.97-.23.44-.86.92-1.78.92-1.51,0-3.19-1.31-3.05-2.91.03-.29.1-.58.21-.78,1.21-2.18,2.35-5.14,3.08-7.41.2-.63.85-1.41,2.21-1.41s3.05.78,2.91,2.33c-.01.15-.07.2-.07.29ZM251.31,93.96h-19.51c-1.56,0-2.27-.78-2.06-3.15.21-2.38,1.06-3.2,2.62-3.2h6.03l.07-.78c.17-1.94,1.23-2.91,4.15-2.91s3.85.97,3.68,2.91l-.07.78h5.64c1.56,0,2.31.82,2.1,3.2-.21,2.38-1.1,3.15-2.66,3.15ZM246.52,110.92h-2.53l-1.14,12.99c-.28,3.2-2.01,5.19-5.46,5.19h-2.48c-1.56,0-2.46-.78-2.25-3.15.2-2.33,1.42-2.91,2.2-2.91h.39c.58,0,.95-.34,1.01-1.02l.97-11.1h-3.79c-2.04,0-3.51-1.6-3.33-3.63l.67-7.66c.18-2.04,1.92-3.63,3.97-3.63h13.08c2.04,0,3.51,1.6,3.33,3.63l-.67,7.66c-.18,2.04-1.92,3.63-3.97,3.63ZM244.27,102.15c.04-.44-.27-.78-.71-.78h-5.5c-.44,0-.81.34-.85.78l-.23,2.62c-.04.44.27.78.71.78h5.5c.44,0,.81-.34.85-.78l.23-2.62ZM266.83,128.46h-3.65c-2.92,0-4.16-1.41-3.9-4.31l.83-9.45c-1.64,4.26-3.68,8.67-6.16,12.6-.33.48-1.06,1.02-2.03,1.02-1.8,0-3.84-1.74-3.68-3.59.1-1.16,1.79-3.25,2.42-4.31-.79.63-2.4,1.31-3.37,1.31-.83,0-1.23-.44-1.49-1.31l-1.26-4.51c-.07-.29-.09-.58-.07-.82.12-1.4,2.53-2.18,3.79-2.18.88,0,1.37.44,1.64,1.26l1.36,3.97c.12.34.19.63.17.87,2.75-5.28,4.87-11.68,5.98-18.27h-1.85c-1.8,0-2.6-.87-2.36-3.63.24-2.76,1.2-3.68,3-3.68h2.09l.61-6.98c.14-1.65,1.05-2.52,3.63-2.52s3.38.87,3.23,2.52l-.61,6.98h7c1.8,0,2.64.92,2.4,3.68-.24,2.76-1.24,3.63-3.04,3.63h-7.39c-.17.82-.34,1.65-.51,2.52h.58c2.33,0,3.04.78,2.91,2.28l-1.36,15.56c-.05.58.12.87.7.87h1.22c1.9,0,.43-5.52,2.96-5.52,1.31,0,2.95,1.36,2.83,2.71v.05c-.7,7.9-3,9.26-6.6,9.26ZM270.34,92.22c-.88,0-1.32-.44-1.54-1.26l-1-3.54c-.07-.29-.1-.53-.08-.78.12-1.36,2.42-2.08,3.59-2.08.88,0,1.32.44,1.54,1.26l1.05,3.54c.07.29.1.53.08.78-.12,1.36-2.47,2.08-3.64,2.08Z"/><path class="cls-2" d="M293.51,91.54l-3.12,35.62c-.12,1.36-.9,1.99-2.95,1.99s-2.72-.63-2.6-1.99l.28-3.2c-1.25.44-6.66,2.18-7.63,2.18-1.85,0-2.59-2.13-2.45-3.73.13-1.5,1.08-2.33,1.83-2.62l2.47-28.25c-1-.29-1.41-1.16-1.24-3.1.21-2.37,1.06-3.2,2.62-3.2h12.55c1.56,0,2.31.82,2.1,3.2-.17,1.99-.79,2.86-1.88,3.1ZM286.02,113.68h-3.06l-.43,4.89c1.1-.29,2.14-.58,3.14-.92l.35-3.97ZM286.96,102.93h-3.06l-.4,4.56h3.06l.4-4.56ZM287.95,91.63h-3.06l-.45,5.09h3.06l.45-5.09ZM320.68,124.54c-1.35,2.62-3.17,4.55-4.92,4.55-2.38,0-3.58-2.96-4.2-4.8-.93,1.16-2.88,4.02-4.49,4.02s-3-1.79-2.87-3.29c.02-.19.08-.39.15-.58-.3.1-.64.15-.99.15h-6.66c-2.04,0-3.51-1.6-3.33-3.63l1-11.39c.18-2.04,1.92-3.63,3.97-3.63h6.66c2.04,0,3.51,1.6,3.33,3.63l-1.02,11.63c.97-1.11,1.95-2.28,2.94-3.54-.41-3.63-.55-8.14-.37-13.57h-14.21c-1.41,0-2.03-.68-1.84-2.86s.93-2.91,2.34-2.91h1.07l-.58-3.34c.05-.53.48-1.07,1.29-1.36h-.63c-1.46,0-2.13-.73-1.93-2.96.2-2.23.99-3.01,2.45-3.01h2.38l.12-1.36c.13-1.5.98-2.28,3.31-2.28s3.05.78,2.91,2.28l-.12,1.36h1.95c1.46,0,2.17.78,1.97,3.01-.19,2.23-1.04,2.96-2.5,2.96h-.14c.55.34.85.82.81,1.31l-1.42,3.39h3.06l1.03-12.36c.12-1.36.86-2.08,3-2.08s2.81.73,2.69,2.08l-1.03,12.36h4.57c1.41,0,2.08.73,1.89,2.91s-.98,2.86-2.39,2.86h-4.43c-.05,2.23-.08,4.26-.09,6.06.67-1.02,1.53-3.54,2.89-3.54s2.78,1.55,2.66,2.91c-.1,1.11-4.09,7.27-4.93,8.58.32,1.89.82,2.86,1.36,2.86.88,0,.94-1.84,1.91-1.84,1.31,0,1.76,3.25,1.67,4.22-.05.53-.18.97-.3,1.21ZM302.52,117.46h-3.75l-.17,1.94c-.04.44.27.78.71.78h2.19c.44,0,.81-.34.85-.78l.17-1.94ZM303.08,111.16c.04-.44-.27-.78-.71-.78h-2.19c-.44,0-.81.34-.85.78l-.16,1.84h3.75l.16-1.84ZM299.99,93.62c.89.44,1.19,3.68,1.34,4.7h1.6l1.67-4.12c.12-.24.28-.44.49-.58h-5.11ZM319.88,97.06c-.63,0-.95-.29-1.18-.92l-1.82-5.28c-.08-.24-.1-.48-.09-.68.09-1.07,2.1-1.79,3.03-1.79.68,0,.99.34,1.23.97l1.83,5.23c.08.24.1.49.09.68-.1,1.11-2.1,1.79-3.08,1.79Z"/><path class="cls-2" d="M328.96,126.67c-.68,1.11-2.22,1.5-4.08,1.07-1.9-.48-3.04-1.4-3.08-2.62-.08-3.54.09-10.47.88-19.53.37-4.22,2.17-12.55,3.38-17.45.37-1.45,2.25-2.42,4.66-2.08,2.35.34,3.58,1.89,3.11,3.39-1.45,4.89-3.31,12.21-3.63,15.94-.6,6.88-.73,10.03-.69,11.24.06.44.44.48.67.1.44-.58.89-1.31,1.41-2.18.46-.87,1.75-1.07,2.72,0,.93,1.07,1.18,2.13.62,2.91-3.06,4.36-4.93,7.46-5.96,9.21ZM360.11,124.78c-6.18.63-10.61.63-13.87.63-5.69,0-9.95-4.65-9.64-8.29.13-1.5.57-3.2,2.65-6.98.69-1.21,2.38-1.6,4.38-1.16,2,.48,2.69,2.08,2.05,3.29-.71,1.41-1.04,2.38-1.07,2.81-.14,1.6.67,2.38,6.07,2.38,1.26,0,5.76-.19,8.86-.58,1.57-.19,3.31,1.12,3.29,3.54.03,2.42-1.15,4.22-2.72,4.36ZM360,98.27c-4.69-.29-11.32-.15-17.14.24-1.57.1-2.75-1.41-2.68-3.88.12-2.47,1.44-4.21,3-4.26,4.63-.15,12.18-.24,18.21-.15,1.55.05,2.57,1.75,2.16,4.27-.36,2.42-1.99,3.88-3.54,3.78Z"/><path class="cls-2" d="M370.73,129.09h-3.55c-1.85,0-2.64-.92-2.4-3.73.24-2.71,1.9-3.39,2.92-3.34l1.7.05c1.46.05,2.3-.73,2.61-4.26l.39-4.51c.04-.44-.27-.78-.71-.78h-5.21c-1.9,0-3.14-1.41-2.98-3.25l1.93-9.84c.42-2.04,2.31-3.63,4.36-3.63h3.36c.44,0,.81-.34.85-.78l.22-2.47c.04-.44-.27-.78-.71-.78h-5.45c-1.65,0-2.41-.82-2.19-3.39s1.13-3.44,2.78-3.44h9c2.04,0,3.51,1.6,3.33,3.63l-.89,10.18c-.18,2.04-1.92,3.63-3.97,3.63h-4.48c-.44,0-.86.34-.94.78l-.42,2.04c-.03.39.23.68.62.68h4.91c2.04,0,3.51,1.6,3.33,3.63l-.85,9.69c-.63,7.22-3.2,9.89-7.58,9.89ZM403.51,128.61c-1.75,0-1.74-1.21-2.03-2.42-5.51.73-10.97,1.99-19.83,1.99h-.1c-1.8,0-2.63-2.13-2.5-3.73.16-1.79,1.43-2.42,2.11-2.47,2.93-.1,5.67-.29,8.21-.48l.48-5.48h-5.45c-2.04,0-3.51-1.6-3.33-3.63l.73-8.34c.18-2.04,1.92-3.63,3.97-3.63h5.45l.25-2.81-7.54.53c-1.66.1-2.26-1.94-2.14-3.34.17-1.94,1.49-2.62,2.22-2.62h.78l3.33-6.4c.58-1.12,1.42-1.75,2.83-1.75s4.37.63,4.23,2.28c-.03.34-.16.73-.39,1.16l-2.38,4.36c2.89-.19,5.78-.44,8.47-.68l-.68-2.18c-.12-.34-.14-.63-.11-.92.13-1.5,2.72-2.18,3.99-2.18,1.07,0,1.61.49,1.92,1.46l2.68,8.29c.12.34.14.68.11.92-.13,1.5-2.88,2.33-4.14,2.33-.97,0-1.47-.49-1.78-1.41l-.3-.97c-1.18.15-2.56.34-4.23.48l-.3,3.44h5.55c2.04,0,3.51,1.6,3.33,3.63l-.73,8.34c-.18,2.04-1.92,3.63-3.97,3.63h-5.55l-.43,4.9c1.28-.15,2.51-.29,3.69-.44-.19-.58-.68-1.7-.63-2.28.11-1.31,1.71-1.7,2.73-1.7,1.51,0,2.36.87,2.55,1.45.73,2.23,1.78,5.28,2.4,7.56.04.15.07.34.05.53-.14,1.55-2.12,2.57-3.53,2.57ZM391.74,105.78h-3.21c-.44,0-.81.34-.85.78l-.27,3.1c-.04.44.27.78.71.78h3.21l.41-4.65ZM400.62,106.56c.04-.44-.27-.78-.71-.78h-3.26l-.41,4.65h3.26c.44,0,.81-.34.85-.78l.27-3.1Z"/><path class="cls-2" d="M417.58,127.98c-4.28,0-9.05-6.64-8.76-18.85.07-4.12.98-12.36,2.01-18.56.22-1.41,2.07-2.52,4.39-2.42,2.32.15,3.72,1.45,3.43,3-1.25,7.03-1.99,14.97-2.03,17.06-.12,5.81,1.22,8.87,2.09,8.87.68,0,1.84-1.6,4.16-5.33.79-1.21,2.51-1.45,4.31-.39,1.71,1.07,2.34,2.71,1.61,3.88-5.88,9.35-7.88,12.75-11.23,12.75ZM446.63,116.2c-2.56.87-4.5-.24-4.8-1.84-.75-4.17-2.52-10.66-3.86-14.25-.51-1.41.42-3.15,2.74-4.07,2.22-.87,4.04-.63,4.66.68,1.87,4.17,3.96,10.85,4.99,15.26.4,1.6-1.12,3.29-3.73,4.22Z"/><path class="cls-6" d="M8.35,122.02c-1.16,1.07-3.12.68-4.63-1.02-1.56-1.7-1.53-3.68-.36-4.75,6.38-5.67,7.72-9.84,9.14-24.96.13-1.5,1.84-2.66,4.22-2.66s3.88,1.21,3.75,2.71c-1.65,17.69-3.18,22.49-12.12,30.68ZM26.63,123.33c-1.41.58-3.04-.24-4.19-2.13-1.14-1.94-.84-3.73-.04-5.04.46-.78.68-1.7.81-3.2l2.04-23.31c.13-1.5,1.79-2.71,4.18-2.71s3.84,1.16,3.71,2.67l-2.02,23.12c2.48-1.11,6.67-3.92,10.19-6.88,1.21-1.02,3.23-.73,4.46,1.26,1.24,1.94,1.21,3.97-.04,4.94-5.97,4.8-12.57,8.58-19.08,11.29Z"/><path class="cls-6" d="M79.6,116.74c-1.71,1.74-3.73,2.08-4.67,1.07l-7.16-7.7-1.16,13.28c-.13,1.45-1.79,2.67-4.12,2.67s-3.83-1.21-3.71-2.67l.78-8.92c-2.66,1.45-5.66,2.96-9.15,4.56-1.52.73-3.38-.34-4.24-2.67-.86-2.42-.05-4.46,1.52-5.09,13.39-5.14,18.02-8.62,20.49-11.19h-17.46c-1.46,0-2.5-1.5-2.28-3.93.2-2.33,1.51-3.88,2.97-3.88h16.1-.15c-3.53-2.42-6.02-3.49-8.24-4.26-1.28-.44-1.85-2.23-.66-4.17,1.2-1.99,2.74-3,4.07-2.62,2.33.63,4.73,1.55,9.4,4.31,1.25.73,1.27,2.71-.08,4.8-.62.97-1.41,1.65-2.21,1.94h.1c2,0,3.22-.1,4.07-.34.55-.15,1.14-.19,1.62-.15,1.14.29,1.92.87,3.22,2.08,1.3,1.21,1.67,2.62,1,3.63-1.73,2.57-3.7,5.04-6.4,7.51l7.36,7.03c1.03.97.72,2.91-1,4.7Z"/><path class="cls-6" d="M119.25,101.71h-6.57c-1.5,9.89-4.16,14.2-13.16,23.6-1.07,1.12-3.1.97-4.87-.48-1.81-1.5-2.09-3.34-.87-4.51,6.95-6.59,9.45-10.13,10.97-18.61h-9.14l-.91,10.42c-.13,1.45-1.84,2.66-4.17,2.66s-3.88-1.21-3.75-2.66l.91-10.42h-5.93c-1.41,0-2.4-1.5-2.21-3.68.2-2.23,1.45-3.73,2.86-3.73h5.93l.64-7.37c.14-1.55,1.84-2.71,4.18-2.71s3.89,1.11,3.76,2.62l-.65,7.46h9.49c.24-2.18.46-4.65.7-7.46.13-1.46,1.79-2.67,4.12-2.62,2.29,0,3.79,1.21,3.65,2.71-.24,2.71-.45,5.19-.69,7.37h6.37c1.41,0,2.4,1.5,2.2,3.73-.19,2.18-1.44,3.68-2.85,3.68Z"/><path class="cls-6" d="M118.57,123.33c-1.56.58-3.22-.49-3.99-2.71-.77-2.28.03-4.26,1.63-4.75,13.3-4.17,22.71-9.88,33.96-19.58,1.16-1.02,3.12-.68,4.37,1.21,1.29,1.89,1.22,3.83.06,4.85-14.59,12.26-20.77,15.51-36.03,20.98ZM132.24,99.48c-1.77,1.84-3.74,2.18-4.77,1.16-5.28-5.28-7.59-7.22-9.02-8.14-1.1-.73-1.39-2.42-.06-4.26,1.32-1.79,3-2.57,4.16-1.99,2.61,1.36,4.52,2.81,10.74,8.43,1.03.97.66,3-1.05,4.8Z"/><path class="cls-6" d="M180.99,123.23c-1.95,1.7-3.96,1.94-4.94.87l-8.99-10.13c-3.6,3.29-8.28,6.83-14.68,11-1.34.87-3.14.34-4.6-1.4-1.45-1.75-1.17-3.83.16-4.65,18.64-11.73,22.67-19.48,23.74-23.94h-18.05c-1.51,0-2.54-1.5-2.33-3.93.2-2.33,1.51-3.92,3.02-3.92h17.07c1.85,0,2.88-.1,3.53-.29.55-.15,1.19-.24,1.71-.15,1.05.24,1.79.73,3.01,1.79,1.22,1.07,1.7,2.23,1.32,3.25-2.38,6.59-4.37,11.53-8.5,16.57l9.81,10.18c1.03,1.07.51,3.1-1.29,4.75Z"/><path class="cls-6" d="M187.89,124.44c-.73,1.07-2.31,1.41-4.16.87-1.85-.53-2.99-1.41-3.02-2.71-.08-3.59.1-11.15.85-20.3.37-4.17,2.07-13.08,3.18-17.98.38-1.6,2.21-2.47,4.63-2.28,2.46.24,3.58,1.89,3.16,3.34-1.52,5.09-3.04,13.04-3.37,16.82-.61,6.98-.65,10.18-.57,11.53.01.39.54.53.86.19.54-.63,1.28-1.84,1.92-3,.46-.82,1.7-1.07,2.74-.19,1.09.87,1.38,1.99.87,2.81-2.69,4.07-5.52,8.63-7.08,10.9ZM219.27,121.14c-1.07-.58-2.09-1.16-3.07-1.65-.99,3.49-4.77,6.15-10.9,6.15-7.93,0-9.85-3.63-9.45-8.19.36-4.07,4.23-8.29,10.16-8.29,1.02,0,2.03.1,3.05.19.15-2.76.3-6.15.5-9.64-3.37.19-6.69.29-9.4.15-1.6-.05-2.62-1.79-2.4-4.26.17-2.52,2.28-3.78,3.82-3.68,2.22.14,5.14.14,8.32,0,.1-2.76.21-5.23.23-7.08.04-1.55,1.72-2.96,4.25-2.96s4.08,1.21,4.04,2.76c-.06,1.84-.21,4.07-.37,6.49,1.43-.19,2.81-.39,4.09-.63,1.53-.24,2.97,1.12,2.85,3.54-.11,2.42-1.24,4.12-2.76,4.36-1.33.19-2.91.44-4.63.63-.24,4.41-.53,8.82-.73,12.26,1.98.73,4.09,1.65,6.48,2.71,1.35.63,1.62,2.62.41,4.8-1.26,2.18-3.19,3.05-4.48,2.33ZM205.2,115.67c-1.9,0-2.87,1.07-2.93,1.79-.12,1.36.94,2.08,2.88,2.08s3.03-.78,3.46-3.39c-1.19-.34-2.29-.48-3.41-.48Z"/><path class="cls-6" d="M232.67,113.05c-1.21,3.88-2.33,6.64-3.51,8.97-.23.44-.86.92-1.78.92-1.51,0-3.19-1.31-3.05-2.91.03-.29.1-.58.21-.78,1.21-2.18,2.35-5.14,3.08-7.41.2-.63.85-1.41,2.21-1.41s3.05.78,2.91,2.33c-.01.15-.07.19-.07.29ZM248.79,91.2h-19.51c-1.56,0-2.27-.78-2.06-3.15s1.06-3.2,2.61-3.2h6.03l.07-.78c.17-1.94,1.23-2.91,4.15-2.91s3.86.97,3.69,2.91l-.07.78h5.64c1.56,0,2.31.82,2.1,3.2s-1.1,3.15-2.66,3.15ZM244,108.16h-2.53l-1.14,12.99c-.28,3.2-2.01,5.19-5.46,5.19h-2.48c-1.56,0-2.46-.78-2.25-3.15.2-2.33,1.42-2.91,2.2-2.91h.39c.58,0,.95-.34,1.01-1.02l.97-11.1h-3.79c-2.04,0-3.51-1.6-3.33-3.63l.67-7.66c.18-2.04,1.92-3.63,3.97-3.63h13.08c2.04,0,3.51,1.6,3.33,3.63l-.67,7.66c-.18,2.04-1.92,3.63-3.97,3.63ZM241.75,99.39c.04-.44-.27-.78-.71-.78h-5.5c-.44,0-.81.34-.85.78l-.23,2.62c-.04.44.27.78.71.78h5.5c.44,0,.81-.34.85-.78l.23-2.62ZM264.3,125.7h-3.65c-2.92,0-4.16-1.4-3.9-4.31l.83-9.45c-1.64,4.26-3.68,8.67-6.16,12.6-.33.48-1.06,1.02-2.04,1.02-1.8,0-3.84-1.74-3.67-3.59.1-1.16,1.79-3.25,2.42-4.31-.78.63-2.4,1.31-3.37,1.31-.83,0-1.23-.44-1.49-1.31l-1.26-4.51c-.07-.29-.09-.58-.07-.82.12-1.41,2.53-2.18,3.79-2.18.88,0,1.37.44,1.64,1.26l1.36,3.97c.12.34.19.63.17.87,2.75-5.28,4.86-11.68,5.98-18.27h-1.85c-1.8,0-2.6-.87-2.36-3.63.24-2.76,1.2-3.68,3-3.68h2.09l.61-6.98c.14-1.65,1.05-2.52,3.62-2.52s3.38.87,3.23,2.52l-.61,6.98h7c1.8,0,2.64.92,2.4,3.68-.24,2.76-1.24,3.63-3.04,3.63h-7.39c-.17.82-.34,1.65-.51,2.52h.58c2.33,0,3.05.78,2.91,2.28l-1.36,15.56c-.05.58.12.87.7.87h1.22c1.9,0,.43-5.52,2.96-5.52,1.31,0,2.95,1.36,2.83,2.71v.05c-.7,7.9-3,9.25-6.6,9.25ZM267.82,89.45c-.88,0-1.32-.44-1.54-1.26l-1-3.54c-.07-.29-.1-.53-.08-.78.12-1.36,2.42-2.08,3.59-2.08.88,0,1.32.44,1.54,1.26l1.05,3.54c.07.29.1.53.08.78-.12,1.36-2.47,2.08-3.64,2.08Z"/><path class="cls-6" d="M290.98,88.77l-3.12,35.62c-.12,1.36-.9,1.99-2.95,1.99s-2.72-.63-2.6-1.99l.28-3.2c-1.25.44-6.66,2.18-7.63,2.18-1.85,0-2.59-2.13-2.45-3.73.13-1.5,1.08-2.33,1.83-2.62l2.47-28.25c-1-.29-1.41-1.16-1.24-3.1.21-2.37,1.06-3.2,2.61-3.2h12.55c1.56,0,2.31.82,2.1,3.2-.17,1.99-.79,2.86-1.88,3.1ZM283.5,110.92h-3.06l-.43,4.89c1.1-.29,2.14-.58,3.15-.92l.35-3.97ZM284.44,100.16h-3.06l-.4,4.56h3.06l.4-4.56ZM285.43,88.87h-3.06l-.45,5.09h3.06l.45-5.09ZM318.16,121.78c-1.35,2.62-3.17,4.55-4.92,4.55-2.38,0-3.58-2.96-4.2-4.8-.93,1.16-2.88,4.02-4.49,4.02s-3-1.79-2.87-3.29c.02-.19.08-.39.15-.58-.3.1-.64.15-.99.15h-6.66c-2.04,0-3.51-1.6-3.33-3.63l1-11.39c.18-2.04,1.92-3.63,3.97-3.63h6.66c2.04,0,3.51,1.6,3.33,3.63l-1.02,11.63c.97-1.11,1.95-2.28,2.94-3.54-.41-3.63-.55-8.14-.37-13.57h-14.2c-1.41,0-2.03-.68-1.84-2.86.19-2.18.94-2.91,2.35-2.91h1.07l-.58-3.34c.05-.53.48-1.07,1.29-1.36h-.63c-1.46,0-2.13-.73-1.93-2.96s.99-3,2.45-3h2.38l.12-1.36c.13-1.5.98-2.28,3.31-2.28s3.04.78,2.91,2.28l-.12,1.36h1.95c1.46,0,2.17.78,1.97,3s-1.04,2.96-2.5,2.96h-.15c.55.34.85.82.81,1.31l-1.42,3.39h3.07l1.03-12.36c.12-1.36.86-2.08,3-2.08s2.81.73,2.69,2.08l-1.03,12.36h4.57c1.41,0,2.08.73,1.89,2.91-.19,2.18-.98,2.86-2.39,2.86h-4.43c-.05,2.23-.08,4.26-.09,6.06.67-1.02,1.53-3.54,2.89-3.54s2.78,1.55,2.67,2.91c-.1,1.11-4.09,7.27-4.93,8.58.32,1.89.82,2.86,1.36,2.86.88,0,.94-1.84,1.91-1.84,1.31,0,1.76,3.25,1.67,4.22-.05.53-.18.97-.3,1.21ZM300,114.7h-3.75l-.17,1.94c-.04.44.27.78.71.78h2.19c.44,0,.81-.34.85-.78l.17-1.94ZM300.55,108.4c.04-.44-.27-.78-.71-.78h-2.19c-.44,0-.81.34-.85.78l-.16,1.84h3.75l.16-1.84ZM297.47,90.86c.89.44,1.19,3.68,1.34,4.7h1.6l1.67-4.12c.12-.24.28-.44.49-.58h-5.11ZM317.35,94.3c-.63,0-.95-.29-1.19-.92l-1.82-5.28c-.08-.24-.1-.48-.09-.68.09-1.06,2.1-1.79,3.03-1.79.68,0,.99.34,1.23.97l1.83,5.23c.08.24.1.49.09.68-.1,1.11-2.1,1.79-3.07,1.79Z"/><path class="cls-6" d="M326.44,123.91c-.68,1.12-2.22,1.5-4.08,1.07-1.9-.48-3.04-1.4-3.08-2.62-.08-3.54.09-10.47.88-19.53.37-4.22,2.17-12.55,3.38-17.45.37-1.45,2.25-2.42,4.66-2.08,2.35.34,3.58,1.89,3.11,3.39-1.45,4.89-3.31,12.21-3.63,15.94-.6,6.88-.73,10.03-.69,11.24.06.44.44.48.67.1.44-.58.89-1.31,1.41-2.18.47-.87,1.75-1.07,2.72,0,.93,1.07,1.18,2.13.62,2.91-3.06,4.36-4.93,7.46-5.96,9.21ZM357.59,122.02c-6.18.63-10.61.63-13.87.63-5.69,0-9.95-4.65-9.64-8.29.13-1.5.57-3.2,2.65-6.98.69-1.21,2.38-1.6,4.38-1.16,2,.48,2.69,2.08,2.05,3.29-.71,1.41-1.03,2.38-1.07,2.81-.14,1.6.67,2.38,6.07,2.38,1.26,0,5.76-.19,8.86-.58,1.57-.19,3.31,1.11,3.29,3.54.03,2.42-1.15,4.22-2.72,4.36ZM357.48,95.51c-4.69-.29-11.32-.15-17.14.24-1.57.1-2.75-1.41-2.68-3.88.12-2.47,1.44-4.22,3-4.26,4.63-.15,12.18-.24,18.21-.15,1.55.05,2.57,1.75,2.16,4.26-.36,2.42-1.99,3.88-3.54,3.78Z"/><path class="cls-6" d="M368.21,126.33h-3.55c-1.85,0-2.64-.92-2.4-3.73.24-2.71,1.9-3.39,2.92-3.34l1.7.05c1.46.05,2.3-.73,2.61-4.26l.39-4.51c.04-.44-.27-.78-.71-.78h-5.21c-1.9,0-3.14-1.41-2.98-3.25l1.93-9.84c.42-2.04,2.31-3.63,4.36-3.63h3.36c.44,0,.81-.34.85-.78l.22-2.47c.04-.44-.27-.78-.71-.78h-5.45c-1.65,0-2.41-.82-2.18-3.39s1.13-3.44,2.78-3.44h9c2.04,0,3.51,1.6,3.33,3.63l-.89,10.18c-.18,2.04-1.92,3.63-3.97,3.63h-4.48c-.44,0-.86.34-.94.78l-.42,2.04c-.03.39.23.68.62.68h4.91c2.04,0,3.51,1.6,3.33,3.63l-.85,9.69c-.63,7.22-3.2,9.89-7.58,9.89ZM400.99,125.85c-1.75,0-1.74-1.21-2.03-2.42-5.51.73-10.97,1.99-19.83,1.99h-.1c-1.8,0-2.63-2.13-2.49-3.73.16-1.79,1.43-2.42,2.11-2.47,2.93-.1,5.67-.29,8.21-.48l.48-5.48h-5.45c-2.04,0-3.51-1.6-3.33-3.63l.73-8.33c.18-2.04,1.92-3.63,3.97-3.63h5.45l.25-2.81-7.54.53c-1.66.1-2.26-1.94-2.14-3.34.17-1.94,1.49-2.62,2.22-2.62h.78l3.33-6.4c.58-1.12,1.42-1.75,2.83-1.75s4.37.63,4.23,2.28c-.03.34-.16.73-.39,1.16l-2.38,4.36c2.89-.19,5.78-.44,8.47-.68l-.68-2.18c-.12-.34-.14-.63-.12-.92.13-1.5,2.72-2.18,3.99-2.18,1.07,0,1.61.48,1.92,1.46l2.68,8.29c.12.34.13.68.11.92-.13,1.5-2.88,2.33-4.14,2.33-.97,0-1.46-.48-1.77-1.41l-.3-.97c-1.18.15-2.56.34-4.23.48l-.3,3.44h5.55c2.04,0,3.51,1.6,3.33,3.63l-.73,8.33c-.18,2.04-1.92,3.63-3.97,3.63h-5.55l-.43,4.9c1.28-.15,2.51-.29,3.69-.44-.19-.58-.68-1.7-.63-2.28.11-1.31,1.71-1.7,2.73-1.7,1.51,0,2.36.87,2.55,1.45.73,2.23,1.77,5.28,2.4,7.56.04.14.07.34.05.53-.13,1.55-2.12,2.57-3.53,2.57ZM389.22,103.02h-3.21c-.44,0-.81.34-.85.78l-.27,3.1c-.04.44.27.78.71.78h3.21l.41-4.65ZM398.1,103.8c.04-.44-.27-.78-.71-.78h-3.26l-.41,4.65h3.26c.44,0,.81-.34.85-.78l.27-3.1Z"/><path class="cls-6" d="M415.06,125.22c-4.28,0-9.05-6.64-8.76-18.85.07-4.12.98-12.36,2.01-18.56.22-1.41,2.07-2.52,4.4-2.42,2.32.15,3.72,1.46,3.43,3.01-1.25,7.03-1.99,14.97-2.03,17.06-.12,5.81,1.22,8.87,2.09,8.87.68,0,1.84-1.6,4.16-5.33.79-1.21,2.51-1.45,4.31-.39,1.71,1.07,2.34,2.71,1.61,3.88-5.88,9.35-7.88,12.74-11.23,12.74ZM444.1,113.44c-2.56.87-4.5-.24-4.8-1.84-.75-4.17-2.52-10.66-3.86-14.25-.51-1.41.42-3.15,2.74-4.07,2.22-.87,4.04-.63,4.66.68,1.87,4.17,3.96,10.85,4.99,15.26.39,1.6-1.12,3.29-3.73,4.22Z"/><path class="cls-2" d="M8.35,122.02c-1.16,1.07-3.12.68-4.63-1.02-1.56-1.7-1.53-3.68-.36-4.75,6.38-5.67,7.72-9.84,9.14-24.96.13-1.5,1.84-2.66,4.22-2.66s3.88,1.21,3.75,2.71c-1.65,17.69-3.18,22.49-12.12,30.68ZM26.63,123.33c-1.41.58-3.04-.24-4.19-2.13-1.14-1.94-.84-3.73-.04-5.04.46-.78.68-1.7.81-3.2l2.04-23.31c.13-1.5,1.79-2.71,4.18-2.71s3.84,1.16,3.71,2.67l-2.02,23.12c2.48-1.11,6.67-3.92,10.19-6.88,1.21-1.02,3.23-.73,4.46,1.26,1.24,1.94,1.21,3.97-.04,4.94-5.97,4.8-12.57,8.58-19.08,11.29Z"/><path class="cls-2" d="M79.6,116.74c-1.71,1.74-3.73,2.08-4.67,1.07l-7.16-7.7-1.16,13.28c-.13,1.45-1.79,2.67-4.12,2.67s-3.83-1.21-3.71-2.67l.78-8.92c-2.66,1.45-5.66,2.96-9.15,4.56-1.52.73-3.38-.34-4.24-2.67-.86-2.42-.05-4.46,1.52-5.09,13.39-5.14,18.02-8.62,20.49-11.19h-17.46c-1.46,0-2.5-1.5-2.28-3.93.2-2.33,1.51-3.88,2.97-3.88h16.1-.15c-3.53-2.42-6.02-3.49-8.24-4.26-1.28-.44-1.85-2.23-.66-4.17,1.2-1.99,2.74-3,4.07-2.62,2.33.63,4.73,1.55,9.4,4.31,1.25.73,1.27,2.71-.08,4.8-.62.97-1.41,1.65-2.21,1.94h.1c2,0,3.22-.1,4.07-.34.55-.15,1.14-.19,1.62-.15,1.14.29,1.92.87,3.22,2.08,1.3,1.21,1.67,2.62,1,3.63-1.73,2.57-3.7,5.04-6.4,7.51l7.36,7.03c1.03.97.72,2.91-1,4.7Z"/><path class="cls-2" d="M119.25,101.71h-6.57c-1.5,9.89-4.16,14.2-13.16,23.6-1.07,1.12-3.1.97-4.87-.48-1.81-1.5-2.09-3.34-.87-4.51,6.95-6.59,9.45-10.13,10.97-18.61h-9.14l-.91,10.42c-.13,1.45-1.84,2.66-4.17,2.66s-3.88-1.21-3.75-2.66l.91-10.42h-5.93c-1.41,0-2.4-1.5-2.21-3.68.2-2.23,1.45-3.73,2.86-3.73h5.93l.64-7.37c.14-1.55,1.84-2.71,4.18-2.71s3.89,1.11,3.76,2.62l-.65,7.46h9.49c.24-2.18.46-4.65.7-7.46.13-1.46,1.79-2.67,4.12-2.62,2.29,0,3.79,1.21,3.65,2.71-.24,2.71-.45,5.19-.69,7.37h6.37c1.41,0,2.4,1.5,2.2,3.73-.19,2.18-1.44,3.68-2.85,3.68Z"/><path class="cls-2" d="M118.57,123.33c-1.56.58-3.22-.49-3.99-2.71-.77-2.28.03-4.26,1.63-4.75,13.3-4.17,22.71-9.88,33.96-19.58,1.16-1.02,3.12-.68,4.37,1.21,1.29,1.89,1.22,3.83.06,4.85-14.59,12.26-20.77,15.51-36.03,20.98ZM132.24,99.48c-1.77,1.84-3.74,2.18-4.77,1.16-5.28-5.28-7.59-7.22-9.02-8.14-1.1-.73-1.39-2.42-.06-4.26,1.32-1.79,3-2.57,4.16-1.99,2.61,1.36,4.52,2.81,10.74,8.43,1.03.97.66,3-1.05,4.8Z"/><path class="cls-2" d="M180.99,123.23c-1.95,1.7-3.96,1.94-4.94.87l-8.99-10.13c-3.6,3.29-8.28,6.83-14.68,11-1.34.87-3.14.34-4.6-1.4-1.45-1.75-1.17-3.83.16-4.65,18.64-11.73,22.67-19.48,23.74-23.94h-18.05c-1.51,0-2.54-1.5-2.33-3.93.2-2.33,1.51-3.92,3.02-3.92h17.07c1.85,0,2.88-.1,3.53-.29.55-.15,1.19-.24,1.71-.15,1.05.24,1.79.73,3.01,1.79,1.22,1.07,1.7,2.23,1.32,3.25-2.38,6.59-4.37,11.53-8.5,16.57l9.81,10.18c1.03,1.07.51,3.1-1.29,4.75Z"/><path class="cls-2" d="M187.89,124.44c-.73,1.07-2.31,1.41-4.16.87-1.85-.53-2.99-1.41-3.02-2.71-.08-3.59.1-11.15.85-20.3.37-4.17,2.07-13.08,3.18-17.98.38-1.6,2.21-2.47,4.63-2.28,2.46.24,3.58,1.89,3.16,3.34-1.52,5.09-3.04,13.04-3.37,16.82-.61,6.98-.65,10.18-.57,11.53.01.39.54.53.86.19.54-.63,1.28-1.84,1.92-3,.46-.82,1.7-1.07,2.74-.19,1.09.87,1.38,1.99.87,2.81-2.69,4.07-5.52,8.63-7.08,10.9ZM219.27,121.14c-1.07-.58-2.09-1.16-3.07-1.65-.99,3.49-4.77,6.15-10.9,6.15-7.93,0-9.85-3.63-9.45-8.19.36-4.07,4.23-8.29,10.16-8.29,1.02,0,2.03.1,3.05.19.15-2.76.3-6.15.5-9.64-3.37.19-6.69.29-9.4.15-1.6-.05-2.62-1.79-2.4-4.26.17-2.52,2.28-3.78,3.82-3.68,2.22.14,5.14.14,8.32,0,.1-2.76.21-5.23.23-7.08.04-1.55,1.72-2.96,4.25-2.96s4.08,1.21,4.04,2.76c-.06,1.84-.21,4.07-.37,6.49,1.43-.19,2.81-.39,4.09-.63,1.53-.24,2.97,1.12,2.85,3.54-.11,2.42-1.24,4.12-2.76,4.36-1.33.19-2.91.44-4.63.63-.24,4.41-.53,8.82-.73,12.26,1.98.73,4.09,1.65,6.48,2.71,1.35.63,1.62,2.62.41,4.8-1.26,2.18-3.19,3.05-4.48,2.33ZM205.2,115.67c-1.9,0-2.87,1.07-2.93,1.79-.12,1.36.94,2.08,2.88,2.08s3.03-.78,3.46-3.39c-1.19-.34-2.29-.48-3.41-.48Z"/><path class="cls-2" d="M232.67,113.05c-1.21,3.88-2.33,6.64-3.51,8.97-.23.44-.86.92-1.78.92-1.51,0-3.19-1.31-3.05-2.91.03-.29.1-.58.21-.78,1.21-2.18,2.35-5.14,3.08-7.41.2-.63.85-1.41,2.21-1.41s3.05.78,2.91,2.33c-.01.15-.07.19-.07.29ZM248.79,91.2h-19.51c-1.56,0-2.27-.78-2.06-3.15s1.06-3.2,2.61-3.2h6.03l.07-.78c.17-1.94,1.23-2.91,4.15-2.91s3.86.97,3.69,2.91l-.07.78h5.64c1.56,0,2.31.82,2.1,3.2s-1.1,3.15-2.66,3.15ZM244,108.16h-2.53l-1.14,12.99c-.28,3.2-2.01,5.19-5.46,5.19h-2.48c-1.56,0-2.46-.78-2.25-3.15.2-2.33,1.42-2.91,2.2-2.91h.39c.58,0,.95-.34,1.01-1.02l.97-11.1h-3.79c-2.04,0-3.51-1.6-3.33-3.63l.67-7.66c.18-2.04,1.92-3.63,3.97-3.63h13.08c2.04,0,3.51,1.6,3.33,3.63l-.67,7.66c-.18,2.04-1.92,3.63-3.97,3.63ZM241.75,99.39c.04-.44-.27-.78-.71-.78h-5.5c-.44,0-.81.34-.85.78l-.23,2.62c-.04.44.27.78.71.78h5.5c.44,0,.81-.34.85-.78l.23-2.62ZM264.3,125.7h-3.65c-2.92,0-4.16-1.4-3.9-4.31l.83-9.45c-1.64,4.26-3.68,8.67-6.16,12.6-.33.48-1.06,1.02-2.04,1.02-1.8,0-3.84-1.74-3.67-3.59.1-1.16,1.79-3.25,2.42-4.31-.78.63-2.4,1.31-3.37,1.31-.83,0-1.23-.44-1.49-1.31l-1.26-4.51c-.07-.29-.09-.58-.07-.82.12-1.41,2.53-2.18,3.79-2.18.88,0,1.37.44,1.64,1.26l1.36,3.97c.12.34.19.63.17.87,2.75-5.28,4.86-11.68,5.98-18.27h-1.85c-1.8,0-2.6-.87-2.36-3.63.24-2.76,1.2-3.68,3-3.68h2.09l.61-6.98c.14-1.65,1.05-2.52,3.62-2.52s3.38.87,3.23,2.52l-.61,6.98h7c1.8,0,2.64.92,2.4,3.68-.24,2.76-1.24,3.63-3.04,3.63h-7.39c-.17.82-.34,1.65-.51,2.52h.58c2.33,0,3.05.78,2.91,2.28l-1.36,15.56c-.05.58.12.87.7.87h1.22c1.9,0,.43-5.52,2.96-5.52,1.31,0,2.95,1.36,2.83,2.71v.05c-.7,7.9-3,9.25-6.6,9.25ZM267.82,89.45c-.88,0-1.32-.44-1.54-1.26l-1-3.54c-.07-.29-.1-.53-.08-.78.12-1.36,2.42-2.08,3.59-2.08.88,0,1.32.44,1.54,1.26l1.05,3.54c.07.29.1.53.08.78-.12,1.36-2.47,2.08-3.64,2.08Z"/><path class="cls-2" d="M290.98,88.77l-3.12,35.62c-.12,1.36-.9,1.99-2.95,1.99s-2.72-.63-2.6-1.99l.28-3.2c-1.25.44-6.66,2.18-7.63,2.18-1.85,0-2.59-2.13-2.45-3.73.13-1.5,1.08-2.33,1.83-2.62l2.47-28.25c-1-.29-1.41-1.16-1.24-3.1.21-2.37,1.06-3.2,2.61-3.2h12.55c1.56,0,2.31.82,2.1,3.2-.17,1.99-.79,2.86-1.88,3.1ZM283.5,110.92h-3.06l-.43,4.89c1.1-.29,2.14-.58,3.15-.92l.35-3.97ZM284.44,100.16h-3.06l-.4,4.56h3.06l.4-4.56ZM285.43,88.87h-3.06l-.45,5.09h3.06l.45-5.09ZM318.16,121.78c-1.35,2.62-3.17,4.55-4.92,4.55-2.38,0-3.58-2.96-4.2-4.8-.93,1.16-2.88,4.02-4.49,4.02s-3-1.79-2.87-3.29c.02-.19.08-.39.15-.58-.3.1-.64.15-.99.15h-6.66c-2.04,0-3.51-1.6-3.33-3.63l1-11.39c.18-2.04,1.92-3.63,3.97-3.63h6.66c2.04,0,3.51,1.6,3.33,3.63l-1.02,11.63c.97-1.11,1.95-2.28,2.94-3.54-.41-3.63-.55-8.14-.37-13.57h-14.2c-1.41,0-2.03-.68-1.84-2.86.19-2.18.94-2.91,2.35-2.91h1.07l-.58-3.34c.05-.53.48-1.07,1.29-1.36h-.63c-1.46,0-2.13-.73-1.93-2.96s.99-3,2.45-3h2.38l.12-1.36c.13-1.5.98-2.28,3.31-2.28s3.04.78,2.91,2.28l-.12,1.36h1.95c1.46,0,2.17.78,1.97,3s-1.04,2.96-2.5,2.96h-.15c.55.34.85.82.81,1.31l-1.42,3.39h3.07l1.03-12.36c.12-1.36.86-2.08,3-2.08s2.81.73,2.69,2.08l-1.03,12.36h4.57c1.41,0,2.08.73,1.89,2.91-.19,2.18-.98,2.86-2.39,2.86h-4.43c-.05,2.23-.08,4.26-.09,6.06.67-1.02,1.53-3.54,2.89-3.54s2.78,1.55,2.67,2.91c-.1,1.11-4.09,7.27-4.93,8.58.32,1.89.82,2.86,1.36,2.86.88,0,.94-1.84,1.91-1.84,1.31,0,1.76,3.25,1.67,4.22-.05.53-.18.97-.3,1.21ZM300,114.7h-3.75l-.17,1.94c-.04.44.27.78.71.78h2.19c.44,0,.81-.34.85-.78l.17-1.94ZM300.55,108.4c.04-.44-.27-.78-.71-.78h-2.19c-.44,0-.81.34-.85.78l-.16,1.84h3.75l.16-1.84ZM297.47,90.86c.89.44,1.19,3.68,1.34,4.7h1.6l1.67-4.12c.12-.24.28-.44.49-.58h-5.11ZM317.35,94.3c-.63,0-.95-.29-1.19-.92l-1.82-5.28c-.08-.24-.1-.48-.09-.68.09-1.06,2.1-1.79,3.03-1.79.68,0,.99.34,1.23.97l1.83,5.23c.08.24.1.49.09.68-.1,1.11-2.1,1.79-3.07,1.79Z"/><path class="cls-2" d="M326.44,123.91c-.68,1.12-2.22,1.5-4.08,1.07-1.9-.48-3.04-1.4-3.08-2.62-.08-3.54.09-10.47.88-19.53.37-4.22,2.17-12.55,3.38-17.45.37-1.45,2.25-2.42,4.66-2.08,2.35.34,3.58,1.89,3.11,3.39-1.45,4.89-3.31,12.21-3.63,15.94-.6,6.88-.73,10.03-.69,11.24.06.44.44.48.67.1.44-.58.89-1.31,1.41-2.18.47-.87,1.75-1.07,2.72,0,.93,1.07,1.18,2.13.62,2.91-3.06,4.36-4.93,7.46-5.96,9.21ZM357.59,122.02c-6.18.63-10.61.63-13.87.63-5.69,0-9.95-4.65-9.64-8.29.13-1.5.57-3.2,2.65-6.98.69-1.21,2.38-1.6,4.38-1.16,2,.48,2.69,2.08,2.05,3.29-.71,1.41-1.03,2.38-1.07,2.81-.14,1.6.67,2.38,6.07,2.38,1.26,0,5.76-.19,8.86-.58,1.57-.19,3.31,1.11,3.29,3.54.03,2.42-1.15,4.22-2.72,4.36ZM357.48,95.51c-4.69-.29-11.32-.15-17.14.24-1.57.1-2.75-1.41-2.68-3.88.12-2.47,1.44-4.22,3-4.26,4.63-.15,12.18-.24,18.21-.15,1.55.05,2.57,1.75,2.16,4.26-.36,2.42-1.99,3.88-3.54,3.78Z"/><path class="cls-2" d="M368.21,126.33h-3.55c-1.85,0-2.64-.92-2.4-3.73.24-2.71,1.9-3.39,2.92-3.34l1.7.05c1.46.05,2.3-.73,2.61-4.26l.39-4.51c.04-.44-.27-.78-.71-.78h-5.21c-1.9,0-3.14-1.41-2.98-3.25l1.93-9.84c.42-2.04,2.31-3.63,4.36-3.63h3.36c.44,0,.81-.34.85-.78l.22-2.47c.04-.44-.27-.78-.71-.78h-5.45c-1.65,0-2.41-.82-2.18-3.39s1.13-3.44,2.78-3.44h9c2.04,0,3.51,1.6,3.33,3.63l-.89,10.18c-.18,2.04-1.92,3.63-3.97,3.63h-4.48c-.44,0-.86.34-.94.78l-.42,2.04c-.03.39.23.68.62.68h4.91c2.04,0,3.51,1.6,3.33,3.63l-.85,9.69c-.63,7.22-3.2,9.89-7.58,9.89ZM400.99,125.85c-1.75,0-1.74-1.21-2.03-2.42-5.51.73-10.97,1.99-19.83,1.99h-.1c-1.8,0-2.63-2.13-2.49-3.73.16-1.79,1.43-2.42,2.11-2.47,2.93-.1,5.67-.29,8.21-.48l.48-5.48h-5.45c-2.04,0-3.51-1.6-3.33-3.63l.73-8.33c.18-2.04,1.92-3.63,3.97-3.63h5.45l.25-2.81-7.54.53c-1.66.1-2.26-1.94-2.14-3.34.17-1.94,1.49-2.62,2.22-2.62h.78l3.33-6.4c.58-1.12,1.42-1.75,2.83-1.75s4.37.63,4.23,2.28c-.03.34-.16.73-.39,1.16l-2.38,4.36c2.89-.19,5.78-.44,8.47-.68l-.68-2.18c-.12-.34-.14-.63-.12-.92.13-1.5,2.72-2.18,3.99-2.18,1.07,0,1.61.48,1.92,1.46l2.68,8.29c.12.34.13.68.11.92-.13,1.5-2.88,2.33-4.14,2.33-.97,0-1.46-.48-1.77-1.41l-.3-.97c-1.18.15-2.56.34-4.23.48l-.3,3.44h5.55c2.04,0,3.51,1.6,3.33,3.63l-.73,8.33c-.18,2.04-1.92,3.63-3.97,3.63h-5.55l-.43,4.9c1.28-.15,2.51-.29,3.69-.44-.19-.58-.68-1.7-.63-2.28.11-1.31,1.71-1.7,2.73-1.7,1.51,0,2.36.87,2.55,1.45.73,2.23,1.77,5.28,2.4,7.56.04.14.07.34.05.53-.13,1.55-2.12,2.57-3.53,2.57ZM389.22,103.02h-3.21c-.44,0-.81.34-.85.78l-.27,3.1c-.04.44.27.78.71.78h3.21l.41-4.65ZM398.1,103.8c.04-.44-.27-.78-.71-.78h-3.26l-.41,4.65h3.26c.44,0,.81-.34.85-.78l.27-3.1Z"/><path class="cls-2" d="M415.06,125.22c-4.28,0-9.05-6.64-8.76-18.85.07-4.12.98-12.36,2.01-18.56.22-1.41,2.07-2.52,4.4-2.42,2.32.15,3.72,1.46,3.43,3.01-1.25,7.03-1.99,14.97-2.03,17.06-.12,5.81,1.22,8.87,2.09,8.87.68,0,1.84-1.6,4.16-5.33.79-1.21,2.51-1.45,4.31-.39,1.71,1.07,2.34,2.71,1.61,3.88-5.88,9.35-7.88,12.74-11.23,12.74ZM444.1,113.44c-2.56.87-4.5-.24-4.8-1.84-.75-4.17-2.52-10.66-3.86-14.25-.51-1.41.42-3.15,2.74-4.07,2.22-.87,4.04-.63,4.66.68,1.87,4.17,3.96,10.85,4.99,15.26.39,1.6-1.12,3.29-3.73,4.22Z"/><path class="cls-9" d="M5.83,119.25c-1.16,1.07-3.12.68-4.63-1.02-1.55-1.7-1.53-3.68-.36-4.75,6.38-5.67,7.72-9.84,9.14-24.96.13-1.5,1.84-2.67,4.22-2.67s3.88,1.21,3.75,2.71c-1.64,17.69-3.18,22.49-12.12,30.68ZM24.11,120.56c-1.41.58-3.04-.24-4.19-2.13-1.14-1.94-.84-3.73-.05-5.04.46-.78.68-1.7.82-3.2l2.04-23.31c.13-1.5,1.79-2.71,4.18-2.71s3.84,1.16,3.71,2.67l-2.02,23.12c2.48-1.11,6.67-3.92,10.18-6.88,1.21-1.02,3.23-.73,4.46,1.26,1.24,1.94,1.21,3.97-.04,4.94-5.96,4.8-12.57,8.58-19.08,11.29Z"/><path class="cls-9" d="M77.08,113.97c-1.71,1.75-3.73,2.08-4.67,1.07l-7.16-7.71-1.16,13.28c-.13,1.46-1.79,2.67-4.12,2.67s-3.83-1.21-3.71-2.67l.78-8.92c-2.66,1.45-5.66,2.96-9.15,4.55-1.52.73-3.38-.34-4.24-2.66-.86-2.42-.05-4.46,1.52-5.09,13.39-5.14,18.02-8.62,20.49-11.19h-17.46c-1.46,0-2.5-1.5-2.28-3.92.2-2.33,1.51-3.88,2.97-3.88h16.1-.15c-3.53-2.42-6.02-3.49-8.24-4.26-1.28-.44-1.85-2.23-.66-4.17,1.2-1.99,2.74-3,4.07-2.62,2.33.63,4.73,1.55,9.4,4.31,1.25.73,1.27,2.71-.08,4.8-.62.97-1.41,1.65-2.21,1.94h.1c2,0,3.22-.1,4.07-.34.55-.15,1.13-.19,1.62-.15,1.14.29,1.92.87,3.22,2.08,1.31,1.21,1.67,2.62,1,3.63-1.73,2.57-3.7,5.04-6.4,7.51l7.36,7.03c1.03.97.72,2.91-1,4.7Z"/><path class="cls-9" d="M116.72,98.95h-6.57c-1.5,9.89-4.16,14.2-13.16,23.6-1.07,1.11-3.1.97-4.87-.48-1.81-1.5-2.09-3.34-.87-4.51,6.95-6.59,9.45-10.13,10.97-18.61h-9.15l-.91,10.42c-.13,1.45-1.84,2.67-4.17,2.67s-3.88-1.21-3.75-2.67l.91-10.42h-5.93c-1.41,0-2.4-1.5-2.21-3.68.2-2.23,1.45-3.73,2.86-3.73h5.93l.64-7.37c.14-1.55,1.84-2.71,4.18-2.71s3.89,1.11,3.76,2.62l-.65,7.46h9.49c.24-2.18.46-4.65.7-7.46.13-1.45,1.79-2.67,4.12-2.62,2.29,0,3.79,1.21,3.65,2.71-.24,2.71-.45,5.19-.69,7.37h6.37c1.41,0,2.4,1.5,2.2,3.73-.19,2.18-1.44,3.68-2.85,3.68Z"/><path class="cls-9" d="M116.05,120.56c-1.56.58-3.22-.49-3.99-2.71-.77-2.28.03-4.26,1.63-4.75,13.3-4.17,22.71-9.88,33.96-19.58,1.16-1.02,3.12-.68,4.37,1.21,1.29,1.89,1.22,3.83.06,4.85-14.6,12.26-20.77,15.51-36.03,20.98ZM129.71,96.72c-1.77,1.84-3.74,2.18-4.77,1.16-5.28-5.28-7.59-7.22-9.02-8.14-1.1-.73-1.39-2.42-.06-4.26,1.32-1.79,3-2.57,4.16-1.99,2.61,1.36,4.52,2.81,10.74,8.43,1.03.97.66,3-1.05,4.8Z"/><path class="cls-9" d="M178.47,120.47c-1.95,1.7-3.96,1.94-4.94.87l-8.99-10.13c-3.6,3.29-8.28,6.83-14.68,11-1.34.87-3.14.34-4.6-1.4-1.45-1.75-1.17-3.83.16-4.65,18.64-11.73,22.67-19.48,23.74-23.94h-18.05c-1.51,0-2.54-1.5-2.33-3.93.2-2.33,1.51-3.92,3.02-3.92h17.07c1.85,0,2.88-.1,3.53-.29.55-.15,1.19-.24,1.71-.15,1.05.24,1.79.73,3,1.79,1.22,1.07,1.7,2.23,1.32,3.25-2.38,6.59-4.37,11.53-8.5,16.57l9.81,10.18c1.03,1.07.51,3.1-1.29,4.75Z"/><path class="cls-9" d="M185.37,121.68c-.73,1.07-2.31,1.41-4.16.87-1.85-.53-2.99-1.41-3.02-2.71-.08-3.59.1-11.15.85-20.3.36-4.17,2.07-13.08,3.18-17.98.38-1.6,2.21-2.47,4.63-2.28,2.46.24,3.58,1.89,3.16,3.34-1.52,5.09-3.04,13.04-3.37,16.82-.61,6.98-.65,10.18-.57,11.53.01.39.54.53.86.19.54-.63,1.28-1.84,1.92-3,.46-.82,1.7-1.07,2.74-.19,1.09.87,1.38,1.99.87,2.81-2.69,4.07-5.52,8.63-7.08,10.9ZM216.75,118.38c-1.07-.58-2.09-1.16-3.07-1.65-.99,3.49-4.77,6.15-10.9,6.15-7.93,0-9.85-3.63-9.45-8.19.36-4.07,4.23-8.29,10.16-8.29,1.02,0,2.03.1,3.05.19.15-2.76.3-6.15.5-9.64-3.37.19-6.69.29-9.4.14-1.6-.05-2.62-1.79-2.4-4.26.17-2.52,2.28-3.78,3.83-3.68,2.22.14,5.14.14,8.32,0,.1-2.76.21-5.23.23-7.08.04-1.55,1.72-2.96,4.25-2.96s4.08,1.21,4.04,2.76c-.06,1.84-.21,4.07-.37,6.49,1.43-.19,2.81-.39,4.09-.63,1.53-.24,2.97,1.12,2.85,3.54s-1.24,4.12-2.77,4.36c-1.33.19-2.91.44-4.63.63-.24,4.41-.53,8.82-.73,12.26,1.98.73,4.09,1.65,6.48,2.71,1.36.63,1.62,2.62.41,4.8-1.26,2.18-3.19,3.05-4.48,2.33ZM202.68,112.91c-1.9,0-2.87,1.07-2.93,1.79-.12,1.36.94,2.08,2.88,2.08s3.04-.78,3.46-3.39c-1.19-.34-2.29-.48-3.41-.48Z"/><path class="cls-9" d="M230.15,110.29c-1.21,3.88-2.33,6.64-3.51,8.97-.23.44-.86.92-1.78.92-1.51,0-3.19-1.31-3.05-2.91.03-.29.1-.58.21-.77,1.21-2.18,2.35-5.14,3.08-7.41.2-.63.85-1.41,2.21-1.41s3.04.78,2.91,2.33c-.01.15-.07.19-.07.29ZM246.27,88.43h-19.51c-1.56,0-2.27-.78-2.06-3.15.21-2.38,1.06-3.2,2.62-3.2h6.03l.07-.78c.17-1.94,1.23-2.91,4.15-2.91s3.85.97,3.69,2.91l-.07.78h5.64c1.56,0,2.31.82,2.1,3.2-.21,2.37-1.1,3.15-2.66,3.15ZM241.48,105.39h-2.53l-1.14,12.99c-.28,3.2-2.01,5.19-5.46,5.19h-2.48c-1.56,0-2.46-.78-2.25-3.15.2-2.33,1.42-2.91,2.2-2.91h.39c.58,0,.95-.34,1.01-1.02l.97-11.1h-3.79c-2.04,0-3.51-1.6-3.33-3.63l.67-7.66c.18-2.04,1.92-3.63,3.97-3.63h13.08c2.04,0,3.51,1.6,3.33,3.63l-.67,7.66c-.18,2.04-1.92,3.63-3.97,3.63ZM239.23,96.62c.04-.44-.27-.78-.71-.78h-5.5c-.44,0-.81.34-.85.78l-.23,2.62c-.04.44.27.78.71.78h5.5c.44,0,.81-.34.85-.78l.23-2.62ZM261.78,122.94h-3.65c-2.92,0-4.16-1.4-3.9-4.31l.83-9.45c-1.64,4.26-3.68,8.67-6.16,12.6-.33.48-1.06,1.02-2.03,1.02-1.8,0-3.84-1.74-3.68-3.59.1-1.16,1.79-3.25,2.42-4.31-.79.63-2.4,1.31-3.37,1.31-.83,0-1.23-.44-1.49-1.31l-1.26-4.51c-.07-.29-.09-.58-.07-.82.12-1.41,2.53-2.18,3.79-2.18.88,0,1.37.44,1.64,1.26l1.36,3.97c.12.34.19.63.17.87,2.75-5.28,4.86-11.68,5.98-18.27h-1.85c-1.8,0-2.6-.87-2.36-3.63.24-2.76,1.2-3.68,3-3.68h2.09l.61-6.98c.14-1.65,1.05-2.52,3.63-2.52s3.38.87,3.23,2.52l-.61,6.98h7c1.8,0,2.64.92,2.4,3.68-.24,2.76-1.24,3.63-3.04,3.63h-7.39c-.17.82-.34,1.65-.51,2.52h.58c2.33,0,3.04.78,2.91,2.28l-1.36,15.56c-.05.58.12.87.7.87h1.22c1.9,0,.43-5.52,2.96-5.52,1.31,0,2.95,1.36,2.83,2.71v.05c-.7,7.9-3,9.25-6.6,9.25ZM265.29,86.69c-.88,0-1.32-.44-1.54-1.26l-1-3.54c-.07-.29-.1-.53-.08-.78.12-1.36,2.42-2.08,3.59-2.08.88,0,1.32.44,1.54,1.26l1.05,3.54c.07.29.1.53.08.78-.12,1.36-2.47,2.08-3.64,2.08Z"/><path class="cls-9" d="M288.46,86.01l-3.12,35.62c-.12,1.36-.9,1.99-2.95,1.99s-2.72-.63-2.6-1.99l.28-3.2c-1.25.44-6.66,2.18-7.63,2.18-1.85,0-2.59-2.13-2.45-3.73.13-1.5,1.08-2.33,1.83-2.62l2.47-28.25c-1-.29-1.41-1.16-1.24-3.1.21-2.38,1.06-3.2,2.62-3.2h12.55c1.56,0,2.31.82,2.1,3.2-.17,1.99-.79,2.86-1.88,3.1ZM280.98,108.16h-3.06l-.43,4.9c1.1-.29,2.14-.58,3.14-.92l.35-3.97ZM281.92,97.4h-3.06l-.4,4.55h3.06l.4-4.55ZM282.91,86.11h-3.06l-.45,5.09h3.06l.45-5.09ZM315.64,119.01c-1.35,2.62-3.17,4.56-4.92,4.56-2.38,0-3.59-2.96-4.2-4.8-.93,1.16-2.88,4.02-4.49,4.02s-3-1.79-2.87-3.29c.02-.19.08-.39.15-.58-.3.1-.64.14-.99.14h-6.66c-2.04,0-3.51-1.6-3.33-3.63l1-11.39c.18-2.04,1.92-3.63,3.97-3.63h6.66c2.04,0,3.51,1.6,3.33,3.63l-1.02,11.63c.97-1.11,1.95-2.28,2.94-3.54-.41-3.63-.55-8.14-.37-13.57h-14.2c-1.41,0-2.03-.68-1.84-2.86.19-2.18.93-2.91,2.35-2.91h1.07l-.58-3.34c.05-.53.48-1.07,1.29-1.36h-.63c-1.46,0-2.13-.73-1.93-2.96.2-2.23.99-3,2.45-3h2.38l.12-1.36c.13-1.5.98-2.28,3.31-2.28s3.05.78,2.91,2.28l-.12,1.36h1.95c1.46,0,2.17.78,1.97,3-.19,2.23-1.04,2.96-2.5,2.96h-.15c.55.34.85.82.81,1.31l-1.42,3.39h3.07l1.03-12.36c.12-1.36.86-2.08,3-2.08s2.81.73,2.69,2.08l-1.03,12.36h4.57c1.41,0,2.08.73,1.89,2.91-.19,2.18-.98,2.86-2.39,2.86h-4.43c-.05,2.23-.08,4.26-.09,6.06.67-1.02,1.53-3.54,2.89-3.54s2.78,1.55,2.67,2.91c-.1,1.11-4.09,7.27-4.93,8.58.32,1.89.82,2.86,1.36,2.86.88,0,.94-1.84,1.91-1.84,1.31,0,1.76,3.25,1.67,4.21-.05.53-.18.97-.3,1.21ZM297.48,111.94h-3.75l-.17,1.94c-.04.44.27.78.71.78h2.19c.44,0,.81-.34.85-.78l.17-1.94ZM298.03,105.64c.04-.44-.27-.78-.71-.78h-2.19c-.44,0-.81.34-.85.78l-.16,1.84h3.75l.16-1.84ZM294.94,88.09c.89.44,1.19,3.68,1.34,4.7h1.6l1.67-4.12c.12-.24.28-.44.49-.58h-5.11ZM314.83,91.53c-.63,0-.95-.29-1.18-.92l-1.82-5.28c-.08-.24-.1-.49-.09-.68.09-1.07,2.1-1.79,3.03-1.79.68,0,.99.34,1.23.97l1.83,5.23c.08.24.1.48.09.68-.1,1.11-2.1,1.79-3.08,1.79Z"/><path class="cls-9" d="M323.92,121.14c-.68,1.12-2.22,1.5-4.08,1.07-1.9-.48-3.04-1.4-3.08-2.62-.08-3.54.09-10.47.88-19.53.37-4.22,2.17-12.55,3.38-17.45.37-1.45,2.25-2.42,4.66-2.08,2.35.34,3.58,1.89,3.11,3.39-1.45,4.89-3.31,12.21-3.63,15.94-.6,6.88-.73,10.03-.69,11.24.06.44.44.48.67.1.44-.58.89-1.31,1.41-2.18.47-.87,1.75-1.07,2.72,0,.93,1.07,1.18,2.13.62,2.91-3.06,4.36-4.93,7.46-5.96,9.21ZM355.07,119.25c-6.18.63-10.61.63-13.87.63-5.69,0-9.96-4.65-9.64-8.29.13-1.5.57-3.2,2.65-6.98.69-1.21,2.38-1.6,4.38-1.16,2,.48,2.69,2.08,2.05,3.29-.71,1.4-1.04,2.37-1.07,2.81-.14,1.6.67,2.37,6.07,2.37,1.26,0,5.76-.19,8.86-.58,1.57-.19,3.31,1.11,3.29,3.54.03,2.42-1.15,4.22-2.72,4.36ZM354.95,92.75c-4.69-.29-11.32-.15-17.14.24-1.57.1-2.75-1.41-2.68-3.88.12-2.47,1.44-4.22,3-4.26,4.63-.15,12.18-.24,18.21-.15,1.55.05,2.57,1.74,2.16,4.26-.36,2.42-1.99,3.88-3.54,3.78Z"/><path class="cls-9" d="M365.69,123.57h-3.55c-1.85,0-2.64-.92-2.4-3.73.24-2.71,1.9-3.39,2.92-3.34l1.7.05c1.46.05,2.3-.73,2.61-4.26l.39-4.51c.04-.44-.27-.78-.71-.78h-5.21c-1.9,0-3.14-1.41-2.98-3.25l1.93-9.84c.42-2.04,2.31-3.63,4.36-3.63h3.36c.44,0,.81-.34.85-.78l.22-2.47c.04-.44-.27-.78-.71-.78h-5.45c-1.65,0-2.41-.82-2.18-3.39.22-2.57,1.13-3.44,2.78-3.44h9c2.04,0,3.51,1.6,3.33,3.63l-.89,10.18c-.18,2.04-1.92,3.63-3.97,3.63h-4.48c-.44,0-.86.34-.94.78l-.42,2.04c-.03.39.23.68.62.68h4.91c2.04,0,3.51,1.6,3.33,3.63l-.85,9.69c-.63,7.22-3.2,9.89-7.58,9.89ZM398.47,123.08c-1.75,0-1.74-1.21-2.03-2.42-5.51.73-10.97,1.99-19.83,1.99h-.1c-1.8,0-2.63-2.13-2.5-3.73.16-1.79,1.43-2.42,2.11-2.47,2.93-.1,5.67-.29,8.21-.48l.48-5.48h-5.45c-2.04,0-3.51-1.6-3.33-3.63l.73-8.33c.18-2.04,1.92-3.63,3.97-3.63h5.45l.25-2.81-7.54.53c-1.66.1-2.26-1.94-2.14-3.34.17-1.94,1.49-2.62,2.22-2.62h.78l3.33-6.4c.58-1.11,1.42-1.74,2.83-1.74s4.37.63,4.23,2.28c-.03.34-.16.73-.39,1.16l-2.38,4.36c2.89-.19,5.78-.44,8.47-.68l-.68-2.18c-.12-.34-.14-.63-.11-.92.13-1.5,2.72-2.18,3.99-2.18,1.07,0,1.61.48,1.92,1.45l2.68,8.29c.12.34.13.68.11.92-.13,1.5-2.88,2.33-4.14,2.33-.97,0-1.47-.48-1.77-1.41l-.3-.97c-1.18.14-2.56.34-4.23.48l-.3,3.44h5.55c2.04,0,3.51,1.6,3.33,3.63l-.73,8.33c-.18,2.04-1.92,3.63-3.97,3.63h-5.55l-.43,4.89c1.28-.15,2.51-.29,3.69-.44-.19-.58-.68-1.7-.63-2.28.12-1.31,1.71-1.7,2.73-1.7,1.51,0,2.36.87,2.55,1.45.73,2.23,1.78,5.28,2.4,7.56.04.14.07.34.05.53-.14,1.55-2.12,2.57-3.53,2.57ZM386.7,100.26h-3.21c-.44,0-.81.34-.85.78l-.27,3.1c-.04.44.27.78.71.78h3.21l.41-4.65ZM395.58,101.03c.04-.44-.27-.78-.71-.78h-3.26l-.41,4.65h3.26c.44,0,.81-.34.85-.78l.27-3.1Z"/><path class="cls-9" d="M412.53,122.45c-4.28,0-9.05-6.64-8.76-18.85.07-4.12.98-12.36,2.01-18.56.22-1.41,2.07-2.52,4.4-2.42,2.32.15,3.72,1.45,3.43,3-1.25,7.03-1.99,14.97-2.03,17.06-.12,5.81,1.22,8.87,2.09,8.87.68,0,1.84-1.6,4.16-5.33.79-1.21,2.51-1.45,4.31-.39,1.71,1.07,2.34,2.71,1.61,3.88-5.88,9.35-7.88,12.75-11.23,12.75ZM441.58,110.68c-2.56.87-4.5-.24-4.8-1.84-.75-4.17-2.52-10.66-3.86-14.25-.51-1.41.42-3.15,2.74-4.07,2.22-.87,4.04-.63,4.66.68,1.87,4.17,3.96,10.85,4.99,15.26.4,1.6-1.12,3.29-3.73,4.22Z"/><path class="cls-2" d="M5.83,119.25c-1.16,1.07-3.12.68-4.63-1.02-1.55-1.7-1.53-3.68-.36-4.75,6.38-5.67,7.72-9.84,9.14-24.96.13-1.5,1.84-2.67,4.22-2.67s3.88,1.21,3.75,2.71c-1.64,17.69-3.18,22.49-12.12,30.68ZM24.11,120.56c-1.41.58-3.04-.24-4.19-2.13-1.14-1.94-.84-3.73-.05-5.04.46-.78.68-1.7.82-3.2l2.04-23.31c.13-1.5,1.79-2.71,4.18-2.71s3.84,1.16,3.71,2.67l-2.02,23.12c2.48-1.11,6.67-3.92,10.18-6.88,1.21-1.02,3.23-.73,4.46,1.26,1.24,1.94,1.21,3.97-.04,4.94-5.96,4.8-12.57,8.58-19.08,11.29Z"/><path class="cls-2" d="M77.08,113.97c-1.71,1.75-3.73,2.08-4.67,1.07l-7.16-7.71-1.16,13.28c-.13,1.46-1.79,2.67-4.12,2.67s-3.83-1.21-3.71-2.67l.78-8.92c-2.66,1.45-5.66,2.96-9.15,4.55-1.52.73-3.38-.34-4.24-2.66-.86-2.42-.05-4.46,1.52-5.09,13.39-5.14,18.02-8.62,20.49-11.19h-17.46c-1.46,0-2.5-1.5-2.28-3.92.2-2.33,1.51-3.88,2.97-3.88h16.1-.15c-3.53-2.42-6.02-3.49-8.24-4.26-1.28-.44-1.85-2.23-.66-4.17,1.2-1.99,2.74-3,4.07-2.62,2.33.63,4.73,1.55,9.4,4.31,1.25.73,1.27,2.71-.08,4.8-.62.97-1.41,1.65-2.21,1.94h.1c2,0,3.22-.1,4.07-.34.55-.15,1.13-.19,1.62-.15,1.14.29,1.92.87,3.22,2.08,1.31,1.21,1.67,2.62,1,3.63-1.73,2.57-3.7,5.04-6.4,7.51l7.36,7.03c1.03.97.72,2.91-1,4.7Z"/><path class="cls-2" d="M116.72,98.95h-6.57c-1.5,9.89-4.16,14.2-13.16,23.6-1.07,1.11-3.1.97-4.87-.48-1.81-1.5-2.09-3.34-.87-4.51,6.95-6.59,9.45-10.13,10.97-18.61h-9.15l-.91,10.42c-.13,1.45-1.84,2.67-4.17,2.67s-3.88-1.21-3.75-2.67l.91-10.42h-5.93c-1.41,0-2.4-1.5-2.21-3.68.2-2.23,1.45-3.73,2.86-3.73h5.93l.64-7.37c.14-1.55,1.84-2.71,4.18-2.71s3.89,1.11,3.76,2.62l-.65,7.46h9.49c.24-2.18.46-4.65.7-7.46.13-1.45,1.79-2.67,4.12-2.62,2.29,0,3.79,1.21,3.65,2.71-.24,2.71-.45,5.19-.69,7.37h6.37c1.41,0,2.4,1.5,2.2,3.73-.19,2.18-1.44,3.68-2.85,3.68Z"/><path class="cls-2" d="M116.05,120.56c-1.56.58-3.22-.49-3.99-2.71-.77-2.28.03-4.26,1.63-4.75,13.3-4.17,22.71-9.88,33.96-19.58,1.16-1.02,3.12-.68,4.37,1.21,1.29,1.89,1.22,3.83.06,4.85-14.6,12.26-20.77,15.51-36.03,20.98ZM129.71,96.72c-1.77,1.84-3.74,2.18-4.77,1.16-5.28-5.28-7.59-7.22-9.02-8.14-1.1-.73-1.39-2.42-.06-4.26,1.32-1.79,3-2.57,4.16-1.99,2.61,1.36,4.52,2.81,10.74,8.43,1.03.97.66,3-1.05,4.8Z"/><path class="cls-2" d="M178.47,120.47c-1.95,1.7-3.96,1.94-4.94.87l-8.99-10.13c-3.6,3.29-8.28,6.83-14.68,11-1.34.87-3.14.34-4.6-1.4-1.45-1.75-1.17-3.83.16-4.65,18.64-11.73,22.67-19.48,23.74-23.94h-18.05c-1.51,0-2.54-1.5-2.33-3.93.2-2.33,1.51-3.92,3.02-3.92h17.07c1.85,0,2.88-.1,3.53-.29.55-.15,1.19-.24,1.71-.15,1.05.24,1.79.73,3,1.79,1.22,1.07,1.7,2.23,1.32,3.25-2.38,6.59-4.37,11.53-8.5,16.57l9.81,10.18c1.03,1.07.51,3.1-1.29,4.75Z"/><path class="cls-2" d="M185.37,121.68c-.73,1.07-2.31,1.41-4.16.87-1.85-.53-2.99-1.41-3.02-2.71-.08-3.59.1-11.15.85-20.3.36-4.17,2.07-13.08,3.18-17.98.38-1.6,2.21-2.47,4.63-2.28,2.46.24,3.58,1.89,3.16,3.34-1.52,5.09-3.04,13.04-3.37,16.82-.61,6.98-.65,10.18-.57,11.53.01.39.54.53.86.19.54-.63,1.28-1.84,1.92-3,.46-.82,1.7-1.07,2.74-.19,1.09.87,1.38,1.99.87,2.81-2.69,4.07-5.52,8.63-7.08,10.9ZM216.75,118.38c-1.07-.58-2.09-1.16-3.07-1.65-.99,3.49-4.77,6.15-10.9,6.15-7.93,0-9.85-3.63-9.45-8.19.36-4.07,4.23-8.29,10.16-8.29,1.02,0,2.03.1,3.05.19.15-2.76.3-6.15.5-9.64-3.37.19-6.69.29-9.4.14-1.6-.05-2.62-1.79-2.4-4.26.17-2.52,2.28-3.78,3.83-3.68,2.22.14,5.14.14,8.32,0,.1-2.76.21-5.23.23-7.08.04-1.55,1.72-2.96,4.25-2.96s4.08,1.21,4.04,2.76c-.06,1.84-.21,4.07-.37,6.49,1.43-.19,2.81-.39,4.09-.63,1.53-.24,2.97,1.12,2.85,3.54s-1.24,4.12-2.77,4.36c-1.33.19-2.91.44-4.63.63-.24,4.41-.53,8.82-.73,12.26,1.98.73,4.09,1.65,6.48,2.71,1.36.63,1.62,2.62.41,4.8-1.26,2.18-3.19,3.05-4.48,2.33ZM202.68,112.91c-1.9,0-2.87,1.07-2.93,1.79-.12,1.36.94,2.08,2.88,2.08s3.04-.78,3.46-3.39c-1.19-.34-2.29-.48-3.41-.48Z"/><path class="cls-2" d="M230.15,110.29c-1.21,3.88-2.33,6.64-3.51,8.97-.23.44-.86.92-1.78.92-1.51,0-3.19-1.31-3.05-2.91.03-.29.1-.58.21-.77,1.21-2.18,2.35-5.14,3.08-7.41.2-.63.85-1.41,2.21-1.41s3.04.78,2.91,2.33c-.01.15-.07.19-.07.29ZM246.27,88.43h-19.51c-1.56,0-2.27-.78-2.06-3.15.21-2.38,1.06-3.2,2.62-3.2h6.03l.07-.78c.17-1.94,1.23-2.91,4.15-2.91s3.85.97,3.69,2.91l-.07.78h5.64c1.56,0,2.31.82,2.1,3.2-.21,2.37-1.1,3.15-2.66,3.15ZM241.48,105.39h-2.53l-1.14,12.99c-.28,3.2-2.01,5.19-5.46,5.19h-2.48c-1.56,0-2.46-.78-2.25-3.15.2-2.33,1.42-2.91,2.2-2.91h.39c.58,0,.95-.34,1.01-1.02l.97-11.1h-3.79c-2.04,0-3.51-1.6-3.33-3.63l.67-7.66c.18-2.04,1.92-3.63,3.97-3.63h13.08c2.04,0,3.51,1.6,3.33,3.63l-.67,7.66c-.18,2.04-1.92,3.63-3.97,3.63ZM239.23,96.62c.04-.44-.27-.78-.71-.78h-5.5c-.44,0-.81.34-.85.78l-.23,2.62c-.04.44.27.78.71.78h5.5c.44,0,.81-.34.85-.78l.23-2.62ZM261.78,122.94h-3.65c-2.92,0-4.16-1.4-3.9-4.31l.83-9.45c-1.64,4.26-3.68,8.67-6.16,12.6-.33.48-1.06,1.02-2.03,1.02-1.8,0-3.84-1.74-3.68-3.59.1-1.16,1.79-3.25,2.42-4.31-.79.63-2.4,1.31-3.37,1.31-.83,0-1.23-.44-1.49-1.31l-1.26-4.51c-.07-.29-.09-.58-.07-.82.12-1.41,2.53-2.18,3.79-2.18.88,0,1.37.44,1.64,1.26l1.36,3.97c.12.34.19.63.17.87,2.75-5.28,4.86-11.68,5.98-18.27h-1.85c-1.8,0-2.6-.87-2.36-3.63.24-2.76,1.2-3.68,3-3.68h2.09l.61-6.98c.14-1.65,1.05-2.52,3.63-2.52s3.38.87,3.23,2.52l-.61,6.98h7c1.8,0,2.64.92,2.4,3.68-.24,2.76-1.24,3.63-3.04,3.63h-7.39c-.17.82-.34,1.65-.51,2.52h.58c2.33,0,3.04.78,2.91,2.28l-1.36,15.56c-.05.58.12.87.7.87h1.22c1.9,0,.43-5.52,2.96-5.52,1.31,0,2.95,1.36,2.83,2.71v.05c-.7,7.9-3,9.25-6.6,9.25ZM265.29,86.69c-.88,0-1.32-.44-1.54-1.26l-1-3.54c-.07-.29-.1-.53-.08-.78.12-1.36,2.42-2.08,3.59-2.08.88,0,1.32.44,1.54,1.26l1.05,3.54c.07.29.1.53.08.78-.12,1.36-2.47,2.08-3.64,2.08Z"/><path class="cls-2" d="M288.46,86.01l-3.12,35.62c-.12,1.36-.9,1.99-2.95,1.99s-2.72-.63-2.6-1.99l.28-3.2c-1.25.44-6.66,2.18-7.63,2.18-1.85,0-2.59-2.13-2.45-3.73.13-1.5,1.08-2.33,1.83-2.62l2.47-28.25c-1-.29-1.41-1.16-1.24-3.1.21-2.38,1.06-3.2,2.62-3.2h12.55c1.56,0,2.31.82,2.1,3.2-.17,1.99-.79,2.86-1.88,3.1ZM280.98,108.16h-3.06l-.43,4.9c1.1-.29,2.14-.58,3.14-.92l.35-3.97ZM281.92,97.4h-3.06l-.4,4.55h3.06l.4-4.55ZM282.91,86.11h-3.06l-.45,5.09h3.06l.45-5.09ZM315.64,119.01c-1.35,2.62-3.17,4.56-4.92,4.56-2.38,0-3.59-2.96-4.2-4.8-.93,1.16-2.88,4.02-4.49,4.02s-3-1.79-2.87-3.29c.02-.19.08-.39.15-.58-.3.1-.64.14-.99.14h-6.66c-2.04,0-3.51-1.6-3.33-3.63l1-11.39c.18-2.04,1.92-3.63,3.97-3.63h6.66c2.04,0,3.51,1.6,3.33,3.63l-1.02,11.63c.97-1.11,1.95-2.28,2.94-3.54-.41-3.63-.55-8.14-.37-13.57h-14.2c-1.41,0-2.03-.68-1.84-2.86.19-2.18.93-2.91,2.35-2.91h1.07l-.58-3.34c.05-.53.48-1.07,1.29-1.36h-.63c-1.46,0-2.13-.73-1.93-2.96.2-2.23.99-3,2.45-3h2.38l.12-1.36c.13-1.5.98-2.28,3.31-2.28s3.05.78,2.91,2.28l-.12,1.36h1.95c1.46,0,2.17.78,1.97,3-.19,2.23-1.04,2.96-2.5,2.96h-.15c.55.34.85.82.81,1.31l-1.42,3.39h3.07l1.03-12.36c.12-1.36.86-2.08,3-2.08s2.81.73,2.69,2.08l-1.03,12.36h4.57c1.41,0,2.08.73,1.89,2.91-.19,2.18-.98,2.86-2.39,2.86h-4.43c-.05,2.23-.08,4.26-.09,6.06.67-1.02,1.53-3.54,2.89-3.54s2.78,1.55,2.67,2.91c-.1,1.11-4.09,7.27-4.93,8.58.32,1.89.82,2.86,1.36,2.86.88,0,.94-1.84,1.91-1.84,1.31,0,1.76,3.25,1.67,4.21-.05.53-.18.97-.3,1.21ZM297.48,111.94h-3.75l-.17,1.94c-.04.44.27.78.71.78h2.19c.44,0,.81-.34.85-.78l.17-1.94ZM298.03,105.64c.04-.44-.27-.78-.71-.78h-2.19c-.44,0-.81.34-.85.78l-.16,1.84h3.75l.16-1.84ZM294.94,88.09c.89.44,1.19,3.68,1.34,4.7h1.6l1.67-4.12c.12-.24.28-.44.49-.58h-5.11ZM314.83,91.53c-.63,0-.95-.29-1.18-.92l-1.82-5.28c-.08-.24-.1-.49-.09-.68.09-1.07,2.1-1.79,3.03-1.79.68,0,.99.34,1.23.97l1.83,5.23c.08.24.1.48.09.68-.1,1.11-2.1,1.79-3.08,1.79Z"/><path class="cls-2" d="M323.92,121.14c-.68,1.12-2.22,1.5-4.08,1.07-1.9-.48-3.04-1.4-3.08-2.62-.08-3.54.09-10.47.88-19.53.37-4.22,2.17-12.55,3.38-17.45.37-1.45,2.25-2.42,4.66-2.08,2.35.34,3.58,1.89,3.11,3.39-1.45,4.89-3.31,12.21-3.63,15.94-.6,6.88-.73,10.03-.69,11.24.06.44.44.48.67.1.44-.58.89-1.31,1.41-2.18.47-.87,1.75-1.07,2.72,0,.93,1.07,1.18,2.13.62,2.91-3.06,4.36-4.93,7.46-5.96,9.21ZM355.07,119.25c-6.18.63-10.61.63-13.87.63-5.69,0-9.96-4.65-9.64-8.29.13-1.5.57-3.2,2.65-6.98.69-1.21,2.38-1.6,4.38-1.16,2,.48,2.69,2.08,2.05,3.29-.71,1.4-1.04,2.37-1.07,2.81-.14,1.6.67,2.37,6.07,2.37,1.26,0,5.76-.19,8.86-.58,1.57-.19,3.31,1.11,3.29,3.54.03,2.42-1.15,4.22-2.72,4.36ZM354.95,92.75c-4.69-.29-11.32-.15-17.14.24-1.57.1-2.75-1.41-2.68-3.88.12-2.47,1.44-4.22,3-4.26,4.63-.15,12.18-.24,18.21-.15,1.55.05,2.57,1.74,2.16,4.26-.36,2.42-1.99,3.88-3.54,3.78Z"/><path class="cls-2" d="M365.69,123.57h-3.55c-1.85,0-2.64-.92-2.4-3.73.24-2.71,1.9-3.39,2.92-3.34l1.7.05c1.46.05,2.3-.73,2.61-4.26l.39-4.51c.04-.44-.27-.78-.71-.78h-5.21c-1.9,0-3.14-1.41-2.98-3.25l1.93-9.84c.42-2.04,2.31-3.63,4.36-3.63h3.36c.44,0,.81-.34.85-.78l.22-2.47c.04-.44-.27-.78-.71-.78h-5.45c-1.65,0-2.41-.82-2.18-3.39.22-2.57,1.13-3.44,2.78-3.44h9c2.04,0,3.51,1.6,3.33,3.63l-.89,10.18c-.18,2.04-1.92,3.63-3.97,3.63h-4.48c-.44,0-.86.34-.94.78l-.42,2.04c-.03.39.23.68.62.68h4.91c2.04,0,3.51,1.6,3.33,3.63l-.85,9.69c-.63,7.22-3.2,9.89-7.58,9.89ZM398.47,123.08c-1.75,0-1.74-1.21-2.03-2.42-5.51.73-10.97,1.99-19.83,1.99h-.1c-1.8,0-2.63-2.13-2.5-3.73.16-1.79,1.43-2.42,2.11-2.47,2.93-.1,5.67-.29,8.21-.48l.48-5.48h-5.45c-2.04,0-3.51-1.6-3.33-3.63l.73-8.33c.18-2.04,1.92-3.63,3.97-3.63h5.45l.25-2.81-7.54.53c-1.66.1-2.26-1.94-2.14-3.34.17-1.94,1.49-2.62,2.22-2.62h.78l3.33-6.4c.58-1.11,1.42-1.74,2.83-1.74s4.37.63,4.23,2.28c-.03.34-.16.73-.39,1.16l-2.38,4.36c2.89-.19,5.78-.44,8.47-.68l-.68-2.18c-.12-.34-.14-.63-.11-.92.13-1.5,2.72-2.18,3.99-2.18,1.07,0,1.61.48,1.92,1.45l2.68,8.29c.12.34.13.68.11.92-.13,1.5-2.88,2.33-4.14,2.33-.97,0-1.47-.48-1.77-1.41l-.3-.97c-1.18.14-2.56.34-4.23.48l-.3,3.44h5.55c2.04,0,3.51,1.6,3.33,3.63l-.73,8.33c-.18,2.04-1.92,3.63-3.97,3.63h-5.55l-.43,4.89c1.28-.15,2.51-.29,3.69-.44-.19-.58-.68-1.7-.63-2.28.12-1.31,1.71-1.7,2.73-1.7,1.51,0,2.36.87,2.55,1.45.73,2.23,1.78,5.28,2.4,7.56.04.14.07.34.05.53-.14,1.55-2.12,2.57-3.53,2.57ZM386.7,100.26h-3.21c-.44,0-.81.34-.85.78l-.27,3.1c-.04.44.27.78.71.78h3.21l.41-4.65ZM395.58,101.03c.04-.44-.27-.78-.71-.78h-3.26l-.41,4.65h3.26c.44,0,.81-.34.85-.78l.27-3.1Z"/><path class="cls-2" d="M412.53,122.45c-4.28,0-9.05-6.64-8.76-18.85.07-4.12.98-12.36,2.01-18.56.22-1.41,2.07-2.52,4.4-2.42,2.32.15,3.72,1.45,3.43,3-1.25,7.03-1.99,14.97-2.03,17.06-.12,5.81,1.22,8.87,2.09,8.87.68,0,1.84-1.6,4.16-5.33.79-1.21,2.51-1.45,4.31-.39,1.71,1.07,2.34,2.71,1.61,3.88-5.88,9.35-7.88,12.75-11.23,12.75ZM441.58,110.68c-2.56.87-4.5-.24-4.8-1.84-.75-4.17-2.52-10.66-3.86-14.25-.51-1.41.42-3.15,2.74-4.07,2.22-.87,4.04-.63,4.66.68,1.87,4.17,3.96,10.85,4.99,15.26.4,1.6-1.12,3.29-3.73,4.22Z"/></g></svg>