<?xml version="1.0" encoding="UTF-8"?><svg id="_レイヤー_2" xmlns="http://www.w3.org/2000/svg" xmlns:xlink="http://www.w3.org/1999/xlink" viewBox="0 0 402 135"><defs><style>.cls-1{fill:#000;stroke-width:0px;}.cls-2{fill:#fcc80e;filter:url(#drop-shadow-1);stroke:#fff;stroke-miterlimit:10;stroke-width:1.82px;}</style><filter id="drop-shadow-1" filterUnits="userSpaceOnUse"><feOffset dx="0" dy="0"/><feGaussianBlur result="blur" stdDeviation="4.56"/><feFlood flood-color="#000" flood-opacity=".3"/><feComposite in2="blur" operator="in"/><feComposite in="SourceGraphic"/></filter></defs><g id="_レイヤー_1-2"><rect class="cls-2" x="14.5" y="14.26" width="373.18" height="105.56" rx="14.44" ry="14.44"/><path class="cls-1" d="M67.46,59.89c1.56-.72,3.04-1.52,4.43-2.4,1.39-.88,2.67-1.79,3.83-2.73,1.16-.94,2.18-1.89,3.06-2.84.88-.95,1.59-1.86,2.13-2.72l2.37.03.03,3.87c-.62.92-1.4,1.87-2.33,2.84-.93.97-1.95,1.93-3.06,2.87-1.11.94-2.28,1.83-3.5,2.66-1.22.83-2.43,1.57-3.63,2.21l-3.33-3.78ZM69.35,45.45c.42.06,1,.12,1.73.17.73.05,1.37.08,1.91.08h17.12c.54,0,1.15-.03,1.83-.09.68-.06,1.21-.12,1.59-.18v4.78c-.54-.02-1.1-.03-1.67-.05-.57,0-1.07-.02-1.49-.02h-17.27c-.56,0-1.19.01-1.88.03-.69.02-1.32.05-1.88.09v-4.81ZM87.07,40.58c-.08.5-.13,1.06-.17,1.67-.03.61-.04,1.18-.01,1.7.02.98.04,1.99.06,3.02.02,1.03.04,2.09.08,3.17.03,1.08.06,2.17.09,3.26.03,1.09.06,2.18.08,3.27.02,1.09.04,2.18.06,3.26.02,1.08.04,2.15.06,3.21.02,1.06-.28,1.89-.89,2.49-.61.6-1.56.9-2.84.9-.98,0-1.9-.02-2.76-.05-.86-.03-1.75-.08-2.67-.14l-.42-4.71c.66.1,1.35.18,2.07.24s1.32.09,1.8.09c.34,0,.59-.1.75-.3.16-.2.24-.52.24-.96v-2.24c0-.81,0-1.68-.01-2.6-.01-.92-.02-1.87-.03-2.85-.01-.98-.03-1.98-.06-3-.03-1.02-.06-2.04-.09-3.06-.03-1.02-.08-2.02-.13-3-.04-.7-.09-1.33-.14-1.88-.05-.55-.12-1.05-.19-1.49h5.13Z"/><path class="cls-1" d="M99.18,50.55c.4.02.92.05,1.55.09.63.04,1.28.07,1.94.09.66.02,1.23.03,1.71.03h15.95c.68,0,1.36-.03,2.03-.09s1.23-.1,1.67-.12v5.74c-.38-.02-.94-.05-1.67-.11-.73-.05-1.41-.08-2.03-.08h-15.95c-.86,0-1.79.02-2.78.06-.99.04-1.8.08-2.42.12v-5.74Z"/><path class="cls-1" d="M152.27,45.27c-.16.32-.31.72-.44,1.19-.13.47-.25.88-.35,1.22-.18.7-.4,1.5-.65,2.39-.25.89-.56,1.82-.92,2.79-.36.97-.79,1.94-1.28,2.91-.49.97-1.06,1.9-1.7,2.78-.9,1.2-1.97,2.34-3.2,3.41-1.23,1.07-2.6,2.03-4.12,2.88s-3.15,1.57-4.91,2.15l-3.96-4.35c2.02-.46,3.76-1.04,5.23-1.74,1.46-.7,2.72-1.5,3.78-2.39,1.06-.89,1.99-1.83,2.79-2.81.64-.8,1.18-1.65,1.62-2.54.44-.89.8-1.78,1.08-2.67.28-.89.48-1.74.6-2.54h-13.21c-.74,0-1.48.02-2.21.05s-1.3.07-1.7.11v-5.14c.32.04.72.08,1.2.12.48.04.97.08,1.47.11.5.03.91.05,1.23.05h13.24c.34,0,.77-.02,1.29-.05.52-.03,1.01-.11,1.47-.23l3.6,2.31ZM148.04,42.69c0-.68.17-1.3.51-1.86.34-.56.79-1.01,1.35-1.35.56-.34,1.18-.51,1.86-.51s1.3.17,1.86.51c.56.34,1.01.79,1.35,1.35.34.56.51,1.18.51,1.86s-.17,1.3-.51,1.86c-.34.56-.79,1.01-1.35,1.35-.56.34-1.18.51-1.86.51s-1.3-.17-1.86-.51c-.56-.34-1.01-.79-1.35-1.35-.34-.56-.51-1.18-.51-1.86ZM150.17,42.69c0,.44.16.82.47,1.13.31.31.69.47,1.13.47s.82-.15,1.13-.47c.31-.31.47-.69.47-1.13s-.16-.82-.47-1.13c-.31-.31-.69-.47-1.13-.47s-.82.16-1.13.47c-.31.31-.47.69-.47,1.13Z"/><path class="cls-1" d="M159.79,61.61c1.48-.2,2.89-.48,4.22-.84,1.33-.36,2.59-.78,3.77-1.26,1.18-.48,2.26-1,3.24-1.56,1.8-1.04,3.44-2.23,4.93-3.56,1.48-1.33,2.78-2.72,3.89-4.17,1.11-1.45,2-2.88,2.66-4.28l2.82,5.14c-.8,1.42-1.79,2.82-2.97,4.19-1.18,1.37-2.51,2.67-3.98,3.89-1.47,1.22-3.05,2.32-4.73,3.3-1.02.6-2.12,1.17-3.3,1.7-1.18.53-2.4.99-3.66,1.38-1.26.39-2.52.69-3.78.89l-3.09-4.81ZM164.24,41.66c.52.36,1.13.81,1.83,1.34.7.53,1.43,1.1,2.18,1.71.75.61,1.46,1.21,2.13,1.8.67.59,1.23,1.13,1.67,1.61l-3.72,3.81c-.4-.44-.91-.96-1.53-1.55-.62-.59-1.29-1.2-2.01-1.83-.72-.63-1.43-1.23-2.13-1.79-.7-.56-1.32-1.03-1.86-1.41l3.45-3.69Z"/><path class="cls-1" d="M190.27,46.95c.52-.04,1.03-.08,1.52-.11.49-.03.97-.08,1.43-.14.42-.06,1.03-.15,1.83-.26.8-.11,1.72-.24,2.75-.39s2.1-.31,3.21-.48c1.11-.17,2.19-.34,3.23-.51,1.04-.17,1.97-.33,2.78-.47.81-.14,1.44-.25,1.88-.33.5-.1,1.05-.21,1.65-.35.6-.13,1.11-.26,1.53-.38l.87,4.74c-.38.02-.88.08-1.49.17-.61.09-1.16.17-1.64.23-.54.08-1.25.19-2.13.33-.88.14-1.85.3-2.91.47-1.06.17-2.14.35-3.24.53-1.1.18-2.15.35-3.14.51-.99.16-1.86.3-2.6.42-.74.12-1.28.21-1.62.27-.5.1-.98.2-1.43.3-.45.1-.96.23-1.52.39l-.96-4.96ZM190.36,55.84c.42-.02.96-.06,1.62-.14.66-.07,1.24-.15,1.74-.23.54-.08,1.26-.19,2.16-.33.9-.14,1.91-.3,3.03-.48,1.12-.18,2.28-.36,3.47-.56,1.19-.19,2.35-.38,3.47-.57,1.12-.19,2.15-.37,3.08-.53.93-.16,1.68-.29,2.24-.39.58-.12,1.17-.25,1.76-.39.59-.14,1.11-.27,1.55-.39l.96,4.78c-.44.02-.98.08-1.61.18-.63.1-1.24.2-1.82.3-.62.1-1.41.23-2.36.38-.95.15-2,.32-3.14.51-1.14.19-2.31.38-3.5.57-1.19.19-2.34.38-3.44.57-1.1.19-2.09.36-2.96.51-.87.15-1.56.28-2.06.38-.68.12-1.3.23-1.85.33-.55.1-1,.2-1.34.3l-1.02-4.81ZM198.32,43.41c-.1-.46-.21-.88-.32-1.26-.11-.38-.23-.76-.35-1.14l5.14-.81c.04.3.08.69.13,1.17.05.48.12.91.2,1.29.06.34.16.9.29,1.67.13.77.29,1.69.5,2.76.2,1.07.42,2.22.66,3.45.24,1.23.48,2.48.72,3.74s.47,2.47.69,3.62c.22,1.15.42,2.18.6,3.09.18.91.32,1.63.42,2.15.1.44.22.93.36,1.47.14.54.28,1.07.42,1.59l-5.23.9c-.08-.58-.14-1.14-.18-1.68-.04-.54-.11-1.03-.21-1.47-.08-.46-.2-1.12-.35-1.98-.15-.86-.33-1.85-.54-2.97-.21-1.12-.44-2.3-.68-3.54-.24-1.24-.48-2.49-.71-3.74-.23-1.25-.45-2.43-.66-3.53-.21-1.1-.4-2.07-.56-2.9-.16-.83-.28-1.46-.36-1.88Z"/><path class="cls-1" d="M244.44,50.43c-.32.66-.73,1.43-1.23,2.3-.5.87-1.05,1.76-1.65,2.67-.6.91-1.2,1.78-1.8,2.61-.6.83-1.17,1.55-1.71,2.15l-3.99-1.98c.46-.42.96-.94,1.49-1.55.53-.61,1.03-1.23,1.5-1.85.47-.62.82-1.14,1.04-1.56-.24.04-.66.12-1.25.24-.59.12-1.29.27-2.1.44-.81.17-1.69.36-2.64.56-.95.2-1.91.41-2.87.62-.96.21-1.88.41-2.76.6-.88.19-1.66.36-2.34.51-.68.15-1.21.27-1.59.35l-1.11-4.32c.5-.04.98-.09,1.44-.15.46-.06.95-.13,1.47-.21.24-.04.66-.11,1.26-.21.6-.1,1.31-.23,2.13-.39.82-.16,1.71-.33,2.66-.51s1.91-.36,2.87-.54c.96-.18,1.88-.36,2.75-.53.87-.17,1.64-.32,2.3-.45.66-.13,1.16-.24,1.5-.32.3-.06.61-.14.92-.24.31-.1.58-.2.8-.3l2.94,2.07ZM230.03,45.51c.06.4.14.81.24,1.23.1.42.19.83.27,1.23.2.7.43,1.53.69,2.48.26.95.54,1.97.84,3.05.3,1.08.6,2.17.9,3.26.3,1.09.59,2.13.87,3.12.28.99.53,1.88.75,2.66.22.78.4,1.4.54,1.86.06.16.14.42.24.77.1.35.21.71.33,1.07s.22.65.3.87l-4.92,1.2c-.06-.44-.14-.92-.24-1.44-.1-.52-.22-1-.36-1.44-.14-.48-.32-1.13-.53-1.95-.21-.82-.45-1.75-.72-2.78-.27-1.03-.55-2.1-.84-3.21-.29-1.11-.58-2.2-.86-3.27-.28-1.07-.55-2.06-.8-2.97-.25-.91-.46-1.67-.65-2.27-.1-.4-.24-.8-.41-1.19s-.35-.77-.53-1.13l4.87-1.14Z"/><path class="cls-1" d="M248.22,61.61c1.48-.2,2.89-.48,4.22-.84,1.33-.36,2.59-.78,3.77-1.26,1.18-.48,2.26-1,3.24-1.56,1.8-1.04,3.44-2.23,4.93-3.56,1.48-1.33,2.78-2.72,3.89-4.17,1.11-1.45,2-2.88,2.66-4.28l2.82,5.14c-.8,1.42-1.79,2.82-2.97,4.19-1.18,1.37-2.51,2.67-3.98,3.89-1.47,1.22-3.05,2.32-4.73,3.3-1.02.6-2.12,1.17-3.3,1.7-1.18.53-2.4.99-3.66,1.38-1.26.39-2.52.69-3.78.89l-3.09-4.81ZM252.67,41.66c.52.36,1.13.81,1.83,1.34.7.53,1.43,1.1,2.18,1.71.75.61,1.46,1.21,2.13,1.8.67.59,1.23,1.13,1.67,1.61l-3.72,3.81c-.4-.44-.91-.96-1.53-1.55-.62-.59-1.29-1.2-2.01-1.83-.72-.63-1.43-1.23-2.13-1.79-.7-.56-1.32-1.03-1.86-1.41l3.45-3.69Z"/><path class="cls-1" d="M279.79,55.45c.34-.88.66-1.79.96-2.72s.57-1.89.81-2.87c.24-.98.45-1.97.63-2.97.18-1,.31-2,.39-3l5.32,1.11c-.08.32-.18.71-.3,1.16s-.23.89-.32,1.31c-.09.42-.16.75-.2.99-.1.56-.24,1.21-.42,1.95-.18.74-.39,1.51-.62,2.31-.23.8-.47,1.6-.71,2.39-.24.79-.48,1.52-.72,2.18-.34,1-.76,2.04-1.26,3.12-.5,1.08-1.03,2.11-1.58,3.09-.55.98-1.08,1.83-1.58,2.55l-5.13-2.16c.94-1.22,1.83-2.59,2.67-4.11.84-1.52,1.52-2.96,2.04-4.32ZM294.62,55.12c-.28-.8-.61-1.66-.98-2.58-.37-.92-.76-1.85-1.16-2.78-.4-.93-.79-1.81-1.17-2.63-.38-.82-.73-1.52-1.05-2.1l4.86-1.56c.32.6.69,1.33,1.1,2.18.41.85.82,1.75,1.23,2.7.41.95.81,1.88,1.19,2.78.38.9.7,1.69.96,2.37.24.64.51,1.41.83,2.3.31.89.63,1.83.95,2.81.32.98.62,1.95.92,2.9.29.95.54,1.82.74,2.6l-5.44,1.77c-.28-1.28-.58-2.54-.89-3.77s-.64-2.43-.98-3.6c-.34-1.17-.71-2.3-1.11-3.38ZM296.7,42.99c0-.68.17-1.3.51-1.86.34-.56.79-1.01,1.35-1.35.56-.34,1.18-.51,1.86-.51s1.3.17,1.86.51c.56.34,1.01.79,1.35,1.35.34.56.51,1.18.51,1.86s-.17,1.3-.51,1.86c-.34.56-.79,1.01-1.35,1.35-.56.34-1.18.51-1.86.51s-1.3-.17-1.86-.51c-.56-.34-1.01-.79-1.35-1.35-.34-.56-.51-1.18-.51-1.86ZM298.83,42.99c0,.44.16.82.47,1.13.31.31.69.47,1.13.47s.82-.15,1.13-.47c.31-.31.47-.69.47-1.13s-.16-.82-.47-1.13c-.31-.31-.69-.47-1.13-.47s-.82.16-1.13.47c-.31.31-.47.69-.47,1.13Z"/><path class="cls-1" d="M331.66,44.46c-.14.2-.34.52-.6.96-.26.44-.47.85-.63,1.23-.42.92-.94,1.96-1.55,3.11-.61,1.15-1.3,2.32-2.07,3.5-.77,1.18-1.6,2.29-2.48,3.33-1.12,1.3-2.37,2.58-3.74,3.83-1.37,1.25-2.81,2.4-4.33,3.45-1.51,1.05-3.04,1.95-4.58,2.69l-3.78-3.93c1.62-.6,3.2-1.37,4.75-2.31,1.54-.94,2.96-1.95,4.26-3.03,1.3-1.08,2.39-2.11,3.27-3.09.66-.74,1.27-1.51,1.82-2.31.55-.8,1.04-1.59,1.46-2.36.42-.77.73-1.48.93-2.12h-9.34c-.44,0-.91.02-1.4.05-.49.03-.95.07-1.38.11-.43.04-.79.07-1.07.09v-5.17c.36.04.79.08,1.28.12.49.04.97.07,1.44.09.47.02.84.03,1.13.03h10.03c.76,0,1.47-.05,2.12-.14.65-.09,1.15-.2,1.49-.32l2.97,2.19ZM324.72,53.59c.76.6,1.58,1.31,2.46,2.13.88.82,1.76,1.68,2.63,2.57.87.89,1.68,1.75,2.42,2.57.74.82,1.35,1.52,1.83,2.1l-4.17,3.63c-.74-1.08-1.58-2.17-2.51-3.26-.93-1.09-1.91-2.18-2.94-3.26s-2.09-2.11-3.17-3.09l3.45-3.39Z"/><path class="cls-1" d="M131.68,80.02c-.06.3-.11.63-.15.99-.04.37-.08.72-.11,1.05s-.04.61-.04.82c0,.46,0,.93.01,1.39,0,.46.02.92.03,1.38.01.46.04.92.08,1.4.08.91.2,1.73.34,2.44.14.71.33,1.27.58,1.67.25.4.57.6.98.6.24,0,.46-.14.67-.42.21-.28.4-.64.58-1.08.18-.44.33-.89.45-1.35.13-.46.23-.87.32-1.22l2.57,3.16c-.49,1.24-.98,2.22-1.46,2.96-.48.74-.98,1.27-1.5,1.59-.52.32-1.09.48-1.71.48-.83,0-1.6-.26-2.31-.77-.71-.51-1.31-1.35-1.81-2.51-.5-1.16-.85-2.7-1.04-4.61-.07-.67-.12-1.37-.16-2.09s-.06-1.4-.06-2.05c0-.65-.01-1.19-.01-1.62,0-.32-.01-.69-.04-1.11-.03-.41-.08-.8-.15-1.17l3.92.04ZM142,80.42c.41.48.8,1.08,1.18,1.79.38.72.73,1.49,1.04,2.32.32.83.59,1.67.83,2.52.24.85.43,1.67.58,2.46.15.79.24,1.48.29,2.09l-3.4,1.31c-.07-.8-.19-1.72-.37-2.74-.18-1.03-.42-2.08-.72-3.15-.3-1.08-.67-2.1-1.12-3.07-.44-.97-.97-1.79-1.59-2.47l3.27-1.05Z"/><path class="cls-1" d="M148.27,83.42c.39-.07.86-.17,1.39-.31.53-.13.99-.25,1.37-.35.38-.11.91-.28,1.6-.5.69-.22,1.46-.44,2.31-.66.85-.22,1.72-.41,2.6-.57.89-.15,1.71-.23,2.49-.23,1.34,0,2.54.25,3.61.74,1.07.49,1.92,1.21,2.55,2.16s.95,2.11.95,3.49c0,.93-.17,1.8-.51,2.61-.34.82-.84,1.56-1.51,2.24s-1.49,1.27-2.48,1.77c-.98.51-2.12.91-3.42,1.22-1.29.31-2.74.5-4.32.57l-1.5-3.4c1.46-.03,2.8-.15,4.03-.38,1.22-.22,2.28-.54,3.18-.96.9-.41,1.6-.93,2.1-1.56.5-.63.75-1.35.75-2.18,0-.62-.13-1.17-.4-1.66-.27-.49-.67-.87-1.2-1.15-.53-.28-1.2-.42-1.98-.42-.58,0-1.22.07-1.93.21-.71.14-1.44.33-2.19.56s-1.5.48-2.24.76c-.74.27-1.43.55-2.09.82-.65.27-1.23.52-1.74.75l-1.43-3.58Z"/><path class="cls-1" d="M170.44,80.51c.42-.01.84-.03,1.25-.05.41-.02.72-.04.92-.05.49-.04,1.06-.09,1.7-.15.64-.06,1.34-.12,2.11-.18.77-.06,1.58-.13,2.46-.2.87-.07,1.79-.15,2.76-.23.7-.06,1.43-.11,2.18-.16.75-.05,1.47-.09,2.16-.14.69-.04,1.29-.07,1.79-.08l.02,3.29c-.37,0-.79,0-1.28.02-.49.01-.97.04-1.46.06-.49.03-.92.08-1.32.17-.56.13-1.1.37-1.61.72-.51.35-.97.78-1.36,1.28-.39.5-.7,1.05-.93,1.64-.22.6-.34,1.21-.34,1.85s.11,1.17.33,1.64c.22.48.53.89.93,1.23.4.34.88.63,1.42.86.55.23,1.15.41,1.8.54.65.13,1.35.21,2.08.25l-1.2,3.54c-.94-.07-1.85-.23-2.71-.47-.87-.25-1.66-.58-2.39-.99-.73-.41-1.37-.91-1.91-1.5-.54-.58-.96-1.24-1.26-1.98-.3-.74-.45-1.56-.45-2.46,0-.97.14-1.86.43-2.66.29-.8.64-1.5,1.05-2.1.41-.6.81-1.06,1.19-1.4-.37.04-.79.09-1.29.15-.49.06-1.03.12-1.6.19-.58.07-1.16.15-1.76.23s-1.19.18-1.77.28c-.58.11-1.13.21-1.63.33l-.32-3.48ZM184.8,84.33c.18.25.38.55.58.9.2.34.4.69.59,1.02.19.34.35.64.47.91l-1.88.82c-.28-.62-.53-1.14-.76-1.55-.23-.41-.51-.86-.84-1.34l1.83-.76ZM187.19,83.31c.18.25.38.55.6.88.22.33.43.66.63.99.2.33.38.62.52.88l-1.86.89c-.31-.6-.58-1.1-.82-1.5-.24-.39-.53-.83-.89-1.31l1.81-.82Z"/><path class="cls-1" d="M192.92,85.95c.8.27,1.6.47,2.4.61.8.14,1.59.24,2.37.28.78.05,1.54.07,2.29.07.6,0,1.28-.02,2.04-.07.75-.05,1.45-.11,2.1-.18l-.08,3.02c-.52.06-1.08.1-1.67.14-.59.04-1.2.05-1.83.05-1.55,0-2.99-.08-4.33-.23-1.34-.15-2.49-.36-3.45-.61l.17-3.08ZM193.34,80.72c.63.21,1.33.38,2.1.52.77.13,1.56.23,2.37.3.81.06,1.6.09,2.36.09.83,0,1.6-.03,2.32-.08.72-.06,1.31-.13,1.79-.21l-.11,3.04c-.6.06-1.22.11-1.83.15-.62.04-1.38.06-2.28.06-.76,0-1.54-.04-2.34-.12-.8-.08-1.59-.19-2.36-.33-.77-.14-1.5-.3-2.17-.49l.15-2.93ZM201.29,78.21c-.1.44-.18.82-.24,1.16-.06.34-.12.65-.18.95-.04.25-.1.64-.18,1.17s-.17,1.14-.26,1.83-.19,1.42-.28,2.18c-.09.76-.18,1.5-.26,2.22-.08.72-.15,1.38-.2,1.97-.05.59-.07,1.05-.07,1.39,0,.79.25,1.37.74,1.76.49.39,1.21.58,2.15.58s1.72-.13,2.33-.39c.61-.26,1.07-.6,1.38-1.03.31-.43.46-.89.46-1.38,0-.72-.19-1.4-.56-2.04-.37-.64-.88-1.28-1.53-1.93l3.58-.76c.69.93,1.19,1.79,1.51,2.59.32.8.47,1.65.47,2.55,0,1.07-.31,2.04-.93,2.9-.62.86-1.5,1.55-2.66,2.06-1.15.51-2.54.76-4.17.76-1.2,0-2.24-.18-3.13-.54-.89-.36-1.58-.91-2.08-1.67s-.74-1.73-.74-2.92c0-.42.04-.99.11-1.72.07-.72.16-1.53.26-2.4.11-.88.22-1.77.34-2.69.12-.91.22-1.78.32-2.6.09-.82.16-1.53.2-2.12.04-.56.07-.98.07-1.27,0-.28,0-.56-.03-.82l3.58.19Z"/><path class="cls-1" d="M216.97,83.52l1.77.63c-.17.86-.37,1.74-.6,2.65-.23.91-.5,1.79-.81,2.66-.31.86-.64,1.67-1,2.43-.36.75-.75,1.4-1.17,1.95-.14-.44-.35-.93-.63-1.49-.28-.56-.54-1.03-.78-1.42.37-.45.71-.97,1.04-1.56s.64-1.22.92-1.88c.28-.66.53-1.33.75-2s.39-1.33.52-1.96ZM214.31,81.52h8.18v2.89h-8.18v-2.89ZM217.14,77.26h2.93v20.03h-2.93v-20.03ZM219.88,85.13c.16.14.38.38.66.73.29.34.59.72.92,1.13.32.41.62.78.9,1.13.27.34.47.59.58.73l-1.71,2.47c-.15-.34-.34-.72-.57-1.16-.22-.44-.47-.88-.73-1.33-.26-.45-.51-.88-.76-1.28-.25-.4-.47-.75-.66-1.04l1.37-1.37ZM223.15,78.34h10.17v18.6h-3.08v-15.71h-4.15v15.88h-2.93v-18.77ZM224.58,83.31h7.32v2.76h-7.32v-2.76ZM224.58,88.23h7.32v2.76h-7.32v-2.76ZM224.58,93.14h7.32v2.76h-7.32v-2.76Z"/><path class="cls-1" d="M236.89,80.76h8.18v2.38h-8.18v-2.38ZM237.84,89.66h2.55v7.32h-2.55v-7.32ZM237.9,83.78h6.47v2.28h-6.47v-2.28ZM237.9,86.69h6.47v2.28h-6.47v-2.28ZM237.96,77.87h6.37v2.28h-6.37v-2.28ZM239.21,89.66h5.21v6.56h-5.21v-2.38h2.62v-1.79h-2.62v-2.38ZM246.21,87.64l2.66.53c-.14.82-.37,1.62-.68,2.43-.32.8-.72,1.48-1.21,2.02l-2.53-1.24c.42-.41.79-.96,1.1-1.66.31-.7.53-1.39.67-2.08ZM250.95,86.31h1.54v3.31c0,.31.04.64.14.99.09.35.24.71.44,1.09.2.37.48.74.83,1.1.35.36.79.7,1.31,1.03.52.33,1.13.63,1.83.9-.27.35-.58.78-.93,1.3-.35.51-.63.95-.84,1.32-.58-.21-1.11-.49-1.59-.84-.49-.35-.91-.73-1.29-1.14-.37-.41-.68-.82-.93-1.22-.25-.41-.42-.77-.54-1.1-.13.32-.33.69-.6,1.09-.27.4-.62.8-1.02,1.21-.41.41-.87.78-1.39,1.13-.52.34-1.09.64-1.71.88-.11-.24-.27-.52-.46-.83-.2-.32-.4-.63-.62-.93s-.42-.55-.6-.75c.72-.25,1.34-.55,1.88-.89s.99-.69,1.37-1.06c.38-.37.68-.75.92-1.13.23-.38.4-.75.51-1.12.11-.37.16-.7.16-1.01v-3.31h1.6ZM249.56,77.26h2.99c-.04,1.27-.14,2.42-.29,3.47-.15,1.05-.43,2-.83,2.85-.4.85-.99,1.6-1.78,2.25-.79.65-1.84,1.2-3.16,1.67-.14-.37-.38-.79-.71-1.28-.33-.48-.66-.87-.98-1.15,1.11-.34,1.98-.75,2.6-1.23.62-.49,1.09-1.04,1.38-1.68.29-.63.49-1.35.58-2.16.09-.81.16-1.72.2-2.73ZM246.46,78.42l2.49.49c-.1.72-.29,1.44-.56,2.17-.27.73-.63,1.34-1.07,1.83l-2.4-.99c.37-.39.69-.91.96-1.56.27-.65.47-1.29.58-1.94ZM249.31,83.48l1.88-2.02c.59.32,1.24.7,1.96,1.12s1.41.85,2.08,1.28c.67.43,1.21.82,1.63,1.17l-2.02,2.3c-.38-.37-.89-.78-1.53-1.23-.64-.46-1.31-.91-2.02-1.37-.71-.46-1.37-.87-1.97-1.23ZM253.93,87.47l3.02.91c-.38.67-.76,1.34-1.13,1.98-.37.65-.72,1.2-1.04,1.64l-2.38-.84c.2-.34.39-.72.58-1.15.19-.43.37-.86.54-1.31s.31-.85.42-1.23ZM253.86,78.27l2.95.89c-.37.65-.72,1.27-1.08,1.88-.35.6-.67,1.12-.95,1.56l-2.28-.82c.17-.32.34-.69.52-1.1.18-.41.34-.82.49-1.24.15-.42.26-.81.35-1.16Z"/><path class="cls-1" d="M265.86,95.54c-.63,0-1.15-.2-1.55-.61s-.6-.92-.6-1.54.2-1.12.61-1.52c.41-.39.92-.59,1.54-.59s1.13.2,1.54.59c.41.39.61.9.61,1.52s-.2,1.13-.61,1.54c-.41.41-.92.61-1.54.61ZM264.55,89.68l-.63-6.66-.13-3.5h4.13l-.13,3.5-.63,6.66h-2.62Z"/><path class="cls-1" d="M369.34,67.04c0,.28-.11.55-.32.76l-6.48,6.48c-.42.42-1.11.42-1.53,0s-.42-1.11,0-1.53l5.72-5.72-5.72-5.72c-.42-.42-.42-1.11,0-1.53s1.11-.42,1.53,0l6.48,6.48c.21.21.32.49.32.76Z"/></g></svg>