<?xml version="1.0" encoding="UTF-8"?><svg id="_レイヤー_2" xmlns="http://www.w3.org/2000/svg" viewBox="0 0 739.64 206.98"><defs><style>.cls-1{fill:#fff200;}.cls-1,.cls-2,.cls-3,.cls-4{stroke-width:0px;}.cls-5{fill:#fff33f;stroke:#fff33f;stroke-linecap:round;stroke-linejoin:round;stroke-width:.55px;}.cls-2{fill:none;}.cls-3{fill:#328bd5;}.cls-4{fill:#fff;}</style></defs><g id="_レイヤー_1-2"><path class="cls-3" d="M394.82,8.41c-4.45-4.19-10.37-6.51-16.24-6.38-11.05.08-18.47,6.55-22.48,10.08l-12.83,11c-.1.08-.19.17-.29.25-6.73,6.12-8.84,15.45-6.11,23.54C318.8,18.84,287.29.26,251.44.26c-29.72,0-56.46,12.77-75.03,33.13C157.85,13.09,131.16.35,101.48.35,45.44.35,0,45.79,0,101.83s45.44,101.48,101.48,101.48c29.69,0,56.41-12.76,74.97-33.08,18.57,20.33,45.29,33.08,74.99,33.08,56.07,0,101.53-45.46,101.53-101.53,0-17.07-4.22-33.14-11.66-47.26.04.04.07.09.11.13,4.44,4.88,10.55,7.34,16.68,7.27v71.14c0,12.23,9.95,22.18,22.18,22.18s22.02-9.95,22.02-22.18V25.39c0-.12,0-.24,0-.36-.17-6.34-2.83-12.25-7.48-16.62ZM736.27,101.22l-5.53-9.56c-4.28-7.66-12.46-12.41-21.4-12.41h-1.6l9.81-16.99c.07-.12.14-.24.2-.37,5.08-9.49,1.86-21.2-7.35-26.65-.11-.06-.21-.12-.32-.18-4.54-2.52-9.8-3.17-14.82-1.82-5.15,1.38-9.41,4.67-12.01,9.27l-3.79,6.56-.87-1.5c-4.47-7.7-12.44-12.29-21.33-12.29h-11.26c-8.89,0-16.87,4.59-21.33,12.29-.02.04-.05.08-.07.12l-1.12,1.98v-5.02c0-8.03-3.23-15.88-8.87-21.52l-10.22-10.21c-5.64-5.64-13.48-8.87-21.52-8.87h-28.47c-7.93,0-15.71,3.23-21.35,8.87l-10.21,10.21c-3.89,3.89-6.63,8.82-7.96,14.15-1.33-5.32-4.07-10.26-7.96-14.14l-10.22-10.21c-5.64-5.64-13.48-8.87-21.52-8.87h-28.47c-7.93,0-15.71,3.23-21.35,8.87l-10.21,10.21c-5.64,5.64-8.87,13.48-8.87,21.52v67.33c0,7.93,3.23,15.71,8.87,21.35l10.22,10.22c5.64,5.64,13.42,8.87,21.35,8.87h28.47c8.04,0,15.88-3.23,21.52-8.87l10.22-10.22c3.89-3.89,6.63-8.79,7.96-14.06,1.33,5.27,4.07,10.18,7.96,14.06l10.22,10.22c5.64,5.64,13.42,8.87,21.35,8.87h28.47c8.04,0,15.88-3.23,21.52-8.87l10.22-10.22c5.64-5.64,8.87-13.42,8.87-21.35v-22.45l1.19,2.08c4.44,7.65,12.62,12.41,21.33,12.41h1.73l-10.79,18.69c-5.46,9.55-2.36,21.39,7.06,26.97.06.03.12.07.18.1,3.15,1.8,6.56,2.66,9.91,2.66,6.77,0,13.31-3.51,17.06-9.83.03-.04.05-.08.07-.13l4.8-8.32.78,1.34c4.28,7.64,12.45,12.38,21.38,12.38h11.14c8.93,0,17.1-4.74,21.38-12.38l5.58-9.53c4.47-7.7,4.45-17.17-.03-24.74ZM471.44,106.16c-.26.24-.51.49-.77.73-.47.44-.93.88-1.39,1.32h-16.46c-.46-.45-.94-.89-1.41-1.34-.25-.24-.5-.48-.75-.71v-55.73l2.02-2.02h16.75l2.02,2.02v55.73ZM579.13,106.16c-.25.24-.51.49-.77.73-.47.44-.93.88-1.39,1.33h-16.46c-.46-.45-.94-.89-1.41-1.34-.25-.24-.5-.48-.75-.71v-55.73l2.02-2.02h16.75l2.02,2.02v55.73ZM654.29,71.01l-2.66,1.33-2.61-1.31h-.02c-.16-.96-.16-1.94.02-2.9l2.33-1.48c.1-.04.19-.08.29-.11.1.04.2.07.29.11l2.33,1.48c.17.96.18,1.93.02,2.88ZM706.37,115.07c-.79.66-1.68,1.18-2.63,1.53-.94-.35-1.81-.85-2.58-1.5-.17-1.02-.16-2.07.02-3.11.77-.64,1.63-1.15,2.56-1.49.95.35,1.83.86,2.61,1.51.18,1.01.18,2.05.02,3.06Z"/><path class="cls-4" d="M206.23,66.3h3.96c.41,0,.62.34.62.7s-.21.7-.62.7h-3.96v1.01h5.83c.41,0,.62.36.62.72s-.21.72-.62.72h-13.32c-.41,0-.6-.36-.6-.72s.2-.72.6-.72h5.78v-1.01h-3.86c-.41,0-.6-.36-.6-.7s.2-.7.6-.7h3.86v-.93h-4.98c-.41,0-.6-.36-.6-.7s.2-.7.6-.7h3.47c-.07-.05-.13-.13-.2-.21-.2-.28-.41-.55-.62-.8-.11-.15-.18-.29-.18-.44,0-.39.41-.72.83-.72.21,0,.42.08.6.26.23.21.5.57.72.86.11.15.15.31.15.44,0,.24-.13.46-.33.6h2.15c.37-.59.65-1.12.91-1.69.16-.37.49-.54.8-.54.42,0,.81.28.81.7,0,.11-.03.24-.1.37-.21.42-.44.8-.67,1.16h3.68c.42,0,.62.34.62.7s-.2.7-.62.7h-5.34v.93ZM206.54,73.17c1.25,1.03,3.08,1.77,5.32,2.05.55.07.81.44.81.8,0,.46-.37.9-1.04.81-2.72-.34-4.93-1.4-6.56-3-1.14,1.69-3.14,2.74-5.96,3.16-.6.1-.94-.34-.94-.78,0-.34.21-.68.68-.77,2.36-.39,3.84-1.09,4.69-2.28h-4.51c-.42,0-.63-.37-.63-.73s.21-.73.63-.73h5.19c.07-.24.11-.5.16-.75.06-.44.46-.65.85-.65.49,0,.96.31.86.88-.03.18-.07.36-.11.52h5.81c.42,0,.64.36.64.73s-.21.73-.64.73h-5.26Z"/><path class="cls-4" d="M230.88,71.46c.41.16.59.47.59.8,0,.44-.34.88-.86.88-.13,0-.29-.03-.46-.11-2.33-1.03-4.62-2.56-6.27-4.15-1.79,1.74-4.04,3.3-6.22,4.4-.11.05-.23.08-.34.08-.44,0-.78-.41-.78-.83,0-.26.15-.54.5-.72,2.3-1.11,4.61-2.78,6.3-4.71.18-.2.39-.28.62-.28.44,0,.88.34.88.77,0,.03,0,.08-.02.13,1.43,1.42,3.7,2.85,6.06,3.74ZM223.03,62.47c0-.46.46-.67.9-.67s.9.21.9.67v1.04h4.1c1.5,0,2.05.49,2.05,1.58v1.17c0,.46-.46.7-.9.7s-.91-.24-.91-.7v-.9c0-.33-.13-.46-.55-.46h-9.28c-.42,0-.57.13-.57.46v.96c0,.46-.44.7-.9.7s-.9-.24-.9-.7v-1.24c0-1.09.54-1.58,2.05-1.58h4v-1.04ZM221.52,65.54c.42,0,.78.33.78.72,0,.16-.05.34-.2.5-.73.85-1.74,1.73-2.7,2.36-.16.11-.33.15-.47.15-.42,0-.75-.36-.75-.75,0-.24.11-.49.41-.68.78-.52,1.69-1.3,2.3-1.99.2-.21.42-.31.64-.31ZM221.58,76.83c-1.5,0-2.05-.52-2.05-1.6v-1.77c0-1.07.55-1.6,2.05-1.6h4.82c1.5,0,2.07.52,2.07,1.6v1.77c-.02,1.34-.9,1.58-2.07,1.6h-4.82ZM226.11,75.45c.5,0,.64-.11.64-.47v-1.27c0-.36-.13-.47-.64-.47h-4.23c-.5,0-.62.11-.62.47v1.27c.02.44.24.46.62.47h4.23ZM229.48,67.46c.34.2.49.47.49.73,0,.42-.36.81-.81.81-.15,0-.33-.03-.49-.15-.94-.59-1.94-1.34-2.65-2.02-.2-.18-.28-.37-.28-.57,0-.39.37-.73.78-.73.2,0,.39.07.57.23.62.55,1.55,1.22,2.39,1.69Z"/><path class="cls-4" d="M236.66,68.84c-.39,0-.59-.34-.59-.68s.2-.68.59-.68h3.35l-.03-.05c-.16-.24-.31-.47-.47-.68-.11-.15-.16-.29-.16-.42,0-.21.11-.39.29-.5h-3.73c-.39,0-.6-.36-.6-.72s.21-.7.6-.7h2.47c-.13-.07-.24-.16-.34-.31-.15-.24-.34-.47-.62-.8-.13-.15-.18-.29-.18-.42,0-.37.37-.7.8-.7.21,0,.42.08.6.26.26.24.47.49.68.8.13.2.2.37.2.54,0,.28-.2.52-.44.64h1.22v-2c0-.46.41-.67.81-.67s.81.21.81.67v2h1.14v-2c0-.46.41-.67.83-.67s.81.21.81.67v2h1.3c-.24-.11-.42-.34-.42-.62,0-.16.05-.31.18-.47.21-.24.41-.5.6-.83.16-.28.42-.39.68-.39.41,0,.83.31.83.72,0,.11-.05.24-.13.39-.23.36-.47.72-.75,1.01-.08.08-.16.15-.26.2h2.51c.42,0,.62.36.62.7s-.2.72-.62.72h-3.76c.16.11.28.28.28.49,0,.11-.03.23-.1.34-.16.31-.33.57-.5.83h3.58c.39,0,.59.34.59.68s-.2.68-.59.68h-5.37v.83h4.04c.39,0,.57.33.57.67s-.18.67-.57.67h-4.04v.86h5.68c.41,0,.6.34.6.68s-.2.68-.6.68h-4.62c1.42.77,3.17,1.38,5.06,1.79.46.1.65.44.65.78,0,.41-.28.8-.78.8-.08,0-.18-.02-.28-.03-2.13-.54-4.23-1.43-5.8-2.49l.08,1.55v.98c0,.42-.41.63-.83.63s-.83-.21-.83-.63v-.98l.06-1.48c-1.6,1.09-3.66,1.99-5.71,2.56-.1.02-.18.03-.26.03-.47,0-.75-.37-.75-.75,0-.31.18-.62.6-.72,1.76-.46,3.5-1.16,4.98-2.04h-4.56c-.39,0-.6-.34-.6-.68s.21-.68.6-.68h5.63v-.86h-3.94c-.37,0-.57-.34-.57-.67,0-.34.2-.67.57-.67h3.94v-.83h-5.06ZM243.36,67.47c.28-.41.54-.86.73-1.3.08-.16.18-.28.29-.36h-3.76c.07.03.11.08.16.13.21.26.36.46.54.75.08.13.11.26.11.37,0,.15-.07.29-.16.41h2.08Z"/><path class="cls-4" d="M257.93,69.21c-1.32-.03-2.13-.29-2.17-1.76v-3.16c0-1.19.57-1.74,2.17-1.74h6.68c1.61,0,2.18.55,2.18,1.74v3.16c0,1.2-.57,1.76-2.18,1.76h-1.14c1.14.94,2.78,1.84,4.62,2.44.44.15.63.47.63.8,0,.42-.33.85-.83.85-.11,0-.23-.02-.36-.07-1.11-.39-2.17-.9-3.16-1.51v4.71c0,.46-.44.68-.88.68s-.88-.23-.88-.68v-4.77c0-.39.31-.6.68-.67-.7-.52-1.37-1.11-1.94-1.77h-.37c-.57.67-1.2,1.25-1.87,1.81.36.07.67.28.67.67v.62c0,2.12-.91,3.73-2.72,4.69-.18.1-.36.15-.52.15-.49,0-.85-.41-.85-.83,0-.28.15-.55.49-.75,1.27-.72,1.84-1.63,1.84-3.27v-.47c-1.01.67-2.05,1.22-3.09,1.64-.15.07-.28.08-.41.08-.49,0-.81-.39-.81-.78,0-.29.18-.6.6-.77,1.77-.68,3.32-1.63,4.53-2.78h-.91ZM260.3,65.24v-1.32h-2.17c-.54,0-.65.13-.65.49v.83h2.82ZM260.3,67.88v-1.34h-2.82v.83c.02.47.24.49.65.5h2.17ZM262,65.24h3.06v-.81c0-.37-.11-.5-.65-.5h-2.41v1.32ZM262,66.54v1.34h2.41c.54,0,.65-.13.65-.5v-.83h-3.06Z"/><path class="cls-4" d="M276.17,66.63c.44-.31.88-.47,1.32-.47s.89.18,1.32.55c1.79,1.6,4.67,3.63,7.05,4.92.42.23.6.59.6.93,0,.52-.42,1.03-.99,1.03-.2,0-.39-.07-.6-.18-2.44-1.4-5.36-3.6-6.97-5.13-.16-.16-.33-.24-.47-.24s-.28.07-.44.2c-.78.62-2.05,1.61-3.14,2.54-.23.18-.46.26-.67.26-.5,0-.93-.44-.93-.93,0-.26.13-.54.42-.77,1.25-1.01,2.51-1.99,3.5-2.7Z"/><path class="cls-4" d="M290.53,70.68c0-3.71,3.08-6.76,7.55-6.76,3.97,0,6.27,2.49,6.27,5.73,0,2.95-1.74,5.11-4.54,6.01-.13.05-.26.07-.37.07-.55,0-.91-.46-.91-.93,0-.36.2-.72.68-.9,2.31-.83,3.24-2.23,3.24-4.25,0-2.13-1.45-3.89-3.92-4.07-.16,2.7-.83,5.14-1.84,6.92-.9,1.58-1.86,2.05-3.11,2.05-1.66,0-3.04-1.34-3.04-3.87ZM292.4,70.68c0,1.5.59,2.05,1.17,2.05.5,0,.94-.26,1.42-1.09.83-1.45,1.43-3.55,1.63-5.94-2.43.47-4.22,2.57-4.22,4.98Z"/><path class="cls-4" d="M206.06,148.4c-.23-.35-.34-.7-.34-1.04,0-.38.13-.73.34-1.04l3.91-5.86c.13-.19.29-.32.44-.32.41,0,.75.28.75.59,0,.12-.03.25-.13.4l-3.65,5.44c-.19.29-.29.57-.29.81s.1.51.29.81l3.65,5.44c.1.15.13.28.13.4,0,.31-.34.59-.75.59-.15,0-.31-.13-.44-.32l-3.91-5.86Z"/><path class="cls-4" d="M217.7,152.12c-.01.09-.04.16-.06.25-.1.4-.45.57-.79.57-.38,0-.75-.22-.75-.62,0-.06.01-.12.03-.19.28-1,.51-2.1.7-3.17h-1.76c-.4,0-.59-.34-.59-.69s.19-.67.59-.67h1.98c.07-.56.15-1.1.19-1.6.1-1.03.64-1.48,1.82-1.48h5.2c1.36,0,1.86.62,1.85,1.51-.01.53-.03,1.04-.06,1.57h1.57c.4,0,.6.34.6.67s-.21.69-.6.69h-1.64c-.06.6-.12,1.19-.18,1.79h1.51c.4,0,.6.34.6.67s-.21.69-.6.69h-1.69c-.03.1-.04.21-.06.31-.22,1.28-.84,1.82-2.02,1.82-.35,0-.67-.01-1.08-.12-.38-.09-.54-.38-.54-.67,0-.4.32-.81.82-.69.31.07.5.1.72.1.38,0,.56-.13.63-.62,0-.04.01-.09.01-.13h-6.41ZM227.23,142.09c.42,0,.64.35.64.72s-.22.72-.64.72h-9.09c-.54.78-1.14,1.5-1.85,2.14-.19.18-.38.23-.57.23-.43,0-.78-.34-.78-.75,0-.21.1-.43.32-.62,1.04-.91,2.04-2.35,2.62-3.71.13-.32.43-.47.72-.47.41,0,.84.29.84.7,0,.09-.01.18-.06.28-.1.25-.22.5-.35.75h8.19ZM218.35,148.97c-.1.6-.21,1.19-.32,1.79h2.24c.09-.6.18-1.19.25-1.79h-2.17ZM220.68,147.61c.06-.57.12-1.16.16-1.73h-1.54c-.47,0-.57.1-.6.47-.04.38-.09.81-.15,1.26h2.13ZM222,148.97c-.07.6-.15,1.2-.25,1.79h2.55c.06-.6.12-1.19.18-1.79h-2.48ZM224.56,147.61c.01-.44.03-.86.04-1.28.02-.32-.09-.45-.59-.45h-1.71c-.06.57-.1,1.16-.16,1.73h2.42Z"/><path class="cls-4" d="M237.79,143.97h-3.05c-.59.92-1.23,1.8-1.99,2.59-.21.21-.43.29-.63.29-.41,0-.76-.35-.76-.75,0-.21.09-.43.29-.63,1.11-1.11,2.15-2.86,2.86-4.5.16-.37.5-.53.84-.53.41,0,.81.25.81.67,0,.1-.03.21-.07.32-.15.35-.32.7-.51,1.07h8.24c.43,0,.65.37.65.72s-.22.73-.65.73h-4.43v1.64h3.33c.41,0,.62.35.62.7s-.22.73-.62.73h-3.33v2.02h4.87c.43,0,.65.37.65.72s-.22.73-.65.73h-4.87v3.11c0,.45-.4.67-.79.67s-.79-.22-.79-.67v-3.11h-5.82c-.42,0-.63-.37-.63-.73s.21-.72.63-.72h1.88v-1.77c0-1.17.48-1.69,1.98-1.69h1.96v-1.64ZM236.01,147.05c-.5,0-.62.12-.62.48v1.54h2.39v-2.02h-1.77Z"/><path class="cls-4" d="M252.76,147.36c0,.82-.67,1.5-1.5,1.5s-1.49-.67-1.49-1.5.67-1.5,1.49-1.5,1.5.67,1.5,1.5Z"/><path class="cls-4" d="M261.1,151.04c.89.91,2.3,1.26,5.58,1.26,1.53,0,2.79-.04,3.91-.15.54-.06.81.34.81.75,0,.37-.22.73-.7.76-1.19.09-2.43.13-3.99.13-3.56,0-5.15-.44-6.24-1.52-.48.54-1.06,1.08-1.66,1.52-.18.12-.35.18-.51.18-.41,0-.76-.35-.76-.75,0-.23.12-.48.43-.69.54-.4,1.1-.86,1.58-1.39v-2.59c0-.26-.06-.37-.44-.37h-.75c-.43,0-.65-.37-.65-.72s.22-.72.65-.72h1.1c1.19,0,1.64.51,1.64,1.58v2.71ZM260.95,142.65c.16.19.23.4.23.59,0,.45-.4.82-.84.82-.23,0-.47-.1-.66-.34-.34-.41-.66-.73-1.08-1.08-.21-.18-.28-.38-.28-.57,0-.4.35-.76.81-.76.18,0,.37.06.56.19.48.35.91.76,1.26,1.16ZM265.54,143.08h-3.14c-.37,0-.56-.32-.56-.65s.19-.65.56-.65h3.14v-.73c0-.41.37-.6.73-.6s.73.19.73.6v.73h3.34c.38,0,.57.32.57.65s-.19.65-.57.65h-3.34v.7h1.48c1.17,0,1.63.48,1.63,1.39v2.1c-.03,1.08-.63,1.38-1.63,1.39h-1.48v.72h3.59c.38,0,.57.32.57.66s-.19.66-.57.66h-3.59v.73c0,.41-.37.62-.73.62s-.73-.21-.73-.62v-.73h-3.15c-.37,0-.56-.34-.56-.66s.19-.66.56-.66h3.15v-.72h-1.39c-1.17,0-1.63-.48-1.63-1.39v-2.1c0-.91.45-1.39,1.63-1.39h1.39v-.7ZM265.54,145.66v-.75h-1.17c-.35,0-.41.06-.41.34v.41h1.58ZM265.54,147.53v-.76h-1.58v.43c0,.31.13.34.41.34h1.17ZM267.01,145.66h1.67v-.41c0-.28-.06-.34-.41-.34h-1.26v.75ZM267.01,146.77v.76h1.26c.35,0,.41-.06.41-.34v-.43h-1.67Z"/><path class="cls-4" d="M280.2,148.18c-.07.29-.37.47-.65.47-.25,0-.48-.13-.57-.41-.03-.07-.04-.16-.07-.23-.26.03-.51.07-.78.1v5.63c0,.37-.35.54-.7.54s-.72-.18-.72-.54v-5.47c-.51.04-1,.07-1.47.09-.43.01-.65-.34-.65-.69s.21-.67.6-.67c.19,0,.38-.01.57-.01.31-.45.6-.92.88-1.39-.5-.62-1.07-1.26-1.6-1.79-.13-.13-.19-.29-.19-.44,0-.34.31-.66.67-.66.13,0,.29.04.44.18.29-.56.56-1.19.79-1.79.1-.31.38-.45.66-.45.35,0,.7.23.7.62,0,.09-.01.18-.04.26-.28.75-.69,1.58-1.14,2.37.15.15.28.32.41.48.25-.47.47-.91.66-1.3.12-.26.35-.38.59-.38.37,0,.73.28.73.65,0,.1-.02.21-.07.31-.51,1-1.28,2.27-1.96,3.25.38-.03.75-.06,1.13-.1-.06-.13-.13-.25-.19-.37-.04-.09-.07-.18-.07-.25,0-.29.31-.53.62-.53.19,0,.4.09.53.31.34.54.66,1.26.85,1.82.01.04.03.07.04.15v-.19c0-.92.32-1.47,1.61-1.47h4.68c1.27,0,1.6.54,1.6,1.47v.75c0,.41-.37.62-.73.62s-.73-.21-.73-.62v-.57c0-.28-.12-.35-.47-.35h-4.02c-.35,0-.47.07-.47.35v.63c0,.4-.37.6-.73.6s-.73-.21-.73-.6v-.35ZM275.9,149.06c.31,0,.62.21.59.6-.09,1.03-.34,2.08-.6,2.77-.12.29-.35.41-.59.41-.31,0-.62-.21-.62-.54,0-.07.03-.16.06-.25.23-.6.48-1.61.57-2.51.04-.32.31-.48.59-.48ZM279.93,151.23c.06.44-.26.67-.6.67-.26,0-.53-.15-.57-.47-.07-.66-.21-1.28-.38-1.89-.01-.04-.03-.1-.03-.15,0-.29.29-.5.59-.5.22,0,.44.12.53.38.22.65.38,1.3.47,1.95ZM282.86,148.25c.4,0,.81.25.76.72-.19,2.36-1.35,4.1-3.25,5.01-.13.06-.26.09-.38.09-.44,0-.75-.37-.75-.76,0-.25.13-.51.45-.67,1.48-.75,2.29-1.89,2.43-3.77.03-.43.38-.62.73-.62ZM283.24,143.43h-2.61c-.41,0-.62-.34-.62-.66s.21-.66.62-.66h2.61v-.94c0-.44.38-.65.76-.65s.76.21.76.65v.94h2.92c.41,0,.62.32.62.66s-.21.66-.62.66h-2.92v.85h2.24c.41,0,.62.32.62.66s-.2.66-.62.66h-5.61c-.41,0-.62-.34-.62-.66s.21-.66.62-.66h1.85v-.85ZM285.77,152.21c0,.25.07.32.47.32.57,0,.69-.13.78-1.01.04-.4.35-.57.69-.57.38,0,.78.25.73.69-.15,1.58-.59,2.26-2.18,2.26-1.69,0-1.98-.38-1.98-1.29v-3.78c0-.4.38-.6.75-.6s.75.21.75.6v3.39Z"/><path class="cls-4" d="M296.83,146.32c.21.31.34.66.34,1.04,0,.34-.1.69-.34,1.04l-3.91,5.86c-.13.19-.29.32-.44.32-.41,0-.75-.28-.75-.59,0-.12.03-.25.13-.4l3.65-5.44c.21-.29.29-.57.29-.81s-.09-.51-.29-.81l-3.65-5.44c-.1-.15-.13-.28-.13-.4,0-.31.34-.59.75-.59.15,0,.31.13.44.32l3.91,5.86Z"/><path class="cls-4" d="M46.14,66.36h3.96c.41,0,.62.34.62.7s-.21.7-.62.7h-3.96v1.01h5.83c.41,0,.62.36.62.72s-.21.72-.62.72h-13.32c-.41,0-.6-.36-.6-.72s.2-.72.6-.72h5.78v-1.01h-3.86c-.41,0-.6-.36-.6-.7s.2-.7.6-.7h3.86v-.93h-4.98c-.41,0-.6-.36-.6-.7s.2-.7.6-.7h3.47c-.07-.05-.13-.13-.2-.21-.2-.28-.41-.55-.62-.8-.11-.15-.18-.29-.18-.44,0-.39.41-.72.83-.72.21,0,.42.08.6.26.23.21.5.57.72.86.11.15.15.31.15.44,0,.24-.13.46-.33.6h2.15c.37-.59.65-1.12.91-1.69.16-.37.49-.54.8-.54.42,0,.81.28.81.7,0,.11-.03.24-.1.37-.21.42-.44.8-.67,1.16h3.68c.42,0,.62.34.62.7s-.2.7-.62.7h-5.34v.93ZM46.45,73.23c1.25,1.03,3.08,1.77,5.32,2.05.55.07.81.44.81.8,0,.46-.37.9-1.04.81-2.72-.34-4.93-1.4-6.56-3-1.14,1.69-3.14,2.74-5.96,3.16-.6.1-.94-.34-.94-.78,0-.34.21-.68.68-.77,2.36-.39,3.84-1.09,4.69-2.28h-4.51c-.42,0-.63-.37-.63-.73s.21-.73.63-.73h5.19c.07-.24.11-.5.16-.75.06-.44.46-.65.85-.65.49,0,.96.31.86.88-.03.18-.07.36-.11.52h5.81c.42,0,.64.36.64.73s-.21.73-.64.73h-5.26Z"/><path class="cls-4" d="M70.78,71.52c.41.16.59.47.59.8,0,.44-.34.88-.86.88-.13,0-.29-.03-.46-.11-2.33-1.03-4.62-2.56-6.27-4.15-1.79,1.74-4.04,3.3-6.22,4.4-.11.05-.23.08-.34.08-.44,0-.78-.41-.78-.83,0-.26.15-.54.5-.72,2.3-1.11,4.61-2.78,6.3-4.71.18-.2.39-.28.62-.28.44,0,.88.34.88.77,0,.03,0,.08-.02.13,1.43,1.42,3.7,2.85,6.06,3.74ZM62.93,62.53c0-.46.46-.67.9-.67s.9.21.9.67v1.04h4.1c1.5,0,2.05.49,2.05,1.58v1.17c0,.46-.46.7-.89.7s-.91-.24-.91-.7v-.9c0-.33-.13-.46-.55-.46h-9.28c-.42,0-.57.13-.57.46v.96c0,.46-.44.7-.9.7s-.9-.24-.9-.7v-1.24c0-1.09.54-1.58,2.05-1.58h4v-1.04ZM61.42,65.59c.42,0,.78.33.78.72,0,.16-.05.34-.2.5-.73.85-1.74,1.73-2.7,2.36-.16.11-.33.15-.47.15-.42,0-.75-.36-.75-.75,0-.24.11-.49.41-.68.78-.52,1.69-1.3,2.3-1.99.2-.21.42-.31.64-.31ZM61.48,76.89c-1.5,0-2.05-.52-2.05-1.6v-1.77c0-1.07.55-1.6,2.05-1.6h4.82c1.5,0,2.07.52,2.07,1.6v1.77c-.02,1.34-.9,1.58-2.07,1.6h-4.82ZM66.01,75.51c.5,0,.64-.11.64-.47v-1.27c0-.36-.13-.47-.64-.47h-4.23c-.5,0-.62.11-.62.47v1.27c.02.44.24.46.62.47h4.23ZM69.38,67.51c.34.2.49.47.49.73,0,.42-.36.81-.81.81-.15,0-.33-.03-.49-.15-.94-.59-1.94-1.34-2.65-2.02-.2-.18-.28-.37-.28-.57,0-.39.37-.73.78-.73.2,0,.39.07.57.23.62.55,1.55,1.22,2.39,1.69Z"/><path class="cls-4" d="M79.13,70.74c1.27,0,1.81.55,1.81,1.56v2.2c0,1.01-.54,1.56-1.81,1.56h-1.89c-1.27,0-1.81-.55-1.81-1.56v-8.71c.02-1.16.52-1.45,1.61-1.5.18-.52.31-1.06.41-1.56.08-.42.46-.62.81-.62.46,0,.91.31.8.86-.08.41-.21.88-.36,1.32h.2c1.24,0,1.64.49,1.64,1.5v1.95c-.02,1.19-.72,1.55-1.81,1.56h-1.68v1.43h2.07ZM78.47,67.81c.36,0,.46-.13.46-.47v-1.14c0-.34-.1-.47-.46-.47h-.94c-.36,0-.46.13-.46.47v1.61h1.4ZM77.07,72.23v1.86c0,.34.1.44.46.44h1.33c.36,0,.46-.1.46-.44v-1.38c0-.34-.11-.47-.46-.47h-1.79ZM86.38,76.45c0,.47-.42.7-.86.7s-.86-.23-.86-.7v-8.78h-.75c-.33,0-.46.15-.46.41v6.59c0,.44-.42.65-.85.65s-.85-.21-.85-.65v-6.82c0-1.2.44-1.68,1.97-1.68h.93v-1.74h-2.78c-.42,0-.65-.39-.65-.78s.23-.78.65-.78h7.39c.44,0,.67.39.67.78s-.23.78-.67.78h-2.88v1.74h.99c1.53,0,1.97.47,1.97,1.68v5.67c0,1.07-.62,1.53-1.48,1.53-.21,0-.47,0-.7-.03-.47-.05-.68-.44-.68-.81,0-.41.26-.81.72-.77.1.02.21.02.29.02.13,0,.16-.05.16-.21v-5.16c0-.26-.13-.41-.46-.41h-.81v8.78Z"/><path class="cls-4" d="M96.61,76.55c-1.86,0-2.57-.72-2.57-2.18v-9.46c0-1.47.72-2.18,2.57-2.18h8.69c1.86,0,2.57.72,2.57,2.18v9.46c-.03,1.74-.99,2.15-2.57,2.18h-8.69ZM105.05,74.95c.8,0,1.04-.23,1.04-.88v-8.87c0-.65-.24-.88-1.04-.88h-8.17c-.8,0-1.04.23-1.04.88v8.87c.02.75.36.86,1.04.88h8.17ZM101.72,68.65h2.33c.41,0,.6.36.6.73s-.2.73-.6.73h-.81c.15.03.28.11.37.23.26.29.49.59.67.88.07.13.1.26.1.37,0,.29-.21.54-.47.62h.83c.41,0,.6.36.6.73s-.2.73-.6.73h-7.52c-.39,0-.6-.37-.6-.73s.21-.73.6-.73h2.78v-2.1h-2.12c-.39,0-.6-.37-.6-.73s.21-.73.6-.73h2.12v-1.61h-2.6c-.39,0-.6-.37-.6-.73s.21-.73.6-.73h7.18c.41,0,.62.36.62.73s-.21.73-.62.73h-2.85v1.61ZM101.72,72.22h1.77c-.13-.05-.26-.13-.34-.28-.18-.31-.39-.62-.6-.9-.1-.13-.15-.26-.15-.37,0-.28.23-.49.52-.55h-1.21v2.1Z"/><path class="cls-4" d="M119.97,67.48c-.37.31-.75.6-1.14.86,1.79,1.55,2.62,3.45,2.62,5.41,0,2.52-.85,3.35-2.36,3.35-.49,0-.78-.03-1.19-.11-.47-.1-.67-.44-.67-.78,0-.44.36-.9.94-.8.28.05.59.08.88.08.39,0,.7-.33.7-1.76,0-.21-.02-.41-.03-.6-1.89,1.37-4.25,2.54-6.51,3.19-.1.03-.2.05-.28.05-.47,0-.75-.39-.75-.77,0-.31.18-.62.57-.73,2.41-.7,4.67-1.81,6.58-3.29-.1-.24-.23-.47-.36-.72-1.68,1.14-3.66,2.07-5.57,2.67-.1.03-.2.05-.28.05-.46,0-.75-.37-.75-.77,0-.28.16-.57.55-.7,1.74-.5,3.65-1.35,5.19-2.39-.18-.2-.37-.39-.57-.57-1.27.72-2.62,1.27-3.97,1.68-.11.03-.21.05-.31.05-.49,0-.78-.36-.78-.73,0-.29.18-.59.6-.72,1.63-.46,3.22-1.11,4.53-1.95h-2.18c-.42,0-.63-.36-.63-.7s.21-.7.63-.7h8.08c.44,0,.67.34.67.7s-.23.7-.67.7h-1.69c.24.78.55,1.55.94,2.25.7-.44,1.35-.91,1.97-1.47.18-.16.39-.23.59-.23.44,0,.85.37.85.8,0,.21-.11.44-.36.64-.72.55-1.48,1.09-2.28,1.55.81,1.2,1.79,2.21,2.9,3.03.31.23.44.52.44.78,0,.44-.37.85-.86.85-.21,0-.46-.08-.7-.28-.52-.42-1.01-.85-1.45-1.35-1.69-1.86-2.9-4.15-3.55-6.56h-.34ZM118.57,62.5c0-.46.44-.67.9-.67s.88.21.88.67v.96h4.07c1.5,0,2.02.5,2.02,1.56v1.04c0,.46-.44.68-.9.68s-.9-.23-.9-.68v-.77c0-.31-.13-.44-.54-.44h-9.22c-.41,0-.54.13-.54.44v.83c0,.44-.44.67-.9.67s-.9-.23-.9-.67v-1.11c0-1.06.52-1.56,2.02-1.56h3.99v-.96Z"/><path class="cls-4" d="M131.05,66.54c-.42,0-.65-.41-.65-.81s.23-.81.65-.81h4.61c.44,0,.67.41.67.81s-.23.81-.67.81h-4.61ZM132.82,76.83c-1.22,0-1.63-.49-1.63-1.48v-2.02c0-.99.41-1.48,1.63-1.48h1.61c1.2,0,1.61.49,1.61,1.48v2.02c-.02,1.12-.52,1.47-1.61,1.48h-1.61ZM131.93,64.16c-.41,0-.62-.39-.62-.77s.21-.77.62-.77h3.26c.42,0,.64.37.64.77s-.21.77-.64.77h-3.26ZM131.93,68.82c-.41,0-.62-.39-.62-.77s.21-.77.62-.77h3.26c.42,0,.64.37.64.77s-.21.77-.64.77h-3.26ZM131.93,71.09c-.41,0-.62-.39-.62-.77s.21-.77.62-.77h3.26c.42,0,.64.37.64.77s-.21.77-.64.77h-3.26ZM134.09,75.36c.26,0,.34-.08.34-.36v-1.32c0-.28-.08-.37-.34-.37h-.94c-.26,0-.34.1-.34.37v1.32c0,.26.08.36.34.36h.94ZM139.56,73.7c.33-.08.65-.18.98-.28.08-.03.16-.03.23-.03.44,0,.73.39.73.78,0,.29-.16.59-.5.72-1.16.42-2.47.78-3.78,1.01-.57.1-.91-.37-.91-.83,0-.36.21-.7.67-.78.31-.05.62-.11.93-.18v-3.71h-.67c-.39,0-.6-.37-.6-.73s.21-.73.6-.73h3c.36,0,.54.36.54.73s-.18.73-.54.73h-.67v3.31ZM144.95,65.4c.44,0,.67.37.67.77s-.23.77-.67.77h-2.34c.1,2.21.28,4.02.52,5.26.46,2.39.83,2.78,1.01,2.78s.26-.16.36-1.16c.03-.42.37-.62.72-.62.42,0,.85.28.8.78-.18,2.21-.86,2.85-1.77,2.85-1.22,0-2.17-1.16-2.77-4.35-.23-1.24-.44-3.19-.55-5.55h-3.63c-.42,0-.65-.39-.65-.77s.23-.77.65-.77h3.57c-.02-.85-.03-1.74-.03-2.67,0-.5.42-.75.86-.75s.85.24.85.75c0,.93.02,1.82.03,2.67h2.39ZM145.1,63.85c.1.15.13.29.13.42,0,.42-.41.72-.8.72-.24,0-.47-.1-.62-.34-.2-.36-.41-.68-.67-1.04-.1-.13-.15-.28-.15-.41,0-.36.36-.67.75-.67.2,0,.41.08.59.28.26.28.57.72.77,1.04Z"/><path class="cls-4" d="M150.49,72.61c.28,0,.57.2.54.57-.07.77-.21,1.55-.41,2.18-.1.33-.34.46-.59.46-.29,0-.57-.2-.57-.52,0-.08.02-.16.05-.24.18-.52.34-1.24.42-1.97.03-.31.29-.47.55-.47ZM154.05,65.22h1.19c.34,0,.52.33.52.65,0,.34-.18.67-.52.67h-1.19v1.17h1.19c.34,0,.52.33.52.65,0,.34-.18.67-.52.67h-1.19v1.22h.8c.96,0,1.38.46,1.37,1.32-.03,1.71-.2,2.91-.44,3.86-.33,1.27-.99,1.61-1.99,1.61-.37,0-.65-.03-.93-.08-.44-.07-.65-.42-.65-.78,0-.42.31-.86.88-.75.23.05.42.07.65.07.34,0,.49-.1.59-.49.11-.47.21-1.03.28-1.64-.08.15-.23.23-.37.23s-.31-.08-.37-.28c-.15-.39-.28-.67-.42-.94-.05-.08-.07-.15-.07-.23,0-.21.2-.34.41-.34.15,0,.29.07.39.21.18.29.31.57.42.86.02.05.03.08.05.11.02-.33.03-.67.03-1.01,0-.24-.08-.34-.36-.34h-2.72c-1.03,0-1.45-.37-1.45-1.27v-6.3c0-.94.44-1.45,1.71-1.45h3.76c.42,0,.62.36.62.7s-.2.72-.62.72h-1.56v1.19ZM152.36,74.51c.02.37-.26.57-.52.57-.23,0-.44-.15-.46-.44-.03-.5-.1-1.17-.21-1.66-.06-.34.2-.54.46-.54.2,0,.39.11.46.34.13.52.26,1.22.28,1.73ZM152.02,64.03c-.29,0-.37.08-.37.34v.85h1.01v-1.19h-.64ZM152.65,67.71v-1.17h-1.01v1.17h1.01ZM152.65,69.03h-1.01v.88c0,.28.08.34.37.34h.64v-1.22ZM153.63,73.76c.1.42-.2.67-.46.67-.2,0-.39-.13-.44-.39-.1-.5-.23-.94-.37-1.3-.03-.07-.03-.13-.03-.2,0-.23.21-.37.42-.37.18,0,.36.08.44.28.16.39.34.83.44,1.32ZM158.37,72.74c-1.19,0-1.63-.44-1.63-1.33v-1.4c0-.91.44-1.32,1.63-1.32h1.11v-.9h-.7c-.37,0-.57-.34-.57-.68,0-.15.03-.29.11-.42-.31.31-.64.59-.94.85-.2.16-.39.23-.59.23-.46,0-.85-.39-.85-.83,0-.23.11-.49.41-.72,1.16-.9,2.43-2.3,3.26-3.7.18-.29.44-.42.72-.42.46,0,.91.36.91.8,0,.07,0,.11-.02.18.98,1.11,2.13,2.1,3.24,2.83.34.23.47.52.47.8,0,.46-.39.86-.88.86-.2,0-.41-.07-.6-.21-.28-.2-.55-.42-.85-.68.08.13.11.28.11.44,0,.34-.2.68-.59.68h-1.07v.9h1.27c1.19,0,1.63.41,1.63,1.32v1.4c0,.9-.44,1.33-1.63,1.33h-1.01c.72,1.14,1.66,1.94,2.75,2.59.37.23.52.52.52.81,0,.44-.39.86-.86.86-.16,0-.34-.07-.52-.18-1.19-.8-2.18-1.79-2.93-3-.65,1.35-1.69,2.39-3.06,3.13-.16.08-.31.13-.46.13-.46,0-.8-.39-.8-.81,0-.26.13-.54.49-.73,1.22-.63,2.12-1.55,2.62-2.8h-.7ZM159.44,71.44c.05-.42.08-.85.08-1.27v-.18h-.94c-.26,0-.34.08-.34.28v.9c0,.21.15.28.34.28h.86ZM162.13,66.42c.08,0,.16.02.23.05-.73-.64-1.4-1.34-2-2.07-.57.72-1.16,1.43-1.82,2.08.08-.05.15-.07.24-.07h3.35ZM161.02,70.07c0,.46-.03.91-.08,1.37h1.17c.28,0,.36-.08.36-.28v-.9c0-.2-.08-.28-.36-.28h-1.09v.08Z"/><path class="cls-4" d="M56.17,148.43c-.23-.35-.34-.7-.34-1.04,0-.38.13-.73.34-1.04l3.91-5.86c.13-.19.29-.32.44-.32.41,0,.75.28.75.59,0,.12-.03.25-.13.4l-3.65,5.43c-.19.29-.29.57-.29.81s.1.51.29.81l3.65,5.43c.1.15.13.28.13.4,0,.31-.34.59-.75.59-.15,0-.31-.13-.44-.32l-3.91-5.86Z"/><path class="cls-4" d="M68.09,151.06c.89.91,2.3,1.26,5.58,1.26,1.52,0,2.78-.04,3.91-.15.54-.06.81.34.81.75,0,.37-.22.73-.7.76-1.19.09-2.43.13-3.98.13-3.56,0-5.14-.44-6.24-1.52-.48.54-1.05,1.08-1.65,1.52-.18.12-.35.18-.51.18-.41,0-.76-.35-.76-.75,0-.23.12-.48.42-.69.54-.4,1.1-.86,1.58-1.39v-2.59c0-.26-.06-.37-.44-.37h-.75c-.42,0-.64-.37-.64-.72s.22-.72.64-.72h1.1c1.19,0,1.64.51,1.64,1.58v2.71ZM67.94,142.69c.16.19.23.4.23.59,0,.45-.4.82-.83.82-.23,0-.47-.1-.66-.34-.34-.41-.66-.73-1.08-1.08-.2-.18-.28-.38-.28-.57,0-.4.35-.76.81-.76.18,0,.37.06.56.19.48.35.91.76,1.26,1.16ZM72.52,143.11h-3.13c-.37,0-.56-.32-.56-.64s.19-.64.56-.64h3.13v-.73c0-.41.37-.6.73-.6s.73.19.73.6v.73h3.34c.38,0,.57.32.57.64s-.19.64-.57.64h-3.34v.7h1.48c1.17,0,1.63.48,1.63,1.39v2.09c-.03,1.08-.63,1.38-1.63,1.39h-1.48v.72h3.59c.38,0,.57.32.57.66s-.19.66-.57.66h-3.59v.73c0,.41-.37.62-.73.62s-.73-.21-.73-.62v-.73h-3.15c-.37,0-.56-.34-.56-.66s.19-.66.56-.66h3.15v-.72h-1.39c-1.17,0-1.63-.48-1.63-1.39v-2.09c0-.91.45-1.39,1.63-1.39h1.39v-.7ZM72.52,145.69v-.75h-1.17c-.35,0-.41.06-.41.34v.41h1.58ZM72.52,147.56v-.76h-1.58v.42c0,.31.13.34.41.34h1.17ZM73.99,145.69h1.67v-.41c0-.28-.06-.34-.41-.34h-1.26v.75ZM73.99,146.8v.76h1.26c.35,0,.41-.06.41-.34v-.42h-1.67Z"/><path class="cls-4" d="M87.17,148.21c-.07.29-.37.47-.64.47-.25,0-.48-.13-.57-.41-.03-.07-.04-.16-.07-.23-.26.03-.51.07-.78.1v5.62c0,.37-.35.54-.7.54s-.72-.18-.72-.54v-5.46c-.51.04-1,.07-1.46.09-.42.01-.64-.34-.64-.69s.21-.67.6-.67c.19,0,.38-.01.57-.01.31-.45.6-.92.88-1.39-.5-.62-1.07-1.26-1.6-1.79-.13-.13-.19-.29-.19-.44,0-.34.31-.66.67-.66.13,0,.29.04.44.18.29-.56.56-1.19.79-1.79.1-.31.38-.45.66-.45.35,0,.7.23.7.62,0,.09-.01.18-.04.26-.28.75-.69,1.58-1.14,2.37.15.15.28.32.41.48.25-.47.47-.91.66-1.3.12-.26.35-.38.59-.38.37,0,.73.28.73.64,0,.1-.01.21-.07.31-.51,1-1.27,2.27-1.96,3.25.38-.03.75-.06,1.13-.1-.06-.13-.13-.25-.19-.37-.04-.09-.07-.18-.07-.25,0-.29.31-.53.62-.53.19,0,.4.09.53.31.34.54.66,1.26.85,1.82.01.04.03.07.04.15v-.19c0-.92.32-1.46,1.61-1.46h4.67c1.27,0,1.6.54,1.6,1.46v.75c0,.41-.37.62-.73.62s-.73-.21-.73-.62v-.57c0-.28-.12-.35-.47-.35h-4.01c-.35,0-.47.07-.47.35v.63c0,.4-.37.6-.73.6s-.73-.2-.73-.6v-.35ZM82.88,149.08c.31,0,.62.2.59.6-.09,1.03-.34,2.08-.6,2.77-.12.29-.35.41-.59.41-.31,0-.62-.21-.62-.54,0-.07.03-.16.06-.25.23-.6.48-1.61.57-2.5.04-.32.31-.48.59-.48ZM86.91,151.25c.06.44-.26.67-.6.67-.26,0-.53-.15-.57-.47-.07-.66-.2-1.27-.38-1.89-.01-.04-.03-.1-.03-.15,0-.29.29-.5.59-.5.22,0,.44.12.53.38.22.64.38,1.3.47,1.95ZM89.84,148.28c.4,0,.81.25.76.72-.19,2.36-1.35,4.1-3.25,5.01-.13.06-.26.09-.38.09-.44,0-.75-.37-.75-.76,0-.25.13-.51.45-.67,1.48-.75,2.28-1.89,2.43-3.76.03-.42.38-.62.73-.62ZM90.22,143.46h-2.61c-.41,0-.62-.34-.62-.66s.2-.66.62-.66h2.61v-.94c0-.44.38-.64.76-.64s.76.2.76.64v.94h2.91c.41,0,.62.32.62.66s-.2.66-.62.66h-2.91v.85h2.24c.41,0,.62.32.62.66s-.21.66-.62.66h-5.61c-.41,0-.62-.34-.62-.66s.2-.66.62-.66h1.85v-.85ZM92.74,152.23c0,.25.07.32.47.32.57,0,.69-.13.78-1.01.04-.4.35-.57.69-.57.38,0,.78.25.73.69-.15,1.58-.59,2.26-2.18,2.26-1.68,0-1.98-.38-1.98-1.29v-3.78c0-.4.38-.6.75-.6s.75.2.75.6v3.38Z"/><path class="cls-4" d="M103.2,147.39c0,.82-.67,1.49-1.49,1.49s-1.49-.67-1.49-1.49.67-1.49,1.49-1.49,1.49.67,1.49,1.49Z"/><path class="cls-4" d="M121.27,145.45c.38.19.54.5.54.79,0,.41-.31.79-.78.79-.16,0-.34-.03-.51-.13-2.02-1.01-4.16-2.64-5.71-4.42-1.55,1.82-3.62,3.48-5.71,4.67-.13.07-.26.1-.4.1-.42,0-.75-.38-.75-.78,0-.26.13-.53.45-.7,2.23-1.27,4.28-3.02,5.77-5.01.19-.25.45-.35.72-.35.41,0,.82.29.82.69,0,.07-.01.15-.04.23,1.43,1.63,3.53,3.12,5.59,4.11ZM115.65,149.01h3.35c.4,0,.6.34.6.69s-.2.69-.6.69h-3.35v1.79h5.13c.41,0,.6.35.6.7s-.19.7-.6.7h-11.71c-.4,0-.6-.35-.6-.7s.2-.7.6-.7h5.01v-1.79h-3.25c-.4,0-.59-.35-.59-.69s.19-.69.59-.69h3.25v-1.54h-2.62c-.4,0-.59-.35-.59-.69s.19-.69.59-.69h6.94c.4,0,.6.34.6.69s-.2.69-.6.69h-2.74v1.54Z"/><path class="cls-4" d="M129.28,151.78c.44,0,.76.34.76.69,0,.23-.13.47-.45.63-1.01.48-2.4.92-3.63,1.19-.56.12-.89-.29-.89-.7,0-.29.19-.6.61-.69,1.13-.23,2.28-.6,3.18-1.01.15-.07.29-.1.42-.1ZM128.33,151.75c-1.35,0-1.86-.47-1.86-1.48v-3.82c0-1.01.51-1.48,1.86-1.48h6.41c1.35,0,1.85.47,1.85,1.48v3.82c-.03,1.23-.75,1.46-1.85,1.48h-6.41ZM128.8,144.3c-1.19,0-1.64-.4-1.64-1.24v-.88c0-.86.45-1.24,1.64-1.24h5.46c1.2,0,1.64.38,1.64,1.24v.88c-.03,1.07-.72,1.23-1.64,1.24h-5.46ZM135.08,146.49c0-.31-.07-.38-.57-.38h-5.94c-.5,0-.57.07-.57.38v.4h7.09v-.4ZM127.99,148.73h7.09v-.79h-7.09v.79ZM134.51,150.61c.5,0,.57-.07.57-.38v-.44h-7.09v.44c0,.4.23.38.57.38h5.94ZM133.94,143.17c.35,0,.44-.1.44-.32v-.47c0-.23-.09-.32-.44-.32h-4.8c-.35,0-.45.09-.45.32v.47c.01.29.2.32.45.32h4.8ZM137.28,152.82c.42.09.62.4.62.72,0,.37-.26.73-.7.73-.07,0-.13-.01-.2-.03-1.33-.28-2.72-.75-3.62-1.17-.31-.16-.44-.4-.44-.62,0-.35.31-.67.73-.67.12,0,.25.03.4.09.75.32,1.99.7,3.22.95Z"/><path class="cls-4" d="M146.8,146.35c.2.31.34.66.34,1.04,0,.34-.1.69-.34,1.04l-3.91,5.86c-.13.19-.29.32-.44.32-.41,0-.75-.28-.75-.59,0-.12.03-.25.13-.4l3.65-5.43c.21-.29.29-.57.29-.81s-.09-.51-.29-.81l-3.65-5.43c-.1-.15-.13-.28-.13-.4,0-.31.34-.59.75-.59.15,0,.31.13.44.32l3.91,5.86Z"/><path class="cls-1" d="M77.9,103.38c1.05.54,1.51,1.42,1.51,2.26,0,1.17-.92,2.3-2.26,2.3-.46,0-.96-.13-1.51-.42-5.7-3.06-11.81-7.79-16.25-13.03-4.36,5.28-10.22,10.26-16.21,13.74-.42.25-.84.34-1.21.34-1.21,0-2.18-1.05-2.18-2.22,0-.75.38-1.51,1.3-2.05,6.45-3.77,12.23-8.96,16.46-14.83.54-.75,1.34-1.05,2.09-1.05,1.21,0,2.35.8,2.35,1.97,0,.25-.04.46-.17.71,4.11,4.9,10.18,9.34,16.08,12.27ZM52.31,126.8c-4.06,0-5.61-1.47-5.61-4.48v-5.99c0-3.02,1.55-4.48,5.61-4.48h14.74c4.06,0,5.65,1.47,5.65,4.48v5.99c-.08,3.69-2.39,4.4-5.65,4.48h-14.74ZM52.64,107.45c-1.13,0-1.72-1.01-1.72-1.97s.59-1.97,1.72-1.97h13.78c1.17,0,1.72.96,1.72,1.97s-.54,1.97-1.72,1.97h-13.78ZM66.17,123.07c1.51,0,1.84-.38,1.84-1.47v-4.65c0-1.09-.34-1.42-1.84-1.42h-12.98c-1.51,0-1.8.34-1.8,1.42v4.65c0,1.3.63,1.42,1.8,1.47h12.98Z"/><path class="cls-1" d="M83.52,101.75c-1.05,0-1.59-1.01-1.59-2.01s.54-2.01,1.55-2.01h4.02v-7.29c0-1.09,1.09-1.63,2.14-1.63s2.14.54,2.14,1.63v7.29h2.89c1.05,0,1.59,1.01,1.59,2.01s-.54,2.01-1.59,2.01h-2.89v1.8c1.42,1.13,2.93,2.6,4.06,4.02.38.46.5.92.5,1.34,0,.34-.13.67-.29.92.08,0,.13-.04.21-.08,3.31-1.38,6.45-3.31,9.13-5.45-1.09-1.17-2.09-2.39-2.97-3.73-.54.67-1.05,1.26-1.55,1.8-.59.63-1.21.88-1.76.88-1.13,0-2.05-.96-2.05-2.01,0-.46.17-.96.54-1.38,2.26-2.51,4.57-6.07,5.95-9.59.34-.88,1.13-1.26,1.93-1.26,1.13,0,2.3.8,2.3,1.97,0,.25-.04.54-.17.84-.25.63-.54,1.3-.88,1.97h5.44c2.6,0,4.06,1.21,4.06,2.97,0,.75-.29,1.63-.84,2.55-1.09,1.76-2.43,3.48-3.98,5.07,2.43,1.84,5.11,3.27,7.71,4.23,1.21.46,1.72,1.34,1.72,2.18,0,1.13-.88,2.22-2.18,2.22-.29,0-.63-.08-1.01-.21-3.22-1.26-6.41-3.18-9.26-5.61-3.14,2.6-6.7,4.82-10.39,6.41-.38.17-.71.21-1.01.21-1.26,0-2.05-1.09-2.05-2.18,0-.42.13-.8.34-1.17-.25.13-.5.21-.8.21-.54,0-1.05-.21-1.47-.75-.38-.54-.8-1.09-1.26-1.59v17.88c0,1.21-1.05,1.8-2.14,1.8s-2.14-.59-2.14-1.8v-6.03l.17-9.01c-.84,2.14-1.8,4.15-2.85,5.86-.42.67-1.01.96-1.59.96-.96,0-1.93-.84-1.93-1.88,0-.38.13-.75.38-1.17,2.22-3.48,4.06-7.96,5.4-13.19h-3.56ZM104.5,127.34c-3.43,0-4.86-1.34-4.86-4.1v-6.28c0-2.76,1.42-4.1,4.86-4.1h7.62c3.43,0,4.86,1.34,4.86,4.1v6.28c-.08,3.23-1.93,4.06-4.86,4.1h-7.62ZM111.41,123.49c.84,0,1.17-.25,1.17-1.05v-4.69c0-.8-.34-1.05-1.17-1.05h-6.16c-.84,0-1.21.25-1.21,1.05v4.69c0,.84.42,1.05,1.21,1.05h6.16ZM104.88,97.44c1.01,1.55,2.14,2.93,3.39,4.23,1.09-1.09,2.01-2.22,2.72-3.31.17-.25.25-.46.25-.59,0-.25-.29-.34-.88-.34h-5.49Z"/><path class="cls-1" d="M144.84,96.22c.29.29.46.63.46,1.05,0,.25-.08.54-.25.84-.88,1.47-1.76,2.68-2.81,3.85.54.5,1.09,1.05,1.59,1.55.92-1.17,1.76-2.35,2.47-3.48.46-.71,1.09-1.01,1.72-1.01,1.05,0,2.05.8,2.05,1.8,0,.34-.13.67-.38,1.05-1.76,2.51-3.9,5.19-6.16,7.54,1.42-.13,2.85-.21,4.27-.38-.17-.29-.38-.59-.59-.88-.21-.29-.34-.59-.34-.88,0-.84.84-1.51,1.72-1.51.63,0,1.26.29,1.76.96.92,1.17,2.18,3.1,2.89,4.31.21.38.34.75.34,1.09,0,1.01-.92,1.72-1.88,1.72-.67,0-1.34-.29-1.72-1.09-.08-.21-.21-.38-.29-.59-1.21.17-2.43.34-3.64.46v3.14h15.41c1.17,0,1.72.92,1.72,1.88s-.54,1.88-1.72,1.88h-15.41v6.91c0,1.21-1.13,1.8-2.26,1.8s-2.3-.59-2.3-1.8v-6.91h-15.16c-1.13,0-1.68-.96-1.68-1.88s.54-1.88,1.68-1.88h15.16v-2.72c-1.68.13-3.27.21-4.77.25-1.34.04-2.01-.92-2.01-1.84s.59-1.76,1.8-1.76c.63,0,1.3-.04,1.97-.04,1.05-1.05,2.05-2.09,2.97-3.18-1.51-1.51-2.89-2.76-4.23-3.73-.63-.46-.88-1.05-.88-1.59,0-.96.84-1.8,1.89-1.8.42,0,.84.08,1.26.38.75-.92,1.38-1.88,2.09-3.1.08-.17.17-.29.29-.42h-14.66c-1.09,0-1.63-.92-1.63-1.84s.54-1.84,1.63-1.84h14.28v-2.39c0-1.17,1.13-1.76,2.26-1.76s2.26.59,2.26,1.76v2.39h14.7c1.09,0,1.63.92,1.63,1.84s-.54,1.84-1.63,1.84h-15.87ZM127.25,113.48c-1.13,0-1.93-.96-1.93-1.97,0-.67.38-1.38,1.26-1.76,2.3-1.01,4.98-2.43,6.95-3.81.38-.25.8-.38,1.17-.38,1.05,0,1.97.92,1.97,1.88,0,.5-.25,1.01-.8,1.42-2.14,1.63-5.24,3.31-7.71,4.4-.34.13-.63.21-.92.21ZM127.66,99.32c0-.96.96-1.88,2.09-1.88.42,0,.88.13,1.34.46,1.05.8,2.35,2.05,3.02,2.76.46.46.67,1.01.67,1.47,0,1.09-.96,2.01-2.05,2.01-.54,0-1.13-.25-1.63-.84-.67-.71-1.97-1.97-2.81-2.72-.42-.38-.63-.84-.63-1.26ZM153.59,104.85c-1.05,0-1.97-.92-1.97-1.93,0-.54.25-1.09.84-1.51,1.38-1.01,3.06-2.47,4.1-3.6.42-.5.96-.71,1.47-.71,1.05,0,2.05.88,2.05,1.88,0,.38-.13.8-.5,1.21-1.3,1.47-3.06,3.02-4.77,4.23-.38.29-.8.42-1.21.42ZM153.17,107.7c0-1.01.92-1.97,2.05-1.97.38,0,.8.08,1.17.34,1.51.92,3.52,2.39,4.98,3.69.59.5.84,1.09.84,1.63,0,1.05-.96,1.97-2.05,1.97-.5,0-1.05-.17-1.55-.63-1.13-1.01-3.06-2.51-4.65-3.64-.54-.38-.8-.88-.8-1.38Z"/><path id="_パス_5916" class="cls-5" d="M101.48,27.1l-8.01,16.2h16.03l-8.01-16.2Z"/><path id="_パス_5917" class="cls-5" d="M90.43,30.52v12.78h14.74l-14.74-12.78Z"/><path id="_パス_5918" class="cls-5" d="M112.54,30.52v12.78h-14.74l14.74-12.78Z"/><path id="_パス_5919" class="cls-5" d="M103.8,25.55c0-1.28-1.04-2.31-2.31-2.31s-2.31,1.04-2.31,2.31,1.04,2.31,2.31,2.31h0c1.28,0,2.31-1.04,2.31-2.31Z"/><circle id="_楕円形_42" class="cls-5" cx="113.29" cy="28.64" r="2.31"/><circle id="_楕円形_43" class="cls-5" cx="89.67" cy="28.64" r="2.31"/><path id="_パス_5916-2" class="cls-5" d="M251.44,27.1l-8.01,16.2h16.03l-8.01-16.2Z"/><path id="_パス_5917-2" class="cls-5" d="M240.38,30.52v12.78h14.74l-14.74-12.78Z"/><path id="_パス_5918-2" class="cls-5" d="M262.49,30.52v12.78h-14.74l14.74-12.78Z"/><path id="_パス_5919-2" class="cls-5" d="M253.75,25.55c0-1.28-1.04-2.31-2.31-2.31s-2.31,1.04-2.31,2.31,1.04,2.31,2.31,2.31h0c1.28,0,2.31-1.04,2.31-2.31Z"/><circle id="_楕円形_42-2" class="cls-5" cx="263.25" cy="28.64" r="2.31"/><circle id="_楕円形_43-2" class="cls-5" cx="239.63" cy="28.64" r="2.31"/><path class="cls-1" d="M193.77,112.89c1.09,0,2.18.8,2.18,1.97,0,.21-.04.46-.13.71-.71,2.18-1.93,4.65-3.06,6.29-.5.71-1.21,1.01-1.89,1.01-1.17,0-2.26-.8-2.26-1.93,0-.38.17-.84.46-1.3,1.05-1.55,2.05-3.39,2.85-5.45.34-.88,1.09-1.3,1.84-1.3ZM197,90.81c0-1.22,1.09-1.84,2.14-1.84s2.14.63,2.14,1.84v3.06h6.16c1.17,0,1.76.96,1.76,1.97s-.59,1.97-1.76,1.97h-16.8c-1.17,0-1.76-1.01-1.76-1.97s.59-1.97,1.76-1.97h6.37v-3.06ZM195.53,111.26c-2.81-.04-3.94-1.05-3.98-3.9v-3.6c0-2.72,1.21-3.9,4.15-3.9h6.79c2.93,0,4.15,1.17,4.15,3.9v3.6c0,2.72-1.05,3.9-3.98,3.9h-1.26v11.86c0,2.89-1.3,4.4-4.65,4.4-.84,0-1.51-.08-2.18-.21-1.09-.17-1.59-1.13-1.59-2.05,0-1.22.8-2.43,2.26-2.14.38.08.63.13,1.01.13.67,0,.88-.21.88-.92v-11.06h-1.59ZM201.36,107.82c.88,0,1.17-.29,1.17-.96v-2.51c0-.67-.29-.96-1.17-.96h-4.53c-.88,0-1.17.29-1.17.96v2.51c0,.67.29.96,1.17.96h4.53ZM208.02,117.04c.08.29.13.54.13.8,0,1.17-1.01,1.97-2.1,1.97-.75,0-1.55-.42-1.93-1.42-.42-1.05-.75-1.8-1.51-3.31-.13-.29-.21-.63-.21-.88,0-1.09,1.01-1.84,2.05-1.84.67,0,1.34.29,1.76,1.01.84,1.42,1.34,2.43,1.8,3.69ZM216.48,110.76c-1.42,7.21-4.53,12.19-8.55,15.71-.59.5-1.17.71-1.76.71-1.13,0-2.1-.92-2.1-2.01,0-.63.29-1.34,1.05-1.97,4.65-3.94,7.42-10.1,7.84-19.78h-3.69c-1.09,0-1.68-1.01-1.68-2.01s.59-2.01,1.68-2.01h3.73v-8.67c0-1.22,1.09-1.8,2.14-1.8,1.13,0,2.22.63,2.22,1.84v8.63h7.88c1.13,0,1.72,1.01,1.72,2.01s-.59,2.01-1.72,2.01h-7.96c0,.8-.04,1.59-.13,2.39.42-.29.96-.42,1.47-.42,1.09,0,2.14.54,2.14,1.72v14.83c0,.88.29,1.09,1.38,1.09,1.26,0,1.8-.34,2.01-2.26.13-1.17,1.05-1.72,2.01-1.72,1.09,0,2.18.71,2.05,2.1-.38,4.53-2.18,5.91-6.45,5.91s-5.28-1.17-5.28-4.23v-12.07ZM224.57,94.96c.21.38.29.75.29,1.13,0,1.17-1.09,2.01-2.18,2.01-.75,0-1.47-.38-1.93-1.22-.5-1.01-1.09-2.1-1.59-2.81-.29-.42-.42-.84-.42-1.17,0-1.01.96-1.76,2.01-1.76.67,0,1.34.25,1.84.88.63.8,1.34,1.8,1.97,2.93Z"/><path class="cls-1" d="M234.06,94.58h-.71c-1.09,0-1.68-.96-1.68-1.97s.59-1.93,1.68-1.93h11.1c1.13,0,1.72.96,1.72,1.93s-.59,1.97-1.68,1.97h-.08v31.93c0,.96-.96,1.47-1.93,1.47s-1.97-.5-1.97-1.47v-7.75c-2.26.75-4.61,1.3-6.87,1.68-1.51.25-2.3-.88-2.3-2.01,0-.88.5-1.76,1.55-1.93.38-.04.8-.13,1.17-.21v-21.7ZM237.88,98.98h2.64v-4.4h-2.64v4.4ZM237.88,106.82h2.64v-4.15h-2.64v4.15ZM237.88,115.53c.88-.21,1.76-.42,2.64-.63v-4.36h-2.64v4.99ZM269.39,103.38c1.13,0,1.72.92,1.72,1.89s-.59,1.89-1.72,1.89h-4.57c.13,1.89.25,3.73.42,5.61.42-.88.75-1.76,1.05-2.64.34-.96,1.09-1.38,1.84-1.38,1.01,0,2.01.75,2.01,1.84,0,.25-.04.54-.17.84-.92,2.51-2.22,5.07-3.77,7.42.67,2.98,1.17,3.44,1.55,3.44.34,0,.5-.25.71-2.68.08-1.05.92-1.55,1.76-1.55,1.01,0,2.01.67,1.89,1.84-.5,5.57-2.05,7.33-4.4,7.33-1.84,0-3.27-1.51-4.4-4.44-1.42,1.72-2.98,3.23-4.53,4.4-.5.38-1.01.54-1.47.54-1.13,0-1.97-.88-1.97-1.93,0-.63.34-1.26,1.05-1.8,2.01-1.47,3.98-3.56,5.66-5.87-.08-.54-.21-1.09-.29-1.63-.42-2.43-.71-5.53-.96-9.34h-13.99c-1.09,0-1.68-.96-1.68-1.89s.59-1.89,1.68-1.89h6.12c.54-1.26.96-2.56,1.51-4.48.29-1.01,1.09-1.42,1.93-1.42.96,0,1.97.63,1.97,1.68,0,.17-.04.34-.08.5-.42,1.34-.88,2.56-1.43,3.73h3.81c-.17-3.73-.25-8-.25-12.82,0-1.22,1.05-1.84,2.05-1.84s2.05.63,2.05,1.84c0,4.86.04,9.13.17,12.82h4.73ZM250.78,90.94c0-1.09,1.01-1.63,2.01-1.63s2.01.54,2.01,1.63v2.35h3.14c1.13,0,1.72.92,1.72,1.84s-.59,1.84-1.72,1.84h-10.27c-1.09,0-1.68-.92-1.68-1.84s.59-1.84,1.68-1.84h3.1v-2.35ZM250.87,123.03c-3.02,0-4.02-1.26-4.02-3.73v-6.7c0-2.51,1.01-3.77,4.02-3.77h3.94c3.02,0,4.02,1.26,4.02,3.77v6.7c-.04,2.81-1.34,3.69-4.02,3.73h-3.94ZM252.04,100.7c.08.21.08.42.08.63,0,1.05-.92,1.72-1.89,1.72-.71,0-1.42-.38-1.72-1.3-.17-.63-.38-1.22-.67-1.97-.08-.25-.13-.5-.13-.71,0-.96.88-1.59,1.8-1.59.63,0,1.26.29,1.63.96.34.63.63,1.47.88,2.26ZM255.27,113.23c0-.67-.21-.88-.8-.88h-3.27c-.59,0-.8.21-.8.88v1.09h4.86v-1.09ZM254.47,119.51c.59,0,.8-.25.8-.92v-1.09h-4.86v1.09c0,.59.21.92.8.92h3.27ZM270.64,97.52c.17.38.25.75.25,1.05,0,1.26-1.05,2.01-2.1,2.01-.71,0-1.42-.38-1.76-1.26-.38-.88-.88-1.89-1.51-2.98-.21-.34-.29-.67-.29-.96,0-1.05.96-1.8,1.97-1.8.67,0,1.42.34,1.93,1.13.54.84,1.13,1.93,1.51,2.81Z"/><path class="cls-1" d="M295.99,96.17c.29.29.46.63.46,1.05,0,.25-.08.54-.25.84-.88,1.47-1.76,2.68-2.81,3.86.54.5,1.09,1.05,1.59,1.55.92-1.17,1.76-2.35,2.47-3.48.46-.71,1.09-1.01,1.72-1.01,1.05,0,2.05.8,2.05,1.8,0,.34-.13.67-.38,1.05-1.76,2.51-3.9,5.2-6.16,7.54,1.42-.13,2.85-.21,4.27-.38-.17-.29-.38-.59-.59-.88-.21-.29-.34-.59-.34-.88,0-.84.84-1.51,1.72-1.51.63,0,1.26.29,1.76.96.92,1.17,2.18,3.1,2.89,4.32.21.38.34.75.34,1.09,0,1.01-.92,1.72-1.89,1.72-.67,0-1.34-.29-1.72-1.09-.08-.21-.21-.38-.29-.59-1.21.17-2.43.34-3.65.46v3.14h15.42c1.17,0,1.72.92,1.72,1.89s-.54,1.89-1.72,1.89h-15.42v6.91c0,1.22-1.13,1.8-2.26,1.8s-2.3-.59-2.3-1.8v-6.91h-15.17c-1.13,0-1.68-.96-1.68-1.89s.54-1.89,1.68-1.89h15.17v-2.72c-1.68.13-3.27.21-4.78.25-1.34.04-2.01-.92-2.01-1.84s.59-1.76,1.8-1.76c.63,0,1.3-.04,1.97-.04,1.05-1.05,2.05-2.1,2.97-3.18-1.51-1.51-2.89-2.77-4.23-3.73-.63-.46-.88-1.05-.88-1.59,0-.96.84-1.8,1.89-1.8.42,0,.84.08,1.26.38.75-.92,1.38-1.89,2.1-3.1.08-.17.17-.29.29-.42h-14.67c-1.09,0-1.63-.92-1.63-1.84s.54-1.84,1.63-1.84h14.29v-2.39c0-1.17,1.13-1.76,2.26-1.76s2.26.59,2.26,1.76v2.39h14.71c1.09,0,1.63.92,1.63,1.84s-.54,1.84-1.63,1.84h-15.88ZM278.39,113.44c-1.13,0-1.93-.96-1.93-1.97,0-.67.38-1.38,1.26-1.76,2.3-1.01,4.99-2.43,6.96-3.81.38-.25.8-.38,1.17-.38,1.05,0,1.97.92,1.97,1.89,0,.5-.25,1.01-.8,1.42-2.14,1.63-5.24,3.31-7.71,4.4-.34.13-.63.21-.92.21ZM278.81,99.28c0-.96.96-1.89,2.1-1.89.42,0,.88.13,1.34.46,1.05.8,2.35,2.05,3.02,2.77.46.46.67,1.01.67,1.47,0,1.09-.96,2.01-2.05,2.01-.54,0-1.13-.25-1.63-.84-.67-.71-1.97-1.97-2.81-2.72-.42-.38-.63-.84-.63-1.26ZM304.74,104.81c-1.05,0-1.97-.92-1.97-1.93,0-.54.25-1.09.84-1.51,1.38-1.01,3.06-2.47,4.11-3.6.42-.5.96-.71,1.47-.71,1.05,0,2.05.88,2.05,1.89,0,.38-.13.8-.5,1.22-1.3,1.47-3.06,3.02-4.78,4.23-.38.29-.8.42-1.22.42ZM304.33,107.66c0-1.01.92-1.97,2.05-1.97.38,0,.8.08,1.17.34,1.51.92,3.52,2.39,4.99,3.69.59.5.84,1.09.84,1.63,0,1.05-.96,1.97-2.05,1.97-.5,0-1.05-.17-1.55-.63-1.13-1.01-3.06-2.51-4.65-3.65-.54-.38-.8-.88-.8-1.38Z"/><path class="cls-4" d="M389.16,25.39v107.69c0,5.02-4.02,9.04-8.88,9.04s-9.04-4.02-9.04-9.04V40.46l-7.37,6.03c-3.68,3.35-9.38,3.01-12.73-.67-3.35-3.68-3.01-9.38.67-12.73l12.9-11.05c4.19-3.68,8.37-6.87,14.07-6.87,5.02-.17,10.22,4.19,10.38,10.22Z"/><path class="cls-4" d="M475.2,17.18c4.52,0,9.04,1.84,12.22,5.02l10.22,10.22c3.18,3.18,5.02,7.7,5.02,12.23v67.32c0,4.52-1.84,8.88-5.02,12.06l-10.22,10.22c-3.18,3.18-7.7,5.02-12.22,5.02h-28.47c-4.52,0-8.88-1.84-12.06-5.02l-10.22-10.22c-3.18-3.18-5.02-7.54-5.02-12.06V44.65c0-4.52,1.84-9.04,5.02-12.23l10.22-10.22c3.18-3.18,7.54-5.02,12.06-5.02h28.47ZM484.58,48.5c0-2.18-.84-4.52-2.51-6.03-1.51-1.51-3.18-3.18-4.69-4.69-1.51-1.68-3.68-2.51-6.03-2.51h-20.6c-2.35,0-4.52.84-6.03,2.51-1.51,1.51-3.18,3.18-4.69,4.69-1.68,1.51-2.51,3.85-2.51,6.03v59.45c0,2.35.84,4.52,2.51,6.2,1.51,1.51,3.18,3.01,4.69,4.52,1.51,1.68,3.68,2.68,6.03,2.68h20.6c2.35,0,4.52-1,6.03-2.68,1.51-1.51,3.18-3.01,4.69-4.52,1.68-1.68,2.51-3.85,2.51-6.2v-59.45Z"/><path class="cls-4" d="M582.89,17.18c4.52,0,9.04,1.84,12.22,5.02l10.22,10.22c3.18,3.18,5.02,7.7,5.02,12.23v67.32c0,4.52-1.84,8.88-5.02,12.06l-10.22,10.22c-3.18,3.18-7.7,5.02-12.22,5.02h-28.47c-4.52,0-8.88-1.84-12.06-5.02l-10.22-10.22c-3.18-3.18-5.02-7.54-5.02-12.06V44.65c0-4.52,1.84-9.04,5.02-12.23l10.22-10.22c3.18-3.18,7.54-5.02,12.06-5.02h28.47ZM592.27,48.5c0-2.18-.84-4.52-2.51-6.03-1.51-1.51-3.18-3.18-4.69-4.69-1.51-1.68-3.68-2.51-6.03-2.51h-20.6c-2.35,0-4.52.84-6.03,2.51-1.51,1.51-3.18,3.18-4.69,4.69-1.68,1.51-2.51,3.85-2.51,6.03v59.45c0,2.35.84,4.52,2.51,6.2,1.51,1.51,3.18,3.01,4.69,4.52,1.51,1.68,3.68,2.68,6.03,2.68h20.6c2.35,0,4.52-1,6.03-2.68,1.51-1.51,3.18-3.01,4.69-4.52,1.68-1.68,2.51-3.85,2.51-6.2v-59.45Z"/><path class="cls-4" d="M667.24,85c-2.11,3.63-5.86,5.86-9.97,5.86h-11.26c-4.11,0-7.86-2.23-9.97-5.86l-5.51-9.62c-2.11-3.64-2.11-7.97,0-11.49l5.51-9.73c2.11-3.64,5.86-5.75,9.97-5.75h11.26c4.1,0,7.86,2.11,9.97,5.75l5.63,9.73c1.99,3.52,1.99,7.86,0,11.49l-5.63,9.62ZM661.49,71.75c.7-1.29.7-2.93,0-4.34-1.06-1.64-2.11-3.52-3.05-5.28-.82-1.29-2.23-2.11-3.75-2.11h-6.1c-1.52,0-2.93.82-3.75,2.11-.94,1.76-1.99,3.63-3.05,5.28-.7,1.41-.7,3.05,0,4.34,1.05,1.76,2.11,3.52,3.05,5.28.82,1.29,2.23,2.11,3.75,2.11h6.1c1.52,0,2.93-.82,3.75-2.11.94-1.76,1.99-3.52,3.05-5.28ZM706.17,55.69l-46.32,80.21c-1.88,3.17-5.86,4.34-9.15,2.46-3.17-1.88-4.22-5.86-2.35-9.15l46.32-80.21c1.76-3.17,5.86-4.22,9.03-2.46,3.17,1.88,4.22,5.86,2.46,9.15ZM719.3,128.97c-1.99,3.64-5.86,5.75-9.97,5.75h-11.14c-4.1,0-7.97-2.11-9.97-5.75l-5.63-9.61c-2.11-3.64-2.11-7.97,0-11.49l5.63-9.73c1.99-3.63,5.86-5.75,9.97-5.75h11.14c4.1,0,7.97,2.11,9.97,5.75l5.63,9.73c2.11,3.52,2.11,7.86,0,11.49l-5.63,9.61ZM713.56,115.72c.82-1.29.82-2.93,0-4.34-.94-1.64-1.99-3.52-3.05-5.28-.7-1.29-2.23-2.11-3.75-2.11h-5.98c-1.64,0-3.05.82-3.75,2.11-1.06,1.76-2.11,3.63-3.05,5.28-.82,1.41-.82,3.05,0,4.34.94,1.76,1.99,3.52,3.05,5.28.7,1.29,2.11,2.11,3.75,2.11h5.98c1.52,0,3.05-.82,3.75-2.11,1.06-1.76,2.11-3.52,3.05-5.28Z"/><path class="cls-1" d="M358.77,158.45c-1.99,0-3.9,1.11-4.83,3.02-1.29,2.66-.18,5.87,2.49,7.16l22.83,11.07c1.48.72,3.2.72,4.68,0l20.5-9.94,20.49,9.93c1.48.72,3.2.72,4.68,0l20.49-9.93,20.49,9.93c1.48.72,3.2.72,4.68,0l20.49-9.93,20.49,9.93c1.48.72,3.2.72,4.68,0l20.49-9.93,20.49,9.93c1.48.72,3.2.72,4.68,0l20.49-9.93,20.49,9.93c1.48.72,3.2.72,4.68,0l20.48-9.93,20.49,9.93c1.48.72,3.2.72,4.68,0l20.49-9.93,20.49,9.93c1.48.72,3.2.72,4.68,0l22.83-11.07c2.66-1.29,3.78-4.5,2.48-7.16-1.29-2.66-4.5-3.78-7.16-2.48l-20.49,9.93-20.49-9.93c-1.48-.72-3.2-.72-4.68,0l-20.49,9.93-20.49-9.93c-1.48-.72-3.2-.72-4.68,0l-20.48,9.93-20.49-9.93c-1.48-.72-3.2-.72-4.68,0l-20.49,9.93-20.49-9.93c-1.48-.72-3.2-.72-4.68,0l-20.49,9.93-20.49-9.93c-1.48-.72-3.2-.72-4.68,0l-20.49,9.93-20.49-9.93c-1.48-.72-3.2-.72-4.68,0l-20.49,9.93-20.49-9.93c-1.48-.72-3.2-.72-4.68,0l-20.5,9.94-20.5-9.94c-.75-.37-1.55-.54-2.33-.54Z"/><rect class="cls-2" x=".46" y="0" width="738.26" height="206.98"/></g></svg>