<?xml version="1.0" encoding="UTF-8"?><svg id="_レイヤー_2" xmlns="http://www.w3.org/2000/svg" xmlns:xlink="http://www.w3.org/1999/xlink" viewBox="0 0 1114 332.59"><defs><style>.cls-1{fill:url(#_名称未設定グラデーション_92-2);}.cls-1,.cls-2,.cls-3,.cls-4,.cls-5,.cls-6,.cls-7,.cls-8,.cls-9,.cls-10{stroke-width:0px;}.cls-2{fill:#bde4f9;}.cls-3{fill:url(#_名称未設定グラデーション_92);}.cls-4{fill:#000;}.cls-11{stroke-width:1.5px;}.cls-11,.cls-12,.cls-13,.cls-14,.cls-15,.cls-16{fill:none;}.cls-11,.cls-13,.cls-14,.cls-17{stroke-linecap:round;}.cls-11,.cls-16{stroke:#000;}.cls-12{stroke-width:1.48px;}.cls-12,.cls-13,.cls-17{stroke:#231815;}.cls-12,.cls-15{stroke-miterlimit:10;}.cls-13,.cls-14,.cls-17{stroke-linejoin:round;}.cls-13,.cls-17{stroke-width:1.39px;}.cls-5{fill:#0db7d6;}.cls-14{stroke:url(#_名称未設定グラデーション_92-3);stroke-width:14px;}.cls-6{fill:#231815;}.cls-7{fill:#fff462;}.cls-8{fill:#58b7e9;}.cls-9,.cls-17{fill:#fff67f;}.cls-15{stroke:#0db7d6;stroke-width:2px;}.cls-10{fill:#fff;}.cls-16{stroke-width:9px;}</style><linearGradient id="_名称未設定グラデーション_92" x1="276.69" y1="162.37" x2="544.61" y2="162.37" gradientUnits="userSpaceOnUse"><stop offset=".13" stop-color="#a574af"/><stop offset="1" stop-color="#0db7d6"/></linearGradient><linearGradient id="_名称未設定グラデーション_92-2" x1="52.21" y1="155.27" x2="241.43" y2="155.27" xlink:href="#_名称未設定グラデーション_92"/><linearGradient id="_名称未設定グラデーション_92-3" x1="0" y1="318.59" x2="1114" y2="318.59" xlink:href="#_名称未設定グラデーション_92"/></defs><g id="_レイヤー_1-2"><g id="gengaku_pc"><g id="_グループ_131"><line id="_線_178" class="cls-15" x1="1020" y1="107.99" x2="1028.31" y2="128.47"/><line id="_線_179" class="cls-15" x1="1090.56" y1="180.09" x2="1070.54" y2="171.6"/><line id="_線_180" class="cls-15" x1="1090.56" y1="137.86" x2="1070.54" y2="146.34"/><line id="_線_181" class="cls-15" x1="1061.33" y1="107.99" x2="1053.04" y2="128.47"/><line id="_線_182" class="cls-15" x1="1040.66" y1="110.06" x2="1040.66" y2="127.06"/><line id="_線_183" class="cls-15" x1="1088.62" y1="158.88" x2="1072.01" y2="158.88"/><line id="_線_184" class="cls-15" x1="1074.54" y1="124.31" x2="1062.78" y2="136.33"/></g><g id="_グループ_131-2"><line id="_線_178-2" class="cls-15" x1="4.54" y1="90.78" x2="33.71" y2="83.02"/><line id="_線_179-2" class="cls-15" x1="114.28" y1="7.48" x2="99.36" y2="33.17"/><line id="_線_180-2" class="cls-15" x1="57.05" y1=".27" x2="65.14" y2="28.85"/><line id="_線_181-2" class="cls-15" x1="11.6" y1="34.78" x2="37.94" y2="49.5"/><line id="_線_182-2" class="cls-15" x1="10.87" y1="63.13" x2="33.91" y2="66.04"/><line id="_線_183-2" class="cls-15" x1="85.21" y1="6.48" x2="82.37" y2="29"/><line id="_線_184-2" class="cls-15" x1="35.97" y1="19.66" x2="50.24" y2="37.65"/></g><path id="_パス_5717" class="cls-7" d="M294.66,31.28c-10.04-1.11-14.8.05-23.24,5.58,1.1-10.02-.05-14.8-5.59-23.22,10.02,1.1,14.8-.05,23.22-5.59-1.1,10.02.05,14.8,5.61,23.23Z"/><path id="_パス_5718" class="cls-7" d="M241.43,42.11c-3.65-.69-7.41.21-10.36,2.47.69-3.64-.21-7.41-2.49-10.34,3.64.69,7.41-.21,10.34-2.49-.69,3.65.23,7.42,2.51,10.35Z"/><path id="_パス_5719" class="cls-7" d="M266.93,91.93c-10.09-1.12-14.91.04-23.4,5.61,1.12-10.09-.04-14.91-5.63-23.38,10.09,1.12,14.91-.04,23.38-5.63-1.1,10.1.04,14.91,5.65,23.39Z"/><path id="_パス_5719-2" class="cls-7" d="M1092.8,268.4c-9.19,4.32-12.69,7.82-17.03,17.01-4.32-9.19-7.82-12.69-17.01-17.01,9.19-4.32,12.69-7.82,17.01-17.01,4.34,9.19,7.82,12.69,17.03,17.01Z"/><path id="_パス_5728" class="cls-8" d="M1058.86,6.94c0,2.23-1.81,4.04-4.04,4.04s-4.04-1.81-4.04-4.04,1.81-4.04,4.04-4.04h0c2.23,0,4.04,1.81,4.04,4.04Z"/><path id="_パス_5729" class="cls-2" d="M1036.73,12.76c1.58,1.58,1.57,4.13,0,5.71-1.58,1.58-4.13,1.57-5.71,0-1.57-1.58-1.57-4.13,0-5.7,1.57-1.58,4.13-1.58,5.7,0,0,0,0,0,0,0Z"/><path id="_パス_5730" class="cls-8" d="M1025.19,32.52c2.23,0,4.04,1.81,4.04,4.04,0,2.23-1.81,4.04-4.04,4.04-2.23,0-4.04-1.81-4.04-4.04h0c0-2.23,1.81-4.04,4.04-4.04Z"/><path id="_パス_5731" class="cls-2" d="M1031.02,54.63c1.58-1.58,4.13-1.57,5.71,0,1.58,1.58,1.57,4.13,0,5.71-1.58,1.57-4.13,1.57-5.7,0-1.58-1.57-1.58-4.13,0-5.7,0,0,0,0,0,0Z"/><path id="_パス_5732" class="cls-8" d="M1050.76,66.16c0-2.23,1.81-4.04,4.04-4.04,2.23,0,4.04,1.81,4.04,4.04s-1.81,4.04-4.04,4.04c-2.23,0-4.04-1.81-4.04-4.04Z"/><path id="_パス_5733" class="cls-2" d="M1072.89,60.36c-1.58-1.58-1.57-4.13,0-5.71,1.58-1.58,4.13-1.57,5.71,0,1.57,1.58,1.57,4.13,0,5.7-1.57,1.58-4.13,1.58-5.7,0,0,0,0,0,0,0Z"/><path id="_パス_5734" class="cls-8" d="M1084.42,40.6c-2.23,0-4.04-1.81-4.04-4.04,0-2.23,1.81-4.04,4.04-4.04,2.23,0,4.04,1.81,4.04,4.04h0c0,2.23-1.81,4.04-4.04,4.04Z"/><path id="_パス_5735" class="cls-2" d="M1078.6,18.47c-1.58,1.58-4.13,1.57-5.71,0-1.58-1.58-1.57-4.13,0-5.71,1.58-1.57,4.13-1.57,5.7,0,1.58,1.57,1.58,4.13,0,5.7,0,0,0,0,0,0Z"/></g><path class="cls-4" d="M659.38,174.9h-49.55c-.42.64-1.38,1.17-2.65,1.27-.32,5.2-.64,10.5-1.06,15.91h32.78l3.08-.11,7.74.85c0,1.06-.21,2.86-.42,4.14-1.49,34.06-3.5,47.21-7.85,52.09-3.61,4.35-7.85,5.73-19.95,5.73-3.29,0-6.9-.11-10.5-.21-.32-3.82-2.12-9.34-4.67-12.94,7.75.64,15.17.64,18.78.64,1.91,0,3.18-.32,4.35-1.38,2.86-2.65,4.56-13.37,5.73-36.18h-30.77c-3.29,19.42-11.25,38.3-32.89,50.5-1.91-3.61-5.73-8.06-9.23-10.72,29.49-15.17,30.45-43.71,31.19-69.6h-28.54v-12.73h94.42v12.73Z"/><path class="cls-4" d="M769.41,161.63v78.4c0,13.37-6.47,14.85-26.21,14.85-.64-3.5-2.76-9.44-4.67-12.73,4.14.32,8.59.32,11.78.32,5.62,0,6.26,0,6.26-2.65v-25.89h-64.72v40.95h-12.84v-93.26h90.39ZM691.85,174.26v27.05h25.25v-27.05h-25.25ZM729.83,201.31h26.74v-27.05h-26.74v27.05Z"/><path class="cls-5" d="M794.27,184.23c6.05,2.33,13.79,6.37,17.72,9.76l-7.53,10.29c-3.5-3.4-11.14-7.96-17.19-10.61l7-9.44ZM788.75,247.15c4.24-8.59,10.19-22.6,14.54-35.54l10.4,6.9c-3.82,11.67-8.49,23.87-12.31,32.25.74.85,1.06,1.59,1.06,2.33,0,.53-.21,1.06-.42,1.49l-13.26-7.43ZM799.36,155.48c6.05,2.55,14,6.79,17.82,10.29l-7.64,10.19c-3.5-3.5-11.14-8.28-17.29-11.14l7.11-9.34ZM867.26,184.02c.21,9.55.74,18.04,1.38,25.36,2.33-5.2,4.35-10.93,5.83-16.87l13.26,3.4c-.32.85-1.27,1.38-2.76,1.38-3.4,11.46-7.96,21.64-13.9,30.56,1.8,9.76,4.03,14.96,6.15,14.96,1.59,0,2.65-4.03,3.08-15.91,2.23,2.55,5.73,5.3,8.49,6.37-1.38,18.57-4.77,21.64-12.84,21.75-6.15,0-10.61-5.62-13.79-15.91-5.52,5.94-11.88,11.03-19.1,15.07-1.7-2.33-5.62-6.26-7.96-8.17,6.15-3.08,11.78-7.11,16.66-11.88h-12.84v4.24h-7.85v-33.63h23.23v26.74c1.7-1.8,3.4-3.82,4.88-5.83-1.8-11.14-2.86-25.25-3.5-41.59h-26.84v18.25c0,15.81-1.38,38.3-10.29,53.05-2.12-1.8-7.21-4.35-10.19-5.41,8.49-13.58,9.34-33.42,9.34-47.64v-29.81h37.66c-.21-5.62-.21-11.46-.32-17.51l15.07.85c-.11,1.06-.96,1.59-2.97,2.02-.11,5.09-.11,9.97-.11,14.64h11.78c-2.33-3.4-7.21-7.96-11.46-11.14l7.43-5.84c4.56,3.08,9.87,7.53,12.41,10.93l-7.53,6.05h7.64v11.56h-20.05ZM854,189.75v9.34h-22.7v-9.34h22.7ZM846.47,224.76v-10.82h-7.53v10.82h7.53Z"/><path class="cls-5" d="M946.09,224.12v21.64c7-2.97,14.53-7.74,18.35-11.78l10.72,6.68c-.32.32-.96.64-1.91.74-4.24,4.46-13.47,10.29-21.22,13.37-1.49-1.7-3.82-4.03-5.94-6.05h-23.77v4.46h-10.72v-28.11l-2.23.95c-1.27-2.65-4.24-6.9-6.47-9.12,7-2.44,13.69-6.26,19.42-11.03-2.44-1.8-4.88-3.5-7.21-5.09-1.49,1.27-2.97,2.44-4.46,3.4-1.8-2.02-5.2-5.41-7.43-7.11,7.96-4.77,15.49-13.37,19.31-22.49l11.99,3.71c-.32.85-1.17,1.17-2.55,1.17-.42.95-.96,1.8-1.49,2.76h10.29l1.91-.42c2.76,1.27,5.09,2.23,7.43,3.29-.32.74-.85,1.06-1.38,1.48-2.33,6.58-5.83,12.52-10.08,17.82,5.73,3.93,11.03,7.74,14.64,10.72l-7.21,9.02ZM915.74,174.15v7.53h-10.19v-17.61h17.08v-9.12l14.64.74c-.11,1.06-.85,1.7-2.76,1.91v6.47h17.61v17.61h-10.72v-7.53h-25.67ZM940.57,219.45c-2.76-2.23-5.94-4.67-9.34-7.21-2.97,2.65-6.05,5.09-9.34,7.21h18.67ZM935.16,239.08v-9.87h-12.84v9.87h12.84ZM929.85,198.45c2.02-2.44,3.82-5.09,5.3-7.75h-10.29c-.74.96-1.59,1.91-2.44,2.86l7.43,4.88ZM1000.41,177.55v56.44h-44.67v-56.44h13.37c.53-2.44,1.06-5.09,1.49-7.53h-18.25v-10.93h51.99v10.93h-21.01c-.64,2.33-1.38,4.99-2.23,7.53h19.31ZM988.42,193.57v-6.58h-21.22v6.58h21.22ZM988.42,209.06v-6.68h-21.22v6.68h21.22ZM988.42,224.55v-6.68h-21.22v6.68h21.22ZM996.27,255.21c-3.5-3.93-11.03-10.29-16.76-14.53l9.34-5.84c5.73,3.93,13.47,9.87,17.4,13.9l-9.97,6.47Z"/><path class="cls-5" d="M1021.5,242.35c0-6.38,4.37-10.86,10.39-10.86s10.39,4.49,10.39,10.86-4.01,10.75-10.39,10.75-10.39-4.72-10.39-10.75ZM1038.74,223.1h-13.7l-2.36-62.11h18.42l-2.36,62.11Z"/><path class="cls-3" d="M373.78,56.37l-56.53,149.02h35.64v-57.76h35.33v57.76h17.21v31.03h-17.21v31.95h-35.33v-31.95h-76.2v-25.19l60.22-154.85h36.87Z"/><path class="cls-3" d="M486.85,271.13c-30.73,0-57.76-19.97-57.76-65.14v-87.26c0-45.17,27.04-65.14,57.76-65.14s57.76,19.97,57.76,65.14v87.26c0,45.17-27.04,65.14-57.76,65.14ZM464.42,204.15c0,23.97,6.76,36.26,22.43,36.26s22.43-12.29,22.43-36.26v-83.57c0-23.97-6.76-36.26-22.43-36.26s-22.43,12.29-22.43,36.26v83.57Z"/><path class="cls-16" d="M359.83,42.37l-56.53,149.02h35.64v-57.76h35.33v57.76h17.21v31.03h-17.21v31.95h-35.33v-31.95h-76.2v-25.19l60.22-154.85h36.87Z"/><path class="cls-16" d="M472.8,257.13c-30.73,0-57.76-19.97-57.76-65.14v-87.26c0-45.17,27.04-65.14,57.76-65.14s57.76,19.97,57.76,65.14v87.26c0,45.17-27.04,65.14-57.76,65.14ZM450.37,190.15c0,23.97,6.76,36.26,22.43,36.26s22.43-12.29,22.43-36.26v-83.57c0-23.97-6.76-36.26-22.43-36.26s-22.43,12.29-22.43,36.26v83.57Z"/><path class="cls-9" d="M359.83,42.37l-56.53,149.02h35.64v-57.76h35.33v57.76h17.21v31.03h-17.21v31.95h-35.33v-31.95h-76.2v-25.19l60.22-154.85h36.87Z"/><path class="cls-9" d="M472.8,257.13c-30.73,0-57.76-19.97-57.76-65.14v-87.26c0-45.17,27.04-65.14,57.76-65.14s57.76,19.97,57.76,65.14v87.26c0,45.17-27.04,65.14-57.76,65.14ZM450.37,190.15c0,23.97,6.76,36.26,22.43,36.26s22.43-12.29,22.43-36.26v-83.57c0-23.97-6.76-36.26-22.43-36.26s-22.43,12.29-22.43,36.26v83.57Z"/><path class="cls-4" d="M649.67,80.41c-5.82-1.21-9.97-4.04-12.06-7.54-2.06,4.24-6.67,6.69-11.44,7.6-.4-.96-.68-1.38-1.47-2.2,5.06-.73,8.98-2.74,10.73-5.79h-9.86v-1.89h10.65c.31-1.07.31-1.67.37-2.49h-11.78v-1.95h11.81v-2.43h-8.22v-1.84h8.22v-2.23h-11.02v-1.92h7.12c-.88-1.44-1.67-2.23-2.15-2.74l2.12-1.02c1.44,1.44,2.17,2.66,2.49,3.14-.88.25-1.16.4-1.61.62h6.61c.11-.17,1.1-1.75,1.92-3.78l2.34.9c.14.06.42.17.42.37,0,.34-.4.31-.79.28-.2.37-.62,1.24-1.27,2.23h7.17v1.92h-11.1v2.23h8.08v1.84h-8.08v2.43h11.81v1.95h-11.61c.37.06.62.14.62.4,0,.4-.56.48-.96.54-.08.62-.14.99-.31,1.55h11.5v1.89h-10.42c3.53,4.43,9.77,5.45,11.52,5.73-.28.31-1.07,1.1-1.36,2.2Z"/><path class="cls-4" d="M681.33,80.27h-2.26v-1.38h-11.86v1.38h-2.29v-8.44c-.54.34-2.43,1.44-3.73,1.98-.48-.88-.79-1.21-1.64-1.78,7.43-3.08,11.18-7.54,12.79-10.59l2.06.42c.23.06.62.11.62.45,0,.28-.51.4-.82.45,2.2,2.97,7.82,7.15,12.4,8.7-.62.48-1.27,1.27-1.67,1.98-.62-.25-1.69-.71-3.62-1.95v8.78ZM685.34,57.17v5.31h-2.32v-3.28h-19.77v3.28h-2.32v-5.31h10.99v-2.91l2.43.08c.31,0,.73.03.73.34,0,.34-.4.42-.76.51v1.98h11.02ZM669.5,60.87c.28.14.54.25.54.56s-.4.31-.82.31c-1.36,1.75-2.68,3.45-5.62,5.34-.73-.96-1.36-1.36-1.69-1.55,3.45-1.86,5.11-4.35,5.93-5.56l1.67.9ZM679.07,76.88v-4.58h-11.86v4.58h11.86ZM679.41,70.25c-3.05-2.06-5.28-4.26-6.38-5.62-2.23,2.97-5.34,5.28-5.76,5.62h12.15ZM677.77,59.91c1.24,1.38,3.05,3.42,6.95,5.45-1.21.71-1.64,1.33-1.86,1.67-1.58-1.02-4.04-2.6-6.86-5.79l1.78-1.33Z"/><path class="cls-4" d="M704.29,78.97v-1.78h-5.59v2.8h-2.29v-22.51h2.43c.71-1.47.96-2.23,1.24-3.22l2.49.23c.31.03.48.11.48.28,0,.25-.25.31-.76.42-.59,1.33-.82,1.78-1.1,2.29h4.86v8.39h-7.34v2.63h7.8v10.48h-2.2ZM703.89,59.34h-5.2v4.66h5.2v-4.66ZM704.29,70.44h-5.59v4.8h5.59v-4.8ZM714.88,57.57v3.9h5.31v11.98c0,2.34-.71,2.63-3.59,2.85-.23-1.27-.37-1.61-.88-2.49.25.03.79.08,1.24.08.73,0,1.1-.11,1.1-.9v-9.52h-3.19v16.89h-2.03v-16.89h-2.68v13.02h-2.12v-15.03h4.8v-3.9h-5.85v-2.03h14.26v2.03h-6.38Z"/><path class="cls-4" d="M735.43,78.44l-2.23.68c-.68-1.89-1.67-4.86-1.67-10.22,0-4.94.68-8.3,1.78-13.67l2.54.96c.45.17.59.28.59.42,0,.31-.34.34-.65.4-1.3,4.01-1.92,8.19-1.92,12.4,0,2.17.17,3.25.34,4.35.4-1.27,1.27-3.53,1.81-4.55.37.56.68.96,1.38,1.44-.56,1.21-2.12,4.69-1.98,7.8ZM754.35,76.49c-1.89.31-4.6.42-6.55.42-3.5,0-7.94-.34-7.94-3.98,0-1.75.71-3.3,1.16-4.21l2.2.45c-.37.62-1.07,1.84-1.07,3.19,0,1.81,2.06,2.26,5.48,2.26,2.68,0,4.86-.28,6.89-.79-.14,1.02-.17,1.61-.17,2.65ZM743.76,61.01c-1.3,0-2.15-.06-2.82-.08v-2.37c.73.08,1.53.14,2.85.14,2.12,0,5.73-.08,8.92-.9.03.23.23,1.69.31,2.43-4.01.79-8.39.79-9.26.79Z"/><path class="cls-4" d="M773.84,61.55c-2.23,6.55-4.97,11.61-6.58,13.84-.73-.37-1.13-.54-2.29-1.02,3.3-4.72,5.51-10.17,6.24-12.51-2.2.17-3.39.25-5.34.2l-.31-2.49c.76.08,1.53.17,2.94.17,1.19,0,2.29-.06,3.42-.2.71-2.46.96-3.9,1.19-5.11l2.57.71c.31.08.45.17.45.37,0,.31-.37.34-.59.37-.45,1.53-.59,2.01-.99,3.3,2.46-.45,3.53-.82,4.66-1.21-.06.76-.06,1.64.06,2.46-1.72.48-3.02.76-5.42,1.13ZM787,78.52c-3.14-2.49-3.9-2.88-4.77-3.33.03,4.32-4.15,4.32-5.11,4.32-3.16,0-5.71-1.5-5.71-4.12,0-1.92,1.44-3.9,5.08-3.9,1.41,0,2.43.28,3.13.48-.14-.85-.34-2.03-.34-3.11,0-1.84,1.27-3.45,1.98-3.93l1.98,1.33c-1.52,1.27-1.52,2.46-1.52,3.05,0,1.41.25,2.57.42,3.42,2.57,1.19,4.72,2.63,6.33,3.93-.54.62-.9,1.13-1.47,1.86ZM776.55,73.38c-1.5,0-2.91.62-2.91,2.01,0,2.15,3.16,2.15,3.3,2.15,3.16,0,3.05-2.03,2.99-3.33-1.55-.76-2.82-.82-3.39-.82ZM787.76,65.39c-.99-.85-2.74-2.29-7.29-3.67l1.36-2.01c4.32,1.38,5.96,2.51,7.29,3.59-.45.68-.99,1.47-1.36,2.09Z"/><path class="cls-4" d="M805.08,72.59l-2.17.25c-1.69-4.6-1.69-8.28-1.69-9.43,0-2.51.34-4.63.88-7.34.11-.62.14-.73.2-1.1l2.32.56c.4.08.71.17.71.48,0,.25-.23.34-.59.45-.28.93-1.13,3.84-1.13,7.48,0,2.15.23,3.25.42,4.18,1.3-3.25,2.01-4.32,2.37-4.86.59.62,1.1.99,1.72,1.36-1.27,1.86-2.74,4.74-3.02,7.96ZM818.1,55.59c.03.82.28,4.43.31,5.17.06,1.02.14,2.37.14,3.9,0,4.49-.59,11.38-9.24,15.73-.76-.93-.9-1.1-1.89-1.86,8.3-3.42,8.59-10.82,8.59-13.92s-.2-7.06-.99-9.97l2.88.14c.34.03.73.06.73.37,0,.34-.34.42-.54.45Z"/><path class="cls-4" d="M839.82,62.34c-2.54,9.32-6.24,15.2-7.6,17.37-.68-.42-1.78-.93-2.4-1.24,2.99-3.73,6.13-10.73,7.4-15.79-2.29.23-3.53.28-6.24.31l-.2-2.57c.65.03,1.33.08,2.34.08,1.86,0,3.59-.11,4.66-.2.59-2.65.73-4.35.85-5.79l2.74.71c.42.11.56.25.56.4,0,.31-.42.4-.56.4-.17.62-.79,3.42-.93,3.98,2.91-.4,4.49-.9,6.13-1.55l.45,2.4c-2.77.88-6.07,1.36-7.2,1.5ZM848.26,79.12c-1.78,0-7.94,0-7.94-4.24,0-1.3.48-2.37,1.55-3.93l2.09.9c-1.16,1.21-1.38,2.54-1.38,2.85,0,1.81,2.88,2.15,5.62,2.15.54,0,3.08,0,6.02-.9-.03.34-.06.68-.06,1.19,0,.76.06,1.02.14,1.44-2.88.54-5.45.54-6.04.54ZM853.43,67.22c-.9-.14-2.06-.37-4.21-.37-2.63,0-4.91.31-6.21.48v-2.29c.93-.14,3.3-.48,6.52-.48,2.26,0,3.33.17,4.15.28-.2.9-.25,2.01-.25,2.37Z"/><path class="cls-4" d="M870.45,78.55c-2.6,0-5.82-4.69-5.82-12.43,0-3.28.56-6.47,1.16-9.52l2.6.79c.37.11.59.17.59.45,0,.37-.4.4-.62.4-1.3,3.7-1.3,7.82-1.3,8.44,0,4.94,1.98,8.84,3.45,8.84,1.38,0,2.77-3.59,3.56-5.56.71.79,1.02,1.1,1.75,1.58-.62,1.58-2.8,7-5.37,7ZM886.07,73.72c-.2-3.64-1.07-9.38-5.08-14.35l2.12-1.3c4.01,5.39,5.23,10.73,5.59,14.55-.14.06-2.34.99-2.63,1.1Z"/><path class="cls-4" d="M905.87,54.2l2.43.11c.31.03.48.2.48.4,0,.4-.37.45-.73.54v.96h5.99v-2.01l2.43.14c.14,0,.48.03.48.4,0,.31-.4.42-.71.48v.99h7.71v1.84h-7.71v1.3h-2.2v-1.3h-5.99v1.3h-2.17v-1.3h-7.74v-1.84h7.74v-2.01ZM900.98,68.95v2.71h-2.2v-4.46h24.54v4.46h-2.2v-2.71h-10.14c.11.08.25.17.25.34,0,.37-.68.4-1.16.42-.45.54-.71.82-1.07,1.16h9.41l1.13,1.21c-5.11,5.76-12.46,7.68-17.14,8.42-.14-.48-.45-1.27-1.13-2.06,1.24-.11,3.78-.34,6.98-1.44-.65-1.16-1.55-2.34-2.57-3.42-2.26,1.55-3.98,2.34-5.08,2.85-.65-.9-1.16-1.27-1.64-1.58,5.96-2.32,8.47-5.31,8.98-5.9h-6.95ZM921.43,59.91v6.19h-20.67v-6.19h20.67ZM906.86,61.6h-3.98v2.85h3.98v-2.85ZM907.48,72.59c1.21,1.24,2.09,2.43,2.85,3.59,1.64-.71,3.62-1.81,5.68-3.59h-8.53ZM908.95,64.46h4.07v-2.85h-4.07v2.85ZM915.1,64.46h4.18v-2.85h-4.18v2.85Z"/><path class="cls-4" d="M949.6,68.3c.06.71.14,1.86.14,3.3,0,1.19-.06,2.01-.11,2.68-1.55-.03-2.01,0-2.46,0,.08-.76.14-1.69.14-3.05,0-.9-.03-1.47-.06-1.89-5.45,2.66-5.85,4.29-5.85,5.34,0,.82,0,2.4,5.76,2.4,4.18,0,7.31-.79,8.61-1.13-.2.9-.25,1.44-.28,2.6-.99.2-3.3.68-7.23.68-2.29,0-9.09,0-9.09-4.49,0-2.99,3.25-5.48,7.8-7.6-.28-.96-.65-2.23-2.88-2.23-2.66,0-4.43,2.01-5.08,2.77-.54.59-1.92,2.29-2.99,4.01l-1.98-1.55c.9-.9,4.1-4.63,7-9.63-3.08.14-3.56.14-5.73.11v-2.37c.99.08,1.84.17,4.07.17.56,0,1.67,0,2.8-.08.71-1.36,1.3-2.71,1.72-4.12l2.32.54c.23.06.62.14.62.48,0,.31-.45.4-.76.42-.34.76-.65,1.44-1.16,2.46,1.95-.23,4.86-.65,7.43-1.55l.06,2.49c-3.33.68-7.06,1.13-8.67,1.3-.82,1.47-1.53,2.51-2.17,3.53.99-.54,2.03-.82,3.16-.82,2.17,0,3.76,1.02,4.46,3.05,1.04-.45,5.65-2.34,6.55-2.8l.96,2.54c-3.36.96-5.93,1.98-7.09,2.46Z"/><path class="cls-4" d="M669.93,105.57c-.93-.42-2.12-1.02-3.59-1.98v1.69h-6.95v4.04h6.64v2.15h-6.64v4.41h10.99v2.15h-24.46v-2.15h11.04v-4.41h-6.52v-2.15h6.52v-4.04h-6.81v-1.67c-1.84,1.3-2.8,1.81-3.56,2.23-.51-.79-1.58-1.69-1.81-1.89,3.53-1.55,9.52-5.34,12.43-11.13l2.51.45c.2.03.54.17.54.4,0,.31-.23.34-.88.48.73,1.1,4.43,6.21,12.15,9.43-.48.45-1.27,1.33-1.61,1.98ZM658.04,96c-2.23,3.11-4.74,5.28-7.17,7.12h14.74c-4.04-2.77-5.65-4.75-7.57-7.12Z"/><path class="cls-4" d="M693.51,93.29c.31.03.71.11.71.37,0,.28-.23.37-.85.59-.03.71-.06,3.5-.08,4.8h11.24c0,3.5,0,14.77-2.15,17.88-.71,1.02-1.84,2.09-6.38,1.89-.34-1.67-.85-2.4-1.07-2.77.48.08,1.67.31,2.88.31,1.92,0,2.77-.34,3.42-3.45.42-2.06.9-6.13.85-11.64h-8.81c-.23,11.18-7.15,15.9-10.96,17.74-.59-.85-.96-1.19-1.84-1.92,10.17-4.38,10.37-13.27,10.42-15.82h-9.6v-2.23h9.6v-5.93l2.63.17Z"/><path class="cls-4" d="M731.61,99.76c-1.5,1.02-5.99,4.41-5.99,9.12,0,3.62,2.74,6.52,8.76,7.15-.51.99-.76,1.64-1.07,2.66-5.17-1.05-10.17-3.87-10.17-9.77,0-3.7,2.17-7.65,7.71-10.96-.71.03-12.96,1.36-15.25,1.92l-.4-3.05c.54.03.9.06,1.44.06,1.64,0,14.63-.82,22.26-2.49l.56,2.8c-1.21,0-4.04-.03-7.85,2.57ZM735.91,106.59c-.45-.65-1.27-1.86-2.54-3.16l1.36-1.04c.08.08,1.67,1.69,2.57,3.08-.68.4-1.24.96-1.38,1.13ZM738.7,104.53c-.99-1.61-1.92-2.57-2.54-3.22l1.36-.96c.82.76,2.01,2.17,2.63,3.08-.37.2-.68.34-1.44,1.1Z"/><path class="cls-4" d="M753.05,98.88v8.22c0,2.97-.17,7.96-2.6,12.06-1.24-.73-1.67-.82-2.23-.93,2.09-3.33,2.43-6.41,2.43-11.44v-10.05h10.03v-3.84l2.49.17c.34.03.65.06.65.37,0,.34-.34.45-.71.56v2.74h11.27v2.15h-21.32ZM757.99,108.2c-.31,2.2-.79,5.48-2.26,8.61-.42-.31-1.47-.79-2.03-.93,1.69-3.33,1.98-6.5,2.17-9.01l2.37.45c.25.06.48.11.48.37,0,.37-.45.45-.73.51ZM765.67,118.51h-2.26c-3.56,0-3.78-1.21-3.78-3.5v-10.76l2.2.17c.17,0,.68.06.68.37,0,.23-.2.31-.54.42v9.55c0,1.55.28,1.55,3.08,1.55,1.69,0,2.26,0,2.54-3.78.71.51,1.47.73,2.26.88-.54,4.72-1.81,5.11-4.18,5.11ZM766.89,106.22c-.56-.85-2.32-3.02-4.94-5.14l1.67-1.41c.65.48,3.59,2.99,5.03,5.03-.71.42-1.1.76-1.75,1.53ZM772.79,117.07c-1.58-4.91-3.39-7.8-4.15-9.01l2.01-.99c1.61,2.12,3.67,6.81,4.38,8.9-.82.25-1.36.54-2.23,1.1Z"/><path class="cls-4" d="M790.36,100.49v5.68c1.1-.34,1.64-.54,2.65-.93-.06.31-.25,1.72-.2,2.2-.73.28-.9.34-2.46.9v7.2c0,2.06,0,3.9-4.97,3.56-.2-1.07-.4-1.64-.85-2.6.45.08,1.04.2,2.09.2,1.5,0,1.55-.56,1.55-1.75v-5.87c-1.75.54-1.95.59-2.63.73-.2.59-.25.79-.54.79-.23,0-.28-.23-.31-.34l-.59-2.46c1.5-.31,3.19-.71,4.07-.96v-6.35h-3.67v-2.09h3.67v-5.28l2.4.14c.23,0,.48.11.48.42,0,.17-.31.4-.71.56v4.15h2.71v2.09h-2.71ZM808.88,119.41c-3.05-.73-5.31-2.03-6.52-2.91-.31.25-2.4,1.95-5,2.94-.51-.85-.96-1.24-1.55-1.69.99-.34,3.11-1.04,4.97-2.54-.96-.93-2.09-2.34-2.8-3.59-1.1,2.97-3.08,5.51-5.42,7.6-.73-.96-1.3-1.36-1.84-1.67.73-.48,4.94-3.16,6.35-10.2h-3.47v-1.86h3.78c.17-1.33.17-1.84.2-2.17h-3.42v-1.89h8.73c1.36-1.61,2.71-3.67,3.28-5.25l2.01.88c.37.17.48.28.48.45,0,.34-.4.34-.88.34-.62,1.33-2.06,3.16-2.4,3.59h3.56v1.89h-9.21c-.03.25-.11,1.86-.14,2.17h10.45v1.86h-10.82c-.03.23-.17,1.1-.4,1.95h7.63l1.05.76c-.42.93-1.33,2.77-3.56,5.08.9.56,3.39,1.86,6.13,2.26-.25.31-.76.93-1.19,2.01ZM808.12,95.32c-.2,0-.48-.17-.76-.31-2.43.62-6.89,1.75-12.79,1.81-.28-1.13-.56-1.55-.85-1.98,2.12,0,7.51-.03,13.13-1.86l1.41,1.64c.14.17.23.28.23.42,0,.11-.08.28-.37.28ZM795.92,101.34c-.56-1.41-1.13-2.32-1.84-3.28l1.89-.79c.59.85,1.27,2.09,1.72,3.19-.82.34-.93.4-1.78.88ZM800.64,101c-.59-1.55-.9-2.37-1.67-3.56l1.92-.82c.68.96,1.33,2.43,1.69,3.56-.9.28-1.27.45-1.95.82ZM799.82,111.11c.73,1.13,1.53,2.03,2.57,2.85.62-.62,1.47-1.53,2.2-2.85h-4.77Z"/><path class="cls-4" d="M828.27,118.14c-5.82,0-5.99-5.79-5.99-10.34,0-2.01.37-10.73.37-12.51,0-.79-.03-1.13-.08-1.58l2.99.4c.42.06.68.11.68.37s-.4.45-.73.51c-.56,3.84-.71,11.13-.71,12.96,0,4.8.34,7.71,3.64,7.71,5.85,0,10.14-6.44,11.1-8.47.71.96.99,1.36,1.86,2.09-5,8.02-10.79,8.87-13.13,8.87Z"/><path class="cls-4" d="M871.28,116.53c-3.14-2.74-6.07-3.64-7.57-4.07,0,.31.03.73.03,1.04,0,1.64-.31,4.49-5.34,4.49-3.9,0-6.41-1.92-6.41-4.1,0-2.97,3.7-4.12,6.64-4.12.79,0,1.84.11,2.51.2-.03-.9-.06-1.19-.08-3.42-1.38.06-1.95.08-2.71.08-1.55,0-5.76,0-5.76-2.2,0-.99.65-1.84,2.01-3.02l1.92.68c-.88.71-1.36,1.07-1.36,1.58,0,.73,2.32.76,3.47.76,1.21.03,2.09,0,2.37-.03-.03-1.41-.06-3.5-.06-4.91-5,.2-7.99.54-9.63.73v-2.46c1.53-.11,8.25-.4,9.63-.48-.03-2.06-.03-2.77-.14-3.93l2.97.51c.23.03.45.17.45.37,0,.31-.4.4-.62.42-.06.62-.14,1.61-.14,2.57,1.38-.03,7.48-.14,8.73-.08l-.03,2.37c-1.36-.08-3.39-.23-8.73-.11-.03.96-.03,1.36-.03,4.86,4.86-.4,6.86-.96,8.05-1.27v2.46c-2.4.54-5.54.82-7.99.96,0,.76.08,3.3.11,3.95,3.98.85,7.29,2.54,9.35,4.1-.54.62-.96,1.1-1.64,2.06ZM861.16,111.96c-.51-.14-1.07-.28-2.37-.28-2.6,0-4.41.76-4.41,2.2,0,1.95,3.19,2.06,3.64,2.06,3.19,0,3.19-1.92,3.19-2.85,0-.45-.03-.79-.06-1.13Z"/><path class="cls-4" d="M903.05,99.22c-1.67,0-3.3.03-4.97.08,0,1.95-.06,3.64.03,4.77,1.1,2.01,1.1,4.21,1.1,4.6,0,1.67-.56,4.75-2.54,7.17-1.69,2.06-3.53,2.99-4.69,3.59-.45-.45-1.52-1.3-2.12-1.75,3.22-1.27,5.51-2.88,6.52-6.33-.51.54-1.5,1.58-3.33,1.58-2.49,0-3.95-2.15-3.95-5.23s1.89-5.42,4.49-5.42c1.1,0,1.67.34,2.09.56-.03-.54-.06-2.63-.06-3.45-3.22.14-8.95.62-12.09,1.13l-.23-2.65c1.95.03,10.51-.51,12.26-.59-.14-2.26-.17-2.74-.4-4.1l2.8.28c.4.03.68.06.68.37,0,.2-.34.34-.51.42-.08.79-.08,1.02-.11,2.91,8.25-.37,9.18-.4,9.91-.45-.03.62-.03,1.69.06,2.57-1.02-.06-2.71-.08-4.94-.08ZM893.7,104.3c-1.86,0-2.51,1.89-2.51,3.47,0,.65,0,3.19,2.32,3.19,1.64,0,2.85-1.55,2.85-3.62,0-.99-.51-3.05-2.65-3.05Z"/><path class="cls-4" d="M926.26,116.82h-2.94v-3.14h2.94v3.14ZM926.15,101.99l-.56,8.39h-1.58l-.56-8.39v-7.43h2.71v7.43Z"/><line class="cls-11" x1="990.68" y1="73.09" x2="976.68" y2="103.09"/><line class="cls-11" x1="1006.68" y1="62.09" x2="982.68" y2="114.09"/><line class="cls-11" x1="590.71" y1="73.09" x2="604.71" y2="103.09"/><line class="cls-11" x1="574.71" y1="62.09" x2="598.71" y2="114.09"/><g id="_グループ_127"><circle id="_楕円形_35" class="cls-1" cx="146.82" cy="155.27" r="94.61"/><circle id="_楕円形_36" class="cls-10" cx="136.75" cy="145.2" r="94.61"/><circle id="_楕円形_37" class="cls-12" cx="136.75" cy="145.2" r="94.61"/><path id="_パス_5677" class="cls-6" d="M83.27,142.07c3.08,4.28,7.92,6.94,13.18,7.24-.47.7-.82,1.47-1.04,2.27-3.23-.6-6.3-1.84-9.05-3.64-2.07-1.36-3.77-3.21-4.96-5.38-1.07,2.4-2.84,4.43-5.08,5.8-2.56,1.56-5.38,2.63-8.33,3.16-.23-.77-.58-1.5-1.04-2.16,3.08-.34,6.05-1.37,8.68-3.02,1.63-1.03,2.93-2.51,3.74-4.27h-8.26c-1.15-.01-2.3.06-3.43.21v-2.2c1.12.13,2.24.2,3.36.19h8.91c.1-.62.16-1.25.19-1.88,0-.27-.01-.54-.05-.81l2.41.05c-.05.27-.09.54-.12.81-.06.63-.17,1.25-.32,1.86h10.28c1.12.01,2.25-.05,3.36-.19v2.2c-1.15-.15-2.3-.22-3.46-.21h-8.98l.02-.02ZM76.73,125.14c-.71-1.15-1.54-2.21-2.48-3.18l1.88-.88c1.07,1.27,2.03,2.63,2.88,4.06h5.08c1.02-1.19,1.88-2.51,2.55-3.92l2.09.77c-.72,1.11-1.53,2.17-2.41,3.16h5.03c1.13.02,2.25-.05,3.36-.21v2.23c-1.11-.15-2.24-.22-3.36-.21h-8.82v3.04h7.77c.96.02,1.92-.04,2.88-.19v2.16c-.95-.15-1.91-.21-2.88-.19h-7.77v3.22h10.21c1.13.02,2.25-.05,3.36-.21v2.23c-1.11-.15-2.24-.22-3.36-.21h-22.2c-1.11.01-2.22.08-3.32.21v-2.23c1.1.15,2.21.22,3.32.21h9.91v-3.22h-7.38c-.97-.04-1.94.03-2.9.19v-2.16c.96.15,1.93.21,2.9.19h7.38v-3.04h-8.47c-1.12-.01-2.25.06-3.36.21v-2.23c1.11.15,2.24.22,3.36.21,0,0,4.76,0,4.76,0Z"/><path id="_パス_5678" class="cls-6" d="M108.61,141.58c-1.23.86-2.53,1.62-3.87,2.27-.29-.7-.71-1.34-1.25-1.88,2.92-1.19,5.65-2.79,8.12-4.76,2.3-1.7,4.28-3.8,5.85-6.19h2.13c1.71,2.56,3.88,4.78,6.4,6.54,2.36,1.78,4.95,3.23,7.7,4.29-.54.6-.97,1.3-1.25,2.06-2-1.09-3.36-1.86-4.78-2.81v7.59c0,.99.06,1.97.21,2.95h-2.32v-1.65h-14.11v1.65h-2.32c.14-.98.21-1.98.21-2.97v-7.56l-.7.46h-.02ZM116.96,123.05c0-.7-.07-1.4-.21-2.09h2.6c-.16.68-.23,1.39-.21,2.09v1.02h9.98c1.37,0,2.32-.05,3.39-.14-.11.75-.16,1.51-.14,2.27v2.13c-.02.78.03,1.57.14,2.34h-2.2v-4.69h-23.62v4.69h-2.2c.11-.78.16-1.56.14-2.34v-2.13c0-.76-.04-1.52-.14-2.27,1.04.09,2.02.14,3.39.14h9.09v-1.02ZM115.03,128.55c-2.24,2.96-5.08,5.42-8.33,7.22-.41-.66-.96-1.23-1.6-1.67,1.42-.6,2.74-1.39,3.94-2.34,1.59-1.17,2.98-2.59,4.13-4.2l1.86,1.02v-.02ZM125.57,139.71c-2.71-1.88-5.08-4.21-7.01-6.89-2.04,2.66-4.48,4.99-7.24,6.89h14.24ZM111.39,148.1h14.11v-6.43h-14.11v6.43ZM123.32,127.5c2.32,2.8,5.3,4.98,8.68,6.33-.52.56-.95,1.18-1.3,1.86-3.5-1.67-6.6-4.07-9.09-7.03,0,0,1.72-1.16,1.72-1.16Z"/><path id="_パス_5679" class="cls-6" d="M144.59,125.85c.75-1.51,1.29-3.11,1.6-4.76l2.2.39c-.47,1.5-1.05,2.95-1.74,4.36h2.62c.78,0,1.56-.03,2.34-.12-.06.71-.08,1.42-.07,2.13v4.8c-.02.74,0,1.49.07,2.23-.78-.06-1.56-.09-2.34-.07h-6.01v3.99h6.19c.81.01,1.61-.03,2.41-.12-.09.86-.12,1.73-.09,2.6v6.19c-.02.96.03,1.92.14,2.88h-2.13v-1.93h-6.5v2.81h-2.27c.19-1.06.27-2.14.26-3.22v-19.93c0-.67-.07-1.58-.14-2.34.86.08,1.73.12,2.6.12h.9l-.05-.02ZM143.27,133.02h6.29v-5.36h-6.29v5.36ZM143.27,146.6h6.5v-5.92h-6.5v5.92ZM155.75,124.76c-.99-.02-1.99.04-2.97.19v-2.27c1.01.15,2.02.22,3.04.21h11.46c1.02.01,2.03-.06,3.04-.21v2.27c-1-.14-2.01-.21-3.02-.19h-4.8v4.62h4.27c.88.02,1.75-.02,2.62-.14-.08.84-.12,1.68-.09,2.53v12.97c0,1.74-.7,2.39-2.6,2.39-.78-.01-1.55-.07-2.32-.19-.04-.72-.2-1.42-.46-2.09.84.2,1.69.32,2.55.35.56,0,.77-.19.77-.74v-13.25h-4.76v17.35c-.03,1.03.04,2.07.21,3.09h-2.48c.19-1.02.28-2.05.26-3.09v-17.35h-4.27v13.18c-.03,1.05.01,2.11.14,3.16h-2.41c.16-1.09.23-2.19.21-3.29v-12.41c0-.87-.04-1.74-.14-2.6.96.11,1.93.16,2.9.14h3.57v-4.62h-4.76.05Z"/><path id="_パス_5680" class="cls-6" d="M182.87,125.39c-1.74.35-2.55.49-4.5.77-.23-.65-.56-1.26-.97-1.81,3.29-.22,6.52-.97,9.58-2.2.54-.2,1.06-.47,1.53-.81l1.32,1.79c-1.59.75-3.24,1.35-4.94,1.79v5.1h2.34c.79.03,1.59-.04,2.37-.19v2.23c-.78-.14-1.57-.2-2.37-.19h-2.27c1.02,2.37,2.68,4.4,4.8,5.87-.49.54-.91,1.15-1.23,1.81-1.63-1.48-2.92-3.29-3.8-5.31.05.46.07,2.16.19,5.17v8.4c-.03,1.31.04,2.62.21,3.92h-2.46c.15-1.3.22-2.61.21-3.92v-7.77c0-1.25.07-3.18.19-5.36-.94,3.64-2.68,7.03-5.1,9.91-.34-.71-.79-1.36-1.32-1.93,2.77-3.12,4.81-6.81,5.99-10.81h-2.23c-.99,0-1.99.06-2.97.21v-2.32c1,.18,2.02.25,3.04.21h2.46v-4.62l-.05.07ZM192.15,144.95c-1.25.32-2.37.63-3.16.9l-.32-2.37c1.07-.09,2.14-.26,3.18-.53l9.23-2.2v-15.85c.05-1.18-.02-2.36-.21-3.53h2.6c-.16,1.16-.23,2.33-.21,3.5v15.36l.56-.14c1.07-.24,2.13-.55,3.16-.95l.26,2.39c-1.07.13-2.13.33-3.18.6l-.77.19v5.73c-.02,1.22.05,2.44.21,3.64h-2.6c.2-1.23.27-2.47.21-3.71v-5.15l-8.96,2.13v-.02ZM191.94,132.14c2.28,1.44,4.35,3.2,6.15,5.22l-1.32,1.72c-1.76-2.12-3.87-3.93-6.22-5.36l1.39-1.58ZM192.99,123.74c2.32,1.5,4.42,3.3,6.26,5.36l-1.37,1.79c-1.75-2.19-3.87-4.06-6.26-5.52l1.37-1.6v-.02Z"/><path id="_パス_5681" class="cls-6" d="M119.54,193.27c0,2.09-.6,2.48-3.78,2.48-.97,0-2.6-.07-3.8-.19-.13-.74-.36-1.47-.67-2.16,1.44.23,2.9.36,4.36.39,1.51,0,1.74-.12,1.74-.84v-6.75h-10.05c-1.18-.01-2.36.06-3.53.21v-2.3c1.16.15,2.33.22,3.5.21h10.07v-.6c0-.67-.05-1.18-.12-1.95h1.39c2.16-.99,4.18-2.26,6.01-3.78h-12.25c-1.06,0-2.12.06-3.18.19v-2.2c1.07.13,2.15.19,3.22.19h12.13c.83.02,1.66-.02,2.48-.14l1.25,1.37-1.16.95c-2.33,1.99-4.92,3.66-7.7,4.96v1.04h10c1.19.02,2.39-.05,3.57-.21v2.3c-1.18-.16-2.38-.23-3.57-.21h-10v7.08l.07-.05ZM110.56,171.07c-.86-1.57-1.92-3.03-3.16-4.34l2.02-.63c1.27,1.55,2.4,3.21,3.39,4.96h4.9c-.59-1.71-1.42-3.34-2.46-4.83l2.09-.6c1.01,1.73,1.86,3.55,2.55,5.43h3.67c1.41-1.61,2.57-3.42,3.43-5.38l2.09.88c-.92,1.6-2,3.11-3.22,4.5h2.62c1.29.03,2.59-.02,3.87-.14-.1.91-.15,1.82-.14,2.74v2.53c0,.8.07,1.6.19,2.39h-2.23v-5.71h-23.64v5.71h-2.23c.11-.79.17-1.59.19-2.39v-2.53c.01-.91-.04-1.83-.14-2.74,1.28.12,2.57.16,3.85.14h2.37Z"/><path id="_パス_5682" class="cls-6" d="M166.63,174.74c1.08.03,2.15,0,3.22-.09-.05.14-.14.9-.39,2.34-.39,2.06-.84,2.55-2.37,2.55-.29,0-.59-.01-.88-.05-.07,1.23-.07,1.93-.07,3.11v5.36c-.02,1.18.03,2.35.14,3.53-.95-.09-2.18-.14-3.74-.14h-14.31c-1.58,0-2.81.05-3.74.14.11-1.15.16-2.3.14-3.46v-7.42c-1.2.53-2.44.96-3.71,1.3-.24-.64-.61-1.23-1.09-1.72,4.76-1.02,7.03-2.02,8.82-3.92h-4.29c-1.25,0-2.23.05-3.02.09.92-1.65,1.56-3.45,1.88-5.31.77.07,1.53.12,3.04.12h4.34c.09-.67.09-.88.19-1.79h-5.87c-1.1-.02-2.2.04-3.29.19v-1.95c1.09.16,2.19.22,3.29.19h5.92c.05-.78,0-1.56-.14-2.32h2.2c-.09.77-.13,1.54-.14,2.32h5.31v-.39c.01-.65-.05-1.31-.19-1.95h2.23c-.14.66-.2,1.33-.19,2v.35h4.87c1.06.03,2.13-.03,3.18-.19-.11.71-.16,1.44-.14,2.16v1.11c-.04.63,0,1.26.12,1.88-.88-.07-1.93-.09-3.18-.09h-4.83v2.06h6.68ZM151.69,192.88c-3.08,1.8-6.47,3.02-10,3.6-.31-.68-.72-1.31-1.23-1.86,3.39-.32,6.68-1.34,9.65-3.02l1.58,1.25v.02ZM144.87,172.67c-.39,1.11-.53,1.51-.77,2.06h5.57c.3-.66.54-1.35.7-2.06h-5.5ZM146.66,182.65h17.45v-2h-17.45v2ZM146.66,186.15h17.45v-1.95h-17.45v1.95ZM146.66,189.75h17.45v-2.06h-17.45v2.06ZM164.8,179.05c-.04-.48-.15-.95-.35-1.39.67.24,1.38.38,2.09.42.77,0,.81-.07,1.09-1.79h-7.7v.28c0,.62.04,1.24.14,1.86h-2.16c.1-.6.15-1.2.14-1.81v-.32h-7.22c-.78,1.16-1.84,2.11-3.09,2.76h17.05ZM152.25,172.7c-.12.71-.32,1.4-.6,2.06h6.4v-2.06h-5.8ZM152.6,170.14c-.02.26-.07.53-.09,1.04h5.57v-1.79h-5.38l-.07.74h-.02ZM160.46,191.7c3.06,1.68,6.45,2.67,9.93,2.9-.51.58-.93,1.23-1.25,1.93-1.68-.3-3.34-.72-4.96-1.25-1.86-.56-3.64-1.35-5.31-2.34l1.6-1.23h0ZM159.93,171.21h5.94v-1.79h-5.94v1.79Z"/><path id="_パス_5683" class="cls-17" d="M124.11,102.24l-6.24-20.93,10.7,5.01,8.19-7.01,8.19,7.01,10.7-5.01-6.24,20.93h-25.29Z"/><line id="_線_177" class="cls-13" x1="147.42" y1="96.88" x2="126.08" y2="96.88"/></g><polyline class="cls-14" points="7 311.59 37.56 325.59 68.11 311.59 98.66 325.59 129.22 311.59 159.77 325.59 190.33 311.59 220.88 325.59 251.44 311.59 281.99 325.59 312.54 311.59 343.09 325.59 373.64 311.59 404.19 325.59 434.75 311.59 465.3 325.59 495.86 311.59 526.41 325.59 556.96 311.59 587.52 325.59 618.07 311.59 648.63 325.59 679.18 311.59 709.74 325.59 740.3 311.59 770.85 325.59 801.41 311.59 831.97 325.59 862.52 311.59 893.07 325.59 923.63 311.59 954.19 325.59 984.75 311.59 1015.31 325.59 1045.87 311.59 1076.44 325.59 1107 311.59"/></g></svg>