<svg width="239" height="239" viewBox="0 0 239 239" fill="none" xmlns="http://www.w3.org/2000/svg">
<g filter="url(#filter0_d_1_392)">
<path d="M218.976 125.727C219.238 121.257 217.368 117.161 214.249 114.42C217.05 111.344 218.45 107.049 217.686 102.634C216.922 98.2119 214.145 94.634 210.469 92.6896C212.49 89.04 212.856 84.5298 211.089 80.402C209.315 76.2823 205.797 73.4454 201.771 72.4095C202.885 68.3933 202.208 63.923 199.535 60.3211C196.869 56.7273 192.794 54.7909 188.64 54.7033C188.808 50.5437 187.128 46.3522 183.699 43.4675C180.277 40.5749 175.868 39.6187 171.81 40.4873C171.014 36.4074 168.412 32.7179 164.417 30.6939C160.414 28.6619 155.902 28.7575 152.146 30.5425C150.427 26.7494 147.037 23.7612 142.676 22.7173C138.323 21.6814 133.955 22.8129 130.716 25.4266C128.169 22.1356 124.198 20.0159 119.718 20H119.511C115.031 20 111.052 22.1196 108.506 25.4027C105.267 22.781 100.906 21.6336 96.545 22.6695C92.1841 23.6974 88.7862 26.6857 87.0593 30.4787C83.3032 28.6778 78.7912 28.5822 74.7804 30.5982C70.7777 32.6143 68.1675 36.3038 67.3717 40.3917C63.3053 39.5071 58.8967 40.4554 55.4669 43.34C52.0371 46.2247 50.3421 50.4082 50.5012 54.5598C46.3473 54.6395 42.2729 56.5759 39.5991 60.1697C36.9173 63.7636 36.2329 68.226 37.3391 72.2342C33.3124 73.2701 29.7871 76.091 28.0125 80.2108C26.23 84.3306 26.596 88.8408 28.6014 92.4904C24.9249 94.4268 22.1476 97.9967 21.3678 102.419C20.5959 106.834 21.9885 111.129 24.7817 114.213C21.6543 116.946 19.7683 121.042 20.0229 125.512C20.2776 129.991 22.6172 133.855 26.039 136.214C23.6119 139.601 22.7286 144.031 24.0018 148.334C25.283 152.637 28.4582 155.857 32.3416 157.363C30.7659 161.22 30.9251 165.738 33.1692 169.627C35.4133 173.507 39.233 175.906 43.3551 176.472C42.7106 180.583 43.9042 184.934 46.9759 188.201C50.0476 191.46 54.313 192.911 58.4511 192.52C58.7694 196.664 60.9259 200.632 64.6661 203.103C68.3983 205.573 72.8944 206.003 76.8336 204.664C78.0988 208.633 81.1148 211.996 85.3245 213.534C89.5421 215.071 94.0144 214.45 97.5318 212.235C99.6804 215.797 103.397 218.363 107.845 218.888H107.853C112.293 219.406 116.487 217.773 119.4 214.801C121.954 217.414 125.503 219 129.339 219C129.872 219 130.405 218.976 130.947 218.912C135.403 218.402 139.119 215.836 141.276 212.274C144.793 214.506 149.265 215.143 153.483 213.605C157.701 212.075 160.732 208.721 161.998 204.752C165.937 206.107 170.433 205.684 174.173 203.214C177.921 200.752 180.086 196.791 180.412 192.64C184.55 193.046 188.823 191.604 191.895 188.353C194.975 185.094 196.176 180.743 195.548 176.631C199.662 176.073 203.49 173.691 205.742 169.81C207.994 165.929 208.161 161.411 206.593 157.554C210.477 156.056 213.652 152.845 214.949 148.542C216.238 144.247 215.355 139.808 212.944 136.421C216.365 134.063 218.713 130.206 218.976 125.727Z" fill="url(#paint0_linear_1_392)"/>
</g>
<path d="M119.511 27H119.703C123.868 27.0149 127.559 28.9855 129.927 32.0449C132.937 29.6151 136.999 28.5633 141.046 29.5264C145.1 30.4968 148.251 33.2746 149.849 36.8008C153.341 35.1415 157.536 35.0525 161.257 36.9414C164.97 38.823 167.39 42.253 168.13 46.0459C171.903 45.2385 176.001 46.1274 179.182 48.8164C182.371 51.4981 183.931 55.3949 183.776 59.2617C187.638 59.3432 191.426 61.1434 193.904 64.4844C196.39 67.8328 197.019 71.989 195.983 75.7227C199.726 76.6858 202.996 79.3228 204.645 83.1523C206.288 86.9897 205.948 91.1833 204.069 94.5762C207.487 96.3838 210.068 99.7101 210.778 103.821C211.488 107.925 210.187 111.918 207.583 114.777C210.483 117.326 212.221 121.133 211.977 125.289L211.948 125.678C211.595 129.675 209.45 133.105 206.369 135.229V135.23C208.61 138.379 209.432 142.505 208.234 146.498L208.116 146.87C206.843 150.684 203.963 153.528 200.466 154.877C201.923 158.462 201.768 162.663 199.675 166.271L199.473 166.604C197.358 170.015 193.902 172.109 190.197 172.611C190.781 176.434 189.665 180.479 186.802 183.509C183.946 186.531 179.974 187.872 176.127 187.494C175.823 191.354 173.811 195.036 170.327 197.325C166.85 199.622 162.67 200.014 159.008 198.755C157.831 202.444 155.012 205.562 151.092 206.984C147.171 208.414 143.014 207.822 139.744 205.748C137.739 209.059 134.284 211.445 130.141 211.919C129.638 211.978 129.142 212 128.646 212V211C129.112 211 129.568 210.979 130.024 210.926L130.027 210.925C133.848 210.488 137.036 208.289 138.888 205.229L139.417 204.356L140.279 204.903C143.299 206.819 147.134 207.363 150.75 206.045H150.751C154.369 204.732 156.97 201.856 158.055 198.451L158.366 197.477L159.333 197.809C162.714 198.971 166.568 198.608 169.775 196.49L169.777 196.489C172.991 194.378 174.849 190.982 175.13 187.416L175.21 186.399L176.224 186.499C179.777 186.848 183.441 185.61 186.075 182.822L186.318 182.558C188.78 179.794 189.732 176.184 189.209 172.763L189.055 171.758L190.063 171.621C193.595 171.142 196.877 169.098 198.809 165.769C200.741 162.44 200.886 158.566 199.54 155.254L199.156 154.311L200.106 153.944C203.44 152.658 206.163 149.903 207.276 146.21C208.382 142.526 207.625 138.718 205.554 135.811L204.966 134.983L205.802 134.407C208.741 132.381 210.753 129.072 210.978 125.23C211.203 121.396 209.601 117.882 206.923 115.528L206.158 114.856L206.843 114.104C209.173 111.546 210.372 108.008 209.849 104.347L209.793 103.991C209.137 100.198 206.757 97.1289 203.601 95.46L202.7 94.9834L203.194 94.0908C204.929 90.9577 205.242 87.0884 203.726 83.5459V83.5449C202.203 80.0106 199.186 77.5788 195.733 76.6904L194.747 76.4365L195.019 75.4551C195.976 72.0044 195.395 68.1692 193.101 65.0801H193.1C190.815 61.9987 187.321 60.337 183.755 60.2617L182.736 60.2402L182.777 59.2217C182.921 55.6483 181.478 52.0549 178.538 49.582L178.536 49.5801C175.601 47.0991 171.821 46.2781 168.339 47.0234L167.343 47.2373L167.148 46.2373C166.465 42.7334 164.231 39.57 160.804 37.834V37.833C157.372 36.0907 153.503 36.1714 150.278 37.7041L149.358 38.1406L148.938 37.2139C147.462 33.9568 144.554 31.3946 140.813 30.499V30.498C137.08 29.6099 133.334 30.5802 130.554 32.8232L129.761 33.4639L129.136 32.6572C127.017 29.9192 123.754 28.1286 120.058 28.0068L119.699 28H119.511C115.669 28 112.256 29.8163 110.069 32.6357L109.443 33.4424L108.649 32.7998C105.868 30.5485 102.129 29.567 98.3904 30.4551H98.3894C94.6508 31.3364 91.7351 33.898 90.2517 37.1562L89.8289 38.084L88.909 37.6436C85.7864 36.1464 82.0578 36.0223 78.699 37.5889L78.3758 37.7461C74.9432 39.4751 72.7036 42.6384 72.0203 46.1484L71.825 47.1514L70.826 46.9346C67.3367 46.1757 63.5572 46.9885 60.615 49.4629C57.6723 51.9378 56.2178 55.5261 56.3543 59.0898L56.3933 60.1084L55.3748 60.1279C51.8098 60.1963 48.3159 61.8576 46.0222 64.9404L46.0213 64.9414C43.7214 68.0235 43.133 71.8507 44.0828 75.293L44.3533 76.2744L43.368 76.5283C39.9112 77.4177 36.8889 79.8371 35.367 83.3701L35.366 83.3721C33.8374 86.9052 34.1503 90.7743 35.8728 93.9092L36.3631 94.8008L35.4617 95.2754C32.3072 96.9369 29.9259 99.9995 29.2566 103.795C28.595 107.582 29.7882 111.265 32.1863 113.913L32.8699 114.668L32.1033 115.338C29.4174 117.685 27.801 121.199 28.0193 125.032C28.2378 128.874 30.2438 132.19 33.1814 134.215L34.0203 134.793L33.4265 135.621C31.3438 138.527 30.5854 142.327 31.6775 146.021H31.6785C32.7774 149.711 35.4996 152.473 38.8347 153.767L39.784 154.135L39.3992 155.077C38.0463 158.389 38.1827 162.264 40.1072 165.6H40.1082C42.0338 168.93 45.3094 170.987 48.8474 171.473L49.8572 171.611L49.7 172.618C49.1466 176.148 50.1705 179.88 52.8054 182.683L53.0554 182.939C55.6689 185.554 59.2095 186.713 62.6521 186.388L63.6648 186.292L63.7429 187.307C64.0163 190.866 65.8677 194.268 69.075 196.387H69.076C72.2758 198.505 76.131 198.876 79.5134 197.727L80.4783 197.398L80.7879 198.369C81.8746 201.777 84.4625 204.66 88.072 205.979H88.0711C91.6897 207.298 95.5249 206.765 98.5437 204.864L99.407 204.321L99.9334 205.194C101.771 208.24 104.941 210.435 108.738 210.897L108.788 210.903C112.596 211.347 116.192 209.948 118.692 207.396L119.408 206.666L120.122 207.397C122.315 209.642 125.36 211 128.646 211V212C125.081 212 121.782 210.525 119.407 208.096C116.699 210.859 112.801 212.378 108.673 211.896H108.665L108.279 211.845C104.315 211.257 101.012 208.919 99.0769 205.711C95.8071 207.77 91.6491 208.348 87.7283 206.918C83.8149 205.488 81.011 202.362 79.8347 198.673C76.1728 199.917 71.9928 199.517 68.5232 197.221C65.0464 194.924 63.0418 191.235 62.7459 187.383C59.0191 187.734 55.1808 186.481 52.3484 183.647L52.0779 183.368C49.2224 180.331 48.1126 176.286 48.7117 172.464C44.9994 171.954 41.5508 169.846 39.4422 166.435L39.243 166.1C37.1568 162.485 37.0086 158.285 38.4734 154.699C34.976 153.343 32.0961 150.492 30.8367 146.678L30.7205 146.306C29.5368 142.305 30.3577 138.186 32.614 135.038C29.5322 132.914 27.3943 129.476 27.0486 125.478L27.0213 125.089C26.7847 120.933 28.5379 117.126 31.4451 114.585C28.9295 111.808 27.6356 107.973 28.2098 104.005L28.2713 103.621C28.9963 99.5097 31.5781 96.1908 34.9959 94.3906C33.1899 91.1039 32.8139 87.066 34.2986 83.335L34.449 82.9746C36.0988 79.1449 39.3757 76.5226 43.1189 75.5596C42.0906 71.8333 42.7274 67.6848 45.2205 64.3438C47.7062 61.0029 51.4936 59.203 55.3553 59.1289C55.2119 55.3899 56.6864 51.623 59.6775 48.9531L59.9715 48.6982C63.16 46.0165 67.2585 45.1347 71.0388 45.957C71.7555 42.2757 74.055 38.942 77.5808 37.0332L77.9265 36.8525C81.655 34.9784 85.8498 35.067 89.3416 36.7412C90.8968 33.3254 93.9096 30.6113 97.782 29.5762L98.1599 29.4814C102.214 28.5185 106.268 29.5853 109.279 32.0225C111.572 29.0659 115.115 27.1244 119.121 27.0059L119.511 27Z" fill="#E72A2D"/>
<path d="M173.667 149.838C173.644 149.487 173.616 149.028 173.582 148.461C173.548 147.883 173.508 147.265 173.463 146.608C173.429 145.939 173.395 145.288 173.361 144.653C173.338 144.007 173.316 143.44 173.293 142.953C173.282 142.454 173.276 142.097 173.276 141.882V139.247H175.724V141.882C175.724 142.097 175.713 142.454 175.69 142.953C175.679 143.44 175.656 144.007 175.622 144.653C175.599 145.288 175.565 145.939 175.52 146.608C175.486 147.265 175.452 147.883 175.418 148.461C175.384 149.028 175.356 149.487 175.333 149.838H173.667ZM174.5 154.037C174.103 154.037 173.763 153.895 173.48 153.612C173.197 153.329 173.055 152.989 173.055 152.592C173.055 152.195 173.197 151.855 173.48 151.572C173.763 151.289 174.103 151.147 174.5 151.147C174.897 151.147 175.237 151.289 175.52 151.572C175.803 151.855 175.945 152.195 175.945 152.592C175.945 152.989 175.803 153.329 175.52 153.612C175.237 153.895 174.897 154.037 174.5 154.037Z" fill="#E72A2D"/>
<path d="M156.327 154.326C156.236 154.088 156.095 153.81 155.902 153.493C155.709 153.176 155.511 152.915 155.307 152.711C156.406 152.416 157.251 151.997 157.84 151.453C158.429 150.898 158.832 150.167 159.047 149.26C159.262 148.342 159.353 147.203 159.319 145.843L161.189 145.928C161.189 146.37 161.178 146.795 161.155 147.203C161.144 147.611 161.11 147.996 161.053 148.359C161.359 149.368 161.897 150.24 162.668 150.977C163.439 151.714 164.374 152.263 165.473 152.626C165.28 152.807 165.065 153.068 164.827 153.408C164.589 153.748 164.408 154.037 164.283 154.275C162.549 153.595 161.251 152.467 160.39 150.892C160.027 151.719 159.517 152.416 158.86 152.983C158.203 153.538 157.358 153.986 156.327 154.326ZM156.412 146.897C156.31 146.659 156.168 146.393 155.987 146.098C155.817 145.803 155.63 145.554 155.426 145.35C156.514 145.089 157.336 144.687 157.891 144.143C158.458 143.599 158.832 142.891 159.013 142.018C159.206 141.134 159.285 140.063 159.251 138.805L161.138 138.873C161.138 139.304 161.127 139.717 161.104 140.114C161.081 140.499 161.047 140.868 161.002 141.219C161.591 143.214 163.036 144.545 165.337 145.214C165.144 145.418 164.94 145.679 164.725 145.996C164.521 146.302 164.357 146.58 164.232 146.829C163.371 146.5 162.617 146.092 161.971 145.605C161.336 145.106 160.798 144.477 160.356 143.718C160.005 144.511 159.512 145.163 158.877 145.673C158.242 146.183 157.421 146.591 156.412 146.897ZM150.343 153.867V148.971H155.273V153.867H150.343ZM149.748 143.31V141.763H155.579V143.31H149.748ZM150.496 140.93V139.332H155.001V140.93H150.496ZM150.496 148.104V146.54H155.001V148.104H150.496ZM150.496 145.707V144.143H155.001V145.707H150.496ZM157.653 143.225C157.404 143.123 157.103 143.027 156.752 142.936C156.401 142.834 156.106 142.772 155.868 142.749C156.004 142.477 156.129 142.148 156.242 141.763C156.367 141.378 156.474 140.992 156.565 140.607C156.656 140.21 156.718 139.882 156.752 139.621L158.469 139.859C158.446 140.142 158.395 140.494 158.316 140.913C158.237 141.332 158.135 141.752 158.01 142.171C157.897 142.579 157.778 142.93 157.653 143.225ZM157.534 150.79C157.285 150.688 156.984 150.586 156.633 150.484C156.293 150.371 156.004 150.297 155.766 150.263C155.913 149.991 156.049 149.662 156.174 149.277C156.31 148.892 156.423 148.506 156.514 148.121C156.616 147.736 156.69 147.413 156.735 147.152L158.435 147.458C158.412 147.741 158.35 148.093 158.248 148.512C158.157 148.92 158.05 149.328 157.925 149.736C157.8 150.144 157.67 150.495 157.534 150.79ZM163.229 143.089C163.048 142.942 162.793 142.777 162.464 142.596C162.135 142.415 161.863 142.284 161.648 142.205C161.841 141.967 162.028 141.689 162.209 141.372C162.39 141.043 162.555 140.715 162.702 140.386C162.849 140.046 162.968 139.74 163.059 139.468L164.708 140.114C164.617 140.397 164.487 140.72 164.317 141.083C164.158 141.446 163.983 141.803 163.79 142.154C163.597 142.505 163.41 142.817 163.229 143.089ZM163.263 150.45C163.082 150.303 162.827 150.138 162.498 149.957C162.169 149.764 161.897 149.628 161.682 149.549C161.965 149.198 162.232 148.773 162.481 148.274C162.73 147.775 162.923 147.328 163.059 146.931L164.708 147.577C164.561 148.008 164.351 148.495 164.079 149.039C163.818 149.572 163.546 150.042 163.263 150.45ZM152.077 152.303H153.539V150.535H152.077V152.303Z" fill="#E72A2D"/>
<path d="M135.655 154.207V148.087C135.349 148.608 135.037 149.101 134.72 149.566C134.403 150.031 134.102 150.427 133.819 150.756C133.615 150.552 133.354 150.325 133.037 150.076C132.731 149.827 132.453 149.645 132.204 149.532C132.51 149.249 132.827 148.886 133.156 148.444C133.496 147.991 133.825 147.503 134.142 146.982C134.471 146.449 134.765 145.928 135.026 145.418C135.298 144.897 135.508 144.426 135.655 144.007V143.922H132.867V142.154H135.655V138.89H137.61V142.154H139.599V143.922H137.61V145.078C137.848 145.373 138.131 145.701 138.46 146.064C138.789 146.415 139.117 146.75 139.446 147.067C139.786 147.384 140.064 147.628 140.279 147.798V139.519H147.419V153.663H140.279V147.815C140.154 147.917 140.007 148.059 139.837 148.24C139.678 148.41 139.52 148.586 139.361 148.767C139.214 148.937 139.1 149.079 139.021 149.192C138.84 149.011 138.624 148.784 138.375 148.512C138.126 148.24 137.871 147.951 137.61 147.645V154.207H135.655ZM142.234 151.895H145.464V149.43H142.234V151.895ZM142.234 147.713H145.464V145.316H142.234V147.713ZM142.234 143.616H145.464V141.287H142.234V143.616Z" fill="#E72A2D"/>
<path d="M123.891 154.122C122.622 154.122 121.726 153.912 121.205 153.493C120.684 153.074 120.451 152.377 120.508 151.402C120.531 151.209 120.553 150.943 120.576 150.603C120.61 150.252 120.65 149.849 120.695 149.396C120.366 149.339 120.055 149.277 119.76 149.209C119.465 149.141 119.199 149.067 118.961 148.988C118.326 148.784 117.862 148.512 117.567 148.172C117.272 147.832 117.17 147.39 117.261 146.846C117.352 146.302 117.652 145.622 118.162 144.806C118.457 144.919 118.751 145.033 119.046 145.146C119.352 145.259 119.624 145.344 119.862 145.401C119.386 146.047 119.171 146.512 119.216 146.795C119.273 147.067 119.584 147.282 120.151 147.441C120.355 147.486 120.593 147.537 120.865 147.594C120.91 147.095 120.956 146.58 121.001 146.047C121.058 145.514 121.109 144.982 121.154 144.449C120.859 144.211 120.502 143.967 120.083 143.718C119.664 143.457 119.233 143.214 118.791 142.987C118.349 142.76 117.947 142.579 117.584 142.443C117.765 142.216 117.958 141.95 118.162 141.644C118.366 141.327 118.519 141.072 118.621 140.879C118.95 141.015 119.375 141.219 119.896 141.491C120.417 141.752 120.905 142.024 121.358 142.307C121.369 142.228 121.375 142.148 121.375 142.069C121.386 141.978 121.392 141.893 121.392 141.814C121.46 141.111 121.511 140.494 121.545 139.961C121.59 139.417 121.607 139.037 121.596 138.822C121.891 138.879 122.236 138.935 122.633 138.992C123.03 139.037 123.375 139.06 123.67 139.06C123.613 139.332 123.545 139.791 123.466 140.437C123.387 141.072 123.302 141.808 123.211 142.647C123.132 143.486 123.047 144.358 122.956 145.265C122.877 146.172 122.803 147.027 122.735 147.832C123.143 147.866 123.562 147.894 123.993 147.917C124.435 147.928 124.866 147.928 125.285 147.917C125.251 148.064 125.217 148.257 125.183 148.495C125.16 148.733 125.143 148.971 125.132 149.209C125.121 149.436 125.115 149.623 125.115 149.77C124.718 149.781 124.305 149.776 123.874 149.753C123.443 149.73 123.013 149.696 122.582 149.651C122.571 149.968 122.554 150.252 122.531 150.501C122.52 150.75 122.514 150.949 122.514 151.096C122.503 151.515 122.582 151.799 122.752 151.946C122.933 152.093 123.319 152.167 123.908 152.167C124.633 152.167 125.268 152.042 125.812 151.793C126.367 151.532 126.798 151.192 127.104 150.773C127.421 150.354 127.58 149.9 127.58 149.413C127.58 148.642 127.229 147.894 126.526 147.169C125.835 146.444 124.888 145.786 123.687 145.197C123.88 145.072 124.106 144.885 124.367 144.636C124.628 144.387 124.82 144.166 124.945 143.973C126.43 144.676 127.591 145.509 128.43 146.472C129.269 147.435 129.688 148.438 129.688 149.481C129.688 150.297 129.45 151.062 128.974 151.776C128.498 152.479 127.824 153.045 126.951 153.476C126.09 153.907 125.07 154.122 123.891 154.122Z" fill="#E72A2D"/>
<path d="M111.651 153.561C109.826 153.47 108.342 153.159 107.197 152.626C106.064 152.093 105.231 151.374 104.698 150.467C104.177 149.56 103.916 148.512 103.916 147.322C103.916 146.279 104.131 145.356 104.562 144.551C105.004 143.746 105.622 143.049 106.415 142.46C105.486 142.585 104.562 142.709 103.644 142.834C102.737 142.959 101.91 143.078 101.162 143.191C100.425 143.293 99.8303 143.384 99.377 143.463C99.377 143.293 99.3543 143.078 99.309 142.817C99.275 142.545 99.2353 142.279 99.19 142.018C99.1446 141.746 99.0993 141.531 99.054 141.372C99.5866 141.338 100.227 141.293 100.975 141.236C101.734 141.168 102.556 141.089 103.44 140.998C104.324 140.907 105.225 140.805 106.143 140.692C107.072 140.579 107.962 140.465 108.812 140.352C109.673 140.239 110.455 140.125 111.158 140.012C111.872 139.887 112.45 139.774 112.892 139.672C112.949 139.842 113.017 140.052 113.096 140.301C113.187 140.55 113.277 140.8 113.368 141.049C113.459 141.298 113.544 141.508 113.623 141.678C113.374 141.689 113.102 141.701 112.807 141.712C112.524 141.723 112.184 141.757 111.787 141.814C110.733 141.939 109.764 142.239 108.88 142.715C107.996 143.18 107.288 143.803 106.755 144.585C106.234 145.367 105.973 146.279 105.973 147.322C105.973 148.614 106.466 149.623 107.452 150.348C108.438 151.062 110.064 151.47 112.331 151.572C112.161 151.855 112.014 152.184 111.889 152.558C111.776 152.921 111.696 153.255 111.651 153.561ZM111.94 146.659C111.917 146.636 111.844 146.557 111.719 146.421C111.594 146.274 111.441 146.104 111.26 145.911C111.09 145.707 110.914 145.509 110.733 145.316C110.563 145.123 110.416 144.959 110.291 144.823C110.166 144.676 110.093 144.591 110.07 144.568L110.92 143.837C110.943 143.871 111.045 143.99 111.226 144.194C111.407 144.398 111.611 144.63 111.838 144.891C112.076 145.14 112.286 145.367 112.467 145.571C112.648 145.775 112.756 145.894 112.79 145.928L111.94 146.659ZM113.436 145.367C113.413 145.344 113.34 145.265 113.215 145.129C113.09 144.982 112.937 144.812 112.756 144.619C112.586 144.415 112.41 144.217 112.229 144.024C112.059 143.831 111.912 143.667 111.787 143.531C111.662 143.384 111.589 143.299 111.566 143.276L112.416 142.545C112.439 142.579 112.541 142.698 112.722 142.902C112.903 143.106 113.107 143.338 113.334 143.599C113.572 143.848 113.782 144.075 113.963 144.279C114.144 144.483 114.252 144.602 114.286 144.636L113.436 145.367Z" fill="#E72A2D"/>
<path d="M86.882 152.524C86.7687 152.161 86.6157 151.782 86.423 151.385C86.2304 150.988 86.0264 150.665 85.811 150.416C86.3777 150.371 86.984 150.308 87.63 150.229C88.2874 150.138 88.939 150.036 89.585 149.923C90.2424 149.81 90.8544 149.685 91.421 149.549C92.6904 149.254 93.597 148.79 94.141 148.155C94.6964 147.509 94.8834 146.755 94.702 145.894C94.3507 144.273 93.1664 143.548 91.149 143.718C90.537 143.775 89.8457 143.882 89.075 144.041C88.3044 144.188 87.5224 144.364 86.729 144.568C85.947 144.761 85.2104 144.959 84.519 145.163C83.839 145.356 83.2724 145.52 82.819 145.656C82.7737 145.463 82.7 145.231 82.598 144.959C82.496 144.676 82.3827 144.398 82.258 144.126C82.1334 143.843 82.0087 143.605 81.884 143.412C82.1334 143.367 82.5187 143.287 83.04 143.174C83.5614 143.061 84.179 142.936 84.893 142.8C85.6184 142.653 86.406 142.505 87.256 142.358C88.1174 142.211 88.9957 142.08 89.891 141.967C91.965 141.695 93.5517 141.859 94.651 142.46C95.7617 143.049 96.4587 144.064 96.742 145.503C96.9234 146.376 96.895 147.203 96.657 147.985C96.4304 148.756 95.9487 149.436 95.212 150.025C94.4867 150.614 93.461 151.085 92.135 151.436C91.5797 151.572 90.9904 151.714 90.367 151.861C89.755 151.997 89.1487 152.122 88.548 152.235C87.9474 152.348 87.392 152.445 86.882 152.524Z" fill="#E72A2D"/>
<path d="M67.893 152.575C67.1676 151.918 66.6236 151.107 66.261 150.144C65.8983 149.181 65.6943 148.064 65.649 146.795C65.6036 145.718 65.666 144.625 65.836 143.514C66.006 142.403 66.2326 141.327 66.516 140.284C66.822 140.375 67.179 140.477 67.587 140.59C67.995 140.703 68.369 140.788 68.709 140.845C68.3576 141.797 68.097 142.777 67.927 143.786C67.7683 144.795 67.7003 145.741 67.723 146.625C67.7456 147.248 67.8193 147.832 67.944 148.376C68.08 148.92 68.2556 149.368 68.471 149.719C68.607 149.934 68.7373 150.048 68.862 150.059C68.9866 150.059 69.1226 149.968 69.27 149.787C69.406 149.594 69.5703 149.317 69.763 148.954C69.967 148.591 70.137 148.24 70.273 147.9C70.4656 148.183 70.6866 148.472 70.936 148.767C71.1966 149.05 71.3893 149.271 71.514 149.43C71.344 149.963 71.1286 150.49 70.868 151.011C70.6186 151.521 70.3353 151.969 70.018 152.354C69.3493 153.181 68.641 153.255 67.893 152.575ZM77.719 149.906C77.4923 149.283 77.2146 148.642 76.886 147.985C76.5686 147.316 76.2116 146.67 75.815 146.047C75.4296 145.412 75.0216 144.84 74.591 144.33C74.9083 144.251 75.2426 144.137 75.594 143.99C75.9453 143.831 76.223 143.695 76.427 143.582C76.869 144.047 77.311 144.602 77.753 145.248C78.195 145.894 78.5973 146.557 78.96 147.237C79.3226 147.906 79.5946 148.529 79.776 149.107C79.5266 149.186 79.2093 149.294 78.824 149.43C78.4386 149.566 78.0703 149.725 77.719 149.906Z" fill="#E72A2D"/>
<path d="M173.445 121.44C172.245 121.44 171.232 121.16 170.405 120.6C169.578 120.04 169.218 119.36 169.325 118.56C169.405 118.027 169.618 117.627 169.965 117.36C170.312 117.067 170.698 116.92 171.125 116.92C171.658 116.92 172.072 117.08 172.365 117.4C172.658 117.72 172.925 118.093 173.165 118.52C173.405 118.92 173.685 119.28 174.005 119.6C174.325 119.92 174.778 120.08 175.365 120.08C175.845 120.08 176.192 119.947 176.405 119.68C176.618 119.413 176.765 119.013 176.845 118.48C176.952 117.627 176.805 116.907 176.405 116.32C176.032 115.707 175.525 115.16 174.885 114.68C174.272 114.173 173.658 113.667 173.045 113.16C172.432 112.653 171.952 112.093 171.605 111.48C171.258 110.84 171.165 110.08 171.325 109.2C171.458 108.56 171.792 107.933 172.325 107.32C172.858 106.68 173.552 106.16 174.405 105.76C175.258 105.36 176.218 105.16 177.285 105.16C178.538 105.16 179.525 105.373 180.245 105.8C180.965 106.227 181.285 106.813 181.205 107.56C181.125 108.093 180.898 108.507 180.525 108.8C180.152 109.067 179.778 109.2 179.405 109.2C178.765 109.2 178.312 109.053 178.045 108.76C177.778 108.467 177.565 108.133 177.405 107.76C177.272 107.36 177.085 107.013 176.845 106.72C176.605 106.427 176.178 106.28 175.565 106.28C175.085 106.28 174.738 106.413 174.525 106.68C174.312 106.947 174.178 107.227 174.125 107.52C173.992 108.267 174.112 108.933 174.485 109.52C174.885 110.107 175.405 110.653 176.045 111.16C176.685 111.64 177.312 112.147 177.925 112.68C178.538 113.213 179.032 113.8 179.405 114.44C179.778 115.08 179.885 115.827 179.725 116.68C179.618 117.347 179.285 118.053 178.725 118.8C178.165 119.547 177.432 120.173 176.525 120.68C175.645 121.187 174.618 121.44 173.445 121.44Z" fill="#E72A2D"/>
<path d="M153.182 121.52C152.062 121.52 151.262 121.093 150.782 120.24C150.328 119.36 150.275 118.027 150.622 116.24L152.022 109.12C152.155 108.347 152.155 107.84 152.022 107.6C151.915 107.36 151.742 107.24 151.502 107.24C151.235 107.24 150.928 107.373 150.582 107.64C150.235 107.907 149.848 108.24 149.422 108.64C149.315 108.747 149.208 108.747 149.102 108.64C148.995 108.533 148.995 108.427 149.102 108.32C149.955 107.307 150.728 106.533 151.422 106C152.115 105.467 152.848 105.2 153.622 105.2C154.422 105.2 154.982 105.507 155.302 106.12C155.648 106.733 155.675 107.733 155.382 109.12L154.142 115.48C153.875 116.76 153.848 117.707 154.062 118.32C154.275 118.933 154.662 119.24 155.222 119.24C155.995 119.24 156.782 118.733 157.582 117.72C158.408 116.707 159.182 115.227 159.902 113.28C160.622 111.307 161.222 108.893 161.702 106.04L162.422 106.08C161.915 109.227 161.195 111.96 160.262 114.28C159.328 116.6 158.262 118.387 157.062 119.64C155.862 120.893 154.568 121.52 153.182 121.52ZM161.382 121.36C160.528 121.36 159.968 121.067 159.702 120.48C159.462 119.867 159.435 119.013 159.622 117.92L161.702 106.04C161.835 105.507 162.582 105.24 163.942 105.24C164.475 105.24 164.822 105.28 164.982 105.36C165.168 105.44 165.262 105.507 165.262 105.56C165.262 105.667 165.195 106.013 165.062 106.6C164.928 107.187 164.795 107.827 164.662 108.52L163.022 117.44C162.782 118.747 162.982 119.4 163.622 119.4C163.888 119.4 164.208 119.267 164.582 119C164.982 118.733 165.435 118.333 165.942 117.8C166.022 117.693 166.115 117.707 166.222 117.84C166.328 117.947 166.342 118.053 166.262 118.16C165.302 119.307 164.435 120.133 163.662 120.64C162.915 121.12 162.155 121.36 161.382 121.36Z" fill="#E72A2D"/>
<path d="M127.211 132C127.131 132.027 127.077 131.96 127.051 131.8C126.997 131.64 127.024 131.547 127.131 131.52C127.664 131.387 128.064 131.227 128.331 131.04C128.571 130.88 128.757 130.587 128.891 130.16C129.024 129.76 129.157 129.173 129.291 128.4L133.371 105.56C133.371 105.48 133.531 105.36 133.851 105.2C134.171 105.013 134.544 104.787 134.971 104.52C135.424 104.253 135.824 103.947 136.171 103.6C136.544 103.227 136.784 102.84 136.891 102.44C136.944 102.333 137.037 102.293 137.171 102.32C137.304 102.347 137.357 102.413 137.331 102.52L132.811 128.12C132.624 129.16 132.651 129.813 132.891 130.08C133.157 130.347 133.757 130.427 134.691 130.32C134.797 130.32 134.877 130.387 134.931 130.52C134.984 130.653 134.944 130.733 134.811 130.76L127.211 132ZM135.691 121.04C135.024 121.04 134.357 121 133.691 120.92C133.051 120.84 132.544 120.76 132.171 120.68L132.571 118.2C133.131 118.627 133.771 119.013 134.491 119.36C135.211 119.68 136.104 119.84 137.171 119.84C138.077 119.84 138.837 119.507 139.451 118.84C140.064 118.147 140.557 117.227 140.931 116.08C141.331 114.933 141.611 113.64 141.771 112.2C141.877 111.347 141.851 110.547 141.691 109.8C141.557 109.053 141.237 108.44 140.731 107.96C140.251 107.48 139.517 107.24 138.531 107.24C137.357 107.24 136.144 107.533 134.891 108.12C133.637 108.68 132.237 109.507 130.691 110.6C130.584 110.707 130.477 110.693 130.371 110.56C130.291 110.427 130.304 110.307 130.411 110.2C132.117 108.787 133.904 107.613 135.771 106.68C137.664 105.747 139.504 105.28 141.291 105.28C142.891 105.28 144.037 105.76 144.731 106.72C145.424 107.68 145.637 109.067 145.371 110.88C145.184 112.24 144.771 113.533 144.131 114.76C143.517 115.987 142.757 117.08 141.851 118.04C140.971 118.973 139.997 119.707 138.931 120.24C137.864 120.773 136.784 121.04 135.691 121.04Z" fill="#E72A2D"/>
<path d="M122.508 121.36C121.601 121.36 121.028 121.027 120.788 120.36C120.548 119.693 120.535 118.72 120.748 117.44L121.948 111.08C122.161 109.8 122.188 108.853 122.028 108.24C121.868 107.627 121.521 107.32 120.988 107.32C120.348 107.32 119.641 107.813 118.868 108.8C118.095 109.76 117.348 111.213 116.628 113.16C115.908 115.107 115.308 117.56 114.828 120.52L114.108 120.48C114.641 117.227 115.361 114.453 116.268 112.16C117.175 109.84 118.215 108.08 119.388 106.88C120.561 105.653 121.788 105.04 123.068 105.04C124.108 105.04 124.841 105.467 125.268 106.32C125.721 107.173 125.775 108.507 125.428 110.32L124.148 117.44C124.015 118.187 124.001 118.693 124.108 118.96C124.241 119.2 124.428 119.32 124.668 119.32C124.961 119.32 125.268 119.187 125.588 118.92C125.935 118.653 126.321 118.32 126.748 117.92C126.855 117.813 126.961 117.813 127.068 117.92C127.175 118.027 127.175 118.133 127.068 118.24C126.241 119.227 125.468 120 124.748 120.56C124.028 121.093 123.281 121.36 122.508 121.36ZM103.708 121.32C103.201 121.32 102.855 121.28 102.668 121.2C102.481 121.147 102.388 121.08 102.388 121C102.388 120.893 102.455 120.547 102.588 119.96C102.748 119.373 102.881 118.733 102.988 118.04L104.628 109.12C104.868 107.813 104.668 107.16 104.028 107.16C103.761 107.16 103.428 107.293 103.028 107.56C102.655 107.827 102.215 108.227 101.708 108.76C101.628 108.867 101.535 108.867 101.428 108.76C101.321 108.627 101.308 108.507 101.388 108.4C102.348 107.253 103.215 106.44 103.988 105.96C104.761 105.453 105.521 105.2 106.268 105.2C107.121 105.2 107.681 105.507 107.948 106.12C108.215 106.707 108.241 107.547 108.028 108.64L105.948 120.52C105.815 121.053 105.068 121.32 103.708 121.32ZM112.588 121.32C112.081 121.32 111.735 121.28 111.548 121.2C111.361 121.147 111.268 121.08 111.268 121C111.268 120.893 111.335 120.547 111.468 119.96C111.628 119.373 111.761 118.733 111.868 118.04L113.188 111C113.428 109.693 113.441 108.76 113.228 108.2C113.015 107.613 112.641 107.32 112.108 107.32C111.415 107.32 110.668 107.84 109.868 108.88C109.095 109.92 108.361 111.427 107.668 113.4C106.975 115.347 106.401 117.72 105.948 120.52L105.228 120.48C105.735 117.307 106.428 114.573 107.308 112.28C108.215 109.96 109.255 108.173 110.428 106.92C111.628 105.667 112.895 105.04 114.228 105.04C115.241 105.04 115.975 105.453 116.428 106.28C116.908 107.107 116.988 108.427 116.668 110.24L114.828 120.52C114.748 121.053 114.001 121.32 112.588 121.32Z" fill="#E72A2D"/>
<path d="M84.0544 121.52C83.1478 121.52 82.4278 121.2 81.8944 120.56C81.3878 119.893 81.2411 118.827 81.4544 117.36C81.6411 116 82.0944 114.613 82.8144 113.2C83.5611 111.76 84.4678 110.427 85.5344 109.2C86.6278 107.947 87.7744 106.947 88.9744 106.2C90.2011 105.427 91.3744 105.04 92.4944 105.04C93.0278 105.04 93.5744 105.147 94.1344 105.36C94.6944 105.547 95.1744 105.867 95.5744 106.32C96.0011 106.747 96.2411 107.32 96.2944 108.04L93.8944 106.72C94.3478 106.667 94.8144 106.453 95.2944 106.08C95.8011 105.707 96.2278 105.253 96.5744 104.72C96.6278 104.64 96.7211 104.627 96.8544 104.68C97.0144 104.733 97.0811 104.787 97.0544 104.84L94.7344 117.44C94.4944 118.693 94.6411 119.32 95.1744 119.32C95.4411 119.32 95.7611 119.2 96.1344 118.96C96.5078 118.693 96.9078 118.347 97.3344 117.92C97.4144 117.84 97.5078 117.853 97.6144 117.96C97.7211 118.067 97.7344 118.16 97.6544 118.24C96.8278 119.227 96.0411 120 95.2944 120.56C94.5744 121.093 93.8678 121.36 93.1744 121.36C92.3211 121.36 91.7344 121.053 91.4144 120.44C91.1211 119.8 91.0811 118.8 91.2944 117.44L92.2944 111.84L93.1344 111.16C92.4944 113.347 91.6678 115.213 90.6544 116.76C89.6411 118.307 88.5611 119.493 87.4144 120.32C86.2678 121.12 85.1478 121.52 84.0544 121.52ZM86.6144 118.6C87.2544 118.6 87.8944 118.347 88.5344 117.84C89.1744 117.333 89.7611 116.68 90.2944 115.88C90.8544 115.08 91.3211 114.24 91.6944 113.36C92.0944 112.453 92.3611 111.627 92.4944 110.88C92.7078 109.68 92.6278 108.733 92.2544 108.04C91.8811 107.347 91.2944 107 90.4944 107C89.7478 107 89.0144 107.307 88.2944 107.92C87.5744 108.533 86.9344 109.373 86.3744 110.44C85.8144 111.507 85.4144 112.733 85.1744 114.12C84.9078 115.8 84.9344 116.973 85.2544 117.64C85.5744 118.28 86.0278 118.6 86.6144 118.6Z" fill="#E72A2D"/>
<path d="M68.0188 121.48C65.6454 121.48 63.7121 121.093 62.2188 120.32C60.7254 119.52 59.6054 118.48 58.8588 117.2C58.1121 115.92 57.6454 114.52 57.4588 113C57.2988 111.48 57.3521 109.973 57.6188 108.48C57.9921 106.427 58.6588 104.6 59.6188 103C60.6054 101.4 61.7921 100.053 63.1788 98.96C64.5654 97.84 66.0721 97 67.6988 96.44C69.3254 95.8533 70.9788 95.56 72.6588 95.56C73.7521 95.56 74.8588 95.68 75.9788 95.92C77.1254 96.1333 78.0054 96.4 78.6188 96.72C78.8054 96.8267 78.9121 96.9333 78.9388 97.04C78.9654 97.1467 78.9654 97.3467 78.9388 97.64L78.2988 103C78.2988 103.08 78.2321 103.12 78.0988 103.12C77.9654 103.12 77.8854 103.08 77.8588 103C77.4054 101.027 76.5788 99.48 75.3788 98.36C74.2054 97.2133 72.7521 96.64 71.0188 96.64C69.4988 96.64 68.1121 97.0667 66.8588 97.92C65.6321 98.7467 64.6054 99.9467 63.7788 101.52C62.9788 103.067 62.4188 104.947 62.0988 107.16C61.8321 108.973 61.7788 110.693 61.9388 112.32C62.0988 113.947 62.4454 115.387 62.9788 116.64C63.5121 117.893 64.2188 118.88 65.0988 119.6C66.0054 120.32 67.0588 120.68 68.2588 120.68C69.5921 120.68 70.9521 120.187 72.3388 119.2C73.7254 118.213 75.1921 116.68 76.7388 114.6C76.8188 114.493 76.9121 114.48 77.0188 114.56C77.1521 114.613 77.2054 114.667 77.1788 114.72L76.0988 119.32C76.0188 119.64 75.9388 119.867 75.8588 120C75.7788 120.107 75.6188 120.187 75.3788 120.24C74.0454 120.693 72.7388 121.013 71.4588 121.2C70.2054 121.387 69.0588 121.48 68.0188 121.48Z" fill="#E72A2D"/>
<path d="M153.927 89.36C153.047 89.36 152.474 89.0267 152.207 88.36C151.967 87.6933 151.967 86.72 152.207 85.44L153.367 79.08C153.847 76.5733 153.487 75.32 152.287 75.32C151.541 75.32 150.754 75.8267 149.927 76.84C149.101 77.8533 148.327 79.3467 147.607 81.32C146.887 83.2667 146.287 85.6667 145.807 88.52L145.087 88.48C145.621 85.3067 146.341 82.5733 147.247 80.28C148.181 77.96 149.247 76.1733 150.447 74.92C151.674 73.6667 152.967 73.04 154.327 73.04C155.447 73.04 156.234 73.4667 156.687 74.32C157.141 75.1733 157.207 76.5067 156.887 78.32L155.567 85.44C155.434 86.1867 155.421 86.6933 155.527 86.96C155.661 87.2 155.847 87.32 156.087 87.32C156.381 87.32 156.701 87.1867 157.047 86.92C157.394 86.6533 157.781 86.32 158.207 85.92C158.287 85.8133 158.381 85.8133 158.487 85.92C158.594 86.0267 158.607 86.1333 158.527 86.24C157.701 87.2267 156.927 88 156.207 88.56C155.487 89.0933 154.727 89.36 153.927 89.36ZM143.567 89.32C143.061 89.32 142.714 89.28 142.527 89.2C142.341 89.1467 142.247 89.08 142.247 89C142.247 88.8933 142.314 88.5467 142.447 87.96C142.607 87.3733 142.741 86.7333 142.847 86.04L144.487 77.12C144.727 75.8133 144.527 75.16 143.887 75.16C143.621 75.16 143.287 75.2933 142.887 75.56C142.514 75.8267 142.074 76.2267 141.567 76.76C141.487 76.8667 141.394 76.8667 141.287 76.76C141.181 76.6267 141.167 76.5067 141.247 76.4C142.207 75.2533 143.074 74.44 143.847 73.96C144.621 73.4533 145.381 73.2 146.127 73.2C146.981 73.2 147.541 73.5067 147.807 74.12C148.074 74.7067 148.101 75.5467 147.887 76.64L145.807 88.52C145.674 89.0533 144.927 89.32 143.567 89.32Z" fill="#E72A2D"/>
<path d="M130.47 89.48C128.924 89.48 127.71 89.0933 126.83 88.32C125.977 87.5467 125.417 86.56 125.15 85.36C124.91 84.16 124.91 82.9067 125.15 81.6C125.364 80.56 125.75 79.5333 126.31 78.52C126.87 77.48 127.577 76.56 128.43 75.76C129.284 74.9333 130.257 74.28 131.35 73.8C132.444 73.2933 133.617 73.04 134.87 73.04C135.964 73.04 136.777 73.2267 137.31 73.6C137.87 73.9733 138.124 74.5067 138.07 75.2C137.99 75.8933 137.63 76.56 136.99 77.2C136.35 77.84 135.497 78.4133 134.43 78.92C133.39 79.4267 132.217 79.8667 130.91 80.24C129.63 80.5867 128.324 80.8267 126.99 80.96L127.07 80.44C128.964 80.1467 130.55 79.6667 131.83 79C133.11 78.3067 133.844 77.32 134.03 76.04C134.137 75.4533 134.07 74.9867 133.83 74.64C133.617 74.2933 133.27 74.12 132.79 74.12C132.177 74.12 131.617 74.4 131.11 74.96C130.63 75.4933 130.204 76.2267 129.83 77.16C129.484 78.0933 129.217 79.1333 129.03 80.28C128.817 81.64 128.804 82.88 128.99 84C129.177 85.12 129.59 86.0267 130.23 86.72C130.87 87.3867 131.737 87.72 132.83 87.72C133.337 87.72 133.91 87.6267 134.55 87.44C135.217 87.2533 135.844 86.9333 136.43 86.48C136.484 86.4267 136.55 86.4533 136.63 86.56C136.737 86.6667 136.764 86.7467 136.71 86.8C135.697 87.7867 134.644 88.48 133.55 88.88C132.484 89.28 131.457 89.48 130.47 89.48Z" fill="#E72A2D"/>
<path d="M103.179 100C103.099 100.027 103.046 99.96 103.019 99.8C102.966 99.64 102.993 99.5467 103.099 99.52C103.633 99.3867 104.033 99.2267 104.299 99.04C104.539 98.88 104.726 98.5867 104.859 98.16C104.993 97.76 105.126 97.1733 105.259 96.4L109.339 73.56C109.339 73.48 109.499 73.36 109.819 73.2C110.139 73.0133 110.513 72.7867 110.939 72.52C111.393 72.2533 111.793 71.9467 112.139 71.6C112.513 71.2267 112.753 70.84 112.859 70.44C112.913 70.3333 113.006 70.2933 113.139 70.32C113.273 70.3467 113.326 70.4133 113.299 70.52L108.779 96.12C108.593 97.16 108.619 97.8133 108.859 98.08C109.126 98.3467 109.726 98.4267 110.659 98.32C110.766 98.32 110.846 98.3867 110.899 98.52C110.953 98.6533 110.913 98.7333 110.779 98.76L103.179 100ZM111.659 89.04C110.993 89.04 110.326 89 109.659 88.92C109.019 88.84 108.513 88.76 108.139 88.68L108.539 86.2C109.099 86.6267 109.739 87.0133 110.459 87.36C111.179 87.68 112.073 87.84 113.139 87.84C114.046 87.84 114.806 87.5067 115.419 86.84C116.033 86.1467 116.526 85.2267 116.899 84.08C117.299 82.9333 117.579 81.64 117.739 80.2C117.846 79.3467 117.819 78.5467 117.659 77.8C117.526 77.0533 117.206 76.44 116.699 75.96C116.219 75.48 115.486 75.24 114.499 75.24C113.326 75.24 112.113 75.5333 110.859 76.12C109.606 76.68 108.206 77.5067 106.659 78.6C106.553 78.7067 106.446 78.6933 106.339 78.56C106.259 78.4267 106.273 78.3067 106.379 78.2C108.086 76.7867 109.873 75.6133 111.739 74.68C113.633 73.7467 115.473 73.28 117.259 73.28C118.859 73.28 120.006 73.76 120.699 74.72C121.393 75.68 121.606 77.0667 121.339 78.88C121.153 80.24 120.739 81.5333 120.099 82.76C119.486 83.9867 118.726 85.08 117.819 86.04C116.939 86.9733 115.966 87.7067 114.899 88.24C113.833 88.7733 112.753 89.04 111.659 89.04Z" fill="#E72A2D"/>
<path d="M88.8885 89.48C86.6485 89.48 84.7952 88.9067 83.3285 87.76C81.8618 86.5867 80.8352 85.0133 80.2485 83.04C79.6885 81.0667 79.6218 78.88 80.0485 76.48C80.3685 74.6133 80.9552 72.8933 81.8085 71.32C82.6618 69.7467 83.7152 68.3867 84.9685 67.24C86.2485 66.0667 87.6618 65.16 89.2085 64.52C90.7552 63.88 92.3818 63.56 94.0885 63.56C96.3818 63.56 98.2752 64.1333 99.7685 65.28C101.262 66.4267 102.302 67.9733 102.888 69.92C103.502 71.8667 103.582 74.0533 103.128 76.48C102.782 78.5067 102.142 80.32 101.208 81.92C100.275 83.52 99.1552 84.88 97.8485 86C96.5418 87.12 95.1152 87.9867 93.5685 88.6C92.0485 89.1867 90.4885 89.48 88.8885 89.48ZM90.6085 88.44C92.5018 88.44 94.1685 87.56 95.6085 85.8C97.0752 84.0133 98.0618 81.6133 98.5685 78.6C98.8885 76.76 98.9818 75 98.8485 73.32C98.7418 71.64 98.4218 70.1467 97.8885 68.84C97.3818 67.5067 96.6752 66.4533 95.7685 65.68C94.8618 64.9067 93.7818 64.52 92.5285 64.52C90.6352 64.52 88.9685 65.4 87.5285 67.16C86.0885 68.92 85.1018 71.32 84.5685 74.36C84.2752 76.1467 84.1818 77.88 84.2885 79.56C84.3952 81.24 84.7018 82.7467 85.2085 84.08C85.7152 85.4133 86.4218 86.48 87.3285 87.28C88.2352 88.0533 89.3285 88.44 90.6085 88.44Z" fill="#E72A2D"/>
<rect x="108" y="168" width="28" height="28" rx="14" fill="white"/>
<path fill-rule="evenodd" clip-rule="evenodd" d="M125.761 182.576L121.152 187.185L120 186.033L124.033 182L120 177.967L121.152 176.815L125.761 181.424C125.914 181.577 126 181.784 126 182C126 182.216 125.914 182.423 125.761 182.576Z" fill="#EA2432"/>
<defs>
<filter id="filter0_d_1_392" x="0" y="0" width="239" height="239" filterUnits="userSpaceOnUse" color-interpolation-filters="sRGB">
<feFlood flood-opacity="0" result="BackgroundImageFix"/>
<feColorMatrix in="SourceAlpha" type="matrix" values="0 0 0 0 0 0 0 0 0 0 0 0 0 0 0 0 0 0 127 0" result="hardAlpha"/>
<feOffset/>
<feGaussianBlur stdDeviation="10"/>
<feComposite in2="hardAlpha" operator="out"/>
<feColorMatrix type="matrix" values="0 0 0 0 0.923077 0 0 0 0 0.368343 0 0 0 0 0.377589 0 0 0 1 0"/>
<feBlend mode="normal" in2="BackgroundImageFix" result="effect1_dropShadow_1_392"/>
<feBlend mode="normal" in="SourceGraphic" in2="effect1_dropShadow_1_392" result="shape"/>
</filter>
<linearGradient id="paint0_linear_1_392" x1="44" y1="178.5" x2="190" y2="54" gradientUnits="userSpaceOnUse">
<stop stop-color="#F2EE7F"/>
<stop offset="0.567694" stop-color="#FAF8B9"/>
<stop offset="0.645526" stop-color="#FAF8B9"/>
<stop offset="0.825532" stop-color="#FAF8B9"/>
<stop offset="1" stop-color="#F2EE7F"/>
</linearGradient>
</defs>
</svg>
