<?xml version="1.0" encoding="UTF-8"?><svg id="_レイヤー_2" xmlns="http://www.w3.org/2000/svg" xmlns:xlink="http://www.w3.org/1999/xlink" viewBox="0 0 214.52 38.42"><defs><style>.cls-1{fill:#e94738;}.cls-1,.cls-2,.cls-3,.cls-4,.cls-5,.cls-6,.cls-7{stroke-width:0px;}.cls-2{fill:url(#_名称未設定グラデーション_22);}.cls-3{fill:url(#_名称未設定グラデーション_22-5);}.cls-4{fill:url(#_名称未設定グラデーション_22-3);}.cls-5{fill:#fff;}.cls-6{fill:url(#_名称未設定グラデーション_22-4);}.cls-7{fill:url(#_名称未設定グラデーション_22-2);}</style><linearGradient id="_名称未設定グラデーション_22" x1="13.97" y1="51.57" x2="78.73" y2="-13.18" gradientUnits="userSpaceOnUse"><stop offset=".11" stop-color="#e1a300"/><stop offset=".15" stop-color="#e3ab0b"/><stop offset=".24" stop-color="#e8b91d"/><stop offset=".34" stop-color="#ecc229"/><stop offset=".44" stop-color="#edc52d"/><stop offset=".9" stop-color="#d79900"/></linearGradient><linearGradient id="_名称未設定グラデーション_22-2" x1="128.02" y1="53.85" x2="191.86" y2="-9.99" xlink:href="#_名称未設定グラデーション_22"/><linearGradient id="_名称未設定グラデーション_22-3" x1="128.02" y1="53.85" x2="191.86" y2="-9.99" xlink:href="#_名称未設定グラデーション_22"/><linearGradient id="_名称未設定グラデーション_22-4" x1="128.02" y1="53.85" x2="191.86" y2="-9.99" xlink:href="#_名称未設定グラデーション_22"/><linearGradient id="_名称未設定グラデーション_22-5" x1="128.02" y1="53.85" x2="191.86" y2="-9.99" xlink:href="#_名称未設定グラデーション_22"/></defs><g id="_ワーク"><polygon class="cls-2" points="92.7 37.6 0 37.6 0 .79 92.7 .79 103.6 19.19 92.7 37.6"/><path class="cls-5" d="M16.01,22.08c-.35,2.68-.71,3.92-1.75,6.13-.62-.58-1.11-.89-1.99-1.35,1-1.59,1.46-2.99,1.73-5.24l2.01.46ZM17.01,11.15c0-.93-.02-1.31-.11-1.77h2.61c-.07.42-.09.8-.09,1.73v.55h1.97c1,0,1.46-.02,2.08-.13v2.39c-.62-.09-1.11-.11-2.08-.11h-6.62c-.97,0-1.5.02-2.12.11v-2.39c.62.11,1,.13,2.1.13h2.26v-.51ZM15.79,20.8c-.88,0-1.5.02-2.15.09.07-.64.09-1.19.09-2.04v-1.9c0-.82-.02-1.33-.09-1.99.62.07,1.22.09,2.12.09h4.74c.91,0,1.46-.02,2.08-.09-.07.55-.09,1.06-.09,1.95v1.97c0,.93.02,1.44.09,2.01-.64-.07-1.17-.09-2.06-.09h-1.17v6.66c0,.77-.22,1.37-.64,1.7-.38.29-1,.4-2.08.4-.24,0-.51,0-1.13-.02-.09-.95-.16-1.26-.46-2.26.53.09.97.11,1.44.11s.58-.09.58-.49v-6.11h-1.26ZM16.03,18.79h4.16v-1.75h-4.16v1.75ZM21.41,21.38c.6,1.19.95,1.97,1.48,3.41l-1.84,1c-.33-1.42-.6-2.12-1.33-3.69l1.68-.71ZM25.19,16.93c-.95,0-1.48.02-2.06.11v-2.5c.51.09,1.02.11,2.06.11h.62c.07-1.22.09-2.01.09-3.03,0-.91-.02-1.55-.11-2.1h2.52c-.07.46-.11,1.11-.11,1.99-.02,1.04-.04,1.9-.13,3.14h2.5c1.11,0,1.62-.02,2.17-.11v2.5c-.64-.09-1.13-.11-2.17-.11h-2.72c-.07.44-.07.51-.2,1.33h2.01c-.07.53-.09.8-.09,1.75l-.07,6.59c-.02.4.11.49.73.49.77,0,.84-.24.84-3.94.84.49,1.39.71,2.01.84-.09,2.7-.18,3.56-.51,4.31-.35.82-1.02,1.08-2.61,1.08-.91,0-1.57-.09-1.97-.29-.46-.22-.64-.62-.62-1.44l.07-7.66v-.51c-.42,2.26-1.22,4.54-2.28,6.46-.93,1.66-1.57,2.52-3.05,4-.62-.82-1-1.22-1.77-1.88.95-.89,1.11-1.04,1.68-1.77,1.17-1.48,1.73-2.46,2.32-4.12.64-1.75.97-3.19,1.24-5.27h-.4ZM30.22,9.74c1.11,1.24,1.48,1.75,2.43,3.25l-1.79,1.37c-.82-1.57-1.31-2.3-2.3-3.52l1.66-1.11Z"/><path class="cls-5" d="M52.16,13.21q-.51-.04-.71-.04c-.16.91-.33,1.66-.55,2.37h1.77q-.04-1.55-.07-4.49c0-.88-.02-1.08-.07-1.59h2.3c-.11.77-.11,1.13-.11,2.81,0,.77.02,2.61.04,3.28h1.28c1.33,0,1.77-.02,2.48-.13v2.32c-.82-.09-1.17-.11-2.48-.11h-1.22c.11,1.73.24,2.9.42,4.05.58-1.13,1.11-2.43,1.24-3.14l1.79,1.13c-.13.26-.31.66-.49,1.06-.49,1.19-1.24,2.63-1.88,3.65.31.91.49,1.35.75,1.81.2.35.29.46.33.46.16,0,.31-1.04.38-2.79.58.51,1.19.93,1.75,1.2-.18,1.7-.35,2.57-.64,3.23-.31.66-.8,1.02-1.37,1.02-.93,0-1.97-1.06-2.74-2.85-1.11,1.31-2.04,2.15-3.56,3.27-.55-.88-.77-1.13-1.39-1.7.77-.51,1.06-.71,1.5-1.06h-3.38v1.44h-1.99c.04-.64.09-1.2.09-1.92v-6c0-.97-.02-1.24-.07-1.97.38.04.62.07,1.39.07h3.52c.64,0,.93-.02,1.44-.07-.04.51-.04.84-.04,1.97v5.69c.62-.6,1.13-1.17,1.75-1.95-.49-1.84-.69-3.39-.88-6.59h-8.21v9.8c0,1.15.02,1.7.11,2.34h-2.24c.07-.64.11-1.33.11-2.37v-1.66c-.97.31-2.01.64-2.79.86-1.04.27-1.11.29-1.48.44l-.51-2.39c.24,0,.58-.04,1.22-.18v-12.32c-.46.02-.66.04-.97.09v-2.35c.46.07.97.11,1.86.11h3.47c.95,0,1.42-.02,1.92-.11v1.35c.44.07.8.09,1.37.09h1.06v-.13c0-.88-.04-1.28-.13-1.79h2.37c-.09.51-.11.93-.11,1.79v.13h.8c.8,0,1.13-.02,1.57-.07v1.95ZM40.99,14.74h1.53v-2.59h-1.53v2.59ZM40.99,19.07h1.53v-2.37h-1.53v2.37ZM40.99,24.01c.73-.18.93-.24,1.53-.42v-2.54h-1.53v2.96ZM46.43,15.54c-.11-.66-.27-1.48-.49-2.39-.33.02-.42.02-.75.07v-1.02c-.31-.02-.4-.02-.66-.04v3.39h1.9ZM47.52,25.12h2.5v-1.57h-2.5v1.57ZM47.54,21.82h2.48v-1.42h-2.48v1.42ZM47.82,13.15c.13.64.27,1.44.38,2.39h.93c.2-.69.38-1.5.49-2.39h-1.79ZM56.76,10.31c.8,1.22,1.17,1.92,1.77,3.34l-1.75,1.02c-.51-1.59-.84-2.3-1.64-3.5l1.62-.86Z"/><path class="cls-5" d="M66.45,25.31c-1,0-1.62.02-2.59.13v-2.43c.55.09,1.44.13,2.37.13h6.37v-.18c0-.55-.02-1-.09-1.31h2.63c-.07.33-.09.77-.09,1.31v.18h6.84c.91,0,1.64-.04,2.28-.13v2.43c-.75-.09-1.62-.13-2.59-.13h-6.53v2.46c0,.86.04,1.44.15,2.15h-2.77c.11-.73.16-1.33.16-2.15v-2.46h-6.15ZM70.54,13.68c.4.29.51.38.84.64.4-.53.55-.77.82-1.28h-5.8c-.95,0-1.57.02-2.28.11v-2.41c.73.09,1.46.13,2.61.13h5.91v-.22c0-.53-.04-.93-.13-1.39h2.7c-.09.49-.13.84-.13,1.37v.24h6.31c1.17,0,1.92-.04,2.63-.13v2.41c-.71-.09-1.33-.11-2.3-.11h-7.1c-.64,1.06-1.04,1.62-1.79,2.52.44.4.53.51.91.91.97-1.06,1.37-1.57,2.21-2.74l1.77,1.17c-1.33,1.59-2.61,2.85-4.62,4.56,1.62-.07,2.06-.09,3.08-.22-.31-.46-.46-.69-.95-1.31l1.62-.69c1.22,1.53,1.37,1.73,2.72,4.05l-1.9.77c-.29-.66-.4-.88-.58-1.26-2.19.35-3.58.51-7.15.8-.51.02-.88.07-1.08.09l-.22-1.53c-1.08.77-1.97,1.28-3.78,2.19l-.88-2.3c1.73-.46,3.43-1.37,4.89-2.61l1.11,1.73-.53.42h.24s.64-.02.8-.02c.82-.69,1.17-1,1.84-1.64-.91-1-1.88-1.84-3.19-2.72l1.44-1.53ZM66.27,13.34c1.26.97,2.12,1.73,3.08,2.77l-1.66,1.64c-1.06-1.28-1.73-1.92-3.1-2.94l1.68-1.46ZM83,14.83c-1.24,1.24-2.32,2.12-3.87,3.19l-1.53-1.62c1.64-1.06,2.5-1.79,3.65-3.05l1.75,1.48ZM80.01,17.79c1.81,1.11,2.3,1.46,3.94,2.81l-1.57,1.84c-1.22-1.28-2.21-2.12-3.72-3.12l1.35-1.53Z"/><path class="cls-1" d="M120.71.45c.79-.34,1.48-.45,1.99-.45h.11c1.02,0,1.59.85,1.42,1.76l-5.84,32.74c-.28,1.99-2.44,3.69-4.6,3.69-2.04,0-3.63-1.76-3.35-3.69l4.48-24.8-2.78,1.08c-1.53.62-3.35,0-3.8-1.59-.51-1.59.4-3.52,1.99-4.2L120.71.45Z"/><path class="cls-1" d="M144.55,0c10.84,0,12.2,8.57,10.33,19.29-1.87,10.61-6.24,19.12-17.08,19.12s-12.48-8.51-10.61-19.12c1.87-10.73,6.53-19.29,17.37-19.29ZM139.04,30.7c4.48,0,6.87-5.16,7.95-11.41,1.13-6.3.68-11.58-3.8-11.58s-6.87,5.28-8,11.58c-1.08,6.24-.68,11.41,3.86,11.41Z"/><path class="cls-1" d="M176.95,0c10.84,0,12.2,8.57,10.33,19.29-1.87,10.61-6.24,19.12-17.08,19.12s-12.48-8.51-10.61-19.12c1.87-10.73,6.53-19.29,17.37-19.29ZM171.44,30.7c4.48,0,6.87-5.16,7.95-11.41,1.13-6.3.68-11.58-3.8-11.58s-6.87,5.28-8,11.58c-1.08,6.24-.68,11.41,3.86,11.41Z"/><path class="cls-1" d="M197.7,9.73c3.15,0,5.28,2.55,4.72,5.7-.55,3.19-3.58,5.66-6.72,5.66s-5.19-2.47-4.64-5.66c.55-3.15,3.45-5.7,6.64-5.7ZM195.62,37.23c-.42.68-1.4.89-2.08.51-.68-.34-.85-1.23-.38-1.92l16.72-25.11c.47-.68,1.49-.89,2.13-.51.64.38.85,1.23.34,1.92l-16.73,25.11ZM196.34,17.65c1.23,0,2.38-.94,2.64-2.21.21-1.23-.64-2.26-1.87-2.26s-2.38,1.02-2.6,2.26c-.25,1.28.55,2.21,1.83,2.21ZM209.71,26.93c3.15,0,5.28,2.55,4.72,5.7-.55,3.19-3.53,5.66-6.68,5.66s-5.23-2.47-4.68-5.66c.55-3.15,3.45-5.7,6.64-5.7ZM208.34,34.84c1.23,0,2.38-.94,2.64-2.21.21-1.23-.64-2.25-1.87-2.25s-2.38,1.02-2.6,2.25c-.25,1.28.55,2.21,1.83,2.21Z"/><path class="cls-7" d="M120.71.45c.79-.34,1.48-.45,1.99-.45h.11c1.02,0,1.59.85,1.42,1.76l-5.84,32.74c-.28,1.99-2.44,3.69-4.6,3.69-2.04,0-3.63-1.76-3.35-3.69l4.48-24.8-2.78,1.08c-1.53.62-3.35,0-3.8-1.59-.51-1.59.4-3.52,1.99-4.2L120.71.45Z"/><path class="cls-4" d="M144.55,0c10.84,0,12.2,8.57,10.33,19.29-1.87,10.61-6.24,19.12-17.08,19.12s-12.48-8.51-10.61-19.12c1.87-10.73,6.53-19.29,17.37-19.29ZM139.04,30.7c4.48,0,6.87-5.16,7.95-11.41,1.13-6.3.68-11.58-3.8-11.58s-6.87,5.28-8,11.58c-1.08,6.24-.68,11.41,3.86,11.41Z"/><path class="cls-6" d="M176.95,0c10.84,0,12.2,8.57,10.33,19.29-1.87,10.61-6.24,19.12-17.08,19.12s-12.48-8.51-10.61-19.12c1.87-10.73,6.53-19.29,17.37-19.29ZM171.44,30.7c4.48,0,6.87-5.16,7.95-11.41,1.13-6.3.68-11.58-3.8-11.58s-6.87,5.28-8,11.58c-1.08,6.24-.68,11.41,3.86,11.41Z"/><path class="cls-3" d="M197.7,9.73c3.15,0,5.28,2.55,4.72,5.7-.55,3.19-3.58,5.66-6.72,5.66s-5.19-2.47-4.64-5.66c.55-3.15,3.45-5.7,6.64-5.7ZM195.62,37.23c-.42.68-1.4.89-2.08.51-.68-.34-.85-1.23-.38-1.92l16.72-25.11c.47-.68,1.49-.89,2.13-.51.64.38.85,1.23.34,1.92l-16.73,25.11ZM196.34,17.65c1.23,0,2.38-.94,2.64-2.21.21-1.23-.64-2.26-1.87-2.26s-2.38,1.02-2.6,2.26c-.25,1.28.55,2.21,1.83,2.21ZM209.71,26.93c3.15,0,5.28,2.55,4.72,5.7-.55,3.19-3.53,5.66-6.68,5.66s-5.23-2.47-4.68-5.66c.55-3.15,3.45-5.7,6.64-5.7ZM208.34,34.84c1.23,0,2.38-.94,2.64-2.21.21-1.23-.64-2.25-1.87-2.25s-2.38,1.02-2.6,2.25c-.25,1.28.55,2.21,1.83,2.21Z"/></g></svg>