<?xml version="1.0" encoding="UTF-8"?>
<svg id="_レイヤー_2" data-name="レイヤー 2" xmlns="http://www.w3.org/2000/svg" viewBox="0 0 47.36 1123.82">
  <defs>
    <style>
      .cls-1 {
        fill: #ccc;
      }
    </style>
  </defs>
  <g id="_レイヤー_1-2" data-name="レイヤー 1">
    <g>
      <path class="cls-1" d="M.64,1123.82v-8.04l27-3.55-27-3.49v-6.93l27.01-3.49-27.01-3.55v-7.85l46.07,7.11v7.82l-24.31,3.5,24.31,3.56v7.81l-46.07,7.11ZM1.64,1116.65v6l44.07-6.8v-6.09l-26.85-3.93v-.99l26.85-3.86v-6.09l-44.07-6.8v5.8l29.88,3.93v1.01l-29.88,3.86v5.17l29.88,3.86v1.01l-29.88,3.93Z"/>
      <path class="cls-1" d="M46.72,1079.29H.64v-7.83h19v-7.11H.64v-7.83h46.07v7.83h-19.64v7.11h19.64v7.83ZM1.64,1078.29h44.07v-5.83h-19.64v-9.11h19.64v-5.83H1.64v5.83h19v9.11H1.64v5.83Z"/>
      <path class="cls-1" d="M46.72,1048.98l-46.07-7.96v-9.54l46.07-7.96v7.98l-10.24,1.48v6.67l10.24,1.48v7.85ZM1.64,1040.18l44.07,7.62v-5.8l-10.24-1.48v-8.4l10.24-1.48v-5.93l-44.07,7.62v7.85ZM30.3,1039.76l-20-2.91v-1.06l20-2.91v6.89ZM13.61,1036.32l15.69,2.29v-4.57l-15.69,2.29Z"/>
      <path class="cls-1" d="M8.08,1020.93H.64v-22.38h7.44v7.28h38.64v7.83H8.08v7.28ZM1.64,1019.93h5.44v-7.28h38.64v-5.83H7.08v-7.28H1.64v20.38Z"/>
      <path class="cls-1" d="M46.72,974.51H.64v-9.85l22.67-5-22.67-4.94v-10.11h46.07v7.83h-27.92l21.48,4.9v4.85l-21.48,4.9h27.92v7.44ZM1.64,973.51h44.07v-5.44H14.42v-1.03l24.86-5.67v-3.26l-24.86-5.67v-1.03h31.29v-5.83H1.64v8.31l24.21,5.28v.93l-24.21,5.34v8.05Z"/>
      <path class="cls-1" d="M46.72,937.02l-46.07-7.96v-9.54l46.07-7.96v7.98l-10.24,1.48v6.67l10.24,1.48v7.85ZM1.64,928.21l44.07,7.62v-5.8l-10.24-1.48v-8.4l10.24-1.48v-5.93l-44.07,7.62v7.85ZM30.3,927.79l-20-2.91v-1.06l20-2.91v6.89ZM13.61,924.35l15.69,2.29v-4.57l-15.69,2.29Z"/>
      <path class="cls-1" d="M46.72,904.31H.64v-7.83h17.45l-17.45-8.79v-8.28l18.44,9.55,27.63-9.63v8.34l-18.92,6.43,4.64,2.37h14.29v7.83ZM1.64,903.31h44.07v-5.83h-13.53l-6.96-3.56,20.48-6.96v-6.21l-26.71,9.31-17.36-8.99v6.02l18.8,9.47v.94H1.64v5.83Z"/>
      <path class="cls-1" d="M46.72,872.29H.64v-20.19h7.31v12.36h11.75v-9.98h7.31v9.98h12.39v-12.36h7.31v20.19ZM1.64,871.29h44.07v-18.19h-5.31v12.36h-14.39v-9.98h-5.31v9.98H6.95v-12.36H1.64v18.19Z"/>
      <path class="cls-1" d="M36.56,845.25h-3.42l-.74-7.57h3.64c2.66,0,4.01-1.13,4.01-3.36s-1.28-3.23-3.81-3.23h-1.42c-2.68,0-4.68,1.3-8.58,5.57-5.66,6.11-9.46,8.28-14.54,8.28h-1.09c-6.74,0-10.61-3.89-10.61-10.67s4.04-10.67,10.8-10.67h1.74l.74,7.57h-1.97c-3.55,0-4.01,1.63-4.01,3.04,0,1.93,1.07,2.91,3.17,2.91h.97c2.4,0,4.41-1.35,8.26-5.57,5.73-6.19,9.48-8.28,14.86-8.28h2.19c6.64,0,10.61,4.09,10.61,10.93s-4.14,11.06-10.8,11.06ZM34.05,844.25h2.51c6.14,0,9.8-3.76,9.8-10.06s-3.5-9.93-9.61-9.93h-2.19c-5.05,0-8.62,2.01-14.12,7.95-4.07,4.46-6.26,5.89-9,5.89h-.97c-2.65,0-4.17-1.43-4.17-3.91,0-2.68,1.68-4.04,5.01-4.04h.87l-.55-5.57h-.83c-6.23,0-9.8,3.53-9.8,9.67s3.41,9.67,9.61,9.67h1.09c4.75,0,8.36-2.08,13.8-7.95,4.12-4.51,6.3-5.89,9.32-5.89h1.42c4.19,0,4.81,2.65,4.81,4.23,0,2.81-1.78,4.36-5.01,4.36h-2.54l.55,5.57Z"/>
      <path class="cls-1" d="M46.72,799.79H.64v-10.35c0-7.63,4.23-11.83,11.9-11.83h3.22c4.7,0,8.2,1.64,10.14,4.74l20.81-6.33v8.26l-19.06,5.41v2.28h19.06v7.83ZM1.64,798.79h44.07v-5.83h-19.06v-4.03l19.06-5.41v-6.16l-20.28,6.17-.2-.35c-1.74-3.04-4.93-4.58-9.48-4.58h-3.22c-7.13,0-10.9,3.75-10.9,10.83v9.35ZM21.35,792.96H6.95v-3.27c0-3.54,1.98-5.26,6.04-5.26h2.32c4.06,0,6.04,1.72,6.04,5.26v3.27ZM7.95,791.96h12.39v-2.27c0-2.99-1.51-4.26-5.04-4.26h-2.32c-3.53,0-5.04,1.28-5.04,4.26v2.27Z"/>
      <path class="cls-1" d="M46.72,768.52H.64v-20.19h7.31v12.36h11.75v-9.98h7.31v9.98h12.39v-12.36h7.31v20.19ZM1.64,767.52h44.07v-18.19h-5.31v12.36h-14.39v-9.98h-5.31v9.98H6.95v-12.36H1.64v18.19Z"/>
      <path class="cls-1" d="M46.72,740.29H.64v-8.47l24.37-7.31H.64v-7.44h46.07v7.57l-27.4,8.21h27.4v7.44ZM1.64,739.29h44.07v-5.44H15.84v-1l29.88-8.95v-5.83H1.64v5.44h26.85v1l-26.85,8.05v6.73Z"/>
      <path class="cls-1" d="M46.72,709.53l-46.07-7.96v-9.54l46.07-7.96v7.98l-10.24,1.48v6.67l10.24,1.48v7.85ZM1.64,700.72l44.07,7.62v-5.8l-10.24-1.48v-8.4l10.24-1.48v-5.93l-44.07,7.62v7.85ZM30.3,700.31l-20-2.91v-1.06l20-2.91v6.89ZM13.61,696.86l15.69,2.29v-4.57l-15.69,2.29Z"/>
      <path class="cls-1" d="M46.72,676.53H.64v-7.83h46.07v7.83ZM1.64,675.53h44.07v-5.83H1.64v5.83Z"/>
      <path class="cls-1" d="M36.56,661.07h-3.42l-.74-7.57h3.64c2.66,0,4.01-1.13,4.01-3.36s-1.28-3.23-3.81-3.23h-1.42c-2.68,0-4.68,1.3-8.58,5.57-5.66,6.11-9.46,8.28-14.54,8.28h-1.09c-6.74,0-10.61-3.89-10.61-10.67s4.04-10.67,10.8-10.67h1.74l.74,7.57h-1.97c-3.55,0-4.01,1.63-4.01,3.04,0,1.93,1.07,2.91,3.17,2.91h.97c2.4,0,4.41-1.35,8.26-5.57,5.73-6.19,9.48-8.28,14.86-8.28h2.19c6.64,0,10.61,4.09,10.61,10.93s-4.14,11.06-10.8,11.06ZM34.05,660.07h2.51c6.14,0,9.8-3.76,9.8-10.06s-3.5-9.93-9.61-9.93h-2.19c-5.05,0-8.62,2.01-14.12,7.95-4.07,4.46-6.26,5.89-9,5.89h-.97c-2.65,0-4.17-1.43-4.17-3.91,0-2.68,1.68-4.04,5.01-4.04h.87l-.55-5.57h-.83c-6.23,0-9.8,3.53-9.8,9.67s3.41,9.67,9.61,9.67h1.09c4.75,0,8.36-2.08,13.8-7.95,4.12-4.51,6.3-5.89,9.32-5.89h1.42c4.19,0,4.81,2.65,4.81,4.23,0,2.81-1.78,4.36-5.01,4.36h-2.54l.55,5.57Z"/>
      <path class="cls-1" d="M36.56,632.77h-3.42l-.74-7.57h3.64c2.66,0,4.01-1.13,4.01-3.36s-1.28-3.23-3.81-3.23h-1.42c-2.68,0-4.68,1.3-8.58,5.57-5.66,6.11-9.46,8.28-14.54,8.28h-1.09c-6.74,0-10.61-3.89-10.61-10.67s4.04-10.67,10.8-10.67h1.74l.74,7.57h-1.97c-3.55,0-4.01,1.63-4.01,3.04,0,1.93,1.07,2.91,3.17,2.91h.97c2.4,0,4.41-1.35,8.26-5.57,5.73-6.19,9.48-8.28,14.86-8.28h2.19c6.64,0,10.61,4.09,10.61,10.93s-4.14,11.06-10.8,11.06ZM34.05,631.77h2.51c6.14,0,9.8-3.76,9.8-10.06s-3.5-9.93-9.61-9.93h-2.19c-5.05,0-8.62,2.01-14.12,7.95-4.07,4.46-6.26,5.89-9,5.89h-.97c-2.65,0-4.17-1.43-4.17-3.91,0-2.68,1.68-4.04,5.01-4.04h.87l-.55-5.57h-.83c-6.23,0-9.8,3.53-9.8,9.67s3.41,9.67,9.61,9.67h1.09c4.75,0,8.36-2.08,13.8-7.95,4.12-4.51,6.3-5.89,9.32-5.89h1.42c4.19,0,4.81,2.65,4.81,4.23,0,2.81-1.78,4.36-5.01,4.36h-2.54l.55,5.57Z"/>
      <path class="cls-1" d="M46.72,605.22l-46.07-7.96v-9.54l46.07-7.96v7.98l-10.24,1.48v6.67l10.24,1.48v7.85ZM1.64,596.41l44.07,7.62v-5.8l-10.24-1.48v-8.4l10.24-1.48v-5.93l-44.07,7.62v7.85ZM30.3,595.99l-20-2.91v-1.06l20-2.91v6.89ZM13.61,592.55l15.69,2.29v-4.57l-15.69,2.29Z"/>
      <path class="cls-1" d="M46.72,572.21H.64v-8.47l24.37-7.31H.64v-7.44h46.07v7.57l-27.4,8.21h27.4v7.44ZM1.64,571.21h44.07v-5.44H15.84v-1l29.88-8.95v-5.83H1.64v5.44h26.85v1l-26.85,8.05v6.73Z"/>
      <path class="cls-1" d="M36.04,540.43H11.32c-7.09,0-11.32-4.11-11.32-11s4.23-11.12,11.32-11.12h4.53l.37,7.57h-4.2c-4.23,0-4.72,1.92-4.72,3.36,0,2.23,1.37,3.36,4.07,3.36h24.6c2.7,0,4.07-1.13,4.07-3.36,0-1.44-.49-3.36-4.72-3.36h-5.55l.37-7.57h5.89c7.09,0,11.32,4.16,11.32,11.12s-4.23,11-11.32,11ZM11.32,519.31c-6.56,0-10.32,3.69-10.32,10.12s3.76,10,10.32,10h24.73c6.56,0,10.32-3.64,10.32-10s-3.76-10.12-10.32-10.12h-4.93l-.27,5.57h4.5c3.79,0,5.72,1.47,5.72,4.36s-1.85,4.36-5.07,4.36H11.38c-3.22,0-5.07-1.59-5.07-4.36s1.92-4.36,5.72-4.36h3.15l-.27-5.57h-3.58Z"/>
      <path class="cls-1" d="M46.72,510.27H.64v-20.19h7.31v12.36h11.75v-9.98h7.31v9.98h12.39v-12.36h7.31v20.19ZM1.64,509.27h44.07v-18.19h-5.31v12.36h-14.39v-9.98h-5.31v9.98H6.95v-12.36H1.64v18.19Z"/>
      <path class="cls-1" d="M36.04,465.26H11.32c-7.09,0-11.32-4.11-11.32-11s4.23-11.12,11.32-11.12h4.53l.37,7.57h-4.2c-4.23,0-4.72,1.92-4.72,3.36,0,2.23,1.37,3.36,4.07,3.36h24.6c2.7,0,4.07-1.13,4.07-3.36,0-1.44-.49-3.36-4.72-3.36h-5.55l.37-7.57h5.89c7.09,0,11.32,4.16,11.32,11.12s-4.23,11-11.32,11ZM11.32,444.14c-6.56,0-10.32,3.69-10.32,10.12s3.76,10,10.32,10h24.73c6.56,0,10.32-3.64,10.32-10s-3.76-10.12-10.32-10.12h-4.93l-.27,5.57h4.5c3.79,0,5.72,1.47,5.72,4.36s-1.85,4.36-5.07,4.36H11.38c-3.22,0-5.07-1.59-5.07-4.36s1.92-4.36,5.72-4.36h3.15l-.27-5.57h-3.58Z"/>
      <path class="cls-1" d="M35.46,435.41H11.9c-7.34,0-11.9-4.41-11.9-11.51s4.56-11.51,11.9-11.51h23.57c7.34,0,11.9,4.41,11.9,11.51s-4.56,11.51-11.9,11.51ZM11.9,413.39c-6.82,0-10.9,3.93-10.9,10.51s4.07,10.51,10.9,10.51h23.57c6.82,0,10.9-3.93,10.9-10.51s-4.07-10.51-10.9-10.51H11.9ZM35.4,428.59H11.96c-3.59,0-5.65-1.71-5.65-4.69s2.06-4.69,5.65-4.69h23.44c3.59,0,5.65,1.71,5.65,4.69s-2.06,4.69-5.65,4.69ZM11.96,420.22c-2.12,0-4.65.64-4.65,3.69s2.53,3.69,4.65,3.69h23.44c2.12,0,4.65-.64,4.65-3.69s-2.53-3.69-4.65-3.69H11.96Z"/>
      <path class="cls-1" d="M46.72,403.83H.64v-7.83h38.64v-11.4h7.44v19.22ZM1.64,402.83h44.07v-17.22h-5.44v11.4H1.64v5.83Z"/>
      <path class="cls-1" d="M46.72,377.2H.64v-7.83h38.64v-11.4h7.44v19.22ZM1.64,376.2h44.07v-17.22h-5.44v11.4H1.64v5.83Z"/>
      <path class="cls-1" d="M46.72,350.58H.64v-20.19h7.31v12.36h11.75v-9.98h7.31v9.98h12.39v-12.36h7.31v20.19ZM1.64,349.58h44.07v-18.19h-5.31v12.36h-14.39v-9.98h-5.31v9.98H6.95v-12.36H1.64v18.19Z"/>
      <path class="cls-1" d="M36.04,322.81H11.32c-7.09,0-11.32-4.16-11.32-11.12s4.23-11.25,11.32-11.25h3.57l.37,7.57h-3.23c-4.18,0-4.72,1.87-4.72,3.49,0,2.32,1.37,3.49,4.07,3.49h24.6c2.74,0,4.07-1.12,4.07-3.43,0-1.6-.54-3.43-4.72-3.43h-7.23v3.86h-7.31v-11.56h15.25c7.09,0,11.32,4.21,11.32,11.25s-4.23,11.12-11.32,11.12ZM11.32,301.43c-6.56,0-10.32,3.74-10.32,10.25s3.76,10.12,10.32,10.12h24.73c6.56,0,10.32-3.69,10.32-10.12s-3.76-10.25-10.32-10.25h-14.25v9.56h5.31v-3.86h8.23c3.85,0,5.72,1.45,5.72,4.43s-1.8,4.43-5.07,4.43H11.38c-3.27,0-5.07-1.6-5.07-4.49s1.92-4.49,5.72-4.49h2.18l-.27-5.57h-2.61Z"/>
      <path class="cls-1" d="M46.72,292.03H.64v-20.19h7.31v12.36h11.75v-9.98h7.31v9.98h12.39v-12.36h7.31v20.19ZM1.64,291.03h44.07v-18.19h-5.31v12.36h-14.39v-9.98h-5.31v9.98H6.95v-12.36H1.64v18.19Z"/>
      <path class="cls-1" d="M36.56,248.7h-3.42l-.74-7.57h3.64c2.66,0,4.01-1.13,4.01-3.36s-1.28-3.23-3.81-3.23h-1.42c-2.68,0-4.68,1.3-8.58,5.57-5.66,6.11-9.46,8.28-14.54,8.28h-1.09c-6.74,0-10.61-3.89-10.61-10.67s4.04-10.67,10.8-10.67h1.74l.74,7.57h-1.97c-3.55,0-4.01,1.62-4.01,3.04,0,1.93,1.07,2.91,3.17,2.91h.97c2.4,0,4.41-1.35,8.26-5.57,5.73-6.19,9.48-8.28,14.86-8.28h2.19c6.64,0,10.61,4.09,10.61,10.93s-4.14,11.06-10.8,11.06ZM34.05,247.7h2.51c6.14,0,9.8-3.76,9.8-10.06s-3.5-9.93-9.61-9.93h-2.19c-5.05,0-8.62,2.01-14.12,7.95-4.07,4.46-6.26,5.89-9,5.89h-.97c-2.65,0-4.17-1.43-4.17-3.91,0-2.68,1.68-4.04,5.01-4.04h.87l-.55-5.57h-.83c-6.23,0-9.8,3.53-9.8,9.67s3.41,9.67,9.61,9.67h1.09c4.75,0,8.36-2.08,13.8-7.95,4.12-4.51,6.3-5.89,9.32-5.89h1.42c4.19,0,4.81,2.65,4.81,4.23,0,2.81-1.78,4.36-5.01,4.36h-2.54l.55,5.57Z"/>
      <path class="cls-1" d="M8.08,220.97H.64v-22.38h7.44v7.28h38.64v7.83H8.08v7.28ZM1.64,219.97h5.44v-7.28h38.64v-5.83H7.08v-7.28H1.64v20.38Z"/>
      <path class="cls-1" d="M46.72,196L.64,188.04v-9.54l46.07-7.96v7.98l-10.24,1.48v6.67l10.24,1.48v7.85ZM1.64,187.19l44.07,7.62v-5.8l-10.24-1.48v-8.4l10.24-1.48v-5.93l-44.07,7.62v7.85ZM30.3,186.78l-20-2.91v-1.06l20-2.91v6.89ZM13.61,183.33l15.69,2.29v-4.57l-15.69,2.29Z"/>
      <path class="cls-1" d="M46.72,163H.64v-8.47l24.37-7.31H.64v-7.44h46.07v7.57l-27.4,8.21h27.4v7.44ZM1.64,162h44.07v-5.44H15.84v-1l29.88-8.95v-5.83H1.64v5.44h26.85v1l-26.85,8.05v6.73Z"/>
      <path class="cls-1" d="M46.72,130.8H.64v-10.29c0-7.63,4.23-11.83,11.9-11.83h22.28c7.67,0,11.9,4.2,11.9,11.83v10.29ZM1.64,129.8h44.07v-9.29c0-7.09-3.77-10.83-10.9-10.83H12.54c-7.13,0-10.9,3.75-10.9,10.83v9.29ZM40.41,123.97H6.95v-3.2c0-3.54,1.98-5.27,6.04-5.27h21.38c4.06,0,6.04,1.72,6.04,5.27v3.2ZM7.95,122.97h31.45v-2.2c0-2.99-1.51-4.27-5.04-4.27H12.99c-3.53,0-5.04,1.28-5.04,4.27v2.2Z"/>
      <path class="cls-1" d="M35.46,83.02H11.9c-7.34,0-11.9-4.41-11.9-11.51s4.56-11.51,11.9-11.51h23.57c7.34,0,11.9,4.41,11.9,11.51s-4.56,11.51-11.9,11.51ZM11.9,61c-6.82,0-10.9,3.93-10.9,10.51s4.07,10.51,10.9,10.51h23.57c6.82,0,10.9-3.93,10.9-10.51s-4.07-10.51-10.9-10.51H11.9ZM35.4,76.2H11.96c-3.59,0-5.65-1.71-5.65-4.69s2.06-4.69,5.65-4.69h23.44c3.59,0,5.65,1.71,5.65,4.69s-2.06,4.69-5.65,4.69ZM11.96,67.83c-2.12,0-4.65.64-4.65,3.69s2.53,3.69,4.65,3.69h23.44c2.12,0,4.65-.64,4.65-3.69s-2.53-3.69-4.65-3.69H11.96Z"/>
      <path class="cls-1" d="M36.11,51.7H.64v-7.57h35.27c2.77,0,4.01-1.04,4.01-3.36s-1.24-3.36-4.01-3.36H.64v-7.83h35.47c7.15,0,11.25,4.05,11.25,11.12s-4.1,11-11.25,11ZM1.64,50.7h34.47c6.61,0,10.25-3.55,10.25-10s-3.64-10.12-10.25-10.12H1.64v5.83h34.27c3.32,0,5.01,1.47,5.01,4.36s-1.68,4.36-5.01,4.36H1.64v5.57Z"/>
      <path class="cls-1" d="M8.08,22.38H.64V0h7.44v7.28h38.64v7.83H8.08v7.28ZM1.64,21.38h5.44v-7.28h38.64v-5.83H7.08V1H1.64v20.38Z"/>
    </g>
  </g>
</svg>