<?xml version="1.0" encoding="UTF-8"?>
<svg id="_レイヤー_2" data-name="レイヤー 2" xmlns="http://www.w3.org/2000/svg" viewBox="0 0 46.36 1122.73">
  <defs>
    <style>
      .cls-1 {
        fill: #ccc;
      }
    </style>
  </defs>
  <g id="_レイヤー_1-2" data-name="レイヤー 1">
    <g>
      <path class="cls-1" d="M45.72,1100.9l-26.85,3.86v.13l26.85,3.93v6.95l-45.07,6.95v-7.02l29.88-3.93v-.13l-29.88-3.86v-6.05l29.88-3.86v-.13l-29.88-3.93v-6.83l45.07,6.95v6.95Z"/>
      <path class="cls-1" d="M45.72,1063.35h-19.64v8.11h19.64v6.83H.64v-6.83h19v-8.11H.64v-6.83h45.07v6.83Z"/>
      <path class="cls-1" d="M45.72,1030.57l-10.24,1.48v7.53l10.24,1.48v6.83l-45.07-7.79v-8.69l45.07-7.79v6.95ZM29.3,1038.68v-5.73l-19,2.77v.19l19,2.77Z"/>
      <path class="cls-1" d="M7.08,1005.83h38.64v6.83H7.08v7.28H.64v-21.38h6.44v7.28Z"/>
      <path class="cls-1" d="M45.72,951.42H14.42v.13l24.86,5.67v4.06l-24.86,5.67v.13h31.29v6.44H.64v-8.95l24.21-5.34v-.13l-24.21-5.28v-9.21h45.07v6.83Z"/>
      <path class="cls-1" d="M45.72,918.6l-10.24,1.48v7.53l10.24,1.48v6.83l-45.07-7.79v-8.69l45.07-7.79v6.95ZM29.3,926.71v-5.73l-19,2.77v.19l19,2.77Z"/>
      <path class="cls-1" d="M45.72,879.55v7.28l-19.7,6.7,5.8,2.96h13.91v6.83H.64v-6.83h18.8v-.13l-18.8-9.47v-7.15l17.9,9.27,27.17-9.47Z"/>
      <path class="cls-1" d="M6.95,864.47h12.75v-9.98h6.31v9.98h13.39v-12.36h6.31v19.19H.64v-19.19h6.31v12.36Z"/>
      <path class="cls-1" d="M10.3,823.58h1.29l.64,6.57h-1.42c-3.09,0-4.51,1.16-4.51,3.54,0,2,1.09,3.41,3.67,3.41h.97c2.51,0,4.57-1.29,8.63-5.73,5.6-6.05,9.27-8.11,14.49-8.11h2.19c6.63,0,10.11,4.19,10.11,10.43s-3.67,10.56-10.3,10.56h-2.96l-.64-6.57h3.09c3.03,0,4.51-1.42,4.51-3.86,0-2.06-1.09-3.73-4.31-3.73h-1.42c-2.83,0-4.89,1.29-8.95,5.73-5.6,6.05-9.27,8.11-14.17,8.11h-1.09c-6.63,0-10.11-3.86-10.11-10.17s3.67-10.17,10.3-10.17Z"/>
      <path class="cls-1" d="M26.66,788.81v3.16h19.06v6.83H.64v-9.85c0-7.34,3.99-11.33,11.4-11.33h3.22c4.77,0,8.11,1.67,9.92,4.83l20.54-6.25v7.21l-19.06,5.41ZM20.35,791.96v-2.77c0-3.28-1.74-4.76-5.54-4.76h-2.32c-3.8,0-5.54,1.48-5.54,4.76v2.77h13.39Z"/>
      <path class="cls-1" d="M6.95,760.7h12.75v-9.98h6.31v9.98h13.39v-12.36h6.31v19.19H.64v-19.19h6.31v12.36Z"/>
      <path class="cls-1" d="M45.72,723.77l-29.88,8.95v.13h29.88v6.44H.64v-7.6l26.85-8.05v-.13H.64v-6.44h45.07v6.7Z"/>
      <path class="cls-1" d="M45.72,691.11l-10.24,1.48v7.53l10.24,1.48v6.83l-45.07-7.79v-8.69l45.07-7.79v6.95ZM29.3,699.23v-5.73l-19,2.77v.19l19,2.77Z"/>
      <path class="cls-1" d="M45.72,675.53H.64v-6.83h45.07v6.83Z"/>
      <path class="cls-1" d="M10.3,639.4h1.29l.64,6.57h-1.42c-3.09,0-4.51,1.16-4.51,3.54,0,2,1.09,3.41,3.67,3.41h.97c2.51,0,4.57-1.29,8.63-5.73,5.6-6.05,9.27-8.11,14.49-8.11h2.19c6.63,0,10.11,4.19,10.11,10.43s-3.67,10.56-10.3,10.56h-2.96l-.64-6.57h3.09c3.03,0,4.51-1.42,4.51-3.86,0-2.06-1.09-3.73-4.31-3.73h-1.42c-2.83,0-4.89,1.29-8.95,5.73-5.6,6.05-9.27,8.11-14.17,8.11h-1.09c-6.63,0-10.11-3.86-10.11-10.17s3.67-10.17,10.3-10.17Z"/>
      <path class="cls-1" d="M10.3,611.1h1.29l.64,6.57h-1.42c-3.09,0-4.51,1.16-4.51,3.54,0,2,1.09,3.41,3.67,3.41h.97c2.51,0,4.57-1.29,8.63-5.73,5.6-6.05,9.27-8.11,14.49-8.11h2.19c6.63,0,10.11,4.19,10.11,10.43s-3.67,10.56-10.3,10.56h-2.96l-.64-6.57h3.09c3.03,0,4.51-1.42,4.51-3.86,0-2.06-1.09-3.73-4.31-3.73h-1.42c-2.83,0-4.89,1.29-8.95,5.73-5.6,6.05-9.27,8.11-14.17,8.11h-1.09c-6.63,0-10.11-3.86-10.11-10.17s3.67-10.17,10.3-10.17Z"/>
      <path class="cls-1" d="M45.72,586.8l-10.24,1.48v7.53l10.24,1.48v6.83l-45.07-7.79v-8.69l45.07-7.79v6.95ZM29.3,594.91v-5.73l-19,2.77v.19l19,2.77Z"/>
      <path class="cls-1" d="M45.72,555.69l-29.88,8.95v.13h29.88v6.44H.64v-7.6l26.85-8.05v-.13H.64v-6.44h45.07v6.7Z"/>
      <path class="cls-1" d="M10.82,518.31h4.06l.32,6.57h-3.67c-3.61,0-5.22,1.35-5.22,3.86s1.61,3.86,4.57,3.86h24.6c2.96,0,4.57-1.35,4.57-3.86s-1.61-3.86-5.22-3.86h-5.02l.32-6.57h5.41c6.83,0,10.82,3.93,10.82,10.62s-3.99,10.5-10.82,10.5H10.82c-6.83,0-10.82-3.86-10.82-10.5s3.99-10.62,10.82-10.62Z"/>
      <path class="cls-1" d="M6.95,502.44h12.75v-9.98h6.31v9.98h13.39v-12.36h6.31v19.19H.64v-19.19h6.31v12.36Z"/>
      <path class="cls-1" d="M10.82,443.14h4.06l.32,6.57h-3.67c-3.61,0-5.22,1.35-5.22,3.86s1.61,3.86,4.57,3.86h24.6c2.96,0,4.57-1.35,4.57-3.86s-1.61-3.86-5.22-3.86h-5.02l.32-6.57h5.41c6.83,0,10.82,3.93,10.82,10.62s-3.99,10.5-10.82,10.5H10.82c-6.83,0-10.82-3.86-10.82-10.5s3.99-10.62,10.82-10.62Z"/>
      <path class="cls-1" d="M11.4,412.39h23.57c7.08,0,11.4,4.19,11.4,11.01s-4.31,11.01-11.4,11.01H11.4c-7.08,0-11.4-4.19-11.4-11.01s4.31-11.01,11.4-11.01ZM11.46,427.59h23.44c3.35,0,5.15-1.48,5.15-4.19s-1.8-4.19-5.15-4.19H11.46c-3.35,0-5.15,1.48-5.15,4.19s1.8,4.19,5.15,4.19Z"/>
      <path class="cls-1" d="M39.28,384.61h6.44v18.22H.64v-6.83h38.64v-11.4Z"/>
      <path class="cls-1" d="M39.28,357.98h6.44v18.22H.64v-6.83h38.64v-11.4Z"/>
      <path class="cls-1" d="M6.95,342.75h12.75v-9.98h6.31v9.98h13.39v-12.36h6.31v19.19H.64v-19.19h6.31v12.36Z"/>
      <path class="cls-1" d="M10.82,300.43h3.09l.32,6.57h-2.7c-3.61,0-5.22,1.35-5.22,3.99s1.61,3.99,4.57,3.99h24.6c2.96,0,4.57-1.29,4.57-3.93s-1.61-3.93-5.22-3.93h-7.73v3.86h-6.31v-10.56h14.75c6.83,0,10.82,3.93,10.82,10.75s-3.99,10.62-10.82,10.62H10.82c-6.83,0-10.82-3.86-10.82-10.62s3.99-10.75,10.82-10.75Z"/>
      <path class="cls-1" d="M6.95,284.21h12.75v-9.98h6.31v9.98h13.39v-12.36h6.31v19.19H.64v-19.19h6.31v12.36Z"/>
      <path class="cls-1" d="M10.3,227.03h1.29l.64,6.57h-1.42c-3.09,0-4.51,1.16-4.51,3.54,0,2,1.09,3.41,3.67,3.41h.97c2.51,0,4.57-1.29,8.63-5.73,5.6-6.05,9.27-8.11,14.49-8.11h2.19c6.63,0,10.11,4.19,10.11,10.43s-3.67,10.56-10.3,10.56h-2.96l-.64-6.57h3.09c3.03,0,4.51-1.42,4.51-3.86,0-2.06-1.09-3.73-4.31-3.73h-1.42c-2.83,0-4.89,1.29-8.95,5.73-5.6,6.05-9.27,8.11-14.17,8.11h-1.09c-6.63,0-10.11-3.86-10.11-10.17s3.67-10.17,10.3-10.17Z"/>
      <path class="cls-1" d="M7.08,205.87h38.64v6.83H7.08v7.28H.64v-21.38h6.44v7.28Z"/>
      <path class="cls-1" d="M45.72,177.58l-10.24,1.48v7.53l10.24,1.48v6.83L.64,187.12v-8.69l45.07-7.79v6.95ZM29.3,185.7v-5.73l-19,2.77v.19l19,2.77Z"/>
      <path class="cls-1" d="M45.72,146.48l-29.88,8.95v.13h29.88v6.44H.64v-7.6l26.85-8.05v-.13H.64v-6.44h45.07v6.7Z"/>
      <path class="cls-1" d="M.64,120.01c0-7.34,3.99-11.33,11.4-11.33h22.28c7.41,0,11.4,3.99,11.4,11.33v9.79H.64v-9.79ZM39.41,122.97v-2.7c0-3.28-1.74-4.77-5.54-4.77H12.49c-3.8,0-5.54,1.48-5.54,4.77v2.7h32.45Z"/>
      <path class="cls-1" d="M11.4,60h23.57c7.08,0,11.4,4.19,11.4,11.01s-4.31,11.01-11.4,11.01H11.4c-7.08,0-11.4-4.19-11.4-11.01s4.31-11.01,11.4-11.01ZM11.46,75.2h23.44c3.35,0,5.15-1.48,5.15-4.18s-1.8-4.19-5.15-4.19H11.46c-3.35,0-5.15,1.48-5.15,4.19s1.8,4.18,5.15,4.18Z"/>
      <path class="cls-1" d="M35.61,29.58c7.08,0,10.75,4.06,10.75,10.62s-3.67,10.5-10.75,10.5H.64v-6.57h34.77c3.28,0,4.51-1.48,4.51-3.86s-1.22-3.86-4.51-3.86H.64v-6.83h34.97Z"/>
      <path class="cls-1" d="M7.08,7.28h38.64v6.83H7.08v7.28H.64V0h6.44v7.28Z"/>
    </g>
  </g>
</svg>