<?xml version="1.0" encoding="UTF-8"?>
<svg id="_レイヤー_2" data-name="レイヤー 2" xmlns="http://www.w3.org/2000/svg" viewBox="0 0 598.83 599.1">
  <defs>
    <style>
      .cls-1 {
        opacity: .06;
      }
    </style>
  </defs>
  <g id="_レイヤー_1-2" data-name="レイヤー 1">
    <g class="cls-1">
      <path d="M221.28,20.73l2.5,9.33,18.72-5.03,2.49,9.27-18.72,5.03,3.9,14.54-12,3.22-11.39-42.41,33.27-8.93,2.49,9.27-21.27,5.71Z"/>
      <path d="M258.52,24.31c-.79-13.15,8.97-23.41,22.99-24.25s24.94,8.18,25.73,21.33c.79,13.15-8.97,23.41-22.99,24.25s-24.94-8.18-25.73-21.33ZM294.72,22.14c-.45-7.58-5.95-12.21-12.59-11.81s-11.54,5.66-11.08,13.23c.45,7.58,5.95,12.21,12.59,11.81,6.64-.4,11.54-5.66,11.08-13.23Z"/>
      <path d="M326.99,1.25l12.3,1.73-4.73,33.74,20.75,2.91-1.37,9.75-33.05-4.64,6.1-43.49Z"/>
      <path d="M377.34,10.19l11.83,3.8-10.43,32.43,19.95,6.42-3.02,9.38-31.77-10.22,13.45-41.81Z"/>
      <path d="M413.42,45.5c6.43-11.5,20.18-14.88,32.44-8.03,12.27,6.86,16.59,20.34,10.16,31.84-6.43,11.5-20.18,14.88-32.45,8.03-12.27-6.86-16.59-20.34-10.16-31.84ZM445.07,63.19c3.7-6.63,1.58-13.49-4.23-16.74s-12.77-1.46-16.47,5.17c-3.7,6.63-1.58,13.49,4.23,16.74,5.8,3.24,12.77,1.46,16.47-5.17Z"/>
      <path d="M533.85,109.94l-40.8,21.6-9.55-9.26,12.58-25.04-24.91,13.07-9.55-9.26,20.36-41.44,9.19,8.91-13.18,26.29,26.19-13.66,8.2,7.95-13.35,26.47,26.32-13.89,8.51,8.26Z"/>
      <path d="M540.01,164.66l22.06-10.3,5.25,11.26-21.72,10.14c-6.82,3.18-8.23,7.3-6.02,12.02,2.18,4.66,6.23,6.23,13.05,3.05l21.72-10.14,5.17,11.09-22.06,10.3c-11.88,5.55-21.77,1.71-27.26-10.05-5.49-11.77-2.08-21.81,9.8-27.36Z"/>
      <path d="M547.12,220.05l9.86,1.82c-1.59,4.38-2,10.16-.81,15.1,1.21,5,3.08,6.61,5.15,6.12,6.77-1.63-4.02-24.71,11.84-28.54,7.62-1.84,15.34,2.89,18.4,15.57,1.34,5.55,1.44,11.59.01,16.39l-9.86-1.56c1.21-4.62,1.34-8.9.44-12.63-1.22-5.06-3.37-6.48-5.5-5.97-6.53,1.57,4.19,24.61-11.55,28.4-7.44,1.79-15.28-2.9-18.34-15.59-1.69-7.01-1.47-14.42.36-19.12Z"/>
      <path d="M560.94,293.97c3.7.06,6.41,3.05,6.34,7.26-.07,4.2-2.88,7.04-6.58,6.98-3.64-.06-6.54-2.99-6.47-7.2s3.06-7.1,6.7-7.04ZM598.83,294.65l-.23,14.18-27.88-2.84.15-9.47,27.95-1.87Z"/>
      <path d="M581.02,367.77l-9.36-2.38-4.78,18.79-9.3-2.37,4.78-18.79-14.59-3.71,3.06-12.04,42.56,10.83-8.49,33.38-9.3-2.37,5.43-21.34Z"/>
      <path d="M559.68,398.47c11.85,5.76,16.01,19.3,9.87,31.94s-19.36,17.73-31.21,11.96c-11.85-5.76-16.01-19.3-9.87-31.94s19.36-17.73,31.21-11.96ZM543.82,431.08c6.83,3.32,13.56.8,16.47-5.18s.73-12.83-6.1-16.15c-6.83-3.32-13.56-.8-16.47,5.18-2.91,5.98-.73,12.83,6.1,16.15Z"/>
      <path d="M546.09,469.51l-7.56,9.86-27.04-20.73-12.75,16.63-7.82-5.99,20.31-26.49,34.85,26.72Z"/>
      <path d="M513.58,508.89l-9.12,8.44-23.14-25.01-15.38,14.23-6.69-7.23,24.5-22.67,29.83,32.24Z"/>
      <path d="M465.14,522.99c6.89,11.23,3.11,24.88-8.87,32.22-11.98,7.35-25.85,4.52-32.74-6.71-6.89-11.23-3.11-24.88,8.87-32.22,11.98-7.35,25.85-4.52,32.74,6.71ZM434.23,541.95c3.97,6.47,11,7.97,16.67,4.5,5.67-3.48,7.52-10.42,3.55-16.89-3.97-6.47-11-7.97-16.67-4.5-5.67,3.48-7.52,10.42-3.55,16.89Z"/>
      <path d="M349.91,596.42l1.21-46.15,12.75-3.77,15.63,23.25.85-28.12,12.75-3.77,26.1,38.08-12.27,3.63-16.43-24.39-.96,29.52-10.95,3.24-16.5-24.63-.83,29.75-11.37,3.36Z"/>
      <path d="M299.21,574.83l-1.85,24.27-12.39-.94,1.82-23.9c.57-7.51-2.33-10.75-7.52-11.14-5.13-.39-8.49,2.37-9.06,9.88l-1.82,23.9-12.2-.93,1.85-24.27c1-13.08,9.18-19.81,22.13-18.83,12.95.99,20.03,8.89,19.03,21.96Z"/>
      <path d="M247.45,553.88l-6.41,7.71c-3.04-3.53-7.88-6.72-12.77-8.1-4.95-1.4-7.28-.55-7.85,1.5-1.89,6.7,23.52,8.59,19.09,24.29-2.13,7.55-10.03,11.97-22.59,8.42-5.49-1.55-10.81-4.42-14.3-8.01l6.19-7.84c3.43,3.32,7.11,5.53,10.79,6.57,5.01,1.41,7.3.24,7.9-1.88,1.82-6.46-23.51-8.4-19.11-23.97,2.08-7.37,10.01-11.91,22.57-8.36,6.94,1.96,13.3,5.77,16.5,9.68Z"/>
      <path d="M157.34,562.48l-12.3-7.05,15.95-23.03,8.22,4.71-11.87,25.38ZM176.24,529.63c-1.84,3.21-5.77,4.14-9.42,2.05-3.65-2.09-4.78-5.92-2.94-9.13,1.81-3.16,5.78-4.28,9.43-2.19,3.65,2.09,4.74,6.12,2.93,9.27Z"/>
      <path d="M102.12,510.89l6.68-6.98-14.01-13.4,6.63-6.94,14.01,13.4,10.41-10.88,8.98,8.59-30.36,31.74-24.9-23.81,6.63-6.94,15.92,15.22Z"/>
      <path d="M85.88,477.24c-10.82,7.51-24.66,4.51-32.67-7.03s-5.98-25.56,4.85-33.07c10.82-7.51,24.66-4.51,32.68,7.03s5.97,25.56-4.85,33.07ZM65.21,447.44c-6.24,4.33-7.34,11.43-3.55,16.9,3.79,5.46,10.83,6.92,17.07,2.59,6.24-4.33,7.34-11.43,3.55-16.9-3.79-5.46-10.83-6.92-17.07-2.59Z"/>
      <path d="M30.59,430.66l-4.89-11.42,31.31-13.42-8.26-19.26,9.05-3.88,13.15,30.68-40.36,17.3Z"/>
      <path d="M12.16,382.92l-2.86-12.09,33.15-7.85-4.83-20.39,9.58-2.27,7.7,32.48-42.74,10.13Z"/>
      <path d="M23.71,333.78c-13.17.47-23.19-9.53-23.69-23.58s8.79-24.73,21.96-25.2c13.17-.47,23.19,9.53,23.69,23.58s-8.79,24.73-21.96,25.2ZM22.42,297.54c-7.59.27-12.35,5.65-12.12,12.3.24,6.65,5.38,11.67,12.96,11.4,7.59-.27,12.35-5.65,12.12-12.3-.24-6.65-5.38-11.67-12.96-11.4Z"/>
      <path d="M16.24,197.4l39.65,23.66-2.96,12.97-27.93,2.25,24.1,14.51-2.96,12.97L.15,267.87l2.85-12.48,29.31-2.38-25.28-15.29,2.54-11.13,29.56-2.33-25.54-15.29,2.64-11.56Z"/>
      <path d="M59.93,163.77l-20.22-13.56,6.92-10.32,19.91,13.35c6.25,4.19,10.5,3.26,13.4-1.06,2.87-4.27,2.11-8.56-4.14-12.75l-19.91-13.35,6.81-10.16,20.22,13.56c10.89,7.3,12.72,17.75,5.49,28.53-7.23,10.79-17.59,13.06-28.48,5.75Z"/>
      <path d="M103.67,129.01l-3.56-9.37c4.57-.92,9.73-3.56,13.33-7.14,3.65-3.63,4.06-6.06,2.55-7.58-4.91-4.94-19.04,16.26-30.54,4.69-5.53-5.56-5.5-14.61,3.76-23.81,4.05-4.02,9.16-7.25,14-8.52l3.79,9.24c-4.57,1.36-8.31,3.48-11.02,6.18-3.69,3.67-3.79,6.24-2.24,7.8,4.73,4.76,18.86-16.35,30.27-4.87,5.4,5.43,5.45,14.57-3.8,23.77-5.12,5.09-11.56,8.75-16.54,9.62Z"/>
      <path d="M140.32,46.28l12.17-7.28,12.29,25.18-8.13,4.86-16.33-22.76ZM159.72,78.83c-1.9-3.18-.79-7.06,2.82-9.22s7.5-1.27,9.4,1.9c1.87,3.12.91,7.13-2.7,9.29-3.61,2.16-7.65,1.14-9.52-1.98Z"/>
    </g>
  </g>
</svg>