<?xml version="1.0" encoding="UTF-8"?>
<svg id="_レイヤー_2" data-name="レイヤー 2" xmlns="http://www.w3.org/2000/svg" viewBox="0 0 712.36 712.36">
  <defs>
    <style>
      .cls-1 {
        fill: #ffce00;
      }

      .cls-2 {
        fill: #123340;
      }
    </style>
  </defs>
  <g id="_レイヤー_1-2" data-name="レイヤー 1">
    <g>
      <path class="cls-1" d="M356.18,89.85c71.14,0,138.02,27.7,188.32,78,50.3,50.3,78,117.18,78,188.32s-27.7,138.02-78,188.32c-50.3,50.3-117.18,78-188.32,78s-138.02-27.7-188.32-78c-50.3-50.3-78-117.18-78-188.32s27.7-138.02,78-188.32c50.3-50.3,117.18-78,188.32-78M356.18,0C159.47,0,0,159.47,0,356.18s159.47,356.18,356.18,356.18,356.18-159.47,356.18-356.18S552.89,0,356.18,0h0Z"/>
      <g>
        <path class="cls-2" d="M441.7,76.17c.2.79-.55,2.12-1.42,3.56-1.43,2.27-3.73,6.28-5.25,11.63-1.26,4.52-1.99,8.68-2.25,11.66,5.73-5.01,10.88-8.04,15.08-10.23-1.48-.71-3.46-.98-5.77-.42-2.45.61-3.16,1.16-3.66,1.29-.94.23-1.42-.18-1.62-.98-.46-1.88.53-2.2,3.2-3.78,4.75-2.78,11.71-10.24,10.15-16.59-.66-2.67-3.47-2.89-6.5-2.15-12.63,3.12-29,20.86-27.27,27.86.16.65.88,1.08,1.06,1.81.3,1.23-.8,2.65-2.1,2.97-1.37.34-2.41-.48-2.88-2.35-2.65-10.75,14.64-29.41,31.52-33.58,6.49-1.6,9.41.59,10.14,3.55,1.41,5.7-1.81,12.85-7.48,18.08,1.26.15,3.44.91,5.27,2.45,3.99-1.83,6.97-3.1,8.48-3.47,1.73-.43,2.97-.35,3.26.8.27,1.08.01,1.91-2.37,2.5-1.08.27-4.06,1.23-7.38,2.66.34.76.72,1.66.91,2.46,2.97,12.05-11.18,31.93-25.69,35.5-5.41,1.34-9.14-1.04-10.19-5.29-1.39-5.63,3.75-13.33,10.03-19.85.05-3.53.55-8.63,2.28-14.95,3.14-11.8,6.7-16.28,8-16.6,1.23-.3,2.18.46,2.43,1.47ZM450.17,95.28c-4.44,2.17-10.25,5.29-17.47,12.35.14,1.5.39,2.81.71,4.11.2.79.44,2.42-.78,2.72-1.08.27-2.74-.24-3.13-1.83-.04-.15-.25-1.01-.27-1.7-4.81,5.32-7.73,10.86-6.86,14.4.69,2.81,3.83,3.42,6.5,2.76,11.33-2.8,24.51-20.44,21.91-30.98-.14-.58-.32-1.3-.61-1.84Z"/>
        <path class="cls-2" d="M481.5,85.18c.65-.16,1.24.08,1.42.8.2.79-.04,1.39-.64,2.68-2.36,5.02-6.67,12.67-14.68,14.65-2.38.59-4.86-.79-5.65-3.97-.11-.43-.52-.56-.72-1.35-.18-.72.26-1.75.93-2.14,1.16-7.1,5.35-11.5,9.11-12.43,1.52-.38,3.46.37,3.85,1.96.93,3.75-4.08,9.51-8.58,11.76-.89.45-1.05,1.02-.92,1.53.14.58,1.13,1.79,2.5,1.45,6.06-1.5,9.52-8.25,11.34-12.06.6-1.3,1.25-2.68,2.05-2.88ZM465.69,94.59c2.47-1.15,6.51-5.89,6.2-7.12-.11-.43-.32-.69-.76-.58-1.73.43-4.61,5.19-5.45,7.7Z"/>
        <path class="cls-2" d="M510.78,73.82c1.37-.34,2.36.26,2.61,1.27.3,1.23-1.53,4.97-1.93,7.06-.37,1.62-.55,3.35-.3,4.36.18.72.66,1.44,1.31,1.28,2.38-.59,5.35-5.91,7.19-9.66.6-1.3,1.25-2.68,2.05-2.88.65-.16,1.24.08,1.42.8.2.79-.04,1.39-.64,2.68-2.45,4.97-6.67,11.75-10.35,12.66-2.38.59-3.95-.79-4.44-2.81-.2-.79-.3-1.53-.48-2.56-1.58,2.61-5.27,8.73-8.52,9.53-.94.23-2.77-.69-3.24-2.57-1.83-7.43,4.76-16.71,10.24-18.07,1.15-.29,2.42.17,3.35.86.22-.05.65-1.69,1.74-1.96ZM499.03,90.73c.09.36.43.51.79.42,1.08-.27,8.05-10.18,7.71-11.55-.2-.79-1.01-1.28-1.94-1.05-2.89.71-7.38,8.86-6.56,12.18Z"/>
        <path class="cls-2" d="M485.6,132.76c-.37-1.51,1.38-2.18,2.6-2.48,7-1.73,12.53-11.28,11.28-16.33-1.07-4.33-4.06-5.89-9.32-4.59-12.92,3.19-22.91,16.37-21.36,22.65.16.65.88,1.08,1.06,1.81.32,1.3-.62,2.45-1.85,2.75-1.37.34-2.59-.89-2.88-2.05-2.64-10.68,9.36-24.43,25.31-28.37,6.49-1.6,11.1.32,12.62,6.46,1.83,7.43-5.61,19.45-13.98,21.52-2.09.52-3.14,0-3.48-1.36ZM489.83,115.18c.21.87-.57,2.05-1.51,3.51-1.38,2.18-3.57,6.01-5.21,11.77-3.08,10.79-2.36,17.12-1.47,20.73.2.79.48,1.95-.82,2.27-1.01.25-2.96-.19-3.35-1.78-.32-1.3-1.36-9.54,1.79-21.27,2.11-7.56,4.04-11.87,5.47-14.13.94-1.46,1.88-2.3,2.82-2.53,1.3-.32,2,.35,2.27,1.43Z"/>
        <path class="cls-2" d="M502.77,127.68c.12.5-.06,2.23-.3,4.05,2.21-3.76,4.31-6.73,6.19-7.19,1.59-.39,2.97.26,3.42,2.07.61,2.45.54,4.69-1.55,5.21-.79.2-1.59-.22-1.8-1.09-.16-.65.11-1.71.02-2.07-.05-.22-.16-.34-.52-.25-.94.23-4.47,5.77-6,9.82-.42,1.1-.82,2.88-1.08,4.63-.22,1.58-.53,3.12-.97,3.22-.87.21-2.07-.33-2.32-1.34-.2-.79.08-4,.58-6.96.51-3.19.87-6.11.91-7.5.11-2.02.35-3.23,1.51-3.51.94-.23,1.71.11,1.91.91Z"/>
        <path class="cls-2" d="M529.35,121.42c1.37-.34,3.28-.96,3.21-.95.83-4.72,1.39-8,3.09-14.16,1.93-6.75,6.13-12.69,9.52-13.53,2.31-.57,4.11.21,4.45,1.58.41,1.66-.41,3.01-1.42,3.26-.87.21-1.51-.24-1.69-.96-.11-.43-.38-.6-.81-.49-1.44.36-4.34,3.83-6.27,9.97-1.11,3.57-2.04,7.24-3.2,13.42l7.43-1.83c.94-.23,1.78.1,1.96.82.2.79-.38,1.55-1.03,1.71-2.96.73-5.95,1.62-8.91,2.66-1.41,7.93-2.98,18.34-1.76,23.25.18.72.81,1.1,1.06,2.11.18.72-.11,2.02-1.27,2.3-1.08.27-2.27-.21-2.84-2.51-1.35-5.48.02-17,1.21-23.95-.13.11-.76.34-1.55.54-1.16.29-2.63.5-3.54.57,1.16,4.69-1.13,14.67-7.62,16.27-2.16.53-4.74-.59-5.54-3.84-1.67-6.78,2.62-14.5,7.67-15.75,2.45-.61,5.17.18,7.84-.48ZM517.53,137.12c.27,1.08,1.15,1.55,1.87,1.38,2.53-.62,4.76-7.07,4.09-9.81-.43-.2-1.24-.69-1.44-1.48-.11-.43-.12-1.12-.12-1.42-2.85.86-5.48,6.94-4.4,11.34Z"/>
        <path class="cls-2" d="M563.06,116.01c.65-.16,1.24.08,1.42.8.2.79-.04,1.39-.64,2.68-2.36,5.02-6.67,12.67-14.68,14.65-2.38.59-4.87-.79-5.65-3.96-.11-.43-.52-.56-.72-1.35-.18-.72.26-1.75.93-2.14,1.16-7.1,5.35-11.5,9.11-12.43,1.52-.37,3.46.37,3.85,1.96.93,3.75-4.08,9.51-8.58,11.76-.88.45-1.05,1.02-.92,1.53.14.58,1.13,1.79,2.5,1.45,6.06-1.5,9.53-8.24,11.34-12.06.6-1.3,1.25-2.68,2.05-2.88ZM547.24,125.43c2.47-1.15,6.51-5.89,6.21-7.12-.11-.43-.32-.69-.75-.58-1.73.43-4.61,5.19-5.45,7.7Z"/>
        <path class="cls-2" d="M568.53,121.4c-1.55-.38-3.17-1.05-3.6-2.79-.96-3.9,3.9-8.7,7.15-9.5,1.37-.34,3.24.42,3.62,1.94.41,1.66.04,4.51-1.55,4.9-1.01.25-1.71-.11-1.96-1.12-.18-.72.47-1.5.33-2.07-.07-.29-.34-.45-.77-.34-.94.23-3.69,3.05-3.24,4.86.14.58,1.01.98,1.98,1.2,1.71.42,4.05.91,4.73,3.66.62,2.53-.94,5.82-5.19,6.87-2.74.68-5.06-.66-5.51-2.47-.27-1.08.26-2.05,1.27-2.3.79-.2,1.6-.01,1.85,1,.25,1.01,1.04,1.43,2.2,1.14,1.37-.34,2.02-1.72,1.72-2.95-.32-1.3-1.8-1.7-3.02-2.01Z"/>
        <path class="cls-2" d="M583.62,117.67c-1.55-.38-3.17-1.05-3.6-2.79-.96-3.9,3.9-8.69,7.15-9.5,1.37-.34,3.24.42,3.62,1.94.41,1.66.04,4.51-1.55,4.9-1.01.25-1.71-.11-1.96-1.12-.18-.72.47-1.49.33-2.07-.07-.29-.34-.45-.77-.34-.94.23-3.69,3.05-3.24,4.86.14.58,1.01.98,1.98,1.2,1.71.42,4.05.91,4.73,3.66.62,2.53-.94,5.82-5.19,6.87-2.74.68-5.06-.67-5.51-2.47-.27-1.08.26-2.06,1.27-2.3.79-.2,1.6-.01,1.85,1,.25,1.01,1.04,1.43,2.2,1.14,1.37-.34,2.02-1.72,1.72-2.95-.32-1.3-1.8-1.7-3.02-2.01Z"/>
        <path class="cls-2" d="M609.26,104.61c.65-.16,1.24.08,1.42.8.2.79-.04,1.39-.64,2.68-2.38,4.95-7.39,12.54-11.07,13.45-1.52.37-3.5-.52-4.12-3.04-.78-3.17,1.15-11.16,1.46-12.38.51-1.66.95-2.99,1.96-3.24,1.01-.25,1.95.13,2.18,1.07.25,1.01-.13,1.64-.4,2.4-1.26,3.91-2.05,9.39-1.69,10.83.12.51.65,1.07,1.29.91,1.95-.48,5.93-6.67,7.57-10.59.6-1.3,1.25-2.68,2.05-2.88ZM604.78,89.87c.46,1.88-1.2,3.51-2.14,3.74-1.15.29-1.96-1.12-2.23-2.21-.29-1.16.51-2.88,2.1-3.27.87-.21,1.84,0,2.27,1.74Z"/>
        <path class="cls-2" d="M623.03,99.53c.12.51.75,2.11,1.47,1.93,1.8-.45,2.91-1.25,4.06-2.15.58-.45,1.43-1.35,1.86-1.45.87-.21,1.46.02,1.69.96.21.87-.64,2.07-2.73,3.81-2.04,1.65-4.97,2.53-5.69,2.7-.61,4.67-2.49,11.03-7.61,12.29-2.16.53-4.67-.61-5.47-3.86-1.67-6.78,2.82-14.63,7.65-15.82,2.81-.7,4.45.36,4.75,1.58ZM618.76,103.34c-.11-.43-.11-1.04-.07-1.51-2.85.86-5.59,6.82-4.5,11.22.27,1.08,1.26,1.68,1.98,1.5,2.67-.66,4.62-7.95,4.18-9.76-.45.04-1.39-.65-1.58-1.45Z"/>
        <path class="cls-2" d="M660.84,91.88c.65-.16,1.24.08,1.42.8.2.79-.04,1.39-.64,2.68-2.3,4.93-5.73,11.52-9.34,12.41-3.61.89-5.08-2.27-5.86-5.44-.39-1.59-.49-3.86-.92-5.59-.09-.36-.41-.74-.85-.63-2.02.5-6.99,9.84-8.1,12.49-.49,1.12-.36,4.45-1.58,4.75-1.3.32-2.58.1-2.93-1.34-.44-1.8.54-9.93.86-14.53.21-3.5.45-4.7,2.32-5.17.51-.12,1.64.13,1.89,1.14.25,1.01.12,1.73-.1,3.93-.15,1.26-.3,4.67-.34,5.14,1.67-3.17,5.47-10.08,8.65-10.86,1.59-.39,3.06.32,3.49,2.05.53,2.16.62,4.36,1.24,6.89.55,2.24,1.18,4.15,2.55,3.81,1.66-.41,4.56-5.72,6.19-9.64.6-1.3,1.25-2.68,2.05-2.88Z"/>
        <path class="cls-2" d="M677.01,83.76c1.37-.34,2.36.26,2.61,1.27.3,1.23-1.53,4.97-1.93,7.06-.37,1.62-.55,3.35-.3,4.36.18.72.66,1.44,1.31,1.28,2.38-.59,5.35-5.91,7.19-9.66.6-1.3,1.25-2.68,2.05-2.88.65-.16,1.24.08,1.42.8.2.79-.04,1.39-.64,2.69-2.45,4.97-6.67,11.75-10.35,12.66-2.38.59-3.95-.79-4.44-2.81-.2-.79-.3-1.53-.48-2.56-1.58,2.61-5.27,8.73-8.52,9.53-.94.23-2.77-.69-3.24-2.57-1.83-7.43,4.76-16.71,10.24-18.07,1.16-.29,2.42.17,3.35.86.22-.05.65-1.69,1.74-1.96ZM665.26,100.67c.09.36.43.51.79.42,1.08-.27,8.05-10.18,7.71-11.55-.2-.79-1.01-1.28-1.94-1.05-2.89.71-7.38,8.87-6.56,12.18Z"/>
        <path class="cls-2" d="M706.98,80.5c.65-.16,1.24.08,1.42.8.2.79-.04,1.39-.64,2.68-2.38,4.95-7.05,12.69-11.16,13.7-2.89.71-5.93-.76-6.78-4.22-1.5-6.06.56-18.51,2.89-26.44,2.51-8.43,4.89-12.77,9-13.78,1.73-.43,3.24.73,3.62,2.25.52,2.09.59,6.74-2.96,14.67-2.78,6.12-5.49,10.01-8.57,13.98-.66,2.31-.69,6.52-.31,8.04.45,1.8,1.49,2.62,2.86,2.28,2.89-.71,6.96-7.15,8.6-11.08.6-1.3,1.25-2.68,2.05-2.88ZM695.84,67.94c-1.66,6-1.9,9.04-1.94,10.74,1.16-1.51,3.44-5.29,5.42-9.99,2.58-5.99,3.22-9.6,2.85-11.11-.11-.43-.38-.6-.88-.47-.87.21-3.42,3.52-5.44,10.84Z"/>
        <path class="cls-2" d="M710.39,88.92c1.01-.25,1.6.29,1.85,1.3.36,1.44-.34,3.91-2.29,4.39-1.01.25-1.69-.35-1.92-1.29-.41-1.66.62-3.98,2.36-4.41Z"/>
      </g>
    </g>
  </g>
</svg>