<?xml version="1.0" encoding="UTF-8"?>
<svg id="_レイヤー_2" data-name="レイヤー 2" xmlns="http://www.w3.org/2000/svg" viewBox="0 0 67.76 86.48">
  <defs>
    <style>
      .cls-1 {
        fill: #123340;
      }
    </style>
  </defs>
  <g id="_レイヤー_1-2" data-name="レイヤー 1">
    <path class="cls-1" d="M67.16,72.59c-.34-1.27-.82-2.4-1.41-3.42-1.03-1.78-2.41-3.16-3.92-4.26-1.13-.82-2.35-1.49-3.58-2.07-1.85-.87-3.74-1.53-5.48-2.17-1.74-.64-3.34-1.27-4.58-2-.45-.27-.86-.55-1.22-.84-.53-.44-.93-.91-1.23-1.44s-.5-1.11-.58-1.85c-.06-.53-.08-1.02-.08-1.49,0-1.39.21-2.6.47-3.84.78-.88,1.49-1.93,2.17-3.19s1.32-2.73,1.96-4.48c.41-.19.82-.41,1.23-.68.92-.62,1.79-1.48,2.52-2.63s1.31-2.58,1.71-4.35c.11-.49.16-.98.16-1.45,0-1-.23-1.96-.63-2.81-.27-.59-.63-1.13-1.03-1.63.21-.77.46-1.81.69-3.02.31-1.68.57-3.7.57-5.83,0-1.37-.11-2.78-.39-4.19-.21-1.05-.51-2.09-.95-3.09-.65-1.5-1.59-2.91-2.91-4.07-1.22-1.08-2.74-1.93-4.58-2.49-.78-.93-1.58-1.72-2.41-2.38-1.4-1.12-2.87-1.87-4.37-2.32s-3.02-.62-4.54-.62c-.8,0-1.6.04-2.4.12-.75.07-1.37.15-1.93.24-.83.14-1.52.32-2.19.55-.67.23-1.31.5-2.15.83-.32.13-.74.31-1.24.57-.88.44-2.02,1.1-3.24,2.01-1.83,1.36-3.84,3.28-5.41,5.89-.79,1.3-1.46,2.77-1.93,4.42-.48,1.65-.75,3.47-.75,5.45,0,1.24.11,2.54.34,3.91,0,.1,0,.19.01.28.01.17.03.35.05.53.03.27.06.55.08.79.01.12.02.22.03.31,0,.04,0,.07,0,.1v.03h0v.17l.34,1.49c-.48.53-.9,1.12-1.22,1.76-.45.9-.72,1.92-.72,2.99,0,.48.05.96.16,1.45.27,1.18.62,2.21,1.03,3.1.63,1.35,1.42,2.39,2.3,3.18.68.61,1.41,1.06,2.13,1.39.64,1.74,1.28,3.21,1.96,4.47.67,1.26,1.39,2.3,2.17,3.18.26,1.23.47,2.45.47,3.84,0,.47-.02.97-.08,1.49-.05.51-.17.94-.33,1.34-.24.59-.59,1.09-1.07,1.57-.48.47-1.08.91-1.8,1.32-.73.41-1.58.8-2.5,1.17-1.61.65-3.45,1.27-5.31,2.01-1.4.56-2.81,1.19-4.16,1.99-1.01.59-1.98,1.28-2.88,2.1-1.34,1.22-2.5,2.75-3.29,4.65C.44,72.58,0,74.83,0,77.48c0,.37.08.73.21,1.06.12.31.29.59.48.86.37.5.84.95,1.43,1.38,1.02.75,2.38,1.46,4.14,2.12,2.63.99,6.17,1.88,10.73,2.53,4.56.65,10.16,1.05,16.9,1.05,5.84,0,10.83-.31,15.02-.81,3.15-.37,5.85-.87,8.15-1.43,1.72-.42,3.21-.88,4.49-1.37.96-.36,1.81-.74,2.54-1.13.55-.3,1.03-.59,1.46-.9.64-.46,1.16-.94,1.55-1.49.19-.27.36-.56.48-.87.12-.31.19-.66.19-1.01,0-1.81-.21-3.43-.6-4.89ZM30.93,73.86l-9.97-12.75c.52-.3,1.01-.63,1.48-1,.5-.4.95-.84,1.35-1.34l7.25,3.37-1.55,2.58,2.4,2.54-.96,6.6ZM24.81,57.07c.29-.68.49-1.43.57-2.24.07-.62.1-1.22.1-1.78,0-1.85-.31-3.4-.61-4.81l-.09-.38-.27-.29c-.68-.72-1.34-1.65-2.01-2.88-.66-1.23-1.32-2.77-2-4.68l-.22-.63-.62-.23c-.43-.16-.85-.36-1.26-.63-.61-.41-1.19-.97-1.72-1.8-.53-.83-1-1.95-1.35-3.46-.06-.29-.09-.56-.09-.83,0-.6.15-1.18.42-1.73.23-.45.54-.89.93-1.27.65.98,1.18,1.76,1.38,1.95.63.64.44.44.65.13,0,0,.72-1.01,4.53-8.43,7.62,1.69,20.95-9.76,20.95-9.76,0,0,.16,3.7,2.7,7.09,2.41,3.21,3.78,10.76,3.78,10.76,0,0,.33-.62.82-1.45.29.34.54.71.71,1.09.24.52.37,1.06.37,1.62,0,.27-.03.55-.09.83-.23,1.01-.51,1.84-.84,2.53-.48,1.03-1.04,1.74-1.62,2.27-.59.52-1.21.86-1.85,1.1l-.62.23-.22.63c-.68,1.91-1.34,3.45-2,4.68-.66,1.24-1.32,2.16-2.01,2.88l-.27.29-.08.39c-.31,1.4-.61,2.96-.61,4.81,0,.56.03,1.16.09,1.78.08.73.24,1.42.5,2.05.01.03.02.06.04.08l-8.58,4.51-9.51-4.41ZM37.52,74.33l-1.03-7.07,2.4-2.54-1.55-2.59,6.56-3.45c.18.23.37.46.58.67.65.67,1.4,1.22,2.21,1.7l-9.16,13.28Z"/>
  </g>
</svg>