<?xml version="1.0" encoding="UTF-8"?>
<svg id="_レイヤー_2" data-name="レイヤー 2" xmlns="http://www.w3.org/2000/svg" viewBox="0 0 283.79 283.79">
  <defs>
    <style>
      .cls-1 {
        fill: #fff;
      }

      .cls-2 {
        fill: #123340;
      }
    </style>
  </defs>
  <g id="_レイヤー_1-2" data-name="レイヤー 1">
    <g>
      <circle class="cls-2" cx="141.9" cy="141.9" r="141.88"/>
      <g>
        <path class="cls-1" d="M40.01,112.08l-3.16.46c-1.22.18-2-.64-2.14-1.59-.13-.91.38-1.92,1.6-2.1l3.16-.42-1.14-7.57c-.18-1.25.71-2.05,1.74-2.2s2.15.35,2.33,1.6l1.07,7.58,2.66-.43c1.14-.17,1.85.66,1.98,1.58.14.95-.3,1.95-1.44,2.12l-2.66.39,1.18,8.07c.53-.35,1.05-.77,1.58-1.16.35-.28.75-.42,1.1-.47,1.03-.15,1.94.5,2.07,1.41.09.61-.16,1.31-1,1.93-5.36,4.04-9.33,6.37-10.21,6.5-1.18.17-2.01-.72-2.16-1.75-.11-.76.19-1.62,1.09-2.1,1.34-.7,2.56-1.35,3.78-2.03l-1.43-9.82ZM61.79,119.44c.16,1.1-.75,1.78-1.7,1.92-.99.14-2.02-.25-2.18-1.35l-1.5-10.31-2.78,1.96c.66,4.53,1.36,9.05,1.67,10.95.35,1.89,2.09,1.83,5.63,1.32,1.6-.23,3.22-.59,4.37-.95,1.52-.49,1.85-2.21,1.65-3.58-.19-1.29.64-2,1.63-2.14.65-.09,2.25-.06,2.52,1.81.55,3.77-.78,6.64-4.53,7.58-1.61.39-3.42.77-5.14,1.02-6.7.98-9.26.18-9.92-3.8-.38-2.35-.94-5.92-1.48-9.65l-1.76,1.23c-.28.2-.54.31-.8.35-.99.14-1.81-.71-1.95-1.66-.09-.65.12-1.3.79-1.79l3.18-2.21c-.48-3.27-.88-6.32-1.18-8.34-.18-1.26.71-2.05,1.66-2.19.99-.14,2.04.36,2.21,1.58v.04c.17,1.41.52,3.77.9,6.4l2.75-1.96-1.2-8.26c-.17-1.18.73-1.93,1.68-2.07.99-.14,2.03.33,2.2,1.5l.92,6.32,1.41-.98c.88-.63,1.65-.94,2.37-1.04,2.09-.3,3.41,1.29,3.67,2.77.09.38.16.83.23,1.33.31,2.13.53,4.98.64,6.51.2,4.05-1.14,6.07-3.88,6.47-.72.11-1.83.23-2.38-.9l.31,2.13ZM61.23,115.55c.15-.6.47-1.08,1.07-1.17.15-.02.31,0,.47,0,.12.02.2.01.31,0,1.25-.18.76-4.66.48-6.6-.29-2.02-.41-2.5-.82-2.44-.27.04-2.59,1.7-2.73,1.8l1.23,8.41Z"/>
        <path class="cls-1" d="M103.96,103.34l-8.92,1.18c.55,4.08,1.61,12.08,1.67,12.54.27,1.32,1.74,1.3,3.42,1.06,1.52-.22,3.77-.55,3.27-3.97-.21-1.45.73-2.2,1.76-2.35.23-.03,2.36-.34,2.69,1.94.96,6.58-3.52,7.86-7.59,8.45-3.2.47-6.95.82-7.61-3.67-1.54-10.54-1.72-11.83-1.91-13.36-5.63.86-15.09,2.31-15.09,2.31h-.04c-1.33.2-2.16-.69-2.31-1.72-.14-.99.39-2.12,1.76-2.32l28.31-4.12c1.33-.19,2.17.73,2.32,1.76.14.99-.36,2.07-1.69,2.27h-.04ZM75.36,124.14c-.13-.88.21-1.74,1.09-2.1,6.91-2.75,8-8.55,7.66-13.59-.08-1.35.75-2.05,1.7-2.19,1.18-.17,2.56.48,2.73,1.66l.03.19c.74,14.93-10.56,17.9-10.72,17.92-1.45.21-2.33-.82-2.49-1.89ZM78.45,98.09c-1.33.19-2.16-.7-2.31-1.68-.14-.99.4-2.08,1.73-2.27l19.9-2.9c1.37-.2,2.2.69,2.34,1.68s-.4,2.08-1.77,2.28l-19.9,2.9Z"/>
        <path class="cls-1" d="M122.38,95.22c.59-.24.97-.3,1.01-.3,1.26-.18,2.13.74,2.28,1.77.29,1.98-1.51,2.44-3.23,2.88l.1,4.45c.45-.14.86-.24,1.22-.41.26-.12.48-.19.71-.22,1.29-.19,2.29.79,2.45,1.86.22,1.52-1.12,2.42-4.13,3.09.07.49.1.96.17,1.41.07.46.17.91.23,1.33.49,2.57,2.2,3.6,3.91,3.35,2.51-.37,4.38-3.28,3.98-6.02-.25-1.75-1.4-3.22-2.99-4.54-.57-.46-.84-.96-.91-1.42-.16-1.1.78-2.13,1.96-2.31.65-.09,1.37.07,2,.64,2.4,2.1,3.87,4.41,4.25,7,.88,6.01-3.58,10.12-7.91,10.75-2.17.32-7.13.15-8.24-7.46-.1-.68-.21-1.45-.28-2.21-2.2.13-4.78.27-5.12-2.05-.15-1.03.47-2.13,1.5-2.28.19-.03.42-.02.62.03.8.15,1.73.17,2.7.11-.06-1.51-.13-3.05-.17-4.6-3.34.02-4.81-.46-5.05-2.1-.16-1.1.55-2.33,1.66-2.5.23-.03.46-.03.71.05.8.19,1.67.3,2.53.33l-.04-1.08c-.11-2.39-.3-3.96-.4-5.69-.08-1.39.74-2.13,1.69-2.27,1.14-.17,2.48.49,2.68,1.86.26,1.79.04,3.22.1,5.5l.04,1.04Z"/>
        <path class="cls-1" d="M171.35,99.04c1.29-.19,2.11.62,2.24,1.54.14.95-.41,2-1.73,2.23-2.46.44-7.18,1.12-11.86,1.8l1.23,7.67v.04c.18,1.18-.84,1.95-1.9,2.1-1.1.16-2.26-.29-2.43-1.47v-.04s-.97-7.71-.97-7.71c-3.2.43-6.06.81-7.71.97-3.17.35-5.15-.92-5.63-4-.32-1.9-.66-4.02-.99-6.23-.37-2.55-.72-5.22-.96-7.63-.16-1.34.82-2.1,1.89-2.26,1.1-.16,2.31.36,2.48,1.54v.08c.3,2.48.7,5.81,1.13,8.74.8,5.48.89,6.12,2.99,5.86,1.88-.2,5.34-.7,9.03-1.24,5.06-.74,10.57-1.58,13.16-1.99h.04ZM145.43,115.56c-1.33.19-2.29-.75-2.44-1.82-.12-.8.25-1.71,1.27-2.21,2.43-1.17,4.32-2.65,6.17-4.59.34-.36.7-.53,1.08-.58,1.06-.16,2.17.73,2.32,1.8.07.5-.05,1.02-.48,1.51-1.94,2.19-6.1,5.63-7.92,5.89ZM166.2,82.89c.39,1.85.72,3.86,1.01,5.84.29,1.98.54,3.96.68,5.73.15,1.81-.93,3.48-3.42,3.96-.87.17-2.35.42-3.99.66-2.55.37-5.41.75-6.67.89-2.64.31-4.07-.96-4.41-2.78-.32-1.7-.64-3.6-.93-5.58-.29-2.02-.55-4.08-.77-6.07-.18-1.53.62-3.24,3.52-3.82.98-.22,3.07-.53,5.12-.83,2.09-.3,4.19-.61,5.22-.68,2.72-.28,4.29.93,4.62,2.67ZM162.27,84.43c-.25-1.17-.36-1.15-5.69-.38-1.67.24-3.23.51-3.75.63-.83.16-1.06.74-1.01,1.31l.08.8,10.54-1.54-.16-.83ZM162.93,88.18l-10.66,1.55.3,2.05,10.66-1.55-.3-2.05ZM163.59,93.22l-10.54,1.54.2,1.1c.14.95.43,1.1,4.58.5,5.86-.85,5.97-.91,5.88-2.06l-.12-1.07ZM170.85,110.77c-1.68-1.16-4.21-2.22-6.12-2.57-1.08-.19-1.59-.78-1.69-1.46-.14-.95.6-2.03,1.85-2.21,1.14-.17,8.91,1.15,9.34,4.12.17,1.18-.62,2.38-1.77,2.55-.5.07-1.05-.04-1.62-.42Z"/>
        <path class="cls-1" d="M203.65,105.84c.17,1.14-.82,1.87-1.88,2.02s-2.21-.26-2.39-1.44l-2.06-14.7c-1.45-.92-2.92-1.91-4.33-3.06-.83,7.89-3.56,15.56-9.05,21.1-.57.59-1.19.87-1.8.96-1.29.19-2.46-.61-2.61-1.68-.09-.65.19-1.39.94-2.08,3.72-3.3,6.04-7.6,7.31-11.95-1.07-.39-1.96-.68-3.19-.86-.95-.13-1.43-.72-1.52-1.37-.17-1.14.67-2.58,2-2.78.84-.12,2.48.46,3.62.87.3-1.95.52-4.7.32-6.07-.08-.53-.35-.8-.92-.72l-.11.02c-.23.03-1.7.33-3.03.56-1,4.34-2.54,8.42-4.08,11.44-.51,1.01-1.3,1.51-2.02,1.62-1.14.17-2.22-.57-2.38-1.64-.06-.42.02-.93.33-1.45,2.65-4.47,4.21-9.51,4.81-15.78.12-1.34.95-2,1.87-2.14,1.06-.16,2.24.45,2.42,1.71.01.08.04.3-.23,2.4,1.4-.24,2.84-.49,3.3-.56,2.07-.22,3.92.52,4.26,2.84.03.23.08.57,0,2.14.11-.05.22-.07.34-.09.3-.04.66.02,1.02.32.7.56,1.36,1.05,2.04,1.49l-1.48-9.62v-.04c-.18-1.22.76-1.94,1.83-2.09s2.26.29,2.43,1.47v.04s1.74,12.73,1.74,12.73c2.78,1.23,5.57,1.99,8.69,2.81,1.01.24,1.54.94,1.65,1.7.17,1.18-.61,2.5-2.02,2.7-1.29.19-5.43-1.5-7.64-2.54l1.82,11.67v.04Z"/>
        <path class="cls-1" d="M227.01,79.97c.59-.24.97-.3,1-.3,1.26-.18,2.13.74,2.28,1.77.29,1.98-1.51,2.44-3.23,2.88l.11,4.45c.45-.14.86-.24,1.22-.41.25-.12.48-.19.71-.22,1.29-.19,2.29.79,2.45,1.86.22,1.52-1.12,2.42-4.13,3.09.07.49.1.96.17,1.41.07.46.17.91.23,1.33.49,2.57,2.2,3.6,3.91,3.35,2.51-.37,4.38-3.28,3.98-6.02-.25-1.75-1.4-3.21-2.99-4.54-.57-.46-.84-.97-.91-1.42-.16-1.1.78-2.13,1.96-2.31.65-.09,1.37.07,2,.64,2.4,2.1,3.87,4.41,4.25,7,.88,6.01-3.58,10.12-7.92,10.75-2.17.32-7.13.15-8.24-7.46-.1-.68-.21-1.45-.29-2.21-2.2.13-4.78.27-5.12-2.05-.15-1.03.47-2.13,1.49-2.28.19-.03.42-.02.62.03.8.15,1.74.17,2.7.11-.06-1.51-.13-3.05-.16-4.6-3.34.02-4.81-.46-5.05-2.1-.16-1.1.55-2.33,1.66-2.5.23-.03.46-.03.71.05.81.19,1.68.3,2.54.33l-.04-1.08c-.12-2.39-.3-3.96-.4-5.69-.08-1.39.74-2.13,1.69-2.27,1.14-.17,2.48.49,2.68,1.86.26,1.79.04,3.22.1,5.5l.03,1.04Z"/>
        <path class="cls-1" d="M75.29,163.28l-7.82,1.02c.7,1.38,1.56,2.73,2.6,3.97,1.14-.94,2.28-2.2,2.99-3.2.32-.47.75-.69,1.17-.75,1.03-.15,2.12.66,2.27,1.69.24,1.64-3.11,3.99-4.14,4.64,1.61,1.44,3.45,2.61,5.39,3.37.83.34,1.26.9,1.35,1.55.16,1.06-.61,2.22-1.86,2.41-1.67.24-5.49-2.19-9.16-7.41l.05.34,1.04,5.29.04.3c.38,2.63-1.04,4.89-4.92,5.46-1.79.26-4.16.53-4.46-1.57-.14-.99.36-2.07,1.46-2.23.15-.02.27-.04.42-.02.78.04,1.4.03,1.9-.04,1.26-.18,1.75-.8,1.53-2.32l-1.62-10.88-6.5,1.02c-.23.03-.42.02-.62.01.01.08.07.18.08.26.15,1.03-.66,2.12-1.58,2.25-.46.07-.9-.06-1.36-.5-.32-.34-.77-.74-1.17-1.11,1.03,6.8,2.38,14.73,2.38,14.73v.04c.18,1.22-.79,2.02-1.89,2.18-1.06.16-2.22-.3-2.4-1.55v-.04s-1.69-12.62-1.69-12.62c-1.74,4.33-2.62,5.24-3.72,5.4-1.1.16-2.22-.61-2.39-1.71-.07-.49.04-1.05.46-1.62,1.65-2.26,3.52-5.95,4.58-9.64l-.11-.76-3.37.61h-.08c-1.33.21-2.07-.62-2.21-1.53-.15-1.03.42-2.16,1.72-2.35l3.31-.48-.97-5.84v-.04c-.19-1.26.82-2.06,1.92-2.23,1.03-.15,2.18.3,2.36,1.56v.08s.31,2.56.71,5.88l2.21-.32c1.29-.19,2.08.71,2.22,1.66.14.99-.36,2.03-1.58,2.21h-.08s-2.26.26-2.26.26c.12.8.19,1.6.31,2.4l.28.04c.85.23,2.11.86,3.01,1.43-.08-.8.38-1.69,1.44-1.84l6.5-.99-.3-1.78-4.79.74c-1.18.17-1.85-.43-1.96-1.15-.11-.72.42-1.62,1.53-1.78l4.79-.7-.24-1.67-5.82.85c-1.26.18-1.93-.46-2.04-1.18-.12-.8.41-1.69,1.59-1.86l2.59-.38c-.46-.52-.86-.85-1.63-1.32-.51-.31-.73-.71-.78-1.09-.13-.91.7-1.85,1.73-2,1.33-.19,4.26,2.02,4.45,3.32.03.19.02.39,0,.54l2.28-.33c.51-1.28,1.01-2.67,1.27-3.8.19-.84.79-1.24,1.44-1.34,1.1-.16,2.41.54,2.57,1.61.08.57-.14,1.15-1.01,2.91l3.73-.54c1.18-.17,1.86.51,1.97,1.27.11.76-.35,1.61-1.53,1.78l-7.15,1.04.24,1.67,5.52-.8c1.14-.17,1.78.48,1.88,1.2.11.76-.32,1.56-1.46,1.73l-5.48.76.26,1.79,8.11-1.14c1.07-.16,1.72.57,1.83,1.37.12.8-.3,1.68-1.33,1.83h-.04ZM57.53,179.51c-1.22.18-2.18-.81-2.33-1.84-.11-.72.17-1.5,1.01-1.9,2.5-1.22,3.57-1.92,5.47-3.79.31-.28.64-.44.98-.49.88-.13,1.78.52,1.92,1.43.08.53-.11,1.14-.64,1.72-1.57,1.75-5.03,4.66-6.4,4.86ZM60.12,171.44c-1.22-.95-2.2-1-3.06-1.26-.65-.22-.94-.6-1.01-1.06-.13-.88.62-1.88,1.65-2.03.38-.06,4.91.37,5.22,2.5.14.99-.55,2.1-1.54,2.25-.38.06-.83-.07-1.26-.4Z"/>
        <path class="cls-1" d="M103.21,168.77c.19,1.33-.77,2.71-2.03,2.9-.61.09-1.26-.09-1.88-.62-2.27-1.96-4.66-2.9-7.56-3.64-.77-.2-1.2-.8-1.3-1.48-.16-1.1.54-2.41,1.88-2.61.49-.07,2.26.33,3.81.81,2.82-4.14,4.08-7.2,4.03-7.54-.04-.27-.26-.43-.64-.37-1.6.23-3.5.51-5.89.9-1.76,3.95-3.93,7.68-6.35,10.52-.6.67-1.25,1.04-1.86,1.13-1.29.19-2.44-.73-2.6-1.88-.09-.65.08-1.33.69-1.96,3.33-3.56,6.29-9.12,7.79-15.05.3-1.13,1.11-1.72,1.98-1.84,1.22-.18,2.61.55,2.79,1.85.06.42.03.73-.83,3.11,2.01-.33,4.47-.81,6.45-1.09,2.05-.3,3.49.74,3.73,2.37.09.65-.03,1.37-.35,2.15-1.44,3.44-3.28,6.54-5.1,9.29,2.01.99,3.07,1.85,3.24,3.06Z"/>
        <path class="cls-1" d="M125.53,142.17c.06.42,0,1.09-.12,1.84.21-.15.42-.29.56-.43.34-.32.74-.5,1.12-.55,1.03-.15,2.06.52,2.2,1.5.14.95-.32,2.38-4.57,4.36-1.17,4.52-3.08,9.5-4.86,13.61-.41.95-1.22,1.46-2.02,1.58-1.1.16-2.27-.41-2.44-1.51-.06-.42.03-.9.3-1.44,3.43-7.14,3.76-8.05,4.58-10.69-.63.21-1.23.33-1.81.42-3.2.47-4.54-.5-4.72-1.76-.14-.99.41-2,1.66-2.19.27-.04.58-.04.93.02.56.11,1.22.09,1.98-.02.88-.13,1.89-.39,2.87-.81.17-1.23.13-2.31.12-3.71.02-1.21.82-1.87,1.73-2,1.07-.16,2.28.44,2.47,1.74v.04ZM130.7,159.79c-.12-.8-.28-1.4-.43-2.15l-.06-.42c-.3-2.09-.22-3.66,1.57-3.92,1.03-.15,2.16.39,2.33,1.6.02.12.03.23.02.39,0,.54-.06.94.05,1.7.38,2.59.68,3.9.9,4.84,2.1.55,5.68,1.93,6,4.1.19,1.29-.69,2.43-1.83,2.6-.61.09-1.29-.08-1.92-.65-.54-.5-1.23-.99-1.99-1.42-.61,2.19-2.98,4.63-6.29,5.11-3.69.54-7-1.39-7.4-4.13-.45-3.08,2.94-5.4,7.09-6.01.72-.11,1.45-.17,2.19-.16l-.22-1.48ZM131.21,164.92c-.88-.14-1.74-.17-2.61-.05-1.52.22-3.43,1-3.26,2.15.03.19.34,1.27,2.59.95,1.75-.26,3.24-1.52,3.28-2.85v-.2ZM138.1,151.64c-1.71-.8-3.43-1.13-5.37-.85l-.61.09c-1.1.16-1.83-.59-1.96-1.46-.3-2.05,1.93-2.46,3.04-2.62,3.46-.5,7.19.27,7.53,2.59.16,1.1-.57,2.26-1.59,2.41-.34.05-.66.02-1.03-.16Z"/>
        <path class="cls-1" d="M154.27,161.41c-1.57.97-4.68,2.82-5.63,2.96-1.18.17-2.01-.75-2.16-1.74-.12-.8.19-1.66,1.1-2.06l.99-.42-2.82-19.33h-.04c-1.29.19-2.07-.62-2.2-1.5-.13-.91.39-1.88,1.68-2.07l8.75-1.28c1.22-.18,1.96.65,2.09,1.56v.08c.22-.15.52-.27.86-.32l1.98-.29-.26-1.79c-.16-1.1.71-1.78,1.67-1.91s1.98.29,2.14,1.36l.25,1.75,2.21-.29c1.18-.17,1.86.51,1.98,1.31.11.76-.34,1.64-1.52,1.82l-7.99,1.17c-1.1.16-1.78-.48-1.93-1.23-.21.18-.47.26-.77.34l3.99,27.36c.17,1.14-.63,1.84-1.5,1.97-.91.13-1.87-.31-2.04-1.45l-.83-5.98ZM151.2,140.06l-1.98.29.5,3.46,1.98-.29-.5-3.46ZM152.21,146.98l-1.98.29.47,3.2,1.98-.29-.47-3.2ZM153.14,153.65l-1.94.28.68,4.64c.61-.32,1.23-.61,1.84-.97l-.58-3.96ZM172.62,147.31c.38,2.08.79,4.12,1.29,5.91.47-1.31.79-2.6.99-3.87.14-.88.77-1.36,1.46-1.46.95-.14,2.04.4,2.2,1.47.07.46-.49,4.35-3,8.48.33.69.69,1.3,1.08,1.82.19.25.56.89.82.85.27-.04.49-.62.44-2.59-.04-1.08.72-1.74,1.55-1.86.95-.14,2.08.4,2.26,1.61.11.72.14,6.31-3.51,6.84-1.22.18-3.29-.18-5.04-3.38-4.11,4.83-8.44,6.36-8.82,6.41-1.18.17-2.09-.75-2.23-1.73-.11-.76.23-1.59,1.18-2,1.5-.65,2.72-1.33,3.82-2.07l-.48.15c-.6.16-1.32.27-2.08.38-2.97.43-4.85.55-5.35-2.06-.16-.83-.36-2.16-.54-3.46-.19-1.33-.39-2.66-.47-3.47-.27-2.64,1.89-3.04,4.67-3.44,2.32-.34,4.7-.57,5.19,2,.19,1.02.43,2.42.63,3.79.53,3.65.39,4.26-.2,5.04,1.17-1.03,2.14-2.1,2.98-3.27-1.03-2.8-1.82-6.11-2.45-9.59l-10.88,1.59c-1.14.17-1.83-.59-1.95-1.39-.12-.84.33-1.72,1.47-1.89l4.27-.58c.42-1.15.65-2.74.66-4.25.02-.9.62-1.37,1.3-1.47.99-.14,2.12.39,2.27,1.42.09.61-.17,1.81-1.11,3.85l3.42-.5c-.52-3.31-1.03-6.81-1.6-10.18v-.04c-.19-1.26.66-2.08,1.65-2.22.95-.14,2,.37,2.19,1.7v.08c.3,2.52.67,5.34,1.09,8.2l.28,1.94,4.56-.7c1.18-.17,1.87.54,1.99,1.38.12.8-.33,1.72-1.51,1.89l-4.49.65ZM159.93,145.35c-.61.09-1.19-.14-1.48-.83-.3-.73-.6-.92-1.13-1.39-.31-.27-.47-.55-.51-.82-.11-.72.57-1.41,1.41-1.53,1.29-.19,3.03,1.58,3.19,2.68.15,1.03-.67,1.77-1.47,1.89ZM165.22,154.45c-.08-.53-.19-1.02-.24-1.4-.07-.5-.26-.74-1.9-.5-1.07.16-1.74.29-1.71,1.1.05.34.08.8.16,1.34l3.69-.54ZM161.89,157.42c.11.72.19,1.33.29,1.71.09.34.33.65,1.89.42,1.86-.27,1.85-.39,1.52-2.67l-3.69.54ZM176.07,141.41c-.53.08-1.06-.08-1.41-.61-.84-1.24-1.66-1.78-2.51-2.31-.34-.22-.54-.5-.58-.81-.12-.84.83-1.79,1.78-1.93,1.18-.17,4.33,2.01,4.55,3.49.16,1.07-.83,2.03-1.82,2.17Z"/>
        <path class="cls-1" d="M198.31,161.36c-1.18.17-1.87-.58-2-1.46-.12-.84.33-1.76,1.51-1.93l8.3-1.17-.22-1.48-5.67.86c-1.14.17-1.82-.51-1.93-1.27-.11-.72.36-1.57,1.5-1.73l5.67-.83-.19-1.29-2.49.28c-4.36.44-4.74-2.11-5.18-5.19-.18-1.22-.32-2.48-.42-3.4-.18-1.76.75-3.37,3.59-3.87.79-.16,1.71-.29,2.66-.43l-.19-1.33-6.54.99c-.57.08-1.02-.05-1.37-.31.32.3.53.7.6,1.16.13.91-.34,1.95-1.52,2.12h-.04s-2.29.26-2.29.26l.31,2.13.15-.02c.68-.1,4.76,1.75,5.02,3.54.15,1.06-.62,2.11-1.58,2.25-.5.07-.99-.09-1.44-.57-.51-.55-1.09-1.12-1.63-1.63,1.01,6.65,2.25,14.13,2.25,14.13v.04c.18,1.22-.79,1.98-1.82,2.13-1.07.16-2.18-.3-2.36-1.52v-.04s-1.58-11.62-1.58-11.62c-1.7,4.6-2.28,4.88-3.23,5.02-1.14.17-2.34-.63-2.5-1.73-.06-.42.06-.94.41-1.42,1.55-2.17,3.29-5.69,4.33-9.26l-.13-.88-3,.51h-.08c-1.26.19-2-.63-2.13-1.54-.14-.95.37-2,1.66-2.19l2.93-.43-.51-2.96c-1.59.58-2.53.8-2.75.83-1.14.17-1.94-.77-2.08-1.76-.12-.84.18-1.66,1.16-1.92,2.88-.77,5.35-1.67,8.06-3.35.14-.1.29-.12.45-.14.95-.14,2.17.77,2.33,1.84.15,1.03-.57,1.68-3.16,2.87l.47,4.01,2.21-.32c.57-.08,1.02.09,1.37.35-.27-.27-.44-.64-.5-1.02-.12-.84.33-1.76,1.51-1.93l6.55-.92-.21-1.41c-3.44.69-5.67,1.1-5.97,1.14-1.26.18-1.99-.57-2.11-1.44-.13-.91.39-1.88,1.72-2.08,4.68-.72,9.27-1.43,14.41-3.27.19-.06.34-.09.49-.11,1.22-.18,1.96.65,2.09,1.56.11.72-.21,1.51-1.02,1.78-1.71.56-3.77,1.09-5.83,1.59l.24,1.67,7.53-1.14c1.14-.17,1.83.59,1.96,1.42.12.84-.33,1.76-1.47,1.92l-7.54,1.06.19,1.29c6.13-.89,7.2-.7,8.06,5.16.82,5.63.82,6.45-6.22,7.47l.19,1.29,6.09-.89c1.14-.17,1.79.52,1.89,1.24.11.76-.31,1.6-1.45,1.76l-6.09.85.22,1.48,8.29-1.25c1.14-.17,1.83.59,1.96,1.42.13.88-.32,1.79-1.46,1.96l-20.4,2.97ZM203.85,141.21c-.65.09-1.25.22-1.78.3-.98.18-1.14.71-1.09,1.29.04.27.04.58.1.96l3.08-.45-.31-2.09ZM204.54,146l-3.12.45c.23,1.6.4,2.23,2.01,2.04l1.45-.21-.33-2.28ZM211.27,142.26c-.06-.38-.14-.68-.18-.98-.22-1.02-.96-.99-3.43-.63l.3,2.09,3.31-.48ZM208.35,145.45l.33,2.28,2.13-.31c.8-.12,1.05-.5.98-1.27-.05-.34-.07-.73-.13-1.18l-3.31.48Z"/>
        <path class="cls-1" d="M235.68,129.26c4.37-2,7.52-3.35,10.26-3.75,2.02-.29,3.01.92,3.19,2.14.2,1.37-.52,2.33-2.95,2.68-.27.04-.53.08-.88.09l-.53.08c-1.98.29-3.9,1.27-4.87,1.8-2.35,1.24-5.44,5.34-4.76,10.02.59,4.07,3.96,7.47,9.4,6.67l.42-.06c2.5-.44,3.73.82,3.91,2,.17,1.18-.68,2.51-2.93,2.84-8.18,1.19-13.85-3.81-14.79-10.28-.6-4.11.89-7.24,1.38-8.17.18-.34.27-.54.26-.62s-.05-.11-.17-.09-.3.08-.52.19c-1.72.72-2.55,1.69-3.88,2.47-2.46,1.49-3.39,1.81-4.04,1.91-1.64.24-2.73-.88-2.91-2.14-.15-1.03.35-2.15,1.71-2.66,1.59-.54,6.86-2.51,12.7-5.11ZM247.81,140.24c-.53-.46-2.72-1.58-3.45-1.79-.85-.23-1.23-.71-1.31-1.25-.13-.88.59-1.83,1.65-1.99,1.1-.16,4.25,1.17,5.08,1.82.44.36.7.79.76,1.25.16,1.07-.61,2.23-1.56,2.36-.38.06-.79-.08-1.19-.41ZM251.42,135.94c-.53-.43-2.78-1.46-3.5-1.63-.84-.19-1.26-.67-1.34-1.2-.13-.87.61-1.92,1.72-2.08.49-.07,5.43.76,5.76,2.97.15,1.03-.58,2.14-1.5,2.28-.38.05-.74-.05-1.14-.34Z"/>
        <path class="cls-1" d="M96.79,206.82l-.11.02c-.87.17-1.11.63-1.04,1.16.37,2.82.9,6.71,1.42,10.28l.37,2.55c.18,1.26-.56,2.03-1.44,2.15-.84.12-1.81-.4-1.99-1.65-.24-1.67-.57-3.65-.85-5.59-.41-2.82-.78-5.64-1.05-7.77-.27-2.41.6-3.62,3.37-4.1l.64-.13-.73-4.99c-.19-1.29.75-2.05,1.74-2.2,1.03-.15,2.11.31,2.29,1.61l.73,4.99c.34-.05.62-.05.92-.1,2.38-.19,3.61.79,3.97,3,.31,1.86.81,5.28,1.3,8.36.23,1.6.49,2.8.51,2.99l.04.31c.28,1.94-.81,2.99-2.37,3.22-.68.1-1.53.18-2.07-.59l1.22,8.14c.17,1.14-.67,1.81-1.62,1.95-.91.13-1.94-.26-2.11-1.4l-3.16-22.19ZM103.32,217.48c.12-.02.13-.17.1-.4-1.02-6.96-1.15-7.92-1.54-10-.07-.5-.36-.88-1.06-.86-.15.02-.31,0-.46.03l1.81,12.13c.12-.49.42-.84.88-.91.08-.01.16.02.23,0h.04ZM105.98,201.05c-1.18.17-1.92-.65-2.05-1.57-.13-.91.34-1.92,1.52-2.09l16.71-2.43c1.1-.16,1.81.67,1.94,1.58.13.91-.3,1.91-1.41,2.07l-16.71,2.43ZM116.52,209.96c-1.94.28-3.92.53-5.22.68-2.9.34-3.81-.26-4.34-3.95-.62-4.22.41-4.41,7.56-5.45,7.73-1.13,8.03-1.13,8.71,3.47.59,4.03,0,4.27-6.7,5.25ZM123.67,226.49c-1.51.3-3.18.58-4.85.82-2.09.3-4.19.57-5.91.75-2.57.26-3.95-.94-4.3-2.87-.24-1.4-.51-2.96-.73-4.48-.22-1.52-.41-3.05-.56-4.39-.15-1.57.44-3.41,3.2-3.92,1.51-.3,3.41-.58,5.35-.86,1.98-.29,3.96-.58,5.68-.75,2.33-.26,3.82,1.15,4.18,2.81.28,1.4.62,3.17.87,4.89.21,1.45.37,2.82.42,3.98.08,1.85-1.11,3.58-3.34,4.02ZM110.73,206.73c.12.8.69.75,4.73.17,4.15-.6,4.26-.66,4.08-1.84-.09-.65-.18-1.22-1.13-1.08-1.29.19-3.16.42-4.84.67-2.85.42-2.99.55-2.98,1.13l.14.95ZM114.5,215c-.88.13-1.67.24-2.32.38-1.29.23-1.18,1.22-.9,3.16l3.65-.53-.44-3.01ZM115.37,221.01l-3.65.53c.42,2.85.54,3.19,1.92,3.06.65-.09,1.41-.17,2.21-.28l-.48-3.31ZM122.43,216.91c-.1-.68-.19-1.33-.32-1.93-.23-1.05-.69-.99-4.15-.48l.44,3.01,4.03-.59ZM118.84,220.51l.49,3.35c.91-.13,1.82-.3,2.69-.47,1.33-.19,1.24-.84.85-3.47l-4.03.59Z"/>
        <path class="cls-1" d="M148,194.03c4.11-.6,8.07-1.14,10.36-1.43,1.41-.17,2.23.65,2.37,1.56.14.99-.44,2.05-1.77,2.24h-.08c-2.06.27-5.72.77-9.49,1.32-4.57.67-9.28,1.39-11.52,1.76-1.14.21-1.48.8-1.34,1.71.9,6.98,2.71,16.2-.71,22.06-.46.81-1.11,1.17-1.8,1.27-1.26.18-2.5-.61-2.65-1.63-.05-.34.01-.7.23-1.08,2.53-4.22,2.22-9.8,1.46-15.02-.26-1.79-.56-3.57-.84-5.24l-.02-.11c-.48-3.27.85-5.1,4.38-5.69,1.82-.3,4.22-.65,6.84-1.04l-.33-2.52c-.21-1.41.83-2.3,1.93-2.46,1.14-.17,2.39.39,2.59,1.8l.37,2.51ZM142.81,218.14c1.63-5.6,2.29-11.72,2.48-16.33.04-1.33.91-2.04,1.9-2.18,1.14-.17,2.4.47,2.59,1.8.09.61-.59,9.02-2.77,15.95,3.11-.8,6.23-1.76,8.93-2.7-.95-.95-1.94-1.82-2.91-2.64-.49-.4-.71-.87-.78-1.33-.15-1.03.64-2,1.75-2.16.53-.08,1.13.03,1.74.48,2.79,2.08,7.67,6.54,7.98,8.67.21,1.41-.87,2.57-2.08,2.75-.8.12-1.62-.19-2.16-1.2-.31-.54-.66-1.07-1.01-1.6-6.09,2.44-14.87,5.12-17.42,5.49-1.26.18-2.11-.86-2.27-1.96-.14-.99.28-2.06,1.46-2.27.79-.16,1.62-.32,2.49-.52l.08-.24Z"/>
        <path class="cls-1" d="M181.18,216.9c-2.93-4.08-6.71-8.46-9.74-11.09-1.43-1.27-2.28-2.58-2.48-3.99-.23-1.56.3-3.23,1.63-5.09,2.16-3.04,4.57-6.26,6.44-9.64.43-.76,1.07-1.17,1.72-1.26,1.33-.19,2.75.76,2.95,2.1.07.5,0,1.01-.35,1.57-1.45,2.35-5.2,6.43-7.13,8.96-.71.96-1.03,1.74-.92,2.47.08.57.47,1.1,1.06,1.67,4.63,4.34,8.29,7.26,10.69,10.99.21.36.33.69.39,1.07.22,1.52-1.01,2.95-2.3,3.13-.72.11-1.42-.14-1.96-.88Z"/>
        <path class="cls-1" d="M201.04,204.33c-.49-3.39-2.31-12.37-3.49-18.88l-.02-.11c-.23-1.56.91-2.54,2.17-2.73,1.29-.19,2.71.46,2.95,2.1.65,4.45,1.47,15.17,2,18.79l.08.53c.21,1.45-.63,2.31-1.55,2.44-.91.13-1.89-.42-2.08-1.75l-.06-.38ZM204.36,214.34c-1.18.17-3.04-.61-3.3-2.36-.23-1.56.83-3.11,2.5-3.36,2.02-.29,3.07,1.07,3.28,2.48.3,2.05-1.34,3.07-2.48,3.24Z"/>
      </g>
      <polygon class="cls-2" points="246.82 218.33 259.57 266.14 204.11 250.76 246.82 218.33"/>
    </g>
  </g>
</svg>