<svg width="13" height="13" viewBox="0 0 13 13" fill="none" xmlns="http://www.w3.org/2000/svg">
<path d="M5.6263 0.434789C6.02351 -0.144784 6.87884 -0.144784 7.27604 0.434788L8.89518 2.7973C9.02521 2.98703 9.21667 3.12614 9.43729 3.19117L12.1845 4.001C12.8585 4.19967 13.1228 5.01314 12.6943 5.57L10.9478 7.83995C10.8075 8.02224 10.7344 8.24732 10.7407 8.47724L10.8194 11.3403C10.8388 12.0426 10.1468 12.5454 9.48478 12.31L6.78622 11.3503C6.5695 11.2733 6.33284 11.2733 6.11612 11.3503L3.41757 12.31C2.75556 12.5454 2.06358 12.0426 2.0829 11.3403L2.16164 8.47724C2.16796 8.24732 2.09483 8.02224 1.95457 7.83995L0.208028 5.57C-0.220434 5.01314 0.0438764 4.19967 0.717826 4.001L3.46505 3.19117C3.68567 3.12614 3.87714 2.98703 4.00717 2.7973L5.6263 0.434789Z" fill="#EA5548"/>
</svg>
