<svg width="16" height="16" viewBox="0 0 16 16" fill="none" xmlns="http://www.w3.org/2000/svg">
<path d="M7.46582 0.717407C7.66443 0.427751 8.09143 0.427752 8.29004 0.717407L10.4385 3.85217C10.6335 4.13662 10.9211 4.34547 11.252 4.44299L14.8965 5.51721C15.2334 5.61658 15.3656 6.02298 15.1514 6.30139L12.834 9.31311C12.6237 9.58653 12.514 9.92434 12.5234 10.2692L12.6279 14.067C12.6376 14.4181 12.2919 14.6699 11.9609 14.5524L8.38086 13.2789C8.05578 13.1633 7.70008 13.1633 7.375 13.2789L3.79492 14.5524C3.46398 14.6699 3.11827 14.4181 3.12793 14.067L3.23242 10.2692C3.24191 9.92434 3.13219 9.58653 2.92188 9.31311L0.604492 6.30139C0.390309 6.02298 0.522466 5.61658 0.859375 5.51721L4.50391 4.44299C4.83473 4.34547 5.12234 4.13662 5.31738 3.85217L7.46582 0.717407Z" stroke="#182223"/>
</svg>
