<svg width="275" height="90" viewBox="0 0 275 90" fill="none" xmlns="http://www.w3.org/2000/svg">
<rect x="8" y="8" width="266" height="81" rx="7" fill="white"/>
<rect x="8" y="8" width="266" height="81" rx="7" stroke="#212121" stroke-width="2"/>
<rect x="1" y="1" width="266" height="81" rx="7" fill="#182223"/>
<rect x="1" y="1" width="266" height="81" rx="7" fill="url(#paint0_linear_2266_267)"/>
<rect x="1" y="1" width="266" height="81" rx="7" stroke="#212121" stroke-width="2"/>
<path d="M209.56 37.16C211.413 36.3067 213.1 35.3333 214.62 34.24C216.14 33.1467 217.487 31.9467 218.66 30.64C219.833 29.32 220.82 27.9133 221.62 26.42L222.6 27.18H210.7V24.2H224.84V27.18C224 28.9533 222.887 30.64 221.5 32.24C220.113 33.84 218.527 35.3 216.74 36.62C214.967 37.9267 213.06 39.02 211.02 39.9L209.56 37.16ZM224.22 39.96C223.473 39.08 222.727 38.2867 221.98 37.58C221.247 36.86 220.487 36.2 219.7 35.6C218.913 35 218.073 34.4333 217.18 33.9L219.32 31.6C220.613 32.36 221.853 33.2533 223.04 34.28C224.24 35.2933 225.4 36.4467 226.52 37.74L224.22 39.96Z" fill="#182223"/>
<path d="M203.2 39.78C202.747 37.7133 202.273 35.8467 201.78 34.18C201.287 32.5 200.747 30.9067 200.16 29.4L203.34 28.28C203.953 29.7733 204.52 31.38 205.04 33.1C205.56 34.8067 206.08 36.7533 206.6 38.94L203.2 39.78ZM187.4 38.28C188.173 36.9067 188.84 35.4667 189.4 33.96C189.96 32.4533 190.407 30.9133 190.74 29.34C191.073 27.7533 191.287 26.1667 191.38 24.58L194.78 24.76C194.713 26.52 194.5 28.2733 194.14 30.02C193.793 31.7667 193.313 33.46 192.7 35.1C192.1 36.74 191.38 38.2867 190.54 39.74L187.4 38.28ZM202.1 27.84C201.567 27.84 201.073 27.7067 200.62 27.44C200.18 27.1733 199.827 26.82 199.56 26.38C199.293 25.9267 199.16 25.4333 199.16 24.9C199.16 24.3533 199.293 23.86 199.56 23.42C199.827 22.98 200.18 22.6267 200.62 22.36C201.073 22.0933 201.567 21.96 202.1 21.96C202.647 21.96 203.14 22.0933 203.58 22.36C204.02 22.6267 204.373 22.98 204.64 23.42C204.907 23.86 205.04 24.3533 205.04 24.9C205.04 25.4333 204.907 25.9267 204.64 26.38C204.373 26.82 204.02 27.1733 203.58 27.44C203.14 27.7067 202.647 27.84 202.1 27.84ZM202.1 25.86C202.367 25.86 202.593 25.7667 202.78 25.58C202.967 25.3933 203.06 25.1667 203.06 24.9C203.06 24.6333 202.967 24.4067 202.78 24.22C202.593 24.0333 202.367 23.94 202.1 23.94C201.833 23.94 201.607 24.0333 201.42 24.22C201.233 24.4067 201.14 24.6333 201.14 24.9C201.14 25.1667 201.233 25.3933 201.42 25.58C201.607 25.7667 201.833 25.86 202.1 25.86Z" fill="#182223"/>
<path d="M168.56 36.72C170.533 36.5333 172.266 36.1933 173.76 35.7C175.253 35.1933 176.533 34.5133 177.6 33.66C178.666 32.7933 179.54 31.74 180.22 30.5C180.913 29.2467 181.44 27.7733 181.8 26.08L184.86 26.76C184.38 29.4667 183.486 31.7467 182.18 33.6C180.873 35.4533 179.133 36.9 176.96 37.94C174.8 38.9667 172.173 39.6133 169.08 39.88L168.56 36.72ZM174.68 29.72C173.573 29.1067 172.44 28.5467 171.28 28.04C170.133 27.52 168.98 27.0467 167.82 26.62L169.34 23.72C171.7 24.5467 174.02 25.5867 176.3 26.84L174.68 29.72Z" fill="#182223"/>
<path d="M147.94 33.38L147.38 30.54L161.96 27.8L162.5 30.64L147.94 33.38ZM152.76 40.5L150.4 26.9L153.52 26.36L155.88 39.96L152.76 40.5ZM156.34 34.92C156.847 34.6267 157.293 34.3067 157.68 33.96C158.067 33.6 158.4 33.2267 158.68 32.84C158.96 32.44 159.173 32.0267 159.32 31.6C159.467 31.1733 159.54 30.74 159.54 30.3L162.5 30.64C162.473 31.2933 162.353 31.9333 162.14 32.56C161.94 33.1867 161.653 33.7867 161.28 34.36C160.92 34.92 160.487 35.4333 159.98 35.9C159.473 36.3667 158.913 36.7667 158.3 37.1L156.34 34.92Z" fill="#182223"/>
<path d="M133.08 40.84L131.52 23.02L134.92 22.76L136.48 40.58L133.08 40.84ZM125.12 36.2L125.02 33.3L142.9 32.66L142.98 35.56L125.12 36.2ZM125.92 29.1L125.82 26.2L142.1 25.66L142.18 28.56L125.92 29.1Z" fill="#182223"/>
<path d="M105.56 36.72C107.533 36.5333 109.266 36.1933 110.76 35.7C112.253 35.1933 113.533 34.5133 114.6 33.66C115.666 32.7933 116.54 31.74 117.22 30.5C117.913 29.2467 118.44 27.7733 118.8 26.08L121.86 26.76C121.38 29.4667 120.486 31.7467 119.18 33.6C117.873 35.4533 116.133 36.9 113.96 37.94C111.8 38.9667 109.173 39.6133 106.08 39.88L105.56 36.72ZM111.68 29.72C110.573 29.1067 109.44 28.5467 108.28 28.04C107.133 27.52 105.98 27.0467 104.82 26.62L106.34 23.72C108.7 24.5467 111.02 25.5867 113.3 26.84L111.68 29.72Z" fill="#182223"/>
<path d="M84.38 37C87.0333 36.8933 89.2266 36.4267 90.96 35.6C92.6933 34.76 93.9866 33.5467 94.84 31.96C95.6933 30.36 96.12 28.3667 96.12 25.98L97.74 27.68H83.46V24.62H97.84V26H99.44C99.44 28.96 98.8866 31.4667 97.78 33.52C96.6866 35.56 95.0666 37.1267 92.92 38.22C90.7733 39.3133 88.12 39.9 84.96 39.98L84.38 37ZM98.96 27.76C98.4266 27.76 97.9333 27.6333 97.48 27.38C97.04 27.1133 96.6866 26.76 96.42 26.32C96.1666 25.8667 96.04 25.3733 96.04 24.84C96.04 24.2933 96.1666 23.8 96.42 23.36C96.6866 22.9067 97.04 22.5533 97.48 22.3C97.9333 22.0333 98.4266 21.9 98.96 21.9C99.5066 21.9 100 22.0333 100.44 22.3C100.893 22.5533 101.247 22.9067 101.5 23.36C101.767 23.8 101.9 24.2933 101.9 24.84C101.9 25.3733 101.767 25.8667 101.5 26.32C101.247 26.76 100.893 27.1133 100.44 27.38C100 27.6333 99.5066 27.76 98.96 27.76ZM98.96 25.8C99.24 25.8 99.4733 25.7067 99.66 25.52C99.8466 25.32 99.94 25.0933 99.94 24.84C99.94 24.56 99.8466 24.3267 99.66 24.14C99.4733 23.9533 99.24 23.86 98.96 23.86C98.6933 23.86 98.4666 23.9533 98.28 24.14C98.0933 24.3267 98 24.56 98 24.84C98 25.1067 98.0933 25.3333 98.28 25.52C98.48 25.7067 98.7066 25.8 98.96 25.8Z" fill="#182223"/>
<path d="M62.6602 33.42V30.18H79.3402V33.42H62.6602Z" fill="#182223"/>
<path d="M41.5199 35.06C42.6932 34.4467 43.8665 33.7333 45.0399 32.92C46.2132 32.1067 47.3532 31.2133 48.4599 30.24C49.5799 29.2667 50.6199 28.2533 51.5799 27.2L53.8799 28.9C52.7732 30.14 51.6399 31.2867 50.4799 32.34C49.3332 33.3933 48.1465 34.36 46.9199 35.24C45.7065 36.1067 44.4465 36.9 43.1399 37.62L41.5199 35.06ZM51.3399 40.14C51.0199 40.14 50.6999 40.1333 50.3799 40.12C50.0732 40.1067 49.7265 40.08 49.3399 40.04C48.9665 40.0133 48.5265 39.98 48.0199 39.94L48.1799 37.12C48.6332 37.16 49.0332 37.1933 49.3799 37.22C49.7399 37.2467 50.0532 37.2733 50.3199 37.3C50.5865 37.3133 50.8132 37.32 50.9999 37.32C51.4132 37.32 51.7199 37.3 51.9199 37.26C52.1332 37.22 52.2665 37.14 52.3199 37.02C52.3865 36.8867 52.4199 36.6933 52.4199 36.44V22.56H55.5599V36.44C55.5599 37.2667 55.5132 37.9267 55.4199 38.42C55.3399 38.9133 55.1599 39.28 54.8799 39.52C54.5999 39.7733 54.1732 39.94 53.5999 40.02C53.0399 40.1 52.2865 40.14 51.3399 40.14ZM41.3599 28.16V25.34H59.2599V28.16H41.3599Z" fill="#182223"/>
<path d="M176.972 59.934L176.72 52.78H178.792L178.554 59.934H176.972ZM176.776 63V61.096H178.75V63H176.776Z" fill="#182223"/>
<path d="M162.048 64.204L161.544 62.762C162.319 62.5007 162.935 62.202 163.392 61.866C163.859 61.5207 164.195 61.1007 164.4 60.606C164.615 60.102 164.722 59.5 164.722 58.8V57.246H166.332V58.8C166.332 59.4253 166.234 60.0227 166.038 60.592C165.842 61.152 165.553 61.67 165.17 62.146C164.797 62.622 164.344 63.0327 163.812 63.378C163.289 63.7327 162.701 64.008 162.048 64.204ZM156.896 64.358V60.116H161.418V63.812H158.422V62.566H160.004V61.362H158.422V64.358H156.896ZM157.008 59.388V58.128H161.348V59.388H157.008ZM157.008 57.4V56.14H161.348V57.4H157.008ZM162.93 61.292L161.572 60.788C161.805 60.368 162.001 59.9433 162.16 59.514C162.328 59.0753 162.463 58.618 162.566 58.142L163.966 58.492C163.854 58.996 163.714 59.4767 163.546 59.934C163.378 60.382 163.173 60.8347 162.93 61.292ZM156.518 55.398V54.04H161.74V55.398H156.518ZM169.118 64.204C168.455 63.9987 167.858 63.714 167.326 63.35C166.803 62.9953 166.355 62.58 165.982 62.104C165.618 61.628 165.338 61.11 165.142 60.55C164.946 59.99 164.848 59.4067 164.848 58.8H166.332C166.332 59.472 166.439 60.0553 166.654 60.55C166.878 61.0447 167.228 61.474 167.704 61.838C168.189 62.1927 168.829 62.5007 169.622 62.762L169.118 64.204ZM156.896 53.354V52.052H161.376V53.354H156.896ZM168.32 60.998L166.934 60.438C167.195 60.046 167.419 59.6353 167.606 59.206C167.802 58.7673 167.97 58.3193 168.11 57.862L169.524 58.254C169.384 58.7487 169.211 59.2247 169.006 59.682C168.81 60.13 168.581 60.5687 168.32 60.998ZM162.076 58.296L161.572 56.854C162.337 56.602 162.949 56.3033 163.406 55.958C163.863 55.6127 164.195 55.1927 164.4 54.698C164.615 54.2033 164.722 53.6013 164.722 52.892V51.674H166.332V52.892C166.332 53.5173 166.234 54.1147 166.038 54.684C165.842 55.244 165.557 55.762 165.184 56.238C164.811 56.714 164.358 57.1293 163.826 57.484C163.303 57.8293 162.72 58.1 162.076 58.296ZM163.168 55.398L161.824 54.894C162.048 54.4833 162.244 54.0633 162.412 53.634C162.58 53.1953 162.715 52.738 162.818 52.262L164.218 52.598C164.097 53.102 163.952 53.5827 163.784 54.04C163.625 54.488 163.42 54.9407 163.168 55.398ZM169.048 58.296C168.385 58.0907 167.793 57.8107 167.27 57.456C166.757 57.092 166.318 56.6767 165.954 56.21C165.59 55.734 165.315 55.216 165.128 54.656C164.941 54.0867 164.848 53.4987 164.848 52.892H166.332C166.332 53.564 166.435 54.152 166.64 54.656C166.845 55.1507 167.181 55.5753 167.648 55.93C168.124 56.2847 168.759 56.5927 169.552 56.854L169.048 58.296ZM168.25 55.202L166.864 54.642C167.125 54.25 167.349 53.8347 167.536 53.396C167.732 52.9573 167.9 52.5093 168.04 52.052L169.454 52.458C169.314 52.9527 169.141 53.4287 168.936 53.886C168.74 54.334 168.511 54.7727 168.25 55.202Z" fill="#182223"/>
<path d="M147.488 64.148V52.038H154.348V64.148H152.71V63.462H149.084V62.118H152.71V60.116H149.084V58.772H152.71V56.77H149.084V55.412H152.71V53.424H149.084V64.148H147.488ZM142.364 61.866L141.524 60.326C142.112 59.486 142.593 58.646 142.966 57.806C143.349 56.966 143.638 56.0887 143.834 55.174L144.716 55.524C144.613 56.336 144.45 57.1247 144.226 57.89C144.011 58.6554 143.745 59.3787 143.428 60.06C143.12 60.732 142.765 61.334 142.364 61.866ZM144.016 64.288V55.524H142.098V54.082H144.016V51.632H145.626V54.082H147.068V55.524H145.626V64.288H144.016ZM146.732 59.948C146.415 59.276 146.065 58.576 145.682 57.848C145.299 57.12 144.935 56.4434 144.59 55.818L145.668 55.146C146.06 55.8087 146.424 56.4434 146.76 57.05C147.105 57.6474 147.469 58.31 147.852 59.038L146.732 59.948Z" fill="#182223"/>
<path d="M135.238 63.658C134.407 63.658 133.712 63.602 133.152 63.49C132.592 63.3873 132.153 63.21 131.836 62.958C131.519 62.6967 131.29 62.3467 131.15 61.908C131.019 61.46 130.954 60.8953 130.954 60.214C130.954 59.9993 130.959 59.6727 130.968 59.234C130.977 58.786 130.991 58.2633 131.01 57.666C131.029 57.0687 131.047 56.434 131.066 55.762C131.094 55.0807 131.122 54.3947 131.15 53.704C131.178 53.0133 131.206 52.3507 131.234 51.716L132.9 51.758C132.872 52.318 132.844 52.92 132.816 53.564C132.788 54.208 132.76 54.852 132.732 55.496C132.713 56.14 132.695 56.7513 132.676 57.33C132.657 57.9087 132.643 58.4267 132.634 58.884C132.625 59.332 132.62 59.682 132.62 59.934C132.62 60.41 132.653 60.7927 132.718 61.082C132.783 61.3713 132.909 61.5953 133.096 61.754C133.283 61.9127 133.549 62.02 133.894 62.076C134.249 62.132 134.697 62.16 135.238 62.16C135.975 62.16 136.554 62.1133 136.974 62.02C137.403 61.9173 137.702 61.754 137.87 61.53C138.047 61.2967 138.136 60.984 138.136 60.592C138.136 60.424 138.117 60.2233 138.08 59.99C138.043 59.7567 138.001 59.5607 137.954 59.402L139.578 59.052C139.662 59.388 139.718 59.6773 139.746 59.92C139.783 60.1627 139.802 60.4053 139.802 60.648C139.802 61.348 139.643 61.922 139.326 62.37C139.009 62.818 138.514 63.1447 137.842 63.35C137.17 63.5553 136.302 63.658 135.238 63.658ZM127.482 58.478V57.064H138.584V58.478H127.482ZM127.762 54.824V53.41H138.304V54.824H127.762Z" fill="#182223"/>
<path d="M121.028 63.658C119.899 63.658 118.914 63.4574 118.074 63.056C117.243 62.664 116.599 62.1087 116.142 61.39C115.685 60.662 115.456 59.808 115.456 58.828C115.456 58.0627 115.591 57.3534 115.862 56.7C116.142 56.0467 116.534 55.4774 117.038 54.992C117.551 54.4974 118.158 54.1194 118.858 53.858L118.998 54.292L112.334 54.446V52.948L124.136 52.668V54.166L122.358 54.208C121.611 54.2267 120.921 54.348 120.286 54.572C119.661 54.7867 119.119 55.09 118.662 55.482C118.214 55.874 117.864 56.3407 117.612 56.882C117.36 57.414 117.234 58.0067 117.234 58.66C117.234 59.3694 117.388 59.9854 117.696 60.508C118.004 61.0214 118.438 61.418 118.998 61.698C119.567 61.978 120.249 62.118 121.042 62.118C121.21 62.118 121.397 62.1134 121.602 62.104C121.817 62.0854 122.031 62.0667 122.246 62.048C122.47 62.02 122.666 61.992 122.834 61.964L123.016 63.504C122.82 63.532 122.605 63.5554 122.372 63.574C122.139 63.602 121.905 63.6207 121.672 63.63C121.439 63.6487 121.224 63.658 121.028 63.658ZM122.456 59.29C122.241 58.814 122.008 58.3614 121.756 57.932C121.513 57.4934 121.233 57.0454 120.916 56.588L122.134 55.916C122.451 56.3734 122.736 56.826 122.988 57.274C123.24 57.7127 123.478 58.1794 123.702 58.674L122.456 59.29ZM124.584 58.492C124.379 58.0067 124.155 57.5494 123.912 57.12C123.679 56.6814 123.408 56.2334 123.1 55.776L124.318 55.132C124.626 55.5987 124.901 56.056 125.144 56.504C125.396 56.952 125.625 57.428 125.83 57.932L124.584 58.492Z" fill="#182223"/>
<path d="M100.714 61.572C102.543 61.572 104.032 61.4413 105.18 61.18C106.328 60.9093 107.168 60.4987 107.7 59.948C108.241 59.388 108.512 58.6647 108.512 57.778C108.512 56.7887 108.185 56.042 107.532 55.538C106.879 55.034 105.903 54.782 104.606 54.782C104.121 54.782 103.589 54.8193 103.01 54.894C102.431 54.9687 101.769 55.0853 101.022 55.244C100.285 55.4027 99.4214 55.6127 98.432 55.874L98.082 54.208C99.5754 53.844 100.859 53.5827 101.932 53.424C103.015 53.256 103.948 53.172 104.732 53.172C105.927 53.172 106.939 53.3447 107.77 53.69C108.601 54.026 109.231 54.5253 109.66 55.188C110.089 55.8507 110.304 56.6627 110.304 57.624C110.304 59.444 109.506 60.8207 107.91 61.754C106.314 62.6873 103.953 63.154 100.826 63.154L100.714 61.572Z" fill="#182223"/>
<path d="M86.9939 63.406C86.5179 63.406 86.0793 63.2613 85.6779 62.972C85.2766 62.6733 84.9266 62.258 84.6279 61.726C84.3293 61.194 84.0959 60.5687 83.9279 59.85C83.7693 59.122 83.6899 58.338 83.6899 57.498C83.6899 56.8167 83.7459 56.098 83.8579 55.342C83.9793 54.5767 84.1613 53.774 84.4039 52.934L86.0419 53.13C85.8273 53.9047 85.6639 54.642 85.5519 55.342C85.4399 56.042 85.3839 56.7 85.3839 57.316C85.3839 57.904 85.4306 58.4593 85.5239 58.982C85.6173 59.5047 85.7433 59.962 85.9019 60.354C86.0699 60.746 86.2566 61.054 86.4619 61.278C86.6766 61.502 86.9006 61.614 87.1339 61.614C87.3579 61.614 87.6006 61.5207 87.8619 61.334C88.1326 61.138 88.4079 60.8767 88.6879 60.55C88.9679 60.2233 89.2293 59.85 89.4719 59.43C89.7239 59.01 89.9339 58.5713 90.1019 58.114L91.5999 58.87C91.3666 59.5047 91.0773 60.0973 90.7319 60.648C90.3866 61.1987 90.0039 61.684 89.5839 62.104C89.1733 62.5147 88.7439 62.832 88.2959 63.056C87.8479 63.2893 87.4139 63.406 86.9939 63.406ZM94.0219 62.048C94.0219 60.984 93.9473 59.9247 93.7979 58.87C93.6579 57.8153 93.4479 56.8027 93.1679 55.832C92.8973 54.8613 92.5706 53.97 92.1879 53.158L93.7419 52.696C94.1713 53.5453 94.5259 54.474 94.8059 55.482C95.0953 56.4807 95.3146 57.5353 95.4639 58.646C95.6226 59.7473 95.7019 60.8813 95.7019 62.048H94.0219Z" fill="#182223"/>
<path fill-rule="evenodd" clip-rule="evenodd" d="M251.707 43.707L246.05 49.364L244.636 47.95L249.586 43L244.636 38.05L246.05 36.636L251.707 42.293C251.895 42.4805 252 42.7348 252 43C252 43.2652 251.895 43.5195 251.707 43.707Z" fill="#182223"/>
<defs>
<linearGradient id="paint0_linear_2266_267" x1="0" y1="0" x2="255.677" y2="111.307" gradientUnits="userSpaceOnUse">
<stop stop-color="#FFC300"/>
<stop offset="1" stop-color="#FFE500"/>
</linearGradient>
</defs>
</svg>
