<?xml version="1.0" encoding="UTF-8"?><svg id="_レイヤー_2" xmlns="http://www.w3.org/2000/svg" xmlns:xlink="http://www.w3.org/1999/xlink" viewBox="0 0 68.65 67.07"><defs><style>.cls-1{fill:url(#_名称未設定グラデーション_11-3);}.cls-1,.cls-2,.cls-3,.cls-4,.cls-5{stroke-width:0px;}.cls-6{clip-path:url(#clippath-2);}.cls-2{fill:none;}.cls-3{fill:url(#_名称未設定グラデーション_11);}.cls-7{clip-path:url(#clippath-1);}.cls-8{clip-path:url(#clippath-4);}.cls-9{opacity:.95;}.cls-4{fill:url(#_名称未設定グラデーション_11-2);}.cls-10{clip-path:url(#clippath);}.cls-11{clip-path:url(#clippath-3);}.cls-5{fill:url(#_名称未設定グラデーション_8);}</style><clipPath id="clippath"><rect class="cls-2" x="2.73" y="3.01" width="63.33" height="61.47"/></clipPath><clipPath id="clippath-1"><rect class="cls-2" x="2.73" y="3.01" width="63.33" height="61.47"/></clipPath><linearGradient id="_名称未設定グラデーション_8" x1="-337.05" y1="2609.02" x2="-334.31" y2="2609.02" gradientTransform="translate(-84064.42 10853.85) rotate(90) scale(32.23 -32.23)" gradientUnits="userSpaceOnUse"><stop offset="0" stop-color="#5e4420"/><stop offset="1" stop-color="#363115"/></linearGradient><clipPath id="clippath-2"><path class="cls-2" d="M5.6,5.46h57.59v56.3H5.6V5.46ZM0,67.07h68.65V0H0v67.07Z"/></clipPath><linearGradient id="_名称未設定グラデーション_11" x1="-333.18" y1="2605.67" x2="-330.44" y2="2605.67" gradientTransform="translate(-91310.66 11665.48) rotate(90) scale(35.06 -35.06)" gradientUnits="userSpaceOnUse"><stop offset="0" stop-color="#f4be5f"/><stop offset="1" stop-color="#f2981c"/></linearGradient><clipPath id="clippath-3"><path class="cls-2" d="M28.04,28.32c.51-1.69.93-3.66,1.35-5.31h.08c.42,1.64.89,3.58,1.43,5.31l2.23,6.99h-7.29l2.19-6.99ZM26.32,18.89l-9.09,28.38h5.34l2.44-8.04h9.01l2.57,8.04h5.56l-9.22-28.38h-6.61Z"/></clipPath><linearGradient id="_名称未設定グラデーション_11-2" x1="-284.95" y1="2732.62" x2="-282.21" y2="2732.62" gradientTransform="translate(3402.26 32499.75) scale(11.88 -11.88)" xlink:href="#_名称未設定グラデーション_11"/><clipPath id="clippath-4"><path class="cls-2" d="M44.17,47.27h5.22v-20.51h-5.22v20.51ZM43.87,21.04c0,1.56,1.14,2.78,2.87,2.78,1.81,0,2.95-1.22,2.95-2.78-.05-1.6-1.14-2.82-2.9-2.82s-2.92,1.22-2.92,2.82"/></clipPath><linearGradient id="_名称未設定グラデーション_11-3" x1="-284.96" y1="2732.41" x2="-282.23" y2="2732.41" gradientTransform="translate(3406.92 32540.32) scale(11.9 -11.9)" xlink:href="#_名称未設定グラデーション_11"/></defs><g id="_レイヤー_1-2"><g class="cls-9"><g class="cls-10"><g class="cls-7"><rect class="cls-5" x="-9.73" y="-10.38" width="88.25" height="88.25" transform="translate(-13.79 34.21) rotate(-45)"/></g></g></g><g class="cls-6"><rect class="cls-3" x="-13.65" y="-14.45" width="95.94" height="95.97" transform="translate(-13.65 34.65) rotate(-45.67)"/></g><g class="cls-11"><rect class="cls-4" x="17.23" y="18.89" width="24.92" height="28.38"/></g><g class="cls-8"><rect class="cls-1" x="43.87" y="18.22" width="5.82" height="29.05"/></g></g></svg>