<?xml version="1.0" encoding="UTF-8"?><svg id="_レイヤー_2" xmlns="http://www.w3.org/2000/svg" xmlns:xlink="http://www.w3.org/1999/xlink" viewBox="0 0 68.65 67.07"><defs><style>.cls-1{fill:none;}.cls-1,.cls-2,.cls-3,.cls-4{stroke-width:0px;}.cls-5{clip-path:url(#clippath-1);}.cls-6{opacity:.95;}.cls-2{fill:#9d68a9;}.cls-7{clip-path:url(#clippath);}.cls-3{fill:url(#_名称未設定グラデーション_7);}.cls-4{fill:#3d2744;}</style><clipPath id="clippath"><rect class="cls-1" x="2.72" y="3.02" width="63.34" height="61.47"/></clipPath><clipPath id="clippath-1"><rect class="cls-1" x="2.72" y="3.02" width="63.34" height="61.47"/></clipPath><linearGradient id="_名称未設定グラデーション_7" x1="-451.82" y1="2464.7" x2="-449.08" y2="2464.7" gradientTransform="translate(-79417.66 14554.39) rotate(90) scale(32.24 -32.24)" gradientUnits="userSpaceOnUse"><stop offset="0" stop-color="#2e2876"/><stop offset="1" stop-color="#26275d"/></linearGradient></defs><g id="_レイヤー_1-2"><g class="cls-6"><g class="cls-7"><g class="cls-5"><rect class="cls-3" x="-9.73" y="-10.38" width="88.25" height="88.25" transform="translate(-13.79 34.21) rotate(-45)"/></g></g></g><rect class="cls-2" width="68.65" height="67.07"/><rect class="cls-4" x="5.6" y="5.46" width="57.59" height="56.3"/><path class="cls-2" d="M45.79,36.34s1.28-1.82,4.65-1.63c.04,0,.08-.04.08-.08v-3.93s-.02-.05-.04-.06c-.27-.15-2.03-.95-4.91,2.27.04.02-.15-1.71-.8-2.19l-3.75.04s.41,2,.41,5.41v10.77c0,.23.18.41.41.41h3.53c.22,0,.41-.18.41-.41l.02-10.6Z"/><path class="cls-2" d="M37.57,24.62c-.5-1.17-1.21-2.23-2.11-3.13-.9-.9-1.96-1.62-3.13-2.11-1.22-.51-2.5-.77-3.84-.77h-10.37v28.33c0,.22.18.41.41.41h5.07c.22,0,.41-.18.41-.41v-8.63h4.48c1.33,0,2.62-.26,3.84-.77,1.17-.5,2.23-1.21,3.13-2.11.9-.9,1.62-1.96,2.11-3.13.51-1.22.77-2.51.77-3.84s-.26-2.62-.77-3.84M28.45,32.98h-4.45v-9.05h4.48c2.5,0,4.53,2.03,4.53,4.53,0,2.49-2.08,4.52-4.56,4.52"/></g></svg>