<?xml version="1.0" encoding="UTF-8"?><svg id="_レイヤー_2" xmlns="http://www.w3.org/2000/svg" xmlns:xlink="http://www.w3.org/1999/xlink" viewBox="0 0 68.65 67.07"><defs><style>.cls-1{fill:url(#_名称未設定グラデーション_5);}.cls-1,.cls-2,.cls-3,.cls-4,.cls-5{stroke-width:0px;}.cls-6{clip-path:url(#clippath-2);}.cls-2{fill:none;}.cls-7{clip-path:url(#clippath-1);}.cls-8{clip-path:url(#clippath-4);}.cls-9{opacity:.95;}.cls-3{fill:url(#_名称未設定グラデーション_5-2);}.cls-10{clip-path:url(#clippath);}.cls-11{clip-path:url(#clippath-3);}.cls-4{fill:url(#_名称未設定グラデーション_5-3);}.cls-5{fill:url(#_名称未設定グラデーション_7);}</style><clipPath id="clippath"><rect class="cls-2" x="2.72" y="3.01" width="63.34" height="61.47"/></clipPath><clipPath id="clippath-1"><rect class="cls-2" x="2.72" y="3.01" width="63.34" height="61.47"/></clipPath><linearGradient id="_名称未設定グラデーション_7" x1="-27.81" y1="2604.94" x2="-25.08" y2="2604.94" gradientTransform="translate(-83938.27 886.19) rotate(90) scale(32.24 -32.24)" gradientUnits="userSpaceOnUse"><stop offset="0" stop-color="#2e2876"/><stop offset="1" stop-color="#26275d"/></linearGradient><clipPath id="clippath-2"><path class="cls-2" d="M5.6,5.45h57.59v56.3H5.6V5.45ZM0,67.07h68.65V0H0v67.07Z"/></clipPath><linearGradient id="_名称未設定グラデーション_5" x1="-23.64" y1="2601.98" x2="-20.9" y2="2601.98" gradientTransform="translate(-91181.35 814.23) rotate(90) scale(35.06 -35.06)" gradientUnits="userSpaceOnUse"><stop offset="0" stop-color="#96c0e7"/><stop offset="1" stop-color="#74acdd"/></linearGradient><clipPath id="clippath-3"><path class="cls-2" d="M23.18,32.41v-9.6c.55-.13,1.56-.25,2.99-.25,3.58,0,5.77,1.68,5.77,4.84,0,3.33-2.35,5.22-6.23,5.22-1.05,0-1.89-.04-2.53-.21M18.04,19.19v28h5.13v-10.69c.67.12,1.56.17,2.53.17,3.66,0,6.9-.97,8.97-3.03,1.6-1.52,2.44-3.75,2.44-6.44s-1.1-4.88-2.78-6.27c-1.82-1.52-4.59-2.31-8.38-2.31-3.49,0-6.06.25-7.91.59"/></clipPath><linearGradient id="_名称未設定グラデーション_5-2" x1="12.31" y1="2724.65" x2="15.05" y2="2724.65" gradientTransform="translate(-135.82 34053.3) scale(12.49 -12.49)" xlink:href="#_名称未設定グラデーション_5"/><clipPath id="clippath-4"><path class="cls-2" d="M38.25,32.67c-.05,2.4,1.64,4.59,5.64,5.98,2.52.88,3.37,1.6,3.37,2.99s-1.01,2.27-3.29,2.27c-1.85,0-4.08-.76-5.26-1.47l-1.01,3.75c1.51.84,3.74,1.48,6.23,1.48,5.43,0,8.34-2.74,8.34-6.44-.04-3.03-1.77-4.93-5.47-6.27-2.61-.93-3.58-1.56-3.58-2.86s1.01-2.15,2.87-2.15,3.44.68,4.33,1.18l1.02-3.66c-1.18-.63-3.16-1.22-5.44-1.22-4.76,0-7.74,2.82-7.74,6.44"/></clipPath><linearGradient id="_名称未設定グラデーション_5-3" x1="12.31" y1="2724.47" x2="15.05" y2="2724.47" gradientTransform="translate(-135.79 34050.49) scale(12.48 -12.48)" xlink:href="#_名称未設定グラデーション_5"/></defs><g id="_レイヤー_1-2"><g class="cls-9"><g class="cls-10"><g class="cls-7"><rect class="cls-5" x="-9.73" y="-10.38" width="88.25" height="88.25" transform="translate(-13.79 34.2) rotate(-45)"/></g></g></g><g class="cls-6"><rect class="cls-1" x="-13.65" y="-14.45" width="95.94" height="95.97" transform="translate(-13.65 34.65) rotate(-45.67)"/></g><g class="cls-11"><rect class="cls-3" x="18.04" y="18.61" width="19.07" height="28.58"/></g><g class="cls-8"><rect class="cls-4" x="37.71" y="26.22" width="14.56" height="21.43"/></g></g></svg>