<?xml version="1.0" encoding="UTF-8"?><svg id="_レイヤー_2" xmlns="http://www.w3.org/2000/svg" xmlns:xlink="http://www.w3.org/1999/xlink" viewBox="0 0 68.65 67.07"><defs><style>.cls-1{fill:#9295c9;}.cls-1,.cls-2,.cls-3,.cls-4{stroke-width:0px;}.cls-2{fill:none;}.cls-5{clip-path:url(#clippath-1);}.cls-6{opacity:.95;}.cls-3{fill:#182448;}.cls-7{clip-path:url(#clippath);}.cls-4{fill:url(#_名称未設定グラデーション_7);}</style><clipPath id="clippath"><rect class="cls-2" x="2.73" y="3.02" width="63.34" height="61.47"/></clipPath><clipPath id="clippath-1"><rect class="cls-2" x="2.72" y="3.02" width="63.34" height="61.47"/></clipPath><linearGradient id="_名称未設定グラデーション_7" x1="-738.75" y1="2468.75" x2="-736.01" y2="2468.75" gradientTransform="translate(-79548.26 23804.03) rotate(90) scale(32.24 -32.24)" gradientUnits="userSpaceOnUse"><stop offset="0" stop-color="#2e2876"/><stop offset="1" stop-color="#26275d"/></linearGradient></defs><g id="_レイヤー_1-2"><g class="cls-6"><g class="cls-7"><g class="cls-5"><rect class="cls-4" x="-9.73" y="-10.38" width="88.25" height="88.25" transform="translate(-13.79 34.21) rotate(-45)"/></g></g></g><rect class="cls-1" width="68.65" height="67.07"/><rect class="cls-3" x="5.6" y="5.46" width="57.59" height="56.3"/><path class="cls-1" d="M44.3,37.39c.19,2.44,2.52,4.04,5.26,4.04,2.01,0,3.64-.27,5.22-.77v4.28c-1.93.77-4.29,1.2-6.84,1.2-6.42,0-9.26-4.5-9.26-10.42,0-4.8,2.98-10.1,9.56-10.1,6.11,0,8.43,4.76,8.43,9.44,0,1-.12,1.89-.19,2.32h-12.19ZM51.22,33.37c0-1.43-.62-3.83-3.33-3.83-2.48,0-3.48,2.24-3.64,3.83h6.96Z"/><path class="cls-1" d="M28.43,18.61h-7.22c.09,1.42-.31,2.66-.31,2.66l-8.77,25.28c-.1.3.11.6.43.6h.37l4.64.02c.2,0,.38-.13.44-.32l2.04-6.45,10.07.03,2.16,6.42c.06.19.24.31.43.31h5.51c.31,0,.53-.31.43-.6l-9.79-27.65c-.06-.18-.24-.3-.43-.3M21.59,34.9s3.13-9.64,3.38-11.3l3.52,11.3h-6.9Z"/></g></svg>