<?xml version="1.0" encoding="UTF-8"?><svg id="_レイヤー_2" xmlns="http://www.w3.org/2000/svg" viewBox="0 0 67.24 67.24"><defs><style>.cls-1{fill:#040000;fill-rule:evenodd;stroke-width:0px;}</style></defs><g id="_レイヤー_1-2"><path class="cls-1" d="M33.62,67.24c18.57,0,33.62-15.05,33.62-33.62S52.19,0,33.62,0,0,15.05,0,33.62s15.05,33.62,33.62,33.62M42.22,52.31c8.22-3.88,10.8-11.05,11.38-13.85-3.01,3.08-6.33,6.2-8.57,4.04,0,0-.12-11.53-.12-16.25,0-6.36,6.03-11.09,6.03-11.09-3.32.59-7.3,1.77-11.52,5.92-.38.38-.74.78-1.08,1.19-1.81-1.39-4.16-.97-4.16-.97,1.27.7,2.53,2.72,2.53,4.4v16.51s-2.77,2.43-4.89,2.43c-.48,0-.95-.11-1.38-.33-.43-.22-.8-.53-1.08-.92-.17-.22-.31-.46-.41-.72v-20.39c-.63.52-2.76.95-2.76-2.59,0-2.19,1.58-4.81,4.4-6.41-3.87.59-7.49,2.26-10.45,4.82-2.25,1.94-4.05,4.35-5.27,7.06-1.22,2.71-1.84,5.65-1.81,8.62,0,0,2.06-6.44,4.64-7.03.38-.1.77-.11,1.15-.03.38.08.74.25,1.04.49.3.24.55.55.71.91.16.35.24.74.23,1.13v15.11c0,1.53-.99,1.87-1.9,1.85-.62-.04-1.23-.16-1.82-.34,1.88,2.55,4.33,4.63,7.15,6.08,2.82,1.45,5.94,2.22,9.11,2.26l5.57-5.6,3.3,3.71Z"/></g></svg>