<?xml version="1.0" encoding="UTF-8"?><svg id="_レイヤー_2" xmlns="http://www.w3.org/2000/svg" viewBox="0 0 66.22 66.22"><defs><style>.cls-1{fill:#98c84c;}.cls-1,.cls-2{stroke-width:0px;}.cls-2{fill:#203116;}</style></defs><g id="_レイヤー_1-2"><path class="cls-2" d="M54.34,0H11.87C5.32,0,0,5.32,0,11.88v42.46c0,6.56,5.32,11.88,11.87,11.88h42.47c6.56,0,11.88-5.32,11.88-11.88V11.88c0-6.56-5.32-11.88-11.88-11.88"/><path class="cls-1" d="M24.25,17.58c8.66,0,13.53,4.05,13.53,10.84,0,7.93-6.61,11.11-12.8,11.11h-4.19v8.56h-8.47v-30.52h11.94ZM20.79,24.82v7.47h3.74c2.6,0,4.42-1.05,4.42-3.69,0-2.41-1.55-3.78-4.24-3.78h-3.92Z"/><path class="cls-1" d="M50.35,24.55h4.37v6.33h-4.37v8.11c0,2.19.91,3.01,2.46,3.01.5,0,1.23-.09,1.91-.32l.04,6.29c-1,.37-2.09.59-4.14.59-5.19,0-8.25-2.46-8.25-8.29v-9.38h-3.42v-6.33h3.42v-5.97h7.97v5.97Z"/></g></svg>